<?xml version="1.0" encoding="UTF-8" standalone="no"?>
<!DOCTYPE svg PUBLIC "-//W3C//DTD SVG 1.1//EN"
 "http://www.w3.org/Graphics/SVG/1.1/DTD/svg11.dtd">
<!-- Generated by graphviz version 7.0.0 (20221023.0053)
 -->
<!-- Title: G Pages: 1 -->
<svg width="386pt" height="332pt"
 viewBox="0.00 0.00 385.95 332.00" xmlns="http://www.w3.org/2000/svg" xmlns:xlink="http://www.w3.org/1999/xlink">
<g id="graph0" class="graph" transform="scale(1 1) rotate(0) translate(4 328)">
<title>G</title>
<polygon fill="white" stroke="none" points="-4,4 -4,-328 381.95,-328 381.95,4 -4,4"/>
<!-- copyable_any -->
<g id="node1" class="node">
<title>copyable_any</title>
<ellipse fill="none" stroke="black" cx="155.95" cy="-306" rx="59.59" ry="18"/>
<text text-anchor="middle" x="155.95" y="-302.3" font-family="Times,serif" font-size="14.00">copyable_any</text>
</g>
<!-- error -->
<g id="node2" class="node">
<title>error</title>
<ellipse fill="none" stroke="black" cx="27.95" cy="-234" rx="27.9" ry="18"/>
<text text-anchor="middle" x="27.95" y="-230.3" font-family="Times,serif" font-size="14.00">error</text>
</g>
<!-- copyable_any&#45;&gt;error -->
<g id="edge1" class="edge">
<title>copyable_any&#45;&gt;error</title>
<path fill="none" stroke="black" d="M128.17,-289.81C107.67,-278.6 79.76,-263.34 58.61,-251.77"/>
<polygon fill="black" stroke="black" points="60.31,-248.71 49.86,-246.98 56.95,-254.85 60.31,-248.71"/>
</g>
<!-- string -->
<g id="node3" class="node">
<title>string</title>
<ellipse fill="none" stroke="black" cx="155.95" cy="-162" rx="30.59" ry="18"/>
<text text-anchor="middle" x="155.95" y="-158.3" font-family="Times,serif" font-size="14.00">string</text>
</g>
<!-- copyable_any&#45;&gt;string -->
<g id="edge2" class="edge">
<title>copyable_any&#45;&gt;string</title>
<path fill="none" stroke="black" d="M132.86,-288.92C121.55,-279.6 109.07,-266.79 102.95,-252 96.82,-237.22 96.82,-230.78 102.95,-216 108.13,-203.48 117.87,-192.38 127.59,-183.61"/>
<polygon fill="black" stroke="black" points="129.81,-186.32 135.23,-177.21 125.32,-180.95 129.81,-186.32"/>
</g>
<!-- type_info -->
<g id="node4" class="node">
<title>type_info</title>
<ellipse fill="none" stroke="black" cx="155.95" cy="-234" rx="44.39" ry="18"/>
<text text-anchor="middle" x="155.95" y="-230.3" font-family="Times,serif" font-size="14.00">type_info</text>
</g>
<!-- copyable_any&#45;&gt;type_info -->
<g id="edge3" class="edge">
<title>copyable_any&#45;&gt;type_info</title>
<path fill="none" stroke="black" d="M155.95,-287.7C155.95,-280.41 155.95,-271.73 155.95,-263.54"/>
<polygon fill="black" stroke="black" points="159.45,-263.62 155.95,-253.62 152.45,-263.62 159.45,-263.62"/>
</g>
<!-- from_bcs -->
<g id="node5" class="node">
<title>from_bcs</title>
<ellipse fill="none" stroke="black" cx="261.95" cy="-234" rx="44.39" ry="18"/>
<text text-anchor="middle" x="261.95" y="-230.3" font-family="Times,serif" font-size="14.00">from_bcs</text>
</g>
<!-- copyable_any&#45;&gt;from_bcs -->
<g id="edge4" class="edge">
<title>copyable_any&#45;&gt;from_bcs</title>
<path fill="none" stroke="black" d="M180,-289.12C194.77,-279.36 213.87,-266.75 229.91,-256.16"/>
<polygon fill="black" stroke="black" points="231.76,-259.13 238.18,-250.7 227.9,-253.29 231.76,-259.13"/>
</g>
<!-- bcs -->
<g id="node6" class="node">
<title>bcs</title>
<ellipse fill="none" stroke="black" cx="350.95" cy="-234" rx="27" ry="18"/>
<text text-anchor="middle" x="350.95" y="-230.3" font-family="Times,serif" font-size="14.00">bcs</text>
</g>
<!-- copyable_any&#45;&gt;bcs -->
<g id="edge5" class="edge">
<title>copyable_any&#45;&gt;bcs</title>
<path fill="none" stroke="black" d="M197.28,-292.71C229.66,-282.73 275.65,-267.76 314.95,-252 316.47,-251.39 318.02,-250.74 319.58,-250.08"/>
<polygon fill="black" stroke="black" points="320.74,-253.4 328.43,-246.11 317.88,-247.01 320.74,-253.4"/>
</g>
<!-- vector -->
<g id="node7" class="node">
<title>vector</title>
<ellipse fill="none" stroke="black" cx="155.95" cy="-18" rx="32.49" ry="18"/>
<text text-anchor="middle" x="155.95" y="-14.3" font-family="Times,serif" font-size="14.00">vector</text>
</g>
<!-- string&#45;&gt;vector -->
<g id="edge6" class="edge">
<title>string&#45;&gt;vector</title>
<path fill="none" stroke="black" d="M151.48,-143.95C149.01,-133.63 146.2,-120.15 144.95,-108 143.31,-92.08 143.31,-87.92 144.95,-72 145.79,-63.83 147.33,-55.07 149.01,-47.07"/>
<polygon fill="black" stroke="black" points="152.37,-48.05 151.15,-37.52 145.54,-46.51 152.37,-48.05"/>
</g>
<!-- option -->
<g id="node8" class="node">
<title>option</title>
<ellipse fill="none" stroke="black" cx="186.95" cy="-90" rx="33.29" ry="18"/>
<text text-anchor="middle" x="186.95" y="-86.3" font-family="Times,serif" font-size="14.00">option</text>
</g>
<!-- string&#45;&gt;option -->
<g id="edge7" class="edge">
<title>string&#45;&gt;option</title>
<path fill="none" stroke="black" d="M163.45,-144.05C166.88,-136.32 171.02,-126.96 174.87,-118.27"/>
<polygon fill="black" stroke="black" points="178.05,-119.73 178.9,-109.17 171.65,-116.9 178.05,-119.73"/>
</g>
<!-- type_info&#45;&gt;string -->
<g id="edge8" class="edge">
<title>type_info&#45;&gt;string</title>
<path fill="none" stroke="black" d="M155.95,-215.7C155.95,-208.41 155.95,-199.73 155.95,-191.54"/>
<polygon fill="black" stroke="black" points="159.45,-191.62 155.95,-181.62 152.45,-191.62 159.45,-191.62"/>
</g>
<!-- from_bcs&#45;&gt;string -->
<g id="edge9" class="edge">
<title>from_bcs&#45;&gt;string</title>
<path fill="none" stroke="black" d="M239.47,-218.15C223.72,-207.75 202.52,-193.75 185.42,-182.46"/>
<polygon fill="black" stroke="black" points="187.43,-179.6 177.16,-177.01 183.57,-185.44 187.43,-179.6"/>
</g>
<!-- option&#45;&gt;vector -->
<g id="edge10" class="edge">
<title>option&#45;&gt;vector</title>
<path fill="none" stroke="black" d="M179.44,-72.05C176.02,-64.32 171.87,-54.96 168.02,-46.27"/>
<polygon fill="black" stroke="black" points="171.25,-44.9 164,-37.17 164.84,-47.73 171.25,-44.9"/>
</g>
</g>
</svg>
