<?xml version="1.0" encoding="UTF-8" standalone="no"?>
<!DOCTYPE svg PUBLIC "-//W3C//DTD SVG 1.1//EN"
 "http://www.w3.org/Graphics/SVG/1.1/DTD/svg11.dtd">
<!-- Generated by graphviz version 7.0.0 (20221023.0053)
 -->
<!-- Title: G Pages: 1 -->
<svg width="352pt" height="332pt"
 viewBox="0.00 0.00 351.95 332.00" xmlns="http://www.w3.org/2000/svg" xmlns:xlink="http://www.w3.org/1999/xlink">
<g id="graph0" class="graph" transform="scale(1 1) rotate(0) translate(4 328)">
<title>G</title>
<polygon fill="white" stroke="none" points="-4,4 -4,-328 347.95,-328 347.95,4 -4,4"/>
<!-- ed25519 -->
<g id="node1" class="node">
<title>ed25519</title>
<ellipse fill="none" stroke="black" cx="155.95" cy="-306" rx="40.89" ry="18"/>
<text text-anchor="middle" x="155.95" y="-302.3" font-family="Times,serif" font-size="14.00">ed25519</text>
</g>
<!-- error -->
<g id="node2" class="node">
<title>error</title>
<ellipse fill="none" stroke="black" cx="27.95" cy="-234" rx="27.9" ry="18"/>
<text text-anchor="middle" x="27.95" y="-230.3" font-family="Times,serif" font-size="14.00">error</text>
</g>
<!-- ed25519&#45;&gt;error -->
<g id="edge1" class="edge">
<title>ed25519&#45;&gt;error</title>
<path fill="none" stroke="black" d="M130.96,-291.34C110.24,-280 80.68,-263.84 58.54,-251.73"/>
<polygon fill="black" stroke="black" points="60.42,-248.77 49.97,-247.04 57.07,-254.91 60.42,-248.77"/>
</g>
<!-- option -->
<g id="node3" class="node">
<title>option</title>
<ellipse fill="none" stroke="black" cx="88.95" cy="-90" rx="33.29" ry="18"/>
<text text-anchor="middle" x="88.95" y="-86.3" font-family="Times,serif" font-size="14.00">option</text>
</g>
<!-- ed25519&#45;&gt;option -->
<g id="edge2" class="edge">
<title>ed25519&#45;&gt;option</title>
<path fill="none" stroke="black" d="M135.26,-290.26C123.65,-280.76 110.09,-267.33 102.95,-252 83,-209.19 83.23,-153.07 85.73,-119.65"/>
<polygon fill="black" stroke="black" points="89.19,-120.21 86.59,-109.94 82.22,-119.6 89.19,-120.21"/>
</g>
<!-- type_info -->
<g id="node4" class="node">
<title>type_info</title>
<ellipse fill="none" stroke="black" cx="155.95" cy="-234" rx="44.39" ry="18"/>
<text text-anchor="middle" x="155.95" y="-230.3" font-family="Times,serif" font-size="14.00">type_info</text>
</g>
<!-- ed25519&#45;&gt;type_info -->
<g id="edge3" class="edge">
<title>ed25519&#45;&gt;type_info</title>
<path fill="none" stroke="black" d="M155.95,-287.7C155.95,-280.41 155.95,-271.73 155.95,-263.54"/>
<polygon fill="black" stroke="black" points="159.45,-263.62 155.95,-253.62 152.45,-263.62 159.45,-263.62"/>
</g>
<!-- bcs -->
<g id="node5" class="node">
<title>bcs</title>
<ellipse fill="none" stroke="black" cx="244.95" cy="-234" rx="27" ry="18"/>
<text text-anchor="middle" x="244.95" y="-230.3" font-family="Times,serif" font-size="14.00">bcs</text>
</g>
<!-- ed25519&#45;&gt;bcs -->
<g id="edge4" class="edge">
<title>ed25519&#45;&gt;bcs</title>
<path fill="none" stroke="black" d="M175.26,-289.81C188.18,-279.65 205.31,-266.17 219.36,-255.12"/>
<polygon fill="black" stroke="black" points="221.19,-258.14 226.88,-249.21 216.86,-252.64 221.19,-258.14"/>
</g>
<!-- hash -->
<g id="node6" class="node">
<title>hash</title>
<ellipse fill="none" stroke="black" cx="316.95" cy="-234" rx="27" ry="18"/>
<text text-anchor="middle" x="316.95" y="-230.3" font-family="Times,serif" font-size="14.00">hash</text>
</g>
<!-- ed25519&#45;&gt;hash -->
<g id="edge5" class="edge">
<title>ed25519&#45;&gt;hash</title>
<path fill="none" stroke="black" d="M185.14,-293.01C210.56,-282.48 248.36,-266.6 280.95,-252 282.26,-251.41 283.6,-250.81 284.95,-250.19"/>
<polygon fill="black" stroke="black" points="286.34,-253.41 293.94,-246.03 283.39,-247.06 286.34,-253.41"/>
</g>
<!-- vector -->
<g id="node7" class="node">
<title>vector</title>
<ellipse fill="none" stroke="black" cx="118.95" cy="-18" rx="32.49" ry="18"/>
<text text-anchor="middle" x="118.95" y="-14.3" font-family="Times,serif" font-size="14.00">vector</text>
</g>
<!-- option&#45;&gt;vector -->
<g id="edge6" class="edge">
<title>option&#45;&gt;vector</title>
<path fill="none" stroke="black" d="M96.21,-72.05C99.53,-64.32 103.54,-54.96 107.26,-46.27"/>
<polygon fill="black" stroke="black" points="110.43,-47.75 111.16,-37.18 104,-44.99 110.43,-47.75"/>
</g>
<!-- string -->
<g id="node8" class="node">
<title>string</title>
<ellipse fill="none" stroke="black" cx="149.95" cy="-162" rx="30.59" ry="18"/>
<text text-anchor="middle" x="149.95" y="-158.3" font-family="Times,serif" font-size="14.00">string</text>
</g>
<!-- type_info&#45;&gt;string -->
<g id="edge7" class="edge">
<title>type_info&#45;&gt;string</title>
<path fill="none" stroke="black" d="M154.46,-215.7C153.84,-208.41 153.1,-199.73 152.39,-191.54"/>
<polygon fill="black" stroke="black" points="155.88,-191.28 151.54,-181.61 148.91,-191.87 155.88,-191.28"/>
</g>
<!-- string&#45;&gt;option -->
<g id="edge9" class="edge">
<title>string&#45;&gt;option</title>
<path fill="none" stroke="black" d="M136.41,-145.46C128.59,-136.49 118.59,-125.02 109.79,-114.92"/>
<polygon fill="black" stroke="black" points="112.65,-112.87 103.44,-107.63 107.37,-117.47 112.65,-112.87"/>
</g>
<!-- string&#45;&gt;vector -->
<g id="edge8" class="edge">
<title>string&#45;&gt;vector</title>
<path fill="none" stroke="black" d="M146.37,-143.92C142.59,-126 136.45,-97 130.95,-72 129.18,-63.95 127.22,-55.23 125.41,-47.22"/>
<polygon fill="black" stroke="black" points="128.86,-46.62 123.23,-37.65 122.03,-48.18 128.86,-46.62"/>
</g>
</g>
</svg>
