<?xml version="1.0" encoding="UTF-8" standalone="no"?>
<!DOCTYPE svg PUBLIC "-//W3C//DTD SVG 1.1//EN"
 "http://www.w3.org/Graphics/SVG/1.1/DTD/svg11.dtd">
<!-- Generated by graphviz version 7.0.0 (20221023.0053)
 -->
<!-- Title: G Pages: 1 -->
<svg width="367pt" height="404pt"
 viewBox="0.00 0.00 367.08 404.00" xmlns="http://www.w3.org/2000/svg" xmlns:xlink="http://www.w3.org/1999/xlink">
<g id="graph0" class="graph" transform="scale(1 1) rotate(0) translate(4 400)">
<title>G</title>
<polygon fill="white" stroke="none" points="-4,4 -4,-400 363.08,-400 363.08,4 -4,4"/>
<!-- multi_ed25519 -->
<g id="node1" class="node">
<title>multi_ed25519</title>
<ellipse fill="none" stroke="black" cx="171.08" cy="-378" rx="64.19" ry="18"/>
<text text-anchor="middle" x="171.08" y="-374.3" font-family="Times,serif" font-size="14.00">multi_ed25519</text>
</g>
<!-- error -->
<g id="node2" class="node">
<title>error</title>
<ellipse fill="none" stroke="black" cx="43.08" cy="-234" rx="27.9" ry="18"/>
<text text-anchor="middle" x="43.08" y="-230.3" font-family="Times,serif" font-size="14.00">error</text>
</g>
<!-- multi_ed25519&#45;&gt;error -->
<g id="edge1" class="edge">
<title>multi_ed25519&#45;&gt;error</title>
<path fill="none" stroke="black" d="M155.15,-360.44C145.25,-350.06 132.31,-336.35 121.08,-324 101.3,-302.25 79.27,-277.02 63.68,-258.98"/>
<polygon fill="black" stroke="black" points="66.33,-256.7 57.15,-251.41 61.03,-261.27 66.33,-256.7"/>
</g>
<!-- option -->
<g id="node3" class="node">
<title>option</title>
<ellipse fill="none" stroke="black" cx="99.08" cy="-90" rx="33.29" ry="18"/>
<text text-anchor="middle" x="99.08" y="-86.3" font-family="Times,serif" font-size="14.00">option</text>
</g>
<!-- multi_ed25519&#45;&gt;option -->
<g id="edge2" class="edge">
<title>multi_ed25519&#45;&gt;option</title>
<path fill="none" stroke="black" d="M135.48,-362.7C94.9,-344.13 30.96,-307.4 6.08,-252 -17.45,-199.61 36.65,-142.27 71.83,-112.17"/>
<polygon fill="black" stroke="black" points="73.7,-115.18 79.15,-106.09 69.22,-109.79 73.7,-115.18"/>
</g>
<!-- bcs -->
<g id="node4" class="node">
<title>bcs</title>
<ellipse fill="none" stroke="black" cx="260.08" cy="-234" rx="27" ry="18"/>
<text text-anchor="middle" x="260.08" y="-230.3" font-family="Times,serif" font-size="14.00">bcs</text>
</g>
<!-- multi_ed25519&#45;&gt;bcs -->
<g id="edge3" class="edge">
<title>multi_ed25519&#45;&gt;bcs</title>
<path fill="none" stroke="black" d="M189.37,-360.63C199.64,-350.75 212.14,-337.5 221.08,-324 233.74,-304.87 243.95,-280.95 250.75,-262.72"/>
<polygon fill="black" stroke="black" points="254.02,-263.96 254.11,-253.37 247.43,-261.6 254.02,-263.96"/>
</g>
<!-- hash -->
<g id="node5" class="node">
<title>hash</title>
<ellipse fill="none" stroke="black" cx="332.08" cy="-234" rx="27" ry="18"/>
<text text-anchor="middle" x="332.08" y="-230.3" font-family="Times,serif" font-size="14.00">hash</text>
</g>
<!-- multi_ed25519&#45;&gt;hash -->
<g id="edge4" class="edge">
<title>multi_ed25519&#45;&gt;hash</title>
<path fill="none" stroke="black" d="M195.54,-361.07C210.36,-351.04 229.37,-337.48 245.08,-324 269.17,-303.32 294.27,-277.06 311.28,-258.43"/>
<polygon fill="black" stroke="black" points="313.82,-260.85 317.93,-251.08 308.63,-256.15 313.82,-260.85"/>
</g>
<!-- ed25519 -->
<g id="node6" class="node">
<title>ed25519</title>
<ellipse fill="none" stroke="black" cx="171.08" cy="-306" rx="40.89" ry="18"/>
<text text-anchor="middle" x="171.08" y="-302.3" font-family="Times,serif" font-size="14.00">ed25519</text>
</g>
<!-- multi_ed25519&#45;&gt;ed25519 -->
<g id="edge5" class="edge">
<title>multi_ed25519&#45;&gt;ed25519</title>
<path fill="none" stroke="black" d="M171.08,-359.7C171.08,-352.41 171.08,-343.73 171.08,-335.54"/>
<polygon fill="black" stroke="black" points="174.58,-335.62 171.08,-325.62 167.58,-335.62 174.58,-335.62"/>
</g>
<!-- vector -->
<g id="node7" class="node">
<title>vector</title>
<ellipse fill="none" stroke="black" cx="129.08" cy="-18" rx="32.49" ry="18"/>
<text text-anchor="middle" x="129.08" y="-14.3" font-family="Times,serif" font-size="14.00">vector</text>
</g>
<!-- option&#45;&gt;vector -->
<g id="edge6" class="edge">
<title>option&#45;&gt;vector</title>
<path fill="none" stroke="black" d="M106.34,-72.05C109.65,-64.32 113.67,-54.96 117.39,-46.27"/>
<polygon fill="black" stroke="black" points="120.56,-47.75 121.28,-37.18 114.13,-44.99 120.56,-47.75"/>
</g>
<!-- ed25519&#45;&gt;error -->
<g id="edge7" class="edge">
<title>ed25519&#45;&gt;error</title>
<path fill="none" stroke="black" d="M146.09,-291.34C125.37,-280 95.81,-263.84 73.67,-251.73"/>
<polygon fill="black" stroke="black" points="75.55,-248.77 65.1,-247.04 72.19,-254.91 75.55,-248.77"/>
</g>
<!-- ed25519&#45;&gt;option -->
<g id="edge8" class="edge">
<title>ed25519&#45;&gt;option</title>
<path fill="none" stroke="black" d="M150.56,-290.18C139.01,-280.65 125.46,-267.22 118.08,-252 97.41,-209.37 95.71,-153.19 96.96,-119.72"/>
<polygon fill="black" stroke="black" points="100.45,-120.15 97.45,-109.99 93.45,-119.8 100.45,-120.15"/>
</g>
<!-- ed25519&#45;&gt;bcs -->
<g id="edge10" class="edge">
<title>ed25519&#45;&gt;bcs</title>
<path fill="none" stroke="black" d="M190.39,-289.81C203.3,-279.65 220.44,-266.17 234.49,-255.12"/>
<polygon fill="black" stroke="black" points="236.32,-258.14 242.01,-249.21 231.99,-252.64 236.32,-258.14"/>
</g>
<!-- ed25519&#45;&gt;hash -->
<g id="edge11" class="edge">
<title>ed25519&#45;&gt;hash</title>
<path fill="none" stroke="black" d="M200.27,-293.01C225.69,-282.48 263.49,-266.6 296.08,-252 297.39,-251.41 298.73,-250.81 300.08,-250.19"/>
<polygon fill="black" stroke="black" points="301.46,-253.41 309.07,-246.03 298.52,-247.06 301.46,-253.41"/>
</g>
<!-- type_info -->
<g id="node8" class="node">
<title>type_info</title>
<ellipse fill="none" stroke="black" cx="171.08" cy="-234" rx="44.39" ry="18"/>
<text text-anchor="middle" x="171.08" y="-230.3" font-family="Times,serif" font-size="14.00">type_info</text>
</g>
<!-- ed25519&#45;&gt;type_info -->
<g id="edge9" class="edge">
<title>ed25519&#45;&gt;type_info</title>
<path fill="none" stroke="black" d="M171.08,-287.7C171.08,-280.41 171.08,-271.73 171.08,-263.54"/>
<polygon fill="black" stroke="black" points="174.58,-263.62 171.08,-253.62 167.58,-263.62 174.58,-263.62"/>
</g>
<!-- string -->
<g id="node9" class="node">
<title>string</title>
<ellipse fill="none" stroke="black" cx="160.08" cy="-162" rx="30.59" ry="18"/>
<text text-anchor="middle" x="160.08" y="-158.3" font-family="Times,serif" font-size="14.00">string</text>
</g>
<!-- type_info&#45;&gt;string -->
<g id="edge12" class="edge">
<title>type_info&#45;&gt;string</title>
<path fill="none" stroke="black" d="M168.36,-215.7C167.2,-208.32 165.82,-199.52 164.52,-191.25"/>
<polygon fill="black" stroke="black" points="168.01,-190.93 163,-181.6 161.09,-192.02 168.01,-190.93"/>
</g>
<!-- string&#45;&gt;option -->
<g id="edge14" class="edge">
<title>string&#45;&gt;option</title>
<path fill="none" stroke="black" d="M146.54,-145.46C138.72,-136.49 128.72,-125.02 119.92,-114.92"/>
<polygon fill="black" stroke="black" points="122.78,-112.87 113.57,-107.63 117.5,-117.47 122.78,-112.87"/>
</g>
<!-- string&#45;&gt;vector -->
<g id="edge13" class="edge">
<title>string&#45;&gt;vector</title>
<path fill="none" stroke="black" d="M156.5,-143.92C152.72,-126 146.57,-97 141.08,-72 139.31,-63.95 137.35,-55.23 135.53,-47.22"/>
<polygon fill="black" stroke="black" points="138.99,-46.62 133.36,-37.65 132.16,-48.18 138.99,-46.62"/>
</g>
</g>
</svg>
