<?xml version="1.0" encoding="UTF-8" standalone="no"?>
<!DOCTYPE svg PUBLIC "-//W3C//DTD SVG 1.1//EN"
 "http://www.w3.org/Graphics/SVG/1.1/DTD/svg11.dtd">
<!-- Generated by graphviz version 7.0.0 (20221023.0053)
 -->
<!-- Title: G Pages: 1 -->
<svg width="436pt" height="238pt"
 viewBox="0.00 0.00 436.00 238.00" xmlns="http://www.w3.org/2000/svg" xmlns:xlink="http://www.w3.org/1999/xlink">
<g id="graph0" class="graph" transform="scale(1 1) rotate(0) translate(4 234)">
<title>G</title>
<polygon fill="white" stroke="none" points="-4,4 -4,-234 432,-234 432,4 -4,4"/>
<g id="clust1" class="cluster">
<title>cluster_ed25519</title>
<polygon fill="none" stroke="black" points="8,-64 8,-139 410,-139 410,-64 8,-64"/>
<text text-anchor="middle" x="209" y="-123.8" font-family="Times,serif" font-size="14.00">ed25519</text>
</g>
<g id="clust2" class="cluster">
<title>cluster_multi_ed25519</title>
<polygon fill="none" stroke="black" points="210,-147 210,-222 420,-222 420,-147 210,-147"/>
<text text-anchor="middle" x="315" y="-206.8" font-family="Times,serif" font-size="14.00">multi_ed25519</text>
</g>
<!-- type_of -->
<g id="node1" class="node">
<title>type_of</title>
<ellipse fill="none" stroke="black" cx="214" cy="-18" rx="37.89" ry="18"/>
<text text-anchor="middle" x="214" y="-14.3" font-family="Times,serif" font-size="14.00">type_of</text>
</g>
<!-- ed25519::new_signed_message -->
<g id="node2" class="node">
<title>ed25519::new_signed_message</title>
<ellipse fill="none" stroke="black" cx="315" cy="-90" rx="87.18" ry="18"/>
<text text-anchor="middle" x="315" y="-86.3" font-family="Times,serif" font-size="14.00">new_signed_message</text>
</g>
<!-- ed25519::new_signed_message&#45;&gt;type_of -->
<g id="edge1" class="edge">
<title>ed25519::new_signed_message&#45;&gt;type_of</title>
<path fill="none" stroke="black" d="M290.81,-72.23C276.83,-62.54 259.12,-50.27 244.23,-39.95"/>
<polygon fill="black" stroke="black" points="246.37,-37.18 236.16,-34.36 242.39,-42.93 246.37,-37.18"/>
</g>
<!-- ed25519::signature_verify_strict_t -->
<g id="node3" class="node">
<title>ed25519::signature_verify_strict_t</title>
<ellipse fill="none" stroke="black" cx="113" cy="-90" rx="96.68" ry="18"/>
<text text-anchor="middle" x="113" y="-86.3" font-family="Times,serif" font-size="14.00">signature_verify_strict_t</text>
</g>
<!-- ed25519::signature_verify_strict_t&#45;&gt;type_of -->
<g id="edge2" class="edge">
<title>ed25519::signature_verify_strict_t&#45;&gt;type_of</title>
<path fill="none" stroke="black" d="M137.19,-72.23C151.17,-62.54 168.88,-50.27 183.77,-39.95"/>
<polygon fill="black" stroke="black" points="185.61,-42.93 191.84,-34.36 181.63,-37.18 185.61,-42.93"/>
</g>
<!-- multi_ed25519::signature_verify_strict_t -->
<g id="node4" class="node">
<title>multi_ed25519::signature_verify_strict_t</title>
<ellipse fill="none" stroke="black" cx="315" cy="-173" rx="96.68" ry="18"/>
<text text-anchor="middle" x="315" y="-169.3" font-family="Times,serif" font-size="14.00">signature_verify_strict_t</text>
</g>
<!-- multi_ed25519::signature_verify_strict_t&#45;&gt;ed25519::new_signed_message -->
<g id="edge3" class="edge">
<title>multi_ed25519::signature_verify_strict_t&#45;&gt;ed25519::new_signed_message</title>
<path fill="none" stroke="black" d="M315,-154.82C315,-144.69 315,-131.6 315,-119.92"/>
<polygon fill="black" stroke="black" points="318.5,-119.95 315,-109.95 311.5,-119.95 318.5,-119.95"/>
</g>
</g>
</svg>
