<?xml version="1.0" encoding="UTF-8" standalone="no"?>
<!DOCTYPE svg PUBLIC "-//W3C//DTD SVG 1.1//EN"
 "http://www.w3.org/Graphics/SVG/1.1/DTD/svg11.dtd">
<!-- Generated by graphviz version 7.0.0 (20221023.0053)
 -->
<!-- Title: G Pages: 1 -->
<svg width="941pt" height="476pt"
 viewBox="0.00 0.00 941.20 476.00" xmlns="http://www.w3.org/2000/svg" xmlns:xlink="http://www.w3.org/1999/xlink">
<g id="graph0" class="graph" transform="scale(1 1) rotate(0) translate(4 472)">
<title>G</title>
<polygon fill="white" stroke="none" points="-4,4 -4,-472 937.2,-472 937.2,4 -4,4"/>
<!-- account -->
<g id="node1" class="node">
<title>account</title>
<ellipse fill="none" stroke="black" cx="490" cy="-450" rx="38.19" ry="18"/>
<text text-anchor="middle" x="490" y="-446.3" font-family="Times,serif" font-size="14.00">account</text>
</g>
<!-- vector -->
<g id="node2" class="node">
<title>vector</title>
<ellipse fill="none" stroke="black" cx="464" cy="-18" rx="32.49" ry="18"/>
<text text-anchor="middle" x="464" y="-14.3" font-family="Times,serif" font-size="14.00">vector</text>
</g>
<!-- account&#45;&gt;vector -->
<g id="edge1" class="edge">
<title>account&#45;&gt;vector</title>
<path fill="none" stroke="black" d="M451.48,-448.97C355.79,-448.19 110.26,-441.67 45,-396 8.69,-370.59 0,-351.32 0,-307 0,-307 0,-307 0,-161 0,-73.55 305.19,-34.55 420.55,-22.93"/>
<polygon fill="black" stroke="black" points="420.63,-26.44 430.23,-21.97 419.94,-19.47 420.63,-26.44"/>
</g>
<!-- option -->
<g id="node3" class="node">
<title>option</title>
<ellipse fill="none" stroke="black" cx="464" cy="-90" rx="33.29" ry="18"/>
<text text-anchor="middle" x="464" y="-86.3" font-family="Times,serif" font-size="14.00">option</text>
</g>
<!-- account&#45;&gt;option -->
<g id="edge2" class="edge">
<title>account&#45;&gt;option</title>
<path fill="none" stroke="black" d="M451.72,-448.39C362.51,-446.27 143.88,-436.93 85,-396 48.27,-370.46 38,-351.73 38,-307 38,-307 38,-307 38,-233 38,-152.99 311.89,-109.99 420.45,-96.09"/>
<polygon fill="black" stroke="black" points="420.64,-99.6 430.13,-94.88 419.77,-92.65 420.64,-99.6"/>
</g>
<!-- type_info -->
<g id="node4" class="node">
<title>type_info</title>
<ellipse fill="none" stroke="black" cx="720" cy="-234" rx="44.39" ry="18"/>
<text text-anchor="middle" x="720" y="-230.3" font-family="Times,serif" font-size="14.00">type_info</text>
</g>
<!-- account&#45;&gt;type_info -->
<g id="edge3" class="edge">
<title>account&#45;&gt;type_info</title>
<path fill="none" stroke="black" d="M528.01,-446.69C596.94,-441.75 738.81,-427.92 775,-396 811.81,-363.54 820.97,-331.37 798,-288 789.91,-272.72 775.21,-261.02 760.75,-252.56"/>
<polygon fill="black" stroke="black" points="762.64,-249.6 752.18,-247.93 759.31,-255.76 762.64,-249.6"/>
</g>
<!-- table -->
<g id="node5" class="node">
<title>table</title>
<ellipse fill="none" stroke="black" cx="132" cy="-378" rx="27.9" ry="18"/>
<text text-anchor="middle" x="132" y="-374.3" font-family="Times,serif" font-size="14.00">table</text>
</g>
<!-- account&#45;&gt;table -->
<g id="edge4" class="edge">
<title>account&#45;&gt;table</title>
<path fill="none" stroke="black" d="M452.68,-446.09C392.06,-440.65 268.91,-426.6 169,-396 167.27,-395.47 165.52,-394.88 163.76,-394.24"/>
<polygon fill="black" stroke="black" points="165.12,-391.01 154.54,-390.46 162.47,-397.49 165.12,-391.01"/>
</g>
<!-- signer -->
<g id="node6" class="node">
<title>signer</title>
<ellipse fill="none" stroke="black" cx="156" cy="-306" rx="32.49" ry="18"/>
<text text-anchor="middle" x="156" y="-302.3" font-family="Times,serif" font-size="14.00">signer</text>
</g>
<!-- account&#45;&gt;signer -->
<g id="edge5" class="edge">
<title>account&#45;&gt;signer</title>
<path fill="none" stroke="black" d="M452,-446.71C357.6,-440.62 118.35,-422.69 95,-396 75.75,-374 102.64,-345.75 126.57,-327.04"/>
<polygon fill="black" stroke="black" points="128.36,-330.07 134.28,-321.28 124.17,-324.46 128.36,-330.07"/>
</g>
<!-- error -->
<g id="node7" class="node">
<title>error</title>
<ellipse fill="none" stroke="black" cx="351" cy="-234" rx="27.9" ry="18"/>
<text text-anchor="middle" x="351" y="-230.3" font-family="Times,serif" font-size="14.00">error</text>
</g>
<!-- account&#45;&gt;error -->
<g id="edge6" class="edge">
<title>account&#45;&gt;error</title>
<path fill="none" stroke="black" d="M454.42,-442.88C427.09,-436.22 390.79,-422.71 371,-396 342.28,-357.23 343.04,-298.26 346.69,-263.48"/>
<polygon fill="black" stroke="black" points="350.14,-264.11 347.87,-253.76 343.19,-263.26 350.14,-264.11"/>
</g>
<!-- system_addresses -->
<g id="node8" class="node">
<title>system_addresses</title>
<ellipse fill="none" stroke="black" cx="251" cy="-378" rx="73.39" ry="18"/>
<text text-anchor="middle" x="251" y="-374.3" font-family="Times,serif" font-size="14.00">system_addresses</text>
</g>
<!-- account&#45;&gt;system_addresses -->
<g id="edge7" class="edge">
<title>account&#45;&gt;system_addresses</title>
<path fill="none" stroke="black" d="M458.26,-439.7C419.94,-428.48 354.78,-409.4 307.74,-395.62"/>
<polygon fill="black" stroke="black" points="308.83,-392.29 298.25,-392.84 306.86,-399.01 308.83,-392.29"/>
</g>
<!-- hash -->
<g id="node9" class="node">
<title>hash</title>
<ellipse fill="none" stroke="black" cx="493" cy="-234" rx="27" ry="18"/>
<text text-anchor="middle" x="493" y="-230.3" font-family="Times,serif" font-size="14.00">hash</text>
</g>
<!-- account&#45;&gt;hash -->
<g id="edge8" class="edge">
<title>account&#45;&gt;hash</title>
<path fill="none" stroke="black" d="M500.91,-432.61C506.95,-422.52 513.87,-409.05 517,-396 520.73,-380.44 518.52,-375.93 517,-360 515.25,-341.57 505.5,-293.7 498.98,-262.83"/>
<polygon fill="black" stroke="black" points="502.48,-262.47 496.98,-253.41 495.64,-263.92 502.48,-262.47"/>
</g>
<!-- bcs -->
<g id="node10" class="node">
<title>bcs</title>
<ellipse fill="none" stroke="black" cx="631" cy="-234" rx="27" ry="18"/>
<text text-anchor="middle" x="631" y="-230.3" font-family="Times,serif" font-size="14.00">bcs</text>
</g>
<!-- account&#45;&gt;bcs -->
<g id="edge9" class="edge">
<title>account&#45;&gt;bcs</title>
<path fill="none" stroke="black" d="M516.27,-436.64C551.96,-418.08 613.76,-379.22 635,-324 642.43,-304.67 641,-281.22 637.94,-263.24"/>
<polygon fill="black" stroke="black" points="641.39,-262.66 636,-253.53 634.52,-264.02 641.39,-262.66"/>
</g>
<!-- ed25519 -->
<g id="node11" class="node">
<title>ed25519</title>
<ellipse fill="none" stroke="black" cx="562" cy="-306" rx="40.89" ry="18"/>
<text text-anchor="middle" x="562" y="-302.3" font-family="Times,serif" font-size="14.00">ed25519</text>
</g>
<!-- account&#45;&gt;ed25519 -->
<g id="edge10" class="edge">
<title>account&#45;&gt;ed25519</title>
<path fill="none" stroke="black" d="M512.51,-435.13C525.67,-425.77 541.36,-412.18 550,-396 559.84,-377.59 562.67,-354.09 563.13,-335.86"/>
<polygon fill="black" stroke="black" points="566.63,-336 563.13,-326 559.63,-336 566.63,-336"/>
</g>
<!-- multi_ed25519 -->
<g id="node12" class="node">
<title>multi_ed25519</title>
<ellipse fill="none" stroke="black" cx="444" cy="-378" rx="64.19" ry="18"/>
<text text-anchor="middle" x="444" y="-374.3" font-family="Times,serif" font-size="14.00">multi_ed25519</text>
</g>
<!-- account&#45;&gt;multi_ed25519 -->
<g id="edge11" class="edge">
<title>account&#45;&gt;multi_ed25519</title>
<path fill="none" stroke="black" d="M479.1,-432.41C473.79,-424.34 467.28,-414.43 461.32,-405.35"/>
<polygon fill="black" stroke="black" points="464.39,-403.66 455.97,-397.22 458.54,-407.5 464.39,-403.66"/>
</g>
<!-- guid -->
<g id="node13" class="node">
<title>guid</title>
<ellipse fill="none" stroke="black" cx="762" cy="-306" rx="27" ry="18"/>
<text text-anchor="middle" x="762" y="-302.3" font-family="Times,serif" font-size="14.00">guid</text>
</g>
<!-- account&#45;&gt;guid -->
<g id="edge12" class="edge">
<title>account&#45;&gt;guid</title>
<path fill="none" stroke="black" d="M528.02,-446.75C593.49,-442.03 723.36,-428.7 753,-396 767.6,-379.9 768.92,-354.8 767.13,-335.36"/>
<polygon fill="black" stroke="black" points="770.62,-335.09 765.89,-325.61 763.68,-335.98 770.62,-335.09"/>
</g>
<!-- from_bcs -->
<g id="node14" class="node">
<title>from_bcs</title>
<ellipse fill="none" stroke="black" cx="889" cy="-306" rx="44.39" ry="18"/>
<text text-anchor="middle" x="889" y="-302.3" font-family="Times,serif" font-size="14.00">from_bcs</text>
</g>
<!-- account&#45;&gt;from_bcs -->
<g id="edge13" class="edge">
<title>account&#45;&gt;from_bcs</title>
<path fill="none" stroke="black" d="M528.09,-446.96C606.22,-442.15 781.44,-428.03 831,-396 853.35,-381.56 868.93,-355.12 878.27,-334.8"/>
<polygon fill="black" stroke="black" points="881.47,-336.22 882.22,-325.65 875.05,-333.44 881.47,-336.22"/>
</g>
<!-- event -->
<g id="node15" class="node">
<title>event</title>
<ellipse fill="none" stroke="black" cx="714" cy="-378" rx="29.8" ry="18"/>
<text text-anchor="middle" x="714" y="-374.3" font-family="Times,serif" font-size="14.00">event</text>
</g>
<!-- account&#45;&gt;event -->
<g id="edge14" class="edge">
<title>account&#45;&gt;event</title>
<path fill="none" stroke="black" d="M522.77,-440.23C559.04,-430.31 619.11,-413.29 670,-396 673.05,-394.96 676.21,-393.84 679.36,-392.69"/>
<polygon fill="black" stroke="black" points="680.38,-396.04 688.51,-389.25 677.92,-389.49 680.38,-396.04"/>
</g>
<!-- option&#45;&gt;vector -->
<g id="edge15" class="edge">
<title>option&#45;&gt;vector</title>
<path fill="none" stroke="black" d="M464,-71.7C464,-64.41 464,-55.73 464,-47.54"/>
<polygon fill="black" stroke="black" points="467.5,-47.62 464,-37.62 460.5,-47.62 467.5,-47.62"/>
</g>
<!-- string -->
<g id="node16" class="node">
<title>string</title>
<ellipse fill="none" stroke="black" cx="667" cy="-162" rx="30.59" ry="18"/>
<text text-anchor="middle" x="667" y="-158.3" font-family="Times,serif" font-size="14.00">string</text>
</g>
<!-- type_info&#45;&gt;string -->
<g id="edge16" class="edge">
<title>type_info&#45;&gt;string</title>
<path fill="none" stroke="black" d="M707.44,-216.41C701.01,-207.92 693.05,-197.41 685.9,-187.96"/>
<polygon fill="black" stroke="black" points="688.85,-186.05 680.02,-180.19 683.26,-190.28 688.85,-186.05"/>
</g>
<!-- system_addresses&#45;&gt;signer -->
<g id="edge17" class="edge">
<title>system_addresses&#45;&gt;signer</title>
<path fill="none" stroke="black" d="M228.49,-360.41C215.07,-350.53 197.94,-337.91 183.71,-327.41"/>
<polygon fill="black" stroke="black" points="186.18,-324.89 176.05,-321.78 182.03,-330.53 186.18,-324.89"/>
</g>
<!-- system_addresses&#45;&gt;error -->
<g id="edge18" class="edge">
<title>system_addresses&#45;&gt;error</title>
<path fill="none" stroke="black" d="M263.06,-359.87C280.53,-335.06 313,-288.96 333.22,-260.25"/>
<polygon fill="black" stroke="black" points="336.05,-262.31 338.95,-252.12 330.33,-258.28 336.05,-262.31"/>
</g>
<!-- ed25519&#45;&gt;option -->
<g id="edge19" class="edge">
<title>ed25519&#45;&gt;option</title>
<path fill="none" stroke="black" d="M556.3,-287.69C550.16,-269.56 539.82,-240.41 529,-216 513.56,-181.17 492.85,-142.45 478.99,-117.47"/>
<polygon fill="black" stroke="black" points="482.18,-116 474.25,-108.98 476.07,-119.41 482.18,-116"/>
</g>
<!-- ed25519&#45;&gt;type_info -->
<g id="edge20" class="edge">
<title>ed25519&#45;&gt;type_info</title>
<path fill="none" stroke="black" d="M590.25,-292.49C615.35,-281.36 652.32,-264.98 680.38,-252.55"/>
<polygon fill="black" stroke="black" points="681.55,-255.86 689.28,-248.61 678.71,-249.46 681.55,-255.86"/>
</g>
<!-- ed25519&#45;&gt;error -->
<g id="edge21" class="edge">
<title>ed25519&#45;&gt;error</title>
<path fill="none" stroke="black" d="M529.95,-294.37C491.26,-281.53 426.39,-260.01 386.29,-246.71"/>
<polygon fill="black" stroke="black" points="387.47,-243.41 376.87,-243.58 385.26,-250.05 387.47,-243.41"/>
</g>
<!-- ed25519&#45;&gt;hash -->
<g id="edge22" class="edge">
<title>ed25519&#45;&gt;hash</title>
<path fill="none" stroke="black" d="M546.34,-289.12C537.15,-279.79 525.38,-267.85 515.23,-257.56"/>
<polygon fill="black" stroke="black" points="517.76,-255.14 508.25,-250.47 512.78,-260.05 517.76,-255.14"/>
</g>
<!-- ed25519&#45;&gt;bcs -->
<g id="edge23" class="edge">
<title>ed25519&#45;&gt;bcs</title>
<path fill="none" stroke="black" d="M577.66,-289.12C586.85,-279.79 598.62,-267.85 608.77,-257.56"/>
<polygon fill="black" stroke="black" points="611.22,-260.05 615.75,-250.47 606.24,-255.14 611.22,-260.05"/>
</g>
<!-- multi_ed25519&#45;&gt;option -->
<g id="edge24" class="edge">
<title>multi_ed25519&#45;&gt;option</title>
<path fill="none" stroke="black" d="M445.22,-359.54C448.56,-311.76 457.88,-178.51 462,-119.61"/>
<polygon fill="black" stroke="black" points="465.48,-119.96 462.69,-109.74 458.5,-119.47 465.48,-119.96"/>
</g>
<!-- multi_ed25519&#45;&gt;error -->
<g id="edge25" class="edge">
<title>multi_ed25519&#45;&gt;error</title>
<path fill="none" stroke="black" d="M430.13,-360.23C421.9,-350.01 411.46,-336.54 403,-324 389.26,-303.63 375.3,-279.52 365.31,-261.53"/>
<polygon fill="black" stroke="black" points="368.39,-259.87 360.51,-252.79 362.26,-263.24 368.39,-259.87"/>
</g>
<!-- multi_ed25519&#45;&gt;hash -->
<g id="edge26" class="edge">
<title>multi_ed25519&#45;&gt;hash</title>
<path fill="none" stroke="black" d="M450.01,-359.59C458.4,-335.27 473.71,-290.89 483.62,-262.19"/>
<polygon fill="black" stroke="black" points="486.8,-263.7 486.75,-253.1 480.18,-261.41 486.8,-263.7"/>
</g>
<!-- multi_ed25519&#45;&gt;bcs -->
<g id="edge27" class="edge">
<title>multi_ed25519&#45;&gt;bcs</title>
<path fill="none" stroke="black" d="M505.77,-372.64C541.69,-366.83 585.05,-353.65 612,-324 626.72,-307.81 631.07,-283.1 631.97,-263.82"/>
<polygon fill="black" stroke="black" points="635.47,-263.92 632.11,-253.87 628.47,-263.82 635.47,-263.92"/>
</g>
<!-- multi_ed25519&#45;&gt;ed25519 -->
<g id="edge28" class="edge">
<title>multi_ed25519&#45;&gt;ed25519</title>
<path fill="none" stroke="black" d="M470.48,-361.29C487.68,-351.09 510.24,-337.7 528.66,-326.78"/>
<polygon fill="black" stroke="black" points="530.29,-329.88 537.11,-321.77 526.72,-323.86 530.29,-329.88"/>
</g>
<!-- from_bcs&#45;&gt;string -->
<g id="edge29" class="edge">
<title>from_bcs&#45;&gt;string</title>
<path fill="none" stroke="black" d="M870.91,-289.36C848.73,-270.62 809.58,-238.89 773,-216 750.13,-201.69 722.87,-188.13 701.73,-178.31"/>
<polygon fill="black" stroke="black" points="703.21,-175.14 692.66,-174.16 700.29,-181.51 703.21,-175.14"/>
</g>
<!-- event&#45;&gt;bcs -->
<g id="edge30" class="edge">
<title>event&#45;&gt;bcs</title>
<path fill="none" stroke="black" d="M710.43,-359.95C706,-341.28 697.24,-310.94 683,-288 675.71,-276.26 665.41,-265.06 655.9,-256.01"/>
<polygon fill="black" stroke="black" points="658.36,-253.51 648.61,-249.36 653.64,-258.68 658.36,-253.51"/>
</g>
<!-- event&#45;&gt;guid -->
<g id="edge31" class="edge">
<title>event&#45;&gt;guid</title>
<path fill="none" stroke="black" d="M724.89,-361.12C730.78,-352.52 738.2,-341.72 744.84,-332.02"/>
<polygon fill="black" stroke="black" points="747.53,-334.3 750.3,-324.07 741.75,-330.34 747.53,-334.3"/>
</g>
<!-- string&#45;&gt;vector -->
<g id="edge32" class="edge">
<title>string&#45;&gt;vector</title>
<path fill="none" stroke="black" d="M647.9,-147.64C612.18,-122.65 535.04,-68.7 492.91,-39.22"/>
<polygon fill="black" stroke="black" points="494.93,-36.37 484.73,-33.5 490.92,-42.1 494.93,-36.37"/>
</g>
<!-- string&#45;&gt;option -->
<g id="edge33" class="edge">
<title>string&#45;&gt;option</title>
<path fill="none" stroke="black" d="M640.88,-151.99C605.74,-139.87 542.98,-118.24 502.45,-104.26"/>
<polygon fill="black" stroke="black" points="503.67,-100.98 493.08,-101.03 501.39,-107.6 503.67,-100.98"/>
</g>
</g>
</svg>
