<?xml version="1.0" encoding="UTF-8" standalone="no"?>
<!DOCTYPE svg PUBLIC "-//W3C//DTD SVG 1.1//EN"
 "http://www.w3.org/Graphics/SVG/1.1/DTD/svg11.dtd">
<!-- Generated by graphviz version 7.0.0 (20221023.0053)
 -->
<!-- Title: G Pages: 1 -->
<svg width="3805pt" height="376pt"
 viewBox="0.00 0.00 3804.60 376.00" xmlns="http://www.w3.org/2000/svg" xmlns:xlink="http://www.w3.org/1999/xlink">
<g id="graph0" class="graph" transform="scale(1 1) rotate(0) translate(4 372)">
<title>G</title>
<polygon fill="white" stroke="none" points="-4,4 -4,-372 3800.6,-372 3800.6,4 -4,4"/>
<g id="clust1" class="cluster">
<title>cluster_table</title>
<polygon fill="none" stroke="black" points="8,-174 8,-324 368,-324 368,-174 8,-174"/>
<text text-anchor="middle" x="188" y="-308.8" font-family="Times,serif" font-size="14.00">table</text>
</g>
<g id="clust2" class="cluster">
<title>cluster_signer</title>
<polygon fill="none" stroke="black" points="376,-174 376,-324 526,-324 526,-174 376,-174"/>
<text text-anchor="middle" x="451" y="-308.8" font-family="Times,serif" font-size="14.00">signer</text>
</g>
<g id="clust3" class="cluster">
<title>cluster_error</title>
<polygon fill="none" stroke="black" points="248,-8 248,-166 672,-166 672,-8 248,-8"/>
<text text-anchor="middle" x="460" y="-150.8" font-family="Times,serif" font-size="14.00">error</text>
</g>
<g id="clust4" class="cluster">
<title>cluster_ed25519</title>
<polygon fill="none" stroke="black" points="680,-91 680,-249 2023,-249 2023,-91 680,-91"/>
<text text-anchor="middle" x="1351.5" y="-233.8" font-family="Times,serif" font-size="14.00">ed25519</text>
</g>
<g id="clust5" class="cluster">
<title>cluster_multi_ed25519</title>
<polygon fill="none" stroke="black" points="2235,-91 2235,-249 3385,-249 3385,-91 2235,-91"/>
<text text-anchor="middle" x="2810" y="-233.8" font-family="Times,serif" font-size="14.00">multi_ed25519</text>
</g>
<g id="clust6" class="cluster">
<title>cluster_from_bcs</title>
<polygon fill="none" stroke="black" points="3587,-174 3587,-324 3705,-324 3705,-174 3587,-174"/>
<text text-anchor="middle" x="3646" y="-308.8" font-family="Times,serif" font-size="14.00">from_bcs</text>
</g>
<g id="clust7" class="cluster">
<title>cluster_event</title>
<polygon fill="none" stroke="black" points="3393,-91 3393,-249 3579,-249 3579,-91 3393,-91"/>
<text text-anchor="middle" x="3486" y="-233.8" font-family="Times,serif" font-size="14.00">event</text>
</g>
<g id="clust8" class="cluster">
<title>cluster_bcs</title>
<polygon fill="none" stroke="black" points="2131,-91 2131,-166 2227,-166 2227,-91 2131,-91"/>
<text text-anchor="middle" x="2179" y="-150.8" font-family="Times,serif" font-size="14.00">bcs</text>
</g>
<g id="clust9" class="cluster">
<title>cluster_hash</title>
<polygon fill="none" stroke="black" points="2347,-8 2347,-83 2451,-83 2451,-8 2347,-8"/>
<text text-anchor="middle" x="2399" y="-67.8" font-family="Times,serif" font-size="14.00">hash</text>
</g>
<g id="clust10" class="cluster">
<title>cluster_type_info</title>
<polygon fill="none" stroke="black" points="2031,-91 2031,-166 2123,-166 2123,-91 2031,-91"/>
<text text-anchor="middle" x="2077" y="-150.8" font-family="Times,serif" font-size="14.00">type_info</text>
</g>
<!-- rotate_authentication_key -->
<g id="node1" class="node">
<title>rotate_authentication_key</title>
<ellipse fill="none" stroke="black" cx="847" cy="-350" rx="102.08" ry="18"/>
<text text-anchor="middle" x="847" y="-346.3" font-family="Times,serif" font-size="14.00">rotate_authentication_key</text>
</g>
<!-- table::contains -->
<g id="node2" class="node">
<title>table::contains</title>
<ellipse fill="none" stroke="black" cx="311" cy="-275" rx="40.09" ry="18"/>
<text text-anchor="middle" x="311" y="-271.3" font-family="Times,serif" font-size="14.00">contains</text>
</g>
<!-- rotate_authentication_key&#45;&gt;table::contains -->
<g id="edge1" class="edge">
<title>rotate_authentication_key&#45;&gt;table::contains</title>
<path fill="none" stroke="black" d="M745.97,-346.93C616.87,-343.78 405.94,-336.76 372,-324 358.01,-318.74 344.69,-309.02 334.08,-299.7"/>
<polygon fill="black" stroke="black" points="336.68,-297.34 326.97,-293.1 331.92,-302.47 336.68,-297.34"/>
</g>
<!-- table::remove -->
<g id="node3" class="node">
<title>table::remove</title>
<ellipse fill="none" stroke="black" cx="193" cy="-275" rx="37.89" ry="18"/>
<text text-anchor="middle" x="193" y="-271.3" font-family="Times,serif" font-size="14.00">remove</text>
</g>
<!-- rotate_authentication_key&#45;&gt;table::remove -->
<g id="edge2" class="edge">
<title>rotate_authentication_key&#45;&gt;table::remove</title>
<path fill="none" stroke="black" d="M745.35,-347.74C589.91,-345.34 306.37,-338.96 262,-324 246.13,-318.65 230.63,-308.45 218.35,-298.83"/>
<polygon fill="black" stroke="black" points="220.75,-296.27 210.8,-292.63 216.31,-301.68 220.75,-296.27"/>
</g>
<!-- table::add -->
<g id="node4" class="node">
<title>table::add</title>
<ellipse fill="none" stroke="black" cx="72" cy="-275" rx="27" ry="18"/>
<text text-anchor="middle" x="72" y="-271.3" font-family="Times,serif" font-size="14.00">add</text>
</g>
<!-- rotate_authentication_key&#45;&gt;table::add -->
<g id="edge3" class="edge">
<title>rotate_authentication_key&#45;&gt;table::add</title>
<path fill="none" stroke="black" d="M745.1,-348.37C564.38,-346.8 201.46,-341.49 146,-324 127.96,-318.31 110.11,-306.94 96.46,-296.69"/>
<polygon fill="black" stroke="black" points="98.95,-294.2 88.92,-290.8 94.64,-299.71 98.95,-294.2"/>
</g>
<!-- signer::address_of -->
<g id="node5" class="node">
<title>signer::address_of</title>
<ellipse fill="none" stroke="black" cx="460" cy="-275" rx="48.99" ry="18"/>
<text text-anchor="middle" x="460" y="-271.3" font-family="Times,serif" font-size="14.00">address_of</text>
</g>
<!-- rotate_authentication_key&#45;&gt;signer::address_of -->
<g id="edge4" class="edge">
<title>rotate_authentication_key&#45;&gt;signer::address_of</title>
<path fill="none" stroke="black" d="M746.59,-346.5C669.65,-343.57 570.36,-337.29 532,-324 516.05,-318.47 500.23,-308.55 487.5,-299.16"/>
<polygon fill="black" stroke="black" points="489.67,-296.41 479.62,-293.08 485.4,-301.96 489.67,-296.41"/>
</g>
<!-- error::invalid_argument -->
<g id="node6" class="node">
<title>error::invalid_argument</title>
<ellipse fill="none" stroke="black" cx="591" cy="-117" rx="73.39" ry="18"/>
<text text-anchor="middle" x="591" y="-113.3" font-family="Times,serif" font-size="14.00">invalid_argument</text>
</g>
<!-- rotate_authentication_key&#45;&gt;error::invalid_argument -->
<g id="edge5" class="edge">
<title>rotate_authentication_key&#45;&gt;error::invalid_argument</title>
<path fill="none" stroke="black" d="M788.8,-334.94C741.57,-320.69 676.39,-294.18 636,-249 610.19,-220.14 599.05,-175.77 594.33,-146.81"/>
<polygon fill="black" stroke="black" points="597.8,-146.32 592.9,-136.93 590.87,-147.33 597.8,-146.32"/>
</g>
<!-- error::not_found -->
<g id="node7" class="node">
<title>error::not_found</title>
<ellipse fill="none" stroke="black" cx="453" cy="-117" rx="46.59" ry="18"/>
<text text-anchor="middle" x="453" y="-113.3" font-family="Times,serif" font-size="14.00">not_found</text>
</g>
<!-- rotate_authentication_key&#45;&gt;error::not_found -->
<g id="edge6" class="edge">
<title>rotate_authentication_key&#45;&gt;error::not_found</title>
<path fill="none" stroke="black" d="M748.21,-345.18C704.81,-341.85 659.72,-335.63 642,-324 609.69,-302.8 616.52,-282.92 598,-249 580.09,-216.2 590.22,-195.98 560,-174 541.44,-160.51 529.83,-175.61 509,-166 496.71,-160.33 485.03,-151.17 475.55,-142.36"/>
<polygon fill="black" stroke="black" points="478.17,-140.03 468.58,-135.54 473.27,-145.03 478.17,-140.03"/>
</g>
<!-- error::unauthenticated -->
<g id="node8" class="node">
<title>error::unauthenticated</title>
<ellipse fill="none" stroke="black" cx="322" cy="-117" rx="66.09" ry="18"/>
<text text-anchor="middle" x="322" y="-113.3" font-family="Times,serif" font-size="14.00">unauthenticated</text>
</g>
<!-- rotate_authentication_key&#45;&gt;error::unauthenticated -->
<g id="edge7" class="edge">
<title>rotate_authentication_key&#45;&gt;error::unauthenticated</title>
<path fill="none" stroke="black" d="M745.12,-348.36C687.59,-346.15 622.59,-340 599,-324 567.9,-302.91 575.66,-283.15 560,-249 545.03,-216.37 559.11,-195.01 530,-174 505.99,-156.67 425.15,-175.16 397,-166 380.44,-160.61 363.93,-150.67 350.63,-141.22"/>
<polygon fill="black" stroke="black" points="352.9,-138.55 342.78,-135.41 348.73,-144.17 352.9,-138.55"/>
</g>
<!-- ed25519::new_unvalidated_public_key_from_bytes -->
<g id="node9" class="node">
<title>ed25519::new_unvalidated_public_key_from_bytes</title>
<ellipse fill="none" stroke="black" cx="847" cy="-200" rx="159.47" ry="18"/>
<text text-anchor="middle" x="847" y="-196.3" font-family="Times,serif" font-size="14.00">new_unvalidated_public_key_from_bytes</text>
</g>
<!-- rotate_authentication_key&#45;&gt;ed25519::new_unvalidated_public_key_from_bytes -->
<g id="edge8" class="edge">
<title>rotate_authentication_key&#45;&gt;ed25519::new_unvalidated_public_key_from_bytes</title>
<path fill="none" stroke="black" d="M847,-331.73C847,-306.67 847,-259.9 847,-229.63"/>
<polygon fill="black" stroke="black" points="850.5,-229.67 847,-219.67 843.5,-229.67 850.5,-229.67"/>
</g>
<!-- ed25519::unvalidated_public_key_to_authentication_key -->
<g id="node10" class="node">
<title>ed25519::unvalidated_public_key_to_authentication_key</title>
<ellipse fill="none" stroke="black" cx="1202" cy="-200" rx="177.37" ry="18"/>
<text text-anchor="middle" x="1202" y="-196.3" font-family="Times,serif" font-size="14.00">unvalidated_public_key_to_authentication_key</text>
</g>
<!-- rotate_authentication_key&#45;&gt;ed25519::unvalidated_public_key_to_authentication_key -->
<g id="edge9" class="edge">
<title>rotate_authentication_key&#45;&gt;ed25519::unvalidated_public_key_to_authentication_key</title>
<path fill="none" stroke="black" d="M885.67,-332.88C950.02,-306.05 1079.11,-252.23 1150.89,-222.31"/>
<polygon fill="black" stroke="black" points="1152.2,-225.56 1160.08,-218.48 1149.5,-219.09 1152.2,-225.56"/>
</g>
<!-- multi_ed25519::new_unvalidated_public_key_from_bytes -->
<g id="node11" class="node">
<title>multi_ed25519::new_unvalidated_public_key_from_bytes</title>
<ellipse fill="none" stroke="black" cx="2634" cy="-200" rx="159.47" ry="18"/>
<text text-anchor="middle" x="2634" y="-196.3" font-family="Times,serif" font-size="14.00">new_unvalidated_public_key_from_bytes</text>
</g>
<!-- rotate_authentication_key&#45;&gt;multi_ed25519::new_unvalidated_public_key_from_bytes -->
<g id="edge10" class="edge">
<title>rotate_authentication_key&#45;&gt;multi_ed25519::new_unvalidated_public_key_from_bytes</title>
<path fill="none" stroke="black" d="M949.21,-349.68C1130.64,-350.18 1520.77,-347.99 1849,-324 2124.51,-303.87 2195.25,-303.78 2466,-249 2502.04,-241.71 2541.61,-230.56 2573.29,-220.84"/>
<polygon fill="black" stroke="black" points="2574.19,-224.23 2582.71,-217.92 2572.12,-217.54 2574.19,-224.23"/>
</g>
<!-- multi_ed25519::unvalidated_public_key_to_authentication_key -->
<g id="node12" class="node">
<title>multi_ed25519::unvalidated_public_key_to_authentication_key</title>
<ellipse fill="none" stroke="black" cx="3200" cy="-200" rx="177.37" ry="18"/>
<text text-anchor="middle" x="3200" y="-196.3" font-family="Times,serif" font-size="14.00">unvalidated_public_key_to_authentication_key</text>
</g>
<!-- rotate_authentication_key&#45;&gt;multi_ed25519::unvalidated_public_key_to_authentication_key -->
<g id="edge11" class="edge">
<title>rotate_authentication_key&#45;&gt;multi_ed25519::unvalidated_public_key_to_authentication_key</title>
<path fill="none" stroke="black" d="M949.13,-349.37C1168.68,-349.65 1701.89,-347.58 2148,-324 2533.79,-303.61 2633.2,-314.16 3014,-249 3054.66,-242.04 3099.46,-230.6 3134.9,-220.63"/>
<polygon fill="black" stroke="black" points="3135.47,-224.11 3144.13,-218.01 3133.55,-217.38 3135.47,-224.11"/>
</g>
<!-- from_bcs::to_address -->
<g id="node13" class="node">
<title>from_bcs::to_address</title>
<ellipse fill="none" stroke="black" cx="3644" cy="-275" rx="48.19" ry="18"/>
<text text-anchor="middle" x="3644" y="-271.3" font-family="Times,serif" font-size="14.00">to_address</text>
</g>
<!-- rotate_authentication_key&#45;&gt;from_bcs::to_address -->
<g id="edge12" class="edge">
<title>rotate_authentication_key&#45;&gt;from_bcs::to_address</title>
<path fill="none" stroke="black" d="M949.3,-348.7C1382.08,-347.31 3051.06,-340.89 3286,-324 3394.28,-316.22 3519.82,-297.01 3589.77,-285.39"/>
<polygon fill="black" stroke="black" points="3590.14,-288.88 3599.43,-283.77 3588.98,-281.97 3590.14,-288.88"/>
</g>
<!-- event::emit_event -->
<g id="node14" class="node">
<title>event::emit_event</title>
<ellipse fill="none" stroke="black" cx="3451" cy="-200" rx="50.09" ry="18"/>
<text text-anchor="middle" x="3451" y="-196.3" font-family="Times,serif" font-size="14.00">emit_event</text>
</g>
<!-- rotate_authentication_key&#45;&gt;event::emit_event -->
<g id="edge13" class="edge">
<title>rotate_authentication_key&#45;&gt;event::emit_event</title>
<path fill="none" stroke="black" d="M949.1,-348.53C1268.36,-346.9 2245.31,-340.64 2562,-324 2930.56,-304.63 3045.53,-384.05 3389,-249 3402.86,-243.55 3416.19,-234 3426.92,-224.84"/>
<polygon fill="black" stroke="black" points="3429.04,-227.64 3434.15,-218.35 3424.37,-222.43 3429.04,-227.64"/>
</g>
<!-- assert_valid_signature_and_get_auth_key -->
<g id="node15" class="node">
<title>assert_valid_signature_and_get_auth_key</title>
<ellipse fill="none" stroke="black" cx="1682" cy="-275" rx="157.87" ry="18"/>
<text text-anchor="middle" x="1682" y="-271.3" font-family="Times,serif" font-size="14.00">assert_valid_signature_and_get_auth_key</text>
</g>
<!-- rotate_authentication_key&#45;&gt;assert_valid_signature_and_get_auth_key -->
<g id="edge14" class="edge">
<title>rotate_authentication_key&#45;&gt;assert_valid_signature_and_get_auth_key</title>
<path fill="none" stroke="black" d="M936.76,-341.15C1083.72,-328.3 1376.47,-302.71 1548.06,-287.71"/>
<polygon fill="black" stroke="black" points="1548.28,-291.2 1557.93,-286.85 1547.67,-284.23 1548.28,-291.2"/>
</g>
<!-- exists_at -->
<g id="node16" class="node">
<title>exists_at</title>
<ellipse fill="none" stroke="black" cx="3755" cy="-275" rx="41.69" ry="18"/>
<text text-anchor="middle" x="3755" y="-271.3" font-family="Times,serif" font-size="14.00">exists_at</text>
</g>
<!-- rotate_authentication_key&#45;&gt;exists_at -->
<g id="edge15" class="edge">
<title>rotate_authentication_key&#45;&gt;exists_at</title>
<path fill="none" stroke="black" d="M949.26,-349.19C1452.51,-350 3644.41,-351.9 3709,-324 3720.01,-319.24 3729.66,-310.44 3737.24,-301.66"/>
<polygon fill="black" stroke="black" points="3739.95,-303.88 3743.42,-293.87 3734.46,-299.53 3739.95,-303.88"/>
</g>
<!-- table::contains_box -->
<g id="node17" class="node">
<title>table::contains_box</title>
<ellipse fill="none" stroke="black" cx="302" cy="-200" rx="57.69" ry="18"/>
<text text-anchor="middle" x="302" y="-196.3" font-family="Times,serif" font-size="14.00">contains_box</text>
</g>
<!-- table::contains&#45;&gt;table::contains_box -->
<g id="edge16" class="edge">
<title>table::contains&#45;&gt;table::contains_box</title>
<path fill="none" stroke="black" d="M308.87,-256.7C307.88,-248.67 306.67,-238.9 305.55,-229.8"/>
<polygon fill="black" stroke="black" points="309.03,-229.43 304.33,-219.93 302.08,-230.28 309.03,-229.43"/>
</g>
<!-- table::remove_box -->
<g id="node18" class="node">
<title>table::remove_box</title>
<ellipse fill="none" stroke="black" cx="171" cy="-200" rx="55.49" ry="18"/>
<text text-anchor="middle" x="171" y="-196.3" font-family="Times,serif" font-size="14.00">remove_box</text>
</g>
<!-- table::remove&#45;&gt;table::remove_box -->
<g id="edge17" class="edge">
<title>table::remove&#45;&gt;table::remove_box</title>
<path fill="none" stroke="black" d="M187.79,-256.7C185.29,-248.43 182.25,-238.31 179.43,-228.99"/>
<polygon fill="black" stroke="black" points="182.85,-228.19 176.61,-219.62 176.15,-230.21 182.85,-228.19"/>
</g>
<!-- table::add_box -->
<g id="node19" class="node">
<title>table::add_box</title>
<ellipse fill="none" stroke="black" cx="57" cy="-200" rx="40.89" ry="18"/>
<text text-anchor="middle" x="57" y="-196.3" font-family="Times,serif" font-size="14.00">add_box</text>
</g>
<!-- table::add&#45;&gt;table::add_box -->
<g id="edge18" class="edge">
<title>table::add&#45;&gt;table::add_box</title>
<path fill="none" stroke="black" d="M68.45,-256.7C66.78,-248.58 64.74,-238.68 62.86,-229.5"/>
<polygon fill="black" stroke="black" points="66.33,-229 60.89,-219.91 59.47,-230.41 66.33,-229"/>
</g>
<!-- signer::borrow_address -->
<g id="node20" class="node">
<title>signer::borrow_address</title>
<ellipse fill="none" stroke="black" cx="451" cy="-200" rx="66.89" ry="18"/>
<text text-anchor="middle" x="451" y="-196.3" font-family="Times,serif" font-size="14.00">borrow_address</text>
</g>
<!-- signer::address_of&#45;&gt;signer::borrow_address -->
<g id="edge19" class="edge">
<title>signer::address_of&#45;&gt;signer::borrow_address</title>
<path fill="none" stroke="black" d="M457.87,-256.7C456.88,-248.67 455.67,-238.9 454.55,-229.8"/>
<polygon fill="black" stroke="black" points="458.03,-229.43 453.33,-219.93 451.08,-230.28 458.03,-229.43"/>
</g>
<!-- error::canonical -->
<g id="node21" class="node">
<title>error::canonical</title>
<ellipse fill="none" stroke="black" cx="453" cy="-34" rx="44.39" ry="18"/>
<text text-anchor="middle" x="453" y="-30.3" font-family="Times,serif" font-size="14.00">canonical</text>
</g>
<!-- error::invalid_argument&#45;&gt;error::canonical -->
<g id="edge20" class="edge">
<title>error::invalid_argument&#45;&gt;error::canonical</title>
<path fill="none" stroke="black" d="M563.74,-100C541.74,-87.09 510.69,-68.86 487.06,-54.99"/>
<polygon fill="black" stroke="black" points="489.13,-52.15 478.74,-50.11 485.59,-58.19 489.13,-52.15"/>
</g>
<!-- error::not_found&#45;&gt;error::canonical -->
<g id="edge21" class="edge">
<title>error::not_found&#45;&gt;error::canonical</title>
<path fill="none" stroke="black" d="M453,-98.82C453,-88.69 453,-75.6 453,-63.92"/>
<polygon fill="black" stroke="black" points="456.5,-63.95 453,-53.95 449.5,-63.95 456.5,-63.95"/>
</g>
<!-- error::unauthenticated&#45;&gt;error::canonical -->
<g id="edge22" class="edge">
<title>error::unauthenticated&#45;&gt;error::canonical</title>
<path fill="none" stroke="black" d="M347.88,-100C368.44,-87.28 397.35,-69.41 419.65,-55.62"/>
<polygon fill="black" stroke="black" points="421.42,-58.64 428.09,-50.4 417.74,-52.69 421.42,-58.64"/>
</g>
<!-- ed25519::new_unvalidated_public_key_from_bytes&#45;&gt;error::invalid_argument -->
<g id="edge23" class="edge">
<title>ed25519::new_unvalidated_public_key_from_bytes&#45;&gt;error::invalid_argument</title>
<path fill="none" stroke="black" d="M747.85,-185.49C723.91,-180.7 698.7,-174.35 676,-166 658.12,-159.43 639.56,-149.37 624.36,-140.16"/>
<polygon fill="black" stroke="black" points="626.52,-137.39 616.18,-135.08 622.83,-143.33 626.52,-137.39"/>
</g>
<!-- ed25519::public_key_bytes_to_authentication_key -->
<g id="node22" class="node">
<title>ed25519::public_key_bytes_to_authentication_key</title>
<ellipse fill="none" stroke="black" cx="1400" cy="-117" rx="155.17" ry="18"/>
<text text-anchor="middle" x="1400" y="-113.3" font-family="Times,serif" font-size="14.00">public_key_bytes_to_authentication_key</text>
</g>
<!-- ed25519::unvalidated_public_key_to_authentication_key&#45;&gt;ed25519::public_key_bytes_to_authentication_key -->
<g id="edge24" class="edge">
<title>ed25519::unvalidated_public_key_to_authentication_key&#45;&gt;ed25519::public_key_bytes_to_authentication_key</title>
<path fill="none" stroke="black" d="M1243.51,-182.02C1274.1,-169.5 1315.91,-152.4 1348.61,-139.02"/>
<polygon fill="black" stroke="black" points="1349.56,-142.42 1357.49,-135.39 1346.91,-135.94 1349.56,-142.42"/>
</g>
<!-- multi_ed25519::new_unvalidated_public_key_from_bytes&#45;&gt;error::invalid_argument -->
<g id="edge25" class="edge">
<title>multi_ed25519::new_unvalidated_public_key_from_bytes&#45;&gt;error::invalid_argument</title>
<path fill="none" stroke="black" d="M2550.95,-184.23C2523.95,-180.08 2493.79,-176.12 2466,-174 2416.42,-170.22 724.06,-178.75 676,-166 657.05,-160.97 637.88,-150.69 622.54,-140.93"/>
<polygon fill="black" stroke="black" points="624.6,-138.09 614.33,-135.48 620.73,-143.92 624.6,-138.09"/>
</g>
<!-- multi_ed25519::public_key_bytes_to_authentication_key -->
<g id="node23" class="node">
<title>multi_ed25519::public_key_bytes_to_authentication_key</title>
<ellipse fill="none" stroke="black" cx="3200" cy="-117" rx="155.17" ry="18"/>
<text text-anchor="middle" x="3200" y="-113.3" font-family="Times,serif" font-size="14.00">public_key_bytes_to_authentication_key</text>
</g>
<!-- multi_ed25519::unvalidated_public_key_to_authentication_key&#45;&gt;multi_ed25519::public_key_bytes_to_authentication_key -->
<g id="edge26" class="edge">
<title>multi_ed25519::unvalidated_public_key_to_authentication_key&#45;&gt;multi_ed25519::public_key_bytes_to_authentication_key</title>
<path fill="none" stroke="black" d="M3200,-181.82C3200,-171.69 3200,-158.6 3200,-146.92"/>
<polygon fill="black" stroke="black" points="3203.5,-146.95 3200,-136.95 3196.5,-146.95 3203.5,-146.95"/>
</g>
<!-- from_bcs::from_bytes -->
<g id="node24" class="node">
<title>from_bcs::from_bytes</title>
<ellipse fill="none" stroke="black" cx="3646" cy="-200" rx="51.19" ry="18"/>
<text text-anchor="middle" x="3646" y="-196.3" font-family="Times,serif" font-size="14.00">from_bytes</text>
</g>
<!-- from_bcs::to_address&#45;&gt;from_bcs::from_bytes -->
<g id="edge27" class="edge">
<title>from_bcs::to_address&#45;&gt;from_bcs::from_bytes</title>
<path fill="none" stroke="black" d="M3644.47,-256.7C3644.69,-248.67 3644.96,-238.9 3645.21,-229.8"/>
<polygon fill="black" stroke="black" points="3648.71,-230.03 3645.48,-219.94 3641.71,-229.84 3648.71,-230.03"/>
</g>
<!-- bcs::to_bytes -->
<g id="node25" class="node">
<title>bcs::to_bytes</title>
<ellipse fill="none" stroke="black" cx="2179" cy="-117" rx="40.09" ry="18"/>
<text text-anchor="middle" x="2179" y="-113.3" font-family="Times,serif" font-size="14.00">to_bytes</text>
</g>
<!-- event::emit_event&#45;&gt;bcs::to_bytes -->
<g id="edge28" class="edge">
<title>event::emit_event&#45;&gt;bcs::to_bytes</title>
<path fill="none" stroke="black" d="M3422.36,-184.84C3412.1,-180.47 3400.27,-176.23 3389,-174 3357.44,-167.76 2260.92,-177.82 2231,-166 2218.7,-161.14 2207.56,-151.89 2198.77,-142.79"/>
<polygon fill="black" stroke="black" points="2201.4,-140.49 2192.11,-135.39 2196.2,-145.17 2201.4,-140.49"/>
</g>
<!-- event::write_to_event_store -->
<g id="node26" class="node">
<title>event::write_to_event_store</title>
<ellipse fill="none" stroke="black" cx="3486" cy="-117" rx="85.29" ry="18"/>
<text text-anchor="middle" x="3486" y="-113.3" font-family="Times,serif" font-size="14.00">write_to_event_store</text>
</g>
<!-- event::emit_event&#45;&gt;event::write_to_event_store -->
<g id="edge29" class="edge">
<title>event::emit_event&#45;&gt;event::write_to_event_store</title>
<path fill="none" stroke="black" d="M3458.42,-181.82C3462.97,-171.3 3468.89,-157.59 3474.09,-145.57"/>
<polygon fill="black" stroke="black" points="3477.23,-147.11 3477.99,-136.54 3470.81,-144.33 3477.23,-147.11"/>
</g>
<!-- assert_valid_signature_and_get_auth_key&#45;&gt;error::invalid_argument -->
<g id="edge30" class="edge">
<title>assert_valid_signature_and_get_auth_key&#45;&gt;error::invalid_argument</title>
<path fill="none" stroke="black" d="M1524,-274.22C1249.77,-274.01 711.36,-270.82 676,-249 643.85,-229.16 656.81,-205.53 636,-174 629.2,-163.7 620.93,-152.99 613.34,-143.73"/>
<polygon fill="black" stroke="black" points="616.13,-141.61 607.03,-136.18 610.76,-146.1 616.13,-141.61"/>
</g>
<!-- assert_valid_signature_and_get_auth_key&#45;&gt;ed25519::new_unvalidated_public_key_from_bytes -->
<g id="edge32" class="edge">
<title>assert_valid_signature_and_get_auth_key&#45;&gt;ed25519::new_unvalidated_public_key_from_bytes</title>
<path fill="none" stroke="black" d="M1525.48,-272.44C1360.08,-270.01 1110.35,-263.95 1016,-249 978.24,-243.02 936.95,-231.39 904.63,-221.07"/>
<polygon fill="black" stroke="black" points="906.07,-217.86 895.47,-218.1 903.91,-224.52 906.07,-217.86"/>
</g>
<!-- assert_valid_signature_and_get_auth_key&#45;&gt;ed25519::unvalidated_public_key_to_authentication_key -->
<g id="edge34" class="edge">
<title>assert_valid_signature_and_get_auth_key&#45;&gt;ed25519::unvalidated_public_key_to_authentication_key</title>
<path fill="none" stroke="black" d="M1540.45,-266.79C1491.89,-263.04 1437.36,-257.41 1388,-249 1347.18,-242.05 1302.21,-230.55 1266.71,-220.55"/>
<polygon fill="black" stroke="black" points="1268.04,-217.29 1257.47,-217.92 1266.12,-224.02 1268.04,-217.29"/>
</g>
<!-- assert_valid_signature_and_get_auth_key&#45;&gt;multi_ed25519::new_unvalidated_public_key_from_bytes -->
<g id="edge36" class="edge">
<title>assert_valid_signature_and_get_auth_key&#45;&gt;multi_ed25519::new_unvalidated_public_key_from_bytes</title>
<path fill="none" stroke="black" d="M1834.34,-270.1C2053.62,-264.36 2435.45,-253.78 2466,-249 2503.7,-243.11 2544.91,-231.42 2577.08,-221.05"/>
<polygon fill="black" stroke="black" points="2577.77,-224.51 2586.18,-218.07 2575.59,-217.85 2577.77,-224.51"/>
</g>
<!-- assert_valid_signature_and_get_auth_key&#45;&gt;multi_ed25519::unvalidated_public_key_to_authentication_key -->
<g id="edge38" class="edge">
<title>assert_valid_signature_and_get_auth_key&#45;&gt;multi_ed25519::unvalidated_public_key_to_authentication_key</title>
<path fill="none" stroke="black" d="M1838.06,-272.04C2177.41,-267.66 2956.76,-256.81 3014,-249 3056.07,-243.26 3102.31,-231.35 3138.15,-220.84"/>
<polygon fill="black" stroke="black" points="3138.9,-224.27 3147.48,-218.06 3136.9,-217.56 3138.9,-224.27"/>
</g>
<!-- ed25519::new_signature_from_bytes -->
<g id="node27" class="node">
<title>ed25519::new_signature_from_bytes</title>
<ellipse fill="none" stroke="black" cx="1504" cy="-200" rx="106.68" ry="18"/>
<text text-anchor="middle" x="1504" y="-196.3" font-family="Times,serif" font-size="14.00">new_signature_from_bytes</text>
</g>
<!-- assert_valid_signature_and_get_auth_key&#45;&gt;ed25519::new_signature_from_bytes -->
<g id="edge31" class="edge">
<title>assert_valid_signature_and_get_auth_key&#45;&gt;ed25519::new_signature_from_bytes</title>
<path fill="none" stroke="black" d="M1640.29,-257.24C1633.5,-254.5 1626.55,-251.68 1620,-249 1598.09,-240.05 1573.9,-230.06 1553.31,-221.52"/>
<polygon fill="black" stroke="black" points="1554.87,-218.38 1544.29,-217.78 1552.19,-224.84 1554.87,-218.38"/>
</g>
<!-- ed25519::signature_verify_strict_t -->
<g id="node28" class="node">
<title>ed25519::signature_verify_strict_t</title>
<ellipse fill="none" stroke="black" cx="1918" cy="-200" rx="96.68" ry="18"/>
<text text-anchor="middle" x="1918" y="-196.3" font-family="Times,serif" font-size="14.00">signature_verify_strict_t</text>
</g>
<!-- assert_valid_signature_and_get_auth_key&#45;&gt;ed25519::signature_verify_strict_t -->
<g id="edge33" class="edge">
<title>assert_valid_signature_and_get_auth_key&#45;&gt;ed25519::signature_verify_strict_t</title>
<path fill="none" stroke="black" d="M1771.16,-259.74C1784.97,-256.71 1798.97,-253.14 1812,-249 1833.93,-242.03 1857.33,-231.76 1876.55,-222.51"/>
<polygon fill="black" stroke="black" points="1877.97,-225.71 1885.4,-218.17 1874.89,-219.43 1877.97,-225.71"/>
</g>
<!-- multi_ed25519::new_signature_from_bytes -->
<g id="node29" class="node">
<title>multi_ed25519::new_signature_from_bytes</title>
<ellipse fill="none" stroke="black" cx="2350" cy="-200" rx="106.68" ry="18"/>
<text text-anchor="middle" x="2350" y="-196.3" font-family="Times,serif" font-size="14.00">new_signature_from_bytes</text>
</g>
<!-- assert_valid_signature_and_get_auth_key&#45;&gt;multi_ed25519::new_signature_from_bytes -->
<g id="edge35" class="edge">
<title>assert_valid_signature_and_get_auth_key&#45;&gt;multi_ed25519::new_signature_from_bytes</title>
<path fill="none" stroke="black" d="M1821.54,-266.28C1884.43,-262.19 1959.55,-256.44 2027,-249 2108.37,-240.02 2200.71,-225.9 2265.75,-215.29"/>
<polygon fill="black" stroke="black" points="2265.97,-218.81 2275.27,-213.73 2264.83,-211.9 2265.97,-218.81"/>
</g>
<!-- multi_ed25519::signature_verify_strict_t -->
<g id="node30" class="node">
<title>multi_ed25519::signature_verify_strict_t</title>
<ellipse fill="none" stroke="black" cx="2908" cy="-200" rx="96.68" ry="18"/>
<text text-anchor="middle" x="2908" y="-196.3" font-family="Times,serif" font-size="14.00">signature_verify_strict_t</text>
</g>
<!-- assert_valid_signature_and_get_auth_key&#45;&gt;multi_ed25519::signature_verify_strict_t -->
<g id="edge37" class="edge">
<title>assert_valid_signature_and_get_auth_key&#45;&gt;multi_ed25519::signature_verify_strict_t</title>
<path fill="none" stroke="black" d="M1839.93,-273.98C2126.49,-273.42 2710.97,-269.72 2802,-249 2825.54,-243.64 2850.21,-232.82 2869.81,-222.81"/>
<polygon fill="black" stroke="black" points="2871.3,-225.99 2878.52,-218.23 2868.04,-219.79 2871.3,-225.99"/>
</g>
<!-- hash::sha3_256 -->
<g id="node31" class="node">
<title>hash::sha3_256</title>
<ellipse fill="none" stroke="black" cx="2399" cy="-34" rx="44.39" ry="18"/>
<text text-anchor="middle" x="2399" y="-30.3" font-family="Times,serif" font-size="14.00">sha3_256</text>
</g>
<!-- ed25519::public_key_bytes_to_authentication_key&#45;&gt;hash::sha3_256 -->
<g id="edge39" class="edge">
<title>ed25519::public_key_bytes_to_authentication_key&#45;&gt;hash::sha3_256</title>
<path fill="none" stroke="black" d="M1524.5,-105.91C1743.67,-88.14 2189.81,-51.96 2344.63,-39.41"/>
<polygon fill="black" stroke="black" points="2344.51,-42.93 2354.19,-38.63 2343.94,-35.95 2344.51,-42.93"/>
</g>
<!-- multi_ed25519::public_key_bytes_to_authentication_key&#45;&gt;hash::sha3_256 -->
<g id="edge40" class="edge">
<title>multi_ed25519::public_key_bytes_to_authentication_key&#45;&gt;hash::sha3_256</title>
<path fill="none" stroke="black" d="M3112.9,-101.67C3088.1,-97.87 3061.02,-94 3036,-91 2821.22,-65.22 2564.35,-46.24 2453.9,-38.65"/>
<polygon fill="black" stroke="black" points="2454.46,-35.18 2444.24,-37.99 2453.98,-42.16 2454.46,-35.18"/>
</g>
<!-- ed25519::new_signature_from_bytes&#45;&gt;error::invalid_argument -->
<g id="edge41" class="edge">
<title>ed25519::new_signature_from_bytes&#45;&gt;error::invalid_argument</title>
<path fill="none" stroke="black" d="M1447.15,-184.36C1428.44,-180.19 1407.45,-176.18 1388,-174 1348.69,-169.59 714.2,-176.27 676,-166 657.07,-160.91 637.89,-150.62 622.56,-140.87"/>
<polygon fill="black" stroke="black" points="624.61,-138.03 614.34,-135.44 620.75,-143.87 624.61,-138.03"/>
</g>
<!-- ed25519::signature_verify_strict_t&#45;&gt;bcs::to_bytes -->
<g id="edge43" class="edge">
<title>ed25519::signature_verify_strict_t&#45;&gt;bcs::to_bytes</title>
<path fill="none" stroke="black" d="M2012.56,-195.83C2049.7,-191.63 2091.79,-183.05 2127,-166 2138.56,-160.4 2149.36,-151.36 2158.08,-142.64"/>
<polygon fill="black" stroke="black" points="2160.42,-145.26 2164.73,-135.58 2155.32,-140.46 2160.42,-145.26"/>
</g>
<!-- type_info::type_of -->
<g id="node32" class="node">
<title>type_info::type_of</title>
<ellipse fill="none" stroke="black" cx="2077" cy="-117" rx="37.89" ry="18"/>
<text text-anchor="middle" x="2077" y="-113.3" font-family="Times,serif" font-size="14.00">type_of</text>
</g>
<!-- ed25519::signature_verify_strict_t&#45;&gt;type_info::type_of -->
<g id="edge42" class="edge">
<title>ed25519::signature_verify_strict_t&#45;&gt;type_info::type_of</title>
<path fill="none" stroke="black" d="M1979.8,-185.77C1995.8,-180.9 2012.58,-174.44 2027,-166 2037.59,-159.8 2047.68,-150.92 2055.99,-142.48"/>
<polygon fill="black" stroke="black" points="2058.33,-145.1 2062.62,-135.41 2053.22,-140.31 2058.33,-145.1"/>
</g>
<!-- ed25519::signature_verify_strict_internal -->
<g id="node33" class="node">
<title>ed25519::signature_verify_strict_internal</title>
<ellipse fill="none" stroke="black" cx="1893" cy="-117" rx="121.58" ry="18"/>
<text text-anchor="middle" x="1893" y="-113.3" font-family="Times,serif" font-size="14.00">signature_verify_strict_internal</text>
</g>
<!-- ed25519::signature_verify_strict_t&#45;&gt;ed25519::signature_verify_strict_internal -->
<g id="edge44" class="edge">
<title>ed25519::signature_verify_strict_t&#45;&gt;ed25519::signature_verify_strict_internal</title>
<path fill="none" stroke="black" d="M1912.7,-181.82C1909.5,-171.48 1905.36,-158.05 1901.7,-146.18"/>
<polygon fill="black" stroke="black" points="1905.12,-145.4 1898.83,-136.88 1898.43,-147.47 1905.12,-145.4"/>
</g>
<!-- multi_ed25519::new_signature_from_bytes&#45;&gt;error::invalid_argument -->
<g id="edge45" class="edge">
<title>multi_ed25519::new_signature_from_bytes&#45;&gt;error::invalid_argument</title>
<path fill="none" stroke="black" d="M2259.26,-190.24C2194.58,-184.42 2105.53,-177.27 2027,-174 1989.5,-172.44 712.27,-175.65 676,-166 657.06,-160.96 637.88,-150.68 622.55,-140.92"/>
<polygon fill="black" stroke="black" points="624.6,-138.08 614.33,-135.47 620.73,-143.91 624.6,-138.08"/>
</g>
<!-- multi_ed25519::signature_verify_strict_t&#45;&gt;bcs::to_bytes -->
<g id="edge46" class="edge">
<title>multi_ed25519::signature_verify_strict_t&#45;&gt;bcs::to_bytes</title>
<path fill="none" stroke="black" d="M2856.11,-184.38C2839.02,-180.21 2819.83,-176.2 2802,-174 2770.51,-170.11 2260.47,-177.76 2231,-166 2218.72,-161.1 2207.58,-151.84 2198.78,-142.75"/>
<polygon fill="black" stroke="black" points="2201.42,-140.44 2192.12,-135.36 2196.22,-145.13 2201.42,-140.44"/>
</g>
<!-- ed25519::new_signed_message -->
<g id="node34" class="node">
<title>ed25519::new_signed_message</title>
<ellipse fill="none" stroke="black" cx="1716" cy="-200" rx="87.18" ry="18"/>
<text text-anchor="middle" x="1716" y="-196.3" font-family="Times,serif" font-size="14.00">new_signed_message</text>
</g>
<!-- multi_ed25519::signature_verify_strict_t&#45;&gt;ed25519::new_signed_message -->
<g id="edge47" class="edge">
<title>multi_ed25519::signature_verify_strict_t&#45;&gt;ed25519::new_signed_message</title>
<path fill="none" stroke="black" d="M2879.47,-217.52C2856.93,-230.26 2824.18,-246.38 2793,-253 2779.79,-255.8 1834.21,-255.8 1821,-253 1796.17,-247.73 1770.69,-235.08 1751.05,-223.46"/>
<polygon fill="black" stroke="black" points="1752.99,-220.54 1742.64,-218.31 1749.34,-226.51 1752.99,-220.54"/>
</g>
<!-- multi_ed25519::signature_verify_strict_internal -->
<g id="node35" class="node">
<title>multi_ed25519::signature_verify_strict_internal</title>
<ellipse fill="none" stroke="black" cx="2905" cy="-117" rx="121.58" ry="18"/>
<text text-anchor="middle" x="2905" y="-113.3" font-family="Times,serif" font-size="14.00">signature_verify_strict_internal</text>
</g>
<!-- multi_ed25519::signature_verify_strict_t&#45;&gt;multi_ed25519::signature_verify_strict_internal -->
<g id="edge48" class="edge">
<title>multi_ed25519::signature_verify_strict_t&#45;&gt;multi_ed25519::signature_verify_strict_internal</title>
<path fill="none" stroke="black" d="M2907.36,-181.82C2906.99,-171.69 2906.5,-158.6 2906.07,-146.92"/>
<polygon fill="black" stroke="black" points="2909.57,-146.81 2905.7,-136.95 2902.57,-147.07 2909.57,-146.81"/>
</g>
<!-- ed25519::new_signed_message&#45;&gt;type_info::type_of -->
<g id="edge49" class="edge">
<title>ed25519::new_signed_message&#45;&gt;type_info::type_of</title>
<path fill="none" stroke="black" d="M1763.43,-184.47C1778.79,-180.35 1795.98,-176.35 1812,-174 1835.65,-170.52 2004.99,-175.33 2027,-166 2038.92,-160.94 2049.65,-151.66 2058.09,-142.59"/>
<polygon fill="black" stroke="black" points="2060.55,-145.1 2064.45,-135.25 2055.26,-140.52 2060.55,-145.1"/>
</g>
</g>
</svg>
