<?xml version="1.0" encoding="UTF-8" standalone="no"?>
<!DOCTYPE svg PUBLIC "-//W3C//DTD SVG 1.1//EN"
 "http://www.w3.org/Graphics/SVG/1.1/DTD/svg11.dtd">
<!-- Generated by graphviz version 7.0.0 (20221023.0053)
 -->
<!-- Title: G Pages: 1 -->
<svg width="381pt" height="188pt"
 viewBox="0.00 0.00 381.04 188.00" xmlns="http://www.w3.org/2000/svg" xmlns:xlink="http://www.w3.org/1999/xlink">
<g id="graph0" class="graph" transform="scale(1 1) rotate(0) translate(4 184)">
<title>G</title>
<polygon fill="white" stroke="none" points="-4,4 -4,-184 377.04,-184 377.04,4 -4,4"/>
<!-- aggregator_factory -->
<g id="node1" class="node">
<title>aggregator_factory</title>
<ellipse fill="none" stroke="black" cx="133.95" cy="-162" rx="77.19" ry="18"/>
<text text-anchor="middle" x="133.95" y="-158.3" font-family="Times,serif" font-size="14.00">aggregator_factory</text>
</g>
<!-- table -->
<g id="node2" class="node">
<title>table</title>
<ellipse fill="none" stroke="black" cx="27.95" cy="-90" rx="27.9" ry="18"/>
<text text-anchor="middle" x="27.95" y="-86.3" font-family="Times,serif" font-size="14.00">table</text>
</g>
<!-- aggregator_factory&#45;&gt;table -->
<g id="edge1" class="edge">
<title>aggregator_factory&#45;&gt;table</title>
<path fill="none" stroke="black" d="M109.1,-144.59C93.24,-134.12 72.64,-120.52 56.17,-109.64"/>
<polygon fill="black" stroke="black" points="58.55,-107.02 48.28,-104.43 54.69,-112.86 58.55,-107.02"/>
</g>
<!-- error -->
<g id="node3" class="node">
<title>error</title>
<ellipse fill="none" stroke="black" cx="95.95" cy="-18" rx="27.9" ry="18"/>
<text text-anchor="middle" x="95.95" y="-14.3" font-family="Times,serif" font-size="14.00">error</text>
</g>
<!-- aggregator_factory&#45;&gt;error -->
<g id="edge2" class="edge">
<title>aggregator_factory&#45;&gt;error</title>
<path fill="none" stroke="black" d="M121.19,-143.79C114.54,-133.86 106.97,-120.82 102.95,-108 96.81,-88.41 95.15,-65.27 94.97,-47.5"/>
<polygon fill="black" stroke="black" points="98.47,-47.7 95.04,-37.67 91.47,-47.65 98.47,-47.7"/>
</g>
<!-- system_addresses -->
<g id="node4" class="node">
<title>system_addresses</title>
<ellipse fill="none" stroke="black" cx="184.95" cy="-90" rx="73.39" ry="18"/>
<text text-anchor="middle" x="184.95" y="-86.3" font-family="Times,serif" font-size="14.00">system_addresses</text>
</g>
<!-- aggregator_factory&#45;&gt;system_addresses -->
<g id="edge3" class="edge">
<title>aggregator_factory&#45;&gt;system_addresses</title>
<path fill="none" stroke="black" d="M146.29,-144.05C152.24,-135.89 159.51,-125.91 166.13,-116.82"/>
<polygon fill="black" stroke="black" points="168.76,-119.16 171.82,-109.01 163.11,-115.03 168.76,-119.16"/>
</g>
<!-- aggregator -->
<g id="node5" class="node">
<title>aggregator</title>
<ellipse fill="none" stroke="black" cx="324.95" cy="-90" rx="48.19" ry="18"/>
<text text-anchor="middle" x="324.95" y="-86.3" font-family="Times,serif" font-size="14.00">aggregator</text>
</g>
<!-- aggregator_factory&#45;&gt;aggregator -->
<g id="edge4" class="edge">
<title>aggregator_factory&#45;&gt;aggregator</title>
<path fill="none" stroke="black" d="M173.99,-146.33C205.24,-134.87 248.62,-118.97 280.86,-107.16"/>
<polygon fill="black" stroke="black" points="281.73,-110.57 289.91,-103.84 279.32,-103.99 281.73,-110.57"/>
</g>
<!-- system_addresses&#45;&gt;error -->
<g id="edge6" class="edge">
<title>system_addresses&#45;&gt;error</title>
<path fill="none" stroke="black" d="M163.86,-72.41C151.24,-62.49 135.12,-49.81 121.75,-39.3"/>
<polygon fill="black" stroke="black" points="124.23,-36.79 114.2,-33.36 119.9,-42.29 124.23,-36.79"/>
</g>
<!-- signer -->
<g id="node6" class="node">
<title>signer</title>
<ellipse fill="none" stroke="black" cx="184.95" cy="-18" rx="32.49" ry="18"/>
<text text-anchor="middle" x="184.95" y="-14.3" font-family="Times,serif" font-size="14.00">signer</text>
</g>
<!-- system_addresses&#45;&gt;signer -->
<g id="edge5" class="edge">
<title>system_addresses&#45;&gt;signer</title>
<path fill="none" stroke="black" d="M184.95,-71.7C184.95,-64.41 184.95,-55.73 184.95,-47.54"/>
<polygon fill="black" stroke="black" points="188.45,-47.62 184.95,-37.62 181.45,-47.62 188.45,-47.62"/>
</g>
</g>
</svg>
