<?xml version="1.0" encoding="UTF-8" standalone="no"?>
<!DOCTYPE svg PUBLIC "-//W3C//DTD SVG 1.1//EN"
 "http://www.w3.org/Graphics/SVG/1.1/DTD/svg11.dtd">
<!-- Generated by graphviz version 7.0.0 (20221023.0053)
 -->
<!-- Title: G Pages: 1 -->
<svg width="1512pt" height="620pt"
 viewBox="0.00 0.00 1512.00 620.00" xmlns="http://www.w3.org/2000/svg" xmlns:xlink="http://www.w3.org/1999/xlink">
<g id="graph0" class="graph" transform="scale(1 1) rotate(0) translate(4 616)">
<title>G</title>
<polygon fill="white" stroke="none" points="-4,4 -4,-616 1508,-616 1508,4 -4,4"/>
<!-- aptos_coin -->
<g id="node1" class="node">
<title>aptos_coin</title>
<ellipse fill="none" stroke="black" cx="921" cy="-594" rx="48.99" ry="18"/>
<text text-anchor="middle" x="921" y="-590.3" font-family="Times,serif" font-size="14.00">aptos_coin</text>
</g>
<!-- vector -->
<g id="node2" class="node">
<title>vector</title>
<ellipse fill="none" stroke="black" cx="76" cy="-18" rx="32.49" ry="18"/>
<text text-anchor="middle" x="76" y="-14.3" font-family="Times,serif" font-size="14.00">vector</text>
</g>
<!-- aptos_coin&#45;&gt;vector -->
<g id="edge1" class="edge">
<title>aptos_coin&#45;&gt;vector</title>
<path fill="none" stroke="black" d="M871.86,-592.72C723.24,-591.41 280.37,-583.81 144,-540 72.37,-516.99 0,-526.24 0,-451 0,-451 0,-451 0,-161 0,-114.98 31.42,-69.43 53.85,-42.78"/>
<polygon fill="black" stroke="black" points="56.43,-45.15 60.35,-35.31 51.15,-40.56 56.43,-45.15"/>
</g>
<!-- option -->
<g id="node3" class="node">
<title>option</title>
<ellipse fill="none" stroke="black" cx="678" cy="-90" rx="33.29" ry="18"/>
<text text-anchor="middle" x="678" y="-86.3" font-family="Times,serif" font-size="14.00">option</text>
</g>
<!-- aptos_coin&#45;&gt;option -->
<g id="edge2" class="edge">
<title>aptos_coin&#45;&gt;option</title>
<path fill="none" stroke="black" d="M969.68,-591.16C1075.21,-586.59 1321.69,-572.67 1398,-540 1454.55,-515.79 1504,-512.52 1504,-451 1504,-451 1504,-451 1504,-233 1504,-166.6 1446.23,-167.18 1384,-144 1261.86,-98.51 857.6,-92.02 722.45,-91.13"/>
<polygon fill="black" stroke="black" points="722.86,-87.63 712.84,-91.07 722.82,-94.63 722.86,-87.63"/>
</g>
<!-- string -->
<g id="node4" class="node">
<title>string</title>
<ellipse fill="none" stroke="black" cx="152" cy="-162" rx="30.59" ry="18"/>
<text text-anchor="middle" x="152" y="-158.3" font-family="Times,serif" font-size="14.00">string</text>
</g>
<!-- aptos_coin&#45;&gt;string -->
<g id="edge3" class="edge">
<title>aptos_coin&#45;&gt;string</title>
<path fill="none" stroke="black" d="M872.58,-590.38C687.9,-579.74 38,-536.25 38,-451 38,-451 38,-451 38,-377 38,-299.84 96.45,-223.46 129.64,-186.3"/>
<polygon fill="black" stroke="black" points="131.92,-189 136.08,-179.26 126.75,-184.28 131.92,-189"/>
</g>
<!-- signer -->
<g id="node5" class="node">
<title>signer</title>
<ellipse fill="none" stroke="black" cx="867" cy="-234" rx="32.49" ry="18"/>
<text text-anchor="middle" x="867" y="-230.3" font-family="Times,serif" font-size="14.00">signer</text>
</g>
<!-- aptos_coin&#45;&gt;signer -->
<g id="edge4" class="edge">
<title>aptos_coin&#45;&gt;signer</title>
<path fill="none" stroke="black" d="M906.44,-576.61C898.58,-566.73 889.58,-553.48 885,-540 851.98,-442.89 858.57,-318.46 863.78,-263.39"/>
<polygon fill="black" stroke="black" points="867.24,-263.94 864.76,-253.64 860.27,-263.23 867.24,-263.94"/>
</g>
<!-- error -->
<g id="node6" class="node">
<title>error</title>
<ellipse fill="none" stroke="black" cx="1037" cy="-234" rx="27.9" ry="18"/>
<text text-anchor="middle" x="1037" y="-230.3" font-family="Times,serif" font-size="14.00">error</text>
</g>
<!-- aptos_coin&#45;&gt;error -->
<g id="edge5" class="edge">
<title>aptos_coin&#45;&gt;error</title>
<path fill="none" stroke="black" d="M969.37,-590.73C1102.75,-583.16 1466,-553.18 1466,-451 1466,-451 1466,-451 1466,-377 1466,-313.77 1412.72,-313.81 1355,-288 1261.16,-246.04 1138.29,-237.01 1076.34,-235.25"/>
<polygon fill="black" stroke="black" points="1076.74,-231.76 1066.66,-235.03 1076.58,-238.76 1076.74,-231.76"/>
</g>
<!-- system_addresses -->
<g id="node7" class="node">
<title>system_addresses</title>
<ellipse fill="none" stroke="black" cx="987" cy="-306" rx="73.39" ry="18"/>
<text text-anchor="middle" x="987" y="-302.3" font-family="Times,serif" font-size="14.00">system_addresses</text>
</g>
<!-- aptos_coin&#45;&gt;system_addresses -->
<g id="edge6" class="edge">
<title>aptos_coin&#45;&gt;system_addresses</title>
<path fill="none" stroke="black" d="M935.1,-576.44C942.8,-566.5 951.8,-553.25 957,-540 984.38,-470.27 987.91,-380.67 987.73,-335.6"/>
<polygon fill="black" stroke="black" points="991.23,-335.84 987.61,-325.89 984.23,-335.93 991.23,-335.84"/>
</g>
<!-- coin -->
<g id="node8" class="node">
<title>coin</title>
<ellipse fill="none" stroke="black" cx="921" cy="-522" rx="27" ry="18"/>
<text text-anchor="middle" x="921" y="-518.3" font-family="Times,serif" font-size="14.00">coin</text>
</g>
<!-- aptos_coin&#45;&gt;coin -->
<g id="edge7" class="edge">
<title>aptos_coin&#45;&gt;coin</title>
<path fill="none" stroke="black" d="M921,-575.7C921,-568.41 921,-559.73 921,-551.54"/>
<polygon fill="black" stroke="black" points="924.5,-551.62 921,-541.62 917.5,-551.62 924.5,-551.62"/>
</g>
<!-- option&#45;&gt;vector -->
<g id="edge8" class="edge">
<title>option&#45;&gt;vector</title>
<path fill="none" stroke="black" d="M645.63,-85.24C544.44,-73.47 233.98,-37.37 119.23,-24.03"/>
<polygon fill="black" stroke="black" points="119.64,-20.55 109.3,-22.87 118.83,-27.5 119.64,-20.55"/>
</g>
<!-- string&#45;&gt;vector -->
<g id="edge9" class="edge">
<title>string&#45;&gt;vector</title>
<path fill="none" stroke="black" d="M143.13,-144.43C130.09,-120.06 105.6,-74.31 90.08,-45.32"/>
<polygon fill="black" stroke="black" points="93.33,-43.96 85.52,-36.8 87.16,-47.26 93.33,-43.96"/>
</g>
<!-- string&#45;&gt;option -->
<g id="edge10" class="edge">
<title>string&#45;&gt;option</title>
<path fill="none" stroke="black" d="M181.79,-157.04C270.1,-145.28 530.78,-110.59 634.61,-96.77"/>
<polygon fill="black" stroke="black" points="634.94,-100.26 644.39,-95.47 634.02,-93.32 634.94,-100.26"/>
</g>
<!-- system_addresses&#45;&gt;signer -->
<g id="edge11" class="edge">
<title>system_addresses&#45;&gt;signer</title>
<path fill="none" stroke="black" d="M959.47,-288.94C941.37,-278.38 917.63,-264.53 898.74,-253.51"/>
<polygon fill="black" stroke="black" points="900.51,-250.5 890.11,-248.48 896.99,-256.54 900.51,-250.5"/>
</g>
<!-- system_addresses&#45;&gt;error -->
<g id="edge12" class="edge">
<title>system_addresses&#45;&gt;error</title>
<path fill="none" stroke="black" d="M999.1,-288.05C1005.11,-279.65 1012.48,-269.32 1019.13,-260.02"/>
<polygon fill="black" stroke="black" points="1021.85,-262.23 1024.81,-252.06 1016.15,-258.16 1021.85,-262.23"/>
</g>
<!-- coin&#45;&gt;option -->
<g id="edge13" class="edge">
<title>coin&#45;&gt;option</title>
<path fill="none" stroke="black" d="M948.26,-521.48C1037.88,-522.51 1321.62,-521.42 1392,-468 1425.99,-442.2 1428,-421.67 1428,-379 1428,-379 1428,-379 1428,-233 1428,-175.47 1386.55,-167.43 1334,-144 1224.32,-95.11 852.52,-90.77 722.97,-90.79"/>
<polygon fill="black" stroke="black" points="723.07,-87.29 713.07,-90.8 723.07,-94.29 723.07,-87.29"/>
</g>
<!-- coin&#45;&gt;string -->
<g id="edge14" class="edge">
<title>coin&#45;&gt;string</title>
<path fill="none" stroke="black" d="M893.56,-521.27C779.09,-522.02 339.79,-521.34 214,-468 159.22,-444.77 114,-438.5 114,-379 114,-379 114,-379 114,-305 114,-263.95 129,-218.43 140.15,-190.26"/>
<polygon fill="black" stroke="black" points="143.37,-191.64 143.92,-181.06 136.89,-188.99 143.37,-191.64"/>
</g>
<!-- coin&#45;&gt;signer -->
<g id="edge16" class="edge">
<title>coin&#45;&gt;signer</title>
<path fill="none" stroke="black" d="M917.78,-503.97C908.82,-456.49 883.48,-322.31 872.36,-263.36"/>
<polygon fill="black" stroke="black" points="875.84,-262.97 870.55,-253.79 868.96,-264.27 875.84,-262.97"/>
</g>
<!-- coin&#45;&gt;error -->
<g id="edge17" class="edge">
<title>coin&#45;&gt;error</title>
<path fill="none" stroke="black" d="M936.71,-507.17C969.06,-477.51 1042.32,-403.94 1069,-324 1074.07,-308.82 1073.29,-303.41 1069,-288 1066.22,-278.03 1061.01,-268.06 1055.58,-259.5"/>
<polygon fill="black" stroke="black" points="1058.61,-257.74 1050.09,-251.44 1052.82,-261.67 1058.61,-257.74"/>
</g>
<!-- coin&#45;&gt;system_addresses -->
<g id="edge18" class="edge">
<title>coin&#45;&gt;system_addresses</title>
<path fill="none" stroke="black" d="M926.29,-503.85C937.66,-466.99 964.51,-379.92 978.38,-334.96"/>
<polygon fill="black" stroke="black" points="981.64,-336.27 981.24,-325.68 974.95,-334.2 981.64,-336.27"/>
</g>
<!-- type_info -->
<g id="node9" class="node">
<title>type_info</title>
<ellipse fill="none" stroke="black" cx="262" cy="-234" rx="44.39" ry="18"/>
<text text-anchor="middle" x="262" y="-230.3" font-family="Times,serif" font-size="14.00">type_info</text>
</g>
<!-- coin&#45;&gt;type_info -->
<g id="edge15" class="edge">
<title>coin&#45;&gt;type_info</title>
<path fill="none" stroke="black" d="M893.84,-521.12C770.04,-521.02 261.43,-513.38 171,-396 135.9,-350.44 194.48,-289.8 232.82,-257.5"/>
<polygon fill="black" stroke="black" points="234.92,-260.31 240.43,-251.26 230.48,-254.9 234.92,-260.31"/>
</g>
<!-- event -->
<g id="node10" class="node">
<title>event</title>
<ellipse fill="none" stroke="black" cx="354" cy="-378" rx="29.8" ry="18"/>
<text text-anchor="middle" x="354" y="-374.3" font-family="Times,serif" font-size="14.00">event</text>
</g>
<!-- coin&#45;&gt;event -->
<g id="edge19" class="edge">
<title>coin&#45;&gt;event</title>
<path fill="none" stroke="black" d="M894.01,-520.31C829.95,-518.04 664.26,-508.4 533,-468 477.45,-450.9 417.98,-418.09 383.49,-397.44"/>
<polygon fill="black" stroke="black" points="385.69,-394.68 375.32,-392.49 382.06,-400.66 385.69,-394.68"/>
</g>
<!-- account -->
<g id="node11" class="node">
<title>account</title>
<ellipse fill="none" stroke="black" cx="580" cy="-450" rx="38.19" ry="18"/>
<text text-anchor="middle" x="580" y="-446.3" font-family="Times,serif" font-size="14.00">account</text>
</g>
<!-- coin&#45;&gt;account -->
<g id="edge20" class="edge">
<title>coin&#45;&gt;account</title>
<path fill="none" stroke="black" d="M895.37,-515.74C837.96,-503.95 698.38,-475.3 625.7,-460.38"/>
<polygon fill="black" stroke="black" points="626.61,-457 616.11,-458.41 625.21,-463.85 626.61,-457"/>
</g>
<!-- optional_aggregator -->
<g id="node12" class="node">
<title>optional_aggregator</title>
<ellipse fill="none" stroke="black" cx="1302" cy="-450" rx="81.49" ry="18"/>
<text text-anchor="middle" x="1302" y="-446.3" font-family="Times,serif" font-size="14.00">optional_aggregator</text>
</g>
<!-- coin&#45;&gt;optional_aggregator -->
<g id="edge21" class="edge">
<title>coin&#45;&gt;optional_aggregator</title>
<path fill="none" stroke="black" d="M946.89,-516.24C1004.19,-505.72 1143.48,-480.12 1229.6,-464.3"/>
<polygon fill="black" stroke="black" points="1230.17,-467.76 1239.38,-462.51 1228.91,-460.87 1230.17,-467.76"/>
</g>
<!-- type_info&#45;&gt;string -->
<g id="edge22" class="edge">
<title>type_info&#45;&gt;string</title>
<path fill="none" stroke="black" d="M238.94,-218.33C222.33,-207.75 199.76,-193.39 181.79,-181.95"/>
<polygon fill="black" stroke="black" points="183.67,-179 173.35,-176.59 179.91,-184.91 183.67,-179"/>
</g>
<!-- bcs -->
<g id="node13" class="node">
<title>bcs</title>
<ellipse fill="none" stroke="black" cx="425" cy="-234" rx="27" ry="18"/>
<text text-anchor="middle" x="425" y="-230.3" font-family="Times,serif" font-size="14.00">bcs</text>
</g>
<!-- event&#45;&gt;bcs -->
<g id="edge23" class="edge">
<title>event&#45;&gt;bcs</title>
<path fill="none" stroke="black" d="M338.88,-362.16C322.21,-343.93 299.65,-312.43 315,-288 330.84,-262.78 362.42,-249.28 387.7,-242.23"/>
<polygon fill="black" stroke="black" points="388.48,-245.64 397.32,-239.8 386.77,-238.86 388.48,-245.64"/>
</g>
<!-- guid -->
<g id="node14" class="node">
<title>guid</title>
<ellipse fill="none" stroke="black" cx="351" cy="-306" rx="27" ry="18"/>
<text text-anchor="middle" x="351" y="-302.3" font-family="Times,serif" font-size="14.00">guid</text>
</g>
<!-- event&#45;&gt;guid -->
<g id="edge24" class="edge">
<title>event&#45;&gt;guid</title>
<path fill="none" stroke="black" d="M353.26,-359.7C352.95,-352.41 352.57,-343.73 352.22,-335.54"/>
<polygon fill="black" stroke="black" points="355.72,-335.46 351.8,-325.62 348.73,-335.76 355.72,-335.46"/>
</g>
<!-- account&#45;&gt;vector -->
<g id="edge25" class="edge">
<title>account&#45;&gt;vector</title>
<path fill="none" stroke="black" d="M541.64,-448.95C451.15,-448.08 227.74,-441.27 171,-396 62.77,-309.64 66.99,-119.62 72.94,-47.51"/>
<polygon fill="black" stroke="black" points="76.41,-48.01 73.83,-37.73 69.44,-47.37 76.41,-48.01"/>
</g>
<!-- account&#45;&gt;option -->
<g id="edge26" class="edge">
<title>account&#45;&gt;option</title>
<path fill="none" stroke="black" d="M611.2,-439.52C631.77,-431.48 657.21,-417.72 670,-396 722.59,-306.74 699.49,-175.84 685.66,-119.03"/>
<polygon fill="black" stroke="black" points="689.1,-118.37 683.25,-109.54 682.32,-120.09 689.1,-118.37"/>
</g>
<!-- account&#45;&gt;signer -->
<g id="edge29" class="edge">
<title>account&#45;&gt;signer</title>
<path fill="none" stroke="black" d="M615.84,-443.06C648.02,-436.23 695.12,-422.4 728,-396 772.23,-360.49 757.51,-329.67 796,-288 807.84,-275.18 823.13,-263.31 836.49,-254.07"/>
<polygon fill="black" stroke="black" points="838.18,-257.15 844.54,-248.67 834.29,-251.34 838.18,-257.15"/>
</g>
<!-- account&#45;&gt;error -->
<g id="edge30" class="edge">
<title>account&#45;&gt;error</title>
<path fill="none" stroke="black" d="M615.01,-442.44C651.77,-434.68 710.58,-419.71 757,-396 780.43,-384.03 782.84,-375.64 804,-360 848.33,-327.23 856.64,-314.46 905,-288 936.42,-270.81 974.6,-256.09 1001.8,-246.56"/>
<polygon fill="black" stroke="black" points="1002.62,-249.97 1010.94,-243.41 1000.35,-243.35 1002.62,-249.97"/>
</g>
<!-- account&#45;&gt;system_addresses -->
<g id="edge31" class="edge">
<title>account&#45;&gt;system_addresses</title>
<path fill="none" stroke="black" d="M615.61,-443.08C660.39,-435.07 739.26,-419.08 804,-396 856.17,-377.4 913.06,-348.21 949.34,-328.37"/>
<polygon fill="black" stroke="black" points="950.61,-331.66 957.68,-323.77 947.23,-325.53 950.61,-331.66"/>
</g>
<!-- account&#45;&gt;type_info -->
<g id="edge27" class="edge">
<title>account&#45;&gt;type_info</title>
<path fill="none" stroke="black" d="M542.38,-446.1C477.49,-440.36 348.27,-425.48 315,-396 276.71,-362.07 265.98,-299.98 263.04,-263.62"/>
<polygon fill="black" stroke="black" points="266.55,-263.61 262.41,-253.86 259.56,-264.07 266.55,-263.61"/>
</g>
<!-- account&#45;&gt;event -->
<g id="edge38" class="edge">
<title>account&#45;&gt;event</title>
<path fill="none" stroke="black" d="M547.19,-440.35C510.55,-430.48 449.6,-413.44 398,-396 394.95,-394.97 391.79,-393.85 388.64,-392.7"/>
<polygon fill="black" stroke="black" points="390.08,-389.5 379.49,-389.26 387.62,-396.05 390.08,-389.5"/>
</g>
<!-- account&#45;&gt;bcs -->
<g id="edge33" class="edge">
<title>account&#45;&gt;bcs</title>
<path fill="none" stroke="black" d="M554.85,-436.22C520.54,-417.17 460.63,-377.73 437,-324 428.69,-305.1 425.76,-281.93 424.88,-263.98"/>
<polygon fill="black" stroke="black" points="428.38,-263.9 424.59,-254.01 421.38,-264.1 428.38,-263.9"/>
</g>
<!-- account&#45;&gt;guid -->
<g id="edge36" class="edge">
<title>account&#45;&gt;guid</title>
<path fill="none" stroke="black" d="M546.27,-441.26C515.74,-433.2 470.42,-418.57 436,-396 409.44,-378.58 385.06,-351.37 369.29,-331.63"/>
<polygon fill="black" stroke="black" points="372.1,-329.54 363.19,-323.8 366.58,-333.84 372.1,-329.54"/>
</g>
<!-- table -->
<g id="node15" class="node">
<title>table</title>
<ellipse fill="none" stroke="black" cx="1144" cy="-306" rx="27.9" ry="18"/>
<text text-anchor="middle" x="1144" y="-302.3" font-family="Times,serif" font-size="14.00">table</text>
</g>
<!-- account&#45;&gt;table -->
<g id="edge28" class="edge">
<title>account&#45;&gt;table</title>
<path fill="none" stroke="black" d="M616.09,-443.55C669.71,-435.14 773.37,-417.69 860,-396 951.06,-373.2 1055.9,-337.94 1109.11,-319.38"/>
<polygon fill="black" stroke="black" points="1110.25,-322.69 1118.53,-316.08 1107.93,-316.09 1110.25,-322.69"/>
</g>
<!-- hash -->
<g id="node16" class="node">
<title>hash</title>
<ellipse fill="none" stroke="black" cx="567" cy="-234" rx="27" ry="18"/>
<text text-anchor="middle" x="567" y="-230.3" font-family="Times,serif" font-size="14.00">hash</text>
</g>
<!-- account&#45;&gt;hash -->
<g id="edge32" class="edge">
<title>account&#45;&gt;hash</title>
<path fill="none" stroke="black" d="M607.44,-437.1C623.91,-428.34 643.47,-414.7 653,-396 660.27,-381.75 657.75,-375.28 653,-360 640.52,-319.85 610.17,-281.18 589.09,-257.74"/>
<polygon fill="black" stroke="black" points="591.9,-255.63 582.54,-250.65 586.75,-260.37 591.9,-255.63"/>
</g>
<!-- ed25519 -->
<g id="node17" class="node">
<title>ed25519</title>
<ellipse fill="none" stroke="black" cx="513" cy="-306" rx="40.89" ry="18"/>
<text text-anchor="middle" x="513" y="-302.3" font-family="Times,serif" font-size="14.00">ed25519</text>
</g>
<!-- account&#45;&gt;ed25519 -->
<g id="edge34" class="edge">
<title>account&#45;&gt;ed25519</title>
<path fill="none" stroke="black" d="M552.56,-437.1C536.09,-428.34 516.53,-414.7 507,-396 497.48,-377.33 499.7,-353.52 503.92,-335.23"/>
<polygon fill="black" stroke="black" points="507.29,-336.14 506.48,-325.58 500.53,-334.34 507.29,-336.14"/>
</g>
<!-- multi_ed25519 -->
<g id="node18" class="node">
<title>multi_ed25519</title>
<ellipse fill="none" stroke="black" cx="580" cy="-378" rx="64.19" ry="18"/>
<text text-anchor="middle" x="580" y="-374.3" font-family="Times,serif" font-size="14.00">multi_ed25519</text>
</g>
<!-- account&#45;&gt;multi_ed25519 -->
<g id="edge35" class="edge">
<title>account&#45;&gt;multi_ed25519</title>
<path fill="none" stroke="black" d="M580,-431.7C580,-424.41 580,-415.73 580,-407.54"/>
<polygon fill="black" stroke="black" points="583.5,-407.62 580,-397.62 576.5,-407.62 583.5,-407.62"/>
</g>
<!-- from_bcs -->
<g id="node19" class="node">
<title>from_bcs</title>
<ellipse fill="none" stroke="black" cx="224" cy="-378" rx="44.39" ry="18"/>
<text text-anchor="middle" x="224" y="-374.3" font-family="Times,serif" font-size="14.00">from_bcs</text>
</g>
<!-- account&#45;&gt;from_bcs -->
<g id="edge37" class="edge">
<title>account&#45;&gt;from_bcs</title>
<path fill="none" stroke="black" d="M543.96,-443.89C487.67,-435.62 375.62,-417.98 282,-396 277.93,-395.04 273.72,-393.97 269.52,-392.85"/>
<polygon fill="black" stroke="black" points="270.52,-389.5 259.95,-390.19 268.65,-396.24 270.52,-389.5"/>
</g>
<!-- optional_aggregator&#45;&gt;option -->
<g id="edge39" class="edge">
<title>optional_aggregator&#45;&gt;option</title>
<path fill="none" stroke="black" d="M1321.09,-432.28C1346.98,-407.66 1390,-358.92 1390,-307 1390,-307 1390,-307 1390,-233 1390,-96.33 879.12,-89.31 722.86,-90.36"/>
<polygon fill="black" stroke="black" points="722.87,-86.86 712.9,-90.44 722.93,-93.86 722.87,-86.86"/>
</g>
<!-- optional_aggregator&#45;&gt;error -->
<g id="edge40" class="edge">
<title>optional_aggregator&#45;&gt;error</title>
<path fill="none" stroke="black" d="M1313.42,-431.7C1333.1,-399.52 1368.07,-329.91 1333,-288 1300.71,-249.41 1149.21,-238.89 1076.34,-236.04"/>
<polygon fill="black" stroke="black" points="1076.57,-232.55 1066.45,-235.69 1076.32,-239.54 1076.57,-232.55"/>
</g>
<!-- aggregator -->
<g id="node20" class="node">
<title>aggregator</title>
<ellipse fill="none" stroke="black" cx="1276" cy="-306" rx="48.19" ry="18"/>
<text text-anchor="middle" x="1276" y="-302.3" font-family="Times,serif" font-size="14.00">aggregator</text>
</g>
<!-- optional_aggregator&#45;&gt;aggregator -->
<g id="edge41" class="edge">
<title>optional_aggregator&#45;&gt;aggregator</title>
<path fill="none" stroke="black" d="M1298.81,-431.59C1294.42,-407.61 1286.46,-364.14 1281.2,-335.42"/>
<polygon fill="black" stroke="black" points="1284.65,-334.81 1279.41,-325.6 1277.76,-336.07 1284.65,-334.81"/>
</g>
<!-- aggregator_factory -->
<g id="node21" class="node">
<title>aggregator_factory</title>
<ellipse fill="none" stroke="black" cx="1197" cy="-378" rx="77.19" ry="18"/>
<text text-anchor="middle" x="1197" y="-374.3" font-family="Times,serif" font-size="14.00">aggregator_factory</text>
</g>
<!-- optional_aggregator&#45;&gt;aggregator_factory -->
<g id="edge42" class="edge">
<title>optional_aggregator&#45;&gt;aggregator_factory</title>
<path fill="none" stroke="black" d="M1277.12,-432.41C1263.39,-423.26 1246.13,-411.76 1231.16,-401.77"/>
<polygon fill="black" stroke="black" points="1233.23,-398.94 1222.96,-396.31 1229.34,-404.77 1233.23,-398.94"/>
</g>
<!-- ed25519&#45;&gt;option -->
<g id="edge43" class="edge">
<title>ed25519&#45;&gt;option</title>
<path fill="none" stroke="black" d="M513.42,-287.52C514.55,-268.75 518.4,-238.57 531,-216 557.83,-167.95 610.76,-130.09 645.25,-109.13"/>
<polygon fill="black" stroke="black" points="646.76,-112.31 653.57,-104.2 643.19,-106.29 646.76,-112.31"/>
</g>
<!-- ed25519&#45;&gt;error -->
<g id="edge45" class="edge">
<title>ed25519&#45;&gt;error</title>
<path fill="none" stroke="black" d="M551.96,-299.8C649.18,-286.81 901.62,-253.09 998.43,-240.15"/>
<polygon fill="black" stroke="black" points="998.76,-243.64 1008.21,-238.85 997.83,-236.7 998.76,-243.64"/>
</g>
<!-- ed25519&#45;&gt;type_info -->
<g id="edge44" class="edge">
<title>ed25519&#45;&gt;type_info</title>
<path fill="none" stroke="black" d="M479.15,-295.56C435.2,-283.3 358.29,-261.85 308.78,-248.05"/>
<polygon fill="black" stroke="black" points="309.77,-244.69 299.2,-245.37 307.89,-251.43 309.77,-244.69"/>
</g>
<!-- ed25519&#45;&gt;bcs -->
<g id="edge47" class="edge">
<title>ed25519&#45;&gt;bcs</title>
<path fill="none" stroke="black" d="M493.91,-289.81C481.34,-279.81 464.73,-266.6 450.96,-255.65"/>
<polygon fill="black" stroke="black" points="453.16,-252.93 443.16,-249.45 448.81,-258.41 453.16,-252.93"/>
</g>
<!-- ed25519&#45;&gt;hash -->
<g id="edge46" class="edge">
<title>ed25519&#45;&gt;hash</title>
<path fill="none" stroke="black" d="M525.8,-288.41C532.44,-279.8 540.69,-269.11 548.05,-259.56"/>
<polygon fill="black" stroke="black" points="550.77,-261.76 554.11,-251.71 545.23,-257.49 550.77,-261.76"/>
</g>
<!-- multi_ed25519&#45;&gt;option -->
<g id="edge48" class="edge">
<title>multi_ed25519&#45;&gt;option</title>
<path fill="none" stroke="black" d="M585.84,-359.97C602.18,-312.28 648.49,-177.11 668.55,-118.58"/>
<polygon fill="black" stroke="black" points="671.77,-119.97 671.7,-109.38 665.15,-117.7 671.77,-119.97"/>
</g>
<!-- multi_ed25519&#45;&gt;error -->
<g id="edge49" class="edge">
<title>multi_ed25519&#45;&gt;error</title>
<path fill="none" stroke="black" d="M611.56,-361.95C653.07,-342.63 728.66,-309.1 796,-288 866.25,-265.99 950.77,-249.65 998.76,-241.28"/>
<polygon fill="black" stroke="black" points="999.1,-244.77 1008.36,-239.63 997.91,-237.88 999.1,-244.77"/>
</g>
<!-- multi_ed25519&#45;&gt;bcs -->
<g id="edge51" class="edge">
<title>multi_ed25519&#45;&gt;bcs</title>
<path fill="none" stroke="black" d="M534.18,-365.02C510.39,-356.82 482.34,-343.76 463,-324 446.65,-307.29 436.85,-282.46 431.31,-263.27"/>
<polygon fill="black" stroke="black" points="434.7,-262.41 428.77,-253.63 427.93,-264.19 434.7,-262.41"/>
</g>
<!-- multi_ed25519&#45;&gt;hash -->
<g id="edge50" class="edge">
<title>multi_ed25519&#45;&gt;hash</title>
<path fill="none" stroke="black" d="M578.41,-359.59C576.21,-335.61 572.23,-292.14 569.6,-263.42"/>
<polygon fill="black" stroke="black" points="573.1,-263.26 568.7,-253.62 566.13,-263.9 573.1,-263.26"/>
</g>
<!-- multi_ed25519&#45;&gt;ed25519 -->
<g id="edge52" class="edge">
<title>multi_ed25519&#45;&gt;ed25519</title>
<path fill="none" stroke="black" d="M564.12,-360.41C555.74,-351.66 545.3,-340.75 536.05,-331.08"/>
<polygon fill="black" stroke="black" points="538.79,-328.89 529.35,-324.08 533.74,-333.73 538.79,-328.89"/>
</g>
<!-- from_bcs&#45;&gt;string -->
<g id="edge53" class="edge">
<title>from_bcs&#45;&gt;string</title>
<path fill="none" stroke="black" d="M218.23,-359.85C205.8,-322.9 176.39,-235.49 161.29,-190.62"/>
<polygon fill="black" stroke="black" points="164.69,-189.73 158.18,-181.37 158.05,-191.96 164.69,-189.73"/>
</g>
<!-- aggregator_factory&#45;&gt;error -->
<g id="edge55" class="edge">
<title>aggregator_factory&#45;&gt;error</title>
<path fill="none" stroke="black" d="M1198.64,-359.84C1199.54,-340.22 1197.95,-308.21 1181,-288 1154.89,-256.87 1108.78,-244.02 1075.77,-238.72"/>
<polygon fill="black" stroke="black" points="1076.58,-235.3 1066.19,-237.36 1075.59,-242.23 1076.58,-235.3"/>
</g>
<!-- aggregator_factory&#45;&gt;system_addresses -->
<g id="edge56" class="edge">
<title>aggregator_factory&#45;&gt;system_addresses</title>
<path fill="none" stroke="black" d="M1154,-362.67C1120.94,-351.65 1075.1,-336.37 1039.82,-324.61"/>
<polygon fill="black" stroke="black" points="1041.26,-321.4 1030.66,-321.55 1039.04,-328.04 1041.26,-321.4"/>
</g>
<!-- aggregator_factory&#45;&gt;table -->
<g id="edge54" class="edge">
<title>aggregator_factory&#45;&gt;table</title>
<path fill="none" stroke="black" d="M1184.17,-360.05C1177.64,-351.44 1169.6,-340.81 1162.42,-331.33"/>
<polygon fill="black" stroke="black" points="1165.37,-329.42 1156.54,-323.56 1159.79,-333.65 1165.37,-329.42"/>
</g>
<!-- aggregator_factory&#45;&gt;aggregator -->
<g id="edge57" class="edge">
<title>aggregator_factory&#45;&gt;aggregator</title>
<path fill="none" stroke="black" d="M1215.72,-360.41C1225.8,-351.48 1238.41,-340.31 1249.48,-330.5"/>
<polygon fill="black" stroke="black" points="1251.66,-333.24 1256.82,-323.99 1247.02,-328 1251.66,-333.24"/>
</g>
</g>
</svg>
