<?xml version="1.0" encoding="UTF-8" standalone="no"?>
<!DOCTYPE svg PUBLIC "-//W3C//DTD SVG 1.1//EN"
 "http://www.w3.org/Graphics/SVG/1.1/DTD/svg11.dtd">
<!-- Generated by graphviz version 7.0.0 (20221023.0053)
 -->
<!-- Title: G Pages: 1 -->
<svg width="3168pt" height="836pt"
 viewBox="0.00 0.00 3167.79 836.00" xmlns="http://www.w3.org/2000/svg" xmlns:xlink="http://www.w3.org/1999/xlink">
<g id="graph0" class="graph" transform="scale(1 1) rotate(0) translate(4 832)">
<title>G</title>
<polygon fill="white" stroke="none" points="-4,4 -4,-832 3163.79,-832 3163.79,4 -4,4"/>
<!-- aptos_governance -->
<g id="node1" class="node">
<title>aptos_governance</title>
<ellipse fill="none" stroke="black" cx="1676" cy="-810" rx="74.19" ry="18"/>
<text text-anchor="middle" x="1676" y="-806.3" font-family="Times,serif" font-size="14.00">aptos_governance</text>
</g>
<!-- option -->
<g id="node2" class="node">
<title>option</title>
<ellipse fill="none" stroke="black" cx="1177" cy="-90" rx="33.29" ry="18"/>
<text text-anchor="middle" x="1177" y="-86.3" font-family="Times,serif" font-size="14.00">option</text>
</g>
<!-- aptos_governance&#45;&gt;option -->
<g id="edge1" class="edge">
<title>aptos_governance&#45;&gt;option</title>
<path fill="none" stroke="black" d="M1750.36,-809.03C1964.4,-808.56 2579.08,-803.02 2774,-756 2863.09,-734.51 2960,-758.64 2960,-667 2960,-667 2960,-667 2960,-305 2960,-124.33 1498.22,-95.39 1221.8,-91.53"/>
<polygon fill="black" stroke="black" points="1222.19,-88.04 1212.15,-91.4 1222.1,-95.04 1222.19,-88.04"/>
</g>
<!-- string -->
<g id="node3" class="node">
<title>string</title>
<ellipse fill="none" stroke="black" cx="258" cy="-162" rx="30.59" ry="18"/>
<text text-anchor="middle" x="258" y="-158.3" font-family="Times,serif" font-size="14.00">string</text>
</g>
<!-- aptos_governance&#45;&gt;string -->
<g id="edge2" class="edge">
<title>aptos_governance&#45;&gt;string</title>
<path fill="none" stroke="black" d="M1601.52,-808.72C1290.56,-807.27 109.04,-798.95 43,-756 6.17,-732.05 0,-710.93 0,-667 0,-667 0,-667 0,-305 0,-207.33 143.66,-176.36 216.58,-166.92"/>
<polygon fill="black" stroke="black" points="216.63,-170.44 226.14,-165.77 215.8,-163.49 216.63,-170.44"/>
</g>
<!-- table -->
<g id="node4" class="node">
<title>table</title>
<ellipse fill="none" stroke="black" cx="428" cy="-306" rx="27.9" ry="18"/>
<text text-anchor="middle" x="428" y="-302.3" font-family="Times,serif" font-size="14.00">table</text>
</g>
<!-- aptos_governance&#45;&gt;table -->
<g id="edge3" class="edge">
<title>aptos_governance&#45;&gt;table</title>
<path fill="none" stroke="black" d="M1601.51,-808.67C1421.05,-807.18 946.38,-799.11 553,-756 322.1,-730.7 38,-899.28 38,-667 38,-667 38,-667 38,-521 38,-428.19 91.48,-407.87 171,-360 239.76,-318.61 335.6,-309.09 388.68,-307.17"/>
<polygon fill="black" stroke="black" points="388.55,-310.68 398.44,-306.9 388.35,-303.68 388.55,-310.68"/>
</g>
<!-- signer -->
<g id="node5" class="node">
<title>signer</title>
<ellipse fill="none" stroke="black" cx="1479" cy="-234" rx="32.49" ry="18"/>
<text text-anchor="middle" x="1479" y="-230.3" font-family="Times,serif" font-size="14.00">signer</text>
</g>
<!-- aptos_governance&#45;&gt;signer -->
<g id="edge4" class="edge">
<title>aptos_governance&#45;&gt;signer</title>
<path fill="none" stroke="black" d="M1676,-791.51C1676,-764.71 1676,-711.87 1676,-667 1676,-667 1676,-667 1676,-593 1676,-497.06 1548.42,-550.83 1500,-468 1461.99,-402.98 1468.02,-309.91 1474.24,-263.53"/>
<polygon fill="black" stroke="black" points="1477.69,-264.17 1475.66,-253.77 1470.76,-263.16 1477.69,-264.17"/>
</g>
<!-- error -->
<g id="node6" class="node">
<title>error</title>
<ellipse fill="none" stroke="black" cx="2138" cy="-234" rx="27.9" ry="18"/>
<text text-anchor="middle" x="2138" y="-230.3" font-family="Times,serif" font-size="14.00">error</text>
</g>
<!-- aptos_governance&#45;&gt;error -->
<g id="edge5" class="edge">
<title>aptos_governance&#45;&gt;error</title>
<path fill="none" stroke="black" d="M1750.21,-808.39C2018.45,-805.2 2922,-785.66 2922,-667 2922,-667 2922,-667 2922,-449 2922,-335.92 2829.69,-330.74 2725,-288 2625.27,-247.28 2292.52,-237.69 2177.51,-235.57"/>
<polygon fill="black" stroke="black" points="2177.71,-232.07 2167.65,-235.4 2177.59,-239.07 2177.71,-232.07"/>
</g>
<!-- system_addresses -->
<g id="node7" class="node">
<title>system_addresses</title>
<ellipse fill="none" stroke="black" cx="2138" cy="-306" rx="73.39" ry="18"/>
<text text-anchor="middle" x="2138" y="-302.3" font-family="Times,serif" font-size="14.00">system_addresses</text>
</g>
<!-- aptos_governance&#45;&gt;system_addresses -->
<g id="edge6" class="edge">
<title>aptos_governance&#45;&gt;system_addresses</title>
<path fill="none" stroke="black" d="M1750.5,-809.1C1927.78,-807.35 2360,-790.4 2360,-667 2360,-667 2360,-667 2360,-593 2360,-472.78 2236.08,-372.55 2173.4,-329.55"/>
<polygon fill="black" stroke="black" points="2175.4,-326.68 2165.16,-323.99 2171.49,-332.48 2175.4,-326.68"/>
</g>
<!-- event -->
<g id="node8" class="node">
<title>event</title>
<ellipse fill="none" stroke="black" cx="1256" cy="-378" rx="29.8" ry="18"/>
<text text-anchor="middle" x="1256" y="-374.3" font-family="Times,serif" font-size="14.00">event</text>
</g>
<!-- aptos_governance&#45;&gt;event -->
<g id="edge7" class="edge">
<title>aptos_governance&#45;&gt;event</title>
<path fill="none" stroke="black" d="M1622.23,-797.24C1536.02,-775.62 1367.06,-721.38 1273,-612 1223.27,-554.17 1237.43,-455.56 1248.45,-407.3"/>
<polygon fill="black" stroke="black" points="1251.84,-408.18 1250.79,-397.64 1245.03,-406.54 1251.84,-408.18"/>
</g>
<!-- account -->
<g id="node9" class="node">
<title>account</title>
<ellipse fill="none" stroke="black" cx="1020" cy="-450" rx="38.19" ry="18"/>
<text text-anchor="middle" x="1020" y="-446.3" font-family="Times,serif" font-size="14.00">account</text>
</g>
<!-- aptos_governance&#45;&gt;account -->
<g id="edge8" class="edge">
<title>aptos_governance&#45;&gt;account</title>
<path fill="none" stroke="black" d="M1601.5,-808.88C1467.91,-807.56 1193.71,-799.44 1110,-756 1063.83,-732.04 1034,-719.02 1034,-667 1034,-667 1034,-667 1034,-593 1034,-553.55 1028.58,-508.23 1024.49,-479.61"/>
<polygon fill="black" stroke="black" points="1027.98,-479.31 1023.05,-469.93 1021.06,-480.34 1027.98,-479.31"/>
</g>
<!-- coin -->
<g id="node10" class="node">
<title>coin</title>
<ellipse fill="none" stroke="black" cx="1324" cy="-522" rx="27" ry="18"/>
<text text-anchor="middle" x="1324" y="-518.3" font-family="Times,serif" font-size="14.00">coin</text>
</g>
<!-- aptos_governance&#45;&gt;coin -->
<g id="edge9" class="edge">
<title>aptos_governance&#45;&gt;coin</title>
<path fill="none" stroke="black" d="M1655.5,-792.42C1613.64,-758.56 1515.36,-679.01 1433,-612 1404.31,-588.66 1371.44,-561.8 1349.36,-543.75"/>
<polygon fill="black" stroke="black" points="1351.73,-541.17 1341.78,-537.55 1347.3,-546.59 1351.73,-541.17"/>
</g>
<!-- aptos_coin -->
<g id="node11" class="node">
<title>aptos_coin</title>
<ellipse fill="none" stroke="black" cx="1599" cy="-594" rx="48.99" ry="18"/>
<text text-anchor="middle" x="1599" y="-590.3" font-family="Times,serif" font-size="14.00">aptos_coin</text>
</g>
<!-- aptos_governance&#45;&gt;aptos_coin -->
<g id="edge10" class="edge">
<title>aptos_governance&#45;&gt;aptos_coin</title>
<path fill="none" stroke="black" d="M1669.83,-791.85C1656.57,-754.99 1625.24,-667.92 1609.06,-622.96"/>
<polygon fill="black" stroke="black" points="1612.39,-621.88 1605.71,-613.66 1605.81,-624.25 1612.39,-621.88"/>
</g>
<!-- timestamp -->
<g id="node12" class="node">
<title>timestamp</title>
<ellipse fill="none" stroke="black" cx="2208" cy="-450" rx="48.19" ry="18"/>
<text text-anchor="middle" x="2208" y="-446.3" font-family="Times,serif" font-size="14.00">timestamp</text>
</g>
<!-- aptos_governance&#45;&gt;timestamp -->
<g id="edge11" class="edge">
<title>aptos_governance&#45;&gt;timestamp</title>
<path fill="none" stroke="black" d="M1749.79,-807.58C1874.03,-804.17 2118.95,-792.87 2196,-756 2246.18,-731.99 2284,-722.63 2284,-667 2284,-667 2284,-667 2284,-593 2284,-547.73 2253.6,-502.92 2231.25,-476.1"/>
<polygon fill="black" stroke="black" points="2233.92,-473.83 2224.74,-468.54 2228.61,-478.4 2233.92,-473.83"/>
</g>
<!-- simple_map -->
<g id="node13" class="node">
<title>simple_map</title>
<ellipse fill="none" stroke="black" cx="683" cy="-378" rx="54.69" ry="18"/>
<text text-anchor="middle" x="683" y="-374.3" font-family="Times,serif" font-size="14.00">simple_map</text>
</g>
<!-- aptos_governance&#45;&gt;simple_map -->
<g id="edge12" class="edge">
<title>aptos_governance&#45;&gt;simple_map</title>
<path fill="none" stroke="black" d="M1602.47,-807.05C1359.83,-799.64 600,-768.34 600,-667 600,-667 600,-667 600,-521 600,-474.82 633.12,-430.32 657.52,-403.8"/>
<polygon fill="black" stroke="black" points="660,-406.28 664.35,-396.62 654.93,-401.45 660,-406.28"/>
</g>
<!-- voting -->
<g id="node14" class="node">
<title>voting</title>
<ellipse fill="none" stroke="black" cx="531" cy="-522" rx="33.29" ry="18"/>
<text text-anchor="middle" x="531" y="-518.3" font-family="Times,serif" font-size="14.00">voting</text>
</g>
<!-- aptos_governance&#45;&gt;voting -->
<g id="edge13" class="edge">
<title>aptos_governance&#45;&gt;voting</title>
<path fill="none" stroke="black" d="M1602.01,-807.83C1363.05,-803.72 625.03,-788.46 586,-756 525.33,-705.54 524.4,-601.78 527.97,-551.53"/>
<polygon fill="black" stroke="black" points="531.44,-552.01 528.78,-541.76 524.46,-551.43 531.44,-552.01"/>
</g>
<!-- staking_config -->
<g id="node15" class="node">
<title>staking_config</title>
<ellipse fill="none" stroke="black" cx="2489" cy="-522" rx="63.09" ry="18"/>
<text text-anchor="middle" x="2489" y="-518.3" font-family="Times,serif" font-size="14.00">staking_config</text>
</g>
<!-- aptos_governance&#45;&gt;staking_config -->
<g id="edge14" class="edge">
<title>aptos_governance&#45;&gt;staking_config</title>
<path fill="none" stroke="black" d="M1749.91,-807.49C1918.96,-803.46 2323.2,-790.31 2374,-756 2445.29,-707.85 2474.19,-602.13 2484.29,-551.34"/>
<polygon fill="black" stroke="black" points="2487.69,-552.2 2486.09,-541.73 2480.81,-550.91 2487.69,-552.2"/>
</g>
<!-- stake -->
<g id="node16" class="node">
<title>stake</title>
<ellipse fill="none" stroke="black" cx="1980" cy="-666" rx="28.7" ry="18"/>
<text text-anchor="middle" x="1980" y="-662.3" font-family="Times,serif" font-size="14.00">stake</text>
</g>
<!-- aptos_governance&#45;&gt;stake -->
<g id="edge15" class="edge">
<title>aptos_governance&#45;&gt;stake</title>
<path fill="none" stroke="black" d="M1709.11,-793.53C1767.78,-766.13 1889.29,-709.37 1947.51,-682.18"/>
<polygon fill="black" stroke="black" points="1948.67,-685.5 1956.25,-678.1 1945.71,-679.16 1948.67,-685.5"/>
</g>
<!-- reconfiguration -->
<g id="node17" class="node">
<title>reconfiguration</title>
<ellipse fill="none" stroke="black" cx="2122" cy="-738" rx="64.99" ry="18"/>
<text text-anchor="middle" x="2122" y="-734.3" font-family="Times,serif" font-size="14.00">reconfiguration</text>
</g>
<!-- aptos_governance&#45;&gt;reconfiguration -->
<g id="edge16" class="edge">
<title>aptos_governance&#45;&gt;reconfiguration</title>
<path fill="none" stroke="black" d="M1737.08,-799.41C1820.42,-786.33 1969.21,-762.98 2055.35,-749.46"/>
<polygon fill="black" stroke="black" points="2055.73,-752.94 2065.07,-747.94 2054.65,-746.03 2055.73,-752.94"/>
</g>
<!-- governance_proposal -->
<g id="node18" class="node">
<title>governance_proposal</title>
<ellipse fill="none" stroke="black" cx="3074" cy="-738" rx="85.59" ry="18"/>
<text text-anchor="middle" x="3074" y="-734.3" font-family="Times,serif" font-size="14.00">governance_proposal</text>
</g>
<!-- aptos_governance&#45;&gt;governance_proposal -->
<g id="edge17" class="edge">
<title>aptos_governance&#45;&gt;governance_proposal</title>
<path fill="none" stroke="black" d="M1750.51,-809.28C1949.63,-809.3 2510.54,-804.66 2974,-756 2982.68,-755.09 2991.75,-753.89 3000.73,-752.56"/>
<polygon fill="black" stroke="black" points="3001.19,-756.03 3010.53,-751.03 3000.11,-749.11 3001.19,-756.03"/>
</g>
<!-- vector -->
<g id="node19" class="node">
<title>vector</title>
<ellipse fill="none" stroke="black" cx="1177" cy="-18" rx="32.49" ry="18"/>
<text text-anchor="middle" x="1177" y="-14.3" font-family="Times,serif" font-size="14.00">vector</text>
</g>
<!-- option&#45;&gt;vector -->
<g id="edge18" class="edge">
<title>option&#45;&gt;vector</title>
<path fill="none" stroke="black" d="M1177,-71.7C1177,-64.41 1177,-55.73 1177,-47.54"/>
<polygon fill="black" stroke="black" points="1180.5,-47.62 1177,-37.62 1173.5,-47.62 1180.5,-47.62"/>
</g>
<!-- string&#45;&gt;option -->
<g id="edge20" class="edge">
<title>string&#45;&gt;option</title>
<path fill="none" stroke="black" d="M288.58,-158.67C424.24,-148.34 972.13,-106.6 1132.62,-94.38"/>
<polygon fill="black" stroke="black" points="1132.71,-97.88 1142.42,-93.63 1132.18,-90.9 1132.71,-97.88"/>
</g>
<!-- string&#45;&gt;vector -->
<g id="edge19" class="edge">
<title>string&#45;&gt;vector</title>
<path fill="none" stroke="black" d="M281.52,-150.26C325.14,-130.88 421.95,-90.39 508,-72 739.45,-22.54 1024.82,-18.2 1132.81,-18.52"/>
<polygon fill="black" stroke="black" points="1132.66,-22.02 1142.68,-18.57 1132.69,-15.02 1132.66,-22.02"/>
</g>
<!-- system_addresses&#45;&gt;signer -->
<g id="edge21" class="edge">
<title>system_addresses&#45;&gt;signer</title>
<path fill="none" stroke="black" d="M2076.71,-295.8C2057.9,-293.12 2037.12,-290.29 2018,-288 1834.2,-265.96 1614.33,-246.47 1522.57,-238.65"/>
<polygon fill="black" stroke="black" points="1523.02,-235.17 1512.76,-237.82 1522.43,-242.15 1523.02,-235.17"/>
</g>
<!-- system_addresses&#45;&gt;error -->
<g id="edge22" class="edge">
<title>system_addresses&#45;&gt;error</title>
<path fill="none" stroke="black" d="M2138,-287.7C2138,-280.41 2138,-271.73 2138,-263.54"/>
<polygon fill="black" stroke="black" points="2141.5,-263.62 2138,-253.62 2134.5,-263.62 2141.5,-263.62"/>
</g>
<!-- bcs -->
<g id="node20" class="node">
<title>bcs</title>
<ellipse fill="none" stroke="black" cx="775" cy="-234" rx="27" ry="18"/>
<text text-anchor="middle" x="775" y="-230.3" font-family="Times,serif" font-size="14.00">bcs</text>
</g>
<!-- event&#45;&gt;bcs -->
<g id="edge23" class="edge">
<title>event&#45;&gt;bcs</title>
<path fill="none" stroke="black" d="M1260.81,-360.08C1265.36,-340.08 1269.09,-307.11 1251,-288 1247.23,-284.01 925.4,-250.5 813.12,-238.92"/>
<polygon fill="black" stroke="black" points="813.52,-235.44 803.22,-237.9 812.8,-242.4 813.52,-235.44"/>
</g>
<!-- guid -->
<g id="node21" class="node">
<title>guid</title>
<ellipse fill="none" stroke="black" cx="1215" cy="-306" rx="27" ry="18"/>
<text text-anchor="middle" x="1215" y="-302.3" font-family="Times,serif" font-size="14.00">guid</text>
</g>
<!-- event&#45;&gt;guid -->
<g id="edge24" class="edge">
<title>event&#45;&gt;guid</title>
<path fill="none" stroke="black" d="M1246.49,-360.76C1241.63,-352.46 1235.59,-342.15 1230.11,-332.79"/>
<polygon fill="black" stroke="black" points="1233.3,-331.31 1225.22,-324.45 1227.26,-334.85 1233.3,-331.31"/>
</g>
<!-- account&#45;&gt;option -->
<g id="edge26" class="edge">
<title>account&#45;&gt;option</title>
<path fill="none" stroke="black" d="M1025.26,-431.7C1032.86,-405.14 1046,-352.61 1046,-307 1046,-307 1046,-307 1046,-233 1046,-175.58 1104.59,-131.45 1143.4,-108.52"/>
<polygon fill="black" stroke="black" points="1145.01,-111.63 1151.96,-103.63 1141.54,-105.55 1145.01,-111.63"/>
</g>
<!-- account&#45;&gt;table -->
<g id="edge28" class="edge">
<title>account&#45;&gt;table</title>
<path fill="none" stroke="black" d="M982.06,-447.28C884.5,-442.47 627.03,-427.11 548,-396 509.86,-380.99 473.08,-350.6 450.52,-329.53"/>
<polygon fill="black" stroke="black" points="453.06,-327.12 443.41,-322.74 448.22,-332.18 453.06,-327.12"/>
</g>
<!-- account&#45;&gt;signer -->
<g id="edge29" class="edge">
<title>account&#45;&gt;signer</title>
<path fill="none" stroke="black" d="M1033.47,-432.84C1064.94,-395.53 1143.29,-305.29 1179,-288 1263.13,-247.28 1374.07,-237.52 1434.71,-235.39"/>
<polygon fill="black" stroke="black" points="1434.74,-238.89 1444.63,-235.1 1434.53,-231.89 1434.74,-238.89"/>
</g>
<!-- account&#45;&gt;error -->
<g id="edge30" class="edge">
<title>account&#45;&gt;error</title>
<path fill="none" stroke="black" d="M1058.14,-448.24C1202.29,-445.1 1708.84,-431.61 1771,-396 1821.49,-367.07 1796.15,-319.62 1845,-288 1886.43,-261.18 2029.07,-244.88 2098.89,-238.33"/>
<polygon fill="black" stroke="black" points="2099.09,-241.83 2108.73,-237.43 2098.45,-234.86 2099.09,-241.83"/>
</g>
<!-- account&#45;&gt;system_addresses -->
<g id="edge31" class="edge">
<title>account&#45;&gt;system_addresses</title>
<path fill="none" stroke="black" d="M1046.66,-436.8C1099.43,-412.67 1212.53,-361.07 1217,-360 1390.3,-318.58 1840.59,-340.52 2018,-324 2033.92,-322.52 2050.95,-320.42 2067.04,-318.2"/>
<polygon fill="black" stroke="black" points="2067.1,-321.73 2076.51,-316.86 2066.12,-314.8 2067.1,-321.73"/>
</g>
<!-- account&#45;&gt;event -->
<g id="edge38" class="edge">
<title>account&#45;&gt;event</title>
<path fill="none" stroke="black" d="M1051.83,-439.56C1095.21,-426.69 1172.75,-403.69 1218.77,-390.04"/>
<polygon fill="black" stroke="black" points="1219.71,-393.41 1228.3,-387.22 1217.72,-386.7 1219.71,-393.41"/>
</g>
<!-- account&#45;&gt;vector -->
<g id="edge25" class="edge">
<title>account&#45;&gt;vector</title>
<path fill="none" stroke="black" d="M981.59,-448.1C893.17,-445.37 678.25,-434.82 619,-396 584.06,-373.11 522,-276.77 522,-235 522,-235 522,-235 522,-161 522,-35.67 985.79,-20.72 1132.84,-19.13"/>
<polygon fill="black" stroke="black" points="1132.59,-22.63 1142.56,-19.04 1132.52,-15.63 1132.59,-22.63"/>
</g>
<!-- account&#45;&gt;bcs -->
<g id="edge33" class="edge">
<title>account&#45;&gt;bcs</title>
<path fill="none" stroke="black" d="M982.22,-446.36C941.53,-441.81 876.63,-429.47 832,-396 790.37,-364.78 779.03,-300.69 776.01,-263.48"/>
<polygon fill="black" stroke="black" points="779.53,-263.68 775.4,-253.93 772.55,-264.13 779.53,-263.68"/>
</g>
<!-- account&#45;&gt;guid -->
<g id="edge36" class="edge">
<title>account&#45;&gt;guid</title>
<path fill="none" stroke="black" d="M1041.4,-434.91C1057.19,-424.4 1079.13,-409.58 1098,-396 1115.31,-383.55 1159.88,-349.43 1188.74,-327.24"/>
<polygon fill="black" stroke="black" points="1190.87,-330.01 1196.66,-321.14 1186.6,-324.46 1190.87,-330.01"/>
</g>
<!-- type_info -->
<g id="node22" class="node">
<title>type_info</title>
<ellipse fill="none" stroke="black" cx="406" cy="-234" rx="44.39" ry="18"/>
<text text-anchor="middle" x="406" y="-230.3" font-family="Times,serif" font-size="14.00">type_info</text>
</g>
<!-- account&#45;&gt;type_info -->
<g id="edge27" class="edge">
<title>account&#45;&gt;type_info</title>
<path fill="none" stroke="black" d="M981.94,-447.27C889.67,-442.61 656.43,-427.93 586,-396 584.84,-395.47 481.72,-302.97 432.1,-258.44"/>
<polygon fill="black" stroke="black" points="434.68,-256.05 424.9,-251.97 430.01,-261.26 434.68,-256.05"/>
</g>
<!-- hash -->
<g id="node23" class="node">
<title>hash</title>
<ellipse fill="none" stroke="black" cx="987" cy="-234" rx="27" ry="18"/>
<text text-anchor="middle" x="987" y="-230.3" font-family="Times,serif" font-size="14.00">hash</text>
</g>
<!-- account&#45;&gt;hash -->
<g id="edge32" class="edge">
<title>account&#45;&gt;hash</title>
<path fill="none" stroke="black" d="M1017.36,-431.85C1011.7,-395.14 998.36,-308.66 991.4,-263.53"/>
<polygon fill="black" stroke="black" points="994.87,-263.08 989.89,-253.73 987.95,-264.14 994.87,-263.08"/>
</g>
<!-- ed25519 -->
<g id="node24" class="node">
<title>ed25519</title>
<ellipse fill="none" stroke="black" cx="863" cy="-306" rx="40.89" ry="18"/>
<text text-anchor="middle" x="863" y="-302.3" font-family="Times,serif" font-size="14.00">ed25519</text>
</g>
<!-- account&#45;&gt;ed25519 -->
<g id="edge34" class="edge">
<title>account&#45;&gt;ed25519</title>
<path fill="none" stroke="black" d="M984.28,-443.41C937.64,-435.3 859.9,-418.71 843,-396 829.66,-378.08 837.1,-352.88 846.46,-333.86"/>
<polygon fill="black" stroke="black" points="849.53,-335.55 851.19,-325.09 843.37,-332.24 849.53,-335.55"/>
</g>
<!-- multi_ed25519 -->
<g id="node25" class="node">
<title>multi_ed25519</title>
<ellipse fill="none" stroke="black" cx="916" cy="-378" rx="64.19" ry="18"/>
<text text-anchor="middle" x="916" y="-374.3" font-family="Times,serif" font-size="14.00">multi_ed25519</text>
</g>
<!-- account&#45;&gt;multi_ed25519 -->
<g id="edge35" class="edge">
<title>account&#45;&gt;multi_ed25519</title>
<path fill="none" stroke="black" d="M998.7,-434.67C984.4,-425.04 965.26,-412.15 949,-401.21"/>
<polygon fill="black" stroke="black" points="951.32,-398.55 941.07,-395.87 947.41,-404.36 951.32,-398.55"/>
</g>
<!-- from_bcs -->
<g id="node26" class="node">
<title>from_bcs</title>
<ellipse fill="none" stroke="black" cx="224" cy="-378" rx="44.39" ry="18"/>
<text text-anchor="middle" x="224" y="-374.3" font-family="Times,serif" font-size="14.00">from_bcs</text>
</g>
<!-- account&#45;&gt;from_bcs -->
<g id="edge37" class="edge">
<title>account&#45;&gt;from_bcs</title>
<path fill="none" stroke="black" d="M982.41,-445.69C853.56,-434.36 429.4,-397.06 278.16,-383.76"/>
<polygon fill="black" stroke="black" points="278.68,-380.3 268.41,-382.91 278.07,-387.27 278.68,-380.3"/>
</g>
<!-- coin&#45;&gt;option -->
<g id="edge39" class="edge">
<title>coin&#45;&gt;option</title>
<path fill="none" stroke="black" d="M1321.74,-503.91C1317.66,-474.31 1308.21,-411.73 1295,-360 1271.18,-266.71 1218.32,-164.72 1192.2,-117.6"/>
<polygon fill="black" stroke="black" points="1195.29,-115.95 1187.35,-108.93 1189.18,-119.37 1195.29,-115.95"/>
</g>
<!-- coin&#45;&gt;string -->
<g id="edge40" class="edge">
<title>coin&#45;&gt;string</title>
<path fill="none" stroke="black" d="M1296.54,-521.58C1201.07,-523.06 875.17,-523.46 614,-468 521.18,-448.29 487.74,-454.47 413,-396 340.38,-339.18 290.24,-238.55 269.17,-190.3"/>
<polygon fill="black" stroke="black" points="272.41,-188.96 265.26,-181.14 265.97,-191.71 272.41,-188.96"/>
</g>
<!-- coin&#45;&gt;signer -->
<g id="edge42" class="edge">
<title>coin&#45;&gt;signer</title>
<path fill="none" stroke="black" d="M1332.16,-504.39C1351.21,-465.87 1400.43,-367.66 1446,-288 1451.18,-278.94 1457.14,-269.19 1462.55,-260.56"/>
<polygon fill="black" stroke="black" points="1465.37,-262.65 1467.76,-252.33 1459.46,-258.9 1465.37,-262.65"/>
</g>
<!-- coin&#45;&gt;error -->
<g id="edge43" class="edge">
<title>coin&#45;&gt;error</title>
<path fill="none" stroke="black" d="M1350.86,-519.27C1450.7,-512.7 1797.07,-488.62 1842,-468 1863.14,-458.3 1862.38,-447.19 1880,-432 1939,-381.16 1959,-374.84 2018,-324 2035.62,-308.81 2037.71,-302.38 2056,-288 2072.56,-274.99 2092.35,-262.13 2108.34,-252.33"/>
<polygon fill="black" stroke="black" points="2109.7,-255.6 2116.45,-247.44 2106.08,-249.61 2109.7,-255.6"/>
</g>
<!-- coin&#45;&gt;system_addresses -->
<g id="edge44" class="edge">
<title>coin&#45;&gt;system_addresses</title>
<path fill="none" stroke="black" d="M1350.94,-519.29C1455.39,-512.56 1830.26,-487.25 1880,-468 1904.87,-458.38 1905.57,-446.42 1928,-432 1956.1,-413.93 1965.9,-414.07 1994,-396 2016.43,-381.58 2019.61,-374.48 2042,-360 2059.64,-348.59 2079.91,-337.17 2097.26,-327.87"/>
<polygon fill="black" stroke="black" points="2098.57,-331.14 2105.77,-323.36 2095.29,-324.96 2098.57,-331.14"/>
</g>
<!-- coin&#45;&gt;event -->
<g id="edge45" class="edge">
<title>coin&#45;&gt;event</title>
<path fill="none" stroke="black" d="M1316.07,-504.43C1304.45,-480.17 1282.68,-434.71 1268.79,-405.7"/>
<polygon fill="black" stroke="black" points="1272.01,-404.33 1264.54,-396.83 1265.7,-407.36 1272.01,-404.33"/>
</g>
<!-- coin&#45;&gt;account -->
<g id="edge46" class="edge">
<title>coin&#45;&gt;account</title>
<path fill="none" stroke="black" d="M1298.6,-515.15C1247.04,-503.28 1129.51,-476.22 1064.8,-461.32"/>
<polygon fill="black" stroke="black" points="1065.74,-457.94 1055.21,-459.11 1064.17,-464.76 1065.74,-457.94"/>
</g>
<!-- coin&#45;&gt;type_info -->
<g id="edge41" class="edge">
<title>coin&#45;&gt;type_info</title>
<path fill="none" stroke="black" d="M1297.2,-518.82C1171.24,-508.32 637.72,-460.71 485,-396 436.54,-375.47 414.3,-371.19 391,-324 381.52,-304.8 386.44,-280.74 393.08,-262.48"/>
<polygon fill="black" stroke="black" points="396.26,-263.94 396.76,-253.36 389.77,-261.32 396.26,-263.94"/>
</g>
<!-- optional_aggregator -->
<g id="node27" class="node">
<title>optional_aggregator</title>
<ellipse fill="none" stroke="black" cx="1613" cy="-450" rx="81.49" ry="18"/>
<text text-anchor="middle" x="1613" y="-446.3" font-family="Times,serif" font-size="14.00">optional_aggregator</text>
</g>
<!-- coin&#45;&gt;optional_aggregator -->
<g id="edge47" class="edge">
<title>coin&#45;&gt;optional_aggregator</title>
<path fill="none" stroke="black" d="M1349.14,-514.91C1393.19,-504.24 1485.6,-481.86 1548.49,-466.63"/>
<polygon fill="black" stroke="black" points="1549.12,-470.07 1558.01,-464.32 1547.47,-463.27 1549.12,-470.07"/>
</g>
<!-- aptos_coin&#45;&gt;option -->
<g id="edge49" class="edge">
<title>aptos_coin&#45;&gt;option</title>
<path fill="none" stroke="black" d="M1558.89,-583.26C1532,-575.16 1497.05,-561.44 1472,-540 1315.12,-405.73 1356.12,-306.73 1229,-144 1220.74,-133.42 1210.59,-122.68 1201.47,-113.66"/>
<polygon fill="black" stroke="black" points="1204.16,-111.4 1194.54,-106.96 1199.3,-116.43 1204.16,-111.4"/>
</g>
<!-- aptos_coin&#45;&gt;string -->
<g id="edge50" class="edge">
<title>aptos_coin&#45;&gt;string</title>
<path fill="none" stroke="black" d="M1549.83,-593.2C1393.89,-593.28 896.72,-589.35 489,-540 302.59,-517.44 76,-638.77 76,-451 76,-451 76,-451 76,-305 76,-259.19 93.39,-246.02 128,-216 153.89,-193.54 190.56,-179.76 218.36,-171.91"/>
<polygon fill="black" stroke="black" points="219.07,-175.34 227.83,-169.38 217.27,-168.58 219.07,-175.34"/>
</g>
<!-- aptos_coin&#45;&gt;signer -->
<g id="edge51" class="edge">
<title>aptos_coin&#45;&gt;signer</title>
<path fill="none" stroke="black" d="M1570.64,-578.86C1535.24,-559.42 1476.39,-520.76 1452,-468 1420.18,-399.17 1448.94,-307.19 1466.98,-262.16"/>
<polygon fill="black" stroke="black" points="1470.11,-263.74 1470.71,-253.16 1463.65,-261.05 1470.11,-263.74"/>
</g>
<!-- aptos_coin&#45;&gt;error -->
<g id="edge52" class="edge">
<title>aptos_coin&#45;&gt;error</title>
<path fill="none" stroke="black" d="M1647.3,-590.11C1771.02,-579.72 2098.13,-532.78 2220,-324 2228.07,-310.18 2227.65,-302.05 2220,-288 2209.84,-269.33 2189.96,-256.24 2172.32,-247.73"/>
<polygon fill="black" stroke="black" points="2174.22,-244.75 2163.66,-243.87 2171.37,-251.14 2174.22,-244.75"/>
</g>
<!-- aptos_coin&#45;&gt;system_addresses -->
<g id="edge53" class="edge">
<title>aptos_coin&#45;&gt;system_addresses</title>
<path fill="none" stroke="black" d="M1598.56,-575.63C1599.07,-555.19 1603.3,-521.77 1624,-504 1673.94,-461.13 1856,-490.11 1918,-468 1974.44,-447.87 1983.61,-431.35 2032,-396 2060.01,-375.54 2090.14,-349.85 2111.09,-331.34"/>
<polygon fill="black" stroke="black" points="2113.2,-334.15 2118.35,-324.88 2108.55,-328.92 2113.2,-334.15"/>
</g>
<!-- aptos_coin&#45;&gt;coin -->
<g id="edge54" class="edge">
<title>aptos_coin&#45;&gt;coin</title>
<path fill="none" stroke="black" d="M1557.22,-584.15C1512.22,-574.37 1438.62,-557.65 1376,-540 1370.32,-538.4 1364.33,-536.57 1358.52,-534.73"/>
<polygon fill="black" stroke="black" points="1359.72,-531.44 1349.13,-531.67 1357.55,-538.09 1359.72,-531.44"/>
</g>
<!-- aptos_coin&#45;&gt;vector -->
<g id="edge48" class="edge">
<title>aptos_coin&#45;&gt;vector</title>
<path fill="none" stroke="black" d="M1647.27,-589.97C1781.8,-580.71 2171.65,-548.41 2485,-468 2579.08,-443.86 2719.08,-446.56 2675,-360 2536.85,-88.71 1453.92,-30.1 1221.03,-20.59"/>
<polygon fill="black" stroke="black" points="1221.3,-17.09 1211.17,-20.19 1221.02,-24.09 1221.3,-17.09"/>
</g>
<!-- timestamp&#45;&gt;error -->
<g id="edge55" class="edge">
<title>timestamp&#45;&gt;error</title>
<path fill="none" stroke="black" d="M2220.66,-432.64C2242.71,-402.03 2283.05,-334.93 2253,-288 2236.15,-261.68 2202.54,-248.24 2175.99,-241.5"/>
<polygon fill="black" stroke="black" points="2177.11,-238.17 2166.58,-239.34 2175.55,-244.99 2177.11,-238.17"/>
</g>
<!-- timestamp&#45;&gt;system_addresses -->
<g id="edge56" class="edge">
<title>timestamp&#45;&gt;system_addresses</title>
<path fill="none" stroke="black" d="M2199.56,-431.87C2187.63,-407.67 2165.71,-363.21 2151.5,-334.39"/>
<polygon fill="black" stroke="black" points="2154.7,-332.97 2147.14,-325.55 2148.43,-336.06 2154.7,-332.97"/>
</g>
<!-- simple_map&#45;&gt;option -->
<g id="edge57" class="edge">
<title>simple_map&#45;&gt;option</title>
<path fill="none" stroke="black" d="M654.74,-362.36C640.61,-353.38 624.88,-340.43 617,-324 610.08,-309.57 609.07,-301.89 617,-288 684.44,-169.9 757.77,-186.36 887,-144 971.63,-116.26 1075.2,-101.74 1132.86,-95.29"/>
<polygon fill="black" stroke="black" points="1133.03,-98.79 1142.6,-94.23 1132.28,-91.83 1133.03,-98.79"/>
</g>
<!-- simple_map&#45;&gt;error -->
<g id="edge58" class="edge">
<title>simple_map&#45;&gt;error</title>
<path fill="none" stroke="black" d="M725.77,-366.5C805.76,-347.32 983.68,-306.9 1136,-288 1508.54,-241.79 1963.9,-235.82 2098.67,-235.09"/>
<polygon fill="black" stroke="black" points="2098.48,-238.59 2108.47,-235.04 2098.45,-231.59 2098.48,-238.59"/>
</g>
<!-- comparator -->
<g id="node28" class="node">
<title>comparator</title>
<ellipse fill="none" stroke="black" cx="677" cy="-306" rx="51.19" ry="18"/>
<text text-anchor="middle" x="677" y="-302.3" font-family="Times,serif" font-size="14.00">comparator</text>
</g>
<!-- simple_map&#45;&gt;comparator -->
<g id="edge59" class="edge">
<title>simple_map&#45;&gt;comparator</title>
<path fill="none" stroke="black" d="M681.52,-359.7C680.89,-352.41 680.15,-343.73 679.45,-335.54"/>
<polygon fill="black" stroke="black" points="682.94,-335.28 678.6,-325.61 675.96,-335.87 682.94,-335.28"/>
</g>
<!-- voting&#45;&gt;option -->
<g id="edge60" class="edge">
<title>voting&#45;&gt;option</title>
<path fill="none" stroke="black" d="M502.79,-511.99C478.93,-503.39 444.76,-488.66 420,-468 331.02,-393.75 277.51,-303.94 353,-216 455.17,-96.97 975.37,-89.9 1132.19,-90.52"/>
<polygon fill="black" stroke="black" points="1131.74,-94.02 1141.76,-90.58 1131.78,-87.02 1131.74,-94.02"/>
</g>
<!-- voting&#45;&gt;string -->
<g id="edge61" class="edge">
<title>voting&#45;&gt;string</title>
<path fill="none" stroke="black" d="M497.51,-520.02C416.94,-517.08 214.98,-506.02 161,-468 124.43,-442.24 114,-423.73 114,-379 114,-379 114,-379 114,-305 114,-243.66 181.06,-199.91 223.65,-178.31"/>
<polygon fill="black" stroke="black" points="225.09,-181.5 232.54,-173.96 222.02,-175.21 225.09,-181.5"/>
</g>
<!-- voting&#45;&gt;table -->
<g id="edge63" class="edge">
<title>voting&#45;&gt;table</title>
<path fill="none" stroke="black" d="M522.92,-504.21C505.13,-467.25 462.47,-378.61 440.92,-333.84"/>
<polygon fill="black" stroke="black" points="444.19,-332.57 436.7,-325.08 437.88,-335.61 444.19,-332.57"/>
</g>
<!-- voting&#45;&gt;signer -->
<g id="edge64" class="edge">
<title>voting&#45;&gt;signer</title>
<path fill="none" stroke="black" d="M564.47,-520.78C667.48,-519.62 978.14,-512.44 1067,-468 1086.41,-458.29 1083.26,-445.82 1100,-432 1210.18,-341.02 1369.22,-275.39 1441.14,-248.49"/>
<polygon fill="black" stroke="black" points="1442.33,-251.78 1450.5,-245.03 1439.91,-245.22 1442.33,-251.78"/>
</g>
<!-- voting&#45;&gt;error -->
<g id="edge65" class="edge">
<title>voting&#45;&gt;error</title>
<path fill="none" stroke="black" d="M564.5,-520.4C744.29,-517.04 1590.97,-499.67 1703,-468 1766.56,-450.03 1783.19,-439.38 1833,-396 1878.24,-356.59 1863.81,-320.87 1914,-288 1970.86,-250.76 2051.05,-239.61 2098.46,-236.32"/>
<polygon fill="black" stroke="black" points="2098.49,-239.82 2108.26,-235.73 2098.07,-232.84 2098.49,-239.82"/>
</g>
<!-- voting&#45;&gt;event -->
<g id="edge68" class="edge">
<title>voting&#45;&gt;event</title>
<path fill="none" stroke="black" d="M564.3,-520.26C670.66,-517.55 1001.07,-506.16 1100,-468 1124.88,-458.4 1125.26,-445.94 1148,-432 1171.76,-417.43 1200.1,-403.65 1221.79,-393.79"/>
<polygon fill="black" stroke="black" points="1223.08,-397.05 1230.77,-389.77 1220.21,-390.66 1223.08,-397.05"/>
</g>
<!-- voting&#45;&gt;account -->
<g id="edge69" class="edge">
<title>voting&#45;&gt;account</title>
<path fill="none" stroke="black" d="M563.08,-516.41C647.09,-504.38 873.79,-471.93 972.73,-457.77"/>
<polygon fill="black" stroke="black" points="972.97,-461.27 982.37,-456.39 971.98,-454.34 972.97,-461.27"/>
</g>
<!-- voting&#45;&gt;timestamp -->
<g id="edge71" class="edge">
<title>voting&#45;&gt;timestamp</title>
<path fill="none" stroke="black" d="M564.43,-519.72C713.6,-514.01 1333.37,-490.09 1842,-468 1950.43,-463.29 2076.91,-457.31 2149.21,-453.84"/>
<polygon fill="black" stroke="black" points="2149,-457.35 2158.82,-453.38 2148.67,-450.36 2149,-457.35"/>
</g>
<!-- voting&#45;&gt;simple_map -->
<g id="edge72" class="edge">
<title>voting&#45;&gt;simple_map</title>
<path fill="none" stroke="black" d="M538.18,-504.12C547.09,-484.76 563.85,-452.99 586,-432 601.14,-417.65 620.9,-405.94 638.64,-397.2"/>
<polygon fill="black" stroke="black" points="639.88,-400.49 647.43,-393.05 636.89,-394.16 639.88,-400.49"/>
</g>
<!-- voting&#45;&gt;bcs -->
<g id="edge66" class="edge">
<title>voting&#45;&gt;bcs</title>
<path fill="none" stroke="black" d="M532.14,-503.73C535.95,-460.63 551.94,-347.52 617,-288 650.37,-257.47 701.9,-244.46 736.97,-238.96"/>
<polygon fill="black" stroke="black" points="737.28,-242.45 746.69,-237.58 736.29,-235.52 737.28,-242.45"/>
</g>
<!-- voting&#45;&gt;type_info -->
<g id="edge62" class="edge">
<title>voting&#45;&gt;type_info</title>
<path fill="none" stroke="black" d="M510.17,-507.67C469.01,-479.72 379.4,-410.38 358,-324 354.15,-308.47 352.24,-302.93 358,-288 362.29,-276.88 370.11,-266.65 378.21,-258.2"/>
<polygon fill="black" stroke="black" points="380.45,-260.9 385.2,-251.43 375.58,-255.87 380.45,-260.9"/>
</g>
<!-- voting&#45;&gt;from_bcs -->
<g id="edge67" class="edge">
<title>voting&#45;&gt;from_bcs</title>
<path fill="none" stroke="black" d="M497.39,-521.37C416.21,-521.46 213.06,-516.71 171,-468 153.41,-447.63 174.49,-420.67 195.04,-401.78"/>
<polygon fill="black" stroke="black" points="197.33,-404.43 202.56,-395.22 192.73,-399.16 197.33,-404.43"/>
</g>
<!-- transaction_context -->
<g id="node29" class="node">
<title>transaction_context</title>
<ellipse fill="none" stroke="black" cx="259" cy="-450" rx="79.09" ry="18"/>
<text text-anchor="middle" x="259" y="-446.3" font-family="Times,serif" font-size="14.00">transaction_context</text>
</g>
<!-- voting&#45;&gt;transaction_context -->
<g id="edge70" class="edge">
<title>voting&#45;&gt;transaction_context</title>
<path fill="none" stroke="black" d="M501.37,-513.38C458.32,-502.3 377.47,-481.49 321.04,-466.97"/>
<polygon fill="black" stroke="black" points="322.12,-463.63 311.56,-464.53 320.37,-470.41 322.12,-463.63"/>
</g>
<!-- staking_config&#45;&gt;error -->
<g id="edge73" class="edge">
<title>staking_config&#45;&gt;error</title>
<path fill="none" stroke="black" d="M2529.63,-507.91C2594.67,-484.56 2711.34,-431.36 2675,-360 2650.31,-311.52 2626.63,-307.91 2576,-288 2503.7,-259.57 2270.95,-242.92 2177.44,-237.23"/>
<polygon fill="black" stroke="black" points="2177.67,-233.74 2167.48,-236.63 2177.25,-240.72 2177.67,-233.74"/>
</g>
<!-- staking_config&#45;&gt;system_addresses -->
<g id="edge74" class="edge">
<title>staking_config&#45;&gt;system_addresses</title>
<path fill="none" stroke="black" d="M2447.1,-508.26C2421.48,-499.32 2388.79,-485.78 2363,-468 2308.39,-430.35 2314.39,-397.97 2260,-360 2239.25,-345.52 2213.92,-333.72 2191.72,-324.97"/>
<polygon fill="black" stroke="black" points="2193.11,-321.75 2182.52,-321.46 2190.62,-328.29 2193.11,-321.75"/>
</g>
<!-- stake&#45;&gt;option -->
<g id="edge76" class="edge">
<title>stake&#45;&gt;option</title>
<path fill="none" stroke="black" d="M2009.11,-665.1C2155.83,-664.31 2802.79,-644.81 2692,-360 2521.33,78.76 2122.17,-202.23 1655,-144 1495.52,-124.12 1305.62,-104.17 1221.21,-95.5"/>
<polygon fill="black" stroke="black" points="1221.59,-92.02 1211.29,-94.48 1220.88,-98.98 1221.59,-92.02"/>
</g>
<!-- stake&#45;&gt;signer -->
<g id="edge77" class="edge">
<title>stake&#45;&gt;signer</title>
<path fill="none" stroke="black" d="M1956.69,-654.96C1933.59,-644.81 1897.35,-628.31 1867,-612 1785.83,-568.37 1775.58,-538.19 1690,-504 1619.49,-475.83 1572.48,-525.59 1523,-468 1470.77,-407.21 1536.37,-364.35 1512,-288 1508.87,-278.2 1503.53,-268.39 1498.05,-259.91"/>
<polygon fill="black" stroke="black" points="1501.08,-258.15 1492.52,-251.91 1495.32,-262.13 1501.08,-258.15"/>
</g>
<!-- stake&#45;&gt;error -->
<g id="edge78" class="edge">
<title>stake&#45;&gt;error</title>
<path fill="none" stroke="black" d="M2008.91,-664.35C2115.15,-661.66 2483.52,-649.77 2594,-612 2663.06,-588.39 2732,-595.98 2732,-523 2732,-523 2732,-523 2732,-377 2732,-315.48 2682.58,-312.14 2626,-288 2545.23,-253.54 2278.24,-240.21 2177.2,-236.33"/>
<polygon fill="black" stroke="black" points="2177.64,-232.84 2167.52,-235.97 2177.38,-239.84 2177.64,-232.84"/>
</g>
<!-- stake&#45;&gt;system_addresses -->
<g id="edge79" class="edge">
<title>stake&#45;&gt;system_addresses</title>
<path fill="none" stroke="black" d="M2000.12,-652.67C2032.85,-630.9 2094,-582.28 2094,-523 2094,-523 2094,-523 2094,-449 2094,-407.53 2111.33,-362.18 2124.24,-334.16"/>
<polygon fill="black" stroke="black" points="2127.3,-335.86 2128.45,-325.33 2120.99,-332.85 2127.3,-335.86"/>
</g>
<!-- stake&#45;&gt;event -->
<g id="edge80" class="edge">
<title>stake&#45;&gt;event</title>
<path fill="none" stroke="black" d="M1951.37,-663.6C1853.38,-658.59 1532.07,-640.35 1433,-612 1363.83,-592.2 1331.72,-597.15 1288,-540 1258.34,-501.23 1254.04,-442.25 1254.45,-407.48"/>
<polygon fill="black" stroke="black" points="1257.94,-407.86 1254.71,-397.77 1250.94,-407.67 1257.94,-407.86"/>
</g>
<!-- stake&#45;&gt;account -->
<g id="edge81" class="edge">
<title>stake&#45;&gt;account</title>
<path fill="none" stroke="black" d="M1951.09,-665.4C1829.41,-666.72 1359.05,-668.03 1224,-612 1156.5,-583.99 1158.14,-548.28 1100,-504 1084.67,-492.33 1066.86,-480.38 1051.94,-470.79"/>
<polygon fill="black" stroke="black" points="1054.21,-468.09 1043.89,-465.67 1050.45,-473.99 1054.21,-468.09"/>
</g>
<!-- stake&#45;&gt;coin -->
<g id="edge82" class="edge">
<title>stake&#45;&gt;coin</title>
<path fill="none" stroke="black" d="M1951,-664.18C1879.95,-661.61 1692,-651.31 1541,-612 1472.27,-594.11 1396.47,-559.28 1355.13,-538.9"/>
<polygon fill="black" stroke="black" points="1356.77,-535.81 1346.26,-534.48 1353.65,-542.08 1356.77,-535.81"/>
</g>
<!-- stake&#45;&gt;aptos_coin -->
<g id="edge83" class="edge">
<title>stake&#45;&gt;aptos_coin</title>
<path fill="none" stroke="black" d="M1952.6,-659.97C1890.1,-648.48 1736.07,-620.18 1653.44,-605"/>
<polygon fill="black" stroke="black" points="1654.23,-601.59 1643.76,-603.22 1652.97,-608.47 1654.23,-601.59"/>
</g>
<!-- stake&#45;&gt;timestamp -->
<g id="edge84" class="edge">
<title>stake&#45;&gt;timestamp</title>
<path fill="none" stroke="black" d="M2006.83,-659.08C2034.66,-651.83 2078.2,-637.29 2108,-612 2151.69,-574.92 2182.21,-513.78 2197.27,-478.48"/>
<polygon fill="black" stroke="black" points="2200.44,-479.96 2201.03,-469.38 2193.97,-477.29 2200.44,-479.96"/>
</g>
<!-- stake&#45;&gt;staking_config -->
<g id="edge85" class="edge">
<title>stake&#45;&gt;staking_config</title>
<path fill="none" stroke="black" d="M2005.94,-657.76C2085.09,-635.68 2324.7,-568.84 2433.81,-538.4"/>
<polygon fill="black" stroke="black" points="2434.75,-541.77 2443.44,-535.71 2432.86,-535.03 2434.75,-541.77"/>
</g>
<!-- stake&#45;&gt;vector -->
<g id="edge75" class="edge">
<title>stake&#45;&gt;vector</title>
<path fill="none" stroke="black" d="M2008.79,-665.16C2122.78,-665.45 2542.18,-662.94 2663,-612 2850.32,-533.02 2922,-438.29 2922,-235 2922,-235 2922,-235 2922,-161 2922,-72.93 1491.27,-27.93 1220.82,-20.21"/>
<polygon fill="black" stroke="black" points="1221.14,-16.71 1211.05,-19.93 1220.94,-23.71 1221.14,-16.71"/>
</g>
<!-- math64 -->
<g id="node30" class="node">
<title>math64</title>
<ellipse fill="none" stroke="black" cx="1914" cy="-594" rx="37.89" ry="18"/>
<text text-anchor="middle" x="1914" y="-590.3" font-family="Times,serif" font-size="14.00">math64</text>
</g>
<!-- stake&#45;&gt;math64 -->
<g id="edge86" class="edge">
<title>stake&#45;&gt;math64</title>
<path fill="none" stroke="black" d="M1966,-650.15C1957.49,-641.12 1946.42,-629.38 1936.68,-619.05"/>
<polygon fill="black" stroke="black" points="1939.34,-616.77 1929.93,-611.9 1934.25,-621.57 1939.34,-616.77"/>
</g>
<!-- bls12381 -->
<g id="node31" class="node">
<title>bls12381</title>
<ellipse fill="none" stroke="black" cx="1966" cy="-306" rx="42.79" ry="18"/>
<text text-anchor="middle" x="1966" y="-302.3" font-family="Times,serif" font-size="14.00">bls12381</text>
</g>
<!-- stake&#45;&gt;bls12381 -->
<g id="edge87" class="edge">
<title>stake&#45;&gt;bls12381</title>
<path fill="none" stroke="black" d="M1979.32,-647.73C1977.08,-590.43 1969.88,-406.18 1967.1,-335.22"/>
<polygon fill="black" stroke="black" points="1970.62,-335.46 1966.73,-325.61 1963.62,-335.74 1970.62,-335.46"/>
</g>
<!-- reconfiguration&#45;&gt;signer -->
<g id="edge88" class="edge">
<title>reconfiguration&#45;&gt;signer</title>
<path fill="none" stroke="black" d="M2114.86,-719.79C2097.46,-679.14 2049.69,-575.27 1988,-504 1886.29,-386.49 1853.33,-354.8 1713,-288 1650.63,-258.31 1570.88,-244.85 1522.43,-239.04"/>
<polygon fill="black" stroke="black" points="1522.95,-235.58 1512.62,-237.93 1522.16,-242.54 1522.95,-235.58"/>
</g>
<!-- reconfiguration&#45;&gt;error -->
<g id="edge89" class="edge">
<title>reconfiguration&#45;&gt;error</title>
<path fill="none" stroke="black" d="M2185.09,-733.32C2269.22,-727.48 2422.35,-713.58 2550,-684 2668.17,-656.62 2808,-716.3 2808,-595 2808,-595 2808,-595 2808,-449 2808,-357.59 2761.78,-328.84 2680,-288 2591.75,-243.93 2287.23,-236.49 2177.67,-235.25"/>
<polygon fill="black" stroke="black" points="2177.74,-231.75 2167.7,-235.15 2177.67,-238.75 2177.74,-231.75"/>
</g>
<!-- reconfiguration&#45;&gt;system_addresses -->
<g id="edge90" class="edge">
<title>reconfiguration&#45;&gt;system_addresses</title>
<path fill="none" stroke="black" d="M2122.65,-719.61C2125.1,-653.55 2133.88,-417.78 2136.94,-335.54"/>
<polygon fill="black" stroke="black" points="2140.43,-335.77 2137.31,-325.65 2133.44,-335.51 2140.43,-335.77"/>
</g>
<!-- reconfiguration&#45;&gt;event -->
<g id="edge91" class="edge">
<title>reconfiguration&#45;&gt;event</title>
<path fill="none" stroke="black" d="M2058.88,-733.21C1892.35,-722.27 1445.35,-686.55 1320,-612 1259,-575.72 1257.8,-538.64 1251,-468 1249.07,-447.95 1250.39,-425.27 1252.16,-407.83"/>
<polygon fill="black" stroke="black" points="1255.64,-408.26 1253.29,-397.93 1248.68,-407.47 1255.64,-408.26"/>
</g>
<!-- reconfiguration&#45;&gt;account -->
<g id="edge92" class="edge">
<title>reconfiguration&#45;&gt;account</title>
<path fill="none" stroke="black" d="M2057.1,-736.05C1863.39,-732.81 1298.21,-720.33 1224,-684 1130.68,-638.31 1062,-528.82 1033.94,-477.9"/>
<polygon fill="black" stroke="black" points="1037.13,-476.43 1029.29,-469.29 1030.97,-479.76 1037.13,-476.43"/>
</g>
<!-- reconfiguration&#45;&gt;timestamp -->
<g id="edge94" class="edge">
<title>reconfiguration&#45;&gt;timestamp</title>
<path fill="none" stroke="black" d="M2148.58,-721.21C2161.52,-712.05 2175.98,-699.3 2184,-684 2218.87,-617.53 2215.93,-525.79 2211.58,-479.77"/>
<polygon fill="black" stroke="black" points="2215.06,-479.4 2210.53,-469.82 2208.1,-480.13 2215.06,-479.4"/>
</g>
<!-- reconfiguration&#45;&gt;stake -->
<g id="edge95" class="edge">
<title>reconfiguration&#45;&gt;stake</title>
<path fill="none" stroke="black" d="M2091.19,-721.81C2067.85,-710.3 2035.86,-694.54 2012.19,-682.87"/>
<polygon fill="black" stroke="black" points="2013.83,-679.78 2003.31,-678.49 2010.74,-686.05 2013.83,-679.78"/>
</g>
<!-- chain_status -->
<g id="node32" class="node">
<title>chain_status</title>
<ellipse fill="none" stroke="black" cx="2612" cy="-378" rx="53.89" ry="18"/>
<text text-anchor="middle" x="2612" y="-374.3" font-family="Times,serif" font-size="14.00">chain_status</text>
</g>
<!-- reconfiguration&#45;&gt;chain_status -->
<g id="edge93" class="edge">
<title>reconfiguration&#45;&gt;chain_status</title>
<path fill="none" stroke="black" d="M2184.32,-732.31C2317.53,-720.58 2618,-684.23 2618,-595 2618,-595 2618,-595 2618,-521 2618,-481.71 2615.68,-436.35 2613.92,-407.68"/>
<polygon fill="black" stroke="black" points="2617.43,-407.75 2613.31,-397.99 2610.45,-408.19 2617.43,-407.75"/>
</g>
<!-- storage_gas -->
<g id="node33" class="node">
<title>storage_gas</title>
<ellipse fill="none" stroke="black" cx="2424" cy="-450" rx="51.99" ry="18"/>
<text text-anchor="middle" x="2424" y="-446.3" font-family="Times,serif" font-size="14.00">storage_gas</text>
</g>
<!-- reconfiguration&#45;&gt;storage_gas -->
<g id="edge96" class="edge">
<title>reconfiguration&#45;&gt;storage_gas</title>
<path fill="none" stroke="black" d="M2150.09,-721.43C2166.76,-711.63 2187.89,-698.19 2205,-684 2285.79,-617.01 2366.69,-521.89 2403.48,-476.72"/>
<polygon fill="black" stroke="black" points="2406.12,-479.02 2409.69,-469.05 2400.68,-474.62 2406.12,-479.02"/>
</g>
<!-- type_info&#45;&gt;string -->
<g id="edge97" class="edge">
<title>type_info&#45;&gt;string</title>
<path fill="none" stroke="black" d="M377.81,-219.67C353.19,-208.02 317.42,-191.1 291.37,-178.79"/>
<polygon fill="black" stroke="black" points="293.12,-175.74 282.59,-174.63 290.13,-182.07 293.12,-175.74"/>
</g>
<!-- ed25519&#45;&gt;option -->
<g id="edge98" class="edge">
<title>ed25519&#45;&gt;option</title>
<path fill="none" stroke="black" d="M863.56,-287.65C865.63,-254.42 875.1,-181.76 918,-144 949.45,-116.32 1067.73,-101.17 1133.03,-94.75"/>
<polygon fill="black" stroke="black" points="1133.06,-98.26 1142.68,-93.83 1132.39,-91.3 1133.06,-98.26"/>
</g>
<!-- ed25519&#45;&gt;error -->
<g id="edge100" class="edge">
<title>ed25519&#45;&gt;error</title>
<path fill="none" stroke="black" d="M903.3,-301.98C951.85,-298.4 1035.86,-292.36 1108,-288 1494.02,-264.68 1961.83,-242.98 2098.66,-236.77"/>
<polygon fill="black" stroke="black" points="2098.79,-240.27 2108.62,-236.32 2098.47,-233.28 2098.79,-240.27"/>
</g>
<!-- ed25519&#45;&gt;bcs -->
<g id="edge102" class="edge">
<title>ed25519&#45;&gt;bcs</title>
<path fill="none" stroke="black" d="M843.91,-289.81C831.34,-279.81 814.73,-266.6 800.96,-255.65"/>
<polygon fill="black" stroke="black" points="803.16,-252.93 793.16,-249.45 798.81,-258.41 803.16,-252.93"/>
</g>
<!-- ed25519&#45;&gt;type_info -->
<g id="edge99" class="edge">
<title>ed25519&#45;&gt;type_info</title>
<path fill="none" stroke="black" d="M824.82,-299.15C743.15,-286.64 551.36,-257.27 458.38,-243.02"/>
<polygon fill="black" stroke="black" points="458.92,-239.56 448.5,-241.51 457.86,-246.48 458.92,-239.56"/>
</g>
<!-- ed25519&#45;&gt;hash -->
<g id="edge101" class="edge">
<title>ed25519&#45;&gt;hash</title>
<path fill="none" stroke="black" d="M887.5,-291.17C907.51,-279.87 935.88,-263.86 957.21,-251.82"/>
<polygon fill="black" stroke="black" points="958.74,-254.97 965.73,-247.01 955.3,-248.87 958.74,-254.97"/>
</g>
<!-- multi_ed25519&#45;&gt;option -->
<g id="edge103" class="edge">
<title>multi_ed25519&#45;&gt;option</title>
<path fill="none" stroke="black" d="M916.31,-359.77C917.58,-328.88 923.57,-262.92 951,-216 990.62,-148.24 1081.72,-114.7 1135.38,-100.27"/>
<polygon fill="black" stroke="black" points="1135.96,-103.73 1144.77,-97.85 1134.21,-96.96 1135.96,-103.73"/>
</g>
<!-- multi_ed25519&#45;&gt;error -->
<g id="edge104" class="edge">
<title>multi_ed25519&#45;&gt;error</title>
<path fill="none" stroke="black" d="M974.58,-370.35C1020.42,-363.42 1084.78,-349.81 1136,-324 1158.26,-312.79 1155.82,-297.16 1179,-288 1265.42,-253.87 1928.39,-238.99 2098.38,-235.72"/>
<polygon fill="black" stroke="black" points="2098.31,-239.22 2108.24,-235.53 2098.18,-232.22 2098.31,-239.22"/>
</g>
<!-- multi_ed25519&#45;&gt;bcs -->
<g id="edge106" class="edge">
<title>multi_ed25519&#45;&gt;bcs</title>
<path fill="none" stroke="black" d="M875.38,-363.71C854.49,-355.15 829.92,-342.18 813,-324 797.07,-306.89 787.24,-282.09 781.57,-263.01"/>
<polygon fill="black" stroke="black" points="784.97,-262.18 778.96,-253.46 778.22,-264.02 784.97,-262.18"/>
</g>
<!-- multi_ed25519&#45;&gt;hash -->
<g id="edge105" class="edge">
<title>multi_ed25519&#45;&gt;hash</title>
<path fill="none" stroke="black" d="M926.09,-360.01C932.1,-349.71 939.73,-336.23 946,-324 956.48,-303.53 967.33,-279.87 975.23,-262.09"/>
<polygon fill="black" stroke="black" points="978.41,-263.55 979.24,-252.99 972,-260.72 978.41,-263.55"/>
</g>
<!-- multi_ed25519&#45;&gt;ed25519 -->
<g id="edge107" class="edge">
<title>multi_ed25519&#45;&gt;ed25519</title>
<path fill="none" stroke="black" d="M903.17,-360.05C896.89,-351.77 889.21,-341.62 882.25,-332.42"/>
<polygon fill="black" stroke="black" points="885.09,-330.37 876.26,-324.51 879.51,-334.6 885.09,-330.37"/>
</g>
<!-- from_bcs&#45;&gt;string -->
<g id="edge108" class="edge">
<title>from_bcs&#45;&gt;string</title>
<path fill="none" stroke="black" d="M226.72,-359.85C232.56,-323.14 246.3,-236.66 253.47,-191.53"/>
<polygon fill="black" stroke="black" points="256.91,-192.15 255.02,-181.73 250,-191.05 256.91,-192.15"/>
</g>
<!-- optional_aggregator&#45;&gt;option -->
<g id="edge109" class="edge">
<title>optional_aggregator&#45;&gt;option</title>
<path fill="none" stroke="black" d="M1605.3,-431.91C1600.72,-421.58 1594.86,-408.1 1590,-396 1558,-316.35 1576.35,-280.75 1520,-216 1442.19,-126.6 1295.04,-101.11 1221.37,-93.86"/>
<polygon fill="black" stroke="black" points="1221.98,-90.41 1211.7,-92.99 1221.35,-97.38 1221.98,-90.41"/>
</g>
<!-- optional_aggregator&#45;&gt;error -->
<g id="edge110" class="edge">
<title>optional_aggregator&#45;&gt;error</title>
<path fill="none" stroke="black" d="M1684.18,-440.96C1722.4,-433.89 1768.77,-420.68 1804,-396 1852.28,-362.18 1831.61,-320.18 1881,-288 1948.25,-244.19 2044.65,-235.58 2098.24,-234.47"/>
<polygon fill="black" stroke="black" points="2098.16,-237.97 2108.11,-234.35 2098.07,-230.97 2098.16,-237.97"/>
</g>
<!-- aggregator -->
<g id="node34" class="node">
<title>aggregator</title>
<ellipse fill="none" stroke="black" cx="1656" cy="-306" rx="48.19" ry="18"/>
<text text-anchor="middle" x="1656" y="-302.3" font-family="Times,serif" font-size="14.00">aggregator</text>
</g>
<!-- optional_aggregator&#45;&gt;aggregator -->
<g id="edge111" class="edge">
<title>optional_aggregator&#45;&gt;aggregator</title>
<path fill="none" stroke="black" d="M1604.91,-431.89C1597.38,-413.43 1588.75,-383.52 1599,-360 1604.21,-348.05 1613.58,-337.58 1623.25,-329.17"/>
<polygon fill="black" stroke="black" points="1625.32,-331.99 1630.91,-323 1620.93,-326.54 1625.32,-331.99"/>
</g>
<!-- aggregator_factory -->
<g id="node35" class="node">
<title>aggregator_factory</title>
<ellipse fill="none" stroke="black" cx="1685" cy="-378" rx="77.19" ry="18"/>
<text text-anchor="middle" x="1685" y="-374.3" font-family="Times,serif" font-size="14.00">aggregator_factory</text>
</g>
<!-- optional_aggregator&#45;&gt;aggregator_factory -->
<g id="edge112" class="edge">
<title>optional_aggregator&#45;&gt;aggregator_factory</title>
<path fill="none" stroke="black" d="M1630.43,-432.05C1639.18,-423.54 1649.96,-413.07 1659.61,-403.68"/>
<polygon fill="black" stroke="black" points="1661.92,-406.32 1666.65,-396.84 1657.04,-401.31 1661.92,-406.32"/>
</g>
<!-- comparator&#45;&gt;bcs -->
<g id="edge113" class="edge">
<title>comparator&#45;&gt;bcs</title>
<path fill="none" stroke="black" d="M698.75,-289.46C713.23,-279.12 732.35,-265.46 747.83,-254.41"/>
<polygon fill="black" stroke="black" points="749.59,-257.45 755.69,-248.79 745.52,-251.76 749.59,-257.45"/>
</g>
<!-- bls12381&#45;&gt;option -->
<g id="edge114" class="edge">
<title>bls12381&#45;&gt;option</title>
<path fill="none" stroke="black" d="M1940.76,-291.34C1881.24,-259.8 1726.7,-181.71 1588,-144 1457.75,-108.59 1297.66,-96.61 1221.43,-92.74"/>
<polygon fill="black" stroke="black" points="1222.04,-89.27 1211.88,-92.28 1221.7,-96.26 1222.04,-89.27"/>
</g>
<!-- bls12381&#45;&gt;error -->
<g id="edge115" class="edge">
<title>bls12381&#45;&gt;error</title>
<path fill="none" stroke="black" d="M1995.96,-292.81C2026.18,-280.51 2072.75,-261.55 2104.26,-248.73"/>
<polygon fill="black" stroke="black" points="2105.37,-252.06 2113.32,-245.05 2102.74,-245.57 2105.37,-252.06"/>
</g>
<!-- chain_status&#45;&gt;error -->
<g id="edge116" class="edge">
<title>chain_status&#45;&gt;error</title>
<path fill="none" stroke="black" d="M2604.19,-359.95C2593.7,-339.16 2572.96,-304.74 2544,-288 2482.08,-252.21 2266.67,-239.94 2177.32,-236.33"/>
<polygon fill="black" stroke="black" points="2177.71,-232.84 2167.58,-235.95 2177.44,-239.83 2177.71,-232.84"/>
</g>
<!-- chain_status&#45;&gt;system_addresses -->
<g id="edge117" class="edge">
<title>chain_status&#45;&gt;system_addresses</title>
<path fill="none" stroke="black" d="M2565.02,-368.84C2548.02,-365.95 2528.66,-362.74 2511,-360 2407.56,-343.95 2287.68,-327.25 2212.34,-316.99"/>
<polygon fill="black" stroke="black" points="2212.98,-313.55 2202.6,-315.67 2212.04,-320.48 2212.98,-313.55"/>
</g>
<!-- storage_gas&#45;&gt;error -->
<g id="edge118" class="edge">
<title>storage_gas&#45;&gt;error</title>
<path fill="none" stroke="black" d="M2460.08,-436.91C2478.84,-428.57 2500.09,-415.43 2511,-396 2518.84,-382.05 2519.78,-373.38 2511,-360 2473.2,-302.41 2263.36,-257.96 2176.09,-241.71"/>
<polygon fill="black" stroke="black" points="2176.82,-238.28 2166.35,-239.92 2175.55,-245.17 2176.82,-238.28"/>
</g>
<!-- storage_gas&#45;&gt;system_addresses -->
<g id="edge119" class="edge">
<title>storage_gas&#45;&gt;system_addresses</title>
<path fill="none" stroke="black" d="M2409.47,-432.34C2389.14,-409.39 2352.82,-369.77 2336,-360 2298.33,-338.12 2251.41,-325.04 2212.71,-317.36"/>
<polygon fill="black" stroke="black" points="2213.46,-313.94 2202.99,-315.52 2212.16,-320.82 2213.46,-313.94"/>
</g>
<!-- state_storage -->
<g id="node36" class="node">
<title>state_storage</title>
<ellipse fill="none" stroke="black" cx="2445" cy="-378" rx="56.59" ry="18"/>
<text text-anchor="middle" x="2445" y="-374.3" font-family="Times,serif" font-size="14.00">state_storage</text>
</g>
<!-- storage_gas&#45;&gt;state_storage -->
<g id="edge120" class="edge">
<title>storage_gas&#45;&gt;state_storage</title>
<path fill="none" stroke="black" d="M2429.19,-431.7C2431.43,-424.24 2434.1,-415.32 2436.61,-406.97"/>
<polygon fill="black" stroke="black" points="2439.91,-408.14 2439.43,-397.55 2433.21,-406.13 2439.91,-408.14"/>
</g>
<!-- aggregator_factory&#45;&gt;table -->
<g id="edge121" class="edge">
<title>aggregator_factory&#45;&gt;table</title>
<path fill="none" stroke="black" d="M1609.79,-373.66C1399.9,-364.28 810.53,-337.5 617,-324 564.88,-320.36 504.8,-314.71 466.63,-310.93"/>
<polygon fill="black" stroke="black" points="467.32,-307.48 457.02,-309.97 466.63,-314.45 467.32,-307.48"/>
</g>
<!-- aggregator_factory&#45;&gt;error -->
<g id="edge122" class="edge">
<title>aggregator_factory&#45;&gt;error</title>
<path fill="none" stroke="black" d="M1695.36,-359.97C1708.99,-339.21 1735.02,-304.82 1767,-288 1824.08,-257.98 2015.25,-242.67 2098.59,-237.29"/>
<polygon fill="black" stroke="black" points="2098.81,-240.79 2108.57,-236.66 2098.37,-233.8 2098.81,-240.79"/>
</g>
<!-- aggregator_factory&#45;&gt;system_addresses -->
<g id="edge123" class="edge">
<title>aggregator_factory&#45;&gt;system_addresses</title>
<path fill="none" stroke="black" d="M1747.99,-367.27C1831.37,-354.38 1978.04,-331.72 2065.8,-318.16"/>
<polygon fill="black" stroke="black" points="2066.15,-321.64 2075.5,-316.66 2065.08,-314.73 2066.15,-321.64"/>
</g>
<!-- aggregator_factory&#45;&gt;aggregator -->
<g id="edge124" class="edge">
<title>aggregator_factory&#45;&gt;aggregator</title>
<path fill="none" stroke="black" d="M1677.83,-359.7C1674.71,-352.15 1670.96,-343.12 1667.47,-334.68"/>
<polygon fill="black" stroke="black" points="1670.73,-333.4 1663.67,-325.5 1664.26,-336.08 1670.73,-333.4"/>
</g>
<!-- state_storage&#45;&gt;error -->
<g id="edge125" class="edge">
<title>state_storage&#45;&gt;error</title>
<path fill="none" stroke="black" d="M2422.47,-361.15C2394.35,-341.9 2344.33,-309.37 2298,-288 2257.12,-269.14 2207.58,-253.81 2174.56,-244.57"/>
<polygon fill="black" stroke="black" points="2175.64,-241.24 2165.07,-241.97 2173.79,-247.99 2175.64,-241.24"/>
</g>
<!-- state_storage&#45;&gt;system_addresses -->
<g id="edge126" class="edge">
<title>state_storage&#45;&gt;system_addresses</title>
<path fill="none" stroke="black" d="M2401.09,-366.38C2392.13,-364.25 2382.77,-362.03 2374,-360 2315.87,-346.51 2249.55,-331.67 2202.05,-321.13"/>
<polygon fill="black" stroke="black" points="2203,-317.75 2192.48,-319.01 2201.49,-324.59 2203,-317.75"/>
</g>
</g>
</svg>
