<?xml version="1.0" encoding="UTF-8" standalone="no"?>
<!DOCTYPE svg PUBLIC "-//W3C//DTD SVG 1.1//EN"
 "http://www.w3.org/Graphics/SVG/1.1/DTD/svg11.dtd">
<!-- Generated by graphviz version 7.0.0 (20221023.0053)
 -->
<!-- Title: G Pages: 1 -->
<svg width="1521pt" height="692pt"
 viewBox="0.00 0.00 1521.00 692.00" xmlns="http://www.w3.org/2000/svg" xmlns:xlink="http://www.w3.org/1999/xlink">
<g id="graph0" class="graph" transform="scale(1 1) rotate(0) translate(4 688)">
<title>G</title>
<polygon fill="white" stroke="none" points="-4,4 -4,-688 1517,-688 1517,4 -4,4"/>
<!-- aptos_account -->
<g id="node1" class="node">
<title>aptos_account</title>
<ellipse fill="none" stroke="black" cx="1147" cy="-666" rx="61.19" ry="18"/>
<text text-anchor="middle" x="1147" y="-662.3" font-family="Times,serif" font-size="14.00">aptos_account</text>
</g>
<!-- error -->
<g id="node2" class="node">
<title>error</title>
<ellipse fill="none" stroke="black" cx="892" cy="-234" rx="27.9" ry="18"/>
<text text-anchor="middle" x="892" y="-230.3" font-family="Times,serif" font-size="14.00">error</text>
</g>
<!-- aptos_account&#45;&gt;error -->
<g id="edge1" class="edge">
<title>aptos_account&#45;&gt;error</title>
<path fill="none" stroke="black" d="M1159.48,-647.91C1200.26,-589.85 1321.73,-397.67 1228,-288 1190.2,-243.77 1011.5,-236.23 931.22,-235.1"/>
<polygon fill="black" stroke="black" points="931.67,-231.61 921.63,-234.99 931.59,-238.6 931.67,-231.61"/>
</g>
<!-- account -->
<g id="node3" class="node">
<title>account</title>
<ellipse fill="none" stroke="black" cx="579" cy="-450" rx="38.19" ry="18"/>
<text text-anchor="middle" x="579" y="-446.3" font-family="Times,serif" font-size="14.00">account</text>
</g>
<!-- aptos_account&#45;&gt;account -->
<g id="edge2" class="edge">
<title>aptos_account&#45;&gt;account</title>
<path fill="none" stroke="black" d="M1100.79,-653.91C1061.99,-644.17 1005.31,-628.95 957,-612 828.84,-567.05 682.22,-499.9 615.5,-468.44"/>
<polygon fill="black" stroke="black" points="617.02,-465.29 606.48,-464.18 614.02,-471.62 617.02,-465.29"/>
</g>
<!-- coin -->
<g id="node4" class="node">
<title>coin</title>
<ellipse fill="none" stroke="black" cx="847" cy="-522" rx="27" ry="18"/>
<text text-anchor="middle" x="847" y="-518.3" font-family="Times,serif" font-size="14.00">coin</text>
</g>
<!-- aptos_account&#45;&gt;coin -->
<g id="edge3" class="edge">
<title>aptos_account&#45;&gt;coin</title>
<path fill="none" stroke="black" d="M1115.74,-650.21C1058.36,-623.04 936.81,-565.51 878.93,-538.11"/>
<polygon fill="black" stroke="black" points="880.47,-534.97 869.93,-533.86 877.47,-541.3 880.47,-534.97"/>
</g>
<!-- aptos_coin -->
<g id="node5" class="node">
<title>aptos_coin</title>
<ellipse fill="none" stroke="black" cx="1324" cy="-594" rx="48.99" ry="18"/>
<text text-anchor="middle" x="1324" y="-590.3" font-family="Times,serif" font-size="14.00">aptos_coin</text>
</g>
<!-- aptos_account&#45;&gt;aptos_coin -->
<g id="edge4" class="edge">
<title>aptos_account&#45;&gt;aptos_coin</title>
<path fill="none" stroke="black" d="M1182.39,-651C1210.79,-639.77 1250.75,-623.97 1280.99,-612.01"/>
<polygon fill="black" stroke="black" points="1282.23,-615.28 1290.24,-608.35 1279.65,-608.77 1282.23,-615.28"/>
</g>
<!-- account&#45;&gt;error -->
<g id="edge10" class="edge">
<title>account&#45;&gt;error</title>
<path fill="none" stroke="black" d="M610.05,-439.26C632.16,-430.91 661.18,-416.89 680,-396 714.58,-357.61 685.12,-323.14 723,-288 758.85,-254.74 815.39,-242.35 853.07,-237.74"/>
<polygon fill="black" stroke="black" points="853.04,-241.26 862.61,-236.7 852.29,-234.3 853.04,-241.26"/>
</g>
<!-- vector -->
<g id="node6" class="node">
<title>vector</title>
<ellipse fill="none" stroke="black" cx="367" cy="-18" rx="32.49" ry="18"/>
<text text-anchor="middle" x="367" y="-14.3" font-family="Times,serif" font-size="14.00">vector</text>
</g>
<!-- account&#45;&gt;vector -->
<g id="edge5" class="edge">
<title>account&#45;&gt;vector</title>
<path fill="none" stroke="black" d="M540.61,-447.91C440.59,-444.58 174.3,-432.46 95,-396 42.43,-371.83 0,-364.86 0,-307 0,-307 0,-307 0,-161 0,-91.99 228.59,-43.46 324.95,-26.07"/>
<polygon fill="black" stroke="black" points="325.3,-29.56 334.54,-24.37 324.08,-22.67 325.3,-29.56"/>
</g>
<!-- option -->
<g id="node7" class="node">
<title>option</title>
<ellipse fill="none" stroke="black" cx="535" cy="-90" rx="33.29" ry="18"/>
<text text-anchor="middle" x="535" y="-86.3" font-family="Times,serif" font-size="14.00">option</text>
</g>
<!-- account&#45;&gt;option -->
<g id="edge6" class="edge">
<title>account&#45;&gt;option</title>
<path fill="none" stroke="black" d="M603.36,-435.94C618.22,-426.72 636.35,-413 647,-396 668.47,-361.72 666,-347.45 666,-307 666,-307 666,-307 666,-233 666,-175.58 607.41,-131.45 568.6,-108.52"/>
<polygon fill="black" stroke="black" points="570.46,-105.55 560.04,-103.63 566.99,-111.63 570.46,-105.55"/>
</g>
<!-- type_info -->
<g id="node8" class="node">
<title>type_info</title>
<ellipse fill="none" stroke="black" cx="186" cy="-234" rx="44.39" ry="18"/>
<text text-anchor="middle" x="186" y="-230.3" font-family="Times,serif" font-size="14.00">type_info</text>
</g>
<!-- account&#45;&gt;type_info -->
<g id="edge7" class="edge">
<title>account&#45;&gt;type_info</title>
<path fill="none" stroke="black" d="M541.31,-446.29C470.48,-440.57 320.86,-425.31 279,-396 232.59,-363.5 206.11,-299.89 194.04,-263.1"/>
<polygon fill="black" stroke="black" points="197.4,-262.12 191.07,-253.62 190.72,-264.21 197.4,-262.12"/>
</g>
<!-- table -->
<g id="node9" class="node">
<title>table</title>
<ellipse fill="none" stroke="black" cx="760" cy="-306" rx="27.9" ry="18"/>
<text text-anchor="middle" x="760" y="-302.3" font-family="Times,serif" font-size="14.00">table</text>
</g>
<!-- account&#45;&gt;table -->
<g id="edge8" class="edge">
<title>account&#45;&gt;table</title>
<path fill="none" stroke="black" d="M614.62,-443.14C645.31,-436.45 689.1,-422.76 718,-396 735.63,-379.68 746.56,-354.43 752.84,-334.99"/>
<polygon fill="black" stroke="black" points="756.16,-336.09 755.65,-325.5 749.45,-334.09 756.16,-336.09"/>
</g>
<!-- signer -->
<g id="node10" class="node">
<title>signer</title>
<ellipse fill="none" stroke="black" cx="1391" cy="-234" rx="32.49" ry="18"/>
<text text-anchor="middle" x="1391" y="-230.3" font-family="Times,serif" font-size="14.00">signer</text>
</g>
<!-- account&#45;&gt;signer -->
<g id="edge9" class="edge">
<title>account&#45;&gt;signer</title>
<path fill="none" stroke="black" d="M617.1,-447.25C722.65,-442.08 1017.06,-425.37 1109,-396 1210.23,-363.66 1315.29,-291.65 1363.65,-255.92"/>
<polygon fill="black" stroke="black" points="1365.68,-258.77 1371.6,-249.99 1361.49,-253.16 1365.68,-258.77"/>
</g>
<!-- system_addresses -->
<g id="node11" class="node">
<title>system_addresses</title>
<ellipse fill="none" stroke="black" cx="1146" cy="-306" rx="73.39" ry="18"/>
<text text-anchor="middle" x="1146" y="-302.3" font-family="Times,serif" font-size="14.00">system_addresses</text>
</g>
<!-- account&#45;&gt;system_addresses -->
<g id="edge11" class="edge">
<title>account&#45;&gt;system_addresses</title>
<path fill="none" stroke="black" d="M616.73,-446.67C725.76,-439.69 1036.04,-418.1 1076,-396 1101.31,-382 1120.65,-354.69 1132.52,-334"/>
<polygon fill="black" stroke="black" points="1135.44,-335.95 1137.17,-325.5 1129.3,-332.6 1135.44,-335.95"/>
</g>
<!-- hash -->
<g id="node12" class="node">
<title>hash</title>
<ellipse fill="none" stroke="black" cx="275" cy="-234" rx="27" ry="18"/>
<text text-anchor="middle" x="275" y="-230.3" font-family="Times,serif" font-size="14.00">hash</text>
</g>
<!-- account&#45;&gt;hash -->
<g id="edge12" class="edge">
<title>account&#45;&gt;hash</title>
<path fill="none" stroke="black" d="M541.79,-445C478.53,-437.64 353.36,-420.41 317,-396 285.07,-374.56 280.14,-360.81 269,-324 263.03,-304.28 264.89,-281.01 268.05,-263.21"/>
<polygon fill="black" stroke="black" points="271.43,-264.12 270,-253.62 264.58,-262.72 271.43,-264.12"/>
</g>
<!-- bcs -->
<g id="node13" class="node">
<title>bcs</title>
<ellipse fill="none" stroke="black" cx="470" cy="-234" rx="27" ry="18"/>
<text text-anchor="middle" x="470" y="-230.3" font-family="Times,serif" font-size="14.00">bcs</text>
</g>
<!-- account&#45;&gt;bcs -->
<g id="edge13" class="edge">
<title>account&#45;&gt;bcs</title>
<path fill="none" stroke="black" d="M570.45,-432.21C551.58,-395.16 506.25,-306.17 483.5,-261.51"/>
<polygon fill="black" stroke="black" points="486.71,-260.09 479.05,-252.77 480.47,-263.27 486.71,-260.09"/>
</g>
<!-- ed25519 -->
<g id="node14" class="node">
<title>ed25519</title>
<ellipse fill="none" stroke="black" cx="335" cy="-306" rx="40.89" ry="18"/>
<text text-anchor="middle" x="335" y="-302.3" font-family="Times,serif" font-size="14.00">ed25519</text>
</g>
<!-- account&#45;&gt;ed25519 -->
<g id="edge14" class="edge">
<title>account&#45;&gt;ed25519</title>
<path fill="none" stroke="black" d="M541.06,-446.56C478.25,-441.64 356.99,-428.13 331,-396 317.4,-379.19 319.85,-354.2 324.87,-334.98"/>
<polygon fill="black" stroke="black" points="328.16,-336.19 327.68,-325.61 321.45,-334.18 328.16,-336.19"/>
</g>
<!-- multi_ed25519 -->
<g id="node15" class="node">
<title>multi_ed25519</title>
<ellipse fill="none" stroke="black" cx="404" cy="-378" rx="64.19" ry="18"/>
<text text-anchor="middle" x="404" y="-374.3" font-family="Times,serif" font-size="14.00">multi_ed25519</text>
</g>
<!-- account&#45;&gt;multi_ed25519 -->
<g id="edge15" class="edge">
<title>account&#45;&gt;multi_ed25519</title>
<path fill="none" stroke="black" d="M550.49,-437.6C523.34,-426.74 482.01,-410.21 450.17,-397.47"/>
<polygon fill="black" stroke="black" points="451.75,-394.33 441.17,-393.87 449.15,-400.83 451.75,-394.33"/>
</g>
<!-- guid -->
<g id="node16" class="node">
<title>guid</title>
<ellipse fill="none" stroke="black" cx="573" cy="-306" rx="27" ry="18"/>
<text text-anchor="middle" x="573" y="-302.3" font-family="Times,serif" font-size="14.00">guid</text>
</g>
<!-- account&#45;&gt;guid -->
<g id="edge16" class="edge">
<title>account&#45;&gt;guid</title>
<path fill="none" stroke="black" d="M574.94,-431.93C572.69,-421.6 570.13,-408.12 569,-396 567.13,-375.95 568.19,-353.28 569.69,-335.83"/>
<polygon fill="black" stroke="black" points="573.17,-336.23 570.65,-325.94 566.2,-335.55 573.17,-336.23"/>
</g>
<!-- from_bcs -->
<g id="node17" class="node">
<title>from_bcs</title>
<ellipse fill="none" stroke="black" cx="148" cy="-378" rx="44.39" ry="18"/>
<text text-anchor="middle" x="148" y="-374.3" font-family="Times,serif" font-size="14.00">from_bcs</text>
</g>
<!-- account&#45;&gt;from_bcs -->
<g id="edge17" class="edge">
<title>account&#45;&gt;from_bcs</title>
<path fill="none" stroke="black" d="M541.63,-445.49C474.09,-438.75 327.46,-422.29 206,-396 201.74,-395.08 197.33,-394.01 192.94,-392.86"/>
<polygon fill="black" stroke="black" points="194.17,-389.57 183.6,-390.29 192.31,-396.32 194.17,-389.57"/>
</g>
<!-- event -->
<g id="node18" class="node">
<title>event</title>
<ellipse fill="none" stroke="black" cx="608" cy="-378" rx="29.8" ry="18"/>
<text text-anchor="middle" x="608" y="-374.3" font-family="Times,serif" font-size="14.00">event</text>
</g>
<!-- account&#45;&gt;event -->
<g id="edge18" class="edge">
<title>account&#45;&gt;event</title>
<path fill="none" stroke="black" d="M586.02,-432.05C589.23,-424.32 593.1,-414.96 596.7,-406.27"/>
<polygon fill="black" stroke="black" points="599.87,-407.77 600.47,-397.19 593.4,-405.09 599.87,-407.77"/>
</g>
<!-- coin&#45;&gt;error -->
<g id="edge23" class="edge">
<title>coin&#45;&gt;error</title>
<path fill="none" stroke="black" d="M848.76,-503.65C852.83,-464.82 863.74,-368.01 879,-288 880.55,-279.87 882.56,-271.12 884.53,-263.12"/>
<polygon fill="black" stroke="black" points="887.89,-264.11 886.96,-253.55 881.1,-262.38 887.89,-264.11"/>
</g>
<!-- coin&#45;&gt;account -->
<g id="edge26" class="edge">
<title>coin&#45;&gt;account</title>
<path fill="none" stroke="black" d="M822.27,-514.54C776.83,-502.67 679.54,-477.26 622.73,-462.42"/>
<polygon fill="black" stroke="black" points="623.95,-459.12 613.39,-459.98 622.18,-465.9 623.95,-459.12"/>
</g>
<!-- coin&#45;&gt;option -->
<g id="edge19" class="edge">
<title>coin&#45;&gt;option</title>
<path fill="none" stroke="black" d="M846.67,-503.73C845.21,-463.38 837.47,-360.88 797,-288 752.29,-207.49 723.83,-196.26 648,-144 624.54,-127.83 595.37,-114.29 572.54,-104.94"/>
<polygon fill="black" stroke="black" points="573.89,-101.71 563.31,-101.26 571.3,-108.21 573.89,-101.71"/>
</g>
<!-- coin&#45;&gt;type_info -->
<g id="edge21" class="edge">
<title>coin&#45;&gt;type_info</title>
<path fill="none" stroke="black" d="M819.6,-520.93C695.83,-520 190.94,-509.21 95,-396 57.56,-351.82 118.04,-289.98 157.06,-257.29"/>
<polygon fill="black" stroke="black" points="158.79,-260.39 164.31,-251.35 154.36,-254.98 158.79,-260.39"/>
</g>
<!-- coin&#45;&gt;signer -->
<g id="edge22" class="edge">
<title>coin&#45;&gt;signer</title>
<path fill="none" stroke="black" d="M874.1,-519.38C922.86,-515.64 1027.76,-503.78 1108,-468 1221.82,-417.25 1327.09,-307.82 1370.3,-259.17"/>
<polygon fill="black" stroke="black" points="1372.67,-261.78 1376.64,-251.95 1367.41,-257.16 1372.67,-261.78"/>
</g>
<!-- coin&#45;&gt;system_addresses -->
<g id="edge24" class="edge">
<title>coin&#45;&gt;system_addresses</title>
<path fill="none" stroke="black" d="M873.45,-518.06C927.65,-511.56 1048.82,-494.41 1080,-468 1120.08,-434.06 1136.16,-371.97 1142.35,-335.61"/>
<polygon fill="black" stroke="black" points="1145.79,-336.26 1143.86,-325.84 1138.88,-335.19 1145.79,-336.26"/>
</g>
<!-- coin&#45;&gt;event -->
<g id="edge25" class="edge">
<title>coin&#45;&gt;event</title>
<path fill="none" stroke="black" d="M827.44,-509.38C785.91,-484.71 688.66,-426.92 638.74,-397.27"/>
<polygon fill="black" stroke="black" points="640.53,-394.26 630.15,-392.16 636.96,-400.28 640.53,-394.26"/>
</g>
<!-- string -->
<g id="node19" class="node">
<title>string</title>
<ellipse fill="none" stroke="black" cx="150" cy="-162" rx="30.59" ry="18"/>
<text text-anchor="middle" x="150" y="-158.3" font-family="Times,serif" font-size="14.00">string</text>
</g>
<!-- coin&#45;&gt;string -->
<g id="edge20" class="edge">
<title>coin&#45;&gt;string</title>
<path fill="none" stroke="black" d="M820.01,-518.96C683.55,-508.26 76,-456.32 76,-379 76,-379 76,-379 76,-305 76,-259.24 106.59,-213.63 128.43,-186.88"/>
<polygon fill="black" stroke="black" points="130.98,-189.3 134.76,-179.4 125.63,-184.78 130.98,-189.3"/>
</g>
<!-- optional_aggregator -->
<g id="node20" class="node">
<title>optional_aggregator</title>
<ellipse fill="none" stroke="black" cx="990" cy="-450" rx="81.49" ry="18"/>
<text text-anchor="middle" x="990" y="-446.3" font-family="Times,serif" font-size="14.00">optional_aggregator</text>
</g>
<!-- coin&#45;&gt;optional_aggregator -->
<g id="edge27" class="edge">
<title>coin&#45;&gt;optional_aggregator</title>
<path fill="none" stroke="black" d="M868.41,-510.52C889.25,-500.32 921.5,-484.53 947.55,-471.78"/>
<polygon fill="black" stroke="black" points="948.76,-475.09 956.2,-467.55 945.68,-468.8 948.76,-475.09"/>
</g>
<!-- aptos_coin&#45;&gt;error -->
<g id="edge32" class="edge">
<title>aptos_coin&#45;&gt;error</title>
<path fill="none" stroke="black" d="M1327.23,-575.69C1336.24,-521.43 1355.14,-354.34 1261,-288 1208.51,-251.01 1015.65,-239.52 931.6,-236.22"/>
<polygon fill="black" stroke="black" points="931.89,-232.73 921.76,-235.86 931.63,-239.73 931.89,-232.73"/>
</g>
<!-- aptos_coin&#45;&gt;coin -->
<g id="edge34" class="edge">
<title>aptos_coin&#45;&gt;coin</title>
<path fill="none" stroke="black" d="M1279.12,-586.41C1185.65,-572.7 971.57,-541.28 884.68,-528.53"/>
<polygon fill="black" stroke="black" points="885.19,-525.07 874.79,-527.08 884.17,-531.99 885.19,-525.07"/>
</g>
<!-- aptos_coin&#45;&gt;vector -->
<g id="edge28" class="edge">
<title>aptos_coin&#45;&gt;vector</title>
<path fill="none" stroke="black" d="M1363.16,-582.71C1418.52,-565.51 1513,-525.29 1513,-451 1513,-451 1513,-451 1513,-161 1513,-47.86 621.89,-23.84 411.24,-19.74"/>
<polygon fill="black" stroke="black" points="411.33,-16.24 401.27,-19.55 411.2,-23.24 411.33,-16.24"/>
</g>
<!-- aptos_coin&#45;&gt;option -->
<g id="edge29" class="edge">
<title>aptos_coin&#45;&gt;option</title>
<path fill="none" stroke="black" d="M1356.02,-580.01C1400.35,-559.66 1475,-515.78 1475,-451 1475,-451 1475,-451 1475,-233 1475,-141.3 766.62,-101.8 579.75,-92.97"/>
<polygon fill="black" stroke="black" points="580.12,-89.49 569.97,-92.52 579.79,-96.48 580.12,-89.49"/>
</g>
<!-- aptos_coin&#45;&gt;signer -->
<g id="edge31" class="edge">
<title>aptos_coin&#45;&gt;signer</title>
<path fill="none" stroke="black" d="M1347.96,-577.88C1381.13,-554.87 1437,-507.71 1437,-451 1437,-451 1437,-451 1437,-377 1437,-335.13 1418.68,-289.56 1405.16,-261.63"/>
<polygon fill="black" stroke="black" points="1408.37,-260.22 1400.77,-252.84 1402.11,-263.35 1408.37,-260.22"/>
</g>
<!-- aptos_coin&#45;&gt;system_addresses -->
<g id="edge33" class="edge">
<title>aptos_coin&#45;&gt;system_addresses</title>
<path fill="none" stroke="black" d="M1313.4,-575.97C1283.53,-527.98 1198.54,-391.41 1162.49,-333.49"/>
<polygon fill="black" stroke="black" points="1165.6,-331.87 1157.35,-325.23 1159.66,-335.57 1165.6,-331.87"/>
</g>
<!-- aptos_coin&#45;&gt;string -->
<g id="edge30" class="edge">
<title>aptos_coin&#45;&gt;string</title>
<path fill="none" stroke="black" d="M1274.77,-592.83C1039.15,-591.4 38,-577.84 38,-451 38,-451 38,-451 38,-305 38,-251.7 87.24,-206.65 120.42,-182.35"/>
<polygon fill="black" stroke="black" points="122.34,-185.28 128.48,-176.64 118.3,-179.56 122.34,-185.28"/>
</g>
<!-- option&#45;&gt;vector -->
<g id="edge35" class="edge">
<title>option&#45;&gt;vector</title>
<path fill="none" stroke="black" d="M509.12,-78.22C480.59,-66.33 434.52,-47.13 402.6,-33.83"/>
<polygon fill="black" stroke="black" points="404.34,-30.76 393.76,-30.15 401.64,-37.23 404.34,-30.76"/>
</g>
<!-- type_info&#45;&gt;string -->
<g id="edge36" class="edge">
<title>type_info&#45;&gt;string</title>
<path fill="none" stroke="black" d="M177.29,-216.05C173.16,-208.03 168.13,-198.26 163.52,-189.3"/>
<polygon fill="black" stroke="black" points="166.76,-187.95 159.08,-180.65 160.54,-191.15 166.76,-187.95"/>
</g>
<!-- system_addresses&#45;&gt;error -->
<g id="edge38" class="edge">
<title>system_addresses&#45;&gt;error</title>
<path fill="none" stroke="black" d="M1098.52,-291.92C1049.25,-278.34 973.27,-257.4 928.5,-245.06"/>
<polygon fill="black" stroke="black" points="929.59,-241.73 919.02,-242.45 927.73,-248.48 929.59,-241.73"/>
</g>
<!-- system_addresses&#45;&gt;signer -->
<g id="edge37" class="edge">
<title>system_addresses&#45;&gt;signer</title>
<path fill="none" stroke="black" d="M1192.66,-291.67C1238.67,-278.52 1308.21,-258.65 1351.54,-246.27"/>
<polygon fill="black" stroke="black" points="1352.39,-249.67 1361.04,-243.56 1350.47,-242.94 1352.39,-249.67"/>
</g>
<!-- ed25519&#45;&gt;error -->
<g id="edge41" class="edge">
<title>ed25519&#45;&gt;error</title>
<path fill="none" stroke="black" d="M374.17,-300.08C476.59,-287.21 751.48,-252.66 853.34,-239.86"/>
<polygon fill="black" stroke="black" points="853.61,-243.35 863.1,-238.63 852.74,-236.41 853.61,-243.35"/>
</g>
<!-- ed25519&#45;&gt;option -->
<g id="edge39" class="edge">
<title>ed25519&#45;&gt;option</title>
<path fill="none" stroke="black" d="M336.13,-287.7C339.17,-255.19 350.22,-184.63 390,-144 416.89,-116.54 459.14,-103.21 491.12,-96.8"/>
<polygon fill="black" stroke="black" points="491.69,-100.26 500.9,-95.01 490.43,-93.37 491.69,-100.26"/>
</g>
<!-- ed25519&#45;&gt;type_info -->
<g id="edge40" class="edge">
<title>ed25519&#45;&gt;type_info</title>
<path fill="none" stroke="black" d="M307.67,-292.16C284.34,-281.2 250.52,-265.31 224.45,-253.06"/>
<polygon fill="black" stroke="black" points="226.08,-249.96 215.54,-248.88 223.1,-256.3 226.08,-249.96"/>
</g>
<!-- ed25519&#45;&gt;hash -->
<g id="edge42" class="edge">
<title>ed25519&#45;&gt;hash</title>
<path fill="none" stroke="black" d="M321.08,-288.76C313.45,-279.86 303.84,-268.65 295.38,-258.78"/>
<polygon fill="black" stroke="black" points="298.17,-256.65 289,-251.34 292.85,-261.21 298.17,-256.65"/>
</g>
<!-- ed25519&#45;&gt;bcs -->
<g id="edge43" class="edge">
<title>ed25519&#45;&gt;bcs</title>
<path fill="none" stroke="black" d="M360.71,-291.67C383.1,-280.06 415.61,-263.2 439.35,-250.89"/>
<polygon fill="black" stroke="black" points="440.64,-254.17 447.9,-246.46 437.42,-247.95 440.64,-254.17"/>
</g>
<!-- multi_ed25519&#45;&gt;error -->
<g id="edge45" class="edge">
<title>multi_ed25519&#45;&gt;error</title>
<path fill="none" stroke="black" d="M422.74,-360.47C447.19,-339.89 492.17,-305.33 537,-288 645.84,-245.92 785.39,-237.04 852.5,-235.31"/>
<polygon fill="black" stroke="black" points="852.34,-238.81 862.26,-235.1 852.19,-231.81 852.34,-238.81"/>
</g>
<!-- multi_ed25519&#45;&gt;option -->
<g id="edge44" class="edge">
<title>multi_ed25519&#45;&gt;option</title>
<path fill="none" stroke="black" d="M404.47,-359.72C405.87,-329.3 411.51,-264.8 434,-216 452.62,-175.61 487.22,-137.05 510.67,-113.7"/>
<polygon fill="black" stroke="black" points="512.96,-116.36 517.67,-106.87 508.07,-111.35 512.96,-116.36"/>
</g>
<!-- multi_ed25519&#45;&gt;hash -->
<g id="edge46" class="edge">
<title>multi_ed25519&#45;&gt;hash</title>
<path fill="none" stroke="black" d="M353.11,-366.75C328.63,-359.13 301.16,-346.08 285,-324 272.36,-306.73 270.42,-282.3 271.33,-263.41"/>
<polygon fill="black" stroke="black" points="274.8,-263.95 272.1,-253.7 267.82,-263.39 274.8,-263.95"/>
</g>
<!-- multi_ed25519&#45;&gt;bcs -->
<g id="edge47" class="edge">
<title>multi_ed25519&#45;&gt;bcs</title>
<path fill="none" stroke="black" d="M411.96,-359.87C423.33,-335.41 444.32,-290.25 457.7,-261.46"/>
<polygon fill="black" stroke="black" points="460.74,-263.23 461.78,-252.68 454.39,-260.28 460.74,-263.23"/>
</g>
<!-- multi_ed25519&#45;&gt;ed25519 -->
<g id="edge48" class="edge">
<title>multi_ed25519&#45;&gt;ed25519</title>
<path fill="none" stroke="black" d="M387.65,-360.41C379.02,-351.66 368.27,-340.75 358.74,-331.08"/>
<polygon fill="black" stroke="black" points="361.33,-328.73 351.82,-324.07 356.35,-333.64 361.33,-328.73"/>
</g>
<!-- from_bcs&#45;&gt;string -->
<g id="edge49" class="edge">
<title>from_bcs&#45;&gt;string</title>
<path fill="none" stroke="black" d="M143.66,-359.99C136.76,-330.53 124.84,-268.14 133,-216 134.32,-207.56 136.75,-198.64 139.38,-190.56"/>
<polygon fill="black" stroke="black" points="142.62,-191.88 142.61,-181.29 136.01,-189.58 142.62,-191.88"/>
</g>
<!-- event&#45;&gt;bcs -->
<g id="edge50" class="edge">
<title>event&#45;&gt;bcs</title>
<path fill="none" stroke="black" d="M613.59,-359.91C618.75,-340.65 623.64,-309.25 609,-288 586.52,-255.37 541.07,-242.82 508.25,-237.99"/>
<polygon fill="black" stroke="black" points="509.09,-234.57 498.72,-236.78 508.2,-241.52 509.09,-234.57"/>
</g>
<!-- event&#45;&gt;guid -->
<g id="edge51" class="edge">
<title>event&#45;&gt;guid</title>
<path fill="none" stroke="black" d="M599.71,-360.41C595.7,-352.39 590.78,-342.57 586.27,-333.54"/>
<polygon fill="black" stroke="black" points="589.51,-332.2 581.91,-324.82 583.25,-335.33 589.51,-332.2"/>
</g>
<!-- string&#45;&gt;vector -->
<g id="edge52" class="edge">
<title>string&#45;&gt;vector</title>
<path fill="none" stroke="black" d="M170.03,-147.9C208.36,-122.81 292.29,-67.89 337.22,-38.49"/>
<polygon fill="black" stroke="black" points="338.99,-41.51 345.44,-33.11 335.16,-35.65 338.99,-41.51"/>
</g>
<!-- string&#45;&gt;option -->
<g id="edge53" class="edge">
<title>string&#45;&gt;option</title>
<path fill="none" stroke="black" d="M178.94,-155.74C246.28,-143.5 413.72,-113.05 492.61,-98.71"/>
<polygon fill="black" stroke="black" points="492.88,-102.21 502.1,-96.98 491.63,-95.33 492.88,-102.21"/>
</g>
<!-- optional_aggregator&#45;&gt;error -->
<g id="edge55" class="edge">
<title>optional_aggregator&#45;&gt;error</title>
<path fill="none" stroke="black" d="M949.56,-433.94C932.58,-425.46 914.39,-413.08 904,-396 879.11,-355.08 882.1,-297.07 886.84,-263"/>
<polygon fill="black" stroke="black" points="890.24,-263.94 888.32,-253.52 883.32,-262.86 890.24,-263.94"/>
</g>
<!-- optional_aggregator&#45;&gt;option -->
<g id="edge54" class="edge">
<title>optional_aggregator&#45;&gt;option</title>
<path fill="none" stroke="black" d="M1045.61,-436.51C1131.51,-414.53 1281.29,-363.96 1228,-288 1151.14,-178.45 718.58,-114.4 578.66,-96.32"/>
<polygon fill="black" stroke="black" points="579.43,-92.9 569.07,-95.1 578.55,-99.84 579.43,-92.9"/>
</g>
<!-- aggregator -->
<g id="node21" class="node">
<title>aggregator</title>
<ellipse fill="none" stroke="black" cx="1006" cy="-306" rx="48.19" ry="18"/>
<text text-anchor="middle" x="1006" y="-302.3" font-family="Times,serif" font-size="14.00">aggregator</text>
</g>
<!-- optional_aggregator&#45;&gt;aggregator -->
<g id="edge56" class="edge">
<title>optional_aggregator&#45;&gt;aggregator</title>
<path fill="none" stroke="black" d="M1031.48,-434.06C1048.45,-425.66 1066.34,-413.3 1076,-396 1083.8,-382.03 1083.12,-374.33 1076,-360 1069.13,-346.19 1056.76,-335.01 1044.3,-326.55"/>
<polygon fill="black" stroke="black" points="1046.46,-323.77 1036.13,-321.41 1042.73,-329.7 1046.46,-323.77"/>
</g>
<!-- aggregator_factory -->
<g id="node22" class="node">
<title>aggregator_factory</title>
<ellipse fill="none" stroke="black" cx="990" cy="-378" rx="77.19" ry="18"/>
<text text-anchor="middle" x="990" y="-374.3" font-family="Times,serif" font-size="14.00">aggregator_factory</text>
</g>
<!-- optional_aggregator&#45;&gt;aggregator_factory -->
<g id="edge57" class="edge">
<title>optional_aggregator&#45;&gt;aggregator_factory</title>
<path fill="none" stroke="black" d="M990,-431.7C990,-424.41 990,-415.73 990,-407.54"/>
<polygon fill="black" stroke="black" points="993.5,-407.62 990,-397.62 986.5,-407.62 993.5,-407.62"/>
</g>
<!-- aggregator_factory&#45;&gt;error -->
<g id="edge59" class="edge">
<title>aggregator_factory&#45;&gt;error</title>
<path fill="none" stroke="black" d="M976.31,-360.1C968.15,-349.83 957.71,-336.36 949,-324 934.33,-303.19 918.82,-278.79 907.68,-260.81"/>
<polygon fill="black" stroke="black" points="910.69,-259.01 902.47,-252.32 904.72,-262.68 910.69,-259.01"/>
</g>
<!-- aggregator_factory&#45;&gt;table -->
<g id="edge58" class="edge">
<title>aggregator_factory&#45;&gt;table</title>
<path fill="none" stroke="black" d="M944.28,-363.09C900.67,-349.81 835.86,-330.09 795.86,-317.91"/>
<polygon fill="black" stroke="black" points="797.06,-314.62 786.47,-315.06 795.02,-321.32 797.06,-314.62"/>
</g>
<!-- aggregator_factory&#45;&gt;system_addresses -->
<g id="edge60" class="edge">
<title>aggregator_factory&#45;&gt;system_addresses</title>
<path fill="none" stroke="black" d="M1024.62,-361.46C1047.22,-351.32 1076.94,-337.99 1101.31,-327.05"/>
<polygon fill="black" stroke="black" points="1102.67,-330.28 1110.36,-322.99 1099.81,-323.89 1102.67,-330.28"/>
</g>
<!-- aggregator_factory&#45;&gt;aggregator -->
<g id="edge61" class="edge">
<title>aggregator_factory&#45;&gt;aggregator</title>
<path fill="none" stroke="black" d="M993.96,-359.7C995.64,-352.32 997.65,-343.52 999.54,-335.25"/>
<polygon fill="black" stroke="black" points="1002.94,-336.11 1001.75,-325.58 996.11,-334.55 1002.94,-336.11"/>
</g>
</g>
</svg>
