<?xml version="1.0" encoding="UTF-8" standalone="no"?>
<!DOCTYPE svg PUBLIC "-//W3C//DTD SVG 1.1//EN"
 "http://www.w3.org/Graphics/SVG/1.1/DTD/svg11.dtd">
<!-- Generated by graphviz version 7.0.0 (20221023.0053)
 -->
<!-- Title: G Pages: 1 -->
<svg width="2470pt" height="836pt"
 viewBox="0.00 0.00 2470.00 836.00" xmlns="http://www.w3.org/2000/svg" xmlns:xlink="http://www.w3.org/1999/xlink">
<g id="graph0" class="graph" transform="scale(1 1) rotate(0) translate(4 832)">
<title>G</title>
<polygon fill="white" stroke="none" points="-4,4 -4,-832 2466,-832 2466,4 -4,4"/>
<!-- block -->
<g id="node1" class="node">
<title>block</title>
<ellipse fill="none" stroke="black" cx="1807" cy="-810" rx="30.59" ry="18"/>
<text text-anchor="middle" x="1807" y="-806.3" font-family="Times,serif" font-size="14.00">block</text>
</g>
<!-- option -->
<g id="node2" class="node">
<title>option</title>
<ellipse fill="none" stroke="black" cx="512" cy="-90" rx="33.29" ry="18"/>
<text text-anchor="middle" x="512" y="-86.3" font-family="Times,serif" font-size="14.00">option</text>
</g>
<!-- block&#45;&gt;option -->
<g id="edge1" class="edge">
<title>block&#45;&gt;option</title>
<path fill="none" stroke="black" d="M1776.1,-809.14C1584.88,-809.8 560.98,-810.73 253,-756 135.64,-735.15 0,-786.2 0,-667 0,-667 0,-667 0,-233 0,-178.91 34.82,-168.57 83,-144 149.42,-110.13 371.21,-96.91 467.14,-92.69"/>
<polygon fill="black" stroke="black" points="467.12,-96.19 476.96,-92.27 466.82,-89.2 467.12,-96.19"/>
</g>
<!-- error -->
<g id="node3" class="node">
<title>error</title>
<ellipse fill="none" stroke="black" cx="1786" cy="-234" rx="27.9" ry="18"/>
<text text-anchor="middle" x="1786" y="-230.3" font-family="Times,serif" font-size="14.00">error</text>
</g>
<!-- block&#45;&gt;error -->
<g id="edge2" class="edge">
<title>block&#45;&gt;error</title>
<path fill="none" stroke="black" d="M1837.71,-808.99C1967.21,-808.15 2462,-796.45 2462,-667 2462,-667 2462,-667 2462,-377 2462,-246.07 1970.17,-235.18 1825.54,-234.82"/>
<polygon fill="black" stroke="black" points="1825.7,-231.32 1815.7,-234.81 1825.7,-238.32 1825.7,-231.32"/>
</g>
<!-- system_addresses -->
<g id="node4" class="node">
<title>system_addresses</title>
<ellipse fill="none" stroke="black" cx="1786" cy="-306" rx="73.39" ry="18"/>
<text text-anchor="middle" x="1786" y="-302.3" font-family="Times,serif" font-size="14.00">system_addresses</text>
</g>
<!-- block&#45;&gt;system_addresses -->
<g id="edge3" class="edge">
<title>block&#45;&gt;system_addresses</title>
<path fill="none" stroke="black" d="M1808.22,-791.76C1812.17,-731.78 1822.98,-526.82 1800,-360 1798.87,-351.77 1796.88,-342.98 1794.75,-334.98"/>
<polygon fill="black" stroke="black" points="1798.13,-334.09 1792.02,-325.43 1791.4,-336 1798.13,-334.09"/>
</g>
<!-- event -->
<g id="node5" class="node">
<title>event</title>
<ellipse fill="none" stroke="black" cx="781" cy="-378" rx="29.8" ry="18"/>
<text text-anchor="middle" x="781" y="-374.3" font-family="Times,serif" font-size="14.00">event</text>
</g>
<!-- block&#45;&gt;event -->
<g id="edge4" class="edge">
<title>block&#45;&gt;event</title>
<path fill="none" stroke="black" d="M1776.03,-808.55C1591.87,-805.47 649,-783.97 649,-667 649,-667 649,-667 649,-521 649,-462.76 709.31,-418.37 748.4,-395.72"/>
<polygon fill="black" stroke="black" points="749.97,-398.85 756.99,-390.92 746.55,-392.74 749.97,-398.85"/>
</g>
<!-- account -->
<g id="node6" class="node">
<title>account</title>
<ellipse fill="none" stroke="black" cx="583" cy="-450" rx="38.19" ry="18"/>
<text text-anchor="middle" x="583" y="-446.3" font-family="Times,serif" font-size="14.00">account</text>
</g>
<!-- block&#45;&gt;account -->
<g id="edge5" class="edge">
<title>block&#45;&gt;account</title>
<path fill="none" stroke="black" d="M1776.3,-808.2C1541.39,-801.88 38,-757.89 38,-667 38,-667 38,-667 38,-593 38,-490.99 400.1,-460.93 534,-453.31"/>
<polygon fill="black" stroke="black" points="533.81,-456.82 543.6,-452.78 533.42,-449.83 533.81,-456.82"/>
</g>
<!-- timestamp -->
<g id="node7" class="node">
<title>timestamp</title>
<ellipse fill="none" stroke="black" cx="2052" cy="-594" rx="48.19" ry="18"/>
<text text-anchor="middle" x="2052" y="-590.3" font-family="Times,serif" font-size="14.00">timestamp</text>
</g>
<!-- block&#45;&gt;timestamp -->
<g id="edge6" class="edge">
<title>block&#45;&gt;timestamp</title>
<path fill="none" stroke="black" d="M1837.1,-805.87C1873.01,-800.8 1933.3,-787.9 1974,-756 2016.79,-722.46 2037.53,-659.51 2046.37,-623.05"/>
<polygon fill="black" stroke="black" points="2049.7,-624.22 2048.5,-613.69 2042.87,-622.67 2049.7,-624.22"/>
</g>
<!-- stake -->
<g id="node8" class="node">
<title>stake</title>
<ellipse fill="none" stroke="black" cx="1339" cy="-666" rx="28.7" ry="18"/>
<text text-anchor="middle" x="1339" y="-662.3" font-family="Times,serif" font-size="14.00">stake</text>
</g>
<!-- block&#45;&gt;stake -->
<g id="edge7" class="edge">
<title>block&#45;&gt;stake</title>
<path fill="none" stroke="black" d="M1780.16,-800.86C1700.62,-776.72 1466.12,-705.57 1375.41,-678.05"/>
<polygon fill="black" stroke="black" points="1376.62,-674.76 1366.03,-675.2 1374.58,-681.45 1376.62,-674.76"/>
</g>
<!-- state_storage -->
<g id="node9" class="node">
<title>state_storage</title>
<ellipse fill="none" stroke="black" cx="2099" cy="-378" rx="56.59" ry="18"/>
<text text-anchor="middle" x="2099" y="-374.3" font-family="Times,serif" font-size="14.00">state_storage</text>
</g>
<!-- block&#45;&gt;state_storage -->
<g id="edge8" class="edge">
<title>block&#45;&gt;state_storage</title>
<path fill="none" stroke="black" d="M1837.64,-807.05C1878.77,-803.11 1952.62,-791.29 2004,-756 2069.29,-711.16 2076.87,-684.4 2109,-612 2141.9,-537.87 2164.76,-508.9 2139,-432 2135.65,-421.99 2129.58,-412.37 2123.16,-404.13"/>
<polygon fill="black" stroke="black" points="2125.98,-402.04 2116.87,-396.63 2120.62,-406.54 2125.98,-402.04"/>
</g>
<!-- reconfiguration -->
<g id="node10" class="node">
<title>reconfiguration</title>
<ellipse fill="none" stroke="black" cx="1900" cy="-738" rx="64.99" ry="18"/>
<text text-anchor="middle" x="1900" y="-734.3" font-family="Times,serif" font-size="14.00">reconfiguration</text>
</g>
<!-- block&#45;&gt;reconfiguration -->
<g id="edge9" class="edge">
<title>block&#45;&gt;reconfiguration</title>
<path fill="none" stroke="black" d="M1825.37,-795.17C1837.88,-785.76 1854.73,-773.07 1869.26,-762.14"/>
<polygon fill="black" stroke="black" points="1871.31,-764.98 1877.19,-756.17 1867.1,-759.38 1871.31,-764.98"/>
</g>
<!-- vector -->
<g id="node11" class="node">
<title>vector</title>
<ellipse fill="none" stroke="black" cx="632" cy="-18" rx="32.49" ry="18"/>
<text text-anchor="middle" x="632" y="-14.3" font-family="Times,serif" font-size="14.00">vector</text>
</g>
<!-- option&#45;&gt;vector -->
<g id="edge10" class="edge">
<title>option&#45;&gt;vector</title>
<path fill="none" stroke="black" d="M534.01,-76.16C552.62,-65.31 579.5,-49.62 600.41,-37.43"/>
<polygon fill="black" stroke="black" points="601.95,-40.58 608.82,-32.52 598.42,-34.54 601.95,-40.58"/>
</g>
<!-- system_addresses&#45;&gt;error -->
<g id="edge12" class="edge">
<title>system_addresses&#45;&gt;error</title>
<path fill="none" stroke="black" d="M1786,-287.7C1786,-280.41 1786,-271.73 1786,-263.54"/>
<polygon fill="black" stroke="black" points="1789.5,-263.62 1786,-253.62 1782.5,-263.62 1789.5,-263.62"/>
</g>
<!-- signer -->
<g id="node12" class="node">
<title>signer</title>
<ellipse fill="none" stroke="black" cx="1270" cy="-234" rx="32.49" ry="18"/>
<text text-anchor="middle" x="1270" y="-230.3" font-family="Times,serif" font-size="14.00">signer</text>
</g>
<!-- system_addresses&#45;&gt;signer -->
<g id="edge11" class="edge">
<title>system_addresses&#45;&gt;signer</title>
<path fill="none" stroke="black" d="M1722.99,-296.45C1616.49,-282 1403.62,-253.13 1312.73,-240.8"/>
<polygon fill="black" stroke="black" points="1313.38,-237.35 1303,-239.48 1312.44,-244.29 1313.38,-237.35"/>
</g>
<!-- bcs -->
<g id="node13" class="node">
<title>bcs</title>
<ellipse fill="none" stroke="black" cx="567" cy="-234" rx="27" ry="18"/>
<text text-anchor="middle" x="567" y="-230.3" font-family="Times,serif" font-size="14.00">bcs</text>
</g>
<!-- event&#45;&gt;bcs -->
<g id="edge13" class="edge">
<title>event&#45;&gt;bcs</title>
<path fill="none" stroke="black" d="M782.05,-359.85C782.28,-339.94 779.49,-307.35 761,-288 720.46,-245.57 649.52,-236.01 605.58,-234.45"/>
<polygon fill="black" stroke="black" points="605.8,-230.95 595.73,-234.23 605.65,-237.95 605.8,-230.95"/>
</g>
<!-- guid -->
<g id="node14" class="node">
<title>guid</title>
<ellipse fill="none" stroke="black" cx="725" cy="-306" rx="27" ry="18"/>
<text text-anchor="middle" x="725" y="-302.3" font-family="Times,serif" font-size="14.00">guid</text>
</g>
<!-- event&#45;&gt;guid -->
<g id="edge14" class="edge">
<title>event&#45;&gt;guid</title>
<path fill="none" stroke="black" d="M768.57,-361.46C761.47,-352.58 752.4,-341.25 744.38,-331.22"/>
<polygon fill="black" stroke="black" points="747.32,-329.3 738.34,-323.67 741.85,-333.67 747.32,-329.3"/>
</g>
<!-- account&#45;&gt;option -->
<g id="edge16" class="edge">
<title>account&#45;&gt;option</title>
<path fill="none" stroke="black" d="M545.93,-445.46C487.39,-439.09 377.47,-423.71 351,-396 266.45,-307.47 419.63,-165.82 484.75,-112.36"/>
<polygon fill="black" stroke="black" points="486.94,-115.09 492.51,-106.08 482.53,-109.65 486.94,-115.09"/>
</g>
<!-- account&#45;&gt;error -->
<g id="edge20" class="edge">
<title>account&#45;&gt;error</title>
<path fill="none" stroke="black" d="M621.08,-447.27C738.38,-441.69 1093.06,-423 1205,-396 1287.16,-376.18 1302.98,-356.48 1381,-324 1418.88,-308.23 1426.6,-299.43 1466,-288 1564.87,-259.31 1685.72,-244.57 1746.73,-238.49"/>
<polygon fill="black" stroke="black" points="1746.99,-241.98 1756.61,-237.53 1746.32,-235.01 1746.99,-241.98"/>
</g>
<!-- account&#45;&gt;system_addresses -->
<g id="edge21" class="edge">
<title>account&#45;&gt;system_addresses</title>
<path fill="none" stroke="black" d="M621.05,-447.29C759.83,-440.92 1238.53,-417.86 1390,-396 1398.29,-394.8 1612.89,-346.25 1722.64,-321.37"/>
<polygon fill="black" stroke="black" points="1723.1,-324.86 1732.08,-319.23 1721.56,-318.03 1723.1,-324.86"/>
</g>
<!-- account&#45;&gt;event -->
<g id="edge28" class="edge">
<title>account&#45;&gt;event</title>
<path fill="none" stroke="black" d="M613.51,-438.87C644.66,-428.45 694.37,-411.56 737,-396 739.86,-394.96 742.81,-393.86 745.78,-392.74"/>
<polygon fill="black" stroke="black" points="746.88,-396.07 754.98,-389.23 744.39,-389.53 746.88,-396.07"/>
</g>
<!-- account&#45;&gt;vector -->
<g id="edge15" class="edge">
<title>account&#45;&gt;vector</title>
<path fill="none" stroke="black" d="M589.71,-431.83C603.13,-395.9 632,-309.89 632,-235 632,-235 632,-235 632,-161 632,-121.74 632,-76.38 632,-47.69"/>
<polygon fill="black" stroke="black" points="635.5,-48 632,-38 628.5,-48 635.5,-48"/>
</g>
<!-- account&#45;&gt;signer -->
<g id="edge19" class="edge">
<title>account&#45;&gt;signer</title>
<path fill="none" stroke="black" d="M596.04,-432.6C604.07,-422.28 614.44,-408.58 623,-396 654.65,-349.49 641.24,-317.72 689,-288 734.29,-259.82 1098.51,-242.13 1226.07,-236.75"/>
<polygon fill="black" stroke="black" points="1225.95,-240.25 1235.79,-236.34 1225.66,-233.26 1225.95,-240.25"/>
</g>
<!-- account&#45;&gt;bcs -->
<g id="edge23" class="edge">
<title>account&#45;&gt;bcs</title>
<path fill="none" stroke="black" d="M581.72,-431.85C578.97,-395.14 572.51,-308.66 569.13,-263.53"/>
<polygon fill="black" stroke="black" points="572.64,-263.45 568.4,-253.74 565.66,-263.97 572.64,-263.45"/>
</g>
<!-- account&#45;&gt;guid -->
<g id="edge26" class="edge">
<title>account&#45;&gt;guid</title>
<path fill="none" stroke="black" d="M607.12,-435.65C623.41,-425.93 644.81,-411.76 661,-396 680.44,-377.07 698.08,-351.61 709.9,-332.78"/>
<polygon fill="black" stroke="black" points="712.81,-334.72 715.04,-324.37 706.84,-331.07 712.81,-334.72"/>
</g>
<!-- type_info -->
<g id="node15" class="node">
<title>type_info</title>
<ellipse fill="none" stroke="black" cx="292" cy="-234" rx="44.39" ry="18"/>
<text text-anchor="middle" x="292" y="-230.3" font-family="Times,serif" font-size="14.00">type_info</text>
</g>
<!-- account&#45;&gt;type_info -->
<g id="edge17" class="edge">
<title>account&#45;&gt;type_info</title>
<path fill="none" stroke="black" d="M544.59,-448.81C465.6,-447.51 289.24,-439.68 252,-396 220.86,-359.47 236.75,-333.51 252,-288 255.41,-277.83 261.62,-268.06 268.14,-259.73"/>
<polygon fill="black" stroke="black" points="270.76,-262.06 274.54,-252.16 265.41,-257.54 270.76,-262.06"/>
</g>
<!-- table -->
<g id="node16" class="node">
<title>table</title>
<ellipse fill="none" stroke="black" cx="874" cy="-306" rx="27.9" ry="18"/>
<text text-anchor="middle" x="874" y="-302.3" font-family="Times,serif" font-size="14.00">table</text>
</g>
<!-- account&#45;&gt;table -->
<g id="edge18" class="edge">
<title>account&#45;&gt;table</title>
<path fill="none" stroke="black" d="M609.65,-436.88C631.41,-426.71 662.73,-411.4 689,-396 713.57,-381.6 716.86,-373.38 742,-360 773.61,-343.17 811.77,-328.4 838.91,-318.76"/>
<polygon fill="black" stroke="black" points="839.74,-322.17 848.03,-315.57 837.43,-315.57 839.74,-322.17"/>
</g>
<!-- hash -->
<g id="node17" class="node">
<title>hash</title>
<ellipse fill="none" stroke="black" cx="419" cy="-234" rx="27" ry="18"/>
<text text-anchor="middle" x="419" y="-230.3" font-family="Times,serif" font-size="14.00">hash</text>
</g>
<!-- account&#45;&gt;hash -->
<g id="edge22" class="edge">
<title>account&#45;&gt;hash</title>
<path fill="none" stroke="black" d="M545.11,-446.94C503.59,-442.9 436.93,-431 392,-396 351.5,-364.44 328.47,-334.13 351,-288 358.72,-272.2 373.67,-259.74 387.6,-250.88"/>
<polygon fill="black" stroke="black" points="389.3,-253.94 396.13,-245.84 385.74,-247.91 389.3,-253.94"/>
</g>
<!-- ed25519 -->
<g id="node18" class="node">
<title>ed25519</title>
<ellipse fill="none" stroke="black" cx="411" cy="-306" rx="40.89" ry="18"/>
<text text-anchor="middle" x="411" y="-302.3" font-family="Times,serif" font-size="14.00">ed25519</text>
</g>
<!-- account&#45;&gt;ed25519 -->
<g id="edge24" class="edge">
<title>account&#45;&gt;ed25519</title>
<path fill="none" stroke="black" d="M547.28,-443.41C500.64,-435.3 422.9,-418.71 406,-396 393.14,-378.73 395.74,-353.94 400.79,-334.91"/>
<polygon fill="black" stroke="black" points="404.13,-335.96 403.69,-325.37 397.43,-333.92 404.13,-335.96"/>
</g>
<!-- multi_ed25519 -->
<g id="node19" class="node">
<title>multi_ed25519</title>
<ellipse fill="none" stroke="black" cx="479" cy="-378" rx="64.19" ry="18"/>
<text text-anchor="middle" x="479" y="-374.3" font-family="Times,serif" font-size="14.00">multi_ed25519</text>
</g>
<!-- account&#45;&gt;multi_ed25519 -->
<g id="edge25" class="edge">
<title>account&#45;&gt;multi_ed25519</title>
<path fill="none" stroke="black" d="M561.7,-434.67C547.4,-425.04 528.26,-412.15 512,-401.21"/>
<polygon fill="black" stroke="black" points="514.32,-398.55 504.07,-395.87 510.41,-404.36 514.32,-398.55"/>
</g>
<!-- from_bcs -->
<g id="node20" class="node">
<title>from_bcs</title>
<ellipse fill="none" stroke="black" cx="186" cy="-234" rx="44.39" ry="18"/>
<text text-anchor="middle" x="186" y="-230.3" font-family="Times,serif" font-size="14.00">from_bcs</text>
</g>
<!-- account&#45;&gt;from_bcs -->
<g id="edge27" class="edge">
<title>account&#45;&gt;from_bcs</title>
<path fill="none" stroke="black" d="M544.53,-448.36C462.89,-446.22 275.98,-436.86 230,-396 192.35,-362.54 185.54,-300.28 185.05,-263.76"/>
<polygon fill="black" stroke="black" points="188.55,-263.97 185.09,-253.96 181.55,-263.94 188.55,-263.97"/>
</g>
<!-- timestamp&#45;&gt;error -->
<g id="edge29" class="edge">
<title>timestamp&#45;&gt;error</title>
<path fill="none" stroke="black" d="M2087.22,-581.5C2137.02,-562.77 2222,-520.6 2222,-451 2222,-451 2222,-451 2222,-377 2222,-293.84 1931.63,-251.84 1824.82,-239.2"/>
<polygon fill="black" stroke="black" points="1825.44,-235.75 1815.11,-238.08 1824.64,-242.71 1825.44,-235.75"/>
</g>
<!-- timestamp&#45;&gt;system_addresses -->
<g id="edge30" class="edge">
<title>timestamp&#45;&gt;system_addresses</title>
<path fill="none" stroke="black" d="M2042.37,-575.98C2018.48,-534.86 1952.82,-428.48 1876,-360 1862.01,-347.53 1844.64,-336.49 1828.91,-327.76"/>
<polygon fill="black" stroke="black" points="1830.66,-324.72 1820.19,-323.08 1827.35,-330.89 1830.66,-324.72"/>
</g>
<!-- stake&#45;&gt;option -->
<g id="edge32" class="edge">
<title>stake&#45;&gt;option</title>
<path fill="none" stroke="black" d="M1310.1,-664.37C1140.49,-660.11 275.13,-630.56 78,-468 44.54,-440.41 38,-422.37 38,-379 38,-379 38,-379 38,-233 38,-143.82 349.77,-105.89 467.61,-94.74"/>
<polygon fill="black" stroke="black" points="467.9,-98.23 477.54,-93.83 467.26,-91.26 467.9,-98.23"/>
</g>
<!-- stake&#45;&gt;error -->
<g id="edge34" class="edge">
<title>stake&#45;&gt;error</title>
<path fill="none" stroke="black" d="M1367.52,-662.92C1443.33,-657.06 1648.27,-639.11 1710,-612 1756.27,-591.68 1768.15,-580.77 1798,-540 1867.91,-444.51 1944.59,-389.65 1884,-288 1870.78,-265.83 1844.71,-252.37 1822.78,-244.56"/>
<polygon fill="black" stroke="black" points="1824.14,-241.32 1813.54,-241.55 1821.97,-247.98 1824.14,-241.32"/>
</g>
<!-- stake&#45;&gt;system_addresses -->
<g id="edge35" class="edge">
<title>stake&#45;&gt;system_addresses</title>
<path fill="none" stroke="black" d="M1367.3,-662.23C1465.56,-651.85 1786,-611.25 1786,-523 1786,-523 1786,-523 1786,-449 1786,-409.74 1786,-364.38 1786,-335.69"/>
<polygon fill="black" stroke="black" points="1789.5,-336 1786,-326 1782.5,-336 1789.5,-336"/>
</g>
<!-- stake&#45;&gt;event -->
<g id="edge36" class="edge">
<title>stake&#45;&gt;event</title>
<path fill="none" stroke="black" d="M1310.26,-664.31C1203.5,-661.45 834.04,-648.94 798,-612 744.36,-557.02 760.78,-455.87 772.96,-406.95"/>
<polygon fill="black" stroke="black" points="776.3,-408 775.46,-397.43 769.53,-406.22 776.3,-408"/>
</g>
<!-- stake&#45;&gt;account -->
<g id="edge37" class="edge">
<title>stake&#45;&gt;account</title>
<path fill="none" stroke="black" d="M1309.88,-664.93C1205.46,-664.28 850.67,-658.61 749,-612 683,-581.74 627.41,-513.89 600.46,-476.66"/>
<polygon fill="black" stroke="black" points="603.45,-474.83 594.81,-468.7 597.74,-478.88 603.45,-474.83"/>
</g>
<!-- stake&#45;&gt;timestamp -->
<g id="edge40" class="edge">
<title>stake&#45;&gt;timestamp</title>
<path fill="none" stroke="black" d="M1367.39,-662.21C1473.68,-651.78 1849.41,-614.89 1994.37,-600.66"/>
<polygon fill="black" stroke="black" points="1994.51,-604.16 2004.12,-599.7 1993.83,-597.19 1994.51,-604.16"/>
</g>
<!-- stake&#45;&gt;vector -->
<g id="edge31" class="edge">
<title>stake&#45;&gt;vector</title>
<path fill="none" stroke="black" d="M1367.96,-665.28C1490.95,-666.11 1969.96,-665.77 2109,-612 2279.79,-545.95 2386,-490.12 2386,-307 2386,-307 2386,-307 2386,-161 2386,-72.48 947.89,-27.84 676.04,-20.19"/>
<polygon fill="black" stroke="black" points="676.31,-16.7 666.22,-19.92 676.11,-23.7 676.31,-16.7"/>
</g>
<!-- stake&#45;&gt;signer -->
<g id="edge33" class="edge">
<title>stake&#45;&gt;signer</title>
<path fill="none" stroke="black" d="M1319.64,-652.22C1306.72,-642.66 1290.43,-628.45 1281,-612 1260.89,-576.91 1262,-563.45 1262,-523 1262,-523 1262,-523 1262,-377 1262,-337.68 1265.1,-292.33 1267.44,-263.67"/>
<polygon fill="black" stroke="black" points="1270.9,-264.24 1268.25,-253.98 1263.92,-263.65 1270.9,-264.24"/>
</g>
<!-- coin -->
<g id="node21" class="node">
<title>coin</title>
<ellipse fill="none" stroke="black" cx="856" cy="-522" rx="27" ry="18"/>
<text text-anchor="middle" x="856" y="-518.3" font-family="Times,serif" font-size="14.00">coin</text>
</g>
<!-- stake&#45;&gt;coin -->
<g id="edge38" class="edge">
<title>stake&#45;&gt;coin</title>
<path fill="none" stroke="black" d="M1310.04,-663.81C1228.8,-660.08 1000.38,-646.68 935,-612 907.71,-597.52 885.34,-569.59 871.47,-548.87"/>
<polygon fill="black" stroke="black" points="874.52,-547.15 866.17,-540.63 868.63,-550.94 874.52,-547.15"/>
</g>
<!-- aptos_coin -->
<g id="node22" class="node">
<title>aptos_coin</title>
<ellipse fill="none" stroke="black" cx="1339" cy="-594" rx="48.99" ry="18"/>
<text text-anchor="middle" x="1339" y="-590.3" font-family="Times,serif" font-size="14.00">aptos_coin</text>
</g>
<!-- stake&#45;&gt;aptos_coin -->
<g id="edge39" class="edge">
<title>stake&#45;&gt;aptos_coin</title>
<path fill="none" stroke="black" d="M1339,-647.7C1339,-640.41 1339,-631.73 1339,-623.54"/>
<polygon fill="black" stroke="black" points="1342.5,-623.62 1339,-613.62 1335.5,-623.62 1342.5,-623.62"/>
</g>
<!-- staking_config -->
<g id="node23" class="node">
<title>staking_config</title>
<ellipse fill="none" stroke="black" cx="1657" cy="-378" rx="63.09" ry="18"/>
<text text-anchor="middle" x="1657" y="-374.3" font-family="Times,serif" font-size="14.00">staking_config</text>
</g>
<!-- stake&#45;&gt;staking_config -->
<g id="edge41" class="edge">
<title>stake&#45;&gt;staking_config</title>
<path fill="none" stroke="black" d="M1363.07,-655.87C1419.45,-633.21 1560.69,-568.87 1633,-468 1645.7,-450.29 1651.68,-426.24 1654.49,-407.6"/>
<polygon fill="black" stroke="black" points="1657.95,-408.12 1655.74,-397.76 1651.01,-407.24 1657.95,-408.12"/>
</g>
<!-- math64 -->
<g id="node24" class="node">
<title>math64</title>
<ellipse fill="none" stroke="black" cx="845" cy="-594" rx="37.89" ry="18"/>
<text text-anchor="middle" x="845" y="-590.3" font-family="Times,serif" font-size="14.00">math64</text>
</g>
<!-- stake&#45;&gt;math64 -->
<g id="edge42" class="edge">
<title>stake&#45;&gt;math64</title>
<path fill="none" stroke="black" d="M1310.23,-663.51C1239.29,-659.42 1050.57,-645.96 897,-612 893.17,-611.15 889.23,-610.14 885.31,-609.03"/>
<polygon fill="black" stroke="black" points="886.45,-605.72 875.87,-606.17 884.42,-612.42 886.45,-605.72"/>
</g>
<!-- bls12381 -->
<g id="node25" class="node">
<title>bls12381</title>
<ellipse fill="none" stroke="black" cx="1039" cy="-306" rx="42.79" ry="18"/>
<text text-anchor="middle" x="1039" y="-302.3" font-family="Times,serif" font-size="14.00">bls12381</text>
</g>
<!-- stake&#45;&gt;bls12381 -->
<g id="edge43" class="edge">
<title>stake&#45;&gt;bls12381</title>
<path fill="none" stroke="black" d="M1311.21,-660.61C1237.53,-647.3 1037.38,-599.9 957,-468 928.11,-420.59 978.37,-361.77 1012.14,-329.99"/>
<polygon fill="black" stroke="black" points="1014.18,-332.87 1019.19,-323.53 1009.45,-327.7 1014.18,-332.87"/>
</g>
<!-- state_storage&#45;&gt;error -->
<g id="edge44" class="edge">
<title>state_storage&#45;&gt;error</title>
<path fill="none" stroke="black" d="M2076.5,-361.06C2048.43,-341.73 1998.44,-309.12 1952,-288 1909.2,-268.54 1857.18,-253.17 1822.91,-244.1"/>
<polygon fill="black" stroke="black" points="1824.03,-240.78 1813.47,-241.65 1822.27,-247.55 1824.03,-240.78"/>
</g>
<!-- state_storage&#45;&gt;system_addresses -->
<g id="edge45" class="edge">
<title>state_storage&#45;&gt;system_addresses</title>
<path fill="none" stroke="black" d="M2055.1,-366.35C2046.14,-364.21 2036.77,-362.01 2028,-360 1968.1,-346.27 1899.69,-331.36 1850.92,-320.86"/>
<polygon fill="black" stroke="black" points="1851.88,-317.49 1841.37,-318.81 1850.41,-324.33 1851.88,-317.49"/>
</g>
<!-- reconfiguration&#45;&gt;error -->
<g id="edge47" class="edge">
<title>reconfiguration&#45;&gt;error</title>
<path fill="none" stroke="black" d="M1954.22,-727.67C1969.05,-725.15 1985.14,-722.44 2000,-720 2100.8,-703.44 2133.79,-725.79 2227,-684 2370.14,-619.82 2438.18,-499.79 2367,-360 2342.31,-311.52 2318.74,-307.63 2268,-288 2187.27,-256.77 1925.22,-241.51 1825.25,-236.72"/>
<polygon fill="black" stroke="black" points="1825.55,-233.23 1815.39,-236.26 1825.22,-240.22 1825.55,-233.23"/>
</g>
<!-- reconfiguration&#45;&gt;system_addresses -->
<g id="edge48" class="edge">
<title>reconfiguration&#45;&gt;system_addresses</title>
<path fill="none" stroke="black" d="M1900.8,-719.69C1902.63,-664.03 1902.77,-485.94 1838,-360 1832.56,-349.42 1824.29,-339.59 1815.93,-331.33"/>
<polygon fill="black" stroke="black" points="1818.47,-328.91 1808.76,-324.67 1813.7,-334.04 1818.47,-328.91"/>
</g>
<!-- reconfiguration&#45;&gt;event -->
<g id="edge49" class="edge">
<title>reconfiguration&#45;&gt;event</title>
<path fill="none" stroke="black" d="M1836.01,-734.31C1608.67,-724.17 849.4,-685.07 771,-612 712.32,-557.31 740.61,-510.3 758,-432 759.94,-423.25 763.33,-414.15 766.92,-406.01"/>
<polygon fill="black" stroke="black" points="770.07,-407.53 771.18,-397 763.74,-404.55 770.07,-407.53"/>
</g>
<!-- reconfiguration&#45;&gt;account -->
<g id="edge50" class="edge">
<title>reconfiguration&#45;&gt;account</title>
<path fill="none" stroke="black" d="M1835.18,-736.16C1588.61,-732.69 720.52,-718.12 673,-684 605.96,-635.87 588.86,-530.54 584.49,-479.65"/>
<polygon fill="black" stroke="black" points="587.99,-479.46 583.77,-469.74 581.01,-479.97 587.99,-479.46"/>
</g>
<!-- reconfiguration&#45;&gt;timestamp -->
<g id="edge52" class="edge">
<title>reconfiguration&#45;&gt;timestamp</title>
<path fill="none" stroke="black" d="M1932.66,-722.11C1950.83,-712.82 1973.11,-699.65 1990,-684 2009.46,-665.97 2026.28,-640.82 2037.48,-621.86"/>
<polygon fill="black" stroke="black" points="2040.41,-623.77 2042.34,-613.36 2034.34,-620.3 2040.41,-623.77"/>
</g>
<!-- reconfiguration&#45;&gt;stake -->
<g id="edge53" class="edge">
<title>reconfiguration&#45;&gt;stake</title>
<path fill="none" stroke="black" d="M1841.55,-729.71C1727.06,-715.42 1475.93,-684.09 1378.62,-671.94"/>
<polygon fill="black" stroke="black" points="1379.13,-668.48 1368.77,-670.71 1378.26,-675.43 1379.13,-668.48"/>
</g>
<!-- reconfiguration&#45;&gt;signer -->
<g id="edge46" class="edge">
<title>reconfiguration&#45;&gt;signer</title>
<path fill="none" stroke="black" d="M1879.4,-720.58C1785.94,-646.11 1401.88,-340.09 1296.73,-256.3"/>
<polygon fill="black" stroke="black" points="1299.17,-253.77 1289.17,-250.27 1294.81,-259.24 1299.17,-253.77"/>
</g>
<!-- chain_status -->
<g id="node26" class="node">
<title>chain_status</title>
<ellipse fill="none" stroke="black" cx="2304" cy="-378" rx="53.89" ry="18"/>
<text text-anchor="middle" x="2304" y="-374.3" font-family="Times,serif" font-size="14.00">chain_status</text>
</g>
<!-- reconfiguration&#45;&gt;chain_status -->
<g id="edge51" class="edge">
<title>reconfiguration&#45;&gt;chain_status</title>
<path fill="none" stroke="black" d="M1957.03,-729.13C2068.39,-712.16 2304,-667.67 2304,-595 2304,-595 2304,-595 2304,-521 2304,-481.74 2304,-436.38 2304,-407.69"/>
<polygon fill="black" stroke="black" points="2307.5,-408 2304,-398 2300.5,-408 2307.5,-408"/>
</g>
<!-- storage_gas -->
<g id="node27" class="node">
<title>storage_gas</title>
<ellipse fill="none" stroke="black" cx="2078" cy="-450" rx="51.99" ry="18"/>
<text text-anchor="middle" x="2078" y="-446.3" font-family="Times,serif" font-size="14.00">storage_gas</text>
</g>
<!-- reconfiguration&#45;&gt;storage_gas -->
<g id="edge54" class="edge">
<title>reconfiguration&#45;&gt;storage_gas</title>
<path fill="none" stroke="black" d="M1909.69,-719.9C1926.56,-690.3 1962.61,-627.71 1995,-576 2016.73,-541.31 2043.06,-502.11 2060.15,-477.01"/>
<polygon fill="black" stroke="black" points="2062.83,-479.28 2065.58,-469.05 2057.05,-475.33 2062.83,-479.28"/>
</g>
<!-- string -->
<g id="node28" class="node">
<title>string</title>
<ellipse fill="none" stroke="black" cx="239" cy="-162" rx="30.59" ry="18"/>
<text text-anchor="middle" x="239" y="-158.3" font-family="Times,serif" font-size="14.00">string</text>
</g>
<!-- type_info&#45;&gt;string -->
<g id="edge55" class="edge">
<title>type_info&#45;&gt;string</title>
<path fill="none" stroke="black" d="M279.44,-216.41C273.01,-207.92 265.05,-197.41 257.9,-187.96"/>
<polygon fill="black" stroke="black" points="260.85,-186.05 252.02,-180.19 255.26,-190.28 260.85,-186.05"/>
</g>
<!-- ed25519&#45;&gt;option -->
<g id="edge56" class="edge">
<title>ed25519&#45;&gt;option</title>
<path fill="none" stroke="black" d="M426.9,-288.95C436.09,-278.97 447.32,-265.52 455,-252 468.2,-228.77 491.06,-158.46 503.44,-118.87"/>
<polygon fill="black" stroke="black" points="506.71,-120.15 506.33,-109.56 500.02,-118.07 506.71,-120.15"/>
</g>
<!-- ed25519&#45;&gt;error -->
<g id="edge58" class="edge">
<title>ed25519&#45;&gt;error</title>
<path fill="none" stroke="black" d="M450.22,-300.42C484.43,-296.58 535.44,-291.22 580,-288 814.72,-271.05 1565.75,-243.05 1746.57,-236.43"/>
<polygon fill="black" stroke="black" points="1746.5,-239.94 1756.36,-236.08 1746.24,-232.94 1746.5,-239.94"/>
</g>
<!-- ed25519&#45;&gt;bcs -->
<g id="edge60" class="edge">
<title>ed25519&#45;&gt;bcs</title>
<path fill="none" stroke="black" d="M438.89,-292.49C465.78,-280.42 506.44,-262.17 534.72,-249.49"/>
<polygon fill="black" stroke="black" points="535.82,-252.83 543.51,-245.54 532.96,-246.44 535.82,-252.83"/>
</g>
<!-- ed25519&#45;&gt;type_info -->
<g id="edge57" class="edge">
<title>ed25519&#45;&gt;type_info</title>
<path fill="none" stroke="black" d="M387.2,-291C369.76,-280.74 345.82,-266.66 326.31,-255.18"/>
<polygon fill="black" stroke="black" points="328.27,-252.28 317.88,-250.22 324.72,-258.31 328.27,-252.28"/>
</g>
<!-- ed25519&#45;&gt;hash -->
<g id="edge59" class="edge">
<title>ed25519&#45;&gt;hash</title>
<path fill="none" stroke="black" d="M412.98,-287.7C413.81,-280.41 414.8,-271.73 415.74,-263.54"/>
<polygon fill="black" stroke="black" points="419.22,-263.94 416.87,-253.61 412.26,-263.15 419.22,-263.94"/>
</g>
<!-- multi_ed25519&#45;&gt;option -->
<g id="edge61" class="edge">
<title>multi_ed25519&#45;&gt;option</title>
<path fill="none" stroke="black" d="M481.01,-359.54C486.53,-311.76 501.9,-178.51 508.7,-119.61"/>
<polygon fill="black" stroke="black" points="512.17,-120.07 509.84,-109.74 505.21,-119.27 512.17,-120.07"/>
</g>
<!-- multi_ed25519&#45;&gt;error -->
<g id="edge62" class="edge">
<title>multi_ed25519&#45;&gt;error</title>
<path fill="none" stroke="black" d="M506.8,-361.44C546.02,-340.39 620.48,-303.65 689,-288 741.52,-276 1556.46,-243.87 1746.57,-236.52"/>
<polygon fill="black" stroke="black" points="1746.55,-240.02 1756.41,-236.14 1746.28,-233.02 1746.55,-240.02"/>
</g>
<!-- multi_ed25519&#45;&gt;bcs -->
<g id="edge64" class="edge">
<title>multi_ed25519&#45;&gt;bcs</title>
<path fill="none" stroke="black" d="M489.61,-359.87C504.92,-335.17 533.31,-289.36 551.12,-260.62"/>
<polygon fill="black" stroke="black" points="554.07,-262.51 556.36,-252.17 548.12,-258.82 554.07,-262.51"/>
</g>
<!-- multi_ed25519&#45;&gt;hash -->
<g id="edge63" class="edge">
<title>multi_ed25519&#45;&gt;hash</title>
<path fill="none" stroke="black" d="M426.87,-367.18C402.48,-359.69 375.64,-346.63 361,-324 352.31,-310.57 354.55,-302.64 361,-288 367.1,-274.15 378.81,-262.35 390.12,-253.43"/>
<polygon fill="black" stroke="black" points="392.18,-256.26 398.17,-247.52 388.03,-250.62 392.18,-256.26"/>
</g>
<!-- multi_ed25519&#45;&gt;ed25519 -->
<g id="edge65" class="edge">
<title>multi_ed25519&#45;&gt;ed25519</title>
<path fill="none" stroke="black" d="M462.88,-360.41C454.38,-351.66 443.79,-340.75 434.39,-331.08"/>
<polygon fill="black" stroke="black" points="437.06,-328.81 427.59,-324.07 432.04,-333.69 437.06,-328.81"/>
</g>
<!-- from_bcs&#45;&gt;string -->
<g id="edge66" class="edge">
<title>from_bcs&#45;&gt;string</title>
<path fill="none" stroke="black" d="M198.56,-216.41C204.99,-207.92 212.95,-197.41 220.1,-187.96"/>
<polygon fill="black" stroke="black" points="222.74,-190.28 225.98,-180.19 217.15,-186.05 222.74,-190.28"/>
</g>
<!-- coin&#45;&gt;option -->
<g id="edge67" class="edge">
<title>coin&#45;&gt;option</title>
<path fill="none" stroke="black" d="M855.11,-503.58C852.09,-461.57 838.99,-353.35 783,-288 712.42,-205.63 600.87,-138.73 545.49,-108.47"/>
<polygon fill="black" stroke="black" points="547.3,-105.47 536.84,-103.8 543.97,-111.63 547.3,-105.47"/>
</g>
<!-- coin&#45;&gt;error -->
<g id="edge71" class="edge">
<title>coin&#45;&gt;error</title>
<path fill="none" stroke="black" d="M882.58,-517.6C937.42,-510.35 1066.97,-492.07 1174,-468 1288.06,-442.35 1317.16,-436.02 1427,-396 1491.84,-372.37 1677.98,-285.74 1753.54,-250.28"/>
<polygon fill="black" stroke="black" points="1754.93,-253.5 1762.49,-246.08 1751.95,-247.16 1754.93,-253.5"/>
</g>
<!-- coin&#45;&gt;system_addresses -->
<g id="edge72" class="edge">
<title>coin&#45;&gt;system_addresses</title>
<path fill="none" stroke="black" d="M883.29,-520.52C958.86,-518.67 1176.79,-509.83 1352,-468 1439.84,-447.03 1464.07,-441.62 1542,-396 1563.51,-383.41 1562.86,-371.45 1585,-360 1624.91,-339.35 1673.54,-326.25 1712.97,-318.24"/>
<polygon fill="black" stroke="black" points="1713.47,-321.71 1722.61,-316.36 1712.13,-314.84 1713.47,-321.71"/>
</g>
<!-- coin&#45;&gt;event -->
<g id="edge73" class="edge">
<title>coin&#45;&gt;event</title>
<path fill="none" stroke="black" d="M846.21,-504.93C839.95,-494.51 831.78,-480.58 825,-468 813.9,-447.39 802.19,-423.6 793.65,-405.8"/>
<polygon fill="black" stroke="black" points="796.89,-404.46 789.42,-396.95 790.57,-407.48 796.89,-404.46"/>
</g>
<!-- coin&#45;&gt;account -->
<g id="edge74" class="edge">
<title>coin&#45;&gt;account</title>
<path fill="none" stroke="black" d="M834.12,-511.13C828.01,-508.59 821.31,-506.01 815,-504 751.91,-483.87 676.88,-468.17 629.59,-459.25"/>
<polygon fill="black" stroke="black" points="630.44,-455.84 619.96,-457.45 629.15,-462.73 630.44,-455.84"/>
</g>
<!-- coin&#45;&gt;signer -->
<g id="edge70" class="edge">
<title>coin&#45;&gt;signer</title>
<path fill="none" stroke="black" d="M883.4,-521.3C935.91,-520.74 1052.92,-513.95 1137,-468 1219.47,-422.92 1212.6,-375.07 1248,-288 1251.41,-279.62 1255.16,-270.53 1258.59,-262.27"/>
<polygon fill="black" stroke="black" points="1261.8,-263.66 1262.42,-253.08 1255.34,-260.97 1261.8,-263.66"/>
</g>
<!-- coin&#45;&gt;type_info -->
<g id="edge69" class="edge">
<title>coin&#45;&gt;type_info</title>
<path fill="none" stroke="black" d="M834.24,-510.73C828.13,-508.19 821.4,-505.71 815,-504 687.27,-469.93 312.08,-499.63 230,-396 220.36,-383.83 223.45,-312.18 235,-288 240.71,-276.05 250.4,-265.48 260.19,-256.99"/>
<polygon fill="black" stroke="black" points="262.34,-259.75 267.91,-250.75 257.94,-254.31 262.34,-259.75"/>
</g>
<!-- coin&#45;&gt;string -->
<g id="edge68" class="edge">
<title>coin&#45;&gt;string</title>
<path fill="none" stroke="black" d="M834.73,-510.64C828.51,-508.04 821.6,-505.55 815,-504 582.1,-449.47 507.75,-534.58 278,-468 198.35,-444.92 114,-461.93 114,-379 114,-379 114,-379 114,-305 114,-264.55 108.24,-247.98 133,-216 149.67,-194.47 177.43,-181.03 200.36,-173.08"/>
<polygon fill="black" stroke="black" points="201.28,-176.46 209.72,-170.07 199.13,-169.8 201.28,-176.46"/>
</g>
<!-- optional_aggregator -->
<g id="node29" class="node">
<title>optional_aggregator</title>
<ellipse fill="none" stroke="black" cx="1047" cy="-450" rx="81.49" ry="18"/>
<text text-anchor="middle" x="1047" y="-446.3" font-family="Times,serif" font-size="14.00">optional_aggregator</text>
</g>
<!-- coin&#45;&gt;optional_aggregator -->
<g id="edge75" class="edge">
<title>coin&#45;&gt;optional_aggregator</title>
<path fill="none" stroke="black" d="M879.42,-512.42C908.28,-501.84 958.15,-483.56 996,-469.69"/>
<polygon fill="black" stroke="black" points="996.73,-473.15 1004.91,-466.42 994.32,-466.58 996.73,-473.15"/>
</g>
<!-- aptos_coin&#45;&gt;option -->
<g id="edge77" class="edge">
<title>aptos_coin&#45;&gt;option</title>
<path fill="none" stroke="black" d="M1290.14,-591.41C1208.9,-586.05 1046.17,-563.27 957,-468 900.57,-407.72 961.63,-353.23 911,-288 819.03,-169.51 637.05,-117.43 554.5,-99.19"/>
<polygon fill="black" stroke="black" points="555.29,-95.78 544.78,-97.11 553.82,-102.62 555.29,-95.78"/>
</g>
<!-- aptos_coin&#45;&gt;error -->
<g id="edge80" class="edge">
<title>aptos_coin&#45;&gt;error</title>
<path fill="none" stroke="black" d="M1384.67,-587.3C1494.89,-570.71 1773.31,-511.07 1868,-324 1875.23,-309.72 1875.65,-302.05 1868,-288 1857.84,-269.33 1837.96,-256.24 1820.32,-247.73"/>
<polygon fill="black" stroke="black" points="1822.22,-244.75 1811.66,-243.87 1819.37,-251.14 1822.22,-244.75"/>
</g>
<!-- aptos_coin&#45;&gt;system_addresses -->
<g id="edge81" class="edge">
<title>aptos_coin&#45;&gt;system_addresses</title>
<path fill="none" stroke="black" d="M1375.89,-581.75C1449.96,-557.71 1619.07,-495.26 1729,-396 1748.1,-378.75 1763.38,-353.69 1773.29,-334.55"/>
<polygon fill="black" stroke="black" points="1776.38,-336.21 1777.69,-325.7 1770.11,-333.1 1776.38,-336.21"/>
</g>
<!-- aptos_coin&#45;&gt;vector -->
<g id="edge76" class="edge">
<title>aptos_coin&#45;&gt;vector</title>
<path fill="none" stroke="black" d="M1338.9,-575.59C1338.64,-530.95 1338,-408.79 1338,-307 1338,-307 1338,-307 1338,-161 1338,-25.29 830.28,-17.63 675.96,-18.44"/>
<polygon fill="black" stroke="black" points="676.12,-14.94 666.15,-18.51 676.17,-21.94 676.12,-14.94"/>
</g>
<!-- aptos_coin&#45;&gt;signer -->
<g id="edge79" class="edge">
<title>aptos_coin&#45;&gt;signer</title>
<path fill="none" stroke="black" d="M1331.11,-575.93C1319.71,-549.67 1300,-497.53 1300,-451 1300,-451 1300,-451 1300,-377 1300,-336.47 1288.16,-290.82 1279.35,-262.48"/>
<polygon fill="black" stroke="black" points="1282.78,-261.7 1276.39,-253.25 1276.12,-263.84 1282.78,-261.7"/>
</g>
<!-- aptos_coin&#45;&gt;coin -->
<g id="edge82" class="edge">
<title>aptos_coin&#45;&gt;coin</title>
<path fill="none" stroke="black" d="M1290.12,-591.49C1207.75,-587.99 1036.62,-576.57 897,-540 894.2,-539.27 891.33,-538.38 888.48,-537.4"/>
<polygon fill="black" stroke="black" points="889.75,-534.14 879.16,-533.85 887.26,-540.68 889.75,-534.14"/>
</g>
<!-- aptos_coin&#45;&gt;string -->
<g id="edge78" class="edge">
<title>aptos_coin&#45;&gt;string</title>
<path fill="none" stroke="black" d="M1292.12,-588.25C1201.1,-579.03 994.1,-558 820,-540 483.47,-505.21 76,-717.32 76,-379 76,-379 76,-379 76,-305 76,-262.5 81.21,-246.32 111,-216 134.7,-191.87 170.99,-178.26 198.88,-170.89"/>
<polygon fill="black" stroke="black" points="199.53,-174.33 208.41,-168.55 197.86,-167.54 199.53,-174.33"/>
</g>
<!-- staking_config&#45;&gt;error -->
<g id="edge83" class="edge">
<title>staking_config&#45;&gt;error</title>
<path fill="none" stroke="black" d="M1663.08,-359.67C1670.46,-340.46 1684.41,-309.39 1704,-288 1718.13,-272.57 1737.68,-259.71 1754.16,-250.51"/>
<polygon fill="black" stroke="black" points="1755.44,-253.8 1762.6,-245.99 1752.14,-247.63 1755.44,-253.8"/>
</g>
<!-- staking_config&#45;&gt;system_addresses -->
<g id="edge84" class="edge">
<title>staking_config&#45;&gt;system_addresses</title>
<path fill="none" stroke="black" d="M1685.31,-361.64C1703.37,-351.84 1727.03,-339 1746.88,-328.23"/>
<polygon fill="black" stroke="black" points="1748.41,-331.38 1755.53,-323.53 1745.07,-325.23 1748.41,-331.38"/>
</g>
<!-- bls12381&#45;&gt;option -->
<g id="edge85" class="edge">
<title>bls12381&#45;&gt;option</title>
<path fill="none" stroke="black" d="M1038.51,-287.54C1036.55,-253.79 1027.04,-179.79 982,-144 917,-92.35 661.45,-89.23 556.93,-90.2"/>
<polygon fill="black" stroke="black" points="557.01,-86.69 547.05,-90.31 557.09,-93.69 557.01,-86.69"/>
</g>
<!-- bls12381&#45;&gt;error -->
<g id="edge86" class="edge">
<title>bls12381&#45;&gt;error</title>
<path fill="none" stroke="black" d="M1070.3,-293.43C1077.05,-291.31 1084.2,-289.35 1091,-288 1336.72,-239.2 1639.52,-234.67 1746.4,-234.72"/>
<polygon fill="black" stroke="black" points="1746.35,-238.22 1756.35,-234.74 1746.36,-231.22 1746.35,-238.22"/>
</g>
<!-- chain_status&#45;&gt;error -->
<g id="edge87" class="edge">
<title>chain_status&#45;&gt;error</title>
<path fill="none" stroke="black" d="M2296.23,-359.89C2285.77,-339.04 2265.06,-304.55 2236,-288 2166.28,-248.29 1921.94,-238.21 1825.54,-235.76"/>
<polygon fill="black" stroke="black" points="1825.87,-232.26 1815.79,-235.52 1825.7,-239.26 1825.87,-232.26"/>
</g>
<!-- chain_status&#45;&gt;system_addresses -->
<g id="edge88" class="edge">
<title>chain_status&#45;&gt;system_addresses</title>
<path fill="none" stroke="black" d="M2254.8,-370.35C2163.67,-358.04 1968.13,-331.61 1860.62,-317.08"/>
<polygon fill="black" stroke="black" points="1861.11,-313.62 1850.73,-315.75 1860.17,-320.55 1861.11,-313.62"/>
</g>
<!-- storage_gas&#45;&gt;error -->
<g id="edge89" class="edge">
<title>storage_gas&#45;&gt;error</title>
<path fill="none" stroke="black" d="M2114.08,-436.91C2132.84,-428.57 2154.09,-415.43 2165,-396 2172.84,-382.05 2173.78,-373.38 2165,-360 2126.57,-301.45 1912.46,-257.42 1824.12,-241.49"/>
<polygon fill="black" stroke="black" points="1824.96,-238.08 1814.5,-239.78 1823.74,-244.97 1824.96,-238.08"/>
</g>
<!-- storage_gas&#45;&gt;system_addresses -->
<g id="edge90" class="edge">
<title>storage_gas&#45;&gt;system_addresses</title>
<path fill="none" stroke="black" d="M2063.48,-432.32C2043.16,-409.35 2006.85,-369.71 1990,-360 1950.96,-337.51 1902.28,-324.39 1862.26,-316.84"/>
<polygon fill="black" stroke="black" points="1862.9,-313.39 1852.44,-315.07 1861.66,-320.28 1862.9,-313.39"/>
</g>
<!-- storage_gas&#45;&gt;state_storage -->
<g id="edge91" class="edge">
<title>storage_gas&#45;&gt;state_storage</title>
<path fill="none" stroke="black" d="M2083.19,-431.7C2085.43,-424.24 2088.1,-415.32 2090.61,-406.97"/>
<polygon fill="black" stroke="black" points="2093.91,-408.14 2093.43,-397.55 2087.21,-406.13 2093.91,-408.14"/>
</g>
<!-- string&#45;&gt;option -->
<g id="edge93" class="edge">
<title>string&#45;&gt;option</title>
<path fill="none" stroke="black" d="M266.68,-153.9C315,-141.51 414.94,-115.89 471.21,-101.46"/>
<polygon fill="black" stroke="black" points="471.9,-104.9 480.72,-99.02 470.16,-98.12 471.9,-104.9"/>
</g>
<!-- string&#45;&gt;vector -->
<g id="edge92" class="edge">
<title>string&#45;&gt;vector</title>
<path fill="none" stroke="black" d="M263.8,-150.96C305.93,-134.02 394.29,-98.95 470,-72 511.77,-57.13 560.14,-41.51 593.08,-31.11"/>
<polygon fill="black" stroke="black" points="594.11,-34.46 602.6,-28.12 592.01,-27.78 594.11,-34.46"/>
</g>
<!-- optional_aggregator&#45;&gt;option -->
<g id="edge94" class="edge">
<title>optional_aggregator&#45;&gt;option</title>
<path fill="none" stroke="black" d="M1037.24,-431.71C1024.21,-408.04 1001.17,-363.93 987,-324 959.49,-246.49 1005.34,-198.8 944,-144 887.69,-93.69 655.97,-89.63 557.07,-90.27"/>
<polygon fill="black" stroke="black" points="557.17,-86.77 547.2,-90.36 557.23,-93.77 557.17,-86.77"/>
</g>
<!-- optional_aggregator&#45;&gt;error -->
<g id="edge95" class="edge">
<title>optional_aggregator&#45;&gt;error</title>
<path fill="none" stroke="black" d="M1128.64,-449.02C1200.55,-446.15 1306.53,-434.78 1390,-396 1456.28,-365.21 1448.34,-320.08 1514,-288 1590.72,-250.52 1691.79,-239.53 1746.58,-236.32"/>
<polygon fill="black" stroke="black" points="1746.55,-239.83 1756.35,-235.81 1746.18,-232.84 1746.55,-239.83"/>
</g>
<!-- aggregator -->
<g id="node30" class="node">
<title>aggregator</title>
<ellipse fill="none" stroke="black" cx="1148" cy="-306" rx="48.19" ry="18"/>
<text text-anchor="middle" x="1148" y="-302.3" font-family="Times,serif" font-size="14.00">aggregator</text>
</g>
<!-- optional_aggregator&#45;&gt;aggregator -->
<g id="edge96" class="edge">
<title>optional_aggregator&#45;&gt;aggregator</title>
<path fill="none" stroke="black" d="M1037.83,-431.84C1029.04,-412.8 1019,-381.87 1033,-360 1041.15,-347.28 1073.69,-332.94 1102.09,-322.39"/>
<polygon fill="black" stroke="black" points="1103.08,-325.75 1111.29,-319.05 1100.7,-319.17 1103.08,-325.75"/>
</g>
<!-- aggregator_factory -->
<g id="node31" class="node">
<title>aggregator_factory</title>
<ellipse fill="none" stroke="black" cx="1119" cy="-378" rx="77.19" ry="18"/>
<text text-anchor="middle" x="1119" y="-374.3" font-family="Times,serif" font-size="14.00">aggregator_factory</text>
</g>
<!-- optional_aggregator&#45;&gt;aggregator_factory -->
<g id="edge97" class="edge">
<title>optional_aggregator&#45;&gt;aggregator_factory</title>
<path fill="none" stroke="black" d="M1064.43,-432.05C1073.18,-423.54 1083.96,-413.07 1093.61,-403.68"/>
<polygon fill="black" stroke="black" points="1095.92,-406.32 1100.65,-396.84 1091.04,-401.31 1095.92,-406.32"/>
</g>
<!-- aggregator_factory&#45;&gt;error -->
<g id="edge99" class="edge">
<title>aggregator_factory&#45;&gt;error</title>
<path fill="none" stroke="black" d="M1163.22,-362.83C1224.42,-343.64 1338.64,-309.34 1438,-288 1549.37,-264.07 1683.06,-246.89 1747.51,-239.32"/>
<polygon fill="black" stroke="black" points="1747.69,-242.82 1757.22,-238.19 1746.88,-235.87 1747.69,-242.82"/>
</g>
<!-- aggregator_factory&#45;&gt;system_addresses -->
<g id="edge100" class="edge">
<title>aggregator_factory&#45;&gt;system_addresses</title>
<path fill="none" stroke="black" d="M1188.18,-369.74C1313.5,-356.59 1577.21,-328.91 1708.43,-315.14"/>
<polygon fill="black" stroke="black" points="1708.48,-318.66 1718.06,-314.13 1707.75,-311.69 1708.48,-318.66"/>
</g>
<!-- aggregator_factory&#45;&gt;table -->
<g id="edge98" class="edge">
<title>aggregator_factory&#45;&gt;table</title>
<path fill="none" stroke="black" d="M1071.47,-363.42C1024.31,-349.95 953.05,-329.59 910.27,-317.36"/>
<polygon fill="black" stroke="black" points="911.29,-314.02 900.72,-314.63 909.37,-320.75 911.29,-314.02"/>
</g>
<!-- aggregator_factory&#45;&gt;aggregator -->
<g id="edge101" class="edge">
<title>aggregator_factory&#45;&gt;aggregator</title>
<path fill="none" stroke="black" d="M1126.17,-359.7C1129.29,-352.15 1133.04,-343.12 1136.53,-334.68"/>
<polygon fill="black" stroke="black" points="1139.74,-336.08 1140.33,-325.5 1133.27,-333.4 1139.74,-336.08"/>
</g>
</g>
</svg>
