<?xml version="1.0" encoding="UTF-8" standalone="no"?>
<!DOCTYPE svg PUBLIC "-//W3C//DTD SVG 1.1//EN"
 "http://www.w3.org/Graphics/SVG/1.1/DTD/svg11.dtd">
<!-- Generated by graphviz version 7.0.0 (20221023.0053)
 -->
<!-- Title: G Pages: 1 -->
<svg width="712pt" height="404pt"
 viewBox="0.00 0.00 712.00 404.00" xmlns="http://www.w3.org/2000/svg" xmlns:xlink="http://www.w3.org/1999/xlink">
<g id="graph0" class="graph" transform="scale(1 1) rotate(0) translate(4 400)">
<title>G</title>
<polygon fill="white" stroke="none" points="-4,4 -4,-400 708,-400 708,4 -4,4"/>
<!-- code -->
<g id="node1" class="node">
<title>code</title>
<ellipse fill="none" stroke="black" cx="325" cy="-378" rx="27.1" ry="18"/>
<text text-anchor="middle" x="325" y="-374.3" font-family="Times,serif" font-size="14.00">code</text>
</g>
<!-- vector -->
<g id="node2" class="node">
<title>vector</title>
<ellipse fill="none" stroke="black" cx="74" cy="-18" rx="32.49" ry="18"/>
<text text-anchor="middle" x="74" y="-14.3" font-family="Times,serif" font-size="14.00">vector</text>
</g>
<!-- code&#45;&gt;vector -->
<g id="edge1" class="edge">
<title>code&#45;&gt;vector</title>
<path fill="none" stroke="black" d="M297.57,-377.42C219.22,-377.05 0,-364.46 0,-235 0,-235 0,-235 0,-161 0,-115.24 30.59,-69.63 52.43,-42.88"/>
<polygon fill="black" stroke="black" points="54.98,-45.3 58.76,-35.4 49.63,-40.78 54.98,-45.3"/>
</g>
<!-- option -->
<g id="node3" class="node">
<title>option</title>
<ellipse fill="none" stroke="black" cx="74" cy="-90" rx="33.29" ry="18"/>
<text text-anchor="middle" x="74" y="-86.3" font-family="Times,serif" font-size="14.00">option</text>
</g>
<!-- code&#45;&gt;option -->
<g id="edge2" class="edge">
<title>code&#45;&gt;option</title>
<path fill="none" stroke="black" d="M297.53,-377.66C253.59,-377.22 167.13,-370.05 115,-324 56.56,-272.38 62.25,-169.18 69.09,-119.29"/>
<polygon fill="black" stroke="black" points="72.52,-120.01 70.55,-109.6 65.6,-118.97 72.52,-120.01"/>
</g>
<!-- string -->
<g id="node4" class="node">
<title>string</title>
<ellipse fill="none" stroke="black" cx="144" cy="-162" rx="30.59" ry="18"/>
<text text-anchor="middle" x="144" y="-158.3" font-family="Times,serif" font-size="14.00">string</text>
</g>
<!-- code&#45;&gt;string -->
<g id="edge3" class="edge">
<title>code&#45;&gt;string</title>
<path fill="none" stroke="black" d="M298.68,-373.16C245.93,-363.79 129.37,-334.18 95,-252 88.83,-237.24 89.17,-230.9 95,-216 99.71,-203.97 108.57,-193.04 117.47,-184.27"/>
<polygon fill="black" stroke="black" points="119.76,-186.92 124.77,-177.58 115.04,-181.75 119.76,-186.92"/>
</g>
<!-- signer -->
<g id="node5" class="node">
<title>signer</title>
<ellipse fill="none" stroke="black" cx="556" cy="-234" rx="32.49" ry="18"/>
<text text-anchor="middle" x="556" y="-230.3" font-family="Times,serif" font-size="14.00">signer</text>
</g>
<!-- code&#45;&gt;signer -->
<g id="edge4" class="edge">
<title>code&#45;&gt;signer</title>
<path fill="none" stroke="black" d="M352.19,-376.05C415.8,-373.18 571.29,-362.33 603,-324 619.88,-303.59 600.3,-276.15 581.51,-257.16"/>
<polygon fill="black" stroke="black" points="584.08,-254.77 574.44,-250.38 579.23,-259.83 584.08,-254.77"/>
</g>
<!-- error -->
<g id="node6" class="node">
<title>error</title>
<ellipse fill="none" stroke="black" cx="454" cy="-234" rx="27.9" ry="18"/>
<text text-anchor="middle" x="454" y="-230.3" font-family="Times,serif" font-size="14.00">error</text>
</g>
<!-- code&#45;&gt;error -->
<g id="edge5" class="edge">
<title>code&#45;&gt;error</title>
<path fill="none" stroke="black" d="M324.38,-359.73C324.58,-340.3 327.7,-308.75 344,-288 345.33,-286.3 389.6,-265.26 421.56,-250.21"/>
<polygon fill="black" stroke="black" points="422.92,-253.44 430.48,-246.02 419.94,-247.11 422.92,-253.44"/>
</g>
<!-- system_addresses -->
<g id="node7" class="node">
<title>system_addresses</title>
<ellipse fill="none" stroke="black" cx="426" cy="-306" rx="73.39" ry="18"/>
<text text-anchor="middle" x="426" y="-302.3" font-family="Times,serif" font-size="14.00">system_addresses</text>
</g>
<!-- code&#45;&gt;system_addresses -->
<g id="edge6" class="edge">
<title>code&#45;&gt;system_addresses</title>
<path fill="none" stroke="black" d="M343.06,-364.49C356.91,-354.89 376.4,-341.37 393.01,-329.86"/>
<polygon fill="black" stroke="black" points="394.93,-332.79 401.15,-324.22 390.94,-327.04 394.93,-332.79"/>
</g>
<!-- util -->
<g id="node8" class="node">
<title>util</title>
<ellipse fill="none" stroke="black" cx="677" cy="-306" rx="27" ry="18"/>
<text text-anchor="middle" x="677" y="-302.3" font-family="Times,serif" font-size="14.00">util</text>
</g>
<!-- code&#45;&gt;util -->
<g id="edge7" class="edge">
<title>code&#45;&gt;util</title>
<path fill="none" stroke="black" d="M352.08,-374.45C406.65,-368.86 533.38,-353.61 636,-324 638.79,-323.2 641.64,-322.26 644.48,-321.25"/>
<polygon fill="black" stroke="black" points="645.72,-324.52 653.78,-317.65 643.19,-318 645.72,-324.52"/>
</g>
<!-- features -->
<g id="node9" class="node">
<title>features</title>
<ellipse fill="none" stroke="black" cx="556" cy="-306" rx="38.19" ry="18"/>
<text text-anchor="middle" x="556" y="-302.3" font-family="Times,serif" font-size="14.00">features</text>
</g>
<!-- code&#45;&gt;features -->
<g id="edge8" class="edge">
<title>code&#45;&gt;features</title>
<path fill="none" stroke="black" d="M350,-370.26C385.37,-360.61 451.95,-342.02 508,-324 510.52,-323.19 513.11,-322.34 515.71,-321.46"/>
<polygon fill="black" stroke="black" points="516.64,-324.84 524.96,-318.28 514.36,-318.22 516.64,-324.84"/>
</g>
<!-- copyable_any -->
<g id="node10" class="node">
<title>copyable_any</title>
<ellipse fill="none" stroke="black" cx="237" cy="-306" rx="59.59" ry="18"/>
<text text-anchor="middle" x="237" y="-302.3" font-family="Times,serif" font-size="14.00">copyable_any</text>
</g>
<!-- code&#45;&gt;copyable_any -->
<g id="edge9" class="edge">
<title>code&#45;&gt;copyable_any</title>
<path fill="none" stroke="black" d="M308.03,-363.5C296.15,-354.05 279.98,-341.19 266.06,-330.12"/>
<polygon fill="black" stroke="black" points="268.5,-327.59 258.5,-324.1 264.14,-333.06 268.5,-327.59"/>
</g>
<!-- option&#45;&gt;vector -->
<g id="edge10" class="edge">
<title>option&#45;&gt;vector</title>
<path fill="none" stroke="black" d="M74,-71.7C74,-64.41 74,-55.73 74,-47.54"/>
<polygon fill="black" stroke="black" points="77.5,-47.62 74,-37.62 70.5,-47.62 77.5,-47.62"/>
</g>
<!-- string&#45;&gt;vector -->
<g id="edge11" class="edge">
<title>string&#45;&gt;vector</title>
<path fill="none" stroke="black" d="M140.57,-143.87C136.43,-125.4 128.44,-95.47 116,-72 110.53,-61.68 102.97,-51.38 95.77,-42.65"/>
<polygon fill="black" stroke="black" points="98.66,-40.63 89.49,-35.32 93.34,-45.19 98.66,-40.63"/>
</g>
<!-- string&#45;&gt;option -->
<g id="edge12" class="edge">
<title>string&#45;&gt;option</title>
<path fill="none" stroke="black" d="M129.15,-146.15C119.91,-136.91 107.81,-124.81 97.31,-114.31"/>
<polygon fill="black" stroke="black" points="99.92,-111.97 90.38,-107.38 94.97,-116.92 99.92,-111.97"/>
</g>
<!-- system_addresses&#45;&gt;signer -->
<g id="edge13" class="edge">
<title>system_addresses&#45;&gt;signer</title>
<path fill="none" stroke="black" d="M455.5,-289.12C475.75,-278.21 502.63,-263.74 523.5,-252.5"/>
<polygon fill="black" stroke="black" points="525.02,-255.66 532.17,-247.83 521.7,-249.49 525.02,-255.66"/>
</g>
<!-- system_addresses&#45;&gt;error -->
<g id="edge14" class="edge">
<title>system_addresses&#45;&gt;error</title>
<path fill="none" stroke="black" d="M432.92,-287.7C435.98,-280.04 439.66,-270.85 443.08,-262.3"/>
<polygon fill="black" stroke="black" points="446.32,-263.61 446.79,-253.03 439.83,-261.01 446.32,-263.61"/>
</g>
<!-- features&#45;&gt;signer -->
<g id="edge15" class="edge">
<title>features&#45;&gt;signer</title>
<path fill="none" stroke="black" d="M556,-287.7C556,-280.41 556,-271.73 556,-263.54"/>
<polygon fill="black" stroke="black" points="559.5,-263.62 556,-253.62 552.5,-263.62 559.5,-263.62"/>
</g>
<!-- features&#45;&gt;error -->
<g id="edge16" class="edge">
<title>features&#45;&gt;error</title>
<path fill="none" stroke="black" d="M535.36,-290.83C519.98,-280.28 498.82,-265.76 481.93,-254.17"/>
<polygon fill="black" stroke="black" points="484.03,-251.36 473.8,-248.59 480.07,-257.13 484.03,-251.36"/>
</g>
<!-- copyable_any&#45;&gt;string -->
<g id="edge17" class="edge">
<title>copyable_any&#45;&gt;string</title>
<path fill="none" stroke="black" d="M252.93,-288.26C268.69,-269.58 288.4,-238.98 273,-216 253.58,-187.02 215.15,-173.87 185.27,-167.92"/>
<polygon fill="black" stroke="black" points="186.24,-164.53 175.78,-166.23 185.01,-171.43 186.24,-164.53"/>
</g>
<!-- copyable_any&#45;&gt;error -->
<g id="edge19" class="edge">
<title>copyable_any&#45;&gt;error</title>
<path fill="none" stroke="black" d="M281.6,-293.79C318.39,-284.09 371.7,-268.97 417,-252 418.57,-251.41 420.17,-250.78 421.78,-250.13"/>
<polygon fill="black" stroke="black" points="423.12,-253.37 430.92,-246.2 420.35,-246.94 423.12,-253.37"/>
</g>
<!-- type_info -->
<g id="node11" class="node">
<title>type_info</title>
<ellipse fill="none" stroke="black" cx="364" cy="-234" rx="44.39" ry="18"/>
<text text-anchor="middle" x="364" y="-230.3" font-family="Times,serif" font-size="14.00">type_info</text>
</g>
<!-- copyable_any&#45;&gt;type_info -->
<g id="edge18" class="edge">
<title>copyable_any&#45;&gt;type_info</title>
<path fill="none" stroke="black" d="M264.87,-289.64C283.52,-279.36 308.24,-265.73 328.33,-254.66"/>
<polygon fill="black" stroke="black" points="329.96,-257.76 337.03,-249.87 326.58,-251.63 329.96,-257.76"/>
</g>
<!-- bcs -->
<g id="node12" class="node">
<title>bcs</title>
<ellipse fill="none" stroke="black" cx="237" cy="-234" rx="27" ry="18"/>
<text text-anchor="middle" x="237" y="-230.3" font-family="Times,serif" font-size="14.00">bcs</text>
</g>
<!-- copyable_any&#45;&gt;bcs -->
<g id="edge20" class="edge">
<title>copyable_any&#45;&gt;bcs</title>
<path fill="none" stroke="black" d="M237,-287.7C237,-280.41 237,-271.73 237,-263.54"/>
<polygon fill="black" stroke="black" points="240.5,-263.62 237,-253.62 233.5,-263.62 240.5,-263.62"/>
</g>
<!-- from_bcs -->
<g id="node13" class="node">
<title>from_bcs</title>
<ellipse fill="none" stroke="black" cx="148" cy="-234" rx="44.39" ry="18"/>
<text text-anchor="middle" x="148" y="-230.3" font-family="Times,serif" font-size="14.00">from_bcs</text>
</g>
<!-- copyable_any&#45;&gt;from_bcs -->
<g id="edge21" class="edge">
<title>copyable_any&#45;&gt;from_bcs</title>
<path fill="none" stroke="black" d="M216.36,-288.76C204.54,-279.47 189.53,-267.67 176.6,-257.49"/>
<polygon fill="black" stroke="black" points="178.83,-254.79 168.8,-251.36 174.5,-260.3 178.83,-254.79"/>
</g>
<!-- type_info&#45;&gt;string -->
<g id="edge22" class="edge">
<title>type_info&#45;&gt;string</title>
<path fill="none" stroke="black" d="M330.11,-222.22C289.92,-209.43 223.15,-188.18 181.46,-174.92"/>
<polygon fill="black" stroke="black" points="182.7,-171.64 172.11,-171.94 180.57,-178.31 182.7,-171.64"/>
</g>
<!-- from_bcs&#45;&gt;string -->
<g id="edge23" class="edge">
<title>from_bcs&#45;&gt;string</title>
<path fill="none" stroke="black" d="M147.01,-215.7C146.59,-208.41 146.1,-199.73 145.63,-191.54"/>
<polygon fill="black" stroke="black" points="149.13,-191.4 145.06,-181.62 142.14,-191.8 149.13,-191.4"/>
</g>
</g>
</svg>
