<?xml version="1.0" encoding="UTF-8" standalone="no"?>
<!DOCTYPE svg PUBLIC "-//W3C//DTD SVG 1.1//EN"
 "http://www.w3.org/Graphics/SVG/1.1/DTD/svg11.dtd">
<!-- Generated by graphviz version 7.0.0 (20221023.0053)
 -->
<!-- Title: G Pages: 1 -->
<svg width="1365pt" height="548pt"
 viewBox="0.00 0.00 1365.24 548.00" xmlns="http://www.w3.org/2000/svg" xmlns:xlink="http://www.w3.org/1999/xlink">
<g id="graph0" class="graph" transform="scale(1 1) rotate(0) translate(4 544)">
<title>G</title>
<polygon fill="white" stroke="none" points="-4,4 -4,-544 1361.24,-544 1361.24,4 -4,4"/>
<!-- coin -->
<g id="node1" class="node">
<title>coin</title>
<ellipse fill="none" stroke="black" cx="758" cy="-522" rx="27" ry="18"/>
<text text-anchor="middle" x="758" y="-518.3" font-family="Times,serif" font-size="14.00">coin</text>
</g>
<!-- option -->
<g id="node2" class="node">
<title>option</title>
<ellipse fill="none" stroke="black" cx="336" cy="-90" rx="33.29" ry="18"/>
<text text-anchor="middle" x="336" y="-86.3" font-family="Times,serif" font-size="14.00">option</text>
</g>
<!-- coin&#45;&gt;option -->
<g id="edge1" class="edge">
<title>coin&#45;&gt;option</title>
<path fill="none" stroke="black" d="M730.94,-520.16C611.19,-516.26 132.17,-498.84 73,-468 27.63,-444.35 0,-430.16 0,-379 0,-379 0,-379 0,-233 0,-108.17 199.19,-91.39 290.84,-90.27"/>
<polygon fill="black" stroke="black" points="290.75,-93.77 300.73,-90.21 290.71,-86.77 290.75,-93.77"/>
</g>
<!-- string -->
<g id="node3" class="node">
<title>string</title>
<ellipse fill="none" stroke="black" cx="197" cy="-162" rx="30.59" ry="18"/>
<text text-anchor="middle" x="197" y="-158.3" font-family="Times,serif" font-size="14.00">string</text>
</g>
<!-- coin&#45;&gt;string -->
<g id="edge2" class="edge">
<title>coin&#45;&gt;string</title>
<path fill="none" stroke="black" d="M730.65,-521.54C599.14,-523.41 38,-522.97 38,-379 38,-379 38,-379 38,-305 38,-239.42 114.18,-196.59 161.08,-176.44"/>
<polygon fill="black" stroke="black" points="162.16,-179.78 170.06,-172.72 159.48,-173.31 162.16,-179.78"/>
</g>
<!-- type_info -->
<g id="node4" class="node">
<title>type_info</title>
<ellipse fill="none" stroke="black" cx="197" cy="-234" rx="44.39" ry="18"/>
<text text-anchor="middle" x="197" y="-230.3" font-family="Times,serif" font-size="14.00">type_info</text>
</g>
<!-- coin&#45;&gt;type_info -->
<g id="edge3" class="edge">
<title>coin&#45;&gt;type_info</title>
<path fill="none" stroke="black" d="M730.8,-520.28C616.61,-516.63 178.08,-496.2 95,-396 56.91,-350.06 123.12,-288.94 165.57,-256.83"/>
<polygon fill="black" stroke="black" points="167.56,-259.71 173.52,-250.96 163.4,-254.08 167.56,-259.71"/>
</g>
<!-- signer -->
<g id="node5" class="node">
<title>signer</title>
<ellipse fill="none" stroke="black" cx="810" cy="-234" rx="32.49" ry="18"/>
<text text-anchor="middle" x="810" y="-230.3" font-family="Times,serif" font-size="14.00">signer</text>
</g>
<!-- coin&#45;&gt;signer -->
<g id="edge4" class="edge">
<title>coin&#45;&gt;signer</title>
<path fill="none" stroke="black" d="M764.51,-504.32C773.45,-480.64 789.3,-435.73 797,-396 805.9,-350.11 808.72,-295.71 809.61,-263.35"/>
<polygon fill="black" stroke="black" points="813.1,-263.68 809.83,-253.6 806.1,-263.52 813.1,-263.68"/>
</g>
<!-- error -->
<g id="node6" class="node">
<title>error</title>
<ellipse fill="none" stroke="black" cx="1023" cy="-234" rx="27.9" ry="18"/>
<text text-anchor="middle" x="1023" y="-230.3" font-family="Times,serif" font-size="14.00">error</text>
</g>
<!-- coin&#45;&gt;error -->
<g id="edge5" class="edge">
<title>coin&#45;&gt;error</title>
<path fill="none" stroke="black" d="M784.04,-516.11C852.92,-501.57 1039.18,-451.4 1105,-324 1112.34,-309.79 1112.65,-302.05 1105,-288 1094.84,-269.33 1074.96,-256.24 1057.32,-247.73"/>
<polygon fill="black" stroke="black" points="1059.22,-244.75 1048.66,-243.87 1056.37,-251.14 1059.22,-244.75"/>
</g>
<!-- system_addresses -->
<g id="node7" class="node">
<title>system_addresses</title>
<ellipse fill="none" stroke="black" cx="1023" cy="-306" rx="73.39" ry="18"/>
<text text-anchor="middle" x="1023" y="-302.3" font-family="Times,serif" font-size="14.00">system_addresses</text>
</g>
<!-- coin&#45;&gt;system_addresses -->
<g id="edge6" class="edge">
<title>coin&#45;&gt;system_addresses</title>
<path fill="none" stroke="black" d="M781.21,-512.62C804.43,-503.62 840.53,-487.89 868,-468 923.15,-428.07 975.53,-367.22 1003.02,-332.9"/>
<polygon fill="black" stroke="black" points="1005.69,-335.16 1009.16,-325.15 1000.2,-330.82 1005.69,-335.16"/>
</g>
<!-- event -->
<g id="node8" class="node">
<title>event</title>
<ellipse fill="none" stroke="black" cx="758" cy="-378" rx="29.8" ry="18"/>
<text text-anchor="middle" x="758" y="-374.3" font-family="Times,serif" font-size="14.00">event</text>
</g>
<!-- coin&#45;&gt;event -->
<g id="edge7" class="edge">
<title>coin&#45;&gt;event</title>
<path fill="none" stroke="black" d="M758,-503.59C758,-479.61 758,-436.14 758,-407.42"/>
<polygon fill="black" stroke="black" points="761.5,-407.62 758,-397.62 754.5,-407.62 761.5,-407.62"/>
</g>
<!-- account -->
<g id="node9" class="node">
<title>account</title>
<ellipse fill="none" stroke="black" cx="624" cy="-450" rx="38.19" ry="18"/>
<text text-anchor="middle" x="624" y="-446.3" font-family="Times,serif" font-size="14.00">account</text>
</g>
<!-- coin&#45;&gt;account -->
<g id="edge8" class="edge">
<title>coin&#45;&gt;account</title>
<path fill="none" stroke="black" d="M737.06,-510.06C716.19,-499.16 683.77,-482.22 658.99,-469.28"/>
<polygon fill="black" stroke="black" points="660.72,-466.23 650.23,-464.7 657.47,-472.44 660.72,-466.23"/>
</g>
<!-- optional_aggregator -->
<g id="node10" class="node">
<title>optional_aggregator</title>
<ellipse fill="none" stroke="black" cx="1276" cy="-450" rx="81.49" ry="18"/>
<text text-anchor="middle" x="1276" y="-446.3" font-family="Times,serif" font-size="14.00">optional_aggregator</text>
</g>
<!-- coin&#45;&gt;optional_aggregator -->
<g id="edge9" class="edge">
<title>coin&#45;&gt;optional_aggregator</title>
<path fill="none" stroke="black" d="M784.4,-517.43C859.7,-507.26 1077.71,-477.8 1196.52,-461.74"/>
<polygon fill="black" stroke="black" points="1196.76,-465.24 1206.2,-460.43 1195.82,-458.3 1196.76,-465.24"/>
</g>
<!-- vector -->
<g id="node11" class="node">
<title>vector</title>
<ellipse fill="none" stroke="black" cx="336" cy="-18" rx="32.49" ry="18"/>
<text text-anchor="middle" x="336" y="-14.3" font-family="Times,serif" font-size="14.00">vector</text>
</g>
<!-- option&#45;&gt;vector -->
<g id="edge10" class="edge">
<title>option&#45;&gt;vector</title>
<path fill="none" stroke="black" d="M336,-71.7C336,-64.41 336,-55.73 336,-47.54"/>
<polygon fill="black" stroke="black" points="339.5,-47.62 336,-37.62 332.5,-47.62 339.5,-47.62"/>
</g>
<!-- string&#45;&gt;option -->
<g id="edge12" class="edge">
<title>string&#45;&gt;option</title>
<path fill="none" stroke="black" d="M219.64,-149.6C242.09,-138.29 276.74,-120.84 302.4,-107.92"/>
<polygon fill="black" stroke="black" points="303.73,-111.17 311.09,-103.55 300.58,-104.92 303.73,-111.17"/>
</g>
<!-- string&#45;&gt;vector -->
<g id="edge11" class="edge">
<title>string&#45;&gt;vector</title>
<path fill="none" stroke="black" d="M211.88,-145.8C236.23,-120.93 284.74,-71.36 313.38,-42.11"/>
<polygon fill="black" stroke="black" points="315.68,-44.76 320.17,-35.17 310.68,-39.87 315.68,-44.76"/>
</g>
<!-- type_info&#45;&gt;string -->
<g id="edge13" class="edge">
<title>type_info&#45;&gt;string</title>
<path fill="none" stroke="black" d="M197,-215.7C197,-208.41 197,-199.73 197,-191.54"/>
<polygon fill="black" stroke="black" points="200.5,-191.62 197,-181.62 193.5,-191.62 200.5,-191.62"/>
</g>
<!-- system_addresses&#45;&gt;signer -->
<g id="edge14" class="edge">
<title>system_addresses&#45;&gt;signer</title>
<path fill="none" stroke="black" d="M980.41,-291C941.9,-278.35 885.7,-259.88 848.51,-247.66"/>
<polygon fill="black" stroke="black" points="849.65,-244.35 839.06,-244.55 847.47,-251 849.65,-244.35"/>
</g>
<!-- system_addresses&#45;&gt;error -->
<g id="edge15" class="edge">
<title>system_addresses&#45;&gt;error</title>
<path fill="none" stroke="black" d="M1023,-287.7C1023,-280.41 1023,-271.73 1023,-263.54"/>
<polygon fill="black" stroke="black" points="1026.5,-263.62 1023,-253.62 1019.5,-263.62 1026.5,-263.62"/>
</g>
<!-- bcs -->
<g id="node12" class="node">
<title>bcs</title>
<ellipse fill="none" stroke="black" cx="538" cy="-234" rx="27" ry="18"/>
<text text-anchor="middle" x="538" y="-230.3" font-family="Times,serif" font-size="14.00">bcs</text>
</g>
<!-- event&#45;&gt;bcs -->
<g id="edge16" class="edge">
<title>event&#45;&gt;bcs</title>
<path fill="none" stroke="black" d="M762.52,-359.77C766.57,-340.08 769.6,-308.01 753,-288 730.65,-261.07 631.36,-245.64 575.86,-238.97"/>
<polygon fill="black" stroke="black" points="576.57,-235.53 566.23,-237.85 575.76,-242.48 576.57,-235.53"/>
</g>
<!-- guid -->
<g id="node13" class="node">
<title>guid</title>
<ellipse fill="none" stroke="black" cx="717" cy="-306" rx="27" ry="18"/>
<text text-anchor="middle" x="717" y="-302.3" font-family="Times,serif" font-size="14.00">guid</text>
</g>
<!-- event&#45;&gt;guid -->
<g id="edge17" class="edge">
<title>event&#45;&gt;guid</title>
<path fill="none" stroke="black" d="M748.49,-360.76C743.63,-352.46 737.59,-342.15 732.11,-332.79"/>
<polygon fill="black" stroke="black" points="735.3,-331.31 727.22,-324.45 729.26,-334.85 735.3,-331.31"/>
</g>
<!-- account&#45;&gt;option -->
<g id="edge19" class="edge">
<title>account&#45;&gt;option</title>
<path fill="none" stroke="black" d="M585.97,-446.6C517.77,-441.54 378.47,-427.56 343,-396 281.4,-341.18 285.88,-297.57 298,-216 303.12,-181.56 315.76,-143.48 325.06,-118.51"/>
<polygon fill="black" stroke="black" points="328.23,-120.02 328.52,-109.43 321.69,-117.53 328.23,-120.02"/>
</g>
<!-- account&#45;&gt;type_info -->
<g id="edge20" class="edge">
<title>account&#45;&gt;type_info</title>
<path fill="none" stroke="black" d="M585.61,-448.77C499.51,-447.46 294.59,-439.72 244,-396 205.6,-362.82 197.7,-300.19 196.57,-263.59"/>
<polygon fill="black" stroke="black" points="200.07,-263.72 196.44,-253.77 193.08,-263.82 200.07,-263.72"/>
</g>
<!-- account&#45;&gt;signer -->
<g id="edge22" class="edge">
<title>account&#45;&gt;signer</title>
<path fill="none" stroke="black" d="M629.25,-431.69C641.3,-392.35 670.7,-298.82 681,-288 704.11,-263.72 739.94,-250.2 767.99,-242.91"/>
<polygon fill="black" stroke="black" points="768.71,-246.33 777.61,-240.59 767.07,-239.53 768.71,-246.33"/>
</g>
<!-- account&#45;&gt;error -->
<g id="edge23" class="edge">
<title>account&#45;&gt;error</title>
<path fill="none" stroke="black" d="M661.11,-445.11C698.61,-439.57 756.63,-426.47 797,-396 842.66,-361.54 821.87,-323.14 867,-288 901.52,-261.12 950.49,-247.44 984.31,-240.78"/>
<polygon fill="black" stroke="black" points="984.9,-244.23 994.1,-238.98 983.63,-237.35 984.9,-244.23"/>
</g>
<!-- account&#45;&gt;system_addresses -->
<g id="edge24" class="edge">
<title>account&#45;&gt;system_addresses</title>
<path fill="none" stroke="black" d="M660.41,-444.2C707.92,-437.2 793.12,-422.09 862,-396 908.22,-378.49 957.39,-349.63 989.06,-329.54"/>
<polygon fill="black" stroke="black" points="990.9,-332.51 997.43,-324.17 987.12,-326.62 990.9,-332.51"/>
</g>
<!-- account&#45;&gt;event -->
<g id="edge31" class="edge">
<title>account&#45;&gt;event</title>
<path fill="none" stroke="black" d="M648.89,-436C670.65,-424.63 702.37,-408.06 726,-395.71"/>
<polygon fill="black" stroke="black" points="727.32,-398.97 734.57,-391.24 724.08,-392.77 727.32,-398.97"/>
</g>
<!-- account&#45;&gt;vector -->
<g id="edge18" class="edge">
<title>account&#45;&gt;vector</title>
<path fill="none" stroke="black" d="M624,-431.51C624,-404.71 624,-351.87 624,-307 624,-307 624,-307 624,-161 624,-53.4 460.29,-27.33 379.73,-21.02"/>
<polygon fill="black" stroke="black" points="380.21,-17.54 369.99,-20.33 379.72,-24.53 380.21,-17.54"/>
</g>
<!-- account&#45;&gt;bcs -->
<g id="edge26" class="edge">
<title>account&#45;&gt;bcs</title>
<path fill="none" stroke="black" d="M617.11,-431.85C602.22,-394.81 566.96,-307.06 548.97,-262.29"/>
<polygon fill="black" stroke="black" points="552.23,-261.02 545.25,-253.04 545.73,-263.63 552.23,-261.02"/>
</g>
<!-- account&#45;&gt;guid -->
<g id="edge29" class="edge">
<title>account&#45;&gt;guid</title>
<path fill="none" stroke="black" d="M641.49,-434.05C652.41,-424.07 666.19,-410.22 676,-396 689.2,-376.86 699.99,-352.8 707.18,-334.52"/>
<polygon fill="black" stroke="black" points="710.37,-335.99 710.65,-325.4 703.82,-333.5 710.37,-335.99"/>
</g>
<!-- table -->
<g id="node14" class="node">
<title>table</title>
<ellipse fill="none" stroke="black" cx="904" cy="-306" rx="27.9" ry="18"/>
<text text-anchor="middle" x="904" y="-302.3" font-family="Times,serif" font-size="14.00">table</text>
</g>
<!-- account&#45;&gt;table -->
<g id="edge21" class="edge">
<title>account&#45;&gt;table</title>
<path fill="none" stroke="black" d="M661.71,-446.28C705.25,-441.64 777.58,-429.19 830,-396 854.98,-380.18 875.69,-353.15 888.79,-333.01"/>
<polygon fill="black" stroke="black" points="891.61,-335.1 893.95,-324.77 885.68,-331.38 891.61,-335.1"/>
</g>
<!-- hash -->
<g id="node15" class="node">
<title>hash</title>
<ellipse fill="none" stroke="black" cx="334" cy="-234" rx="27" ry="18"/>
<text text-anchor="middle" x="334" y="-230.3" font-family="Times,serif" font-size="14.00">hash</text>
</g>
<!-- account&#45;&gt;hash -->
<g id="edge25" class="edge">
<title>account&#45;&gt;hash</title>
<path fill="none" stroke="black" d="M585.59,-448.7C535.5,-446.57 446.96,-436.75 385,-396 352.02,-374.31 345.14,-361.56 333,-324 326.7,-304.53 327.19,-281.38 329.13,-263.58"/>
<polygon fill="black" stroke="black" points="332.59,-264.09 330.43,-253.71 325.65,-263.17 332.59,-264.09"/>
</g>
<!-- ed25519 -->
<g id="node16" class="node">
<title>ed25519</title>
<ellipse fill="none" stroke="black" cx="403" cy="-306" rx="40.89" ry="18"/>
<text text-anchor="middle" x="403" y="-302.3" font-family="Times,serif" font-size="14.00">ed25519</text>
</g>
<!-- account&#45;&gt;ed25519 -->
<g id="edge27" class="edge">
<title>account&#45;&gt;ed25519</title>
<path fill="none" stroke="black" d="M586.53,-445.7C528.71,-439.74 421.98,-425.02 399,-396 385.58,-379.05 388.01,-354.08 392.98,-334.89"/>
<polygon fill="black" stroke="black" points="396.26,-336.13 395.76,-325.55 389.55,-334.14 396.26,-336.13"/>
</g>
<!-- multi_ed25519 -->
<g id="node17" class="node">
<title>multi_ed25519</title>
<ellipse fill="none" stroke="black" cx="472" cy="-378" rx="64.19" ry="18"/>
<text text-anchor="middle" x="472" y="-374.3" font-family="Times,serif" font-size="14.00">multi_ed25519</text>
</g>
<!-- account&#45;&gt;multi_ed25519 -->
<g id="edge28" class="edge">
<title>account&#45;&gt;multi_ed25519</title>
<path fill="none" stroke="black" d="M597.52,-436.81C574.7,-426.29 541.31,-410.92 514.71,-398.67"/>
<polygon fill="black" stroke="black" points="516.44,-395.61 505.89,-394.61 513.51,-401.97 516.44,-395.61"/>
</g>
<!-- from_bcs -->
<g id="node18" class="node">
<title>from_bcs</title>
<ellipse fill="none" stroke="black" cx="148" cy="-378" rx="44.39" ry="18"/>
<text text-anchor="middle" x="148" y="-374.3" font-family="Times,serif" font-size="14.00">from_bcs</text>
</g>
<!-- account&#45;&gt;from_bcs -->
<g id="edge30" class="edge">
<title>account&#45;&gt;from_bcs</title>
<path fill="none" stroke="black" d="M586.2,-446.23C512.47,-440.39 344.56,-424.9 206,-396 201.73,-395.11 197.32,-394.06 192.92,-392.93"/>
<polygon fill="black" stroke="black" points="194.15,-389.63 183.58,-390.38 192.31,-396.39 194.15,-389.63"/>
</g>
<!-- optional_aggregator&#45;&gt;option -->
<g id="edge32" class="edge">
<title>optional_aggregator&#45;&gt;option</title>
<path fill="none" stroke="black" d="M1292.12,-432.19C1314.43,-407.09 1352,-357.33 1352,-307 1352,-307 1352,-307 1352,-233 1352,-133.46 577.19,-99.48 380.81,-92.47"/>
<polygon fill="black" stroke="black" points="381.14,-88.98 371.03,-92.12 380.9,-95.97 381.14,-88.98"/>
</g>
<!-- optional_aggregator&#45;&gt;error -->
<g id="edge33" class="edge">
<title>optional_aggregator&#45;&gt;error</title>
<path fill="none" stroke="black" d="M1285.41,-431.66C1301.49,-399.42 1329.36,-329.71 1295,-288 1265.93,-252.72 1130.17,-240.62 1062.11,-236.72"/>
<polygon fill="black" stroke="black" points="1062.7,-233.24 1052.52,-236.2 1062.32,-240.23 1062.7,-233.24"/>
</g>
<!-- aggregator -->
<g id="node19" class="node">
<title>aggregator</title>
<ellipse fill="none" stroke="black" cx="1238" cy="-306" rx="48.19" ry="18"/>
<text text-anchor="middle" x="1238" y="-302.3" font-family="Times,serif" font-size="14.00">aggregator</text>
</g>
<!-- optional_aggregator&#45;&gt;aggregator -->
<g id="edge34" class="edge">
<title>optional_aggregator&#45;&gt;aggregator</title>
<path fill="none" stroke="black" d="M1273.03,-431.77C1269.75,-413.72 1264.01,-384.62 1257,-360 1254.64,-351.69 1251.64,-342.81 1248.73,-334.73"/>
<polygon fill="black" stroke="black" points="1252.04,-333.57 1245.28,-325.42 1245.47,-336.01 1252.04,-333.57"/>
</g>
<!-- aggregator_factory -->
<g id="node20" class="node">
<title>aggregator_factory</title>
<ellipse fill="none" stroke="black" cx="1171" cy="-378" rx="77.19" ry="18"/>
<text text-anchor="middle" x="1171" y="-374.3" font-family="Times,serif" font-size="14.00">aggregator_factory</text>
</g>
<!-- optional_aggregator&#45;&gt;aggregator_factory -->
<g id="edge35" class="edge">
<title>optional_aggregator&#45;&gt;aggregator_factory</title>
<path fill="none" stroke="black" d="M1251.12,-432.41C1237.39,-423.26 1220.13,-411.76 1205.16,-401.77"/>
<polygon fill="black" stroke="black" points="1207.23,-398.94 1196.96,-396.31 1203.34,-404.77 1207.23,-398.94"/>
</g>
<!-- ed25519&#45;&gt;option -->
<g id="edge36" class="edge">
<title>ed25519&#45;&gt;option</title>
<path fill="none" stroke="black" d="M397.63,-287.85C386.09,-250.99 358.83,-163.92 344.75,-118.96"/>
<polygon fill="black" stroke="black" points="348.18,-118.17 341.85,-109.68 341.5,-120.27 348.18,-118.17"/>
</g>
<!-- ed25519&#45;&gt;type_info -->
<g id="edge37" class="edge">
<title>ed25519&#45;&gt;type_info</title>
<path fill="none" stroke="black" d="M371.26,-294.22C336.37,-282.36 280.06,-263.23 240.94,-249.93"/>
<polygon fill="black" stroke="black" points="242.17,-246.65 231.57,-246.75 239.91,-253.28 242.17,-246.65"/>
</g>
<!-- ed25519&#45;&gt;error -->
<g id="edge38" class="edge">
<title>ed25519&#45;&gt;error</title>
<path fill="none" stroke="black" d="M442.25,-300.57C553.98,-287.95 872.78,-251.96 984.08,-239.39"/>
<polygon fill="black" stroke="black" points="984.35,-242.89 993.9,-238.29 983.57,-235.93 984.35,-242.89"/>
</g>
<!-- ed25519&#45;&gt;bcs -->
<g id="edge40" class="edge">
<title>ed25519&#45;&gt;bcs</title>
<path fill="none" stroke="black" d="M428.71,-291.67C451.1,-280.06 483.61,-263.2 507.35,-250.89"/>
<polygon fill="black" stroke="black" points="508.64,-254.17 515.9,-246.46 505.42,-247.95 508.64,-254.17"/>
</g>
<!-- ed25519&#45;&gt;hash -->
<g id="edge39" class="edge">
<title>ed25519&#45;&gt;hash</title>
<path fill="none" stroke="black" d="M387.34,-289.12C378.15,-279.79 366.38,-267.85 356.23,-257.56"/>
<polygon fill="black" stroke="black" points="358.76,-255.14 349.25,-250.47 353.78,-260.05 358.76,-255.14"/>
</g>
<!-- multi_ed25519&#45;&gt;option -->
<g id="edge41" class="edge">
<title>multi_ed25519&#45;&gt;option</title>
<path fill="none" stroke="black" d="M469.9,-359.83C467.32,-341.58 462.1,-312.09 453,-288 427.93,-221.68 381.05,-152.21 354.89,-116.13"/>
<polygon fill="black" stroke="black" points="357.73,-114.08 348.99,-108.09 352.08,-118.22 357.73,-114.08"/>
</g>
<!-- multi_ed25519&#45;&gt;error -->
<g id="edge42" class="edge">
<title>multi_ed25519&#45;&gt;error</title>
<path fill="none" stroke="black" d="M501.6,-361.6C541.34,-341.58 614.64,-306.95 681,-288 788.15,-257.4 919.54,-243.32 983.81,-237.89"/>
<polygon fill="black" stroke="black" points="983.82,-241.4 993.5,-237.09 983.25,-234.42 983.82,-241.4"/>
</g>
<!-- multi_ed25519&#45;&gt;bcs -->
<g id="edge44" class="edge">
<title>multi_ed25519&#45;&gt;bcs</title>
<path fill="none" stroke="black" d="M479.96,-359.87C491.33,-335.41 512.32,-290.25 525.7,-261.46"/>
<polygon fill="black" stroke="black" points="528.74,-263.23 529.78,-252.68 522.39,-260.28 528.74,-263.23"/>
</g>
<!-- multi_ed25519&#45;&gt;hash -->
<g id="edge43" class="edge">
<title>multi_ed25519&#45;&gt;hash</title>
<path fill="none" stroke="black" d="M422.3,-366.16C397.98,-358.37 370.3,-345.35 353,-324 339.31,-307.1 334.85,-282.65 333.65,-263.65"/>
<polygon fill="black" stroke="black" points="337.15,-263.75 333.32,-253.87 330.16,-263.98 337.15,-263.75"/>
</g>
<!-- multi_ed25519&#45;&gt;ed25519 -->
<g id="edge45" class="edge">
<title>multi_ed25519&#45;&gt;ed25519</title>
<path fill="none" stroke="black" d="M455.65,-360.41C447.02,-351.66 436.27,-340.75 426.74,-331.08"/>
<polygon fill="black" stroke="black" points="429.33,-328.73 419.82,-324.07 424.35,-333.64 429.33,-328.73"/>
</g>
<!-- from_bcs&#45;&gt;string -->
<g id="edge46" class="edge">
<title>from_bcs&#45;&gt;string</title>
<path fill="none" stroke="black" d="M143.17,-359.72C135.59,-329.31 123.78,-264.82 144,-216 149.19,-203.48 158.92,-192.38 168.65,-183.61"/>
<polygon fill="black" stroke="black" points="170.87,-186.32 176.29,-177.21 166.37,-180.95 170.87,-186.32"/>
</g>
<!-- aggregator_factory&#45;&gt;error -->
<g id="edge48" class="edge">
<title>aggregator_factory&#45;&gt;error</title>
<path fill="none" stroke="black" d="M1168.59,-359.53C1165.04,-339.91 1156.7,-308.19 1138,-288 1117.28,-265.62 1085.23,-251.93 1060.23,-244.09"/>
<polygon fill="black" stroke="black" points="1061.34,-240.76 1050.76,-241.31 1059.37,-247.48 1061.34,-240.76"/>
</g>
<!-- aggregator_factory&#45;&gt;system_addresses -->
<g id="edge49" class="edge">
<title>aggregator_factory&#45;&gt;system_addresses</title>
<path fill="none" stroke="black" d="M1137.79,-361.29C1116.57,-351.26 1088.86,-338.15 1065.98,-327.33"/>
<polygon fill="black" stroke="black" points="1067.75,-324.3 1057.22,-323.18 1064.76,-330.62 1067.75,-324.3"/>
</g>
<!-- aggregator_factory&#45;&gt;table -->
<g id="edge47" class="edge">
<title>aggregator_factory&#45;&gt;table</title>
<path fill="none" stroke="black" d="M1110.49,-366.56C1063.56,-357.63 997.24,-343.17 941,-324 939.41,-323.46 937.8,-322.87 936.18,-322.25"/>
<polygon fill="black" stroke="black" points="937.58,-319.04 927.01,-318.41 934.88,-325.5 937.58,-319.04"/>
</g>
<!-- aggregator_factory&#45;&gt;aggregator -->
<g id="edge50" class="edge">
<title>aggregator_factory&#45;&gt;aggregator</title>
<path fill="none" stroke="black" d="M1187.22,-360.05C1195.4,-351.5 1205.48,-340.97 1214.5,-331.56"/>
<polygon fill="black" stroke="black" points="1216.96,-334.04 1221.35,-324.4 1211.9,-329.2 1216.96,-334.04"/>
</g>
</g>
</svg>
