<?xml version="1.0" encoding="UTF-8" standalone="no"?>
<!DOCTYPE svg PUBLIC "-//W3C//DTD SVG 1.1//EN"
 "http://www.w3.org/Graphics/SVG/1.1/DTD/svg11.dtd">
<!-- Generated by graphviz version 7.0.0 (20221023.0053)
 -->
<!-- Title: G Pages: 1 -->
<svg width="2399pt" height="836pt"
 viewBox="0.00 0.00 2399.00 836.00" xmlns="http://www.w3.org/2000/svg" xmlns:xlink="http://www.w3.org/1999/xlink">
<g id="graph0" class="graph" transform="scale(1 1) rotate(0) translate(4 832)">
<title>G</title>
<polygon fill="white" stroke="none" points="-4,4 -4,-832 2395,-832 2395,4 -4,4"/>
<!-- consensus_config -->
<g id="node1" class="node">
<title>consensus_config</title>
<ellipse fill="none" stroke="black" cx="2123" cy="-810" rx="73.39" ry="18"/>
<text text-anchor="middle" x="2123" y="-806.3" font-family="Times,serif" font-size="14.00">consensus_config</text>
</g>
<!-- error -->
<g id="node2" class="node">
<title>error</title>
<ellipse fill="none" stroke="black" cx="1829" cy="-234" rx="27.9" ry="18"/>
<text text-anchor="middle" x="1829" y="-230.3" font-family="Times,serif" font-size="14.00">error</text>
</g>
<!-- consensus_config&#45;&gt;error -->
<g id="edge1" class="edge">
<title>consensus_config&#45;&gt;error</title>
<path fill="none" stroke="black" d="M2190.28,-802.47C2269.67,-790.63 2391,-757.7 2391,-667 2391,-667 2391,-667 2391,-377 2391,-320.74 2351.76,-312.26 2301,-288 2224.68,-251.53 1967.54,-239.47 1868.42,-236.13"/>
<polygon fill="black" stroke="black" points="1868.76,-232.63 1858.65,-235.81 1868.53,-239.63 1868.76,-232.63"/>
</g>
<!-- system_addresses -->
<g id="node3" class="node">
<title>system_addresses</title>
<ellipse fill="none" stroke="black" cx="1571" cy="-306" rx="73.39" ry="18"/>
<text text-anchor="middle" x="1571" y="-302.3" font-family="Times,serif" font-size="14.00">system_addresses</text>
</g>
<!-- consensus_config&#45;&gt;system_addresses -->
<g id="edge2" class="edge">
<title>consensus_config&#45;&gt;system_addresses</title>
<path fill="none" stroke="black" d="M2123,-791.51C2123,-764.71 2123,-711.87 2123,-667 2123,-667 2123,-667 2123,-521 2123,-519.78 1811.15,-360.42 1810,-360 1793.75,-354.13 1701.73,-334.34 1636.75,-320.67"/>
<polygon fill="black" stroke="black" points="1637.74,-317.31 1627.24,-318.68 1636.31,-324.16 1637.74,-317.31"/>
</g>
<!-- reconfiguration -->
<g id="node4" class="node">
<title>reconfiguration</title>
<ellipse fill="none" stroke="black" cx="1779" cy="-738" rx="64.99" ry="18"/>
<text text-anchor="middle" x="1779" y="-734.3" font-family="Times,serif" font-size="14.00">reconfiguration</text>
</g>
<!-- consensus_config&#45;&gt;reconfiguration -->
<g id="edge3" class="edge">
<title>consensus_config&#45;&gt;reconfiguration</title>
<path fill="none" stroke="black" d="M2067.73,-797.75C2005.92,-785.18 1906.02,-764.85 1841.44,-751.71"/>
<polygon fill="black" stroke="black" points="1842.18,-748.29 1831.68,-749.72 1840.79,-755.14 1842.18,-748.29"/>
</g>
<!-- system_addresses&#45;&gt;error -->
<g id="edge5" class="edge">
<title>system_addresses&#45;&gt;error</title>
<path fill="none" stroke="black" d="M1618.92,-292C1669.19,-278.36 1747.09,-257.22 1792.57,-244.89"/>
<polygon fill="black" stroke="black" points="1793.47,-248.27 1802.2,-242.27 1791.64,-241.51 1793.47,-248.27"/>
</g>
<!-- signer -->
<g id="node5" class="node">
<title>signer</title>
<ellipse fill="none" stroke="black" cx="810" cy="-234" rx="32.49" ry="18"/>
<text text-anchor="middle" x="810" y="-230.3" font-family="Times,serif" font-size="14.00">signer</text>
</g>
<!-- system_addresses&#45;&gt;signer -->
<g id="edge4" class="edge">
<title>system_addresses&#45;&gt;signer</title>
<path fill="none" stroke="black" d="M1503.13,-298.76C1349.64,-284.64 979.37,-250.58 853.06,-238.96"/>
<polygon fill="black" stroke="black" points="853.74,-235.51 843.46,-238.08 853.1,-242.48 853.74,-235.51"/>
</g>
<!-- reconfiguration&#45;&gt;error -->
<g id="edge7" class="edge">
<title>reconfiguration&#45;&gt;error</title>
<path fill="none" stroke="black" d="M1843.17,-734.33C1992.96,-724.3 2353,-676.74 2353,-451 2353,-451 2353,-451 2353,-377 2353,-314.8 2302.09,-312.68 2245,-288 2177.68,-258.9 1958.7,-242.78 1868.44,-237.23"/>
<polygon fill="black" stroke="black" points="1868.79,-233.74 1858.6,-236.64 1868.37,-240.73 1868.79,-233.74"/>
</g>
<!-- reconfiguration&#45;&gt;system_addresses -->
<g id="edge8" class="edge">
<title>reconfiguration&#45;&gt;system_addresses</title>
<path fill="none" stroke="black" d="M1738.71,-723.56C1688.44,-703.94 1609,-662.3 1609,-595 1609,-595 1609,-595 1609,-521 1609,-453.51 1590.45,-375.88 1579.27,-335.21"/>
<polygon fill="black" stroke="black" points="1582.69,-334.43 1576.61,-325.75 1575.95,-336.32 1582.69,-334.43"/>
</g>
<!-- reconfiguration&#45;&gt;signer -->
<g id="edge6" class="edge">
<title>reconfiguration&#45;&gt;signer</title>
<path fill="none" stroke="black" d="M1714.44,-735.22C1483.92,-728.02 715,-696.39 715,-595 715,-595 715,-595 715,-521 715,-420.83 768.13,-310.53 794.93,-261.27"/>
<polygon fill="black" stroke="black" points="797.85,-263.21 799.63,-252.77 791.73,-259.82 797.85,-263.21"/>
</g>
<!-- event -->
<g id="node6" class="node">
<title>event</title>
<ellipse fill="none" stroke="black" cx="67" cy="-378" rx="29.8" ry="18"/>
<text text-anchor="middle" x="67" y="-374.3" font-family="Times,serif" font-size="14.00">event</text>
</g>
<!-- reconfiguration&#45;&gt;event -->
<g id="edge9" class="edge">
<title>reconfiguration&#45;&gt;event</title>
<path fill="none" stroke="black" d="M1714.45,-735.18C1399.37,-725.9 38,-680.81 38,-595 38,-595 38,-595 38,-521 38,-480.53 49.45,-434.86 57.96,-406.5"/>
<polygon fill="black" stroke="black" points="61.2,-407.86 60.82,-397.27 54.52,-405.78 61.2,-407.86"/>
</g>
<!-- account -->
<g id="node7" class="node">
<title>account</title>
<ellipse fill="none" stroke="black" cx="509" cy="-450" rx="38.19" ry="18"/>
<text text-anchor="middle" x="509" y="-446.3" font-family="Times,serif" font-size="14.00">account</text>
</g>
<!-- reconfiguration&#45;&gt;account -->
<g id="edge10" class="edge">
<title>reconfiguration&#45;&gt;account</title>
<path fill="none" stroke="black" d="M1713.75,-736.84C1494.25,-735.9 791.27,-729.33 701,-684 610.66,-638.64 547.47,-529.4 521.8,-478.26"/>
<polygon fill="black" stroke="black" points="524.97,-476.78 517.42,-469.35 518.69,-479.87 524.97,-476.78"/>
</g>
<!-- chain_status -->
<g id="node8" class="node">
<title>chain_status</title>
<ellipse fill="none" stroke="black" cx="1987" cy="-378" rx="53.89" ry="18"/>
<text text-anchor="middle" x="1987" y="-374.3" font-family="Times,serif" font-size="14.00">chain_status</text>
</g>
<!-- reconfiguration&#45;&gt;chain_status -->
<g id="edge11" class="edge">
<title>reconfiguration&#45;&gt;chain_status</title>
<path fill="none" stroke="black" d="M1829.09,-726.11C1890.63,-709.45 1987,-671.19 1987,-595 1987,-595 1987,-595 1987,-521 1987,-481.74 1987,-436.38 1987,-407.69"/>
<polygon fill="black" stroke="black" points="1990.5,-408 1987,-398 1983.5,-408 1990.5,-408"/>
</g>
<!-- timestamp -->
<g id="node9" class="node">
<title>timestamp</title>
<ellipse fill="none" stroke="black" cx="1834" cy="-522" rx="48.19" ry="18"/>
<text text-anchor="middle" x="1834" y="-518.3" font-family="Times,serif" font-size="14.00">timestamp</text>
</g>
<!-- reconfiguration&#45;&gt;timestamp -->
<g id="edge12" class="edge">
<title>reconfiguration&#45;&gt;timestamp</title>
<path fill="none" stroke="black" d="M1783.41,-719.85C1792.86,-683.07 1815.16,-596.29 1826.74,-551.24"/>
<polygon fill="black" stroke="black" points="1830.09,-552.25 1829.19,-541.7 1823.32,-550.51 1830.09,-552.25"/>
</g>
<!-- stake -->
<g id="node10" class="node">
<title>stake</title>
<ellipse fill="none" stroke="black" cx="1458" cy="-666" rx="28.7" ry="18"/>
<text text-anchor="middle" x="1458" y="-662.3" font-family="Times,serif" font-size="14.00">stake</text>
</g>
<!-- reconfiguration&#45;&gt;stake -->
<g id="edge13" class="edge">
<title>reconfiguration&#45;&gt;stake</title>
<path fill="none" stroke="black" d="M1729.2,-726.14C1664.78,-712.09 1553.98,-687.93 1495.95,-675.28"/>
<polygon fill="black" stroke="black" points="1496.74,-671.87 1486.22,-673.15 1495.25,-678.7 1496.74,-671.87"/>
</g>
<!-- storage_gas -->
<g id="node11" class="node">
<title>storage_gas</title>
<ellipse fill="none" stroke="black" cx="2203" cy="-450" rx="51.99" ry="18"/>
<text text-anchor="middle" x="2203" y="-446.3" font-family="Times,serif" font-size="14.00">storage_gas</text>
</g>
<!-- reconfiguration&#45;&gt;storage_gas -->
<g id="edge14" class="edge">
<title>reconfiguration&#45;&gt;storage_gas</title>
<path fill="none" stroke="black" d="M1841.29,-732.44C1888.08,-726.67 1952.22,-713.6 2001,-684 2088.62,-630.82 2158.16,-526.87 2187.66,-477.83"/>
<polygon fill="black" stroke="black" points="2190.65,-479.65 2192.73,-469.26 2184.62,-476.09 2190.65,-479.65"/>
</g>
<!-- bcs -->
<g id="node12" class="node">
<title>bcs</title>
<ellipse fill="none" stroke="black" cx="320" cy="-234" rx="27" ry="18"/>
<text text-anchor="middle" x="320" y="-230.3" font-family="Times,serif" font-size="14.00">bcs</text>
</g>
<!-- event&#45;&gt;bcs -->
<g id="edge15" class="edge">
<title>event&#45;&gt;bcs</title>
<path fill="none" stroke="black" d="M77.46,-360.93C91.38,-340.83 117.89,-306.79 149,-288 202.15,-255.89 225.69,-273.34 284,-252 285.54,-251.44 287.11,-250.83 288.68,-250.19"/>
<polygon fill="black" stroke="black" points="289.8,-253.53 297.56,-246.32 287,-247.11 289.8,-253.53"/>
</g>
<!-- guid -->
<g id="node13" class="node">
<title>guid</title>
<ellipse fill="none" stroke="black" cx="218" cy="-306" rx="27" ry="18"/>
<text text-anchor="middle" x="218" y="-302.3" font-family="Times,serif" font-size="14.00">guid</text>
</g>
<!-- event&#45;&gt;guid -->
<g id="edge16" class="edge">
<title>event&#45;&gt;guid</title>
<path fill="none" stroke="black" d="M90.26,-366.22C115.94,-354.31 157.42,-335.08 186.11,-321.78"/>
<polygon fill="black" stroke="black" points="187.45,-325.02 195.05,-317.64 184.51,-318.67 187.45,-325.02"/>
</g>
<!-- account&#45;&gt;error -->
<g id="edge22" class="edge">
<title>account&#45;&gt;error</title>
<path fill="none" stroke="black" d="M547.46,-448.09C675.1,-444.77 1083.7,-431.54 1210,-396 1311.41,-367.47 1320.39,-319.25 1421,-288 1551.85,-247.36 1715.68,-237.87 1789.6,-235.66"/>
<polygon fill="black" stroke="black" points="1789.67,-239.16 1799.58,-235.4 1789.49,-232.16 1789.67,-239.16"/>
</g>
<!-- account&#45;&gt;system_addresses -->
<g id="edge23" class="edge">
<title>account&#45;&gt;system_addresses</title>
<path fill="none" stroke="black" d="M547.05,-447.25C697.1,-440.25 1243.38,-413.78 1319,-396 1359.34,-386.52 1366.12,-374.32 1405,-360 1441.09,-346.71 1482.27,-333.55 1514.59,-323.67"/>
<polygon fill="black" stroke="black" points="1515.19,-327.14 1523.74,-320.89 1513.16,-320.45 1515.19,-327.14"/>
</g>
<!-- account&#45;&gt;signer -->
<g id="edge21" class="edge">
<title>account&#45;&gt;signer</title>
<path fill="none" stroke="black" d="M543.52,-441.9C574.39,-434.32 619.74,-420.02 653,-396 702.74,-360.07 694.94,-330.7 739,-288 751.53,-275.85 766.9,-264.06 780.13,-254.7"/>
<polygon fill="black" stroke="black" points="781.84,-257.77 788.07,-249.2 777.86,-252.02 781.84,-257.77"/>
</g>
<!-- account&#45;&gt;event -->
<g id="edge30" class="edge">
<title>account&#45;&gt;event</title>
<path fill="none" stroke="black" d="M473.2,-443.33C391.65,-430.41 192.5,-398.87 107.03,-385.34"/>
<polygon fill="black" stroke="black" points="107.67,-381.9 97.24,-383.79 106.57,-388.81 107.67,-381.9"/>
</g>
<!-- account&#45;&gt;bcs -->
<g id="edge25" class="edge">
<title>account&#45;&gt;bcs</title>
<path fill="none" stroke="black" d="M479.06,-438.58C457.16,-429.82 427.77,-415.57 407,-396 366.91,-358.21 341.21,-297.75 328.81,-262.67"/>
<polygon fill="black" stroke="black" points="332.13,-261.58 325.59,-253.24 325.51,-263.84 332.13,-261.58"/>
</g>
<!-- account&#45;&gt;guid -->
<g id="edge28" class="edge">
<title>account&#45;&gt;guid</title>
<path fill="none" stroke="black" d="M472.07,-444.96C411.69,-437.74 295.33,-420.96 263,-396 243.52,-380.96 231.8,-355.2 225.23,-335.24"/>
<polygon fill="black" stroke="black" points="228.6,-334.31 222.37,-325.74 221.9,-336.33 228.6,-334.31"/>
</g>
<!-- vector -->
<g id="node14" class="node">
<title>vector</title>
<ellipse fill="none" stroke="black" cx="409" cy="-18" rx="32.49" ry="18"/>
<text text-anchor="middle" x="409" y="-14.3" font-family="Times,serif" font-size="14.00">vector</text>
</g>
<!-- account&#45;&gt;vector -->
<g id="edge17" class="edge">
<title>account&#45;&gt;vector</title>
<path fill="none" stroke="black" d="M470.57,-448.69C360.02,-445.6 49,-420.41 49,-235 49,-235 49,-235 49,-161 49,-93.28 272.24,-44.16 367.13,-26.34"/>
<polygon fill="black" stroke="black" points="367.62,-29.81 376.82,-24.55 366.35,-22.92 367.62,-29.81"/>
</g>
<!-- option -->
<g id="node15" class="node">
<title>option</title>
<ellipse fill="none" stroke="black" cx="658" cy="-90" rx="33.29" ry="18"/>
<text text-anchor="middle" x="658" y="-86.3" font-family="Times,serif" font-size="14.00">option</text>
</g>
<!-- account&#45;&gt;option -->
<g id="edge18" class="edge">
<title>account&#45;&gt;option</title>
<path fill="none" stroke="black" d="M538,-438.1C557.96,-429.34 583.87,-415.3 601,-396 629.55,-363.83 639,-350.01 639,-307 639,-307 639,-307 639,-233 639,-193.17 646.43,-147.61 652,-119.07"/>
<polygon fill="black" stroke="black" points="655.4,-119.93 653.95,-109.43 648.54,-118.54 655.4,-119.93"/>
</g>
<!-- type_info -->
<g id="node16" class="node">
<title>type_info</title>
<ellipse fill="none" stroke="black" cx="409" cy="-234" rx="44.39" ry="18"/>
<text text-anchor="middle" x="409" y="-230.3" font-family="Times,serif" font-size="14.00">type_info</text>
</g>
<!-- account&#45;&gt;type_info -->
<g id="edge19" class="edge">
<title>account&#45;&gt;type_info</title>
<path fill="none" stroke="black" d="M481.72,-437.23C464.05,-428.3 441.82,-414.41 428,-396 399.05,-357.44 400.34,-298.4 404.36,-263.55"/>
<polygon fill="black" stroke="black" points="407.8,-264.18 405.65,-253.8 400.87,-263.26 407.8,-264.18"/>
</g>
<!-- table -->
<g id="node17" class="node">
<title>table</title>
<ellipse fill="none" stroke="black" cx="961" cy="-306" rx="27.9" ry="18"/>
<text text-anchor="middle" x="961" y="-302.3" font-family="Times,serif" font-size="14.00">table</text>
</g>
<!-- account&#45;&gt;table -->
<g id="edge20" class="edge">
<title>account&#45;&gt;table</title>
<path fill="none" stroke="black" d="M541.78,-440.19C611.77,-421.13 780.7,-373.74 919,-324 921.72,-323.02 924.53,-321.97 927.33,-320.9"/>
<polygon fill="black" stroke="black" points="928.59,-324.16 936.61,-317.24 926.02,-317.65 928.59,-324.16"/>
</g>
<!-- hash -->
<g id="node18" class="node">
<title>hash</title>
<ellipse fill="none" stroke="black" cx="536" cy="-234" rx="27" ry="18"/>
<text text-anchor="middle" x="536" y="-230.3" font-family="Times,serif" font-size="14.00">hash</text>
</g>
<!-- account&#45;&gt;hash -->
<g id="edge24" class="edge">
<title>account&#45;&gt;hash</title>
<path fill="none" stroke="black" d="M536.44,-437.1C552.91,-428.34 572.47,-414.7 582,-396 605.09,-350.7 575.16,-292.15 553.87,-259.59"/>
<polygon fill="black" stroke="black" points="556.98,-257.93 548.47,-251.62 551.18,-261.86 556.98,-257.93"/>
</g>
<!-- ed25519 -->
<g id="node19" class="node">
<title>ed25519</title>
<ellipse fill="none" stroke="black" cx="456" cy="-306" rx="40.89" ry="18"/>
<text text-anchor="middle" x="456" y="-302.3" font-family="Times,serif" font-size="14.00">ed25519</text>
</g>
<!-- account&#45;&gt;ed25519 -->
<g id="edge26" class="edge">
<title>account&#45;&gt;ed25519</title>
<path fill="none" stroke="black" d="M481.56,-437.1C465.09,-428.34 445.53,-414.7 436,-396 426.13,-376.63 432.59,-352.44 440.72,-334.17"/>
<polygon fill="black" stroke="black" points="443.82,-335.8 445.05,-325.28 437.52,-332.73 443.82,-335.8"/>
</g>
<!-- multi_ed25519 -->
<g id="node20" class="node">
<title>multi_ed25519</title>
<ellipse fill="none" stroke="black" cx="509" cy="-378" rx="64.19" ry="18"/>
<text text-anchor="middle" x="509" y="-374.3" font-family="Times,serif" font-size="14.00">multi_ed25519</text>
</g>
<!-- account&#45;&gt;multi_ed25519 -->
<g id="edge27" class="edge">
<title>account&#45;&gt;multi_ed25519</title>
<path fill="none" stroke="black" d="M509,-431.7C509,-424.41 509,-415.73 509,-407.54"/>
<polygon fill="black" stroke="black" points="512.5,-407.62 509,-397.62 505.5,-407.62 512.5,-407.62"/>
</g>
<!-- from_bcs -->
<g id="node21" class="node">
<title>from_bcs</title>
<ellipse fill="none" stroke="black" cx="231" cy="-234" rx="44.39" ry="18"/>
<text text-anchor="middle" x="231" y="-230.3" font-family="Times,serif" font-size="14.00">from_bcs</text>
</g>
<!-- account&#45;&gt;from_bcs -->
<g id="edge29" class="edge">
<title>account&#45;&gt;from_bcs</title>
<path fill="none" stroke="black" d="M475.8,-440.71C447.09,-432.48 405.38,-417.9 374,-396 319.64,-358.06 271.97,-295.43 247.81,-260.52"/>
<polygon fill="black" stroke="black" points="251.01,-259 242.49,-252.7 245.22,-262.94 251.01,-259"/>
</g>
<!-- chain_status&#45;&gt;error -->
<g id="edge31" class="edge">
<title>chain_status&#45;&gt;error</title>
<path fill="none" stroke="black" d="M1968.88,-360.71C1940.28,-335.01 1884.67,-285.03 1852.86,-256.44"/>
<polygon fill="black" stroke="black" points="1855.46,-254.08 1845.69,-250 1850.78,-259.28 1855.46,-254.08"/>
</g>
<!-- chain_status&#45;&gt;system_addresses -->
<g id="edge32" class="edge">
<title>chain_status&#45;&gt;system_addresses</title>
<path fill="none" stroke="black" d="M1945.81,-365.93C1937,-363.78 1927.72,-361.68 1919,-360 1801.84,-337.5 1770.59,-344.12 1653,-324 1647.41,-323.04 1641.62,-321.98 1635.82,-320.88"/>
<polygon fill="black" stroke="black" points="1636.68,-317.48 1626.2,-318.99 1635.34,-324.35 1636.68,-317.48"/>
</g>
<!-- timestamp&#45;&gt;error -->
<g id="edge33" class="edge">
<title>timestamp&#45;&gt;error</title>
<path fill="none" stroke="black" d="M1877.16,-513.56C1935.65,-500.91 2037.92,-469.07 2083,-396 2108.2,-355.15 2113.28,-325.25 2083,-288 2056.38,-255.26 1932.7,-242.05 1868.27,-237.33"/>
<polygon fill="black" stroke="black" points="1868.69,-233.85 1858.47,-236.64 1868.21,-240.83 1868.69,-233.85"/>
</g>
<!-- timestamp&#45;&gt;system_addresses -->
<g id="edge34" class="edge">
<title>timestamp&#45;&gt;system_addresses</title>
<path fill="none" stroke="black" d="M1811.65,-505.59C1778.87,-482.72 1716.21,-437.97 1666,-396 1641.19,-375.26 1614.43,-349.9 1595.66,-331.57"/>
<polygon fill="black" stroke="black" points="1598.3,-329.25 1588.71,-324.74 1593.39,-334.24 1598.3,-329.25"/>
</g>
<!-- stake&#45;&gt;error -->
<g id="edge38" class="edge">
<title>stake&#45;&gt;error</title>
<path fill="none" stroke="black" d="M1486.35,-662.37C1616.83,-649.65 2157.74,-590.12 2264,-468 2319.08,-404.69 2281.56,-326.5 2207,-288 2148.43,-257.76 1952.64,-242.51 1868.25,-237.22"/>
<polygon fill="black" stroke="black" points="1868.58,-233.73 1858.38,-236.62 1868.15,-240.72 1868.58,-233.73"/>
</g>
<!-- stake&#45;&gt;system_addresses -->
<g id="edge39" class="edge">
<title>stake&#45;&gt;system_addresses</title>
<path fill="none" stroke="black" d="M1465.62,-648.27C1476.26,-624.53 1495.73,-579.55 1509,-540 1510.66,-535.05 1547.43,-396.13 1563.55,-335.19"/>
<polygon fill="black" stroke="black" points="1566.83,-336.47 1566,-325.9 1560.06,-334.68 1566.83,-336.47"/>
</g>
<!-- stake&#45;&gt;signer -->
<g id="edge37" class="edge">
<title>stake&#45;&gt;signer</title>
<path fill="none" stroke="black" d="M1429.09,-664.34C1310.44,-660.85 867,-640 867,-523 867,-523 867,-523 867,-449 867,-412.43 835.52,-312.02 819.35,-262.86"/>
<polygon fill="black" stroke="black" points="822.72,-261.91 816.26,-253.52 816.08,-264.12 822.72,-261.91"/>
</g>
<!-- stake&#45;&gt;event -->
<g id="edge40" class="edge">
<title>stake&#45;&gt;event</title>
<path fill="none" stroke="black" d="M1429.07,-664.52C1329.93,-662.52 995.02,-652.98 722,-612 439.67,-569.62 306.64,-660.7 96,-468 79.22,-452.65 72.12,-427.48 69.13,-407.82"/>
<polygon fill="black" stroke="black" points="72.61,-407.44 67.93,-397.93 65.66,-408.28 72.61,-407.44"/>
</g>
<!-- stake&#45;&gt;account -->
<g id="edge41" class="edge">
<title>stake&#45;&gt;account</title>
<path fill="none" stroke="black" d="M1429.29,-664.17C1320.27,-660.77 932.06,-646.45 814,-612 705.46,-580.33 591.1,-507.78 538.56,-471.89"/>
<polygon fill="black" stroke="black" points="540.65,-469.09 530.43,-466.29 536.68,-474.85 540.65,-469.09"/>
</g>
<!-- stake&#45;&gt;timestamp -->
<g id="edge44" class="edge">
<title>stake&#45;&gt;timestamp</title>
<path fill="none" stroke="black" d="M1487,-665.13C1540.77,-664.23 1658.29,-656.79 1744,-612 1773.05,-596.82 1798.8,-569.12 1815.24,-548.64"/>
<polygon fill="black" stroke="black" points="1817.8,-551.04 1821.18,-541 1812.28,-546.74 1817.8,-551.04"/>
</g>
<!-- stake&#45;&gt;vector -->
<g id="edge35" class="edge">
<title>stake&#45;&gt;vector</title>
<path fill="none" stroke="black" d="M1429.15,-664.52C1258.23,-661.59 381.81,-645.03 267,-612 115.64,-568.46 0,-536.5 0,-379 0,-379 0,-379 0,-161 0,-102.16 45.1,-97.75 98,-72 185.9,-29.21 302.42,-20.32 364.91,-18.87"/>
<polygon fill="black" stroke="black" points="364.85,-22.37 374.79,-18.7 364.73,-15.37 364.85,-22.37"/>
</g>
<!-- stake&#45;&gt;option -->
<g id="edge36" class="edge">
<title>stake&#45;&gt;option</title>
<path fill="none" stroke="black" d="M1450.52,-648.15C1421.41,-584.16 1309.58,-352.89 1156,-216 1111.26,-176.13 1098.29,-164.56 1042,-144 924.69,-101.15 775.68,-92.57 702.56,-91.1"/>
<polygon fill="black" stroke="black" points="703.07,-87.61 693.01,-90.94 702.95,-94.6 703.07,-87.61"/>
</g>
<!-- coin -->
<g id="node22" class="node">
<title>coin</title>
<ellipse fill="none" stroke="black" cx="791" cy="-522" rx="27" ry="18"/>
<text text-anchor="middle" x="791" y="-518.3" font-family="Times,serif" font-size="14.00">coin</text>
</g>
<!-- stake&#45;&gt;coin -->
<g id="edge42" class="edge">
<title>stake&#45;&gt;coin</title>
<path fill="none" stroke="black" d="M1429.23,-663.91C1315.79,-659.4 903.3,-641.12 853,-612 829.1,-598.16 812.24,-570.97 802.19,-550.27"/>
<polygon fill="black" stroke="black" points="805.4,-548.87 798.06,-541.23 799.03,-551.78 805.4,-548.87"/>
</g>
<!-- aptos_coin -->
<g id="node23" class="node">
<title>aptos_coin</title>
<ellipse fill="none" stroke="black" cx="1295" cy="-594" rx="48.99" ry="18"/>
<text text-anchor="middle" x="1295" y="-590.3" font-family="Times,serif" font-size="14.00">aptos_coin</text>
</g>
<!-- stake&#45;&gt;aptos_coin -->
<g id="edge43" class="edge">
<title>stake&#45;&gt;aptos_coin</title>
<path fill="none" stroke="black" d="M1434.65,-654.97C1409.13,-644.01 1367.76,-626.25 1336.65,-612.89"/>
<polygon fill="black" stroke="black" points="1338.08,-609.69 1327.51,-608.96 1335.32,-616.12 1338.08,-609.69"/>
</g>
<!-- staking_config -->
<g id="node24" class="node">
<title>staking_config</title>
<ellipse fill="none" stroke="black" cx="1738" cy="-378" rx="63.09" ry="18"/>
<text text-anchor="middle" x="1738" y="-374.3" font-family="Times,serif" font-size="14.00">staking_config</text>
</g>
<!-- stake&#45;&gt;staking_config -->
<g id="edge45" class="edge">
<title>stake&#45;&gt;staking_config</title>
<path fill="none" stroke="black" d="M1486.96,-665.64C1530.45,-665.01 1612.65,-657.36 1661,-612 1719.57,-557.05 1733.64,-456.67 1736.98,-407.58"/>
<polygon fill="black" stroke="black" points="1740.46,-407.95 1737.53,-397.77 1733.48,-407.56 1740.46,-407.95"/>
</g>
<!-- math64 -->
<g id="node25" class="node">
<title>math64</title>
<ellipse fill="none" stroke="black" cx="1543" cy="-594" rx="37.89" ry="18"/>
<text text-anchor="middle" x="1543" y="-590.3" font-family="Times,serif" font-size="14.00">math64</text>
</g>
<!-- stake&#45;&gt;math64 -->
<g id="edge46" class="edge">
<title>stake&#45;&gt;math64</title>
<path fill="none" stroke="black" d="M1474.79,-651.17C1486.51,-641.52 1502.4,-628.44 1515.89,-617.33"/>
<polygon fill="black" stroke="black" points="1518.11,-620.03 1523.6,-610.97 1513.66,-614.63 1518.11,-620.03"/>
</g>
<!-- bls12381 -->
<g id="node26" class="node">
<title>bls12381</title>
<ellipse fill="none" stroke="black" cx="1705" cy="-306" rx="42.79" ry="18"/>
<text text-anchor="middle" x="1705" y="-302.3" font-family="Times,serif" font-size="14.00">bls12381</text>
</g>
<!-- stake&#45;&gt;bls12381 -->
<g id="edge47" class="edge">
<title>stake&#45;&gt;bls12381</title>
<path fill="none" stroke="black" d="M1486.03,-661.01C1515.9,-655.31 1562.58,-641.97 1590,-612 1668.96,-525.69 1613.68,-464.63 1666,-360 1670.83,-350.35 1677.4,-340.6 1683.77,-332.15"/>
<polygon fill="black" stroke="black" points="1686.42,-334.44 1689.85,-324.42 1680.92,-330.12 1686.42,-334.44"/>
</g>
<!-- storage_gas&#45;&gt;error -->
<g id="edge48" class="edge">
<title>storage_gas&#45;&gt;error</title>
<path fill="none" stroke="black" d="M2226.37,-433.55C2238.25,-424.25 2251.52,-411.25 2258,-396 2264.26,-381.28 2265.39,-374.19 2258,-360 2232.19,-310.47 2206.75,-309.01 2155,-288 2057.17,-248.29 1931.42,-238.28 1868.52,-235.8"/>
<polygon fill="black" stroke="black" points="1868.8,-232.3 1858.68,-235.46 1868.55,-239.3 1868.8,-232.3"/>
</g>
<!-- storage_gas&#45;&gt;system_addresses -->
<g id="edge49" class="edge">
<title>storage_gas&#45;&gt;system_addresses</title>
<path fill="none" stroke="black" d="M2162.99,-438.12C2154.45,-435.95 2145.45,-433.8 2137,-432 2043.1,-412.01 2011.18,-436.22 1924,-396 1901.37,-385.56 1903.69,-370.32 1881,-360 1787.61,-317.53 1753.92,-342.42 1653,-324 1647.42,-322.98 1641.64,-321.88 1635.85,-320.74"/>
<polygon fill="black" stroke="black" points="1636.72,-317.35 1626.22,-318.82 1635.35,-324.21 1636.72,-317.35"/>
</g>
<!-- state_storage -->
<g id="node27" class="node">
<title>state_storage</title>
<ellipse fill="none" stroke="black" cx="2192" cy="-378" rx="56.59" ry="18"/>
<text text-anchor="middle" x="2192" y="-374.3" font-family="Times,serif" font-size="14.00">state_storage</text>
</g>
<!-- storage_gas&#45;&gt;state_storage -->
<g id="edge50" class="edge">
<title>storage_gas&#45;&gt;state_storage</title>
<path fill="none" stroke="black" d="M2200.28,-431.7C2199.12,-424.32 2197.74,-415.52 2196.44,-407.25"/>
<polygon fill="black" stroke="black" points="2199.93,-406.93 2194.92,-397.6 2193.02,-408.02 2199.93,-406.93"/>
</g>
<!-- option&#45;&gt;vector -->
<g id="edge51" class="edge">
<title>option&#45;&gt;vector</title>
<path fill="none" stroke="black" d="M628.95,-80.83C584.32,-68.29 498.79,-44.24 448.55,-30.12"/>
<polygon fill="black" stroke="black" points="449.51,-26.75 438.94,-27.42 447.62,-33.49 449.51,-26.75"/>
</g>
<!-- string -->
<g id="node28" class="node">
<title>string</title>
<ellipse fill="none" stroke="black" cx="409" cy="-162" rx="30.59" ry="18"/>
<text text-anchor="middle" x="409" y="-158.3" font-family="Times,serif" font-size="14.00">string</text>
</g>
<!-- type_info&#45;&gt;string -->
<g id="edge52" class="edge">
<title>type_info&#45;&gt;string</title>
<path fill="none" stroke="black" d="M409,-215.7C409,-208.41 409,-199.73 409,-191.54"/>
<polygon fill="black" stroke="black" points="412.5,-191.62 409,-181.62 405.5,-191.62 412.5,-191.62"/>
</g>
<!-- ed25519&#45;&gt;error -->
<g id="edge55" class="edge">
<title>ed25519&#45;&gt;error</title>
<path fill="none" stroke="black" d="M496.72,-302.92C698.65,-292.63 1590.85,-247.14 1789.64,-237.01"/>
<polygon fill="black" stroke="black" points="1789.63,-240.51 1799.44,-236.51 1789.27,-233.52 1789.63,-240.51"/>
</g>
<!-- ed25519&#45;&gt;bcs -->
<g id="edge57" class="edge">
<title>ed25519&#45;&gt;bcs</title>
<path fill="none" stroke="black" d="M430.1,-291.67C407.54,-280.06 374.8,-263.2 350.88,-250.89"/>
<polygon fill="black" stroke="black" points="352.74,-247.92 342.25,-246.45 349.54,-254.14 352.74,-247.92"/>
</g>
<!-- ed25519&#45;&gt;option -->
<g id="edge53" class="edge">
<title>ed25519&#45;&gt;option</title>
<path fill="none" stroke="black" d="M462.04,-287.71C469.18,-268.83 482.35,-238.3 500,-216 535.95,-170.56 591.53,-131.59 626.28,-109.74"/>
<polygon fill="black" stroke="black" points="627.97,-112.81 634.64,-104.58 624.29,-106.86 627.97,-112.81"/>
</g>
<!-- ed25519&#45;&gt;type_info -->
<g id="edge54" class="edge">
<title>ed25519&#45;&gt;type_info</title>
<path fill="none" stroke="black" d="M444.86,-288.41C439.36,-280.22 432.59,-270.14 426.43,-260.95"/>
<polygon fill="black" stroke="black" points="429.38,-259.08 420.9,-252.73 423.57,-262.98 429.38,-259.08"/>
</g>
<!-- ed25519&#45;&gt;hash -->
<g id="edge56" class="edge">
<title>ed25519&#45;&gt;hash</title>
<path fill="none" stroke="black" d="M473.75,-289.46C484.94,-279.68 499.53,-266.91 511.77,-256.2"/>
<polygon fill="black" stroke="black" points="513.83,-259.05 519.05,-249.83 509.22,-253.78 513.83,-259.05"/>
</g>
<!-- multi_ed25519&#45;&gt;error -->
<g id="edge59" class="edge">
<title>multi_ed25519&#45;&gt;error</title>
<path fill="none" stroke="black" d="M554.35,-364.89C630.23,-345.17 788,-306.45 924,-288 1256.39,-242.89 1662.58,-236.16 1789.32,-235.17"/>
<polygon fill="black" stroke="black" points="1789.21,-238.67 1799.19,-235.1 1789.16,-231.67 1789.21,-238.67"/>
</g>
<!-- multi_ed25519&#45;&gt;bcs -->
<g id="edge61" class="edge">
<title>multi_ed25519&#45;&gt;bcs</title>
<path fill="none" stroke="black" d="M473.96,-362.45C453.22,-353.01 426.99,-339.59 406,-324 380.5,-305.06 355.78,-278.32 339.44,-259.1"/>
<polygon fill="black" stroke="black" points="342.18,-256.94 333.09,-251.5 336.81,-261.42 342.18,-256.94"/>
</g>
<!-- multi_ed25519&#45;&gt;option -->
<g id="edge58" class="edge">
<title>multi_ed25519&#45;&gt;option</title>
<path fill="none" stroke="black" d="M518.22,-359.89C523.74,-349.54 530.87,-336.06 537,-324 542.04,-314.08 619.61,-153.74 625,-144 629.93,-135.1 635.68,-125.61 640.98,-117.14"/>
<polygon fill="black" stroke="black" points="643.93,-119.04 646.34,-108.73 638.02,-115.28 643.93,-119.04"/>
</g>
<!-- multi_ed25519&#45;&gt;hash -->
<g id="edge60" class="edge">
<title>multi_ed25519&#45;&gt;hash</title>
<path fill="none" stroke="black" d="M512.31,-359.59C516.87,-335.61 525.13,-292.14 530.6,-263.42"/>
<polygon fill="black" stroke="black" points="534.03,-264.08 532.46,-253.6 527.16,-262.77 534.03,-264.08"/>
</g>
<!-- multi_ed25519&#45;&gt;ed25519 -->
<g id="edge62" class="edge">
<title>multi_ed25519&#45;&gt;ed25519</title>
<path fill="none" stroke="black" d="M496.17,-360.05C489.89,-351.77 482.21,-341.62 475.25,-332.42"/>
<polygon fill="black" stroke="black" points="478.09,-330.37 469.26,-324.51 472.51,-334.6 478.09,-330.37"/>
</g>
<!-- from_bcs&#45;&gt;string -->
<g id="edge63" class="edge">
<title>from_bcs&#45;&gt;string</title>
<path fill="none" stroke="black" d="M262.01,-220.81C293.15,-208.56 341.07,-189.71 373.67,-176.9"/>
<polygon fill="black" stroke="black" points="374.65,-180.27 382.68,-173.35 372.09,-173.75 374.65,-180.27"/>
</g>
<!-- coin&#45;&gt;error -->
<g id="edge68" class="edge">
<title>coin&#45;&gt;error</title>
<path fill="none" stroke="black" d="M817.74,-517.95C977.64,-499.66 1800.92,-405.12 1810,-396 1844.52,-361.32 1840.92,-299.5 1835.05,-263.39"/>
<polygon fill="black" stroke="black" points="1838.52,-262.91 1833.3,-253.69 1831.63,-264.15 1838.52,-262.91"/>
</g>
<!-- coin&#45;&gt;system_addresses -->
<g id="edge69" class="edge">
<title>coin&#45;&gt;system_addresses</title>
<path fill="none" stroke="black" d="M817.7,-518.48C876.75,-512.57 1022.64,-496.17 1142,-468 1242.95,-444.18 1266.92,-432.52 1364,-396 1421.26,-374.46 1485.81,-346.02 1527.37,-327.15"/>
<polygon fill="black" stroke="black" points="1528.66,-330.41 1536.31,-323.08 1525.76,-324.04 1528.66,-330.41"/>
</g>
<!-- coin&#45;&gt;signer -->
<g id="edge67" class="edge">
<title>coin&#45;&gt;signer</title>
<path fill="none" stroke="black" d="M792.16,-503.54C795.33,-455.76 804.19,-322.51 808.1,-263.61"/>
<polygon fill="black" stroke="black" points="811.58,-263.95 808.75,-253.74 804.6,-263.49 811.58,-263.95"/>
</g>
<!-- coin&#45;&gt;event -->
<g id="edge70" class="edge">
<title>coin&#45;&gt;event</title>
<path fill="none" stroke="black" d="M764.04,-520.07C647.93,-515.9 193.97,-497.8 138,-468 112.03,-454.17 92.26,-426.34 80.25,-405.46"/>
<polygon fill="black" stroke="black" points="83.44,-403.99 75.57,-396.9 77.3,-407.35 83.44,-403.99"/>
</g>
<!-- coin&#45;&gt;account -->
<g id="edge71" class="edge">
<title>coin&#45;&gt;account</title>
<path fill="none" stroke="black" d="M765.97,-514.79C718.11,-502.91 613.02,-476.82 553.11,-461.95"/>
<polygon fill="black" stroke="black" points="554.14,-458.6 543.59,-459.59 552.45,-465.39 554.14,-458.6"/>
</g>
<!-- coin&#45;&gt;option -->
<g id="edge64" class="edge">
<title>coin&#45;&gt;option</title>
<path fill="none" stroke="black" d="M785.7,-503.88C765.35,-438.07 692.03,-201.03 666.69,-119.1"/>
<polygon fill="black" stroke="black" points="670.06,-118.14 663.76,-109.62 663.37,-120.2 670.06,-118.14"/>
</g>
<!-- coin&#45;&gt;type_info -->
<g id="edge66" class="edge">
<title>coin&#45;&gt;type_info</title>
<path fill="none" stroke="black" d="M764.51,-517.92C665.67,-506.01 319.66,-460.4 232,-396 189.37,-364.68 148.6,-329.02 182,-288 231.86,-226.76 279.63,-272.09 356,-252 358.92,-251.23 361.92,-250.4 364.93,-249.52"/>
<polygon fill="black" stroke="black" points="365.79,-252.92 374.35,-246.68 363.76,-246.22 365.79,-252.92"/>
</g>
<!-- coin&#45;&gt;string -->
<g id="edge65" class="edge">
<title>coin&#45;&gt;string</title>
<path fill="none" stroke="black" d="M764.04,-519.47C675.94,-514.26 397.28,-495.92 312,-468 251.07,-448.05 226.61,-446.41 187,-396 137.51,-333.02 123.1,-274.32 178,-216 203.52,-188.9 308.36,-173.63 367.65,-167.01"/>
<polygon fill="black" stroke="black" points="367.79,-170.51 377.36,-165.96 367.04,-163.55 367.79,-170.51"/>
</g>
<!-- optional_aggregator -->
<g id="node29" class="node">
<title>optional_aggregator</title>
<ellipse fill="none" stroke="black" cx="1052" cy="-450" rx="81.49" ry="18"/>
<text text-anchor="middle" x="1052" y="-446.3" font-family="Times,serif" font-size="14.00">optional_aggregator</text>
</g>
<!-- coin&#45;&gt;optional_aggregator -->
<g id="edge72" class="edge">
<title>coin&#45;&gt;optional_aggregator</title>
<path fill="none" stroke="black" d="M815.55,-514.41C855.29,-503.76 934.86,-482.42 990.68,-467.45"/>
<polygon fill="black" stroke="black" points="991.29,-470.91 1000.04,-464.93 989.48,-464.14 991.29,-470.91"/>
</g>
<!-- aptos_coin&#45;&gt;error -->
<g id="edge77" class="edge">
<title>aptos_coin&#45;&gt;error</title>
<path fill="none" stroke="black" d="M1338.04,-584.93C1491.47,-555.73 2004.97,-454.29 2050,-396 2107.62,-321.41 1942.91,-265.67 1866.09,-244.41"/>
<polygon fill="black" stroke="black" points="1867.03,-241.04 1856.46,-241.81 1865.2,-247.8 1867.03,-241.04"/>
</g>
<!-- aptos_coin&#45;&gt;system_addresses -->
<g id="edge78" class="edge">
<title>aptos_coin&#45;&gt;system_addresses</title>
<path fill="none" stroke="black" d="M1328.09,-580.29C1348.86,-571.21 1375.34,-557.51 1395,-540 1467.55,-475.4 1457.2,-434.95 1519,-360 1527.08,-350.2 1536.64,-340.1 1545.35,-331.37"/>
<polygon fill="black" stroke="black" points="1547.61,-334.06 1552.28,-324.54 1542.7,-329.07 1547.61,-334.06"/>
</g>
<!-- aptos_coin&#45;&gt;signer -->
<g id="edge76" class="edge">
<title>aptos_coin&#45;&gt;signer</title>
<path fill="none" stroke="black" d="M1245.75,-592.38C1156.95,-590.25 974.93,-580.86 929,-540 867.14,-484.97 911.18,-437.1 881,-360 867.81,-326.31 861.02,-319.38 843,-288 837.8,-278.95 831.84,-269.2 826.43,-260.57"/>
<polygon fill="black" stroke="black" points="829.53,-258.91 821.22,-252.34 823.61,-262.66 829.53,-258.91"/>
</g>
<!-- aptos_coin&#45;&gt;vector -->
<g id="edge73" class="edge">
<title>aptos_coin&#45;&gt;vector</title>
<path fill="none" stroke="black" d="M1312.34,-576.8C1354.13,-535.91 1457,-423.41 1457,-307 1457,-307 1457,-307 1457,-161 1457,-58.05 652.52,-26.49 453.25,-20.26"/>
<polygon fill="black" stroke="black" points="453.42,-16.76 443.32,-19.95 453.2,-23.76 453.42,-16.76"/>
</g>
<!-- aptos_coin&#45;&gt;option -->
<g id="edge74" class="edge">
<title>aptos_coin&#45;&gt;option</title>
<path fill="none" stroke="black" d="M1292.67,-575.78C1285.28,-526.43 1258.52,-382.07 1188,-288 1122.08,-200.07 1088.61,-185.85 987,-144 891.06,-104.49 768.08,-94.32 703.03,-91.78"/>
<polygon fill="black" stroke="black" points="703.2,-88.29 693.09,-91.44 702.97,-95.28 703.2,-88.29"/>
</g>
<!-- aptos_coin&#45;&gt;coin -->
<g id="edge79" class="edge">
<title>aptos_coin&#45;&gt;coin</title>
<path fill="none" stroke="black" d="M1248.87,-587.53C1173.76,-578.48 1020.41,-559.48 891,-540 870.09,-536.85 846.79,-532.92 827.95,-529.63"/>
<polygon fill="black" stroke="black" points="828.8,-526.22 818.35,-527.94 827.59,-533.12 828.8,-526.22"/>
</g>
<!-- aptos_coin&#45;&gt;string -->
<g id="edge75" class="edge">
<title>aptos_coin&#45;&gt;string</title>
<path fill="none" stroke="black" d="M1246.15,-591.06C1170.42,-585.11 1026.7,-561.4 962,-468 915.54,-400.94 1041.18,-357.22 998,-288 959.5,-226.27 920.77,-236.62 851,-216 708.48,-173.87 530.68,-165.13 451.02,-163.39"/>
<polygon fill="black" stroke="black" points="451.57,-159.9 441.5,-163.21 451.43,-166.9 451.57,-159.9"/>
</g>
<!-- staking_config&#45;&gt;error -->
<g id="edge80" class="edge">
<title>staking_config&#45;&gt;error</title>
<path fill="none" stroke="black" d="M1748.98,-359.87C1764.88,-335.06 1794.42,-288.96 1812.82,-260.25"/>
<polygon fill="black" stroke="black" points="1815.56,-262.46 1818.01,-252.15 1809.66,-258.69 1815.56,-262.46"/>
</g>
<!-- staking_config&#45;&gt;system_addresses -->
<g id="edge81" class="edge">
<title>staking_config&#45;&gt;system_addresses</title>
<path fill="none" stroke="black" d="M1703.4,-362.5C1678.52,-352.07 1644.69,-337.89 1617.46,-326.47"/>
<polygon fill="black" stroke="black" points="1618.97,-323.31 1608.4,-322.68 1616.27,-329.77 1618.97,-323.31"/>
</g>
<!-- bls12381&#45;&gt;error -->
<g id="edge83" class="edge">
<title>bls12381&#45;&gt;error</title>
<path fill="none" stroke="black" d="M1729.8,-291C1749.6,-279.83 1777.43,-264.11 1798.58,-252.17"/>
<polygon fill="black" stroke="black" points="1800.05,-255.36 1807.04,-247.4 1796.61,-249.27 1800.05,-255.36"/>
</g>
<!-- bls12381&#45;&gt;option -->
<g id="edge82" class="edge">
<title>bls12381&#45;&gt;option</title>
<path fill="none" stroke="black" d="M1678.67,-291.44C1615.05,-259.39 1447.17,-179.05 1297,-144 1078.58,-93.02 808.15,-89.46 702.88,-90.25"/>
<polygon fill="black" stroke="black" points="702.93,-86.75 692.97,-90.35 703,-93.75 702.93,-86.75"/>
</g>
<!-- state_storage&#45;&gt;error -->
<g id="edge84" class="edge">
<title>state_storage&#45;&gt;error</title>
<path fill="none" stroke="black" d="M2183.31,-359.81C2171.95,-339.22 2150.02,-305.33 2121,-288 2078.77,-262.77 1937.08,-245.69 1867.8,-238.64"/>
<polygon fill="black" stroke="black" points="1868.34,-235.18 1858.04,-237.67 1867.64,-242.14 1868.34,-235.18"/>
</g>
<!-- state_storage&#45;&gt;system_addresses -->
<g id="edge85" class="edge">
<title>state_storage&#45;&gt;system_addresses</title>
<path fill="none" stroke="black" d="M2140.11,-370.43C2113.24,-367.11 2079.88,-363.14 2050,-360 1873.8,-341.47 1828.25,-350.02 1653,-324 1647.07,-323.12 1640.92,-322.08 1634.78,-320.96"/>
<polygon fill="black" stroke="black" points="1635.74,-317.58 1625.26,-319.15 1634.43,-324.46 1635.74,-317.58"/>
</g>
<!-- string&#45;&gt;vector -->
<g id="edge86" class="edge">
<title>string&#45;&gt;vector</title>
<path fill="none" stroke="black" d="M409,-143.59C409,-119.61 409,-76.14 409,-47.42"/>
<polygon fill="black" stroke="black" points="412.5,-47.62 409,-37.62 405.5,-47.62 412.5,-47.62"/>
</g>
<!-- string&#45;&gt;option -->
<g id="edge87" class="edge">
<title>string&#45;&gt;option</title>
<path fill="none" stroke="black" d="M436.12,-152.96C445.85,-150.1 456.91,-146.88 467,-144 518.96,-129.18 579.02,-112.6 617.71,-102"/>
<polygon fill="black" stroke="black" points="618.33,-105.46 627.05,-99.44 616.49,-98.7 618.33,-105.46"/>
</g>
<!-- optional_aggregator&#45;&gt;error -->
<g id="edge89" class="edge">
<title>optional_aggregator&#45;&gt;error</title>
<path fill="none" stroke="black" d="M1125.47,-441.82C1180.31,-434.72 1256.27,-421.13 1319,-396 1402.1,-362.72 1405.23,-319.56 1489,-288 1592.94,-248.84 1725.25,-238.61 1789.89,-235.94"/>
<polygon fill="black" stroke="black" points="1789.77,-239.44 1799.64,-235.58 1789.51,-232.45 1789.77,-239.44"/>
</g>
<!-- optional_aggregator&#45;&gt;option -->
<g id="edge88" class="edge">
<title>optional_aggregator&#45;&gt;option</title>
<path fill="none" stroke="black" d="M1042.05,-431.98C1036.73,-421.89 1030.73,-408.64 1028,-396 1011.12,-317.79 1077.73,-280.95 1031,-216 954.77,-110.06 784.5,-92.63 703.06,-90.6"/>
<polygon fill="black" stroke="black" points="703.29,-87.1 693.23,-90.43 703.17,-94.1 703.29,-87.1"/>
</g>
<!-- aggregator -->
<g id="node30" class="node">
<title>aggregator</title>
<ellipse fill="none" stroke="black" cx="1131" cy="-306" rx="48.19" ry="18"/>
<text text-anchor="middle" x="1131" y="-302.3" font-family="Times,serif" font-size="14.00">aggregator</text>
</g>
<!-- optional_aggregator&#45;&gt;aggregator -->
<g id="edge90" class="edge">
<title>optional_aggregator&#45;&gt;aggregator</title>
<path fill="none" stroke="black" d="M1043.04,-431.72C1034.6,-412.84 1025.03,-382.31 1038,-360 1048.07,-342.67 1066.16,-330.54 1083.72,-322.3"/>
<polygon fill="black" stroke="black" points="1084.76,-325.66 1092.55,-318.49 1081.98,-319.24 1084.76,-325.66"/>
</g>
<!-- aggregator_factory -->
<g id="node31" class="node">
<title>aggregator_factory</title>
<ellipse fill="none" stroke="black" cx="1124" cy="-378" rx="77.19" ry="18"/>
<text text-anchor="middle" x="1124" y="-374.3" font-family="Times,serif" font-size="14.00">aggregator_factory</text>
</g>
<!-- optional_aggregator&#45;&gt;aggregator_factory -->
<g id="edge91" class="edge">
<title>optional_aggregator&#45;&gt;aggregator_factory</title>
<path fill="none" stroke="black" d="M1069.43,-432.05C1078.18,-423.54 1088.96,-413.07 1098.61,-403.68"/>
<polygon fill="black" stroke="black" points="1100.92,-406.32 1105.65,-396.84 1096.04,-401.31 1100.92,-406.32"/>
</g>
<!-- aggregator_factory&#45;&gt;error -->
<g id="edge93" class="edge">
<title>aggregator_factory&#45;&gt;error</title>
<path fill="none" stroke="black" d="M1150.1,-360.63C1184.58,-339.88 1247.87,-304.81 1307,-288 1481.66,-238.36 1700.81,-233.89 1789.27,-234.34"/>
<polygon fill="black" stroke="black" points="1789.08,-237.84 1799.11,-234.42 1789.14,-230.84 1789.08,-237.84"/>
</g>
<!-- aggregator_factory&#45;&gt;system_addresses -->
<g id="edge94" class="edge">
<title>aggregator_factory&#45;&gt;system_addresses</title>
<path fill="none" stroke="black" d="M1186.62,-367.19C1268.72,-354.34 1412.41,-331.84 1498.93,-318.29"/>
<polygon fill="black" stroke="black" points="1499.4,-321.76 1508.74,-316.75 1498.31,-314.84 1499.4,-321.76"/>
</g>
<!-- aggregator_factory&#45;&gt;table -->
<g id="edge92" class="edge">
<title>aggregator_factory&#45;&gt;table</title>
<path fill="none" stroke="black" d="M1088.23,-361.64C1060.1,-349.56 1021.23,-332.86 993.87,-321.12"/>
<polygon fill="black" stroke="black" points="995.6,-318.05 985.03,-317.32 992.84,-324.48 995.6,-318.05"/>
</g>
<!-- aggregator_factory&#45;&gt;aggregator -->
<g id="edge95" class="edge">
<title>aggregator_factory&#45;&gt;aggregator</title>
<path fill="none" stroke="black" d="M1125.73,-359.7C1126.46,-352.41 1127.33,-343.73 1128.15,-335.54"/>
<polygon fill="black" stroke="black" points="1131.63,-335.91 1129.14,-325.61 1124.66,-335.21 1131.63,-335.91"/>
</g>
</g>
</svg>
