<?xml version="1.0" encoding="UTF-8" standalone="no"?>
<!DOCTYPE svg PUBLIC "-//W3C//DTD SVG 1.1//EN"
 "http://www.w3.org/Graphics/SVG/1.1/DTD/svg11.dtd">
<!-- Generated by graphviz version 7.0.0 (20221023.0053)
 -->
<!-- Title: G Pages: 1 -->
<svg width="2464pt" height="836pt"
 viewBox="0.00 0.00 2464.00 836.00" xmlns="http://www.w3.org/2000/svg" xmlns:xlink="http://www.w3.org/1999/xlink">
<g id="graph0" class="graph" transform="scale(1 1) rotate(0) translate(4 832)">
<title>G</title>
<polygon fill="white" stroke="none" points="-4,4 -4,-832 2460,-832 2460,4 -4,4"/>
<!-- gas_schedule -->
<g id="node1" class="node">
<title>gas_schedule</title>
<ellipse fill="none" stroke="black" cx="1621" cy="-810" rx="57.69" ry="18"/>
<text text-anchor="middle" x="1621" y="-806.3" font-family="Times,serif" font-size="14.00">gas_schedule</text>
</g>
<!-- vector -->
<g id="node2" class="node">
<title>vector</title>
<ellipse fill="none" stroke="black" cx="534" cy="-18" rx="32.49" ry="18"/>
<text text-anchor="middle" x="534" y="-14.3" font-family="Times,serif" font-size="14.00">vector</text>
</g>
<!-- gas_schedule&#45;&gt;vector -->
<g id="edge1" class="edge">
<title>gas_schedule&#45;&gt;vector</title>
<path fill="none" stroke="black" d="M1563.07,-808.62C1341.16,-806.87 545.19,-797.76 296,-756 160.52,-733.3 0,-804.37 0,-667 0,-667 0,-667 0,-161 0,-108.98 30.1,-96.46 76,-72 147.09,-34.12 389.52,-23.04 489.91,-20.04"/>
<polygon fill="black" stroke="black" points="489.74,-23.54 499.64,-19.76 489.54,-16.55 489.74,-23.54"/>
</g>
<!-- string -->
<g id="node3" class="node">
<title>string</title>
<ellipse fill="none" stroke="black" cx="397" cy="-162" rx="30.59" ry="18"/>
<text text-anchor="middle" x="397" y="-158.3" font-family="Times,serif" font-size="14.00">string</text>
</g>
<!-- gas_schedule&#45;&gt;string -->
<g id="edge2" class="edge">
<title>gas_schedule&#45;&gt;string</title>
<path fill="none" stroke="black" d="M1563.72,-806.8C1284.11,-795.68 76,-743.22 76,-667 76,-667 76,-667 76,-305 76,-184.4 267.84,-165.4 354.91,-162.99"/>
<polygon fill="black" stroke="black" points="354.78,-166.49 364.71,-162.78 354.64,-159.49 354.78,-166.49"/>
</g>
<!-- error -->
<g id="node4" class="node">
<title>error</title>
<ellipse fill="none" stroke="black" cx="1855" cy="-234" rx="27.9" ry="18"/>
<text text-anchor="middle" x="1855" y="-230.3" font-family="Times,serif" font-size="14.00">error</text>
</g>
<!-- gas_schedule&#45;&gt;error -->
<g id="edge3" class="edge">
<title>gas_schedule&#45;&gt;error</title>
<path fill="none" stroke="black" d="M1678.98,-809.56C1779.24,-809.17 1990.72,-802.28 2162,-756 2253.58,-731.26 2356,-761.86 2356,-667 2356,-667 2356,-667 2356,-449 2356,-362.59 2324.55,-326.13 2247,-288 2103.1,-217.25 2041.76,-297.52 1888,-252 1887.19,-251.76 1886.37,-251.5 1885.56,-251.22"/>
<polygon fill="black" stroke="black" points="1887.07,-248.06 1876.49,-247.44 1884.37,-254.52 1887.07,-248.06"/>
</g>
<!-- system_addresses -->
<g id="node5" class="node">
<title>system_addresses</title>
<ellipse fill="none" stroke="black" cx="1421" cy="-306" rx="73.39" ry="18"/>
<text text-anchor="middle" x="1421" y="-302.3" font-family="Times,serif" font-size="14.00">system_addresses</text>
</g>
<!-- gas_schedule&#45;&gt;system_addresses -->
<g id="edge4" class="edge">
<title>gas_schedule&#45;&gt;system_addresses</title>
<path fill="none" stroke="black" d="M1563.18,-808.62C1347.85,-805.86 597.35,-783.89 452,-612 441.67,-599.78 442.28,-588.71 452,-576 475.26,-545.61 1080.16,-406.38 1117,-396 1203.71,-371.58 1303.92,-341.97 1364.85,-323.81"/>
<polygon fill="black" stroke="black" points="1365.73,-327.2 1374.31,-320.99 1363.73,-320.5 1365.73,-327.2"/>
</g>
<!-- storage_gas -->
<g id="node6" class="node">
<title>storage_gas</title>
<ellipse fill="none" stroke="black" cx="2228" cy="-450" rx="51.99" ry="18"/>
<text text-anchor="middle" x="2228" y="-446.3" font-family="Times,serif" font-size="14.00">storage_gas</text>
</g>
<!-- gas_schedule&#45;&gt;storage_gas -->
<g id="edge5" class="edge">
<title>gas_schedule&#45;&gt;storage_gas</title>
<path fill="none" stroke="black" d="M1678.56,-807.69C1829.83,-802.71 2227,-778.98 2227,-667 2227,-667 2227,-667 2227,-593 2227,-553.74 2227.39,-508.37 2227.68,-479.69"/>
<polygon fill="black" stroke="black" points="2231.18,-480.04 2227.78,-470 2224.18,-479.96 2231.18,-480.04"/>
</g>
<!-- reconfiguration -->
<g id="node7" class="node">
<title>reconfiguration</title>
<ellipse fill="none" stroke="black" cx="1621" cy="-738" rx="64.99" ry="18"/>
<text text-anchor="middle" x="1621" y="-734.3" font-family="Times,serif" font-size="14.00">reconfiguration</text>
</g>
<!-- gas_schedule&#45;&gt;reconfiguration -->
<g id="edge6" class="edge">
<title>gas_schedule&#45;&gt;reconfiguration</title>
<path fill="none" stroke="black" d="M1621,-791.7C1621,-784.41 1621,-775.73 1621,-767.54"/>
<polygon fill="black" stroke="black" points="1624.5,-767.62 1621,-757.62 1617.5,-767.62 1624.5,-767.62"/>
</g>
<!-- util -->
<g id="node8" class="node">
<title>util</title>
<ellipse fill="none" stroke="black" cx="2411" cy="-738" rx="27" ry="18"/>
<text text-anchor="middle" x="2411" y="-734.3" font-family="Times,serif" font-size="14.00">util</text>
</g>
<!-- gas_schedule&#45;&gt;util -->
<g id="edge7" class="edge">
<title>gas_schedule&#45;&gt;util</title>
<path fill="none" stroke="black" d="M1678.38,-807.33C1830.02,-802.52 2238.69,-787 2370,-756 2372.99,-755.29 2376.04,-754.4 2379.07,-753.38"/>
<polygon fill="black" stroke="black" points="2380.2,-756.69 2388.31,-749.88 2377.72,-750.15 2380.2,-756.69"/>
</g>
<!-- string&#45;&gt;vector -->
<g id="edge8" class="edge">
<title>string&#45;&gt;vector</title>
<path fill="none" stroke="black" d="M411.66,-145.8C435.66,-120.93 483.48,-71.36 511.7,-42.11"/>
<polygon fill="black" stroke="black" points="513.97,-44.8 518.39,-35.18 508.93,-39.94 513.97,-44.8"/>
</g>
<!-- option -->
<g id="node9" class="node">
<title>option</title>
<ellipse fill="none" stroke="black" cx="618" cy="-90" rx="33.29" ry="18"/>
<text text-anchor="middle" x="618" y="-86.3" font-family="Times,serif" font-size="14.00">option</text>
</g>
<!-- string&#45;&gt;option -->
<g id="edge9" class="edge">
<title>string&#45;&gt;option</title>
<path fill="none" stroke="black" d="M422.12,-151.16C428.57,-148.73 435.51,-146.2 442,-144 488.22,-128.33 542.04,-112.47 577.87,-102.23"/>
<polygon fill="black" stroke="black" points="578.72,-105.63 587.39,-99.53 576.81,-98.9 578.72,-105.63"/>
</g>
<!-- system_addresses&#45;&gt;error -->
<g id="edge11" class="edge">
<title>system_addresses&#45;&gt;error</title>
<path fill="none" stroke="black" d="M1480.89,-295.34C1571.5,-280.73 1740.87,-253.41 1816.65,-241.19"/>
<polygon fill="black" stroke="black" points="1817.17,-244.65 1826.48,-239.6 1816.05,-237.74 1817.17,-244.65"/>
</g>
<!-- signer -->
<g id="node10" class="node">
<title>signer</title>
<ellipse fill="none" stroke="black" cx="289" cy="-234" rx="32.49" ry="18"/>
<text text-anchor="middle" x="289" y="-230.3" font-family="Times,serif" font-size="14.00">signer</text>
</g>
<!-- system_addresses&#45;&gt;signer -->
<g id="edge10" class="edge">
<title>system_addresses&#45;&gt;signer</title>
<path fill="none" stroke="black" d="M1355.66,-297.44C1324.6,-294.09 1286.92,-290.38 1253,-288 1048.46,-273.67 531.46,-295.11 331,-252 328.56,-251.48 326.09,-250.82 323.62,-250.08"/>
<polygon fill="black" stroke="black" points="325,-246.85 314.41,-246.86 322.69,-253.46 325,-246.85"/>
</g>
<!-- storage_gas&#45;&gt;error -->
<g id="edge12" class="edge">
<title>storage_gas&#45;&gt;error</title>
<path fill="none" stroke="black" d="M2257.98,-435.07C2273.25,-426.23 2290.38,-413.19 2299,-396 2306.17,-381.7 2306.43,-374.17 2299,-360 2272.91,-310.2 2247.21,-308.86 2195,-288 2091.85,-246.79 1959.19,-237.48 1894.29,-235.48"/>
<polygon fill="black" stroke="black" points="1894.59,-231.98 1884.5,-235.22 1894.4,-238.98 1894.59,-231.98"/>
</g>
<!-- storage_gas&#45;&gt;system_addresses -->
<g id="edge13" class="edge">
<title>storage_gas&#45;&gt;system_addresses</title>
<path fill="none" stroke="black" d="M2176.25,-447.55C2019.55,-442.83 1557.22,-426.45 1497,-396 1470.04,-382.37 1448.76,-354.55 1435.66,-333.63"/>
<polygon fill="black" stroke="black" points="1438.81,-332.08 1430.67,-325.3 1432.81,-335.67 1438.81,-332.08"/>
</g>
<!-- state_storage -->
<g id="node11" class="node">
<title>state_storage</title>
<ellipse fill="none" stroke="black" cx="2233" cy="-378" rx="56.59" ry="18"/>
<text text-anchor="middle" x="2233" y="-374.3" font-family="Times,serif" font-size="14.00">state_storage</text>
</g>
<!-- storage_gas&#45;&gt;state_storage -->
<g id="edge14" class="edge">
<title>storage_gas&#45;&gt;state_storage</title>
<path fill="none" stroke="black" d="M2229.24,-431.7C2229.76,-424.41 2230.38,-415.73 2230.96,-407.54"/>
<polygon fill="black" stroke="black" points="2234.45,-407.84 2231.67,-397.61 2227.47,-407.34 2234.45,-407.84"/>
</g>
<!-- reconfiguration&#45;&gt;error -->
<g id="edge16" class="edge">
<title>reconfiguration&#45;&gt;error</title>
<path fill="none" stroke="black" d="M1684.13,-733.16C1784.34,-726.36 1974.84,-710.38 2037,-684 2095.21,-659.3 2148,-658.23 2148,-595 2148,-595 2148,-595 2148,-377 2148,-248.78 2007.87,-297.51 1888,-252 1887.36,-251.76 1886.72,-251.5 1886.07,-251.24"/>
<polygon fill="black" stroke="black" points="1887.56,-248.08 1877,-247.15 1884.67,-254.45 1887.56,-248.08"/>
</g>
<!-- reconfiguration&#45;&gt;system_addresses -->
<g id="edge17" class="edge">
<title>reconfiguration&#45;&gt;system_addresses</title>
<path fill="none" stroke="black" d="M1571.36,-725.94C1541.37,-717.66 1503.38,-704.23 1474,-684 1439.22,-660.05 1430.93,-649.75 1412,-612 1361.73,-511.75 1373.28,-469.16 1399,-360 1401.01,-351.47 1404.24,-342.54 1407.61,-334.49"/>
<polygon fill="black" stroke="black" points="1410.71,-336.13 1411.58,-325.57 1404.31,-333.29 1410.71,-336.13"/>
</g>
<!-- reconfiguration&#45;&gt;storage_gas -->
<g id="edge23" class="edge">
<title>reconfiguration&#45;&gt;storage_gas</title>
<path fill="none" stroke="black" d="M1685.44,-734.72C1820.98,-729.34 2126.09,-714.02 2162,-684 2162,-684 2202.51,-540.97 2220.06,-479.04"/>
<polygon fill="black" stroke="black" points="2223.38,-480.16 2222.73,-469.59 2216.64,-478.26 2223.38,-480.16"/>
</g>
<!-- reconfiguration&#45;&gt;signer -->
<g id="edge15" class="edge">
<title>reconfiguration&#45;&gt;signer</title>
<path fill="none" stroke="black" d="M1555.89,-737.1C1387.44,-736.65 923.68,-730.88 541,-684 376.88,-663.89 308.63,-710.74 176,-612 114.5,-566.21 114,-527.68 114,-451 114,-451 114,-451 114,-377 114,-307.38 198.55,-265.94 250.11,-247.14"/>
<polygon fill="black" stroke="black" points="251.18,-250.47 259.45,-243.86 248.86,-243.87 251.18,-250.47"/>
</g>
<!-- event -->
<g id="node12" class="node">
<title>event</title>
<ellipse fill="none" stroke="black" cx="1078" cy="-378" rx="29.8" ry="18"/>
<text text-anchor="middle" x="1078" y="-374.3" font-family="Times,serif" font-size="14.00">event</text>
</g>
<!-- reconfiguration&#45;&gt;event -->
<g id="edge18" class="edge">
<title>reconfiguration&#45;&gt;event</title>
<path fill="none" stroke="black" d="M1616.73,-719.74C1608,-687.61 1585.24,-618.09 1543,-576 1419.07,-452.52 1205.82,-401.85 1117.79,-385.5"/>
<polygon fill="black" stroke="black" points="1118.66,-382.1 1108.2,-383.77 1117.42,-388.99 1118.66,-382.1"/>
</g>
<!-- account -->
<g id="node13" class="node">
<title>account</title>
<ellipse fill="none" stroke="black" cx="754" cy="-450" rx="38.19" ry="18"/>
<text text-anchor="middle" x="754" y="-446.3" font-family="Times,serif" font-size="14.00">account</text>
</g>
<!-- reconfiguration&#45;&gt;account -->
<g id="edge19" class="edge">
<title>reconfiguration&#45;&gt;account</title>
<path fill="none" stroke="black" d="M1556.69,-735.04C1322.7,-727.24 526.4,-694.78 452,-612 372.28,-523.3 603.24,-474.72 706.69,-457.87"/>
<polygon fill="black" stroke="black" points="706.95,-461.37 716.27,-456.35 705.85,-454.46 706.95,-461.37"/>
</g>
<!-- chain_status -->
<g id="node14" class="node">
<title>chain_status</title>
<ellipse fill="none" stroke="black" cx="2066" cy="-378" rx="53.89" ry="18"/>
<text text-anchor="middle" x="2066" y="-374.3" font-family="Times,serif" font-size="14.00">chain_status</text>
</g>
<!-- reconfiguration&#45;&gt;chain_status -->
<g id="edge20" class="edge">
<title>reconfiguration&#45;&gt;chain_status</title>
<path fill="none" stroke="black" d="M1682.93,-732.1C1814.52,-719.98 2110,-682.96 2110,-595 2110,-595 2110,-595 2110,-521 2110,-479.53 2092.67,-434.18 2079.76,-406.16"/>
<polygon fill="black" stroke="black" points="2083.01,-404.85 2075.55,-397.33 2076.7,-407.86 2083.01,-404.85"/>
</g>
<!-- timestamp -->
<g id="node15" class="node">
<title>timestamp</title>
<ellipse fill="none" stroke="black" cx="1740" cy="-522" rx="48.19" ry="18"/>
<text text-anchor="middle" x="1740" y="-518.3" font-family="Times,serif" font-size="14.00">timestamp</text>
</g>
<!-- reconfiguration&#45;&gt;timestamp -->
<g id="edge21" class="edge">
<title>reconfiguration&#45;&gt;timestamp</title>
<path fill="none" stroke="black" d="M1630.54,-719.85C1651.22,-682.66 1700.31,-594.37 1725.11,-549.77"/>
<polygon fill="black" stroke="black" points="1728.05,-551.7 1729.85,-541.26 1721.93,-548.3 1728.05,-551.7"/>
</g>
<!-- stake -->
<g id="node16" class="node">
<title>stake</title>
<ellipse fill="none" stroke="black" cx="1512" cy="-666" rx="28.7" ry="18"/>
<text text-anchor="middle" x="1512" y="-662.3" font-family="Times,serif" font-size="14.00">stake</text>
</g>
<!-- reconfiguration&#45;&gt;stake -->
<g id="edge22" class="edge">
<title>reconfiguration&#45;&gt;stake</title>
<path fill="none" stroke="black" d="M1595.99,-720.94C1579.6,-710.41 1558.11,-696.61 1540.98,-685.61"/>
<polygon fill="black" stroke="black" points="1543.04,-682.77 1532.73,-680.31 1539.26,-688.66 1543.04,-682.77"/>
</g>
<!-- option&#45;&gt;vector -->
<g id="edge24" class="edge">
<title>option&#45;&gt;vector</title>
<path fill="none" stroke="black" d="M600.6,-74.5C588.88,-64.73 573.23,-51.69 560.04,-40.7"/>
<polygon fill="black" stroke="black" points="562.47,-38.17 552.55,-34.45 557.99,-43.55 562.47,-38.17"/>
</g>
<!-- state_storage&#45;&gt;error -->
<g id="edge25" class="edge">
<title>state_storage&#45;&gt;error</title>
<path fill="none" stroke="black" d="M2224.34,-359.77C2213,-339.14 2191.09,-305.21 2162,-288 2117.13,-261.46 1965.76,-244.84 1893.72,-238.25"/>
<polygon fill="black" stroke="black" points="1894.24,-234.78 1883.97,-237.37 1893.62,-241.75 1894.24,-234.78"/>
</g>
<!-- state_storage&#45;&gt;system_addresses -->
<g id="edge26" class="edge">
<title>state_storage&#45;&gt;system_addresses</title>
<path fill="none" stroke="black" d="M2184.72,-368.13C2167.22,-365.17 2147.27,-362.1 2129,-360 1891.81,-332.71 1830.94,-343.74 1593,-324 1561.98,-321.43 1527.85,-318.15 1498.23,-315.16"/>
<polygon fill="black" stroke="black" points="1498.92,-311.71 1488.62,-314.18 1498.21,-318.67 1498.92,-311.71"/>
</g>
<!-- bcs -->
<g id="node17" class="node">
<title>bcs</title>
<ellipse fill="none" stroke="black" cx="775" cy="-234" rx="27" ry="18"/>
<text text-anchor="middle" x="775" y="-230.3" font-family="Times,serif" font-size="14.00">bcs</text>
</g>
<!-- event&#45;&gt;bcs -->
<g id="edge27" class="edge">
<title>event&#45;&gt;bcs</title>
<path fill="none" stroke="black" d="M1073.01,-360C1066.11,-339.61 1051.63,-305.91 1027,-288 993.2,-263.42 874.38,-246.47 812.73,-239.12"/>
<polygon fill="black" stroke="black" points="813.41,-235.68 803.07,-238 812.6,-242.63 813.41,-235.68"/>
</g>
<!-- guid -->
<g id="node18" class="node">
<title>guid</title>
<ellipse fill="none" stroke="black" cx="991" cy="-306" rx="27" ry="18"/>
<text text-anchor="middle" x="991" y="-302.3" font-family="Times,serif" font-size="14.00">guid</text>
</g>
<!-- event&#45;&gt;guid -->
<g id="edge28" class="edge">
<title>event&#45;&gt;guid</title>
<path fill="none" stroke="black" d="M1060.81,-363.17C1048.22,-353.04 1030.91,-339.11 1016.68,-327.66"/>
<polygon fill="black" stroke="black" points="1019.02,-325.05 1009.04,-321.51 1014.63,-330.51 1019.02,-325.05"/>
</g>
<!-- account&#45;&gt;vector -->
<g id="edge29" class="edge">
<title>account&#45;&gt;vector</title>
<path fill="none" stroke="black" d="M765.14,-432.3C789.75,-393.2 844.03,-293.14 811,-216 767.19,-113.69 637.6,-55.21 572.39,-31.5"/>
<polygon fill="black" stroke="black" points="573.77,-28.28 563.18,-28.24 571.44,-34.88 573.77,-28.28"/>
</g>
<!-- account&#45;&gt;error -->
<g id="edge34" class="edge">
<title>account&#45;&gt;error</title>
<path fill="none" stroke="black" d="M769.48,-433.34C793.08,-409.54 836.12,-366.34 844,-360 889.81,-323.13 899.13,-306.34 955,-288 1037.52,-260.92 1653.44,-240.96 1815.84,-236.13"/>
<polygon fill="black" stroke="black" points="1815.76,-239.63 1825.65,-235.84 1815.55,-232.63 1815.76,-239.63"/>
</g>
<!-- account&#45;&gt;system_addresses -->
<g id="edge35" class="edge">
<title>account&#45;&gt;system_addresses</title>
<path fill="none" stroke="black" d="M784.99,-439.17C856.17,-416.62 1026.23,-362.86 1039,-360 1142.38,-336.85 1263.88,-322.07 1341.63,-314.16"/>
<polygon fill="black" stroke="black" points="1341.66,-317.67 1351.27,-313.19 1340.97,-310.71 1341.66,-317.67"/>
</g>
<!-- account&#45;&gt;option -->
<g id="edge30" class="edge">
<title>account&#45;&gt;option</title>
<path fill="none" stroke="black" d="M715.65,-447.94C635.17,-443.48 456,-420.76 456,-307 456,-307 456,-307 456,-233 456,-167.42 532,-125.06 579.89,-104.88"/>
<polygon fill="black" stroke="black" points="581.17,-108.14 589.12,-101.13 578.53,-101.65 581.17,-108.14"/>
</g>
<!-- account&#45;&gt;signer -->
<g id="edge33" class="edge">
<title>account&#45;&gt;signer</title>
<path fill="none" stroke="black" d="M715.89,-447.13C638.22,-442.67 464.88,-429.2 417,-396 371.7,-364.59 391.84,-329.88 356,-288 345.32,-275.52 331.34,-263.92 318.91,-254.77"/>
<polygon fill="black" stroke="black" points="321.2,-252.1 311.03,-249.16 317.14,-257.81 321.2,-252.1"/>
</g>
<!-- account&#45;&gt;event -->
<g id="edge42" class="edge">
<title>account&#45;&gt;event</title>
<path fill="none" stroke="black" d="M788.37,-441.58C849.08,-428.46 974.93,-401.27 1038.88,-387.45"/>
<polygon fill="black" stroke="black" points="1039.55,-390.89 1048.59,-385.35 1038.07,-384.05 1039.55,-390.89"/>
</g>
<!-- account&#45;&gt;bcs -->
<g id="edge37" class="edge">
<title>account&#45;&gt;bcs</title>
<path fill="none" stroke="black" d="M755.68,-431.85C759.28,-395.14 767.77,-308.66 772.2,-263.53"/>
<polygon fill="black" stroke="black" points="775.67,-264.03 773.16,-253.74 768.7,-263.35 775.67,-264.03"/>
</g>
<!-- account&#45;&gt;guid -->
<g id="edge40" class="edge">
<title>account&#45;&gt;guid</title>
<path fill="none" stroke="black" d="M778.13,-435.76C796.51,-425.44 822.27,-410.48 844,-396 866.19,-381.21 869.51,-374.33 892,-360 913.88,-346.05 939.76,-332.28 959.58,-322.28"/>
<polygon fill="black" stroke="black" points="960.88,-325.54 968.26,-317.94 957.75,-319.28 960.88,-325.54"/>
</g>
<!-- type_info -->
<g id="node19" class="node">
<title>type_info</title>
<ellipse fill="none" stroke="black" cx="600" cy="-234" rx="44.39" ry="18"/>
<text text-anchor="middle" x="600" y="-230.3" font-family="Times,serif" font-size="14.00">type_info</text>
</g>
<!-- account&#45;&gt;type_info -->
<g id="edge31" class="edge">
<title>account&#45;&gt;type_info</title>
<path fill="none" stroke="black" d="M715.59,-449.63C674.27,-447.98 610.31,-438.19 579,-396 549.9,-356.78 569.81,-296.91 585.71,-262.3"/>
<polygon fill="black" stroke="black" points="588.83,-263.9 590.02,-253.37 582.52,-260.86 588.83,-263.9"/>
</g>
<!-- table -->
<g id="node20" class="node">
<title>table</title>
<ellipse fill="none" stroke="black" cx="1216" cy="-306" rx="27.9" ry="18"/>
<text text-anchor="middle" x="1216" y="-302.3" font-family="Times,serif" font-size="14.00">table</text>
</g>
<!-- account&#45;&gt;table -->
<g id="edge32" class="edge">
<title>account&#45;&gt;table</title>
<path fill="none" stroke="black" d="M784.48,-438.83C811.07,-429.39 850.24,-414.1 882,-396 905.17,-382.8 905.58,-370.71 930,-360 1012.89,-323.64 1119.92,-312.21 1176.65,-308.63"/>
<polygon fill="black" stroke="black" points="1176.67,-312.14 1186.45,-308.07 1176.26,-305.15 1176.67,-312.14"/>
</g>
<!-- hash -->
<g id="node21" class="node">
<title>hash</title>
<ellipse fill="none" stroke="black" cx="511" cy="-234" rx="27" ry="18"/>
<text text-anchor="middle" x="511" y="-230.3" font-family="Times,serif" font-size="14.00">hash</text>
</g>
<!-- account&#45;&gt;hash -->
<g id="edge36" class="edge">
<title>account&#45;&gt;hash</title>
<path fill="none" stroke="black" d="M715.75,-448.89C672.55,-446.67 602.83,-436.47 561,-396 524.52,-360.71 514.52,-299.36 511.86,-263.45"/>
<polygon fill="black" stroke="black" points="515.38,-263.61 511.31,-253.83 508.39,-264.01 515.38,-263.61"/>
</g>
<!-- ed25519 -->
<g id="node22" class="node">
<title>ed25519</title>
<ellipse fill="none" stroke="black" cx="639" cy="-306" rx="40.89" ry="18"/>
<text text-anchor="middle" x="639" y="-302.3" font-family="Times,serif" font-size="14.00">ed25519</text>
</g>
<!-- account&#45;&gt;ed25519 -->
<g id="edge38" class="edge">
<title>account&#45;&gt;ed25519</title>
<path fill="none" stroke="black" d="M715.57,-448.76C676.52,-446.21 617.8,-435.51 589,-396 573.54,-374.79 592.7,-348.34 611.59,-329.81"/>
<polygon fill="black" stroke="black" points="613.79,-332.54 618.74,-323.17 609.03,-327.41 613.79,-332.54"/>
</g>
<!-- multi_ed25519 -->
<g id="node23" class="node">
<title>multi_ed25519</title>
<ellipse fill="none" stroke="black" cx="662" cy="-378" rx="64.19" ry="18"/>
<text text-anchor="middle" x="662" y="-374.3" font-family="Times,serif" font-size="14.00">multi_ed25519</text>
</g>
<!-- account&#45;&gt;multi_ed25519 -->
<g id="edge39" class="edge">
<title>account&#45;&gt;multi_ed25519</title>
<path fill="none" stroke="black" d="M734.49,-434.15C722.32,-424.89 706.39,-412.78 692.57,-402.26"/>
<polygon fill="black" stroke="black" points="694.69,-399.48 684.61,-396.21 690.45,-405.05 694.69,-399.48"/>
</g>
<!-- from_bcs -->
<g id="node24" class="node">
<title>from_bcs</title>
<ellipse fill="none" stroke="black" cx="384" cy="-234" rx="44.39" ry="18"/>
<text text-anchor="middle" x="384" y="-230.3" font-family="Times,serif" font-size="14.00">from_bcs</text>
</g>
<!-- account&#45;&gt;from_bcs -->
<g id="edge41" class="edge">
<title>account&#45;&gt;from_bcs</title>
<path fill="none" stroke="black" d="M716.01,-447.25C642.2,-443.1 483.03,-430.33 442,-396 421.27,-378.66 400.7,-304.62 390.54,-263.26"/>
<polygon fill="black" stroke="black" points="394,-262.66 388.26,-253.76 387.2,-264.3 394,-262.66"/>
</g>
<!-- chain_status&#45;&gt;error -->
<g id="edge43" class="edge">
<title>chain_status&#45;&gt;error</title>
<path fill="none" stroke="black" d="M2056.93,-359.92C2045.6,-340.07 2024.42,-307.54 1998,-288 1966.38,-264.62 1923.32,-250.53 1892.73,-242.82"/>
<polygon fill="black" stroke="black" points="1893.68,-239.45 1883.14,-240.52 1892.05,-246.26 1893.68,-239.45"/>
</g>
<!-- chain_status&#45;&gt;system_addresses -->
<g id="edge44" class="edge">
<title>chain_status&#45;&gt;system_addresses</title>
<path fill="none" stroke="black" d="M2016.17,-370.69C1989.69,-367.4 1956.59,-363.36 1927,-360 1775.89,-342.85 1599.14,-324.79 1499.61,-314.81"/>
<polygon fill="black" stroke="black" points="1499.96,-311.33 1489.66,-313.81 1499.26,-318.29 1499.96,-311.33"/>
</g>
<!-- timestamp&#45;&gt;error -->
<g id="edge45" class="edge">
<title>timestamp&#45;&gt;error</title>
<path fill="none" stroke="black" d="M1775.03,-509.33C1819.66,-492.35 1894.88,-456.1 1927,-396 1952.72,-347.87 1907.72,-288.71 1878.01,-257.22"/>
<polygon fill="black" stroke="black" points="1880.65,-254.91 1871.16,-250.18 1875.63,-259.79 1880.65,-254.91"/>
</g>
<!-- timestamp&#45;&gt;system_addresses -->
<g id="edge46" class="edge">
<title>timestamp&#45;&gt;system_addresses</title>
<path fill="none" stroke="black" d="M1693.21,-517.17C1626.28,-510.8 1507.77,-495.85 1476,-468 1437.39,-434.15 1425.86,-372.02 1422.43,-335.64"/>
<polygon fill="black" stroke="black" points="1425.93,-335.57 1421.67,-325.87 1418.96,-336.12 1425.93,-335.57"/>
</g>
<!-- stake&#45;&gt;vector -->
<g id="edge47" class="edge">
<title>stake&#45;&gt;vector</title>
<path fill="none" stroke="black" d="M1541.06,-665.45C1624.8,-666.07 1873.27,-663.12 2071,-612 2302.86,-552.06 2456,-474.49 2456,-235 2456,-235 2456,-235 2456,-161 2456,-63.54 863.57,-25.85 577.68,-19.87"/>
<polygon fill="black" stroke="black" points="578.14,-16.38 568.07,-19.67 577.99,-23.38 578.14,-16.38"/>
</g>
<!-- stake&#45;&gt;error -->
<g id="edge50" class="edge">
<title>stake&#45;&gt;error</title>
<path fill="none" stroke="black" d="M1540.46,-662.68C1642.51,-653.58 1984,-616.17 1984,-523 1984,-523 1984,-523 1984,-377 1984,-319.06 1924.44,-274.3 1886.26,-251.55"/>
<polygon fill="black" stroke="black" points="1888.32,-248.7 1877.9,-246.75 1884.82,-254.77 1888.32,-248.7"/>
</g>
<!-- stake&#45;&gt;system_addresses -->
<g id="edge51" class="edge">
<title>stake&#45;&gt;system_addresses</title>
<path fill="none" stroke="black" d="M1487.82,-656.1C1469.04,-647.79 1444.21,-633.42 1432,-612 1380.78,-522.19 1401.25,-392.1 1413.88,-335.31"/>
<polygon fill="black" stroke="black" points="1417.23,-336.35 1416.09,-325.81 1410.41,-334.76 1417.23,-336.35"/>
</g>
<!-- stake&#45;&gt;option -->
<g id="edge48" class="edge">
<title>stake&#45;&gt;option</title>
<path fill="none" stroke="black" d="M1483.11,-665.17C1307.99,-666.01 392.38,-667.69 282,-612 199.89,-570.57 152,-542.97 152,-451 152,-451 152,-451 152,-233 152,-169.77 205.06,-169.32 263,-144 367.31,-98.41 503.52,-90.9 572.99,-90.33"/>
<polygon fill="black" stroke="black" points="572.86,-93.83 582.84,-90.3 572.83,-86.83 572.86,-93.83"/>
</g>
<!-- stake&#45;&gt;signer -->
<g id="edge49" class="edge">
<title>stake&#45;&gt;signer</title>
<path fill="none" stroke="black" d="M1483.15,-664.71C1334.88,-663.02 657.51,-653.18 452,-612 359.37,-593.44 306.32,-617.29 252,-540 191.2,-453.5 246.74,-318.09 274.91,-261.37"/>
<polygon fill="black" stroke="black" points="277.87,-263.27 279.29,-252.77 271.63,-260.1 277.87,-263.27"/>
</g>
<!-- stake&#45;&gt;event -->
<g id="edge52" class="edge">
<title>stake&#45;&gt;event</title>
<path fill="none" stroke="black" d="M1521.24,-648.49C1530.66,-629.18 1541.83,-597.17 1526,-576 1475.23,-508.08 1232,-512.8 1160,-468 1133.48,-451.5 1110.11,-424.15 1095.17,-404.11"/>
<polygon fill="black" stroke="black" points="1098.12,-402.22 1089.42,-396.17 1092.45,-406.32 1098.12,-402.22"/>
</g>
<!-- stake&#45;&gt;account -->
<g id="edge53" class="edge">
<title>stake&#45;&gt;account</title>
<path fill="none" stroke="black" d="M1484.33,-660.44C1436.42,-652.31 1335.08,-634.08 1251,-612 1078.68,-566.75 878.19,-496.15 794.22,-465.74"/>
<polygon fill="black" stroke="black" points="795.64,-462.54 785.05,-462.42 793.25,-469.12 795.64,-462.54"/>
</g>
<!-- stake&#45;&gt;timestamp -->
<g id="edge56" class="edge">
<title>stake&#45;&gt;timestamp</title>
<path fill="none" stroke="black" d="M1531.83,-652.65C1570.88,-628.33 1658.08,-574.02 1706.31,-543.98"/>
<polygon fill="black" stroke="black" points="1708.06,-547.02 1714.7,-538.76 1704.36,-541.07 1708.06,-547.02"/>
</g>
<!-- coin -->
<g id="node25" class="node">
<title>coin</title>
<ellipse fill="none" stroke="black" cx="1098" cy="-522" rx="27" ry="18"/>
<text text-anchor="middle" x="1098" y="-518.3" font-family="Times,serif" font-size="14.00">coin</text>
</g>
<!-- stake&#45;&gt;coin -->
<g id="edge54" class="edge">
<title>stake&#45;&gt;coin</title>
<path fill="none" stroke="black" d="M1487.03,-656.44C1416.16,-632.13 1213.59,-562.65 1132.33,-534.78"/>
<polygon fill="black" stroke="black" points="1133.73,-531.55 1123.13,-531.62 1131.46,-538.18 1133.73,-531.55"/>
</g>
<!-- aptos_coin -->
<g id="node26" class="node">
<title>aptos_coin</title>
<ellipse fill="none" stroke="black" cx="510" cy="-594" rx="48.99" ry="18"/>
<text text-anchor="middle" x="510" y="-590.3" font-family="Times,serif" font-size="14.00">aptos_coin</text>
</g>
<!-- stake&#45;&gt;aptos_coin -->
<g id="edge55" class="edge">
<title>stake&#45;&gt;aptos_coin</title>
<path fill="none" stroke="black" d="M1483.36,-663C1346.6,-653.45 758.86,-612.39 569.23,-599.14"/>
<polygon fill="black" stroke="black" points="569.58,-595.65 559.36,-598.45 569.09,-602.64 569.58,-595.65"/>
</g>
<!-- staking_config -->
<g id="node27" class="node">
<title>staking_config</title>
<ellipse fill="none" stroke="black" cx="1855" cy="-378" rx="63.09" ry="18"/>
<text text-anchor="middle" x="1855" y="-374.3" font-family="Times,serif" font-size="14.00">staking_config</text>
</g>
<!-- stake&#45;&gt;staking_config -->
<g id="edge57" class="edge">
<title>stake&#45;&gt;staking_config</title>
<path fill="none" stroke="black" d="M1525.65,-649.7C1542.04,-631.56 1570.65,-600.68 1597,-576 1671.81,-505.93 1770.54,-435.99 1821.45,-401.36"/>
<polygon fill="black" stroke="black" points="1823.4,-404.27 1829.72,-395.76 1819.48,-398.47 1823.4,-404.27"/>
</g>
<!-- math64 -->
<g id="node28" class="node">
<title>math64</title>
<ellipse fill="none" stroke="black" cx="1479" cy="-594" rx="37.89" ry="18"/>
<text text-anchor="middle" x="1479" y="-590.3" font-family="Times,serif" font-size="14.00">math64</text>
</g>
<!-- stake&#45;&gt;math64 -->
<g id="edge58" class="edge">
<title>stake&#45;&gt;math64</title>
<path fill="none" stroke="black" d="M1504.18,-648.41C1500.49,-640.59 1496,-631.06 1491.84,-622.23"/>
<polygon fill="black" stroke="black" points="1495.07,-620.88 1487.64,-613.33 1488.74,-623.86 1495.07,-620.88"/>
</g>
<!-- bls12381 -->
<g id="node29" class="node">
<title>bls12381</title>
<ellipse fill="none" stroke="black" cx="2385" cy="-306" rx="42.79" ry="18"/>
<text text-anchor="middle" x="2385" y="-302.3" font-family="Times,serif" font-size="14.00">bls12381</text>
</g>
<!-- stake&#45;&gt;bls12381 -->
<g id="edge59" class="edge">
<title>stake&#45;&gt;bls12381</title>
<path fill="none" stroke="black" d="M1541.17,-665.33C1617.74,-665.46 1830.16,-661 1998,-612 2136.52,-571.56 2183.05,-565.97 2289,-468 2330.39,-429.72 2359.73,-369.51 2374.37,-334.59"/>
<polygon fill="black" stroke="black" points="2377.5,-336.19 2378.03,-325.6 2371.02,-333.54 2377.5,-336.19"/>
</g>
<!-- type_info&#45;&gt;string -->
<g id="edge60" class="edge">
<title>type_info&#45;&gt;string</title>
<path fill="none" stroke="black" d="M566.93,-221.6C530.33,-208.97 471.49,-188.69 433.54,-175.6"/>
<polygon fill="black" stroke="black" points="434.98,-172.4 424.39,-172.44 432.7,-179.01 434.98,-172.4"/>
</g>
<!-- ed25519&#45;&gt;error -->
<g id="edge63" class="edge">
<title>ed25519&#45;&gt;error</title>
<path fill="none" stroke="black" d="M678.22,-300.5C712.44,-296.7 763.45,-291.37 808,-288 1200.81,-258.32 1677.82,-240.94 1815.86,-236.28"/>
<polygon fill="black" stroke="black" points="1815.67,-239.79 1825.55,-235.95 1815.44,-232.79 1815.67,-239.79"/>
</g>
<!-- ed25519&#45;&gt;option -->
<g id="edge61" class="edge">
<title>ed25519&#45;&gt;option</title>
<path fill="none" stroke="black" d="M644.68,-288.04C647.82,-277.74 651.41,-264.27 653,-252 659.17,-204.5 642.29,-150.26 629.88,-118.42"/>
<polygon fill="black" stroke="black" points="633.13,-117.11 626.13,-109.16 626.64,-119.74 633.13,-117.11"/>
</g>
<!-- ed25519&#45;&gt;bcs -->
<g id="edge65" class="edge">
<title>ed25519&#45;&gt;bcs</title>
<path fill="none" stroke="black" d="M664.9,-291.67C687.46,-280.06 720.2,-263.2 744.12,-250.89"/>
<polygon fill="black" stroke="black" points="745.46,-254.14 752.75,-246.45 742.26,-247.92 745.46,-254.14"/>
</g>
<!-- ed25519&#45;&gt;type_info -->
<g id="edge62" class="edge">
<title>ed25519&#45;&gt;type_info</title>
<path fill="none" stroke="black" d="M629.56,-288.05C625.15,-280.14 619.8,-270.54 614.87,-261.69"/>
<polygon fill="black" stroke="black" points="618.02,-260.14 610.09,-253.11 611.9,-263.55 618.02,-260.14"/>
</g>
<!-- ed25519&#45;&gt;hash -->
<g id="edge64" class="edge">
<title>ed25519&#45;&gt;hash</title>
<path fill="none" stroke="black" d="M614.02,-291.34C593.16,-279.93 563.38,-263.64 541.19,-251.51"/>
<polygon fill="black" stroke="black" points="543.07,-248.55 532.62,-246.82 539.71,-254.69 543.07,-248.55"/>
</g>
<!-- multi_ed25519&#45;&gt;error -->
<g id="edge67" class="edge">
<title>multi_ed25519&#45;&gt;error</title>
<path fill="none" stroke="black" d="M695.26,-362.31C743.94,-341.59 837.95,-304.45 922,-288 1097.35,-253.68 1661.64,-239.18 1815.78,-235.8"/>
<polygon fill="black" stroke="black" points="1815.54,-239.31 1825.46,-235.59 1815.39,-232.31 1815.54,-239.31"/>
</g>
<!-- multi_ed25519&#45;&gt;option -->
<g id="edge66" class="edge">
<title>multi_ed25519&#45;&gt;option</title>
<path fill="none" stroke="black" d="M673.19,-360.14C679.16,-350.1 685.91,-336.85 689,-324 692.73,-308.44 690.75,-303.9 689,-288 681.85,-222.83 684.12,-203.69 657,-144 652.47,-134.03 645.86,-124.09 639.36,-115.55"/>
<polygon fill="black" stroke="black" points="642.12,-113.4 633.14,-107.78 636.65,-117.77 642.12,-113.4"/>
</g>
<!-- multi_ed25519&#45;&gt;bcs -->
<g id="edge69" class="edge">
<title>multi_ed25519&#45;&gt;bcs</title>
<path fill="none" stroke="black" d="M683.48,-360.77C695.65,-350.95 710.65,-337.7 722,-324 738.02,-304.67 752.33,-279.96 762.03,-261.48"/>
<polygon fill="black" stroke="black" points="765.06,-263.25 766.5,-252.76 758.82,-260.06 765.06,-263.25"/>
</g>
<!-- multi_ed25519&#45;&gt;hash -->
<g id="edge68" class="edge">
<title>multi_ed25519&#45;&gt;hash</title>
<path fill="none" stroke="black" d="M637.29,-361.09C622.63,-351.18 604.04,-337.72 589,-324 566.93,-303.86 544.76,-277.88 529.73,-259.2"/>
<polygon fill="black" stroke="black" points="532.66,-257.26 523.7,-251.6 527.18,-261.61 532.66,-257.26"/>
</g>
<!-- multi_ed25519&#45;&gt;ed25519 -->
<g id="edge70" class="edge">
<title>multi_ed25519&#45;&gt;ed25519</title>
<path fill="none" stroke="black" d="M656.31,-359.7C653.86,-352.24 650.93,-343.32 648.19,-334.97"/>
<polygon fill="black" stroke="black" points="651.54,-333.95 645.09,-325.54 644.89,-336.14 651.54,-333.95"/>
</g>
<!-- from_bcs&#45;&gt;string -->
<g id="edge71" class="edge">
<title>from_bcs&#45;&gt;string</title>
<path fill="none" stroke="black" d="M387.21,-215.7C388.58,-208.32 390.22,-199.52 391.75,-191.25"/>
<polygon fill="black" stroke="black" points="395.16,-192.06 393.55,-181.59 388.28,-190.79 395.16,-192.06"/>
</g>
<!-- coin&#45;&gt;string -->
<g id="edge73" class="edge">
<title>coin&#45;&gt;string</title>
<path fill="none" stroke="black" d="M1104.81,-504.43C1116.03,-474.57 1135.41,-410.21 1117,-360 1102.56,-320.62 1091.15,-310.87 1056,-288 952.24,-220.48 566.28,-178.89 438.43,-166.74"/>
<polygon fill="black" stroke="black" points="439.02,-163.28 428.73,-165.83 438.36,-170.25 439.02,-163.28"/>
</g>
<!-- coin&#45;&gt;error -->
<g id="edge76" class="edge">
<title>coin&#45;&gt;error</title>
<path fill="none" stroke="black" d="M1123.72,-515.6C1151.64,-508.64 1196.19,-494.2 1226,-468 1296.94,-405.64 1257.43,-335.62 1339,-288 1419.78,-240.84 1709.26,-235.32 1815.52,-234.91"/>
<polygon fill="black" stroke="black" points="1815.46,-238.41 1825.45,-234.89 1815.44,-231.41 1815.46,-238.41"/>
</g>
<!-- coin&#45;&gt;system_addresses -->
<g id="edge77" class="edge">
<title>coin&#45;&gt;system_addresses</title>
<path fill="none" stroke="black" d="M1124.89,-519.12C1160.76,-515.26 1224.35,-503.54 1264,-468 1303.11,-432.94 1275.5,-397.77 1312,-360 1326.74,-344.75 1346.76,-333.29 1365.63,-325.01"/>
<polygon fill="black" stroke="black" points="1366.95,-328.25 1374.85,-321.19 1364.28,-321.78 1366.95,-328.25"/>
</g>
<!-- coin&#45;&gt;option -->
<g id="edge72" class="edge">
<title>coin&#45;&gt;option</title>
<path fill="none" stroke="black" d="M1111.31,-505.98C1119.27,-495.98 1128.65,-482.12 1133,-468 1157.18,-389.49 1153.11,-341.77 1091,-288 1082.1,-280.3 764.37,-150.58 654.75,-105.95"/>
<polygon fill="black" stroke="black" points="656.19,-102.76 645.61,-102.23 653.55,-109.24 656.19,-102.76"/>
</g>
<!-- coin&#45;&gt;signer -->
<g id="edge75" class="edge">
<title>coin&#45;&gt;signer</title>
<path fill="none" stroke="black" d="M1071.08,-519.43C954.8,-512.21 496.49,-478.84 383,-396 376.83,-391.5 328.6,-306.01 303.73,-261.48"/>
<polygon fill="black" stroke="black" points="306.9,-259.98 298.97,-252.95 300.79,-263.39 306.9,-259.98"/>
</g>
<!-- coin&#45;&gt;event -->
<g id="edge78" class="edge">
<title>coin&#45;&gt;event</title>
<path fill="none" stroke="black" d="M1079.59,-508.3C1067.53,-498.79 1052.78,-484.59 1046,-468 1037.29,-446.68 1047.73,-422.01 1058.95,-404.06"/>
<polygon fill="black" stroke="black" points="1061.8,-406.09 1064.48,-395.84 1055.99,-402.18 1061.8,-406.09"/>
</g>
<!-- coin&#45;&gt;account -->
<g id="edge79" class="edge">
<title>coin&#45;&gt;account</title>
<path fill="none" stroke="black" d="M1072.14,-515.74C1014.15,-503.94 873.06,-475.23 799.82,-460.32"/>
<polygon fill="black" stroke="black" points="800.65,-456.92 790.15,-458.36 799.26,-463.78 800.65,-456.92"/>
</g>
<!-- coin&#45;&gt;type_info -->
<g id="edge74" class="edge">
<title>coin&#45;&gt;type_info</title>
<path fill="none" stroke="black" d="M1077.86,-509.43C1001.84,-465.77 731.72,-310.64 634.87,-255.03"/>
<polygon fill="black" stroke="black" points="636.72,-252.05 626.3,-250.11 633.23,-258.12 636.72,-252.05"/>
</g>
<!-- optional_aggregator -->
<g id="node30" class="node">
<title>optional_aggregator</title>
<ellipse fill="none" stroke="black" cx="1566" cy="-450" rx="81.49" ry="18"/>
<text text-anchor="middle" x="1566" y="-446.3" font-family="Times,serif" font-size="14.00">optional_aggregator</text>
</g>
<!-- coin&#45;&gt;optional_aggregator -->
<g id="edge80" class="edge">
<title>coin&#45;&gt;optional_aggregator</title>
<path fill="none" stroke="black" d="M1124.16,-517.09C1193.07,-506.78 1381.59,-478.58 1488.79,-462.55"/>
<polygon fill="black" stroke="black" points="1489.31,-466.01 1498.68,-461.07 1488.27,-459.09 1489.31,-466.01"/>
</g>
<!-- aptos_coin&#45;&gt;vector -->
<g id="edge81" class="edge">
<title>aptos_coin&#45;&gt;vector</title>
<path fill="none" stroke="black" d="M462.58,-588.91C342.89,-577.28 38,-539.03 38,-451 38,-451 38,-451 38,-161 38,-67.27 369.48,-31.89 490.47,-22.1"/>
<polygon fill="black" stroke="black" points="490.63,-25.6 500.33,-21.32 490.09,-18.62 490.63,-25.6"/>
</g>
<!-- aptos_coin&#45;&gt;string -->
<g id="edge83" class="edge">
<title>aptos_coin&#45;&gt;string</title>
<path fill="none" stroke="black" d="M483.11,-578.69C466.46,-569.07 445.23,-555.36 429,-540 319.19,-436.09 287.08,-398.04 248,-252 243.86,-236.54 238.77,-229.07 248,-216 272.04,-181.94 319.97,-169.64 355.01,-165.27"/>
<polygon fill="black" stroke="black" points="355.26,-168.76 364.84,-164.23 354.52,-161.8 355.26,-168.76"/>
</g>
<!-- aptos_coin&#45;&gt;error -->
<g id="edge85" class="edge">
<title>aptos_coin&#45;&gt;error</title>
<path fill="none" stroke="black" d="M541.61,-579.89C595.23,-557.56 707.33,-510.4 801,-468 970.52,-391.27 999.24,-336.08 1179,-288 1300.46,-255.52 1689.89,-240.34 1815.52,-236.21"/>
<polygon fill="black" stroke="black" points="1815.45,-239.71 1825.33,-235.89 1815.22,-232.71 1815.45,-239.71"/>
</g>
<!-- aptos_coin&#45;&gt;system_addresses -->
<g id="edge86" class="edge">
<title>aptos_coin&#45;&gt;system_addresses</title>
<path fill="none" stroke="black" d="M558.8,-591.07C686.04,-585.69 1025.55,-568.97 1134,-540 1207,-520.5 1232.38,-519.14 1288,-468 1328.74,-430.54 1313.28,-401.41 1350,-360 1360.06,-348.65 1372.91,-338.18 1384.91,-329.59"/>
<polygon fill="black" stroke="black" points="1386.78,-332.55 1393.03,-323.99 1382.81,-326.79 1386.78,-332.55"/>
</g>
<!-- aptos_coin&#45;&gt;option -->
<g id="edge82" class="edge">
<title>aptos_coin&#45;&gt;option</title>
<path fill="none" stroke="black" d="M473.15,-581.8C447.52,-572.93 413.37,-558.89 387,-540 258.15,-447.69 160.16,-354.07 238,-216 268.36,-162.15 299.42,-166.48 357,-144 430.08,-115.47 520.93,-101.48 573.9,-95.28"/>
<polygon fill="black" stroke="black" points="574.2,-98.77 583.74,-94.18 573.42,-91.82 574.2,-98.77"/>
</g>
<!-- aptos_coin&#45;&gt;signer -->
<g id="edge84" class="edge">
<title>aptos_coin&#45;&gt;signer</title>
<path fill="none" stroke="black" d="M494.28,-576.69C457.06,-537.04 363.28,-431 318,-324 309.57,-304.08 302.07,-280.82 296.81,-263.08"/>
<polygon fill="black" stroke="black" points="300.18,-262.13 294.03,-253.5 293.45,-264.08 300.18,-262.13"/>
</g>
<!-- aptos_coin&#45;&gt;coin -->
<g id="edge87" class="edge">
<title>aptos_coin&#45;&gt;coin</title>
<path fill="none" stroke="black" d="M556.22,-587.61C637.63,-578.1 811.9,-557.68 959,-540 993.22,-535.89 1032.16,-531.12 1060.1,-527.68"/>
<polygon fill="black" stroke="black" points="1060.36,-531.17 1069.85,-526.48 1059.5,-524.23 1060.36,-531.17"/>
</g>
<!-- staking_config&#45;&gt;error -->
<g id="edge88" class="edge">
<title>staking_config&#45;&gt;error</title>
<path fill="none" stroke="black" d="M1855,-359.59C1855,-335.61 1855,-292.14 1855,-263.42"/>
<polygon fill="black" stroke="black" points="1858.5,-263.62 1855,-253.62 1851.5,-263.62 1858.5,-263.62"/>
</g>
<!-- staking_config&#45;&gt;system_addresses -->
<g id="edge89" class="edge">
<title>staking_config&#45;&gt;system_addresses</title>
<path fill="none" stroke="black" d="M1800.91,-368.28C1722.95,-355.7 1578.88,-332.46 1492.3,-318.5"/>
<polygon fill="black" stroke="black" points="1492.93,-315.06 1482.5,-316.92 1491.81,-321.97 1492.93,-315.06"/>
</g>
<!-- bls12381&#45;&gt;error -->
<g id="edge91" class="edge">
<title>bls12381&#45;&gt;error</title>
<path fill="none" stroke="black" d="M2352.1,-294.1C2344.27,-291.81 2335.89,-289.61 2328,-288 2169.18,-255.69 1976.06,-241.78 1894.44,-237.04"/>
<polygon fill="black" stroke="black" points="1894.69,-233.55 1884.5,-236.48 1894.29,-240.54 1894.69,-233.55"/>
</g>
<!-- bls12381&#45;&gt;option -->
<g id="edge90" class="edge">
<title>bls12381&#45;&gt;option</title>
<path fill="none" stroke="black" d="M2351.73,-294.31C2343.99,-292.04 2335.75,-289.79 2328,-288 2136.63,-243.85 2086.7,-241.81 1892,-216 1411.67,-152.32 825.47,-106.45 662.09,-94.23"/>
<polygon fill="black" stroke="black" points="662.81,-90.78 652.58,-93.52 662.29,-97.76 662.81,-90.78"/>
</g>
<!-- optional_aggregator&#45;&gt;error -->
<g id="edge93" class="edge">
<title>optional_aggregator&#45;&gt;error</title>
<path fill="none" stroke="black" d="M1620.9,-436.37C1664.33,-425.64 1720.77,-409.82 1740,-396 1789.17,-360.67 1825.15,-297.66 1842.79,-261.84"/>
<polygon fill="black" stroke="black" points="1845.85,-263.56 1847.02,-253.03 1839.54,-260.53 1845.85,-263.56"/>
</g>
<!-- optional_aggregator&#45;&gt;option -->
<g id="edge92" class="edge">
<title>optional_aggregator&#45;&gt;option</title>
<path fill="none" stroke="black" d="M1620.01,-436.2C1643.23,-428.18 1668.89,-415.53 1686,-396 1718.22,-359.22 1737.42,-326.29 1707,-288 1575.03,-121.87 1446.03,-238.19 1242,-180 1194.15,-166.36 1184.61,-154.6 1136,-144 963.77,-106.45 753.38,-95.35 662.89,-92.2"/>
<polygon fill="black" stroke="black" points="663.06,-88.7 652.95,-91.87 662.83,-95.7 663.06,-88.7"/>
</g>
<!-- aggregator -->
<g id="node31" class="node">
<title>aggregator</title>
<ellipse fill="none" stroke="black" cx="1650" cy="-306" rx="48.19" ry="18"/>
<text text-anchor="middle" x="1650" y="-302.3" font-family="Times,serif" font-size="14.00">aggregator</text>
</g>
<!-- optional_aggregator&#45;&gt;aggregator -->
<g id="edge94" class="edge">
<title>optional_aggregator&#45;&gt;aggregator</title>
<path fill="none" stroke="black" d="M1616.78,-435.48C1636.65,-427.44 1657.43,-414.97 1669,-396 1680.42,-377.28 1673.88,-352.71 1665.49,-334.12"/>
<polygon fill="black" stroke="black" points="1668.7,-332.73 1661.13,-325.32 1662.43,-335.84 1668.7,-332.73"/>
</g>
<!-- aggregator_factory -->
<g id="node32" class="node">
<title>aggregator_factory</title>
<ellipse fill="none" stroke="black" cx="1583" cy="-378" rx="77.19" ry="18"/>
<text text-anchor="middle" x="1583" y="-374.3" font-family="Times,serif" font-size="14.00">aggregator_factory</text>
</g>
<!-- optional_aggregator&#45;&gt;aggregator_factory -->
<g id="edge95" class="edge">
<title>optional_aggregator&#45;&gt;aggregator_factory</title>
<path fill="none" stroke="black" d="M1570.2,-431.7C1571.99,-424.32 1574.13,-415.52 1576.14,-407.25"/>
<polygon fill="black" stroke="black" points="1579.53,-408.12 1578.49,-397.58 1572.73,-406.47 1579.53,-408.12"/>
</g>
<!-- aggregator_factory&#45;&gt;error -->
<g id="edge97" class="edge">
<title>aggregator_factory&#45;&gt;error</title>
<path fill="none" stroke="black" d="M1579.53,-359.86C1576.58,-339.96 1575.25,-307.38 1593,-288 1622.5,-255.8 1750.22,-242.3 1815.81,-237.41"/>
<polygon fill="black" stroke="black" points="1815.68,-240.93 1825.41,-236.72 1815.18,-233.94 1815.68,-240.93"/>
</g>
<!-- aggregator_factory&#45;&gt;system_addresses -->
<g id="edge98" class="edge">
<title>aggregator_factory&#45;&gt;system_addresses</title>
<path fill="none" stroke="black" d="M1547.45,-361.64C1523.73,-351.39 1492.33,-337.82 1466.76,-326.77"/>
<polygon fill="black" stroke="black" points="1468.15,-323.56 1457.58,-322.81 1465.37,-329.99 1468.15,-323.56"/>
</g>
<!-- aggregator_factory&#45;&gt;table -->
<g id="edge96" class="edge">
<title>aggregator_factory&#45;&gt;table</title>
<path fill="none" stroke="black" d="M1524.85,-365.91C1448.93,-351.43 1318.18,-326.49 1253.91,-314.23"/>
<polygon fill="black" stroke="black" points="1254.67,-310.81 1244.19,-312.38 1253.36,-317.69 1254.67,-310.81"/>
</g>
<!-- aggregator_factory&#45;&gt;aggregator -->
<g id="edge99" class="edge">
<title>aggregator_factory&#45;&gt;aggregator</title>
<path fill="none" stroke="black" d="M1599.22,-360.05C1607.4,-351.5 1617.48,-340.97 1626.5,-331.56"/>
<polygon fill="black" stroke="black" points="1628.96,-334.04 1633.35,-324.4 1623.9,-329.2 1628.96,-334.04"/>
</g>
</g>
</svg>
