<?xml version="1.0" encoding="UTF-8" standalone="no"?>
<!DOCTYPE svg PUBLIC "-//W3C//DTD SVG 1.1//EN"
 "http://www.w3.org/Graphics/SVG/1.1/DTD/svg11.dtd">
<!-- Generated by graphviz version 7.0.0 (20221023.0053)
 -->
<!-- Title: G Pages: 1 -->
<svg width="1474pt" height="620pt"
 viewBox="0.00 0.00 1474.00 620.00" xmlns="http://www.w3.org/2000/svg" xmlns:xlink="http://www.w3.org/1999/xlink">
<g id="graph0" class="graph" transform="scale(1 1) rotate(0) translate(4 616)">
<title>G</title>
<polygon fill="white" stroke="none" points="-4,4 -4,-616 1470,-616 1470,4 -4,4"/>
<!-- managed_coin -->
<g id="node1" class="node">
<title>managed_coin</title>
<ellipse fill="none" stroke="black" cx="282" cy="-594" rx="62.29" ry="18"/>
<text text-anchor="middle" x="282" y="-590.3" font-family="Times,serif" font-size="14.00">managed_coin</text>
</g>
<!-- string -->
<g id="node2" class="node">
<title>string</title>
<ellipse fill="none" stroke="black" cx="260" cy="-162" rx="30.59" ry="18"/>
<text text-anchor="middle" x="260" y="-158.3" font-family="Times,serif" font-size="14.00">string</text>
</g>
<!-- managed_coin&#45;&gt;string -->
<g id="edge1" class="edge">
<title>managed_coin&#45;&gt;string</title>
<path fill="none" stroke="black" d="M221.85,-588.94C139.03,-579.7 0,-549.53 0,-451 0,-451 0,-451 0,-305 0,-206.63 145.14,-175.98 218.53,-166.78"/>
<polygon fill="black" stroke="black" points="218.64,-170.29 228.16,-165.65 217.82,-163.34 218.64,-170.29"/>
</g>
<!-- signer -->
<g id="node3" class="node">
<title>signer</title>
<ellipse fill="none" stroke="black" cx="139" cy="-234" rx="32.49" ry="18"/>
<text text-anchor="middle" x="139" y="-230.3" font-family="Times,serif" font-size="14.00">signer</text>
</g>
<!-- managed_coin&#45;&gt;signer -->
<g id="edge2" class="edge">
<title>managed_coin&#45;&gt;signer</title>
<path fill="none" stroke="black" d="M262.43,-576.7C236.86,-554.49 192.16,-512.36 165,-468 122.53,-398.64 126.66,-369.16 132,-288 132.53,-280 133.49,-271.38 134.54,-263.45"/>
<polygon fill="black" stroke="black" points="138,-264.02 135.94,-253.63 131.07,-263.03 138,-264.02"/>
</g>
<!-- error -->
<g id="node4" class="node">
<title>error</title>
<ellipse fill="none" stroke="black" cx="1111" cy="-234" rx="27.9" ry="18"/>
<text text-anchor="middle" x="1111" y="-230.3" font-family="Times,serif" font-size="14.00">error</text>
</g>
<!-- managed_coin&#45;&gt;error -->
<g id="edge3" class="edge">
<title>managed_coin&#45;&gt;error</title>
<path fill="none" stroke="black" d="M343.73,-590.83C568.35,-582.32 1332.73,-547.65 1404,-468 1444.54,-422.7 1455.78,-377.89 1355,-288 1325.06,-261.3 1210.89,-245.5 1149.92,-238.8"/>
<polygon fill="black" stroke="black" points="1150.65,-235.36 1140.33,-237.78 1149.91,-242.32 1150.65,-235.36"/>
</g>
<!-- coin -->
<g id="node5" class="node">
<title>coin</title>
<ellipse fill="none" stroke="black" cx="467" cy="-522" rx="27" ry="18"/>
<text text-anchor="middle" x="467" y="-518.3" font-family="Times,serif" font-size="14.00">coin</text>
</g>
<!-- managed_coin&#45;&gt;coin -->
<g id="edge4" class="edge">
<title>managed_coin&#45;&gt;coin</title>
<path fill="none" stroke="black" d="M318.55,-579.17C351.8,-566.59 400.5,-548.16 432.95,-535.88"/>
<polygon fill="black" stroke="black" points="434.17,-539.17 442.28,-532.35 431.69,-532.62 434.17,-539.17"/>
</g>
<!-- vector -->
<g id="node6" class="node">
<title>vector</title>
<ellipse fill="none" stroke="black" cx="772" cy="-18" rx="32.49" ry="18"/>
<text text-anchor="middle" x="772" y="-14.3" font-family="Times,serif" font-size="14.00">vector</text>
</g>
<!-- string&#45;&gt;vector -->
<g id="edge5" class="edge">
<title>string&#45;&gt;vector</title>
<path fill="none" stroke="black" d="M287.17,-153.47C372.07,-129.92 632.69,-57.64 732.52,-29.95"/>
<polygon fill="black" stroke="black" points="733.17,-33.4 741.87,-27.36 731.3,-26.66 733.17,-33.4"/>
</g>
<!-- option -->
<g id="node7" class="node">
<title>option</title>
<ellipse fill="none" stroke="black" cx="772" cy="-90" rx="33.29" ry="18"/>
<text text-anchor="middle" x="772" y="-86.3" font-family="Times,serif" font-size="14.00">option</text>
</g>
<!-- string&#45;&gt;option -->
<g id="edge6" class="edge">
<title>string&#45;&gt;option</title>
<path fill="none" stroke="black" d="M289.74,-156.93C376.07,-145.13 626.98,-110.83 728.55,-96.94"/>
<polygon fill="black" stroke="black" points="728.96,-100.42 738.4,-95.59 728.02,-93.48 728.96,-100.42"/>
</g>
<!-- coin&#45;&gt;string -->
<g id="edge8" class="edge">
<title>coin&#45;&gt;string</title>
<path fill="none" stroke="black" d="M439.83,-519.65C373.66,-515.85 206.56,-502.94 165,-468 76.29,-393.43 29.98,-309.83 98,-216 125.15,-178.55 179.55,-167.07 217.8,-163.81"/>
<polygon fill="black" stroke="black" points="217.85,-167.32 227.59,-163.15 217.38,-160.33 217.85,-167.32"/>
</g>
<!-- coin&#45;&gt;signer -->
<g id="edge10" class="edge">
<title>coin&#45;&gt;signer</title>
<path fill="none" stroke="black" d="M440.47,-518.41C381.27,-512.19 240.56,-494.94 202,-468 136.33,-422.12 133.61,-314.83 136.44,-263.43"/>
<polygon fill="black" stroke="black" points="139.91,-263.93 137.1,-253.72 132.93,-263.46 139.91,-263.93"/>
</g>
<!-- coin&#45;&gt;error -->
<g id="edge11" class="edge">
<title>coin&#45;&gt;error</title>
<path fill="none" stroke="black" d="M494.11,-520.37C559.27,-518.22 729.24,-508.82 864,-468 997.55,-427.55 1071.77,-443.99 1143,-324 1155.08,-303.65 1143.42,-278.01 1130.92,-259.49"/>
<polygon fill="black" stroke="black" points="1133.82,-257.53 1125.12,-251.48 1128.15,-261.63 1133.82,-257.53"/>
</g>
<!-- coin&#45;&gt;option -->
<g id="edge7" class="edge">
<title>coin&#45;&gt;option</title>
<path fill="none" stroke="black" d="M494.22,-520.13C644.07,-515.26 1363.24,-490.77 1404,-468 1446.09,-444.49 1466,-427.21 1466,-379 1466,-379 1466,-379 1466,-233 1466,-99.96 970.27,-90.37 816.76,-90.59"/>
<polygon fill="black" stroke="black" points="816.98,-87.09 806.99,-90.62 817,-94.09 816.98,-87.09"/>
</g>
<!-- type_info -->
<g id="node8" class="node">
<title>type_info</title>
<ellipse fill="none" stroke="black" cx="296" cy="-234" rx="44.39" ry="18"/>
<text text-anchor="middle" x="296" y="-230.3" font-family="Times,serif" font-size="14.00">type_info</text>
</g>
<!-- coin&#45;&gt;type_info -->
<g id="edge9" class="edge">
<title>coin&#45;&gt;type_info</title>
<path fill="none" stroke="black" d="M440.01,-519.06C379.37,-513.09 232.82,-489.21 171,-396 135.76,-342.86 212.05,-284.77 260.33,-255.02"/>
<polygon fill="black" stroke="black" points="262.09,-258.04 268.86,-249.89 258.49,-252.04 262.09,-258.04"/>
</g>
<!-- system_addresses -->
<g id="node9" class="node">
<title>system_addresses</title>
<ellipse fill="none" stroke="black" cx="1061" cy="-306" rx="73.39" ry="18"/>
<text text-anchor="middle" x="1061" y="-302.3" font-family="Times,serif" font-size="14.00">system_addresses</text>
</g>
<!-- coin&#45;&gt;system_addresses -->
<g id="edge12" class="edge">
<title>coin&#45;&gt;system_addresses</title>
<path fill="none" stroke="black" d="M494.01,-519.57C573.18,-514.34 809.46,-491.2 975,-396 1002.34,-380.28 1026.59,-353.33 1042.32,-333.2"/>
<polygon fill="black" stroke="black" points="1044.96,-335.51 1048.21,-325.42 1039.38,-331.28 1044.96,-335.51"/>
</g>
<!-- event -->
<g id="node10" class="node">
<title>event</title>
<ellipse fill="none" stroke="black" cx="354" cy="-378" rx="29.8" ry="18"/>
<text text-anchor="middle" x="354" y="-374.3" font-family="Times,serif" font-size="14.00">event</text>
</g>
<!-- coin&#45;&gt;event -->
<g id="edge13" class="edge">
<title>coin&#45;&gt;event</title>
<path fill="none" stroke="black" d="M454.69,-505.53C435.08,-480.89 396.57,-432.5 373.28,-403.23"/>
<polygon fill="black" stroke="black" points="376.2,-401.28 367.24,-395.63 370.72,-405.64 376.2,-401.28"/>
</g>
<!-- account -->
<g id="node11" class="node">
<title>account</title>
<ellipse fill="none" stroke="black" cx="526" cy="-450" rx="38.19" ry="18"/>
<text text-anchor="middle" x="526" y="-446.3" font-family="Times,serif" font-size="14.00">account</text>
</g>
<!-- coin&#45;&gt;account -->
<g id="edge14" class="edge">
<title>coin&#45;&gt;account</title>
<path fill="none" stroke="black" d="M479.8,-505.81C487.17,-497.07 496.61,-485.87 505.04,-475.87"/>
<polygon fill="black" stroke="black" points="507.66,-478.19 511.43,-468.29 502.31,-473.68 507.66,-478.19"/>
</g>
<!-- optional_aggregator -->
<g id="node12" class="node">
<title>optional_aggregator</title>
<ellipse fill="none" stroke="black" cx="1314" cy="-450" rx="81.49" ry="18"/>
<text text-anchor="middle" x="1314" y="-446.3" font-family="Times,serif" font-size="14.00">optional_aggregator</text>
</g>
<!-- coin&#45;&gt;optional_aggregator -->
<g id="edge15" class="edge">
<title>coin&#45;&gt;optional_aggregator</title>
<path fill="none" stroke="black" d="M493.98,-518.85C583.06,-511.76 875.91,-488.35 1118,-468 1154.08,-464.97 1193.89,-461.53 1228.16,-458.54"/>
<polygon fill="black" stroke="black" points="1228.38,-462.04 1238.04,-457.68 1227.78,-455.06 1228.38,-462.04"/>
</g>
<!-- option&#45;&gt;vector -->
<g id="edge16" class="edge">
<title>option&#45;&gt;vector</title>
<path fill="none" stroke="black" d="M772,-71.7C772,-64.41 772,-55.73 772,-47.54"/>
<polygon fill="black" stroke="black" points="775.5,-47.62 772,-37.62 768.5,-47.62 775.5,-47.62"/>
</g>
<!-- type_info&#45;&gt;string -->
<g id="edge17" class="edge">
<title>type_info&#45;&gt;string</title>
<path fill="none" stroke="black" d="M287.29,-216.05C283.16,-208.03 278.13,-198.26 273.52,-189.3"/>
<polygon fill="black" stroke="black" points="276.76,-187.95 269.08,-180.65 270.54,-191.15 276.76,-187.95"/>
</g>
<!-- system_addresses&#45;&gt;signer -->
<g id="edge18" class="edge">
<title>system_addresses&#45;&gt;signer</title>
<path fill="none" stroke="black" d="M1009.15,-292.98C999.19,-291.03 988.81,-289.25 979,-288 654.12,-246.63 568.68,-286.47 243,-252 222.36,-249.82 199.59,-246.23 180.63,-242.91"/>
<polygon fill="black" stroke="black" points="181.32,-239.48 170.86,-241.16 180.08,-246.37 181.32,-239.48"/>
</g>
<!-- system_addresses&#45;&gt;error -->
<g id="edge19" class="edge">
<title>system_addresses&#45;&gt;error</title>
<path fill="none" stroke="black" d="M1073.1,-288.05C1079.11,-279.65 1086.48,-269.32 1093.13,-260.02"/>
<polygon fill="black" stroke="black" points="1095.85,-262.23 1098.81,-252.06 1090.15,-258.16 1095.85,-262.23"/>
</g>
<!-- bcs -->
<g id="node13" class="node">
<title>bcs</title>
<ellipse fill="none" stroke="black" cx="501" cy="-234" rx="27" ry="18"/>
<text text-anchor="middle" x="501" y="-230.3" font-family="Times,serif" font-size="14.00">bcs</text>
</g>
<!-- event&#45;&gt;bcs -->
<g id="edge20" class="edge">
<title>event&#45;&gt;bcs</title>
<path fill="none" stroke="black" d="M348.33,-359.86C343.1,-340.55 338.14,-309.1 353,-288 377.63,-253.01 427.6,-241 462.64,-236.95"/>
<polygon fill="black" stroke="black" points="462.77,-240.45 472.38,-236 462.09,-233.48 462.77,-240.45"/>
</g>
<!-- guid -->
<g id="node14" class="node">
<title>guid</title>
<ellipse fill="none" stroke="black" cx="389" cy="-306" rx="27" ry="18"/>
<text text-anchor="middle" x="389" y="-302.3" font-family="Times,serif" font-size="14.00">guid</text>
</g>
<!-- event&#45;&gt;guid -->
<g id="edge21" class="edge">
<title>event&#45;&gt;guid</title>
<path fill="none" stroke="black" d="M362.29,-360.41C366.3,-352.39 371.22,-342.57 375.73,-333.54"/>
<polygon fill="black" stroke="black" points="378.75,-335.33 380.09,-324.82 372.49,-332.2 378.75,-335.33"/>
</g>
<!-- account&#45;&gt;signer -->
<g id="edge26" class="edge">
<title>account&#45;&gt;signer</title>
<path fill="none" stroke="black" d="M520.5,-431.83C508.81,-398.27 478.08,-324.07 425,-288 414.96,-281.17 258.5,-254.68 181.36,-241.93"/>
<polygon fill="black" stroke="black" points="182.06,-238.5 171.63,-240.33 180.92,-245.41 182.06,-238.5"/>
</g>
<!-- account&#45;&gt;error -->
<g id="edge27" class="edge">
<title>account&#45;&gt;error</title>
<path fill="none" stroke="black" d="M564.37,-447.62C642.52,-444.09 816.61,-432.27 862,-396 902.36,-363.75 866.22,-322.14 905,-288 951.56,-247.01 1025.72,-236.99 1071.21,-234.95"/>
<polygon fill="black" stroke="black" points="1071.28,-238.45 1081.16,-234.63 1071.05,-231.45 1071.28,-238.45"/>
</g>
<!-- account&#45;&gt;vector -->
<g id="edge22" class="edge">
<title>account&#45;&gt;vector</title>
<path fill="none" stroke="black" d="M563.29,-445.49C626.97,-438.84 753.18,-422.66 788,-396 902.71,-308.19 866.2,-206.7 814,-72 809.89,-61.39 802.87,-51.21 795.73,-42.67"/>
<polygon fill="black" stroke="black" points="798.35,-40.35 789.08,-35.22 793.13,-45.01 798.35,-40.35"/>
</g>
<!-- account&#45;&gt;option -->
<g id="edge23" class="edge">
<title>account&#45;&gt;option</title>
<path fill="none" stroke="black" d="M564.01,-447.18C641.39,-441.21 810,-415.73 810,-307 810,-307 810,-307 810,-233 810,-191.95 795,-146.43 783.85,-118.26"/>
<polygon fill="black" stroke="black" points="787.11,-116.99 780.08,-109.06 780.63,-119.64 787.11,-116.99"/>
</g>
<!-- account&#45;&gt;type_info -->
<g id="edge24" class="edge">
<title>account&#45;&gt;type_info</title>
<path fill="none" stroke="black" d="M488.99,-444.75C434.76,-437.71 337.69,-421.82 315,-396 282.86,-359.44 285.48,-298.8 290.55,-263.3"/>
<polygon fill="black" stroke="black" points="293.95,-264.22 292.08,-253.79 287.04,-263.1 293.95,-264.22"/>
</g>
<!-- account&#45;&gt;system_addresses -->
<g id="edge28" class="edge">
<title>account&#45;&gt;system_addresses</title>
<path fill="none" stroke="black" d="M564.53,-449.66C637.79,-449.68 801.19,-443.79 928,-396 968.06,-380.9 1008.07,-351.74 1033.59,-330.91"/>
<polygon fill="black" stroke="black" points="1035.7,-333.71 1041.14,-324.62 1031.22,-328.33 1035.7,-333.71"/>
</g>
<!-- account&#45;&gt;event -->
<g id="edge35" class="edge">
<title>account&#45;&gt;event</title>
<path fill="none" stroke="black" d="M497.6,-437.44C467.81,-425.32 420.96,-406.25 388.93,-393.22"/>
<polygon fill="black" stroke="black" points="390.25,-389.98 379.67,-389.45 387.61,-396.46 390.25,-389.98"/>
</g>
<!-- account&#45;&gt;bcs -->
<g id="edge30" class="edge">
<title>account&#45;&gt;bcs</title>
<path fill="none" stroke="black" d="M524,-431.85C519.71,-395.14 509.61,-308.66 504.33,-263.53"/>
<polygon fill="black" stroke="black" points="507.83,-263.26 503.19,-253.74 500.87,-264.07 507.83,-263.26"/>
</g>
<!-- account&#45;&gt;guid -->
<g id="edge33" class="edge">
<title>account&#45;&gt;guid</title>
<path fill="none" stroke="black" d="M498.11,-437.53C478.8,-428.49 453.53,-414.36 436,-396 419.13,-378.33 406.67,-353.43 398.84,-334.45"/>
<polygon fill="black" stroke="black" points="402.12,-333.23 395.21,-325.2 395.6,-335.79 402.12,-333.23"/>
</g>
<!-- table -->
<g id="node15" class="node">
<title>table</title>
<ellipse fill="none" stroke="black" cx="942" cy="-306" rx="27.9" ry="18"/>
<text text-anchor="middle" x="942" y="-302.3" font-family="Times,serif" font-size="14.00">table</text>
</g>
<!-- account&#45;&gt;table -->
<g id="edge25" class="edge">
<title>account&#45;&gt;table</title>
<path fill="none" stroke="black" d="M564.28,-448.09C648.64,-445.37 847.22,-434.92 900,-396 919.66,-381.51 930.46,-355.45 936.16,-335.26"/>
<polygon fill="black" stroke="black" points="939.53,-336.21 938.59,-325.65 932.75,-334.49 939.53,-336.21"/>
</g>
<!-- hash -->
<g id="node16" class="node">
<title>hash</title>
<ellipse fill="none" stroke="black" cx="658" cy="-234" rx="27" ry="18"/>
<text text-anchor="middle" x="658" y="-230.3" font-family="Times,serif" font-size="14.00">hash</text>
</g>
<!-- account&#45;&gt;hash -->
<g id="edge29" class="edge">
<title>account&#45;&gt;hash</title>
<path fill="none" stroke="black" d="M564.43,-448.76C603.48,-446.21 662.2,-435.51 691,-396 720.55,-355.47 693.95,-294.67 674.38,-260.56"/>
<polygon fill="black" stroke="black" points="677.51,-258.98 669.38,-252.19 671.5,-262.57 677.51,-258.98"/>
</g>
<!-- ed25519 -->
<g id="node17" class="node">
<title>ed25519</title>
<ellipse fill="none" stroke="black" cx="589" cy="-306" rx="40.89" ry="18"/>
<text text-anchor="middle" x="589" y="-302.3" font-family="Times,serif" font-size="14.00">ed25519</text>
</g>
<!-- account&#45;&gt;ed25519 -->
<g id="edge31" class="edge">
<title>account&#45;&gt;ed25519</title>
<path fill="none" stroke="black" d="M527.22,-431.81C529.07,-413.28 533.69,-383.31 545,-360 550.04,-349.62 557.53,-339.53 564.9,-331"/>
<polygon fill="black" stroke="black" points="567.28,-333.58 571.43,-323.83 562.11,-328.87 567.28,-333.58"/>
</g>
<!-- multi_ed25519 -->
<g id="node18" class="node">
<title>multi_ed25519</title>
<ellipse fill="none" stroke="black" cx="618" cy="-378" rx="64.19" ry="18"/>
<text text-anchor="middle" x="618" y="-374.3" font-family="Times,serif" font-size="14.00">multi_ed25519</text>
</g>
<!-- account&#45;&gt;multi_ed25519 -->
<g id="edge32" class="edge">
<title>account&#45;&gt;multi_ed25519</title>
<path fill="none" stroke="black" d="M545.51,-434.15C557.68,-424.89 573.61,-412.78 587.43,-402.26"/>
<polygon fill="black" stroke="black" points="589.55,-405.05 595.39,-396.21 585.31,-399.48 589.55,-405.05"/>
</g>
<!-- from_bcs -->
<g id="node19" class="node">
<title>from_bcs</title>
<ellipse fill="none" stroke="black" cx="224" cy="-378" rx="44.39" ry="18"/>
<text text-anchor="middle" x="224" y="-374.3" font-family="Times,serif" font-size="14.00">from_bcs</text>
</g>
<!-- account&#45;&gt;from_bcs -->
<g id="edge34" class="edge">
<title>account&#45;&gt;from_bcs</title>
<path fill="none" stroke="black" d="M491.07,-442.23C443.54,-432.83 355.93,-414.84 282,-396 278,-394.98 273.87,-393.87 269.73,-392.73"/>
<polygon fill="black" stroke="black" points="270.89,-389.42 260.31,-390.06 268.98,-396.16 270.89,-389.42"/>
</g>
<!-- optional_aggregator&#45;&gt;error -->
<g id="edge37" class="edge">
<title>optional_aggregator&#45;&gt;error</title>
<path fill="none" stroke="black" d="M1323.25,-431.8C1339.05,-399.77 1366.48,-330.42 1333,-288 1310.61,-259.63 1207.39,-244.78 1149.92,-238.59"/>
<polygon fill="black" stroke="black" points="1150.54,-235.13 1140.24,-237.58 1149.82,-242.1 1150.54,-235.13"/>
</g>
<!-- optional_aggregator&#45;&gt;option -->
<g id="edge36" class="edge">
<title>optional_aggregator&#45;&gt;option</title>
<path fill="none" stroke="black" d="M1332.59,-432.3C1341.85,-422.72 1352.09,-409.85 1357,-396 1363.25,-378.38 1364.39,-300.83 1355,-288 1225.63,-111.28 929.62,-91.26 816.8,-90.3"/>
<polygon fill="black" stroke="black" points="817.05,-86.8 807.04,-90.27 817.03,-93.8 817.05,-86.8"/>
</g>
<!-- aggregator -->
<g id="node20" class="node">
<title>aggregator</title>
<ellipse fill="none" stroke="black" cx="1276" cy="-306" rx="48.19" ry="18"/>
<text text-anchor="middle" x="1276" y="-302.3" font-family="Times,serif" font-size="14.00">aggregator</text>
</g>
<!-- optional_aggregator&#45;&gt;aggregator -->
<g id="edge38" class="edge">
<title>optional_aggregator&#45;&gt;aggregator</title>
<path fill="none" stroke="black" d="M1311.03,-431.77C1307.75,-413.72 1302.01,-384.62 1295,-360 1292.64,-351.69 1289.64,-342.81 1286.73,-334.73"/>
<polygon fill="black" stroke="black" points="1290.04,-333.57 1283.28,-325.42 1283.47,-336.01 1290.04,-333.57"/>
</g>
<!-- aggregator_factory -->
<g id="node21" class="node">
<title>aggregator_factory</title>
<ellipse fill="none" stroke="black" cx="1209" cy="-378" rx="77.19" ry="18"/>
<text text-anchor="middle" x="1209" y="-374.3" font-family="Times,serif" font-size="14.00">aggregator_factory</text>
</g>
<!-- optional_aggregator&#45;&gt;aggregator_factory -->
<g id="edge39" class="edge">
<title>optional_aggregator&#45;&gt;aggregator_factory</title>
<path fill="none" stroke="black" d="M1289.12,-432.41C1275.39,-423.26 1258.13,-411.76 1243.16,-401.77"/>
<polygon fill="black" stroke="black" points="1245.23,-398.94 1234.96,-396.31 1241.34,-404.77 1245.23,-398.94"/>
</g>
<!-- ed25519&#45;&gt;error -->
<g id="edge42" class="edge">
<title>ed25519&#45;&gt;error</title>
<path fill="none" stroke="black" d="M627.81,-299.8C724.66,-286.81 976.14,-253.09 1072.58,-240.15"/>
<polygon fill="black" stroke="black" points="1072.87,-243.65 1082.31,-238.85 1071.94,-236.71 1072.87,-243.65"/>
</g>
<!-- ed25519&#45;&gt;option -->
<g id="edge40" class="edge">
<title>ed25519&#45;&gt;option</title>
<path fill="none" stroke="black" d="M592.59,-287.67C597.13,-268.76 606.3,-238.2 622,-216 654.25,-170.41 707.11,-131.73 740.7,-109.95"/>
<polygon fill="black" stroke="black" points="742.21,-113.14 748.77,-104.81 738.45,-107.23 742.21,-113.14"/>
</g>
<!-- ed25519&#45;&gt;type_info -->
<g id="edge41" class="edge">
<title>ed25519&#45;&gt;type_info</title>
<path fill="none" stroke="black" d="M553.66,-296.56C501.32,-284.05 403.08,-260.58 344.19,-246.51"/>
<polygon fill="black" stroke="black" points="345.33,-243.19 334.79,-244.27 343.7,-249.99 345.33,-243.19"/>
</g>
<!-- ed25519&#45;&gt;bcs -->
<g id="edge44" class="edge">
<title>ed25519&#45;&gt;bcs</title>
<path fill="none" stroke="black" d="M569.91,-289.81C557.34,-279.81 540.73,-266.6 526.96,-255.65"/>
<polygon fill="black" stroke="black" points="529.16,-252.93 519.16,-249.45 524.81,-258.41 529.16,-252.93"/>
</g>
<!-- ed25519&#45;&gt;hash -->
<g id="edge43" class="edge">
<title>ed25519&#45;&gt;hash</title>
<path fill="none" stroke="black" d="M604.66,-289.12C613.85,-279.79 625.62,-267.85 635.77,-257.56"/>
<polygon fill="black" stroke="black" points="638.22,-260.05 642.75,-250.47 633.24,-255.14 638.22,-260.05"/>
</g>
<!-- multi_ed25519&#45;&gt;error -->
<g id="edge46" class="edge">
<title>multi_ed25519&#45;&gt;error</title>
<path fill="none" stroke="black" d="M654.16,-362.8C703.03,-343.96 793.14,-310.48 872,-288 942.09,-268.03 1025.51,-251.03 1072.96,-241.99"/>
<polygon fill="black" stroke="black" points="1073.55,-245.44 1082.73,-240.14 1072.25,-238.56 1073.55,-245.44"/>
</g>
<!-- multi_ed25519&#45;&gt;option -->
<g id="edge45" class="edge">
<title>multi_ed25519&#45;&gt;option</title>
<path fill="none" stroke="black" d="M631.79,-360.38C639.91,-350.2 650.1,-336.74 658,-324 701.88,-253.23 741.85,-163.14 760.66,-118.56"/>
<polygon fill="black" stroke="black" points="763.87,-119.96 764.5,-109.39 757.41,-117.26 763.87,-119.96"/>
</g>
<!-- multi_ed25519&#45;&gt;bcs -->
<g id="edge48" class="edge">
<title>multi_ed25519&#45;&gt;bcs</title>
<path fill="none" stroke="black" d="M587.07,-361.84C571.01,-352.7 552.06,-339.77 539,-324 524.18,-306.11 514.28,-281.57 508.31,-262.79"/>
<polygon fill="black" stroke="black" points="511.73,-262 505.53,-253.41 505.02,-263.99 511.73,-262"/>
</g>
<!-- multi_ed25519&#45;&gt;hash -->
<g id="edge47" class="edge">
<title>multi_ed25519&#45;&gt;hash</title>
<path fill="none" stroke="black" d="M625.55,-360.07C629.92,-349.79 635.27,-336.32 639,-324 645.02,-304.09 649.87,-281.13 653.17,-263.51"/>
<polygon fill="black" stroke="black" points="656.6,-264.23 654.93,-253.77 649.71,-262.99 656.6,-264.23"/>
</g>
<!-- multi_ed25519&#45;&gt;ed25519 -->
<g id="edge49" class="edge">
<title>multi_ed25519&#45;&gt;ed25519</title>
<path fill="none" stroke="black" d="M610.83,-359.7C607.71,-352.15 603.96,-343.12 600.47,-334.68"/>
<polygon fill="black" stroke="black" points="603.73,-333.4 596.67,-325.5 597.26,-336.08 603.73,-333.4"/>
</g>
<!-- from_bcs&#45;&gt;string -->
<g id="edge50" class="edge">
<title>from_bcs&#45;&gt;string</title>
<path fill="none" stroke="black" d="M224.93,-359.9C226.79,-330.3 231.77,-267.71 243,-216 244.81,-207.66 247.4,-198.76 250.01,-190.68"/>
<polygon fill="black" stroke="black" points="253.26,-191.99 253.15,-181.39 246.63,-189.74 253.26,-191.99"/>
</g>
<!-- aggregator_factory&#45;&gt;error -->
<g id="edge52" class="edge">
<title>aggregator_factory&#45;&gt;error</title>
<path fill="none" stroke="black" d="M1205.45,-359.64C1200.96,-340.7 1191.82,-310.12 1176,-288 1166.35,-274.5 1152.41,-262.52 1139.91,-253.38"/>
<polygon fill="black" stroke="black" points="1142.17,-250.69 1131.97,-247.83 1138.16,-256.43 1142.17,-250.69"/>
</g>
<!-- aggregator_factory&#45;&gt;system_addresses -->
<g id="edge53" class="edge">
<title>aggregator_factory&#45;&gt;system_addresses</title>
<path fill="none" stroke="black" d="M1175.79,-361.29C1154.57,-351.26 1126.86,-338.15 1103.98,-327.33"/>
<polygon fill="black" stroke="black" points="1105.75,-324.3 1095.22,-323.18 1102.76,-330.62 1105.75,-324.3"/>
</g>
<!-- aggregator_factory&#45;&gt;table -->
<g id="edge51" class="edge">
<title>aggregator_factory&#45;&gt;table</title>
<path fill="none" stroke="black" d="M1148.49,-366.56C1101.56,-357.63 1035.24,-343.17 979,-324 977.41,-323.46 975.8,-322.87 974.18,-322.25"/>
<polygon fill="black" stroke="black" points="975.58,-319.04 965.01,-318.41 972.88,-325.5 975.58,-319.04"/>
</g>
<!-- aggregator_factory&#45;&gt;aggregator -->
<g id="edge54" class="edge">
<title>aggregator_factory&#45;&gt;aggregator</title>
<path fill="none" stroke="black" d="M1225.22,-360.05C1233.4,-351.5 1243.48,-340.97 1252.5,-331.56"/>
<polygon fill="black" stroke="black" points="1254.96,-334.04 1259.35,-324.4 1249.9,-329.2 1254.96,-334.04"/>
</g>
</g>
</svg>
