<?xml version="1.0" encoding="UTF-8" standalone="no"?>
<!DOCTYPE svg PUBLIC "-//W3C//DTD SVG 1.1//EN"
 "http://www.w3.org/Graphics/SVG/1.1/DTD/svg11.dtd">
<!-- Generated by graphviz version 7.0.0 (20221023.0053)
 -->
<!-- Title: G Pages: 1 -->
<svg width="2350pt" height="764pt"
 viewBox="0.00 0.00 2350.00 764.00" xmlns="http://www.w3.org/2000/svg" xmlns:xlink="http://www.w3.org/1999/xlink">
<g id="graph0" class="graph" transform="scale(1 1) rotate(0) translate(4 760)">
<title>G</title>
<polygon fill="white" stroke="none" points="-4,4 -4,-760 2346,-760 2346,4 -4,4"/>
<!-- reconfiguration -->
<g id="node1" class="node">
<title>reconfiguration</title>
<ellipse fill="none" stroke="black" cx="1570" cy="-738" rx="64.99" ry="18"/>
<text text-anchor="middle" x="1570" y="-734.3" font-family="Times,serif" font-size="14.00">reconfiguration</text>
</g>
<!-- signer -->
<g id="node2" class="node">
<title>signer</title>
<ellipse fill="none" stroke="black" cx="837" cy="-234" rx="32.49" ry="18"/>
<text text-anchor="middle" x="837" y="-230.3" font-family="Times,serif" font-size="14.00">signer</text>
</g>
<!-- reconfiguration&#45;&gt;signer -->
<g id="edge1" class="edge">
<title>reconfiguration&#45;&gt;signer</title>
<path fill="none" stroke="black" d="M1505.55,-734.97C1369.48,-730.11 1057.12,-715.76 956,-684 832.19,-645.11 780,-580.78 780,-451 780,-451 780,-451 780,-377 780,-333.89 802.9,-288.38 819.67,-260.83"/>
<polygon fill="black" stroke="black" points="822.57,-262.8 824.93,-252.48 816.64,-259.07 822.57,-262.8"/>
</g>
<!-- error -->
<g id="node3" class="node">
<title>error</title>
<ellipse fill="none" stroke="black" cx="1742" cy="-234" rx="27.9" ry="18"/>
<text text-anchor="middle" x="1742" y="-230.3" font-family="Times,serif" font-size="14.00">error</text>
</g>
<!-- reconfiguration&#45;&gt;error -->
<g id="edge2" class="edge">
<title>reconfiguration&#45;&gt;error</title>
<path fill="none" stroke="black" d="M1631.87,-732.15C1815.06,-716.97 2342,-667.06 2342,-595 2342,-595 2342,-595 2342,-449 2342,-353.88 2285.39,-331.89 2201,-288 2128.24,-250.16 1878.89,-238.96 1781.46,-235.98"/>
<polygon fill="black" stroke="black" points="1781.69,-232.48 1771.6,-235.69 1781.49,-239.48 1781.69,-232.48"/>
</g>
<!-- system_addresses -->
<g id="node4" class="node">
<title>system_addresses</title>
<ellipse fill="none" stroke="black" cx="1532" cy="-306" rx="73.39" ry="18"/>
<text text-anchor="middle" x="1532" y="-302.3" font-family="Times,serif" font-size="14.00">system_addresses</text>
</g>
<!-- reconfiguration&#45;&gt;system_addresses -->
<g id="edge3" class="edge">
<title>reconfiguration&#45;&gt;system_addresses</title>
<path fill="none" stroke="black" d="M1579.81,-719.8C1600.55,-681.25 1645.51,-584.99 1627,-504 1612.12,-438.87 1572.81,-370.2 1549.69,-333.63"/>
<polygon fill="black" stroke="black" points="1552.8,-331.99 1544.45,-325.47 1546.91,-335.78 1552.8,-331.99"/>
</g>
<!-- event -->
<g id="node5" class="node">
<title>event</title>
<ellipse fill="none" stroke="black" cx="96" cy="-378" rx="29.8" ry="18"/>
<text text-anchor="middle" x="96" y="-374.3" font-family="Times,serif" font-size="14.00">event</text>
</g>
<!-- reconfiguration&#45;&gt;event -->
<g id="edge4" class="edge">
<title>reconfiguration&#45;&gt;event</title>
<path fill="none" stroke="black" d="M1504.97,-736.4C1326.65,-734.25 832.8,-724.67 676,-684 444.78,-624.02 202.68,-457.26 123.09,-399.22"/>
<polygon fill="black" stroke="black" points="125.55,-396.69 115.42,-393.59 121.41,-402.33 125.55,-396.69"/>
</g>
<!-- account -->
<g id="node6" class="node">
<title>account</title>
<ellipse fill="none" stroke="black" cx="560" cy="-450" rx="38.19" ry="18"/>
<text text-anchor="middle" x="560" y="-446.3" font-family="Times,serif" font-size="14.00">account</text>
</g>
<!-- reconfiguration&#45;&gt;account -->
<g id="edge5" class="edge">
<title>reconfiguration&#45;&gt;account</title>
<path fill="none" stroke="black" d="M1505.06,-736.09C1319.41,-733.04 795.36,-721.19 728,-684 644.19,-637.72 591.6,-529.82 570.54,-478.74"/>
<polygon fill="black" stroke="black" points="573.84,-477.56 566.87,-469.59 567.34,-480.17 573.84,-477.56"/>
</g>
<!-- chain_status -->
<g id="node7" class="node">
<title>chain_status</title>
<ellipse fill="none" stroke="black" cx="2014" cy="-378" rx="53.89" ry="18"/>
<text text-anchor="middle" x="2014" y="-374.3" font-family="Times,serif" font-size="14.00">chain_status</text>
</g>
<!-- reconfiguration&#45;&gt;chain_status -->
<g id="edge6" class="edge">
<title>reconfiguration&#45;&gt;chain_status</title>
<path fill="none" stroke="black" d="M1628.23,-729.8C1744,-713.86 1992,-670.85 1992,-595 1992,-595 1992,-595 1992,-521 1992,-481.27 2000.51,-436.02 2006.95,-407.49"/>
<polygon fill="black" stroke="black" points="2010.34,-408.36 2009.2,-397.83 2003.52,-406.77 2010.34,-408.36"/>
</g>
<!-- timestamp -->
<g id="node8" class="node">
<title>timestamp</title>
<ellipse fill="none" stroke="black" cx="1570" cy="-522" rx="48.19" ry="18"/>
<text text-anchor="middle" x="1570" y="-518.3" font-family="Times,serif" font-size="14.00">timestamp</text>
</g>
<!-- reconfiguration&#45;&gt;timestamp -->
<g id="edge7" class="edge">
<title>reconfiguration&#45;&gt;timestamp</title>
<path fill="none" stroke="black" d="M1570,-719.85C1570,-683.14 1570,-596.66 1570,-551.53"/>
<polygon fill="black" stroke="black" points="1573.5,-551.75 1570,-541.75 1566.5,-551.75 1573.5,-551.75"/>
</g>
<!-- stake -->
<g id="node9" class="node">
<title>stake</title>
<ellipse fill="none" stroke="black" cx="994" cy="-666" rx="28.7" ry="18"/>
<text text-anchor="middle" x="994" y="-662.3" font-family="Times,serif" font-size="14.00">stake</text>
</g>
<!-- reconfiguration&#45;&gt;stake -->
<g id="edge8" class="edge">
<title>reconfiguration&#45;&gt;stake</title>
<path fill="none" stroke="black" d="M1511.33,-729.87C1393.97,-715.61 1133.02,-683.89 1033.55,-671.81"/>
<polygon fill="black" stroke="black" points="1034.1,-668.35 1023.75,-670.61 1033.25,-675.3 1034.1,-668.35"/>
</g>
<!-- storage_gas -->
<g id="node10" class="node">
<title>storage_gas</title>
<ellipse fill="none" stroke="black" cx="2138" cy="-450" rx="51.99" ry="18"/>
<text text-anchor="middle" x="2138" y="-446.3" font-family="Times,serif" font-size="14.00">storage_gas</text>
</g>
<!-- reconfiguration&#45;&gt;storage_gas -->
<g id="edge9" class="edge">
<title>reconfiguration&#45;&gt;storage_gas</title>
<path fill="none" stroke="black" d="M1635.02,-736.15C1741.38,-733.6 1946.68,-723.56 2006,-684 2079.59,-634.93 2116.7,-530.11 2130.91,-479.5"/>
<polygon fill="black" stroke="black" points="2134.28,-480.46 2133.5,-469.9 2127.52,-478.64 2134.28,-480.46"/>
</g>
<!-- system_addresses&#45;&gt;signer -->
<g id="edge10" class="edge">
<title>system_addresses&#45;&gt;signer</title>
<path fill="none" stroke="black" d="M1465.05,-298.26C1323.61,-284.01 997.8,-251.2 880.27,-239.36"/>
<polygon fill="black" stroke="black" points="880.72,-235.89 870.42,-238.37 880.02,-242.85 880.72,-235.89"/>
</g>
<!-- system_addresses&#45;&gt;error -->
<g id="edge11" class="edge">
<title>system_addresses&#45;&gt;error</title>
<path fill="none" stroke="black" d="M1574.24,-290.92C1613.21,-277.93 1670.39,-258.87 1706.91,-246.7"/>
<polygon fill="black" stroke="black" points="1707.72,-250.12 1716.1,-243.63 1705.5,-243.48 1707.72,-250.12"/>
</g>
<!-- bcs -->
<g id="node11" class="node">
<title>bcs</title>
<ellipse fill="none" stroke="black" cx="283" cy="-234" rx="27" ry="18"/>
<text text-anchor="middle" x="283" y="-230.3" font-family="Times,serif" font-size="14.00">bcs</text>
</g>
<!-- event&#45;&gt;bcs -->
<g id="edge12" class="edge">
<title>event&#45;&gt;bcs</title>
<path fill="none" stroke="black" d="M90.17,-360.02C84.66,-340.56 79.33,-308.7 95,-288 104.25,-275.78 194.23,-254.38 246.28,-242.86"/>
<polygon fill="black" stroke="black" points="246.89,-246.31 255.91,-240.75 245.39,-239.48 246.89,-246.31"/>
</g>
<!-- guid -->
<g id="node12" class="node">
<title>guid</title>
<ellipse fill="none" stroke="black" cx="131" cy="-306" rx="27" ry="18"/>
<text text-anchor="middle" x="131" y="-302.3" font-family="Times,serif" font-size="14.00">guid</text>
</g>
<!-- event&#45;&gt;guid -->
<g id="edge13" class="edge">
<title>event&#45;&gt;guid</title>
<path fill="none" stroke="black" d="M104.29,-360.41C108.3,-352.39 113.22,-342.57 117.73,-333.54"/>
<polygon fill="black" stroke="black" points="120.75,-335.33 122.09,-324.82 114.49,-332.2 120.75,-335.33"/>
</g>
<!-- account&#45;&gt;signer -->
<g id="edge18" class="edge">
<title>account&#45;&gt;signer</title>
<path fill="none" stroke="black" d="M578.92,-433.99C615.07,-405.35 696.56,-341.04 766,-288 780.07,-277.26 795.83,-265.46 808.93,-255.73"/>
<polygon fill="black" stroke="black" points="810.77,-258.73 816.71,-249.96 806.6,-253.1 810.77,-258.73"/>
</g>
<!-- account&#45;&gt;error -->
<g id="edge19" class="edge">
<title>account&#45;&gt;error</title>
<path fill="none" stroke="black" d="M596.06,-443.47C652.42,-434.64 764.68,-416.26 859,-396 1050.39,-354.89 1093.47,-323.38 1286,-288 1438.85,-259.91 1623.4,-243.87 1702.69,-237.81"/>
<polygon fill="black" stroke="black" points="1702.83,-241.31 1712.54,-237.07 1702.31,-234.33 1702.83,-241.31"/>
</g>
<!-- account&#45;&gt;system_addresses -->
<g id="edge20" class="edge">
<title>account&#45;&gt;system_addresses</title>
<path fill="none" stroke="black" d="M597.83,-446.46C681.53,-440.51 888.57,-424.04 1060,-396 1132.79,-384.09 1149.63,-374.22 1222,-360 1303.37,-344.01 1397.31,-328.34 1460.26,-318.24"/>
<polygon fill="black" stroke="black" points="1460.43,-321.75 1469.75,-316.72 1459.33,-314.84 1460.43,-321.75"/>
</g>
<!-- account&#45;&gt;event -->
<g id="edge27" class="edge">
<title>account&#45;&gt;event</title>
<path fill="none" stroke="black" d="M530.61,-438.15C523.3,-435.8 515.44,-433.56 508,-432 347.16,-398.27 299.89,-433.96 140,-396 136.68,-395.21 133.28,-394.23 129.9,-393.14"/>
<polygon fill="black" stroke="black" points="131.39,-389.95 120.8,-389.89 129.04,-396.55 131.39,-389.95"/>
</g>
<!-- account&#45;&gt;bcs -->
<g id="edge22" class="edge">
<title>account&#45;&gt;bcs</title>
<path fill="none" stroke="black" d="M529.31,-438.78C521.73,-436.41 513.6,-434 506,-432 431.73,-412.45 394.3,-447.13 337,-396 298.76,-361.88 287.55,-299.85 284.3,-263.56"/>
<polygon fill="black" stroke="black" points="287.81,-263.54 283.58,-253.82 280.83,-264.05 287.81,-263.54"/>
</g>
<!-- account&#45;&gt;guid -->
<g id="edge25" class="edge">
<title>account&#45;&gt;guid</title>
<path fill="none" stroke="black" d="M530.59,-438.21C523.29,-435.86 515.43,-433.6 508,-432 435.89,-416.46 239.02,-437.46 178,-396 157.12,-381.81 144.84,-355.3 138.1,-334.89"/>
<polygon fill="black" stroke="black" points="141.5,-334.02 135.27,-325.45 134.79,-336.04 141.5,-334.02"/>
</g>
<!-- vector -->
<g id="node13" class="node">
<title>vector</title>
<ellipse fill="none" stroke="black" cx="596" cy="-18" rx="32.49" ry="18"/>
<text text-anchor="middle" x="596" y="-14.3" font-family="Times,serif" font-size="14.00">vector</text>
</g>
<!-- account&#45;&gt;vector -->
<g id="edge14" class="edge">
<title>account&#45;&gt;vector</title>
<path fill="none" stroke="black" d="M529.67,-438.54C522.01,-436.15 513.76,-433.79 506,-432 400.47,-407.66 354.34,-457.21 265,-396 197.47,-349.73 200.45,-293.77 226,-216 270.67,-80 465.15,-36.69 552.84,-23.92"/>
<polygon fill="black" stroke="black" points="553.3,-27.39 562.73,-22.56 552.35,-20.46 553.3,-27.39"/>
</g>
<!-- option -->
<g id="node14" class="node">
<title>option</title>
<ellipse fill="none" stroke="black" cx="596" cy="-90" rx="33.29" ry="18"/>
<text text-anchor="middle" x="596" y="-86.3" font-family="Times,serif" font-size="14.00">option</text>
</g>
<!-- account&#45;&gt;option -->
<g id="edge15" class="edge">
<title>account&#45;&gt;option</title>
<path fill="none" stroke="black" d="M529.63,-438.71C521.97,-436.31 513.73,-433.91 506,-432 419.17,-410.53 377.83,-451.89 308,-396 242.05,-343.22 198.37,-285.07 247,-216 317.04,-116.51 473.95,-95.8 551.24,-91.76"/>
<polygon fill="black" stroke="black" points="551.14,-95.27 560.98,-91.33 550.84,-88.28 551.14,-95.27"/>
</g>
<!-- type_info -->
<g id="node15" class="node">
<title>type_info</title>
<ellipse fill="none" stroke="black" cx="668" cy="-234" rx="44.39" ry="18"/>
<text text-anchor="middle" x="668" y="-230.3" font-family="Times,serif" font-size="14.00">type_info</text>
</g>
<!-- account&#45;&gt;type_info -->
<g id="edge16" class="edge">
<title>account&#45;&gt;type_info</title>
<path fill="none" stroke="black" d="M568.47,-432.21C587.08,-395.34 631.64,-307.04 654.29,-262.17"/>
<polygon fill="black" stroke="black" points="657.35,-263.87 658.73,-253.36 651.1,-260.71 657.35,-263.87"/>
</g>
<!-- table -->
<g id="node16" class="node">
<title>table</title>
<ellipse fill="none" stroke="black" cx="1054" cy="-306" rx="27.9" ry="18"/>
<text text-anchor="middle" x="1054" y="-302.3" font-family="Times,serif" font-size="14.00">table</text>
</g>
<!-- account&#45;&gt;table -->
<g id="edge17" class="edge">
<title>account&#45;&gt;table</title>
<path fill="none" stroke="black" d="M594.42,-441.62C671.39,-424.67 862.79,-380.09 1017,-324 1018.58,-323.43 1020.18,-322.81 1021.79,-322.17"/>
<polygon fill="black" stroke="black" points="1023.12,-325.41 1030.94,-318.27 1020.37,-318.97 1023.12,-325.41"/>
</g>
<!-- hash -->
<g id="node17" class="node">
<title>hash</title>
<ellipse fill="none" stroke="black" cx="359" cy="-234" rx="27" ry="18"/>
<text text-anchor="middle" x="359" y="-230.3" font-family="Times,serif" font-size="14.00">hash</text>
</g>
<!-- account&#45;&gt;hash -->
<g id="edge21" class="edge">
<title>account&#45;&gt;hash</title>
<path fill="none" stroke="black" d="M529.27,-438.93C521.69,-436.55 513.58,-434.11 506,-432 440.36,-413.76 399.14,-449.53 357,-396 327.02,-357.91 338.57,-297.56 349.15,-262.57"/>
<polygon fill="black" stroke="black" points="352.43,-263.78 352.17,-253.19 345.77,-261.64 352.43,-263.78"/>
</g>
<!-- ed25519 -->
<g id="node18" class="node">
<title>ed25519</title>
<ellipse fill="none" stroke="black" cx="483" cy="-306" rx="40.89" ry="18"/>
<text text-anchor="middle" x="483" y="-302.3" font-family="Times,serif" font-size="14.00">ed25519</text>
</g>
<!-- account&#45;&gt;ed25519 -->
<g id="edge23" class="edge">
<title>account&#45;&gt;ed25519</title>
<path fill="none" stroke="black" d="M550.86,-432.15C537.67,-407.81 513.13,-362.57 497.46,-333.67"/>
<polygon fill="black" stroke="black" points="500.69,-332.28 492.84,-325.16 494.53,-335.61 500.69,-332.28"/>
</g>
<!-- multi_ed25519 -->
<g id="node19" class="node">
<title>multi_ed25519</title>
<ellipse fill="none" stroke="black" cx="430" cy="-378" rx="64.19" ry="18"/>
<text text-anchor="middle" x="430" y="-374.3" font-family="Times,serif" font-size="14.00">multi_ed25519</text>
</g>
<!-- account&#45;&gt;multi_ed25519 -->
<g id="edge24" class="edge">
<title>account&#45;&gt;multi_ed25519</title>
<path fill="none" stroke="black" d="M535.55,-435.83C516.75,-425.71 490.43,-411.54 468.77,-399.88"/>
<polygon fill="black" stroke="black" points="470.68,-396.93 460.21,-395.27 467.36,-403.09 470.68,-396.93"/>
</g>
<!-- from_bcs -->
<g id="node20" class="node">
<title>from_bcs</title>
<ellipse fill="none" stroke="black" cx="524" cy="-234" rx="44.39" ry="18"/>
<text text-anchor="middle" x="524" y="-230.3" font-family="Times,serif" font-size="14.00">from_bcs</text>
</g>
<!-- account&#45;&gt;from_bcs -->
<g id="edge26" class="edge">
<title>account&#45;&gt;from_bcs</title>
<path fill="none" stroke="black" d="M557.1,-431.61C552.16,-402.08 541.82,-340.26 533,-288 531.66,-280.06 530.2,-271.44 528.85,-263.51"/>
<polygon fill="black" stroke="black" points="532.31,-262.95 527.18,-253.68 525.41,-264.12 532.31,-262.95"/>
</g>
<!-- chain_status&#45;&gt;error -->
<g id="edge28" class="edge">
<title>chain_status&#45;&gt;error</title>
<path fill="none" stroke="black" d="M2005.46,-359.81C1994.49,-339.54 1973.54,-306.29 1946,-288 1895.46,-254.43 1824.82,-242.11 1781.31,-237.6"/>
<polygon fill="black" stroke="black" points="1781.85,-234.14 1771.57,-236.69 1781.2,-241.11 1781.85,-234.14"/>
</g>
<!-- chain_status&#45;&gt;system_addresses -->
<g id="edge29" class="edge">
<title>chain_status&#45;&gt;system_addresses</title>
<path fill="none" stroke="black" d="M1965.13,-369.9C1880.09,-357.55 1704.5,-332.05 1604.98,-317.6"/>
<polygon fill="black" stroke="black" points="1605.72,-314.17 1595.32,-316.2 1604.71,-321.1 1605.72,-314.17"/>
</g>
<!-- timestamp&#45;&gt;error -->
<g id="edge30" class="edge">
<title>timestamp&#45;&gt;error</title>
<path fill="none" stroke="black" d="M1616.78,-517.03C1731.86,-506.16 2023.29,-471.55 2077,-396 2154.76,-286.62 1885.05,-248.7 1781.14,-238.32"/>
<polygon fill="black" stroke="black" points="1781.69,-234.86 1771.4,-237.39 1781.02,-241.83 1781.69,-234.86"/>
</g>
<!-- timestamp&#45;&gt;system_addresses -->
<g id="edge31" class="edge">
<title>timestamp&#45;&gt;system_addresses</title>
<path fill="none" stroke="black" d="M1566.95,-503.85C1560.44,-467.14 1545.08,-380.66 1537.07,-335.53"/>
<polygon fill="black" stroke="black" points="1540.52,-334.96 1535.32,-325.72 1533.63,-336.18 1540.52,-334.96"/>
</g>
<!-- stake&#45;&gt;signer -->
<g id="edge34" class="edge">
<title>stake&#45;&gt;signer</title>
<path fill="none" stroke="black" d="M967.4,-658.38C941.05,-650.75 900.71,-636.06 873,-612 837.89,-581.51 818,-569.5 818,-523 818,-523 818,-523 818,-377 818,-337.17 825.43,-291.61 831,-263.07"/>
<polygon fill="black" stroke="black" points="834.4,-263.93 832.95,-253.43 827.54,-262.54 834.4,-263.93"/>
</g>
<!-- stake&#45;&gt;error -->
<g id="edge35" class="edge">
<title>stake&#45;&gt;error</title>
<path fill="none" stroke="black" d="M1022.99,-665.41C1105.39,-665.9 1347.49,-662.58 1540,-612 1692.8,-571.85 1769.91,-594.17 1865,-468 1913.58,-403.55 1896.61,-346.49 1841,-288 1823.35,-269.44 1797.74,-255.97 1776.99,-247.25"/>
<polygon fill="black" stroke="black" points="1778.34,-244.02 1767.75,-243.57 1775.75,-250.53 1778.34,-244.02"/>
</g>
<!-- stake&#45;&gt;system_addresses -->
<g id="edge36" class="edge">
<title>stake&#45;&gt;system_addresses</title>
<path fill="none" stroke="black" d="M1022.68,-663.12C1128.92,-655.41 1494,-621.7 1494,-523 1494,-523 1494,-523 1494,-449 1494,-408.18 1508.84,-362.93 1519.97,-334.72"/>
<polygon fill="black" stroke="black" points="1523.2,-336.08 1523.74,-325.49 1516.72,-333.43 1523.2,-336.08"/>
</g>
<!-- stake&#45;&gt;event -->
<g id="edge37" class="edge">
<title>stake&#45;&gt;event</title>
<path fill="none" stroke="black" d="M966.08,-660.68C918.25,-652.97 817.81,-635.43 735,-612 498.92,-545.2 225.13,-433.35 130.35,-393.58"/>
<polygon fill="black" stroke="black" points="131.92,-390.44 121.35,-389.79 129.21,-396.89 131.92,-390.44"/>
</g>
<!-- stake&#45;&gt;account -->
<g id="edge38" class="edge">
<title>stake&#45;&gt;account</title>
<path fill="none" stroke="black" d="M966.64,-660.16C928.87,-652.85 859.16,-637.14 804,-612 719.24,-573.37 630.6,-507.38 587.21,-473.11"/>
<polygon fill="black" stroke="black" points="589.6,-470.54 579.59,-467.05 585.24,-476.02 589.6,-470.54"/>
</g>
<!-- stake&#45;&gt;timestamp -->
<g id="edge41" class="edge">
<title>stake&#45;&gt;timestamp</title>
<path fill="none" stroke="black" d="M1022.94,-665.12C1118.84,-665.07 1424.92,-660.96 1508,-612 1531.65,-598.06 1548.47,-571.13 1558.57,-550.53"/>
<polygon fill="black" stroke="black" points="1561.72,-552.07 1562.73,-541.52 1555.36,-549.13 1561.72,-552.07"/>
</g>
<!-- stake&#45;&gt;vector -->
<g id="edge32" class="edge">
<title>stake&#45;&gt;vector</title>
<path fill="none" stroke="black" d="M965.42,-663.66C820.73,-656.8 174.28,-625.52 134,-612 66.22,-589.24 0,-594.49 0,-523 0,-523 0,-523 0,-161 0,-47.44 414.64,-24.53 552.23,-20.05"/>
<polygon fill="black" stroke="black" points="552.13,-23.56 562.02,-19.75 551.92,-16.56 552.13,-23.56"/>
</g>
<!-- stake&#45;&gt;option -->
<g id="edge33" class="edge">
<title>stake&#45;&gt;option</title>
<path fill="none" stroke="black" d="M965.13,-663.83C805.49,-657.01 38,-619.22 38,-523 38,-523 38,-523 38,-377 38,-146.64 419.28,-101.7 551.49,-93.04"/>
<polygon fill="black" stroke="black" points="551.49,-96.54 561.25,-92.44 551.06,-89.56 551.49,-96.54"/>
</g>
<!-- coin -->
<g id="node21" class="node">
<title>coin</title>
<ellipse fill="none" stroke="black" cx="1027" cy="-522" rx="27" ry="18"/>
<text text-anchor="middle" x="1027" y="-518.3" font-family="Times,serif" font-size="14.00">coin</text>
</g>
<!-- stake&#45;&gt;coin -->
<g id="edge39" class="edge">
<title>stake&#45;&gt;coin</title>
<path fill="none" stroke="black" d="M998.75,-647.87C1001.56,-637.51 1005.13,-624.03 1008,-612 1012.83,-591.77 1017.71,-568.82 1021.32,-551.29"/>
<polygon fill="black" stroke="black" points="1024.73,-552.1 1023.3,-541.6 1017.87,-550.7 1024.73,-552.1"/>
</g>
<!-- aptos_coin -->
<g id="node22" class="node">
<title>aptos_coin</title>
<ellipse fill="none" stroke="black" cx="1141" cy="-594" rx="48.99" ry="18"/>
<text text-anchor="middle" x="1141" y="-590.3" font-family="Times,serif" font-size="14.00">aptos_coin</text>
</g>
<!-- stake&#45;&gt;aptos_coin -->
<g id="edge40" class="edge">
<title>stake&#45;&gt;aptos_coin</title>
<path fill="none" stroke="black" d="M1016.33,-654.37C1038.97,-643.58 1074.49,-626.67 1101.83,-613.65"/>
<polygon fill="black" stroke="black" points="1102.98,-616.98 1110.5,-609.52 1099.97,-610.66 1102.98,-616.98"/>
</g>
<!-- staking_config -->
<g id="node23" class="node">
<title>staking_config</title>
<ellipse fill="none" stroke="black" cx="1365" cy="-378" rx="63.09" ry="18"/>
<text text-anchor="middle" x="1365" y="-374.3" font-family="Times,serif" font-size="14.00">staking_config</text>
</g>
<!-- stake&#45;&gt;staking_config -->
<g id="edge42" class="edge">
<title>stake&#45;&gt;staking_config</title>
<path fill="none" stroke="black" d="M1022.19,-661.58C1062.99,-655.8 1140.07,-641.68 1199,-612 1244.44,-589.11 1256.47,-579.93 1288,-540 1320.78,-498.49 1344.08,-440.75 1355.97,-406.89"/>
<polygon fill="black" stroke="black" points="1359.15,-408.4 1359.07,-397.81 1352.52,-406.14 1359.15,-408.4"/>
</g>
<!-- math64 -->
<g id="node24" class="node">
<title>math64</title>
<ellipse fill="none" stroke="black" cx="961" cy="-594" rx="37.89" ry="18"/>
<text text-anchor="middle" x="961" y="-590.3" font-family="Times,serif" font-size="14.00">math64</text>
</g>
<!-- stake&#45;&gt;math64 -->
<g id="edge43" class="edge">
<title>stake&#45;&gt;math64</title>
<path fill="none" stroke="black" d="M986.18,-648.41C982.49,-640.59 978,-631.06 973.84,-622.23"/>
<polygon fill="black" stroke="black" points="977.07,-620.88 969.64,-613.33 970.74,-623.86 977.07,-620.88"/>
</g>
<!-- bls12381 -->
<g id="node25" class="node">
<title>bls12381</title>
<ellipse fill="none" stroke="black" cx="965" cy="-306" rx="42.79" ry="18"/>
<text text-anchor="middle" x="965" y="-302.3" font-family="Times,serif" font-size="14.00">bls12381</text>
</g>
<!-- stake&#45;&gt;bls12381 -->
<g id="edge44" class="edge">
<title>stake&#45;&gt;bls12381</title>
<path fill="none" stroke="black" d="M971.21,-654.58C932.02,-634.9 856,-588.32 856,-523 856,-523 856,-523 856,-449 856,-397.66 901.39,-353.45 933.59,-328.55"/>
<polygon fill="black" stroke="black" points="935.55,-331.44 941.47,-322.65 931.36,-325.84 935.55,-331.44"/>
</g>
<!-- storage_gas&#45;&gt;error -->
<g id="edge45" class="edge">
<title>storage_gas&#45;&gt;error</title>
<path fill="none" stroke="black" d="M2181.51,-439.71C2205.25,-432.19 2232.66,-418.92 2247,-396 2292.54,-323.22 2152.52,-291.31 2144,-288 2018.13,-239.1 1855.19,-233.72 1781.4,-234.1"/>
<polygon fill="black" stroke="black" points="1781.4,-230.6 1771.44,-234.2 1781.47,-237.6 1781.4,-230.6"/>
</g>
<!-- storage_gas&#45;&gt;system_addresses -->
<g id="edge46" class="edge">
<title>storage_gas&#45;&gt;system_addresses</title>
<path fill="none" stroke="black" d="M2095.89,-439C2026.24,-422.46 1882.64,-388.43 1761,-360 1705.02,-346.91 1641.3,-332.18 1595.31,-321.57"/>
<polygon fill="black" stroke="black" points="1596.32,-318.21 1585.79,-319.38 1594.74,-325.04 1596.32,-318.21"/>
</g>
<!-- state_storage -->
<g id="node26" class="node">
<title>state_storage</title>
<ellipse fill="none" stroke="black" cx="2181" cy="-378" rx="56.59" ry="18"/>
<text text-anchor="middle" x="2181" y="-374.3" font-family="Times,serif" font-size="14.00">state_storage</text>
</g>
<!-- storage_gas&#45;&gt;state_storage -->
<g id="edge47" class="edge">
<title>storage_gas&#45;&gt;state_storage</title>
<path fill="none" stroke="black" d="M2148.41,-432.05C2153.32,-424.06 2159.3,-414.33 2164.78,-405.4"/>
<polygon fill="black" stroke="black" points="2167.64,-407.43 2169.89,-397.08 2161.68,-403.77 2167.64,-407.43"/>
</g>
<!-- option&#45;&gt;vector -->
<g id="edge48" class="edge">
<title>option&#45;&gt;vector</title>
<path fill="none" stroke="black" d="M596,-71.7C596,-64.41 596,-55.73 596,-47.54"/>
<polygon fill="black" stroke="black" points="599.5,-47.62 596,-37.62 592.5,-47.62 599.5,-47.62"/>
</g>
<!-- string -->
<g id="node27" class="node">
<title>string</title>
<ellipse fill="none" stroke="black" cx="1148" cy="-162" rx="30.59" ry="18"/>
<text text-anchor="middle" x="1148" y="-158.3" font-family="Times,serif" font-size="14.00">string</text>
</g>
<!-- type_info&#45;&gt;string -->
<g id="edge49" class="edge">
<title>type_info&#45;&gt;string</title>
<path fill="none" stroke="black" d="M709.34,-226.97C800.29,-213.71 1016.84,-182.13 1107.25,-168.94"/>
<polygon fill="black" stroke="black" points="1107.5,-172.44 1116.89,-167.54 1106.49,-165.52 1107.5,-172.44"/>
</g>
<!-- ed25519&#45;&gt;error -->
<g id="edge52" class="edge">
<title>ed25519&#45;&gt;error</title>
<path fill="none" stroke="black" d="M523.3,-301.99C571.85,-298.42 655.86,-292.39 728,-288 1107.61,-264.91 1567.54,-243.1 1702.82,-236.81"/>
<polygon fill="black" stroke="black" points="1702.83,-240.31 1712.65,-236.35 1702.5,-233.32 1702.83,-240.31"/>
</g>
<!-- ed25519&#45;&gt;bcs -->
<g id="edge54" class="edge">
<title>ed25519&#45;&gt;bcs</title>
<path fill="none" stroke="black" d="M449.94,-294.92C417.39,-284.79 366.39,-268.38 323,-252 320.5,-251.06 317.92,-250.05 315.34,-249.01"/>
<polygon fill="black" stroke="black" points="316.85,-245.85 306.27,-245.26 314.18,-252.32 316.85,-245.85"/>
</g>
<!-- ed25519&#45;&gt;option -->
<g id="edge50" class="edge">
<title>ed25519&#45;&gt;option</title>
<path fill="none" stroke="black" d="M475.67,-287.93C468.89,-269.5 461.21,-239.62 471,-216 490.02,-170.07 535.01,-132.22 565.5,-110.62"/>
<polygon fill="black" stroke="black" points="567.34,-113.6 573.59,-105.04 563.37,-107.83 567.34,-113.6"/>
</g>
<!-- ed25519&#45;&gt;type_info -->
<g id="edge51" class="edge">
<title>ed25519&#45;&gt;type_info</title>
<path fill="none" stroke="black" d="M513.14,-293.6C543.72,-282.03 591.32,-264.01 625.68,-251.01"/>
<polygon fill="black" stroke="black" points="626.8,-254.33 634.91,-247.52 624.32,-247.79 626.8,-254.33"/>
</g>
<!-- ed25519&#45;&gt;hash -->
<g id="edge53" class="edge">
<title>ed25519&#45;&gt;hash</title>
<path fill="none" stroke="black" d="M458.5,-291.17C438.49,-279.87 410.12,-263.86 388.79,-251.82"/>
<polygon fill="black" stroke="black" points="390.7,-248.87 380.27,-247.01 387.26,-254.97 390.7,-248.87"/>
</g>
<!-- multi_ed25519&#45;&gt;error -->
<g id="edge56" class="edge">
<title>multi_ed25519&#45;&gt;error</title>
<path fill="none" stroke="black" d="M479.07,-365.97C566.02,-346.86 753.07,-307.78 913,-288 1215.35,-250.61 1583.19,-238.84 1702.57,-235.87"/>
<polygon fill="black" stroke="black" points="1702.55,-239.37 1712.46,-235.63 1702.38,-232.37 1702.55,-239.37"/>
</g>
<!-- multi_ed25519&#45;&gt;bcs -->
<g id="edge58" class="edge">
<title>multi_ed25519&#45;&gt;bcs</title>
<path fill="none" stroke="black" d="M412.85,-360.43C386.38,-334.86 335.54,-285.75 305.94,-257.16"/>
<polygon fill="black" stroke="black" points="308.55,-254.81 298.92,-250.38 303.69,-259.85 308.55,-254.81"/>
</g>
<!-- multi_ed25519&#45;&gt;option -->
<g id="edge55" class="edge">
<title>multi_ed25519&#45;&gt;option</title>
<path fill="none" stroke="black" d="M428.85,-359.73C428.05,-341.65 427.89,-312.52 433,-288 447.03,-220.61 443.48,-194.74 490,-144 507.72,-124.67 534.08,-111.45 556.07,-103.05"/>
<polygon fill="black" stroke="black" points="557.13,-106.38 565.36,-99.71 554.77,-99.8 557.13,-106.38"/>
</g>
<!-- multi_ed25519&#45;&gt;hash -->
<g id="edge57" class="edge">
<title>multi_ed25519&#45;&gt;hash</title>
<path fill="none" stroke="black" d="M419.91,-360.01C413.9,-349.71 406.27,-336.23 400,-324 389.52,-303.53 378.67,-279.87 370.77,-262.09"/>
<polygon fill="black" stroke="black" points="374,-260.72 366.76,-252.99 367.59,-263.55 374,-260.72"/>
</g>
<!-- multi_ed25519&#45;&gt;ed25519 -->
<g id="edge59" class="edge">
<title>multi_ed25519&#45;&gt;ed25519</title>
<path fill="none" stroke="black" d="M442.83,-360.05C449.11,-351.77 456.79,-341.62 463.75,-332.42"/>
<polygon fill="black" stroke="black" points="466.49,-334.6 469.74,-324.51 460.91,-330.37 466.49,-334.6"/>
</g>
<!-- from_bcs&#45;&gt;string -->
<g id="edge60" class="edge">
<title>from_bcs&#45;&gt;string</title>
<path fill="none" stroke="black" d="M562.85,-224.99C578.94,-221.86 597.82,-218.45 615,-216 797.15,-189.98 1016.14,-172.52 1106.21,-165.93"/>
<polygon fill="black" stroke="black" points="1106.31,-169.43 1116.03,-165.22 1105.81,-162.45 1106.31,-169.43"/>
</g>
<!-- coin&#45;&gt;signer -->
<g id="edge64" class="edge">
<title>coin&#45;&gt;signer</title>
<path fill="none" stroke="black" d="M1016.3,-505.1C1009.53,-494.75 1000.8,-480.83 994,-468 969.39,-421.59 974.79,-403.93 946,-360 934.1,-341.85 927.38,-340.26 913,-324 893.97,-302.49 872.78,-277.6 857.62,-259.62"/>
<polygon fill="black" stroke="black" points="860.38,-257.46 851.26,-252.06 855.02,-261.96 860.38,-257.46"/>
</g>
<!-- coin&#45;&gt;error -->
<g id="edge65" class="edge">
<title>coin&#45;&gt;error</title>
<path fill="none" stroke="black" d="M1054.32,-520.25C1192.57,-516.33 1809.63,-497.22 1837,-468 1863.89,-439.29 1896.74,-418.99 1817,-288 1807,-271.58 1789.78,-258.87 1774.36,-250.01"/>
<polygon fill="black" stroke="black" points="1776.38,-247.13 1765.92,-245.47 1773.07,-253.29 1776.38,-247.13"/>
</g>
<!-- coin&#45;&gt;system_addresses -->
<g id="edge66" class="edge">
<title>coin&#45;&gt;system_addresses</title>
<path fill="none" stroke="black" d="M1049.22,-511.38C1071.6,-501.42 1106.91,-484.95 1136,-468 1209.18,-425.36 1215.34,-393.79 1293,-360 1344.86,-337.43 1407.39,-324.01 1455.48,-316.32"/>
<polygon fill="black" stroke="black" points="1455.91,-319.79 1465.26,-314.81 1454.84,-312.87 1455.91,-319.79"/>
</g>
<!-- coin&#45;&gt;event -->
<g id="edge67" class="edge">
<title>coin&#45;&gt;event</title>
<path fill="none" stroke="black" d="M999.81,-520.29C906.81,-517.52 602.24,-505.72 513,-468 490.04,-458.3 492.92,-441.79 470,-432 336.35,-374.92 286.76,-428.02 145,-396 140.58,-395 136.01,-393.74 131.51,-392.36"/>
<polygon fill="black" stroke="black" points="132.64,-389.04 122.05,-389.22 130.44,-395.69 132.64,-389.04"/>
</g>
<!-- coin&#45;&gt;account -->
<g id="edge68" class="edge">
<title>coin&#45;&gt;account</title>
<path fill="none" stroke="black" d="M1000.55,-517.04C924.53,-505.64 704.64,-472.68 607.31,-458.09"/>
<polygon fill="black" stroke="black" points="607.97,-454.65 597.57,-456.63 606.94,-461.57 607.97,-454.65"/>
</g>
<!-- coin&#45;&gt;option -->
<g id="edge61" class="edge">
<title>coin&#45;&gt;option</title>
<path fill="none" stroke="black" d="M1032.55,-503.98C1048.07,-456.36 1090.82,-325.16 1091,-324 1093.5,-308.2 1099.48,-301.57 1091,-288 992.49,-130.29 743.43,-98.79 641.03,-92.53"/>
<polygon fill="black" stroke="black" points="641.26,-89.04 631.08,-91.99 640.88,-96.03 641.26,-89.04"/>
</g>
<!-- coin&#45;&gt;type_info -->
<g id="edge63" class="edge">
<title>coin&#45;&gt;type_info</title>
<path fill="none" stroke="black" d="M1010.17,-507.59C953.25,-462.25 767.59,-314.34 696.27,-257.52"/>
<polygon fill="black" stroke="black" points="698.56,-254.87 688.56,-251.38 694.2,-260.34 698.56,-254.87"/>
</g>
<!-- coin&#45;&gt;string -->
<g id="edge62" class="edge">
<title>coin&#45;&gt;string</title>
<path fill="none" stroke="black" d="M1037.12,-504.86C1057.16,-472.12 1101.84,-394.96 1124,-324 1138.05,-279.03 1143.98,-224.36 1146.4,-191.69"/>
<polygon fill="black" stroke="black" points="1149.89,-192.03 1147.07,-181.82 1142.9,-191.56 1149.89,-192.03"/>
</g>
<!-- optional_aggregator -->
<g id="node28" class="node">
<title>optional_aggregator</title>
<ellipse fill="none" stroke="black" cx="1747" cy="-450" rx="81.49" ry="18"/>
<text text-anchor="middle" x="1747" y="-446.3" font-family="Times,serif" font-size="14.00">optional_aggregator</text>
</g>
<!-- coin&#45;&gt;optional_aggregator -->
<g id="edge69" class="edge">
<title>coin&#45;&gt;optional_aggregator</title>
<path fill="none" stroke="black" d="M1053.91,-518.38C1152.95,-508.76 1499.81,-475.03 1662.09,-459.26"/>
<polygon fill="black" stroke="black" points="1662.32,-462.75 1671.94,-458.3 1661.65,-455.78 1662.32,-462.75"/>
</g>
<!-- aptos_coin&#45;&gt;signer -->
<g id="edge73" class="edge">
<title>aptos_coin&#45;&gt;signer</title>
<path fill="none" stroke="black" d="M1096.2,-586.22C1063.81,-579.33 1020.69,-565.83 991,-540 902.48,-462.98 858.81,-322.88 843.53,-263.17"/>
<polygon fill="black" stroke="black" points="847.02,-262.68 841.21,-253.81 840.22,-264.36 847.02,-262.68"/>
</g>
<!-- aptos_coin&#45;&gt;error -->
<g id="edge74" class="edge">
<title>aptos_coin&#45;&gt;error</title>
<path fill="none" stroke="black" d="M1166.57,-578.46C1181.37,-569.02 1199.49,-555.6 1212,-540 1266.9,-471.58 1236.15,-426.82 1293,-360 1330.62,-315.78 1347.85,-308.95 1402,-288 1505.59,-247.92 1638.05,-238.1 1702.81,-235.73"/>
<polygon fill="black" stroke="black" points="1702.69,-239.24 1712.58,-235.42 1702.47,-232.24 1702.69,-239.24"/>
</g>
<!-- aptos_coin&#45;&gt;system_addresses -->
<g id="edge75" class="edge">
<title>aptos_coin&#45;&gt;system_addresses</title>
<path fill="none" stroke="black" d="M1181.4,-583.34C1212.13,-574.86 1254.67,-560.63 1288,-540 1313.11,-524.46 1450.05,-388.84 1507.07,-331.95"/>
<polygon fill="black" stroke="black" points="1509.52,-334.45 1514.12,-324.9 1504.57,-329.49 1509.52,-334.45"/>
</g>
<!-- aptos_coin&#45;&gt;vector -->
<g id="edge70" class="edge">
<title>aptos_coin&#45;&gt;vector</title>
<path fill="none" stroke="black" d="M1151.11,-576.18C1180.19,-526.14 1262,-373.1 1262,-235 1262,-235 1262,-235 1262,-161 1262,-33.38 788.29,-20.02 639.9,-18.97"/>
<polygon fill="black" stroke="black" points="640.11,-15.47 630.09,-18.91 640.07,-22.47 640.11,-15.47"/>
</g>
<!-- aptos_coin&#45;&gt;option -->
<g id="edge71" class="edge">
<title>aptos_coin&#45;&gt;option</title>
<path fill="none" stroke="black" d="M1096.42,-586.03C1056.99,-578.59 998.77,-564.43 953,-540 778.89,-447.08 708.11,-426.02 615,-252 592.53,-210.01 591.47,-153.18 593.32,-119.48"/>
<polygon fill="black" stroke="black" points="596.8,-119.91 594,-109.69 589.82,-119.43 596.8,-119.91"/>
</g>
<!-- aptos_coin&#45;&gt;coin -->
<g id="edge76" class="edge">
<title>aptos_coin&#45;&gt;coin</title>
<path fill="none" stroke="black" d="M1116.54,-577.98C1098.88,-567.14 1074.94,-552.44 1056.26,-540.97"/>
<polygon fill="black" stroke="black" points="1058.14,-538.02 1047.79,-535.77 1054.48,-543.98 1058.14,-538.02"/>
</g>
<!-- aptos_coin&#45;&gt;string -->
<g id="edge72" class="edge">
<title>aptos_coin&#45;&gt;string</title>
<path fill="none" stroke="black" d="M1142.03,-575.62C1144.96,-525.46 1153.27,-376.12 1156,-252 1156.35,-236 1157.2,-231.96 1156,-216 1155.4,-207.99 1154.29,-199.35 1153.09,-191.43"/>
<polygon fill="black" stroke="black" points="1156.55,-190.91 1151.49,-181.61 1149.65,-192.04 1156.55,-190.91"/>
</g>
<!-- staking_config&#45;&gt;error -->
<g id="edge77" class="edge">
<title>staking_config&#45;&gt;error</title>
<path fill="none" stroke="black" d="M1376.25,-359.81C1390.71,-339.21 1417.83,-305.32 1450,-288 1532.12,-243.78 1644.11,-235.6 1702.67,-234.6"/>
<polygon fill="black" stroke="black" points="1702.5,-238.1 1712.47,-234.5 1702.43,-231.1 1702.5,-238.1"/>
</g>
<!-- staking_config&#45;&gt;system_addresses -->
<g id="edge78" class="edge">
<title>staking_config&#45;&gt;system_addresses</title>
<path fill="none" stroke="black" d="M1399.6,-362.5C1424.48,-352.07 1458.31,-337.89 1485.54,-326.47"/>
<polygon fill="black" stroke="black" points="1486.73,-329.77 1494.6,-322.68 1484.03,-323.31 1486.73,-329.77"/>
</g>
<!-- bls12381&#45;&gt;error -->
<g id="edge80" class="edge">
<title>bls12381&#45;&gt;error</title>
<path fill="none" stroke="black" d="M996.3,-293.41C1003.05,-291.3 1010.2,-289.34 1017,-288 1274.5,-237.28 1592.06,-233.99 1702.18,-234.54"/>
<polygon fill="black" stroke="black" points="1702.15,-238.04 1712.17,-234.61 1702.19,-231.04 1702.15,-238.04"/>
</g>
<!-- bls12381&#45;&gt;option -->
<g id="edge79" class="edge">
<title>bls12381&#45;&gt;option</title>
<path fill="none" stroke="black" d="M952.08,-288.37C936.3,-268.94 907.99,-236.83 878,-216 799.03,-161.16 692.13,-121.76 635.31,-103.12"/>
<polygon fill="black" stroke="black" points="636.67,-99.88 626.08,-100.13 634.52,-106.54 636.67,-99.88"/>
</g>
<!-- state_storage&#45;&gt;error -->
<g id="edge81" class="edge">
<title>state_storage&#45;&gt;error</title>
<path fill="none" stroke="black" d="M2172.61,-360C2161.41,-339.27 2139.5,-304.9 2110,-288 2054.55,-256.23 1864.71,-241.9 1781.56,-237.04"/>
<polygon fill="black" stroke="black" points="1781.78,-233.54 1771.6,-236.47 1781.39,-240.53 1781.78,-233.54"/>
</g>
<!-- state_storage&#45;&gt;system_addresses -->
<g id="edge82" class="edge">
<title>state_storage&#45;&gt;system_addresses</title>
<path fill="none" stroke="black" d="M2132.43,-368.33C2114.99,-365.41 2095.15,-362.31 2077,-360 1903.45,-337.87 1859.06,-341.66 1685,-324 1660.21,-321.48 1633.18,-318.55 1608.84,-315.83"/>
<polygon fill="black" stroke="black" points="1609.32,-312.36 1598.99,-314.72 1608.54,-319.32 1609.32,-312.36"/>
</g>
<!-- string&#45;&gt;vector -->
<g id="edge83" class="edge">
<title>string&#45;&gt;vector</title>
<path fill="none" stroke="black" d="M1123.43,-151.11C1116.85,-148.63 1109.7,-146.08 1103,-144 932.71,-91.05 724.77,-45.67 637.59,-27.49"/>
<polygon fill="black" stroke="black" points="638.33,-24.07 627.83,-25.46 636.91,-30.92 638.33,-24.07"/>
</g>
<!-- string&#45;&gt;option -->
<g id="edge84" class="edge">
<title>string&#45;&gt;option</title>
<path fill="none" stroke="black" d="M1124.07,-150.66C1117.36,-148.12 1109.99,-145.66 1103,-144 935.49,-104.3 729.83,-94.33 640.7,-91.83"/>
<polygon fill="black" stroke="black" points="641.01,-88.34 630.93,-91.58 640.83,-95.34 641.01,-88.34"/>
</g>
<!-- optional_aggregator&#45;&gt;error -->
<g id="edge86" class="edge">
<title>optional_aggregator&#45;&gt;error</title>
<path fill="none" stroke="black" d="M1760.38,-432.15C1782.26,-402.39 1821.17,-338.89 1799,-288 1793.1,-274.45 1781.83,-262.8 1770.87,-253.91"/>
<polygon fill="black" stroke="black" points="1773.15,-251.24 1763.06,-248.01 1768.93,-256.83 1773.15,-251.24"/>
</g>
<!-- optional_aggregator&#45;&gt;option -->
<g id="edge85" class="edge">
<title>optional_aggregator&#45;&gt;option</title>
<path fill="none" stroke="black" d="M1827.21,-446.27C1961.4,-440.86 2219.49,-426.58 2247,-396 2257.7,-384.1 2254.39,-374.19 2247,-360 2025.03,65.99 1665.7,-194.47 1188,-144 983.63,-122.41 738.96,-102.34 640.38,-94.49"/>
<polygon fill="black" stroke="black" points="640.85,-91.01 630.6,-93.71 640.29,-97.99 640.85,-91.01"/>
</g>
<!-- aggregator -->
<g id="node29" class="node">
<title>aggregator</title>
<ellipse fill="none" stroke="black" cx="1742" cy="-306" rx="48.19" ry="18"/>
<text text-anchor="middle" x="1742" y="-302.3" font-family="Times,serif" font-size="14.00">aggregator</text>
</g>
<!-- optional_aggregator&#45;&gt;aggregator -->
<g id="edge87" class="edge">
<title>optional_aggregator&#45;&gt;aggregator</title>
<path fill="none" stroke="black" d="M1753.13,-431.58C1758.66,-413.62 1765.31,-384.81 1761,-360 1759.54,-351.62 1756.88,-342.82 1754,-334.84"/>
<polygon fill="black" stroke="black" points="1757.32,-333.72 1750.44,-325.67 1750.8,-336.25 1757.32,-333.72"/>
</g>
<!-- aggregator_factory -->
<g id="node30" class="node">
<title>aggregator_factory</title>
<ellipse fill="none" stroke="black" cx="1675" cy="-378" rx="77.19" ry="18"/>
<text text-anchor="middle" x="1675" y="-374.3" font-family="Times,serif" font-size="14.00">aggregator_factory</text>
</g>
<!-- optional_aggregator&#45;&gt;aggregator_factory -->
<g id="edge88" class="edge">
<title>optional_aggregator&#45;&gt;aggregator_factory</title>
<path fill="none" stroke="black" d="M1729.57,-432.05C1720.82,-423.54 1710.04,-413.07 1700.39,-403.68"/>
<polygon fill="black" stroke="black" points="1702.96,-401.31 1693.35,-396.84 1698.08,-406.32 1702.96,-401.31"/>
</g>
<!-- aggregator_factory&#45;&gt;error -->
<g id="edge90" class="edge">
<title>aggregator_factory&#45;&gt;error</title>
<path fill="none" stroke="black" d="M1673.5,-359.6C1672.65,-340.89 1673.52,-310.77 1685,-288 1691.65,-274.8 1703.02,-263.21 1713.87,-254.25"/>
<polygon fill="black" stroke="black" points="1715.78,-257.2 1721.54,-248.31 1711.5,-251.67 1715.78,-257.2"/>
</g>
<!-- aggregator_factory&#45;&gt;system_addresses -->
<g id="edge91" class="edge">
<title>aggregator_factory&#45;&gt;system_addresses</title>
<path fill="none" stroke="black" d="M1642.91,-361.29C1622.58,-351.34 1596.06,-338.36 1574.06,-327.59"/>
<polygon fill="black" stroke="black" points="1575.86,-324.58 1565.34,-323.32 1572.79,-330.86 1575.86,-324.58"/>
</g>
<!-- aggregator_factory&#45;&gt;table -->
<g id="edge89" class="edge">
<title>aggregator_factory&#45;&gt;table</title>
<path fill="none" stroke="black" d="M1606.77,-369.31C1476.44,-354.62 1195.93,-323 1092.95,-311.39"/>
<polygon fill="black" stroke="black" points="1093.4,-307.92 1083.07,-310.28 1092.62,-314.88 1093.4,-307.92"/>
</g>
<!-- aggregator_factory&#45;&gt;aggregator -->
<g id="edge92" class="edge">
<title>aggregator_factory&#45;&gt;aggregator</title>
<path fill="none" stroke="black" d="M1691.22,-360.05C1699.4,-351.5 1709.48,-340.97 1718.5,-331.56"/>
<polygon fill="black" stroke="black" points="1720.96,-334.04 1725.35,-324.4 1715.9,-329.2 1720.96,-334.04"/>
</g>
</g>
</svg>
