<?xml version="1.0" encoding="UTF-8" standalone="no"?>
<!DOCTYPE svg PUBLIC "-//W3C//DTD SVG 1.1//EN"
 "http://www.w3.org/Graphics/SVG/1.1/DTD/svg11.dtd">
<!-- Generated by graphviz version 7.0.0 (20221023.0053)
 -->
<!-- Title: G Pages: 1 -->
<svg width="1610pt" height="459pt"
 viewBox="0.00 0.00 1609.79 459.00" xmlns="http://www.w3.org/2000/svg" xmlns:xlink="http://www.w3.org/1999/xlink">
<g id="graph0" class="graph" transform="scale(1 1) rotate(0) translate(4 455)">
<title>G</title>
<polygon fill="white" stroke="none" points="-4,4 -4,-455 1605.79,-455 1605.79,4 -4,4"/>
<g id="clust1" class="cluster">
<title>cluster_signer</title>
<polygon fill="none" stroke="black" points="8,-174 8,-332 158,-332 158,-174 8,-174"/>
<text text-anchor="middle" x="83" y="-316.8" font-family="Times,serif" font-size="14.00">signer</text>
</g>
<g id="clust2" class="cluster">
<title>cluster_error</title>
<polygon fill="none" stroke="black" points="707,-174 707,-332 981,-332 981,-174 707,-174"/>
<text text-anchor="middle" x="844" y="-316.8" font-family="Times,serif" font-size="14.00">error</text>
</g>
<g id="clust3" class="cluster">
<title>cluster_account</title>
<polygon fill="none" stroke="black" points="166,-257 166,-407 699,-407 699,-257 166,-257"/>
<text text-anchor="middle" x="432.5" y="-391.8" font-family="Times,serif" font-size="14.00">account</text>
</g>
<g id="clust4" class="cluster">
<title>cluster_simple_map</title>
<polygon fill="none" stroke="black" points="989,-257 989,-407 1308,-407 1308,-257 989,-257"/>
<text text-anchor="middle" x="1148.5" y="-391.8" font-family="Times,serif" font-size="14.00">simple_map</text>
</g>
<g id="clust5" class="cluster">
<title>cluster_option</title>
<polygon fill="none" stroke="black" points="1353,-91 1353,-249 1589,-249 1589,-91 1353,-91"/>
<text text-anchor="middle" x="1471" y="-233.8" font-family="Times,serif" font-size="14.00">option</text>
</g>
<g id="clust6" class="cluster">
<title>cluster_vector</title>
<polygon fill="none" stroke="black" points="1371,-8 1371,-83 1578,-83 1578,-8 1371,-8"/>
<text text-anchor="middle" x="1474.5" y="-67.8" font-family="Times,serif" font-size="14.00">vector</text>
</g>
<g id="clust7" class="cluster">
<title>cluster_comparator</title>
<polygon fill="none" stroke="black" points="989,-91 989,-249 1241,-249 1241,-91 989,-91"/>
<text text-anchor="middle" x="1115" y="-233.8" font-family="Times,serif" font-size="14.00">comparator</text>
</g>
<g id="clust8" class="cluster">
<title>cluster_bcs</title>
<polygon fill="none" stroke="black" points="1249,-91 1249,-166 1345,-166 1345,-91 1249,-91"/>
<text text-anchor="middle" x="1297" y="-150.8" font-family="Times,serif" font-size="14.00">bcs</text>
</g>
<!-- retrieve_resource_account_cap -->
<g id="node1" class="node">
<title>retrieve_resource_account_cap</title>
<ellipse fill="none" stroke="black" cx="762" cy="-433" rx="120.48" ry="18"/>
<text text-anchor="middle" x="762" y="-429.3" font-family="Times,serif" font-size="14.00">retrieve_resource_account_cap</text>
</g>
<!-- signer::address_of -->
<g id="node2" class="node">
<title>signer::address_of</title>
<ellipse fill="none" stroke="black" cx="101" cy="-283" rx="48.99" ry="18"/>
<text text-anchor="middle" x="101" y="-279.3" font-family="Times,serif" font-size="14.00">address_of</text>
</g>
<!-- retrieve_resource_account_cap&#45;&gt;signer::address_of -->
<g id="edge1" class="edge">
<title>retrieve_resource_account_cap&#45;&gt;signer::address_of</title>
<path fill="none" stroke="black" d="M642.77,-430.13C473.53,-427.03 181.78,-419.85 162,-407 129.32,-385.78 113.5,-341.5 106.34,-312.27"/>
<polygon fill="black" stroke="black" points="109.78,-311.61 104.18,-302.62 102.95,-313.14 109.78,-311.61"/>
</g>
<!-- error::not_found -->
<g id="node3" class="node">
<title>error::not_found</title>
<ellipse fill="none" stroke="black" cx="762" cy="-283" rx="46.59" ry="18"/>
<text text-anchor="middle" x="762" y="-279.3" font-family="Times,serif" font-size="14.00">not_found</text>
</g>
<!-- retrieve_resource_account_cap&#45;&gt;error::not_found -->
<g id="edge2" class="edge">
<title>retrieve_resource_account_cap&#45;&gt;error::not_found</title>
<path fill="none" stroke="black" d="M762,-414.73C762,-389.67 762,-342.9 762,-312.63"/>
<polygon fill="black" stroke="black" points="765.5,-312.67 762,-302.67 758.5,-312.67 765.5,-312.67"/>
</g>
<!-- account::create_signer_with_capability -->
<g id="node4" class="node">
<title>account::create_signer_with_capability</title>
<ellipse fill="none" stroke="black" cx="290" cy="-358" rx="116.18" ry="18"/>
<text text-anchor="middle" x="290" y="-354.3" font-family="Times,serif" font-size="14.00">create_signer_with_capability</text>
</g>
<!-- retrieve_resource_account_cap&#45;&gt;account::create_signer_with_capability -->
<g id="edge3" class="edge">
<title>retrieve_resource_account_cap&#45;&gt;account::create_signer_with_capability</title>
<path fill="none" stroke="black" d="M641.46,-431.88C574.39,-429.68 489.79,-423.35 416,-407 388.55,-400.92 359.12,-389.98 335.62,-380.08"/>
<polygon fill="black" stroke="black" points="337.22,-376.96 326.65,-376.22 334.45,-383.39 337.22,-376.96"/>
</g>
<!-- account::rotate_authentication_key_internal -->
<g id="node5" class="node">
<title>account::rotate_authentication_key_internal</title>
<ellipse fill="none" stroke="black" cx="558" cy="-358" rx="133.48" ry="18"/>
<text text-anchor="middle" x="558" y="-354.3" font-family="Times,serif" font-size="14.00">rotate_authentication_key_internal</text>
</g>
<!-- retrieve_resource_account_cap&#45;&gt;account::rotate_authentication_key_internal -->
<g id="edge4" class="edge">
<title>retrieve_resource_account_cap&#45;&gt;account::rotate_authentication_key_internal</title>
<path fill="none" stroke="black" d="M716.98,-415.89C686.72,-405.06 646.62,-390.71 614.26,-379.13"/>
<polygon fill="black" stroke="black" points="615.63,-375.91 605.04,-375.83 613.27,-382.5 615.63,-375.91"/>
</g>
<!-- simple_map::destroy_empty -->
<g id="node6" class="node">
<title>simple_map::destroy_empty</title>
<ellipse fill="none" stroke="black" cx="1061" cy="-358" rx="63.89" ry="18"/>
<text text-anchor="middle" x="1061" y="-354.3" font-family="Times,serif" font-size="14.00">destroy_empty</text>
</g>
<!-- retrieve_resource_account_cap&#45;&gt;simple_map::destroy_empty -->
<g id="edge5" class="edge">
<title>retrieve_resource_account_cap&#45;&gt;simple_map::destroy_empty</title>
<path fill="none" stroke="black" d="M823.23,-417.05C875.91,-404.19 951.39,-385.76 1003.09,-373.14"/>
<polygon fill="black" stroke="black" points="1003.71,-376.59 1012.6,-370.82 1002.05,-369.79 1003.71,-376.59"/>
</g>
<!-- simple_map::length -->
<g id="node7" class="node">
<title>simple_map::length</title>
<ellipse fill="none" stroke="black" cx="1268" cy="-358" rx="32.49" ry="18"/>
<text text-anchor="middle" x="1268" y="-354.3" font-family="Times,serif" font-size="14.00">length</text>
</g>
<!-- retrieve_resource_account_cap&#45;&gt;simple_map::length -->
<g id="edge6" class="edge">
<title>retrieve_resource_account_cap&#45;&gt;simple_map::length</title>
<path fill="none" stroke="black" d="M881.7,-430.43C1009.2,-428 1196.83,-421.9 1227,-407 1237.1,-402.01 1245.7,-393.29 1252.38,-384.63"/>
<polygon fill="black" stroke="black" points="1255.08,-386.88 1257.98,-376.69 1249.36,-382.85 1255.08,-386.88"/>
</g>
<!-- simple_map::remove -->
<g id="node8" class="node">
<title>simple_map::remove</title>
<ellipse fill="none" stroke="black" cx="1180" cy="-358" rx="37.89" ry="18"/>
<text text-anchor="middle" x="1180" y="-354.3" font-family="Times,serif" font-size="14.00">remove</text>
</g>
<!-- retrieve_resource_account_cap&#45;&gt;simple_map::remove -->
<g id="edge7" class="edge">
<title>retrieve_resource_account_cap&#45;&gt;simple_map::remove</title>
<path fill="none" stroke="black" d="M878.92,-428.37C979.27,-424.56 1111.24,-417.63 1134,-407 1144.87,-401.93 1154.49,-393.06 1162.09,-384.32"/>
<polygon fill="black" stroke="black" points="1164.76,-386.59 1168.3,-376.6 1159.3,-382.2 1164.76,-386.59"/>
</g>
<!-- signer::borrow_address -->
<g id="node9" class="node">
<title>signer::borrow_address</title>
<ellipse fill="none" stroke="black" cx="83" cy="-200" rx="66.89" ry="18"/>
<text text-anchor="middle" x="83" y="-196.3" font-family="Times,serif" font-size="14.00">borrow_address</text>
</g>
<!-- signer::address_of&#45;&gt;signer::borrow_address -->
<g id="edge8" class="edge">
<title>signer::address_of&#45;&gt;signer::borrow_address</title>
<path fill="none" stroke="black" d="M97.18,-264.82C94.91,-254.58 91.96,-241.33 89.34,-229.55"/>
<polygon fill="black" stroke="black" points="92.79,-228.91 87.2,-219.91 85.95,-230.43 92.79,-228.91"/>
</g>
<!-- error::canonical -->
<g id="node10" class="node">
<title>error::canonical</title>
<ellipse fill="none" stroke="black" cx="831" cy="-200" rx="44.39" ry="18"/>
<text text-anchor="middle" x="831" y="-196.3" font-family="Times,serif" font-size="14.00">canonical</text>
</g>
<!-- error::not_found&#45;&gt;error::canonical -->
<g id="edge9" class="edge">
<title>error::not_found&#45;&gt;error::canonical</title>
<path fill="none" stroke="black" d="M775.96,-265.61C785.69,-254.19 798.84,-238.75 809.85,-225.83"/>
<polygon fill="black" stroke="black" points="812.26,-228.4 816.08,-218.52 806.93,-223.86 812.26,-228.4"/>
</g>
<!-- account::create_signer -->
<g id="node11" class="node">
<title>account::create_signer</title>
<ellipse fill="none" stroke="black" cx="290" cy="-283" rx="57.69" ry="18"/>
<text text-anchor="middle" x="290" y="-279.3" font-family="Times,serif" font-size="14.00">create_signer</text>
</g>
<!-- account::create_signer_with_capability&#45;&gt;account::create_signer -->
<g id="edge10" class="edge">
<title>account::create_signer_with_capability&#45;&gt;account::create_signer</title>
<path fill="none" stroke="black" d="M290,-339.7C290,-331.67 290,-321.9 290,-312.8"/>
<polygon fill="black" stroke="black" points="293.5,-312.94 290,-302.94 286.5,-312.94 293.5,-312.94"/>
</g>
<!-- account::rotate_authentication_key_internal&#45;&gt;signer::address_of -->
<g id="edge11" class="edge">
<title>account::rotate_authentication_key_internal&#45;&gt;signer::address_of</title>
<path fill="none" stroke="black" d="M465.04,-344.76C448.4,-342.91 431.21,-341.22 415,-340 386.95,-337.89 188.43,-341.62 162,-332 147.95,-326.89 134.62,-317.19 124.03,-307.84"/>
<polygon fill="black" stroke="black" points="126.63,-305.48 116.93,-301.22 121.85,-310.6 126.63,-305.48"/>
</g>
<!-- account::rotate_authentication_key_internal&#45;&gt;error::not_found -->
<g id="edge13" class="edge">
<title>account::rotate_authentication_key_internal&#45;&gt;error::not_found</title>
<path fill="none" stroke="black" d="M660.22,-346.19C674.95,-342.69 689.63,-338.08 703,-332 715.83,-326.17 728.22,-316.85 738.3,-307.97"/>
<polygon fill="black" stroke="black" points="740.44,-310.77 745.41,-301.41 735.69,-305.62 740.44,-310.77"/>
</g>
<!-- error::invalid_argument -->
<g id="node12" class="node">
<title>error::invalid_argument</title>
<ellipse fill="none" stroke="black" cx="900" cy="-283" rx="73.39" ry="18"/>
<text text-anchor="middle" x="900" y="-279.3" font-family="Times,serif" font-size="14.00">invalid_argument</text>
</g>
<!-- account::rotate_authentication_key_internal&#45;&gt;error::invalid_argument -->
<g id="edge12" class="edge">
<title>account::rotate_authentication_key_internal&#45;&gt;error::invalid_argument</title>
<path fill="none" stroke="black" d="M679.63,-350.32C734.34,-346.29 792.33,-340.3 818,-332 835.73,-326.27 853.77,-316.25 868.4,-306.85"/>
<polygon fill="black" stroke="black" points="870.3,-309.79 876.68,-301.33 866.42,-303.96 870.3,-309.79"/>
</g>
<!-- account::exists_at -->
<g id="node13" class="node">
<title>account::exists_at</title>
<ellipse fill="none" stroke="black" cx="558" cy="-283" rx="41.69" ry="18"/>
<text text-anchor="middle" x="558" y="-279.3" font-family="Times,serif" font-size="14.00">exists_at</text>
</g>
<!-- account::rotate_authentication_key_internal&#45;&gt;account::exists_at -->
<g id="edge14" class="edge">
<title>account::rotate_authentication_key_internal&#45;&gt;account::exists_at</title>
<path fill="none" stroke="black" d="M558,-339.7C558,-331.67 558,-321.9 558,-312.8"/>
<polygon fill="black" stroke="black" points="561.5,-312.94 558,-302.94 554.5,-312.94 561.5,-312.94"/>
</g>
<!-- simple_map::remove&#45;&gt;error::invalid_argument -->
<g id="edge17" class="edge">
<title>simple_map::remove&#45;&gt;error::invalid_argument</title>
<path fill="none" stroke="black" d="M1152.66,-345.37C1146.62,-343.23 1140.17,-341.28 1134,-340 1069.06,-326.58 1048.66,-350.57 985,-332 966.32,-326.55 947.29,-316.33 931.99,-306.72"/>
<polygon fill="black" stroke="black" points="934.07,-303.89 923.78,-301.37 930.25,-309.76 934.07,-303.89"/>
</g>
<!-- option::extract -->
<g id="node14" class="node">
<title>option::extract</title>
<ellipse fill="none" stroke="black" cx="1547" cy="-200" rx="34.39" ry="18"/>
<text text-anchor="middle" x="1547" y="-196.3" font-family="Times,serif" font-size="14.00">extract</text>
</g>
<!-- simple_map::remove&#45;&gt;option::extract -->
<g id="edge15" class="edge">
<title>simple_map::remove&#45;&gt;option::extract</title>
<path fill="none" stroke="black" d="M1209.29,-346.26C1215.14,-344.15 1221.26,-341.98 1227,-340 1349.5,-297.73 1395.53,-319.89 1504,-249 1513.25,-242.95 1521.77,-234.42 1528.74,-226.23"/>
<polygon fill="black" stroke="black" points="1531.45,-228.44 1534.96,-218.45 1525.98,-224.07 1531.45,-228.44"/>
</g>
<!-- option::is_some -->
<g id="node15" class="node">
<title>option::is_some</title>
<ellipse fill="none" stroke="black" cx="1541" cy="-117" rx="40.09" ry="18"/>
<text text-anchor="middle" x="1541" y="-113.3" font-family="Times,serif" font-size="14.00">is_some</text>
</g>
<!-- simple_map::remove&#45;&gt;option::is_some -->
<g id="edge16" class="edge">
<title>simple_map::remove&#45;&gt;option::is_some</title>
<path fill="none" stroke="black" d="M1207.94,-345.36C1214.12,-343.22 1220.71,-341.27 1227,-340 1296.8,-325.96 1317.5,-347.47 1387,-332 1482.14,-310.82 1535.66,-329.92 1590,-249 1608.58,-221.33 1601.72,-205.2 1590,-174 1585.37,-161.69 1576.67,-150.31 1567.88,-141.07"/>
<polygon fill="black" stroke="black" points="1570.55,-138.79 1560.96,-134.28 1565.64,-143.78 1570.55,-138.79"/>
</g>
<!-- simple_map::find -->
<g id="node16" class="node">
<title>simple_map::find</title>
<ellipse fill="none" stroke="black" cx="1191" cy="-283" rx="27" ry="18"/>
<text text-anchor="middle" x="1191" y="-279.3" font-family="Times,serif" font-size="14.00">find</text>
</g>
<!-- simple_map::remove&#45;&gt;simple_map::find -->
<g id="edge18" class="edge">
<title>simple_map::remove&#45;&gt;simple_map::find</title>
<path fill="none" stroke="black" d="M1182.61,-339.7C1183.84,-331.52 1185.34,-321.54 1186.74,-312.29"/>
<polygon fill="black" stroke="black" points="1190.16,-313.08 1188.19,-302.67 1183.24,-312.04 1190.16,-313.08"/>
</g>
<!-- error::invalid_argument&#45;&gt;error::canonical -->
<g id="edge19" class="edge">
<title>error::invalid_argument&#45;&gt;error::canonical</title>
<path fill="none" stroke="black" d="M885.7,-265.22C876.11,-253.96 863.3,-238.92 852.49,-226.22"/>
<polygon fill="black" stroke="black" points="855.17,-223.98 846.02,-218.64 849.84,-228.52 855.17,-223.98"/>
</g>
<!-- option::extract&#45;&gt;option::is_some -->
<g id="edge20" class="edge">
<title>option::extract&#45;&gt;option::is_some</title>
<path fill="none" stroke="black" d="M1545.73,-181.82C1544.97,-171.58 1543.99,-158.33 1543.11,-146.55"/>
<polygon fill="black" stroke="black" points="1546.63,-146.66 1542.4,-136.94 1539.65,-147.17 1546.63,-146.66"/>
</g>
<!-- vector::is_empty -->
<g id="node17" class="node">
<title>vector::is_empty</title>
<ellipse fill="none" stroke="black" cx="1526" cy="-34" rx="43.59" ry="18"/>
<text text-anchor="middle" x="1526" y="-30.3" font-family="Times,serif" font-size="14.00">is_empty</text>
</g>
<!-- option::is_some&#45;&gt;vector::is_empty -->
<g id="edge21" class="edge">
<title>option::is_some&#45;&gt;vector::is_empty</title>
<path fill="none" stroke="black" d="M1537.82,-98.82C1535.92,-88.58 1533.47,-75.33 1531.29,-63.55"/>
<polygon fill="black" stroke="black" points="1534.77,-63.12 1529.5,-53.92 1527.88,-64.39 1534.77,-63.12"/>
</g>
<!-- option::none -->
<g id="node18" class="node">
<title>option::none</title>
<ellipse fill="none" stroke="black" cx="1467" cy="-200" rx="27.9" ry="18"/>
<text text-anchor="middle" x="1467" y="-196.3" font-family="Times,serif" font-size="14.00">none</text>
</g>
<!-- simple_map::find&#45;&gt;option::none -->
<g id="edge22" class="edge">
<title>simple_map::find&#45;&gt;option::none</title>
<path fill="none" stroke="black" d="M1217.35,-278.63C1278.54,-270.76 1425.41,-251.66 1430,-249 1439.03,-243.76 1446.61,-235.38 1452.52,-227.07"/>
<polygon fill="black" stroke="black" points="1455.36,-229.12 1457.85,-218.82 1449.48,-225.32 1455.36,-229.12"/>
</g>
<!-- option::some -->
<g id="node19" class="node">
<title>option::some</title>
<ellipse fill="none" stroke="black" cx="1391" cy="-200" rx="29.8" ry="18"/>
<text text-anchor="middle" x="1391" y="-196.3" font-family="Times,serif" font-size="14.00">some</text>
</g>
<!-- simple_map::find&#45;&gt;option::some -->
<g id="edge23" class="edge">
<title>simple_map::find&#45;&gt;option::some</title>
<path fill="none" stroke="black" d="M1213.55,-272.87C1248.27,-258.81 1315.08,-231.75 1356.08,-215.14"/>
<polygon fill="black" stroke="black" points="1357.31,-218.42 1365.26,-211.42 1354.68,-211.93 1357.31,-218.42"/>
</g>
<!-- comparator::compare -->
<g id="node20" class="node">
<title>comparator::compare</title>
<ellipse fill="none" stroke="black" cx="1191" cy="-200" rx="41.69" ry="18"/>
<text text-anchor="middle" x="1191" y="-196.3" font-family="Times,serif" font-size="14.00">compare</text>
</g>
<!-- simple_map::find&#45;&gt;comparator::compare -->
<g id="edge24" class="edge">
<title>simple_map::find&#45;&gt;comparator::compare</title>
<path fill="none" stroke="black" d="M1191,-264.82C1191,-254.69 1191,-241.6 1191,-229.92"/>
<polygon fill="black" stroke="black" points="1194.5,-229.95 1191,-219.95 1187.5,-229.95 1194.5,-229.95"/>
</g>
<!-- comparator::is_smaller_than -->
<g id="node21" class="node">
<title>comparator::is_smaller_than</title>
<ellipse fill="none" stroke="black" cx="1064" cy="-200" rx="66.89" ry="18"/>
<text text-anchor="middle" x="1064" y="-196.3" font-family="Times,serif" font-size="14.00">is_smaller_than</text>
</g>
<!-- simple_map::find&#45;&gt;comparator::is_smaller_than -->
<g id="edge25" class="edge">
<title>simple_map::find&#45;&gt;comparator::is_smaller_than</title>
<path fill="none" stroke="black" d="M1171.99,-269.87C1152.73,-257.59 1122.51,-238.32 1098.93,-223.28"/>
<polygon fill="black" stroke="black" points="1100.87,-220.37 1090.56,-217.94 1097.11,-226.27 1100.87,-220.37"/>
</g>
<!-- vector::singleton -->
<g id="node22" class="node">
<title>vector::singleton</title>
<ellipse fill="none" stroke="black" cx="1422" cy="-34" rx="42.79" ry="18"/>
<text text-anchor="middle" x="1422" y="-30.3" font-family="Times,serif" font-size="14.00">singleton</text>
</g>
<!-- option::some&#45;&gt;vector::singleton -->
<g id="edge26" class="edge">
<title>option::some&#45;&gt;vector::singleton</title>
<path fill="none" stroke="black" d="M1394.26,-181.76C1399.6,-153.51 1410.26,-97.11 1416.7,-63.04"/>
<polygon fill="black" stroke="black" points="1420.09,-63.97 1418.5,-53.5 1413.21,-62.67 1420.09,-63.97"/>
</g>
<!-- bcs::to_bytes -->
<g id="node23" class="node">
<title>bcs::to_bytes</title>
<ellipse fill="none" stroke="black" cx="1297" cy="-117" rx="40.09" ry="18"/>
<text text-anchor="middle" x="1297" y="-113.3" font-family="Times,serif" font-size="14.00">to_bytes</text>
</g>
<!-- comparator::compare&#45;&gt;bcs::to_bytes -->
<g id="edge27" class="edge">
<title>comparator::compare&#45;&gt;bcs::to_bytes</title>
<path fill="none" stroke="black" d="M1215.86,-185.2C1225.26,-179.63 1235.88,-172.89 1245,-166 1254.71,-158.67 1264.68,-149.83 1273.27,-141.74"/>
<polygon fill="black" stroke="black" points="1275.45,-144.5 1280.24,-135.04 1270.6,-139.45 1275.45,-144.5"/>
</g>
<!-- comparator::compare_u8_vector -->
<g id="node24" class="node">
<title>comparator::compare_u8_vector</title>
<ellipse fill="none" stroke="black" cx="1152" cy="-117" rx="81.49" ry="18"/>
<text text-anchor="middle" x="1152" y="-113.3" font-family="Times,serif" font-size="14.00">compare_u8_vector</text>
</g>
<!-- comparator::compare&#45;&gt;comparator::compare_u8_vector -->
<g id="edge28" class="edge">
<title>comparator::compare&#45;&gt;comparator::compare_u8_vector</title>
<path fill="none" stroke="black" d="M1182.92,-182.22C1177.81,-171.61 1171.09,-157.65 1165.22,-145.45"/>
<polygon fill="black" stroke="black" points="1168.49,-144.18 1161,-136.68 1162.18,-147.21 1168.49,-144.18"/>
</g>
</g>
</svg>
