<?xml version="1.0" encoding="UTF-8" standalone="no"?>
<!DOCTYPE svg PUBLIC "-//W3C//DTD SVG 1.1//EN"
 "http://www.w3.org/Graphics/SVG/1.1/DTD/svg11.dtd">
<!-- Generated by graphviz version 7.0.0 (20221023.0053)
 -->
<!-- Title: G Pages: 1 -->
<svg width="2286pt" height="692pt"
 viewBox="0.00 0.00 2286.00 692.00" xmlns="http://www.w3.org/2000/svg" xmlns:xlink="http://www.w3.org/1999/xlink">
<g id="graph0" class="graph" transform="scale(1 1) rotate(0) translate(4 688)">
<title>G</title>
<polygon fill="white" stroke="none" points="-4,4 -4,-688 2282,-688 2282,4 -4,4"/>
<!-- resource_account -->
<g id="node1" class="node">
<title>resource_account</title>
<ellipse fill="none" stroke="black" cx="1378" cy="-666" rx="72.29" ry="18"/>
<text text-anchor="middle" x="1378" y="-662.3" font-family="Times,serif" font-size="14.00">resource_account</text>
</g>
<!-- vector -->
<g id="node2" class="node">
<title>vector</title>
<ellipse fill="none" stroke="black" cx="701" cy="-18" rx="32.49" ry="18"/>
<text text-anchor="middle" x="701" y="-14.3" font-family="Times,serif" font-size="14.00">vector</text>
</g>
<!-- resource_account&#45;&gt;vector -->
<g id="edge1" class="edge">
<title>resource_account&#45;&gt;vector</title>
<path fill="none" stroke="black" d="M1305.37,-665.21C1021.16,-665.11 0,-655.5 0,-523 0,-523 0,-523 0,-161 0,-26.36 502.99,-17.93 656.83,-18.5"/>
<polygon fill="black" stroke="black" points="656.6,-22 666.62,-18.55 656.64,-15 656.6,-22"/>
</g>
<!-- signer -->
<g id="node3" class="node">
<title>signer</title>
<ellipse fill="none" stroke="black" cx="2088" cy="-234" rx="32.49" ry="18"/>
<text text-anchor="middle" x="2088" y="-230.3" font-family="Times,serif" font-size="14.00">signer</text>
</g>
<!-- resource_account&#45;&gt;signer -->
<g id="edge2" class="edge">
<title>resource_account&#45;&gt;signer</title>
<path fill="none" stroke="black" d="M1449.57,-662.79C1529.26,-658.63 1661.04,-646.62 1769,-612 1964.75,-549.23 2071.88,-572.06 2178,-396 2194.67,-368.35 2156.85,-289.23 2156,-288 2146.6,-274.34 2132.61,-262.58 2119.75,-253.63"/>
<polygon fill="black" stroke="black" points="2121.78,-250.77 2111.5,-248.19 2117.92,-256.62 2121.78,-250.77"/>
</g>
<!-- error -->
<g id="node4" class="node">
<title>error</title>
<ellipse fill="none" stroke="black" cx="1126" cy="-234" rx="27.9" ry="18"/>
<text text-anchor="middle" x="1126" y="-230.3" font-family="Times,serif" font-size="14.00">error</text>
</g>
<!-- resource_account&#45;&gt;error -->
<g id="edge3" class="edge">
<title>resource_account&#45;&gt;error</title>
<path fill="none" stroke="black" d="M1377.57,-647.81C1375.18,-589.44 1359.68,-396.36 1259,-288 1234.21,-261.31 1194.21,-247.81 1164.55,-241.15"/>
<polygon fill="black" stroke="black" points="1165.33,-237.73 1154.83,-239.14 1163.91,-244.59 1165.33,-237.73"/>
</g>
<!-- account -->
<g id="node5" class="node">
<title>account</title>
<ellipse fill="none" stroke="black" cx="759" cy="-450" rx="38.19" ry="18"/>
<text text-anchor="middle" x="759" y="-446.3" font-family="Times,serif" font-size="14.00">account</text>
</g>
<!-- resource_account&#45;&gt;account -->
<g id="edge4" class="edge">
<title>resource_account&#45;&gt;account</title>
<path fill="none" stroke="black" d="M1331.73,-651.72C1296.33,-641.39 1246.38,-626.42 1203,-612 1052.46,-561.95 875.85,-495.59 798.57,-466.16"/>
<polygon fill="black" stroke="black" points="799.91,-462.92 789.32,-462.63 797.41,-469.47 799.91,-462.92"/>
</g>
<!-- coin -->
<g id="node6" class="node">
<title>coin</title>
<ellipse fill="none" stroke="black" cx="1102" cy="-522" rx="27" ry="18"/>
<text text-anchor="middle" x="1102" y="-518.3" font-family="Times,serif" font-size="14.00">coin</text>
</g>
<!-- resource_account&#45;&gt;coin -->
<g id="edge5" class="edge">
<title>resource_account&#45;&gt;coin</title>
<path fill="none" stroke="black" d="M1347.41,-649.26C1294.49,-622.04 1186.44,-566.44 1133.14,-539.02"/>
<polygon fill="black" stroke="black" points="1134.78,-535.93 1124.29,-534.47 1131.58,-542.15 1134.78,-535.93"/>
</g>
<!-- aptos_coin -->
<g id="node7" class="node">
<title>aptos_coin</title>
<ellipse fill="none" stroke="black" cx="1677" cy="-594" rx="48.99" ry="18"/>
<text text-anchor="middle" x="1677" y="-590.3" font-family="Times,serif" font-size="14.00">aptos_coin</text>
</g>
<!-- resource_account&#45;&gt;aptos_coin -->
<g id="edge6" class="edge">
<title>resource_account&#45;&gt;aptos_coin</title>
<path fill="none" stroke="black" d="M1429.4,-652.97C1484.23,-640.13 1570.58,-619.92 1625.46,-607.07"/>
<polygon fill="black" stroke="black" points="1625.92,-610.55 1634.86,-604.87 1624.33,-603.74 1625.92,-610.55"/>
</g>
<!-- simple_map -->
<g id="node8" class="node">
<title>simple_map</title>
<ellipse fill="none" stroke="black" cx="517" cy="-378" rx="54.69" ry="18"/>
<text text-anchor="middle" x="517" y="-374.3" font-family="Times,serif" font-size="14.00">simple_map</text>
</g>
<!-- resource_account&#45;&gt;simple_map -->
<g id="edge7" class="edge">
<title>resource_account&#45;&gt;simple_map</title>
<path fill="none" stroke="black" d="M1315.51,-656.57C1257.48,-647.99 1169,-632.96 1094,-612 919.25,-563.17 879.52,-537.71 712,-468 657.71,-445.41 596.15,-416.8 556.98,-398.21"/>
<polygon fill="black" stroke="black" points="558.69,-395.15 548.15,-394.01 555.68,-401.47 558.69,-395.15"/>
</g>
<!-- code -->
<g id="node9" class="node">
<title>code</title>
<ellipse fill="none" stroke="black" cx="1880" cy="-378" rx="27.1" ry="18"/>
<text text-anchor="middle" x="1880" y="-374.3" font-family="Times,serif" font-size="14.00">code</text>
</g>
<!-- resource_account&#45;&gt;code -->
<g id="edge8" class="edge">
<title>resource_account&#45;&gt;code</title>
<path fill="none" stroke="black" d="M1448.45,-661.5C1538.74,-655.84 1689.1,-642.12 1735,-612 1811.13,-562.04 1854.4,-456.82 1871.45,-406.69"/>
<polygon fill="black" stroke="black" points="1874.68,-408.06 1874.48,-397.47 1868.03,-405.87 1874.68,-408.06"/>
</g>
<!-- account&#45;&gt;vector -->
<g id="edge9" class="edge">
<title>account&#45;&gt;vector</title>
<path fill="none" stroke="black" d="M720.89,-448.18C596.18,-445.13 205.84,-432.73 164,-396 115.13,-353.09 142.48,-316.88 138,-252 134.57,-202.42 131.05,-178.31 167,-144 238.26,-75.99 543.22,-36.25 657.51,-23.52"/>
<polygon fill="black" stroke="black" points="657.85,-27.01 667.41,-22.44 657.09,-20.05 657.85,-27.01"/>
</g>
<!-- account&#45;&gt;signer -->
<g id="edge13" class="edge">
<title>account&#45;&gt;signer</title>
<path fill="none" stroke="black" d="M796.7,-446.14C846.12,-442.48 935.51,-436.09 1012,-432 1212.76,-421.26 1721.65,-447.47 1916,-396 1983.26,-378.19 2008.92,-376.12 2055,-324 2070.1,-306.93 2078.51,-282.33 2083.06,-263.31"/>
<polygon fill="black" stroke="black" points="2086.43,-264.31 2085.1,-253.8 2079.58,-262.84 2086.43,-264.31"/>
</g>
<!-- account&#45;&gt;error -->
<g id="edge14" class="edge">
<title>account&#45;&gt;error</title>
<path fill="none" stroke="black" d="M784.18,-436.3C801.8,-426.68 825.26,-412.37 843,-396 887.1,-355.32 874.21,-321.48 924,-288 973.78,-254.53 1043.58,-242.19 1086.74,-237.64"/>
<polygon fill="black" stroke="black" points="1087.04,-241.13 1096.66,-236.7 1086.38,-234.16 1087.04,-241.13"/>
</g>
<!-- option -->
<g id="node10" class="node">
<title>option</title>
<ellipse fill="none" stroke="black" cx="415" cy="-90" rx="33.29" ry="18"/>
<text text-anchor="middle" x="415" y="-86.3" font-family="Times,serif" font-size="14.00">option</text>
</g>
<!-- account&#45;&gt;option -->
<g id="edge10" class="edge">
<title>account&#45;&gt;option</title>
<path fill="none" stroke="black" d="M720.4,-449.41C610.61,-449.93 299.01,-446.78 213,-396 171.71,-371.62 152,-354.95 152,-307 152,-307 152,-307 152,-233 152,-134.86 295.55,-104.22 370.54,-94.92"/>
<polygon fill="black" stroke="black" points="370.92,-98.4 380.45,-93.77 370.12,-91.44 370.92,-98.4"/>
</g>
<!-- type_info -->
<g id="node11" class="node">
<title>type_info</title>
<ellipse fill="none" stroke="black" cx="900" cy="-234" rx="44.39" ry="18"/>
<text text-anchor="middle" x="900" y="-230.3" font-family="Times,serif" font-size="14.00">type_info</text>
</g>
<!-- account&#45;&gt;type_info -->
<g id="edge11" class="edge">
<title>account&#45;&gt;type_info</title>
<path fill="none" stroke="black" d="M749.19,-432.56C731.89,-401.21 700.73,-332.1 733,-288 758.23,-253.52 806.06,-240.92 844.08,-236.57"/>
<polygon fill="black" stroke="black" points="844.4,-240.06 854.02,-235.62 843.73,-233.09 844.4,-240.06"/>
</g>
<!-- table -->
<g id="node12" class="node">
<title>table</title>
<ellipse fill="none" stroke="black" cx="1070" cy="-306" rx="27.9" ry="18"/>
<text text-anchor="middle" x="1070" y="-302.3" font-family="Times,serif" font-size="14.00">table</text>
</g>
<!-- account&#45;&gt;table -->
<g id="edge12" class="edge">
<title>account&#45;&gt;table</title>
<path fill="none" stroke="black" d="M785.97,-436.83C809.69,-426.11 845.16,-410.06 876,-396 932.86,-370.08 999,-339.69 1037.51,-321.96"/>
<polygon fill="black" stroke="black" points="1038.62,-325.31 1046.24,-317.95 1035.69,-318.95 1038.62,-325.31"/>
</g>
<!-- system_addresses -->
<g id="node13" class="node">
<title>system_addresses</title>
<ellipse fill="none" stroke="black" cx="1631" cy="-306" rx="73.39" ry="18"/>
<text text-anchor="middle" x="1631" y="-302.3" font-family="Times,serif" font-size="14.00">system_addresses</text>
</g>
<!-- account&#45;&gt;system_addresses -->
<g id="edge15" class="edge">
<title>account&#45;&gt;system_addresses</title>
<path fill="none" stroke="black" d="M796.88,-446.29C919.12,-437.46 1298.26,-409.31 1352,-396 1392.22,-386.04 1398.83,-373.51 1438,-360 1481.05,-345.15 1530.61,-331.61 1568.72,-321.94"/>
<polygon fill="black" stroke="black" points="1569.35,-325.39 1578.19,-319.56 1567.64,-318.6 1569.35,-325.39"/>
</g>
<!-- hash -->
<g id="node14" class="node">
<title>hash</title>
<ellipse fill="none" stroke="black" cx="211" cy="-234" rx="27" ry="18"/>
<text text-anchor="middle" x="211" y="-230.3" font-family="Times,serif" font-size="14.00">hash</text>
</g>
<!-- account&#45;&gt;hash -->
<g id="edge16" class="edge">
<title>account&#45;&gt;hash</title>
<path fill="none" stroke="black" d="M720.99,-447.72C607.25,-443.53 275.17,-428.58 240,-396 203.68,-362.36 203.38,-299.9 206.88,-263.45"/>
<polygon fill="black" stroke="black" points="210.34,-264 207.99,-253.67 203.38,-263.21 210.34,-264"/>
</g>
<!-- bcs -->
<g id="node15" class="node">
<title>bcs</title>
<ellipse fill="none" stroke="black" cx="561" cy="-234" rx="27" ry="18"/>
<text text-anchor="middle" x="561" y="-230.3" font-family="Times,serif" font-size="14.00">bcs</text>
</g>
<!-- account&#45;&gt;bcs -->
<g id="edge17" class="edge">
<title>account&#45;&gt;bcs</title>
<path fill="none" stroke="black" d="M744.44,-433.26C709.93,-395.97 623.04,-302.05 582.48,-258.21"/>
<polygon fill="black" stroke="black" points="585.17,-255.97 575.81,-251.01 580.04,-260.73 585.17,-255.97"/>
</g>
<!-- ed25519 -->
<g id="node16" class="node">
<title>ed25519</title>
<ellipse fill="none" stroke="black" cx="373" cy="-306" rx="40.89" ry="18"/>
<text text-anchor="middle" x="373" y="-302.3" font-family="Times,serif" font-size="14.00">ed25519</text>
</g>
<!-- account&#45;&gt;ed25519 -->
<g id="edge18" class="edge">
<title>account&#45;&gt;ed25519</title>
<path fill="none" stroke="black" d="M721.63,-445.61C650.51,-438.65 498.71,-421.27 453,-396 426.12,-381.14 403.61,-353.77 389.39,-333.29"/>
<polygon fill="black" stroke="black" points="392.4,-331.5 383.93,-325.13 386.58,-335.39 392.4,-331.5"/>
</g>
<!-- multi_ed25519 -->
<g id="node17" class="node">
<title>multi_ed25519</title>
<ellipse fill="none" stroke="black" cx="313" cy="-378" rx="64.19" ry="18"/>
<text text-anchor="middle" x="313" y="-374.3" font-family="Times,serif" font-size="14.00">multi_ed25519</text>
</g>
<!-- account&#45;&gt;multi_ed25519 -->
<g id="edge19" class="edge">
<title>account&#45;&gt;multi_ed25519</title>
<path fill="none" stroke="black" d="M722.32,-444.11C657.4,-435.34 518.06,-415.96 401,-396 392.68,-394.58 383.94,-393 375.32,-391.39"/>
<polygon fill="black" stroke="black" points="376.08,-387.97 365.6,-389.55 374.78,-394.85 376.08,-387.97"/>
</g>
<!-- guid -->
<g id="node18" class="node">
<title>guid</title>
<ellipse fill="none" stroke="black" cx="769" cy="-306" rx="27" ry="18"/>
<text text-anchor="middle" x="769" y="-302.3" font-family="Times,serif" font-size="14.00">guid</text>
</g>
<!-- account&#45;&gt;guid -->
<g id="edge20" class="edge">
<title>account&#45;&gt;guid</title>
<path fill="none" stroke="black" d="M760.13,-431.6C761.31,-413.66 763.22,-384.87 765,-360 765.57,-352.05 766.21,-343.44 766.81,-335.51"/>
<polygon fill="black" stroke="black" points="770.28,-335.93 767.55,-325.69 763.3,-335.4 770.28,-335.93"/>
</g>
<!-- from_bcs -->
<g id="node19" class="node">
<title>from_bcs</title>
<ellipse fill="none" stroke="black" cx="1458" cy="-234" rx="44.39" ry="18"/>
<text text-anchor="middle" x="1458" y="-230.3" font-family="Times,serif" font-size="14.00">from_bcs</text>
</g>
<!-- account&#45;&gt;from_bcs -->
<g id="edge21" class="edge">
<title>account&#45;&gt;from_bcs</title>
<path fill="none" stroke="black" d="M797.05,-447.35C879.24,-443.23 1079.18,-430.27 1243,-396 1246.28,-395.31 1471.02,-326.7 1473,-324 1486.03,-306.27 1480.25,-281.21 1472.38,-262.19"/>
<polygon fill="black" stroke="black" points="1475.59,-260.82 1468.25,-253.18 1469.23,-263.73 1475.59,-260.82"/>
</g>
<!-- event -->
<g id="node20" class="node">
<title>event</title>
<ellipse fill="none" stroke="black" cx="804" cy="-378" rx="29.8" ry="18"/>
<text text-anchor="middle" x="804" y="-374.3" font-family="Times,serif" font-size="14.00">event</text>
</g>
<!-- account&#45;&gt;event -->
<g id="edge22" class="edge">
<title>account&#45;&gt;event</title>
<path fill="none" stroke="black" d="M769.66,-432.41C775.01,-424.1 781.6,-413.85 787.57,-404.56"/>
<polygon fill="black" stroke="black" points="790.44,-406.57 792.9,-396.26 784.55,-402.78 790.44,-406.57"/>
</g>
<!-- coin&#45;&gt;signer -->
<g id="edge26" class="edge">
<title>coin&#45;&gt;signer</title>
<path fill="none" stroke="black" d="M1129.1,-518.89C1258.96,-508.53 1817.97,-460.84 1979,-396 2029.8,-375.54 2051.61,-371.42 2079,-324 2089.46,-305.88 2091.41,-282.19 2090.9,-263.81"/>
<polygon fill="black" stroke="black" points="2094.4,-263.63 2090.34,-253.84 2087.41,-264.02 2094.4,-263.63"/>
</g>
<!-- coin&#45;&gt;error -->
<g id="edge27" class="edge">
<title>coin&#45;&gt;error</title>
<path fill="none" stroke="black" d="M1077.54,-514.15C1056,-506.68 1025.95,-492.4 1012,-468 992.26,-433.47 952.47,-390.77 1020,-288 1035.51,-264.4 1064.86,-250.87 1088.75,-243.4"/>
<polygon fill="black" stroke="black" points="1089.51,-246.82 1098.16,-240.7 1087.58,-240.09 1089.51,-246.82"/>
</g>
<!-- coin&#45;&gt;account -->
<g id="edge30" class="edge">
<title>coin&#45;&gt;account</title>
<path fill="none" stroke="black" d="M1075.71,-516.66C1026.09,-508.31 915.3,-489 823,-468 816.24,-466.46 809.11,-464.71 802.17,-462.92"/>
<polygon fill="black" stroke="black" points="803.14,-459.56 792.58,-460.4 801.36,-466.33 803.14,-459.56"/>
</g>
<!-- coin&#45;&gt;option -->
<g id="edge23" class="edge">
<title>coin&#45;&gt;option</title>
<path fill="none" stroke="black" d="M1074.82,-520.86C936.71,-519.62 313.45,-507.86 164,-396 71.49,-326.76 25.38,-232.23 100,-144 102.2,-141.4 286.56,-111.57 372.18,-97.84"/>
<polygon fill="black" stroke="black" points="372.52,-101.33 381.84,-96.3 371.41,-94.42 372.52,-101.33"/>
</g>
<!-- coin&#45;&gt;type_info -->
<g id="edge25" class="edge">
<title>coin&#45;&gt;type_info</title>
<path fill="none" stroke="black" d="M1076.91,-515.29C1051.32,-508.25 1012.06,-493.91 988,-468 932.92,-408.68 911.34,-311.52 903.72,-263.58"/>
<polygon fill="black" stroke="black" points="907.19,-263.12 902.25,-253.74 900.26,-264.15 907.19,-263.12"/>
</g>
<!-- coin&#45;&gt;system_addresses -->
<g id="edge28" class="edge">
<title>coin&#45;&gt;system_addresses</title>
<path fill="none" stroke="black" d="M1129.22,-519.65C1181.56,-516.28 1299.08,-504.89 1390,-468 1474.7,-433.63 1560.56,-366.96 1603.27,-331.14"/>
<polygon fill="black" stroke="black" points="1605.44,-333.9 1610.8,-324.76 1600.91,-328.56 1605.44,-333.9"/>
</g>
<!-- coin&#45;&gt;event -->
<g id="edge29" class="edge">
<title>coin&#45;&gt;event</title>
<path fill="none" stroke="black" d="M1074.87,-519.35C1032,-515.7 947.17,-504.13 886,-468 859.1,-452.12 835.79,-424.66 820.97,-404.44"/>
<polygon fill="black" stroke="black" points="823.92,-402.54 815.28,-396.41 818.21,-406.59 823.92,-402.54"/>
</g>
<!-- string -->
<g id="node21" class="node">
<title>string</title>
<ellipse fill="none" stroke="black" cx="1422" cy="-162" rx="30.59" ry="18"/>
<text text-anchor="middle" x="1422" y="-158.3" font-family="Times,serif" font-size="14.00">string</text>
</g>
<!-- coin&#45;&gt;string -->
<g id="edge24" class="edge">
<title>coin&#45;&gt;string</title>
<path fill="none" stroke="black" d="M1127.48,-515.52C1196.71,-499.28 1389.81,-444.81 1490,-324 1521.22,-286.36 1535.16,-258.51 1511,-216 1507.7,-210.19 1478.18,-193.23 1454.03,-180.05"/>
<polygon fill="black" stroke="black" points="1455.9,-177.08 1445.44,-175.4 1452.56,-183.24 1455.9,-177.08"/>
</g>
<!-- optional_aggregator -->
<g id="node22" class="node">
<title>optional_aggregator</title>
<ellipse fill="none" stroke="black" cx="1102" cy="-450" rx="81.49" ry="18"/>
<text text-anchor="middle" x="1102" y="-446.3" font-family="Times,serif" font-size="14.00">optional_aggregator</text>
</g>
<!-- coin&#45;&gt;optional_aggregator -->
<g id="edge31" class="edge">
<title>coin&#45;&gt;optional_aggregator</title>
<path fill="none" stroke="black" d="M1102,-503.7C1102,-496.41 1102,-487.73 1102,-479.54"/>
<polygon fill="black" stroke="black" points="1105.5,-479.62 1102,-469.62 1098.5,-479.62 1105.5,-479.62"/>
</g>
<!-- aptos_coin&#45;&gt;vector -->
<g id="edge32" class="edge">
<title>aptos_coin&#45;&gt;vector</title>
<path fill="none" stroke="black" d="M1711.56,-580.86C1717.96,-578.97 1724.63,-577.24 1731,-576 1829.91,-556.75 2101.67,-599.49 2183,-540 2273.26,-473.97 2278,-418.83 2278,-307 2278,-307 2278,-307 2278,-161 2278,19.82 2060.23,-95.93 1881,-72 1655.01,-41.83 931.37,-24.09 745.07,-19.94"/>
<polygon fill="black" stroke="black" points="745.43,-16.45 735.35,-19.73 745.27,-23.45 745.43,-16.45"/>
</g>
<!-- aptos_coin&#45;&gt;signer -->
<g id="edge35" class="edge">
<title>aptos_coin&#45;&gt;signer</title>
<path fill="none" stroke="black" d="M1713.27,-581.45C1719.19,-579.6 1725.26,-577.73 1731,-576 1922.77,-518.14 2164,-651.3 2164,-451 2164,-451 2164,-451 2164,-377 2164,-330.98 2132.58,-285.43 2110.15,-258.78"/>
<polygon fill="black" stroke="black" points="2112.85,-256.56 2103.65,-251.31 2107.57,-261.15 2112.85,-256.56"/>
</g>
<!-- aptos_coin&#45;&gt;error -->
<g id="edge36" class="edge">
<title>aptos_coin&#45;&gt;error</title>
<path fill="none" stroke="black" d="M1656.79,-577.45C1603.65,-536.49 1455.83,-422.06 1335,-324 1315.65,-308.29 1313.84,-300.02 1292,-288 1250.8,-265.33 1198.44,-250.65 1163.65,-242.62"/>
<polygon fill="black" stroke="black" points="1164.57,-239.24 1154.05,-240.47 1163.05,-246.07 1164.57,-239.24"/>
</g>
<!-- aptos_coin&#45;&gt;coin -->
<g id="edge38" class="edge">
<title>aptos_coin&#45;&gt;coin</title>
<path fill="none" stroke="black" d="M1630.92,-587.39C1520.3,-573.92 1241.43,-539.97 1139.8,-527.6"/>
<polygon fill="black" stroke="black" points="1140.44,-524.15 1130.09,-526.42 1139.59,-531.1 1140.44,-524.15"/>
</g>
<!-- aptos_coin&#45;&gt;option -->
<g id="edge33" class="edge">
<title>aptos_coin&#45;&gt;option</title>
<path fill="none" stroke="black" d="M1628.21,-591.29C1359.9,-581.59 76,-530.96 76,-451 76,-451 76,-451 76,-377 76,-265.83 81.91,-215.55 167,-144 182.61,-130.87 305.53,-108.99 372.25,-97.89"/>
<polygon fill="black" stroke="black" points="372.45,-101.41 381.74,-96.33 371.31,-94.5 372.45,-101.41"/>
</g>
<!-- aptos_coin&#45;&gt;system_addresses -->
<g id="edge37" class="edge">
<title>aptos_coin&#45;&gt;system_addresses</title>
<path fill="none" stroke="black" d="M1674.19,-575.54C1666.49,-527.66 1644.98,-393.95 1635.54,-335.24"/>
<polygon fill="black" stroke="black" points="1639.06,-335.04 1634.01,-325.73 1632.14,-336.15 1639.06,-335.04"/>
</g>
<!-- aptos_coin&#45;&gt;string -->
<g id="edge34" class="edge">
<title>aptos_coin&#45;&gt;string</title>
<path fill="none" stroke="black" d="M1711.57,-580.88C1717.96,-578.99 1724.64,-577.25 1731,-576 1824.65,-557.56 2086.3,-601.84 2159,-540 2214.08,-493.15 2186.85,-259.38 2129,-216 2075.78,-176.09 1608.31,-165.79 1464.15,-163.55"/>
<polygon fill="black" stroke="black" points="1464.34,-160.05 1454.28,-163.4 1464.23,-167.05 1464.34,-160.05"/>
</g>
<!-- simple_map&#45;&gt;error -->
<g id="edge40" class="edge">
<title>simple_map&#45;&gt;error</title>
<path fill="none" stroke="black" d="M551.85,-363.8C579.21,-353.32 618.2,-338.14 652,-324 688.34,-308.8 695.1,-298.74 733,-288 799.19,-269.24 1001.54,-247.47 1087.13,-238.82"/>
<polygon fill="black" stroke="black" points="1087.3,-242.32 1096.9,-237.84 1086.6,-235.36 1087.3,-242.32"/>
</g>
<!-- simple_map&#45;&gt;option -->
<g id="edge39" class="edge">
<title>simple_map&#45;&gt;option</title>
<path fill="none" stroke="black" d="M494.64,-361.31C482.84,-351.84 469.14,-338.77 461,-324 424.25,-257.35 416.58,-165.69 415.16,-119.73"/>
<polygon fill="black" stroke="black" points="418.66,-119.73 414.95,-109.8 411.67,-119.88 418.66,-119.73"/>
</g>
<!-- comparator -->
<g id="node23" class="node">
<title>comparator</title>
<ellipse fill="none" stroke="black" cx="521" cy="-306" rx="51.19" ry="18"/>
<text text-anchor="middle" x="521" y="-302.3" font-family="Times,serif" font-size="14.00">comparator</text>
</g>
<!-- simple_map&#45;&gt;comparator -->
<g id="edge41" class="edge">
<title>simple_map&#45;&gt;comparator</title>
<path fill="none" stroke="black" d="M517.99,-359.7C518.41,-352.41 518.9,-343.73 519.37,-335.54"/>
<polygon fill="black" stroke="black" points="522.86,-335.8 519.94,-325.62 515.87,-335.4 522.86,-335.8"/>
</g>
<!-- code&#45;&gt;vector -->
<g id="edge42" class="edge">
<title>code&#45;&gt;vector</title>
<path fill="none" stroke="black" d="M1900.55,-365.81C1904.33,-363.83 1908.27,-361.82 1912,-360 1947.42,-342.75 1968.18,-354.6 1993,-324 2018.48,-292.59 2012,-275.45 2012,-235 2012,-235 2012,-235 2012,-161 2012,-30.62 973.93,-19.84 745.22,-19.04"/>
<polygon fill="black" stroke="black" points="745.26,-15.54 735.25,-19.01 745.24,-22.54 745.26,-15.54"/>
</g>
<!-- code&#45;&gt;signer -->
<g id="edge45" class="edge">
<title>code&#45;&gt;signer</title>
<path fill="none" stroke="black" d="M1906.33,-372.48C1937.5,-366.06 1989.76,-351.85 2026,-324 2047.42,-307.54 2064.3,-281.58 2075,-261.94"/>
<polygon fill="black" stroke="black" points="2078.08,-263.61 2079.6,-253.12 2071.88,-260.37 2078.08,-263.61"/>
</g>
<!-- code&#45;&gt;error -->
<g id="edge46" class="edge">
<title>code&#45;&gt;error</title>
<path fill="none" stroke="black" d="M1857.46,-367.57C1822.98,-353.11 1760.6,-326.82 1756,-324 1734.76,-310.96 1736.02,-297.56 1713,-288 1662.59,-267.07 1288.44,-244.21 1165.22,-237.18"/>
<polygon fill="black" stroke="black" points="1165.79,-233.71 1155.61,-236.63 1165.4,-240.69 1165.79,-233.71"/>
</g>
<!-- code&#45;&gt;option -->
<g id="edge43" class="edge">
<title>code&#45;&gt;option</title>
<path fill="none" stroke="black" d="M1859.06,-366.3C1840.14,-356.29 1811.85,-340.45 1789,-324 1769.32,-309.83 1768.1,-301.56 1748,-288 1630.02,-208.41 1599.59,-180.38 1462,-144 1268.5,-92.83 634.64,-90.46 459.94,-90.81"/>
<polygon fill="black" stroke="black" points="460.14,-87.31 450.15,-90.84 460.15,-94.31 460.14,-87.31"/>
</g>
<!-- code&#45;&gt;system_addresses -->
<g id="edge47" class="edge">
<title>code&#45;&gt;system_addresses</title>
<path fill="none" stroke="black" d="M1858.09,-367.23C1851.98,-364.7 1845.29,-362.09 1839,-360 1791.87,-344.32 1737.44,-330.6 1696.08,-321.05"/>
<polygon fill="black" stroke="black" points="1697.05,-317.68 1686.52,-318.87 1695.49,-324.51 1697.05,-317.68"/>
</g>
<!-- code&#45;&gt;string -->
<g id="edge44" class="edge">
<title>code&#45;&gt;string</title>
<path fill="none" stroke="black" d="M1881.23,-359.55C1881.65,-339.66 1879.13,-307.39 1861,-288 1805.93,-229.11 1561.06,-184.87 1462.9,-169.19"/>
<polygon fill="black" stroke="black" points="1463.6,-165.76 1453.17,-167.66 1462.51,-172.67 1463.6,-165.76"/>
</g>
<!-- util -->
<g id="node24" class="node">
<title>util</title>
<ellipse fill="none" stroke="black" cx="1825" cy="-306" rx="27" ry="18"/>
<text text-anchor="middle" x="1825" y="-302.3" font-family="Times,serif" font-size="14.00">util</text>
</g>
<!-- code&#45;&gt;util -->
<g id="edge48" class="edge">
<title>code&#45;&gt;util</title>
<path fill="none" stroke="black" d="M1867.79,-361.46C1860.89,-352.67 1852.09,-341.48 1844.27,-331.53"/>
<polygon fill="black" stroke="black" points="1847.04,-329.38 1838.11,-323.68 1841.53,-333.71 1847.04,-329.38"/>
</g>
<!-- features -->
<g id="node25" class="node">
<title>features</title>
<ellipse fill="none" stroke="black" cx="1946" cy="-306" rx="38.19" ry="18"/>
<text text-anchor="middle" x="1946" y="-302.3" font-family="Times,serif" font-size="14.00">features</text>
</g>
<!-- code&#45;&gt;features -->
<g id="edge49" class="edge">
<title>code&#45;&gt;features</title>
<path fill="none" stroke="black" d="M1894,-362.15C1902.51,-353.12 1913.58,-341.38 1923.32,-331.05"/>
<polygon fill="black" stroke="black" points="1925.75,-333.57 1930.07,-323.9 1920.66,-328.77 1925.75,-333.57"/>
</g>
<!-- copyable_any -->
<g id="node26" class="node">
<title>copyable_any</title>
<ellipse fill="none" stroke="black" cx="1404" cy="-306" rx="59.59" ry="18"/>
<text text-anchor="middle" x="1404" y="-302.3" font-family="Times,serif" font-size="14.00">copyable_any</text>
</g>
<!-- code&#45;&gt;copyable_any -->
<g id="edge50" class="edge">
<title>code&#45;&gt;copyable_any</title>
<path fill="none" stroke="black" d="M1853.73,-373.14C1780.67,-362.39 1573.54,-331.93 1467.8,-316.38"/>
<polygon fill="black" stroke="black" points="1468.56,-312.96 1458.16,-314.96 1467.54,-319.88 1468.56,-312.96"/>
</g>
<!-- option&#45;&gt;vector -->
<g id="edge51" class="edge">
<title>option&#45;&gt;vector</title>
<path fill="none" stroke="black" d="M445.07,-81.64C496.83,-68.97 602.8,-43.03 660.83,-28.83"/>
<polygon fill="black" stroke="black" points="661.41,-32.29 670.29,-26.52 659.75,-25.49 661.41,-32.29"/>
</g>
<!-- type_info&#45;&gt;string -->
<g id="edge52" class="edge">
<title>type_info&#45;&gt;string</title>
<path fill="none" stroke="black" d="M941.84,-227.39C1039.84,-214.25 1283.35,-181.59 1380.76,-168.53"/>
<polygon fill="black" stroke="black" points="1381.22,-172 1390.67,-167.2 1380.29,-165.06 1381.22,-172"/>
</g>
<!-- system_addresses&#45;&gt;signer -->
<g id="edge53" class="edge">
<title>system_addresses&#45;&gt;signer</title>
<path fill="none" stroke="black" d="M1692.16,-295.63C1786.28,-281.22 1964.24,-253.96 2045.55,-241.5"/>
<polygon fill="black" stroke="black" points="2045.97,-244.98 2055.33,-240 2044.91,-238.06 2045.97,-244.98"/>
</g>
<!-- system_addresses&#45;&gt;error -->
<g id="edge54" class="edge">
<title>system_addresses&#45;&gt;error</title>
<path fill="none" stroke="black" d="M1568.32,-296.31C1462.48,-281.64 1251.43,-252.39 1164.64,-240.36"/>
<polygon fill="black" stroke="black" points="1165.13,-236.89 1154.74,-238.98 1164.17,-243.82 1165.13,-236.89"/>
</g>
<!-- ed25519&#45;&gt;error -->
<g id="edge57" class="edge">
<title>ed25519&#45;&gt;error</title>
<path fill="none" stroke="black" d="M408.81,-297.09C424.72,-293.83 443.72,-290.29 461,-288 678.35,-259.16 734.55,-270.72 953,-252 999.2,-248.04 1052.25,-242.71 1087.3,-239.08"/>
<polygon fill="black" stroke="black" points="1087.36,-242.59 1096.95,-238.08 1086.64,-235.63 1087.36,-242.59"/>
</g>
<!-- ed25519&#45;&gt;option -->
<g id="edge55" class="edge">
<title>ed25519&#45;&gt;option</title>
<path fill="none" stroke="black" d="M376.37,-287.85C383.59,-251.07 400.62,-164.29 409.46,-119.24"/>
<polygon fill="black" stroke="black" points="412.83,-120.2 411.33,-109.72 405.97,-118.86 412.83,-120.2"/>
</g>
<!-- ed25519&#45;&gt;type_info -->
<g id="edge56" class="edge">
<title>ed25519&#45;&gt;type_info</title>
<path fill="none" stroke="black" d="M409.29,-297.39C425.13,-294.23 443.94,-290.67 461,-288 599.03,-266.36 762.68,-248.7 845.76,-240.3"/>
<polygon fill="black" stroke="black" points="846.07,-243.79 855.67,-239.31 845.37,-236.82 846.07,-243.79"/>
</g>
<!-- ed25519&#45;&gt;hash -->
<g id="edge58" class="edge">
<title>ed25519&#45;&gt;hash</title>
<path fill="none" stroke="black" d="M344.41,-292.65C316.1,-280.41 272.81,-261.71 243.27,-248.95"/>
<polygon fill="black" stroke="black" points="245.03,-245.89 234.46,-245.14 242.25,-252.32 245.03,-245.89"/>
</g>
<!-- ed25519&#45;&gt;bcs -->
<g id="edge59" class="edge">
<title>ed25519&#45;&gt;bcs</title>
<path fill="none" stroke="black" d="M403.62,-293.6C437.52,-280.98 491.99,-260.7 527.13,-247.61"/>
<polygon fill="black" stroke="black" points="528.24,-250.93 536.39,-244.16 525.8,-244.37 528.24,-250.93"/>
</g>
<!-- multi_ed25519&#45;&gt;error -->
<g id="edge61" class="edge">
<title>multi_ed25519&#45;&gt;error</title>
<path fill="none" stroke="black" d="M371.45,-370.14C426.57,-362.58 510.95,-348.17 581,-324 614.45,-312.46 618.1,-298.13 652,-288 672.81,-281.78 978.02,-250.14 1087.38,-238.94"/>
<polygon fill="black" stroke="black" points="1087.43,-242.45 1097.02,-237.95 1086.72,-235.49 1087.43,-242.45"/>
</g>
<!-- multi_ed25519&#45;&gt;option -->
<g id="edge60" class="edge">
<title>multi_ed25519&#45;&gt;option</title>
<path fill="none" stroke="black" d="M308,-359.65C303.55,-341.5 298.67,-312.32 305,-288 322.59,-220.43 369.01,-151.45 395.59,-115.78"/>
<polygon fill="black" stroke="black" points="398.35,-117.92 401.6,-107.84 392.77,-113.7 398.35,-117.92"/>
</g>
<!-- multi_ed25519&#45;&gt;hash -->
<g id="edge62" class="edge">
<title>multi_ed25519&#45;&gt;hash</title>
<path fill="none" stroke="black" d="M289.99,-360.82C277.55,-351.2 262.61,-338.14 252,-324 237.97,-305.29 227.18,-281.01 220.2,-262.54"/>
<polygon fill="black" stroke="black" points="223.56,-261.53 216.87,-253.31 216.98,-263.91 223.56,-261.53"/>
</g>
<!-- multi_ed25519&#45;&gt;bcs -->
<g id="edge63" class="edge">
<title>multi_ed25519&#45;&gt;bcs</title>
<path fill="none" stroke="black" d="M309.55,-359.57C306.69,-339.69 305.55,-307.43 323,-288 349.25,-258.77 462.57,-244.06 522.88,-238.19"/>
<polygon fill="black" stroke="black" points="523.06,-241.69 532.69,-237.27 522.41,-234.72 523.06,-241.69"/>
</g>
<!-- multi_ed25519&#45;&gt;ed25519 -->
<g id="edge64" class="edge">
<title>multi_ed25519&#45;&gt;ed25519</title>
<path fill="none" stroke="black" d="M327.52,-360.05C334.78,-351.59 343.69,-341.19 351.7,-331.84"/>
<polygon fill="black" stroke="black" points="354.19,-334.33 358.04,-324.46 348.87,-329.77 354.19,-334.33"/>
</g>
<!-- from_bcs&#45;&gt;string -->
<g id="edge65" class="edge">
<title>from_bcs&#45;&gt;string</title>
<path fill="none" stroke="black" d="M1449.29,-216.05C1445.16,-208.03 1440.13,-198.26 1435.52,-189.3"/>
<polygon fill="black" stroke="black" points="1438.76,-187.95 1431.08,-180.65 1432.54,-191.15 1438.76,-187.95"/>
</g>
<!-- event&#45;&gt;bcs -->
<g id="edge66" class="edge">
<title>event&#45;&gt;bcs</title>
<path fill="none" stroke="black" d="M809.95,-360.19C815.7,-340.61 821.39,-308.33 805,-288 779.57,-256.45 661.16,-242.72 599.13,-237.6"/>
<polygon fill="black" stroke="black" points="599.63,-234.13 589.39,-236.84 599.08,-241.11 599.63,-234.13"/>
</g>
<!-- event&#45;&gt;guid -->
<g id="edge67" class="edge">
<title>event&#45;&gt;guid</title>
<path fill="none" stroke="black" d="M795.71,-360.41C791.7,-352.39 786.78,-342.57 782.27,-333.54"/>
<polygon fill="black" stroke="black" points="785.51,-332.2 777.91,-324.82 779.25,-335.33 785.51,-332.2"/>
</g>
<!-- string&#45;&gt;vector -->
<g id="edge68" class="edge">
<title>string&#45;&gt;vector</title>
<path fill="none" stroke="black" d="M1393.29,-155.35C1281.43,-133.31 874.44,-53.16 742.56,-27.18"/>
<polygon fill="black" stroke="black" points="743.36,-23.77 732.87,-25.28 742,-30.64 743.36,-23.77"/>
</g>
<!-- string&#45;&gt;option -->
<g id="edge69" class="edge">
<title>string&#45;&gt;option</title>
<path fill="none" stroke="black" d="M1391.59,-158.89C1247.26,-148.85 631.31,-106.04 459.6,-94.1"/>
<polygon fill="black" stroke="black" points="459.98,-90.62 449.76,-93.42 459.49,-97.6 459.98,-90.62"/>
</g>
<!-- optional_aggregator&#45;&gt;error -->
<g id="edge71" class="edge">
<title>optional_aggregator&#45;&gt;error</title>
<path fill="none" stroke="black" d="M1084.82,-432.38C1056.04,-402.44 1003.97,-337.96 1033,-288 1045.19,-267.03 1069.13,-253.66 1089.67,-245.6"/>
<polygon fill="black" stroke="black" points="1090.68,-248.95 1098.9,-242.27 1088.3,-242.37 1090.68,-248.95"/>
</g>
<!-- optional_aggregator&#45;&gt;option -->
<g id="edge70" class="edge">
<title>optional_aggregator&#45;&gt;option</title>
<path fill="none" stroke="black" d="M1072.46,-432.87C1035.22,-410.11 976,-364.84 976,-307 976,-307 976,-307 976,-233 976,-126.7 592.67,-99.11 459.75,-92.74"/>
<polygon fill="black" stroke="black" points="460.08,-89.25 449.93,-92.29 459.75,-96.24 460.08,-89.25"/>
</g>
<!-- aggregator -->
<g id="node27" class="node">
<title>aggregator</title>
<ellipse fill="none" stroke="black" cx="1202" cy="-306" rx="48.19" ry="18"/>
<text text-anchor="middle" x="1202" y="-302.3" font-family="Times,serif" font-size="14.00">aggregator</text>
</g>
<!-- optional_aggregator&#45;&gt;aggregator -->
<g id="edge72" class="edge">
<title>optional_aggregator&#45;&gt;aggregator</title>
<path fill="none" stroke="black" d="M1170.93,-440.12C1198.03,-432.88 1226.55,-419.76 1243,-396 1256.98,-375.81 1242.15,-350.08 1226.56,-331.49"/>
<polygon fill="black" stroke="black" points="1229.25,-329.25 1219.98,-324.12 1224.03,-333.91 1229.25,-329.25"/>
</g>
<!-- aggregator_factory -->
<g id="node28" class="node">
<title>aggregator_factory</title>
<ellipse fill="none" stroke="black" cx="1157" cy="-378" rx="77.19" ry="18"/>
<text text-anchor="middle" x="1157" y="-374.3" font-family="Times,serif" font-size="14.00">aggregator_factory</text>
</g>
<!-- optional_aggregator&#45;&gt;aggregator_factory -->
<g id="edge73" class="edge">
<title>optional_aggregator&#45;&gt;aggregator_factory</title>
<path fill="none" stroke="black" d="M1115.31,-432.05C1121.73,-423.89 1129.57,-413.91 1136.71,-404.82"/>
<polygon fill="black" stroke="black" points="1139.45,-407 1142.87,-396.98 1133.94,-402.68 1139.45,-407"/>
</g>
<!-- comparator&#45;&gt;bcs -->
<g id="edge74" class="edge">
<title>comparator&#45;&gt;bcs</title>
<path fill="none" stroke="black" d="M530.68,-288.05C535.27,-280.03 540.85,-270.26 545.97,-261.3"/>
<polygon fill="black" stroke="black" points="549.01,-263.04 550.93,-252.62 542.93,-259.57 549.01,-263.04"/>
</g>
<!-- features&#45;&gt;signer -->
<g id="edge75" class="edge">
<title>features&#45;&gt;signer</title>
<path fill="none" stroke="black" d="M1971.72,-292.32C1994.79,-280.95 2028.83,-264.17 2054.12,-251.7"/>
<polygon fill="black" stroke="black" points="2055.58,-254.88 2063.01,-247.32 2052.49,-248.6 2055.58,-254.88"/>
</g>
<!-- features&#45;&gt;error -->
<g id="edge76" class="edge">
<title>features&#45;&gt;error</title>
<path fill="none" stroke="black" d="M1912.25,-297.24C1896.72,-293.93 1878,-290.3 1861,-288 1791.87,-278.63 1306.97,-246.75 1164.98,-237.52"/>
<polygon fill="black" stroke="black" points="1165.55,-234.05 1155.34,-236.9 1165.1,-241.04 1165.55,-234.05"/>
</g>
<!-- copyable_any&#45;&gt;error -->
<g id="edge79" class="edge">
<title>copyable_any&#45;&gt;error</title>
<path fill="none" stroke="black" d="M1359.33,-293.75C1304.8,-280.02 1213.58,-257.05 1162.86,-244.28"/>
<polygon fill="black" stroke="black" points="1163.8,-240.91 1153.25,-241.86 1162.09,-247.7 1163.8,-240.91"/>
</g>
<!-- copyable_any&#45;&gt;type_info -->
<g id="edge78" class="edge">
<title>copyable_any&#45;&gt;type_info</title>
<path fill="none" stroke="black" d="M1350.54,-297.58C1253.53,-284.1 1049.61,-255.78 952.96,-242.36"/>
<polygon fill="black" stroke="black" points="953.61,-238.91 943.22,-241 952.64,-245.85 953.61,-238.91"/>
</g>
<!-- copyable_any&#45;&gt;bcs -->
<g id="edge80" class="edge">
<title>copyable_any&#45;&gt;bcs</title>
<path fill="none" stroke="black" d="M1350,-298.14C1322.75,-294.81 1289.15,-290.91 1259,-288 1007.7,-263.74 704.6,-243.95 599.27,-237.35"/>
<polygon fill="black" stroke="black" points="599.69,-233.87 589.49,-236.74 599.26,-240.86 599.69,-233.87"/>
</g>
<!-- copyable_any&#45;&gt;from_bcs -->
<g id="edge81" class="edge">
<title>copyable_any&#45;&gt;from_bcs</title>
<path fill="none" stroke="black" d="M1417.07,-288.05C1423.53,-279.68 1431.46,-269.4 1438.61,-260.13"/>
<polygon fill="black" stroke="black" points="1441.16,-262.56 1444.5,-252.51 1435.62,-258.29 1441.16,-262.56"/>
</g>
<!-- copyable_any&#45;&gt;string -->
<g id="edge77" class="edge">
<title>copyable_any&#45;&gt;string</title>
<path fill="none" stroke="black" d="M1402.68,-287.81C1401.66,-269.79 1400.99,-240.71 1405,-216 1406.37,-207.57 1408.82,-198.65 1411.44,-190.57"/>
<polygon fill="black" stroke="black" points="1414.68,-191.89 1414.66,-181.3 1408.07,-189.59 1414.68,-191.89"/>
</g>
<!-- aggregator_factory&#45;&gt;error -->
<g id="edge83" class="edge">
<title>aggregator_factory&#45;&gt;error</title>
<path fill="none" stroke="black" d="M1153.06,-359.83C1150.69,-349.46 1147.63,-335.98 1145,-324 1140.53,-303.69 1135.64,-280.74 1131.93,-263.23"/>
<polygon fill="black" stroke="black" points="1135.38,-262.62 1129.89,-253.56 1128.53,-264.06 1135.38,-262.62"/>
</g>
<!-- aggregator_factory&#45;&gt;table -->
<g id="edge82" class="edge">
<title>aggregator_factory&#45;&gt;table</title>
<path fill="none" stroke="black" d="M1136.38,-360.41C1124.25,-350.65 1108.8,-338.22 1095.86,-327.81"/>
<polygon fill="black" stroke="black" points="1098.13,-325.14 1088.14,-321.6 1093.74,-330.59 1098.13,-325.14"/>
</g>
<!-- aggregator_factory&#45;&gt;system_addresses -->
<g id="edge84" class="edge">
<title>aggregator_factory&#45;&gt;system_addresses</title>
<path fill="none" stroke="black" d="M1220.93,-367.56C1308.62,-354.61 1465.82,-331.39 1558.03,-317.78"/>
<polygon fill="black" stroke="black" points="1558.33,-321.27 1567.72,-316.35 1557.31,-314.34 1558.33,-321.27"/>
</g>
<!-- aggregator_factory&#45;&gt;aggregator -->
<g id="edge85" class="edge">
<title>aggregator_factory&#45;&gt;aggregator</title>
<path fill="none" stroke="black" d="M1168.12,-359.7C1173.27,-351.7 1179.49,-342.02 1185.19,-333.15"/>
<polygon fill="black" stroke="black" points="1188.03,-335.2 1190.5,-324.9 1182.14,-331.41 1188.03,-335.2"/>
</g>
</g>
</svg>
