<?xml version="1.0" encoding="UTF-8" standalone="no"?>
<!DOCTYPE svg PUBLIC "-//W3C//DTD SVG 1.1//EN"
 "http://www.w3.org/Graphics/SVG/1.1/DTD/svg11.dtd">
<!-- Generated by graphviz version 7.0.0 (20221023.0053)
 -->
<!-- Title: G Pages: 1 -->
<svg width="2630pt" height="908pt"
 viewBox="0.00 0.00 2630.00 908.00" xmlns="http://www.w3.org/2000/svg" xmlns:xlink="http://www.w3.org/1999/xlink">
<g id="graph0" class="graph" transform="scale(1 1) rotate(0) translate(4 904)">
<title>G</title>
<polygon fill="white" stroke="none" points="-4,4 -4,-904 2626,-904 2626,4 -4,4"/>
<!-- staking_proxy -->
<g id="node1" class="node">
<title>staking_proxy</title>
<ellipse fill="none" stroke="black" cx="1893" cy="-882" rx="61.19" ry="18"/>
<text text-anchor="middle" x="1893" y="-878.3" font-family="Times,serif" font-size="14.00">staking_proxy</text>
</g>
<!-- signer -->
<g id="node2" class="node">
<title>signer</title>
<ellipse fill="none" stroke="black" cx="2253" cy="-234" rx="32.49" ry="18"/>
<text text-anchor="middle" x="2253" y="-230.3" font-family="Times,serif" font-size="14.00">signer</text>
</g>
<!-- staking_proxy&#45;&gt;signer -->
<g id="edge1" class="edge">
<title>staking_proxy&#45;&gt;signer</title>
<path fill="none" stroke="black" d="M1951.12,-875.83C2123.83,-859.69 2622,-807.22 2622,-739 2622,-739 2622,-739 2622,-521 2622,-356.08 2388.88,-272.64 2293.22,-245.35"/>
<polygon fill="black" stroke="black" points="2294.29,-242.01 2283.72,-242.7 2292.42,-248.76 2294.29,-242.01"/>
</g>
<!-- stake -->
<g id="node3" class="node">
<title>stake</title>
<ellipse fill="none" stroke="black" cx="1549" cy="-666" rx="28.7" ry="18"/>
<text text-anchor="middle" x="1549" y="-662.3" font-family="Times,serif" font-size="14.00">stake</text>
</g>
<!-- staking_proxy&#45;&gt;stake -->
<g id="edge2" class="edge">
<title>staking_proxy&#45;&gt;stake</title>
<path fill="none" stroke="black" d="M1867.7,-865.26C1805.42,-826.52 1644.92,-726.67 1578.47,-685.34"/>
<polygon fill="black" stroke="black" points="1580.64,-682.56 1570.3,-680.25 1576.94,-688.5 1580.64,-682.56"/>
</g>
<!-- staking_contract -->
<g id="node4" class="node">
<title>staking_contract</title>
<ellipse fill="none" stroke="black" cx="841" cy="-738" rx="68.79" ry="18"/>
<text text-anchor="middle" x="841" y="-734.3" font-family="Times,serif" font-size="14.00">staking_contract</text>
</g>
<!-- staking_proxy&#45;&gt;staking_contract -->
<g id="edge3" class="edge">
<title>staking_proxy&#45;&gt;staking_contract</title>
<path fill="none" stroke="black" d="M1835.39,-875.41C1684.88,-860.42 1267.75,-816.31 924,-756 917.6,-754.88 910.93,-753.63 904.28,-752.35"/>
<polygon fill="black" stroke="black" points="905.13,-748.95 894.64,-750.45 903.78,-755.82 905.13,-748.95"/>
</g>
<!-- vesting -->
<g id="node5" class="node">
<title>vesting</title>
<ellipse fill="none" stroke="black" cx="1461" cy="-810" rx="36.29" ry="18"/>
<text text-anchor="middle" x="1461" y="-806.3" font-family="Times,serif" font-size="14.00">vesting</text>
</g>
<!-- staking_proxy&#45;&gt;vesting -->
<g id="edge4" class="edge">
<title>staking_proxy&#45;&gt;vesting</title>
<path fill="none" stroke="black" d="M1840.46,-872.49C1754.95,-858.63 1587.12,-831.44 1506.43,-818.36"/>
<polygon fill="black" stroke="black" points="1507.11,-814.93 1496.68,-816.78 1505.99,-821.84 1507.11,-814.93"/>
</g>
<!-- stake&#45;&gt;signer -->
<g id="edge7" class="edge">
<title>stake&#45;&gt;signer</title>
<path fill="none" stroke="black" d="M1577.75,-664.07C1660.24,-660.21 1902.43,-640.45 2069,-540 2174.33,-476.48 2206.44,-441.74 2242,-324 2247.92,-304.38 2250.67,-281.41 2251.93,-263.72"/>
<polygon fill="black" stroke="black" points="2255.41,-264.12 2252.5,-253.93 2248.42,-263.71 2255.41,-264.12"/>
</g>
<!-- vector -->
<g id="node6" class="node">
<title>vector</title>
<ellipse fill="none" stroke="black" cx="1622" cy="-18" rx="32.49" ry="18"/>
<text text-anchor="middle" x="1622" y="-14.3" font-family="Times,serif" font-size="14.00">vector</text>
</g>
<!-- stake&#45;&gt;vector -->
<g id="edge5" class="edge">
<title>stake&#45;&gt;vector</title>
<path fill="none" stroke="black" d="M1577.87,-664.01C1658.37,-660.85 1891.9,-648.94 2082,-612 2137.91,-601.14 2149.31,-587.97 2205,-576 2318.19,-551.67 2360.28,-593.41 2463,-540 2510.99,-515.05 2546,-505.09 2546,-451 2546,-451 2546,-451 2546,-161 2546,-42.64 2410.77,-96.64 2295,-72 2061.86,-22.39 1774.4,-18.15 1666.07,-18.51"/>
<polygon fill="black" stroke="black" points="1666.15,-15.01 1656.17,-18.56 1666.18,-22.01 1666.15,-15.01"/>
</g>
<!-- option -->
<g id="node7" class="node">
<title>option</title>
<ellipse fill="none" stroke="black" cx="1458" cy="-90" rx="33.29" ry="18"/>
<text text-anchor="middle" x="1458" y="-86.3" font-family="Times,serif" font-size="14.00">option</text>
</g>
<!-- stake&#45;&gt;option -->
<g id="edge6" class="edge">
<title>stake&#45;&gt;option</title>
<path fill="none" stroke="black" d="M1577.24,-661.83C1644.4,-654.2 1818.91,-633.81 1964,-612 2056.78,-598.05 2079.25,-590.11 2172,-576 2232.71,-566.76 2405.5,-586.17 2446,-540 2456.55,-527.97 2447.39,-519.94 2446,-504 2437.52,-406.89 2459.21,-370.94 2408,-288 2379.79,-242.32 2358.67,-240.7 2311,-216 2220.03,-168.86 2192.41,-164.41 2092,-144 1874.43,-99.78 1607.66,-92.33 1503.09,-91.16"/>
<polygon fill="black" stroke="black" points="1503.28,-87.67 1493.24,-91.07 1503.21,-94.67 1503.28,-87.67"/>
</g>
<!-- error -->
<g id="node8" class="node">
<title>error</title>
<ellipse fill="none" stroke="black" cx="1052" cy="-234" rx="27.9" ry="18"/>
<text text-anchor="middle" x="1052" y="-230.3" font-family="Times,serif" font-size="14.00">error</text>
</g>
<!-- stake&#45;&gt;error -->
<g id="edge8" class="edge">
<title>stake&#45;&gt;error</title>
<path fill="none" stroke="black" d="M1524.82,-656.13C1501.48,-646.96 1465.68,-631.29 1438,-612 1400.35,-585.77 1396.44,-572.45 1364,-540 1348.22,-524.22 1344.88,-519.68 1329,-504 1279.33,-454.97 1265.18,-444.51 1215,-396 1182.24,-364.33 1174.42,-356.02 1142,-324 1118.95,-301.24 1092.6,-275.18 1074.4,-257.16"/>
<polygon fill="black" stroke="black" points="1077.29,-255.11 1067.72,-250.56 1072.37,-260.08 1077.29,-255.11"/>
</g>
<!-- system_addresses -->
<g id="node9" class="node">
<title>system_addresses</title>
<ellipse fill="none" stroke="black" cx="1866" cy="-306" rx="73.39" ry="18"/>
<text text-anchor="middle" x="1866" y="-302.3" font-family="Times,serif" font-size="14.00">system_addresses</text>
</g>
<!-- stake&#45;&gt;system_addresses -->
<g id="edge9" class="edge">
<title>stake&#45;&gt;system_addresses</title>
<path fill="none" stroke="black" d="M1570.35,-653.73C1655.9,-608.37 1970.44,-439.5 1995,-396 2002.87,-382.07 2003.91,-373.29 1995,-360 1981.74,-340.21 1959.61,-327.8 1937.39,-320.03"/>
<polygon fill="black" stroke="black" points="1938.55,-316.72 1927.96,-317.03 1936.43,-323.39 1938.55,-316.72"/>
</g>
<!-- event -->
<g id="node10" class="node">
<title>event</title>
<ellipse fill="none" stroke="black" cx="375" cy="-378" rx="29.8" ry="18"/>
<text text-anchor="middle" x="375" y="-374.3" font-family="Times,serif" font-size="14.00">event</text>
</g>
<!-- stake&#45;&gt;event -->
<g id="edge10" class="edge">
<title>stake&#45;&gt;event</title>
<path fill="none" stroke="black" d="M1520.55,-662.14C1438.93,-653.8 1205.07,-629.09 1130,-612 883.33,-555.86 834.06,-498.61 590,-432 516.33,-411.9 495.41,-417.04 422,-396 418.22,-394.92 414.3,-393.68 410.41,-392.38"/>
<polygon fill="black" stroke="black" points="411.7,-389.13 401.1,-389.14 409.39,-395.74 411.7,-389.13"/>
</g>
<!-- account -->
<g id="node11" class="node">
<title>account</title>
<ellipse fill="none" stroke="black" cx="948" cy="-450" rx="38.19" ry="18"/>
<text text-anchor="middle" x="948" y="-446.3" font-family="Times,serif" font-size="14.00">account</text>
</g>
<!-- stake&#45;&gt;account -->
<g id="edge11" class="edge">
<title>stake&#45;&gt;account</title>
<path fill="none" stroke="black" d="M1520.48,-663.07C1463.03,-658.59 1329.76,-645.23 1223,-612 1151.63,-589.78 1135.33,-578.07 1071,-540 1036.56,-519.62 999.7,-492.1 975.41,-473.09"/>
<polygon fill="black" stroke="black" points="977.64,-470.39 967.62,-466.94 973.3,-475.88 977.64,-470.39"/>
</g>
<!-- coin -->
<g id="node12" class="node">
<title>coin</title>
<ellipse fill="none" stroke="black" cx="1549" cy="-522" rx="27" ry="18"/>
<text text-anchor="middle" x="1549" y="-518.3" font-family="Times,serif" font-size="14.00">coin</text>
</g>
<!-- stake&#45;&gt;coin -->
<g id="edge12" class="edge">
<title>stake&#45;&gt;coin</title>
<path fill="none" stroke="black" d="M1549,-647.59C1549,-623.61 1549,-580.14 1549,-551.42"/>
<polygon fill="black" stroke="black" points="1552.5,-551.62 1549,-541.62 1545.5,-551.62 1552.5,-551.62"/>
</g>
<!-- aptos_coin -->
<g id="node13" class="node">
<title>aptos_coin</title>
<ellipse fill="none" stroke="black" cx="1829" cy="-594" rx="48.99" ry="18"/>
<text text-anchor="middle" x="1829" y="-590.3" font-family="Times,serif" font-size="14.00">aptos_coin</text>
</g>
<!-- stake&#45;&gt;aptos_coin -->
<g id="edge13" class="edge">
<title>stake&#45;&gt;aptos_coin</title>
<path fill="none" stroke="black" d="M1575.78,-658.68C1616.8,-648.94 1697.64,-629.57 1766,-612 1770.51,-610.84 1775.19,-609.62 1779.87,-608.38"/>
<polygon fill="black" stroke="black" points="1780.5,-611.83 1789.26,-605.88 1778.7,-605.07 1780.5,-611.83"/>
</g>
<!-- timestamp -->
<g id="node14" class="node">
<title>timestamp</title>
<ellipse fill="none" stroke="black" cx="1272" cy="-522" rx="48.19" ry="18"/>
<text text-anchor="middle" x="1272" y="-518.3" font-family="Times,serif" font-size="14.00">timestamp</text>
</g>
<!-- stake&#45;&gt;timestamp -->
<g id="edge14" class="edge">
<title>stake&#45;&gt;timestamp</title>
<path fill="none" stroke="black" d="M1519.95,-664.21C1476.01,-661.69 1391.67,-651.62 1334,-612 1311.63,-596.63 1294.8,-570.37 1284.36,-550.34"/>
<polygon fill="black" stroke="black" points="1287.61,-549.01 1280.03,-541.6 1281.34,-552.12 1287.61,-549.01"/>
</g>
<!-- staking_config -->
<g id="node15" class="node">
<title>staking_config</title>
<ellipse fill="none" stroke="black" cx="1143" cy="-522" rx="63.09" ry="18"/>
<text text-anchor="middle" x="1143" y="-518.3" font-family="Times,serif" font-size="14.00">staking_config</text>
</g>
<!-- stake&#45;&gt;staking_config -->
<g id="edge15" class="edge">
<title>stake&#45;&gt;staking_config</title>
<path fill="none" stroke="black" d="M1520.84,-662.08C1473.23,-656.5 1374.34,-642.09 1296,-612 1251.41,-594.88 1204.57,-565.74 1174.64,-545.49"/>
<polygon fill="black" stroke="black" points="1176.64,-542.62 1166.42,-539.85 1172.68,-548.39 1176.64,-542.62"/>
</g>
<!-- math64 -->
<g id="node16" class="node">
<title>math64</title>
<ellipse fill="none" stroke="black" cx="2252" cy="-594" rx="37.89" ry="18"/>
<text text-anchor="middle" x="2252" y="-590.3" font-family="Times,serif" font-size="14.00">math64</text>
</g>
<!-- stake&#45;&gt;math64 -->
<g id="edge16" class="edge">
<title>stake&#45;&gt;math64</title>
<path fill="none" stroke="black" d="M1577.89,-665.05C1669.78,-664.7 1963.22,-659.65 2200,-612 2203.89,-611.22 2207.89,-610.24 2211.87,-609.15"/>
<polygon fill="black" stroke="black" points="2212.87,-612.5 2221.45,-606.28 2210.86,-605.79 2212.87,-612.5"/>
</g>
<!-- bls12381 -->
<g id="node17" class="node">
<title>bls12381</title>
<ellipse fill="none" stroke="black" cx="1349" cy="-306" rx="42.79" ry="18"/>
<text text-anchor="middle" x="1349" y="-302.3" font-family="Times,serif" font-size="14.00">bls12381</text>
</g>
<!-- stake&#45;&gt;bls12381 -->
<g id="edge17" class="edge">
<title>stake&#45;&gt;bls12381</title>
<path fill="none" stroke="black" d="M1531.38,-651.3C1485.09,-614.87 1362.24,-515.19 1342,-468 1323.36,-424.53 1332.39,-368.25 1340.68,-335.05"/>
<polygon fill="black" stroke="black" points="1343.95,-336.35 1343.14,-325.79 1337.19,-334.55 1343.95,-336.35"/>
</g>
<!-- staking_contract&#45;&gt;signer -->
<g id="edge19" class="edge">
<title>staking_contract&#45;&gt;signer</title>
<path fill="none" stroke="black" d="M909.82,-736.41C1051.04,-734.36 1383.48,-725.15 1659,-684 1796.75,-663.43 1832.86,-658.93 1964,-612 2078.26,-571.11 2118.49,-561.38 2196,-468 2240.73,-414.11 2249.22,-393.2 2260,-324 2263.14,-303.84 2261.2,-280.89 2258.58,-263.34"/>
<polygon fill="black" stroke="black" points="2262.06,-262.93 2256.95,-253.64 2255.15,-264.09 2262.06,-262.93"/>
</g>
<!-- staking_contract&#45;&gt;stake -->
<g id="edge28" class="edge">
<title>staking_contract&#45;&gt;stake</title>
<path fill="none" stroke="black" d="M904.45,-730.73C1047.69,-716.56 1392.68,-682.46 1509.54,-670.9"/>
<polygon fill="black" stroke="black" points="1509.64,-674.41 1519.25,-669.94 1508.95,-667.44 1509.64,-674.41"/>
</g>
<!-- staking_contract&#45;&gt;vector -->
<g id="edge18" class="edge">
<title>staking_contract&#45;&gt;vector</title>
<path fill="none" stroke="black" d="M772.16,-735.96C651.77,-733.14 408.65,-722.68 334,-684 113.17,-569.58 0,-483.71 0,-235 0,-235 0,-235 0,-161 0,-117.07 6.19,-95.97 43,-72 109.01,-29.02 1328.19,-20.5 1577.64,-19.2"/>
<polygon fill="black" stroke="black" points="1577.61,-22.7 1587.59,-19.15 1577.58,-15.7 1577.61,-22.7"/>
</g>
<!-- staking_contract&#45;&gt;error -->
<g id="edge20" class="edge">
<title>staking_contract&#45;&gt;error</title>
<path fill="none" stroke="black" d="M834.38,-719.8C820.34,-680.87 790.38,-583.22 810,-504 836.1,-398.63 843.76,-361.1 924,-288 949.63,-264.65 986.98,-250.79 1014.72,-243.14"/>
<polygon fill="black" stroke="black" points="1015.32,-246.6 1024.12,-240.7 1013.56,-239.83 1015.32,-246.6"/>
</g>
<!-- staking_contract&#45;&gt;event -->
<g id="edge22" class="edge">
<title>staking_contract&#45;&gt;event</title>
<path fill="none" stroke="black" d="M777.53,-730.68C699.13,-718.97 576,-686.08 576,-595 576,-595 576,-595 576,-521 576,-476.87 565.35,-460.9 532,-432 493.12,-398.31 470.64,-412.75 422,-396 418.28,-394.72 414.4,-393.36 410.53,-391.98"/>
<polygon fill="black" stroke="black" points="411.85,-388.74 401.25,-388.65 409.48,-395.33 411.85,-388.74"/>
</g>
<!-- staking_contract&#45;&gt;account -->
<g id="edge23" class="edge">
<title>staking_contract&#45;&gt;account</title>
<path fill="none" stroke="black" d="M846.66,-719.57C859.44,-680.57 891.93,-583.44 924,-504 927.42,-495.53 931.41,-486.44 935.15,-478.21"/>
<polygon fill="black" stroke="black" points="938.21,-479.95 939.22,-469.4 931.85,-477.02 938.21,-479.95"/>
</g>
<!-- staking_contract&#45;&gt;coin -->
<g id="edge24" class="edge">
<title>staking_contract&#45;&gt;coin</title>
<path fill="none" stroke="black" d="M884.75,-723.77C1014.59,-684.53 1395.96,-569.26 1513.86,-533.62"/>
<polygon fill="black" stroke="black" points="1514.74,-537.01 1523.3,-530.77 1512.71,-530.31 1514.74,-537.01"/>
</g>
<!-- staking_contract&#45;&gt;aptos_coin -->
<g id="edge25" class="edge">
<title>staking_contract&#45;&gt;aptos_coin</title>
<path fill="none" stroke="black" d="M908.87,-734.62C1067.47,-728.66 1458.63,-711.59 1587,-684 1660.69,-668.16 1742.14,-634.66 1789.26,-613.57"/>
<polygon fill="black" stroke="black" points="1790.58,-616.82 1798.25,-609.51 1787.69,-610.44 1790.58,-616.82"/>
</g>
<!-- staking_contract&#45;&gt;staking_config -->
<g id="edge27" class="edge">
<title>staking_contract&#45;&gt;staking_config</title>
<path fill="none" stroke="black" d="M858.71,-720.27C892.03,-689.32 967.08,-622.09 1038,-576 1057.36,-563.42 1080.1,-551.61 1099.46,-542.35"/>
<polygon fill="black" stroke="black" points="1100.89,-545.54 1108.45,-538.12 1097.91,-539.21 1100.89,-545.54"/>
</g>
<!-- bcs -->
<g id="node18" class="node">
<title>bcs</title>
<ellipse fill="none" stroke="black" cx="348" cy="-234" rx="27" ry="18"/>
<text text-anchor="middle" x="348" y="-230.3" font-family="Times,serif" font-size="14.00">bcs</text>
</g>
<!-- staking_contract&#45;&gt;bcs -->
<g id="edge21" class="edge">
<title>staking_contract&#45;&gt;bcs</title>
<path fill="none" stroke="black" d="M772.56,-735.6C661.1,-732.26 446.27,-721.08 381,-684 294.39,-634.8 111.52,-367.9 171,-288 187.69,-265.58 263.65,-249.13 310.47,-240.91"/>
<polygon fill="black" stroke="black" points="310.93,-244.38 320.2,-239.25 309.76,-237.48 310.93,-244.38"/>
</g>
<!-- simple_map -->
<g id="node19" class="node">
<title>simple_map</title>
<ellipse fill="none" stroke="black" cx="273" cy="-378" rx="54.69" ry="18"/>
<text text-anchor="middle" x="273" y="-374.3" font-family="Times,serif" font-size="14.00">simple_map</text>
</g>
<!-- staking_contract&#45;&gt;simple_map -->
<g id="edge26" class="edge">
<title>staking_contract&#45;&gt;simple_map</title>
<path fill="none" stroke="black" d="M781.55,-728.56C670.12,-711.06 441,-666.39 441,-595 441,-595 441,-595 441,-521 441,-457.67 370.5,-416.8 320.84,-395.87"/>
<polygon fill="black" stroke="black" points="322.27,-392.67 311.69,-392.15 319.64,-399.16 322.27,-392.67"/>
</g>
<!-- pool_u64 -->
<g id="node20" class="node">
<title>pool_u64</title>
<ellipse fill="none" stroke="black" cx="273" cy="-450" rx="44.39" ry="18"/>
<text text-anchor="middle" x="273" y="-446.3" font-family="Times,serif" font-size="14.00">pool_u64</text>
</g>
<!-- staking_contract&#45;&gt;pool_u64 -->
<g id="edge29" class="edge">
<title>staking_contract&#45;&gt;pool_u64</title>
<path fill="none" stroke="black" d="M772.94,-735.08C670.65,-731.07 483.28,-719.05 427,-684 348.34,-635.01 301.3,-529.31 282.51,-478.88"/>
<polygon fill="black" stroke="black" points="285.83,-477.79 279.14,-469.57 279.25,-480.17 285.83,-477.79"/>
</g>
<!-- vesting&#45;&gt;signer -->
<g id="edge32" class="edge">
<title>vesting&#45;&gt;signer</title>
<path fill="none" stroke="black" d="M1497.43,-809.02C1597.64,-808.44 1885.5,-802.53 2119,-756 2244.99,-730.9 2394,-795.46 2394,-667 2394,-667 2394,-667 2394,-377 2394,-316.95 2329.72,-273.25 2287.96,-251.2"/>
<polygon fill="black" stroke="black" points="2289.73,-248.18 2279.23,-246.76 2286.55,-254.41 2289.73,-248.18"/>
</g>
<!-- vesting&#45;&gt;stake -->
<g id="edge44" class="edge">
<title>vesting&#45;&gt;stake</title>
<path fill="none" stroke="black" d="M1485.38,-796.23C1500.52,-787.04 1519.12,-773.24 1530,-756 1541.41,-737.92 1546.07,-714.08 1547.92,-695.62"/>
<polygon fill="black" stroke="black" points="1551.39,-696.13 1548.66,-685.9 1544.41,-695.6 1551.39,-696.13"/>
</g>
<!-- vesting&#45;&gt;staking_contract -->
<g id="edge46" class="edge">
<title>vesting&#45;&gt;staking_contract</title>
<path fill="none" stroke="black" d="M1425.02,-806.74C1338.4,-801.03 1111.57,-784.39 924,-756 917.3,-754.99 910.33,-753.79 903.4,-752.5"/>
<polygon fill="black" stroke="black" points="904.18,-749.09 893.7,-750.64 902.86,-755.96 904.18,-749.09"/>
</g>
<!-- vesting&#45;&gt;vector -->
<g id="edge30" class="edge">
<title>vesting&#45;&gt;vector</title>
<path fill="none" stroke="black" d="M1497.65,-808.73C1647.93,-807.36 2217.22,-799.36 2391,-756 2482.65,-733.13 2584,-761.46 2584,-667 2584,-667 2584,-667 2584,-521 2584,-424.4 2622,-403.6 2622,-307 2622,-307 2622,-307 2622,-161 2622,-65.33 2518.79,-95.3 2426,-72 2280.03,-35.34 1811.44,-22.87 1665.69,-19.82"/>
<polygon fill="black" stroke="black" points="1666.15,-16.33 1656.08,-19.62 1666.01,-23.32 1666.15,-16.33"/>
</g>
<!-- vesting&#45;&gt;error -->
<g id="edge33" class="edge">
<title>vesting&#45;&gt;error</title>
<path fill="none" stroke="black" d="M1425.53,-805.39C1350.45,-797.43 1177.86,-777.39 1123,-756 1030.75,-720.03 1002.95,-697.5 953,-612 911,-540.1 880.54,-512.72 901,-432 918.88,-361.44 931.03,-342.74 979,-288 991.25,-274.03 1007.82,-261.62 1022.08,-252.34"/>
<polygon fill="black" stroke="black" points="1023.61,-255.51 1030.21,-247.23 1019.88,-249.58 1023.61,-255.51"/>
</g>
<!-- vesting&#45;&gt;system_addresses -->
<g id="edge34" class="edge">
<title>vesting&#45;&gt;system_addresses</title>
<path fill="none" stroke="black" d="M1497.71,-809.14C1590.52,-808.74 1841.55,-803.02 2044,-756 2131.15,-735.76 2155,-729.56 2232,-684 2274.61,-658.79 2296.18,-656.92 2317,-612 2380.89,-474.14 2331.87,-491.02 2090,-360 2045.05,-335.65 1989.1,-322.4 1944.36,-315.24"/>
<polygon fill="black" stroke="black" points="1945.15,-311.82 1934.74,-313.78 1944.1,-318.74 1945.15,-311.82"/>
</g>
<!-- vesting&#45;&gt;event -->
<g id="edge36" class="edge">
<title>vesting&#45;&gt;event</title>
<path fill="none" stroke="black" d="M1424.54,-809.7C1320.14,-810.96 1011.6,-809.54 763,-756 649.75,-731.61 518,-782.85 518,-667 518,-667 518,-667 518,-521 518,-459.72 451.06,-415.82 408.78,-394.21"/>
<polygon fill="black" stroke="black" points="410.49,-391.15 399.97,-389.86 407.39,-397.42 410.49,-391.15"/>
</g>
<!-- vesting&#45;&gt;account -->
<g id="edge37" class="edge">
<title>vesting&#45;&gt;account</title>
<path fill="none" stroke="black" d="M1425.76,-805.19C1336.67,-793.64 1100.75,-750.83 977,-612 944.37,-575.4 942.56,-514.94 944.84,-479.45"/>
<polygon fill="black" stroke="black" points="948.33,-479.78 945.65,-469.53 941.35,-479.21 948.33,-479.78"/>
</g>
<!-- vesting&#45;&gt;coin -->
<g id="edge38" class="edge">
<title>vesting&#45;&gt;coin</title>
<path fill="none" stroke="black" d="M1497.6,-808.23C1581.96,-805.8 1796.16,-795.87 1970,-756 2061.68,-734.97 2083.37,-722.91 2169,-684 2229.13,-656.68 2265.47,-668.9 2299,-612 2307.12,-598.22 2309.91,-587.71 2299,-576 2250.2,-523.63 1734.48,-522.09 1587.75,-522.73"/>
<polygon fill="black" stroke="black" points="1587.76,-519.23 1577.78,-522.78 1587.8,-526.23 1587.76,-519.23"/>
</g>
<!-- vesting&#45;&gt;aptos_coin -->
<g id="edge39" class="edge">
<title>vesting&#45;&gt;aptos_coin</title>
<path fill="none" stroke="black" d="M1484.02,-795.61C1546.39,-759.35 1718.93,-659.01 1793.7,-615.53"/>
<polygon fill="black" stroke="black" points="1795.38,-618.6 1802.27,-610.55 1791.86,-612.55 1795.38,-618.6"/>
</g>
<!-- vesting&#45;&gt;timestamp -->
<g id="edge41" class="edge">
<title>vesting&#45;&gt;timestamp</title>
<path fill="none" stroke="black" d="M1437.68,-795.95C1422.77,-786.55 1404.05,-772.63 1392,-756 1362.14,-714.8 1385.87,-687.67 1354,-648 1335,-624.35 1314.1,-636.35 1296,-612 1283,-594.51 1277.04,-570.45 1274.31,-551.75"/>
<polygon fill="black" stroke="black" points="1277.79,-551.37 1273.12,-541.86 1270.84,-552.21 1277.79,-551.37"/>
</g>
<!-- vesting&#45;&gt;math64 -->
<g id="edge43" class="edge">
<title>vesting&#45;&gt;math64</title>
<path fill="none" stroke="black" d="M1497.37,-807.46C1599.91,-802.01 1898.5,-778.53 2124,-684 2162.96,-667.67 2201.98,-638.17 2226.52,-617.63"/>
<polygon fill="black" stroke="black" points="2228.69,-620.38 2234.03,-611.23 2224.15,-615.05 2228.69,-620.38"/>
</g>
<!-- vesting&#45;&gt;bcs -->
<g id="edge35" class="edge">
<title>vesting&#45;&gt;bcs</title>
<path fill="none" stroke="black" d="M1424.5,-808.56C1231.64,-806.06 335.7,-792.57 218,-756 146.87,-733.9 76,-741.48 76,-667 76,-667 76,-667 76,-377 76,-272.84 234.69,-244.95 309.65,-237.59"/>
<polygon fill="black" stroke="black" points="309.77,-241.09 319.42,-236.71 309.14,-234.12 309.77,-241.09"/>
</g>
<!-- vesting&#45;&gt;simple_map -->
<g id="edge42" class="edge">
<title>vesting&#45;&gt;simple_map</title>
<path fill="none" stroke="black" d="M1424.28,-808.97C1212.06,-808.35 152,-798.65 152,-667 152,-667 152,-667 152,-521 152,-467.78 201.85,-424.38 237.56,-400.12"/>
<polygon fill="black" stroke="black" points="239.05,-403.33 245.48,-394.91 235.2,-397.48 239.05,-403.33"/>
</g>
<!-- vesting&#45;&gt;pool_u64 -->
<g id="edge45" class="edge">
<title>vesting&#45;&gt;pool_u64</title>
<path fill="none" stroke="black" d="M1424.46,-809.26C1271.32,-810 680.96,-809.28 504,-756 406.56,-726.66 379.88,-698.32 326,-612 307.06,-581.65 301.46,-573.89 290,-540 283.37,-520.39 279.06,-497.41 276.44,-479.72"/>
<polygon fill="black" stroke="black" points="279.92,-479.35 275.1,-469.92 272.99,-480.3 279.92,-479.35"/>
</g>
<!-- string -->
<g id="node21" class="node">
<title>string</title>
<ellipse fill="none" stroke="black" cx="2052" cy="-162" rx="30.59" ry="18"/>
<text text-anchor="middle" x="2052" y="-158.3" font-family="Times,serif" font-size="14.00">string</text>
</g>
<!-- vesting&#45;&gt;string -->
<g id="edge31" class="edge">
<title>vesting&#45;&gt;string</title>
<path fill="none" stroke="black" d="M1497.51,-807.95C1633.95,-803.84 2113.64,-787.4 2263,-756 2376.37,-732.17 2508,-782.85 2508,-667 2508,-667 2508,-667 2508,-377 2508,-195.2 2207.28,-167.54 2094.26,-163.57"/>
<polygon fill="black" stroke="black" points="2094.6,-160.08 2084.5,-163.28 2094.39,-167.08 2094.6,-160.08"/>
</g>
<!-- aptos_account -->
<g id="node22" class="node">
<title>aptos_account</title>
<ellipse fill="none" stroke="black" cx="1284" cy="-666" rx="61.19" ry="18"/>
<text text-anchor="middle" x="1284" y="-662.3" font-family="Times,serif" font-size="14.00">aptos_account</text>
</g>
<!-- vesting&#45;&gt;aptos_account -->
<g id="edge40" class="edge">
<title>vesting&#45;&gt;aptos_account</title>
<path fill="none" stroke="black" d="M1433.29,-798.14C1411.73,-788.88 1381.75,-774.2 1359,-756 1336.56,-738.05 1315.91,-712.57 1301.98,-693.48"/>
<polygon fill="black" stroke="black" points="1304.87,-691.5 1296.22,-685.38 1299.17,-695.56 1304.87,-691.5"/>
</g>
<!-- fixed_point32 -->
<g id="node23" class="node">
<title>fixed_point32</title>
<ellipse fill="none" stroke="black" cx="1461" cy="-738" rx="59.59" ry="18"/>
<text text-anchor="middle" x="1461" y="-734.3" font-family="Times,serif" font-size="14.00">fixed_point32</text>
</g>
<!-- vesting&#45;&gt;fixed_point32 -->
<g id="edge47" class="edge">
<title>vesting&#45;&gt;fixed_point32</title>
<path fill="none" stroke="black" d="M1461,-791.7C1461,-784.41 1461,-775.73 1461,-767.54"/>
<polygon fill="black" stroke="black" points="1464.5,-767.62 1461,-757.62 1457.5,-767.62 1464.5,-767.62"/>
</g>
<!-- option&#45;&gt;vector -->
<g id="edge48" class="edge">
<title>option&#45;&gt;vector</title>
<path fill="none" stroke="black" d="M1483.62,-78.06C1511.27,-66.26 1555.47,-47.4 1586.46,-34.17"/>
<polygon fill="black" stroke="black" points="1587.61,-37.48 1595.43,-30.34 1584.86,-31.05 1587.61,-37.48"/>
</g>
<!-- system_addresses&#45;&gt;signer -->
<g id="edge49" class="edge">
<title>system_addresses&#45;&gt;signer</title>
<path fill="none" stroke="black" d="M1923.94,-294.52C2002.67,-280.28 2141.58,-255.15 2211.02,-242.59"/>
<polygon fill="black" stroke="black" points="2211.64,-246.04 2220.86,-240.81 2210.4,-239.15 2211.64,-246.04"/>
</g>
<!-- system_addresses&#45;&gt;error -->
<g id="edge50" class="edge">
<title>system_addresses&#45;&gt;error</title>
<path fill="none" stroke="black" d="M1797.65,-299.12C1633.25,-284.98 1219.8,-249.43 1090.96,-238.35"/>
<polygon fill="black" stroke="black" points="1091.51,-234.88 1081.25,-237.52 1090.91,-241.86 1091.51,-234.88"/>
</g>
<!-- event&#45;&gt;bcs -->
<g id="edge51" class="edge">
<title>event&#45;&gt;bcs</title>
<path fill="none" stroke="black" d="M371.74,-359.87C367.18,-335.88 358.84,-291.99 353.35,-263.16"/>
<polygon fill="black" stroke="black" points="356.86,-262.85 351.55,-253.68 349.98,-264.15 356.86,-262.85"/>
</g>
<!-- guid -->
<g id="node24" class="node">
<title>guid</title>
<ellipse fill="none" stroke="black" cx="403" cy="-306" rx="27" ry="18"/>
<text text-anchor="middle" x="403" y="-302.3" font-family="Times,serif" font-size="14.00">guid</text>
</g>
<!-- event&#45;&gt;guid -->
<g id="edge52" class="edge">
<title>event&#45;&gt;guid</title>
<path fill="none" stroke="black" d="M381.78,-360.05C384.87,-352.32 388.62,-342.96 392.09,-334.27"/>
<polygon fill="black" stroke="black" points="395.26,-335.78 395.72,-325.19 388.76,-333.18 395.26,-335.78"/>
</g>
<!-- account&#45;&gt;signer -->
<g id="edge57" class="edge">
<title>account&#45;&gt;signer</title>
<path fill="none" stroke="black" d="M986.22,-448.66C1112.07,-447.11 1512.31,-438.88 1633,-396 1685.97,-377.18 1691.56,-357.1 1737,-324 1758.27,-308.51 1759.59,-297.84 1784,-288 1860.67,-257.1 2107.81,-241.99 2209.09,-236.97"/>
<polygon fill="black" stroke="black" points="2209.08,-240.47 2218.9,-236.49 2208.74,-233.48 2209.08,-240.47"/>
</g>
<!-- account&#45;&gt;vector -->
<g id="edge53" class="edge">
<title>account&#45;&gt;vector</title>
<path fill="none" stroke="black" d="M913.13,-442.09C895.96,-438.81 874.94,-434.96 856,-432 794.02,-422.3 627.1,-432.39 576,-396 510.91,-349.66 496,-314.9 496,-235 496,-235 496,-235 496,-161 496,-49.92 1369.66,-24.35 1577.85,-19.84"/>
<polygon fill="black" stroke="black" points="1577.78,-23.34 1587.7,-19.63 1577.63,-16.34 1577.78,-23.34"/>
</g>
<!-- account&#45;&gt;option -->
<g id="edge54" class="edge">
<title>account&#45;&gt;option</title>
<path fill="none" stroke="black" d="M947.01,-431.81C945.53,-387.89 948.35,-271.13 1015,-216 1134.21,-117.39 1326.48,-96.44 1413.12,-92.08"/>
<polygon fill="black" stroke="black" points="1413.03,-95.59 1422.87,-91.65 1412.72,-88.6 1413.03,-95.59"/>
</g>
<!-- account&#45;&gt;error -->
<g id="edge58" class="edge">
<title>account&#45;&gt;error</title>
<path fill="none" stroke="black" d="M950.83,-431.94C956.46,-401.31 971.11,-335.75 1000,-288 1007.05,-276.35 1017.14,-265.29 1026.56,-256.31"/>
<polygon fill="black" stroke="black" points="1028.76,-259.04 1033.79,-249.72 1024.04,-253.87 1028.76,-259.04"/>
</g>
<!-- account&#45;&gt;system_addresses -->
<g id="edge59" class="edge">
<title>account&#45;&gt;system_addresses</title>
<path fill="none" stroke="black" d="M986.23,-447.69C1133.81,-442.46 1661.7,-422.1 1732,-396 1757,-386.72 1757.96,-375.01 1780,-360 1795.7,-349.31 1813.5,-338.18 1828.82,-328.9"/>
<polygon fill="black" stroke="black" points="1830.42,-332.02 1837.19,-323.87 1826.81,-326.02 1830.42,-332.02"/>
</g>
<!-- account&#45;&gt;event -->
<g id="edge66" class="edge">
<title>account&#45;&gt;event</title>
<path fill="none" stroke="black" d="M911.64,-443.75C886.04,-440.16 850.97,-435.45 820,-432 642.16,-412.22 593.26,-436.64 419,-396 415.68,-395.23 412.27,-394.25 408.9,-393.17"/>
<polygon fill="black" stroke="black" points="410.39,-389.98 399.79,-389.93 408.04,-396.58 410.39,-389.98"/>
</g>
<!-- account&#45;&gt;bcs -->
<g id="edge61" class="edge">
<title>account&#45;&gt;bcs</title>
<path fill="none" stroke="black" d="M913.6,-441.94C896.36,-438.58 875.14,-434.72 856,-432 776.18,-420.67 561.72,-441.25 495,-396 450.25,-365.65 476.28,-327.16 439,-288 422.8,-270.99 399.94,-257.7 381.18,-248.68"/>
<polygon fill="black" stroke="black" points="382.9,-245.62 372.35,-244.63 379.97,-251.98 382.9,-245.62"/>
</g>
<!-- account&#45;&gt;guid -->
<g id="edge64" class="edge">
<title>account&#45;&gt;guid</title>
<path fill="none" stroke="black" d="M911.63,-443.84C886.03,-440.29 850.95,-435.59 820,-432 739.48,-422.66 525.59,-439.21 457,-396 434.81,-382.02 420.42,-355.29 412.13,-334.76"/>
<polygon fill="black" stroke="black" points="415.45,-333.66 408.66,-325.52 408.9,-336.12 415.45,-333.66"/>
</g>
<!-- type_info -->
<g id="node25" class="node">
<title>type_info</title>
<ellipse fill="none" stroke="black" cx="1869" cy="-234" rx="44.39" ry="18"/>
<text text-anchor="middle" x="1869" y="-230.3" font-family="Times,serif" font-size="14.00">type_info</text>
</g>
<!-- account&#45;&gt;type_info -->
<g id="edge55" class="edge">
<title>account&#45;&gt;type_info</title>
<path fill="none" stroke="black" d="M986.43,-448.3C1106.51,-445.71 1473.35,-434.75 1585,-396 1667.1,-367.5 1671.69,-329.59 1748,-288 1773.5,-274.1 1803.37,-260.99 1827.05,-251.28"/>
<polygon fill="black" stroke="black" points="1828.1,-254.63 1836.06,-247.64 1825.48,-248.15 1828.1,-254.63"/>
</g>
<!-- table -->
<g id="node26" class="node">
<title>table</title>
<ellipse fill="none" stroke="black" cx="1260" cy="-306" rx="27.9" ry="18"/>
<text text-anchor="middle" x="1260" y="-302.3" font-family="Times,serif" font-size="14.00">table</text>
</g>
<!-- account&#45;&gt;table -->
<g id="edge56" class="edge">
<title>account&#45;&gt;table</title>
<path fill="none" stroke="black" d="M974.87,-436.77C1032.04,-410.75 1165.55,-349.99 1227.44,-321.82"/>
<polygon fill="black" stroke="black" points="1228.75,-325.07 1236.4,-317.74 1225.85,-318.7 1228.75,-325.07"/>
</g>
<!-- hash -->
<g id="node27" class="node">
<title>hash</title>
<ellipse fill="none" stroke="black" cx="593" cy="-234" rx="27" ry="18"/>
<text text-anchor="middle" x="593" y="-230.3" font-family="Times,serif" font-size="14.00">hash</text>
</g>
<!-- account&#45;&gt;hash -->
<g id="edge60" class="edge">
<title>account&#45;&gt;hash</title>
<path fill="none" stroke="black" d="M913.11,-442.18C895.94,-438.92 874.92,-435.07 856,-432 798.86,-422.74 636.67,-439.08 598,-396 565.52,-359.82 574.85,-298.53 584.18,-262.92"/>
<polygon fill="black" stroke="black" points="587.53,-263.93 586.87,-253.36 580.79,-262.04 587.53,-263.93"/>
</g>
<!-- ed25519 -->
<g id="node28" class="node">
<title>ed25519</title>
<ellipse fill="none" stroke="black" cx="717" cy="-306" rx="40.89" ry="18"/>
<text text-anchor="middle" x="717" y="-302.3" font-family="Times,serif" font-size="14.00">ed25519</text>
</g>
<!-- account&#45;&gt;ed25519 -->
<g id="edge62" class="edge">
<title>account&#45;&gt;ed25519</title>
<path fill="none" stroke="black" d="M925.43,-435.13C884.39,-409.9 797.41,-356.43 749.81,-327.17"/>
<polygon fill="black" stroke="black" points="751.65,-324.19 741.29,-321.93 747.98,-330.15 751.65,-324.19"/>
</g>
<!-- multi_ed25519 -->
<g id="node29" class="node">
<title>multi_ed25519</title>
<ellipse fill="none" stroke="black" cx="671" cy="-378" rx="64.19" ry="18"/>
<text text-anchor="middle" x="671" y="-374.3" font-family="Times,serif" font-size="14.00">multi_ed25519</text>
</g>
<!-- account&#45;&gt;multi_ed25519 -->
<g id="edge63" class="edge">
<title>account&#45;&gt;multi_ed25519</title>
<path fill="none" stroke="black" d="M914.86,-440.63C868.82,-428.99 784.81,-407.76 728.44,-393.52"/>
<polygon fill="black" stroke="black" points="729.58,-390.19 719.02,-391.14 727.86,-396.98 729.58,-390.19"/>
</g>
<!-- from_bcs -->
<g id="node30" class="node">
<title>from_bcs</title>
<ellipse fill="none" stroke="black" cx="1942" cy="-378" rx="44.39" ry="18"/>
<text text-anchor="middle" x="1942" y="-374.3" font-family="Times,serif" font-size="14.00">from_bcs</text>
</g>
<!-- account&#45;&gt;from_bcs -->
<g id="edge65" class="edge">
<title>account&#45;&gt;from_bcs</title>
<path fill="none" stroke="black" d="M986.14,-447.01C1103.27,-440.78 1468.19,-420.64 1770,-396 1809.63,-392.76 1854.32,-388.32 1888.22,-384.79"/>
<polygon fill="black" stroke="black" points="1888.19,-388.31 1897.77,-383.79 1887.46,-381.35 1888.19,-388.31"/>
</g>
<!-- coin&#45;&gt;signer -->
<g id="edge70" class="edge">
<title>coin&#45;&gt;signer</title>
<path fill="none" stroke="black" d="M1576.14,-521.68C1640.47,-522.36 1806.21,-518.63 1932,-468 1997.15,-441.78 2162.26,-309.43 2226.68,-256.71"/>
<polygon fill="black" stroke="black" points="2228.75,-259.54 2234.26,-250.49 2224.31,-254.13 2228.75,-259.54"/>
</g>
<!-- coin&#45;&gt;option -->
<g id="edge67" class="edge">
<title>coin&#45;&gt;option</title>
<path fill="none" stroke="black" d="M1526.71,-511.52C1507.22,-502.43 1478.97,-487.26 1459,-468 1431.67,-441.64 1423.65,-432.45 1413,-396 1408.51,-380.64 1405.17,-373.95 1413,-360 1428.04,-333.21 1456.96,-350.79 1472,-324 1509.03,-258.03 1484.61,-164.37 1468.67,-118.49"/>
<polygon fill="black" stroke="black" points="1472.05,-117.54 1465.36,-109.32 1465.46,-119.92 1472.05,-117.54"/>
</g>
<!-- coin&#45;&gt;error -->
<g id="edge71" class="edge">
<title>coin&#45;&gt;error</title>
<path fill="none" stroke="black" d="M1524.99,-513.33C1498.07,-504.27 1453.54,-487.89 1418,-468 1323.99,-415.38 1307.68,-390.61 1223,-324 1203.41,-308.59 1201.32,-300.92 1180,-288 1150.48,-270.11 1113.84,-255.63 1087.33,-246.35"/>
<polygon fill="black" stroke="black" points="1088.67,-243.11 1078.07,-243.18 1086.4,-249.73 1088.67,-243.11"/>
</g>
<!-- coin&#45;&gt;system_addresses -->
<g id="edge72" class="edge">
<title>coin&#45;&gt;system_addresses</title>
<path fill="none" stroke="black" d="M1576.23,-520.13C1642.47,-517.4 1809.24,-506.76 1846,-468 1879.61,-432.56 1876.86,-371.27 1871.59,-335.4"/>
<polygon fill="black" stroke="black" points="1875.09,-335.08 1870.01,-325.78 1868.18,-336.22 1875.09,-335.08"/>
</g>
<!-- coin&#45;&gt;event -->
<g id="edge73" class="edge">
<title>coin&#45;&gt;event</title>
<path fill="none" stroke="black" d="M1522.29,-518.89C1402.09,-509.4 916.54,-470.95 901,-468 846.71,-457.69 836.19,-442.8 782,-432 624.3,-400.57 578.8,-431.62 422,-396 417.95,-395.08 413.78,-393.91 409.67,-392.62"/>
<polygon fill="black" stroke="black" points="411.08,-389.4 400.48,-389.48 408.81,-396.03 411.08,-389.4"/>
</g>
<!-- coin&#45;&gt;account -->
<g id="edge74" class="edge">
<title>coin&#45;&gt;account</title>
<path fill="none" stroke="black" d="M1522.4,-517.9C1429.29,-507.06 1117.18,-470.7 996.35,-456.63"/>
<polygon fill="black" stroke="black" points="996.77,-453.16 986.43,-455.48 995.96,-460.11 996.77,-453.16"/>
</g>
<!-- coin&#45;&gt;string -->
<g id="edge68" class="edge">
<title>coin&#45;&gt;string</title>
<path fill="none" stroke="black" d="M1576.25,-520.91C1660.02,-520.12 1912.03,-513.91 1977,-468 2065.93,-405.16 2061.76,-254.78 2055.62,-191.66"/>
<polygon fill="black" stroke="black" points="2059.1,-191.32 2054.55,-181.76 2052.14,-192.07 2059.1,-191.32"/>
</g>
<!-- coin&#45;&gt;type_info -->
<g id="edge69" class="edge">
<title>coin&#45;&gt;type_info</title>
<path fill="none" stroke="black" d="M1576.12,-519.84C1632.58,-516.71 1766.22,-505.61 1871,-468 1930.98,-446.47 1963.2,-451.23 1995,-396 2026.83,-340.72 1951.87,-283.71 1904.37,-254.64"/>
<polygon fill="black" stroke="black" points="1906.38,-251.77 1896,-249.65 1902.8,-257.78 1906.38,-251.77"/>
</g>
<!-- optional_aggregator -->
<g id="node31" class="node">
<title>optional_aggregator</title>
<ellipse fill="none" stroke="black" cx="1549" cy="-450" rx="81.49" ry="18"/>
<text text-anchor="middle" x="1549" y="-446.3" font-family="Times,serif" font-size="14.00">optional_aggregator</text>
</g>
<!-- coin&#45;&gt;optional_aggregator -->
<g id="edge75" class="edge">
<title>coin&#45;&gt;optional_aggregator</title>
<path fill="none" stroke="black" d="M1549,-503.7C1549,-496.41 1549,-487.73 1549,-479.54"/>
<polygon fill="black" stroke="black" points="1552.5,-479.62 1549,-469.62 1545.5,-479.62 1552.5,-479.62"/>
</g>
<!-- aptos_coin&#45;&gt;signer -->
<g id="edge79" class="edge">
<title>aptos_coin&#45;&gt;signer</title>
<path fill="none" stroke="black" d="M1874.79,-587.15C1916.32,-580.39 1978.17,-566.59 2026,-540 2107.9,-494.47 2125.38,-472.14 2180,-396 2210.41,-353.62 2232.62,-296.55 2244.11,-262.97"/>
<polygon fill="black" stroke="black" points="2247.4,-264.17 2247.24,-253.57 2240.76,-261.95 2247.4,-264.17"/>
</g>
<!-- aptos_coin&#45;&gt;vector -->
<g id="edge76" class="edge">
<title>aptos_coin&#45;&gt;vector</title>
<path fill="none" stroke="black" d="M1873.68,-586.25C1942.45,-575.6 2070.9,-554.61 2115,-540 2312.45,-474.56 2470,-443.01 2470,-235 2470,-235 2470,-235 2470,-161 2470,-78.64 1839.79,-32.75 1665.94,-21.66"/>
<polygon fill="black" stroke="black" points="1666.18,-18.17 1655.98,-21.03 1665.73,-25.15 1666.18,-18.17"/>
</g>
<!-- aptos_coin&#45;&gt;option -->
<g id="edge77" class="edge">
<title>aptos_coin&#45;&gt;option</title>
<path fill="none" stroke="black" d="M1779.95,-592.42C1715.85,-589.98 1601.38,-579.81 1513,-540 1466.61,-519.11 1451.64,-510.72 1424,-468 1406.02,-440.21 1409.26,-428.82 1405,-396 1398.04,-342.31 1434.86,-184.24 1450.86,-119.32"/>
<polygon fill="black" stroke="black" points="1454.21,-120.35 1453.23,-109.8 1447.42,-118.66 1454.21,-120.35"/>
</g>
<!-- aptos_coin&#45;&gt;error -->
<g id="edge80" class="edge">
<title>aptos_coin&#45;&gt;error</title>
<path fill="none" stroke="black" d="M1779.72,-593.21C1705.35,-591.98 1561.12,-583.54 1448,-540 1305.23,-485.04 1292.71,-427.44 1180,-324 1162.86,-308.27 1160.59,-301.99 1142,-288 1123.59,-274.14 1101.29,-260.98 1083.49,-251.25"/>
<polygon fill="black" stroke="black" points="1085.39,-248.29 1074.92,-246.64 1082.07,-254.46 1085.39,-248.29"/>
</g>
<!-- aptos_coin&#45;&gt;system_addresses -->
<g id="edge81" class="edge">
<title>aptos_coin&#45;&gt;system_addresses</title>
<path fill="none" stroke="black" d="M1871.1,-584.66C1927.01,-571.09 2023.6,-538.31 2066,-468 2090.79,-426.9 2095.27,-398.04 2066,-360 2050.47,-339.82 1990.8,-325.74 1940.64,-317.19"/>
<polygon fill="black" stroke="black" points="1941.38,-313.76 1930.94,-315.59 1940.24,-320.67 1941.38,-313.76"/>
</g>
<!-- aptos_coin&#45;&gt;coin -->
<g id="edge82" class="edge">
<title>aptos_coin&#45;&gt;coin</title>
<path fill="none" stroke="black" d="M1789.18,-583.05C1734.72,-569.43 1637.78,-545.2 1585.25,-532.06"/>
<polygon fill="black" stroke="black" points="1586.15,-528.68 1575.6,-529.65 1584.45,-535.47 1586.15,-528.68"/>
</g>
<!-- aptos_coin&#45;&gt;string -->
<g id="edge78" class="edge">
<title>aptos_coin&#45;&gt;string</title>
<path fill="none" stroke="black" d="M1876.83,-589.35C1926.98,-583.98 2006.96,-570.97 2069,-540 2214.33,-467.45 2250.01,-408.36 2294,-252 2298.33,-236.6 2304.03,-228.47 2294,-216 2269.37,-185.39 2156.61,-171.47 2094.08,-166.02"/>
<polygon fill="black" stroke="black" points="2094.41,-162.53 2084.16,-165.19 2093.83,-169.51 2094.41,-162.53"/>
</g>
<!-- timestamp&#45;&gt;error -->
<g id="edge83" class="edge">
<title>timestamp&#45;&gt;error</title>
<path fill="none" stroke="black" d="M1239.89,-508.31C1218.94,-499.07 1191.73,-485.19 1171,-468 1104.94,-413.23 1071.57,-312.4 1058.62,-263.33"/>
<polygon fill="black" stroke="black" points="1062.05,-262.6 1056.2,-253.76 1055.26,-264.32 1062.05,-262.6"/>
</g>
<!-- timestamp&#45;&gt;system_addresses -->
<g id="edge84" class="edge">
<title>timestamp&#45;&gt;system_addresses</title>
<path fill="none" stroke="black" d="M1318.98,-517.72C1446.14,-508.65 1788.8,-482.96 1808,-468 1848.96,-436.1 1861.02,-372.73 1864.56,-335.72"/>
<polygon fill="black" stroke="black" points="1868.05,-336.01 1865.34,-325.77 1861.07,-335.47 1868.05,-336.01"/>
</g>
<!-- staking_config&#45;&gt;error -->
<g id="edge85" class="edge">
<title>staking_config&#45;&gt;error</title>
<path fill="none" stroke="black" d="M1114.3,-505.68C1100.33,-496.64 1084.71,-483.86 1076,-468 1039.8,-402.06 1043.38,-309.77 1048.16,-263.63"/>
<polygon fill="black" stroke="black" points="1051.61,-264.25 1049.27,-253.92 1044.65,-263.46 1051.61,-264.25"/>
</g>
<!-- staking_config&#45;&gt;system_addresses -->
<g id="edge86" class="edge">
<title>staking_config&#45;&gt;system_addresses</title>
<path fill="none" stroke="black" d="M1188.5,-509.19C1197.25,-507.22 1206.38,-505.38 1215,-504 1401.76,-474.19 1457.97,-522.74 1639,-468 1702.59,-448.77 1716.12,-434.88 1770,-396 1796.69,-376.74 1823.91,-350.79 1842.51,-331.88"/>
<polygon fill="black" stroke="black" points="1844.91,-334.44 1849.36,-324.82 1839.89,-329.56 1844.91,-334.44"/>
</g>
<!-- bls12381&#45;&gt;option -->
<g id="edge87" class="edge">
<title>bls12381&#45;&gt;option</title>
<path fill="none" stroke="black" d="M1357.55,-288.21C1376.38,-251.25 1421.53,-162.61 1444.33,-117.84"/>
<polygon fill="black" stroke="black" points="1447.38,-119.56 1448.8,-109.06 1441.14,-116.39 1447.38,-119.56"/>
</g>
<!-- bls12381&#45;&gt;error -->
<g id="edge88" class="edge">
<title>bls12381&#45;&gt;error</title>
<path fill="none" stroke="black" d="M1316.7,-293.87C1310.21,-291.8 1303.42,-289.74 1297,-288 1224.43,-268.35 1138.24,-251.08 1089.85,-241.93"/>
<polygon fill="black" stroke="black" points="1090.64,-238.52 1080.17,-240.12 1089.35,-245.4 1090.64,-238.52"/>
</g>
<!-- simple_map&#45;&gt;option -->
<g id="edge89" class="edge">
<title>simple_map&#45;&gt;option</title>
<path fill="none" stroke="black" d="M230.38,-366.32C208.57,-358.46 183.95,-345.32 171,-324 162.69,-310.32 162.65,-301.65 171,-288 255.74,-149.58 627.76,-157.13 736,-144 991.47,-113 1300.15,-97.69 1413.5,-92.79"/>
<polygon fill="black" stroke="black" points="1413.43,-96.3 1423.28,-92.38 1413.14,-89.31 1413.43,-96.3"/>
</g>
<!-- simple_map&#45;&gt;error -->
<g id="edge90" class="edge">
<title>simple_map&#45;&gt;error</title>
<path fill="none" stroke="black" d="M285.03,-359.97C301.03,-338.87 331.46,-303.77 367,-288 426.06,-261.79 875.9,-241.98 1012.67,-236.51"/>
<polygon fill="black" stroke="black" points="1012.45,-240.02 1022.3,-236.13 1012.17,-233.03 1012.45,-240.02"/>
</g>
<!-- comparator -->
<g id="node32" class="node">
<title>comparator</title>
<ellipse fill="none" stroke="black" cx="231" cy="-306" rx="51.19" ry="18"/>
<text text-anchor="middle" x="231" y="-302.3" font-family="Times,serif" font-size="14.00">comparator</text>
</g>
<!-- simple_map&#45;&gt;comparator -->
<g id="edge91" class="edge">
<title>simple_map&#45;&gt;comparator</title>
<path fill="none" stroke="black" d="M262.83,-360.05C258.04,-352.06 252.2,-342.33 246.84,-333.4"/>
<polygon fill="black" stroke="black" points="250,-331.86 241.85,-325.09 244,-335.46 250,-331.86"/>
</g>
<!-- pool_u64&#45;&gt;vector -->
<g id="edge92" class="edge">
<title>pool_u64&#45;&gt;vector</title>
<path fill="none" stroke="black" d="M240.82,-437.26C176.46,-411.49 38,-343.43 38,-235 38,-235 38,-235 38,-161 38,87.06 342.32,-98.17 589,-72 970.69,-31.5 1435.12,-21.68 1578.05,-19.55"/>
<polygon fill="black" stroke="black" points="1577.87,-23.05 1587.82,-19.4 1577.77,-16.05 1577.87,-23.05"/>
</g>
<!-- pool_u64&#45;&gt;error -->
<g id="edge93" class="edge">
<title>pool_u64&#45;&gt;error</title>
<path fill="none" stroke="black" d="M317.11,-447.03C418.82,-442 666.95,-426.88 744,-396 817.6,-366.51 815.66,-324.59 886,-288 927.72,-266.3 979.97,-251.41 1014.59,-243.07"/>
<polygon fill="black" stroke="black" points="1015.2,-246.52 1024.13,-240.83 1013.6,-239.7 1015.2,-246.52"/>
</g>
<!-- pool_u64&#45;&gt;simple_map -->
<g id="edge94" class="edge">
<title>pool_u64&#45;&gt;simple_map</title>
<path fill="none" stroke="black" d="M273,-431.7C273,-424.41 273,-415.73 273,-407.54"/>
<polygon fill="black" stroke="black" points="276.5,-407.62 273,-397.62 269.5,-407.62 276.5,-407.62"/>
</g>
<!-- string&#45;&gt;vector -->
<g id="edge95" class="edge">
<title>string&#45;&gt;vector</title>
<path fill="none" stroke="black" d="M2025.75,-152.33C1952.63,-128.18 1746.39,-60.08 1660.39,-31.68"/>
<polygon fill="black" stroke="black" points="1661.59,-28.39 1651,-28.58 1659.4,-35.04 1661.59,-28.39"/>
</g>
<!-- string&#45;&gt;option -->
<g id="edge96" class="edge">
<title>string&#45;&gt;option</title>
<path fill="none" stroke="black" d="M2022.14,-157.48C1924.79,-146.01 1616.32,-109.66 1501.56,-96.13"/>
<polygon fill="black" stroke="black" points="1502.28,-92.69 1491.94,-95 1501.47,-99.65 1502.28,-92.69"/>
</g>
<!-- aptos_account&#45;&gt;error -->
<g id="edge97" class="edge">
<title>aptos_account&#45;&gt;error</title>
<path fill="none" stroke="black" d="M1225.75,-659.96C1146.37,-649.54 1014,-617.94 1014,-523 1014,-523 1014,-523 1014,-377 1014,-335.95 1029,-290.43 1040.15,-262.26"/>
<polygon fill="black" stroke="black" points="1043.37,-263.64 1043.92,-253.06 1036.89,-260.99 1043.37,-263.64"/>
</g>
<!-- aptos_account&#45;&gt;account -->
<g id="edge98" class="edge">
<title>aptos_account&#45;&gt;account</title>
<path fill="none" stroke="black" d="M1224.7,-660.99C1151.51,-654.87 1032.67,-640.74 1000,-612 979.98,-594.39 962.2,-520.76 953.55,-479.44"/>
<polygon fill="black" stroke="black" points="957,-478.82 951.57,-469.72 950.14,-480.22 957,-478.82"/>
</g>
<!-- aptos_account&#45;&gt;coin -->
<g id="edge99" class="edge">
<title>aptos_account&#45;&gt;coin</title>
<path fill="none" stroke="black" d="M1312.61,-649.67C1362.95,-622.7 1466.88,-567 1518.51,-539.34"/>
<polygon fill="black" stroke="black" points="1519.91,-542.56 1527.07,-534.75 1516.6,-536.39 1519.91,-542.56"/>
</g>
<!-- aptos_account&#45;&gt;aptos_coin -->
<g id="edge100" class="edge">
<title>aptos_account&#45;&gt;aptos_coin</title>
<path fill="none" stroke="black" d="M1339.26,-657.9C1443.2,-644.55 1666.81,-615.83 1772.04,-602.32"/>
<polygon fill="black" stroke="black" points="1772.39,-605.8 1781.87,-601.05 1771.5,-598.86 1772.39,-605.8"/>
</g>
<!-- type_info&#45;&gt;string -->
<g id="edge101" class="edge">
<title>type_info&#45;&gt;string</title>
<path fill="none" stroke="black" d="M1900.46,-220.97C1932.59,-208.67 1982.42,-189.62 2016.08,-176.74"/>
<polygon fill="black" stroke="black" points="2017.33,-180.01 2025.42,-173.17 2014.83,-173.47 2017.33,-180.01"/>
</g>
<!-- ed25519&#45;&gt;option -->
<g id="edge102" class="edge">
<title>ed25519&#45;&gt;option</title>
<path fill="none" stroke="black" d="M724.93,-288.06C741.96,-253.88 785.59,-177.07 848,-144 945.94,-92.11 1289.05,-89.59 1412.95,-90.44"/>
<polygon fill="black" stroke="black" points="1412.69,-93.94 1422.72,-90.52 1412.75,-86.94 1412.69,-93.94"/>
</g>
<!-- ed25519&#45;&gt;error -->
<g id="edge104" class="edge">
<title>ed25519&#45;&gt;error</title>
<path fill="none" stroke="black" d="M749.11,-294.41C756.58,-292.13 764.53,-289.85 772,-288 857.44,-266.78 959.39,-249.45 1013.61,-240.86"/>
<polygon fill="black" stroke="black" points="1013.92,-244.35 1023.26,-239.35 1012.83,-237.44 1013.92,-244.35"/>
</g>
<!-- ed25519&#45;&gt;bcs -->
<g id="edge106" class="edge">
<title>ed25519&#45;&gt;bcs</title>
<path fill="none" stroke="black" d="M679.93,-297.97C609.12,-284.54 455.41,-255.38 384.81,-241.98"/>
<polygon fill="black" stroke="black" points="385.78,-238.61 375.31,-240.18 384.48,-245.48 385.78,-238.61"/>
</g>
<!-- ed25519&#45;&gt;type_info -->
<g id="edge103" class="edge">
<title>ed25519&#45;&gt;type_info</title>
<path fill="none" stroke="black" d="M757.32,-302.55C930.78,-292.01 1613.67,-250.51 1813.68,-238.36"/>
<polygon fill="black" stroke="black" points="1813.77,-241.86 1823.54,-237.76 1813.34,-234.88 1813.77,-241.86"/>
</g>
<!-- ed25519&#45;&gt;hash -->
<g id="edge105" class="edge">
<title>ed25519&#45;&gt;hash</title>
<path fill="none" stroke="black" d="M692.5,-291.17C672.49,-279.87 644.12,-263.86 622.79,-251.82"/>
<polygon fill="black" stroke="black" points="624.7,-248.87 614.27,-247.01 621.26,-254.97 624.7,-248.87"/>
</g>
<!-- multi_ed25519&#45;&gt;option -->
<g id="edge107" class="edge">
<title>multi_ed25519&#45;&gt;option</title>
<path fill="none" stroke="black" d="M666.16,-359.59C661.95,-341.14 657.82,-311.48 667,-288 698.74,-206.86 721.66,-182.11 800,-144 908.31,-91.31 1282.34,-89.42 1412.73,-90.42"/>
<polygon fill="black" stroke="black" points="1412.67,-93.92 1422.7,-90.51 1412.73,-86.92 1412.67,-93.92"/>
</g>
<!-- multi_ed25519&#45;&gt;error -->
<g id="edge108" class="edge">
<title>multi_ed25519&#45;&gt;error</title>
<path fill="none" stroke="black" d="M701.72,-361.96C721.02,-352.06 746.11,-338.31 767,-324 787.56,-309.91 787.63,-298.98 810,-288 876.52,-255.35 963.12,-242.64 1012.64,-237.82"/>
<polygon fill="black" stroke="black" points="1012.95,-241.31 1022.59,-236.92 1012.31,-234.34 1012.95,-241.31"/>
</g>
<!-- multi_ed25519&#45;&gt;bcs -->
<g id="edge110" class="edge">
<title>multi_ed25519&#45;&gt;bcs</title>
<path fill="none" stroke="black" d="M638.33,-362.19C598.96,-344.39 530.78,-313.7 472,-288 441.17,-274.52 405.87,-259.47 380.84,-248.86"/>
<polygon fill="black" stroke="black" points="382.42,-245.73 371.84,-245.05 379.69,-252.17 382.42,-245.73"/>
</g>
<!-- multi_ed25519&#45;&gt;hash -->
<g id="edge109" class="edge">
<title>multi_ed25519&#45;&gt;hash</title>
<path fill="none" stroke="black" d="M658.21,-360.32C650.68,-350.13 641.26,-336.66 634,-324 622.56,-304.05 611.77,-280.36 604.14,-262.43"/>
<polygon fill="black" stroke="black" points="607.38,-261.11 600.29,-253.24 600.92,-263.82 607.38,-261.11"/>
</g>
<!-- multi_ed25519&#45;&gt;ed25519 -->
<g id="edge111" class="edge">
<title>multi_ed25519&#45;&gt;ed25519</title>
<path fill="none" stroke="black" d="M682.14,-360.05C687.39,-352.06 693.78,-342.33 699.65,-333.4"/>
<polygon fill="black" stroke="black" points="702.57,-335.33 705.14,-325.05 696.72,-331.49 702.57,-335.33"/>
</g>
<!-- from_bcs&#45;&gt;string -->
<g id="edge112" class="edge">
<title>from_bcs&#45;&gt;string</title>
<path fill="none" stroke="black" d="M1950.63,-360.21C1969.63,-323.25 2015.19,-234.61 2038.2,-189.84"/>
<polygon fill="black" stroke="black" points="2041.26,-191.55 2042.72,-181.06 2035.03,-188.35 2041.26,-191.55"/>
</g>
<!-- optional_aggregator&#45;&gt;option -->
<g id="edge113" class="edge">
<title>optional_aggregator&#45;&gt;option</title>
<path fill="none" stroke="black" d="M1576.37,-432.74C1618.68,-405.36 1692.54,-347.18 1667,-288 1630.84,-204.23 1539.59,-139.56 1490.48,-109.49"/>
<polygon fill="black" stroke="black" points="1492.35,-106.53 1481.98,-104.38 1488.75,-112.53 1492.35,-106.53"/>
</g>
<!-- optional_aggregator&#45;&gt;error -->
<g id="edge114" class="edge">
<title>optional_aggregator&#45;&gt;error</title>
<path fill="none" stroke="black" d="M1484.02,-438.72C1457.98,-431.24 1430.13,-418.31 1413,-396 1383.58,-357.7 1434.46,-322.83 1401,-288 1359.01,-244.3 1173.6,-236.49 1091.43,-235.2"/>
<polygon fill="black" stroke="black" points="1091.65,-231.7 1081.6,-235.07 1091.56,-238.7 1091.65,-231.7"/>
</g>
<!-- aggregator -->
<g id="node33" class="node">
<title>aggregator</title>
<ellipse fill="none" stroke="black" cx="1610" cy="-306" rx="48.19" ry="18"/>
<text text-anchor="middle" x="1610" y="-302.3" font-family="Times,serif" font-size="14.00">aggregator</text>
</g>
<!-- optional_aggregator&#45;&gt;aggregator -->
<g id="edge115" class="edge">
<title>optional_aggregator&#45;&gt;aggregator</title>
<path fill="none" stroke="black" d="M1562.5,-432.18C1570,-422.16 1579,-408.91 1585,-396 1594.01,-376.63 1600.4,-353.35 1604.47,-335.46"/>
<polygon fill="black" stroke="black" points="1607.87,-336.3 1606.55,-325.79 1601.03,-334.83 1607.87,-336.3"/>
</g>
<!-- aggregator_factory -->
<g id="node34" class="node">
<title>aggregator_factory</title>
<ellipse fill="none" stroke="black" cx="1499" cy="-378" rx="77.19" ry="18"/>
<text text-anchor="middle" x="1499" y="-374.3" font-family="Times,serif" font-size="14.00">aggregator_factory</text>
</g>
<!-- optional_aggregator&#45;&gt;aggregator_factory -->
<g id="edge116" class="edge">
<title>optional_aggregator&#45;&gt;aggregator_factory</title>
<path fill="none" stroke="black" d="M1536.9,-432.05C1531.12,-423.97 1524.09,-414.12 1517.65,-405.11"/>
<polygon fill="black" stroke="black" points="1520.53,-403.12 1511.87,-397.02 1514.84,-407.19 1520.53,-403.12"/>
</g>
<!-- comparator&#45;&gt;bcs -->
<g id="edge117" class="edge">
<title>comparator&#45;&gt;bcs</title>
<path fill="none" stroke="black" d="M256.1,-289.98C274.43,-279.02 299.33,-264.12 318.59,-252.59"/>
<polygon fill="black" stroke="black" points="320.27,-255.67 327.06,-247.53 316.68,-249.66 320.27,-255.67"/>
</g>
<!-- aggregator_factory&#45;&gt;error -->
<g id="edge119" class="edge">
<title>aggregator_factory&#45;&gt;error</title>
<path fill="none" stroke="black" d="M1491.55,-359.63C1481.65,-338.86 1462.08,-304.79 1434,-288 1376.72,-253.75 1176.96,-240.7 1091.4,-236.6"/>
<polygon fill="black" stroke="black" points="1091.77,-233.12 1081.62,-236.15 1091.45,-240.11 1091.77,-233.12"/>
</g>
<!-- aggregator_factory&#45;&gt;system_addresses -->
<g id="edge120" class="edge">
<title>aggregator_factory&#45;&gt;system_addresses</title>
<path fill="none" stroke="black" d="M1557.15,-365.91C1622.63,-353.42 1728.9,-333.15 1798.12,-319.95"/>
<polygon fill="black" stroke="black" points="1798.67,-323.41 1807.84,-318.09 1797.36,-316.53 1798.67,-323.41"/>
</g>
<!-- aggregator_factory&#45;&gt;table -->
<g id="edge118" class="edge">
<title>aggregator_factory&#45;&gt;table</title>
<path fill="none" stroke="black" d="M1443.34,-365.15C1402.32,-355.76 1345.47,-341.35 1297,-324 1295.42,-323.43 1293.81,-322.83 1292.2,-322.19"/>
<polygon fill="black" stroke="black" points="1293.62,-318.99 1283.04,-318.3 1290.88,-325.43 1293.62,-318.99"/>
</g>
<!-- aggregator_factory&#45;&gt;aggregator -->
<g id="edge121" class="edge">
<title>aggregator_factory&#45;&gt;aggregator</title>
<path fill="none" stroke="black" d="M1525.02,-360.59C1540.56,-350.79 1560.43,-338.26 1577.05,-327.78"/>
<polygon fill="black" stroke="black" points="1578.54,-330.98 1585.13,-322.69 1574.8,-325.06 1578.54,-330.98"/>
</g>
</g>
</svg>
