<?xml version="1.0" encoding="UTF-8" standalone="no"?>
<!DOCTYPE svg PUBLIC "-//W3C//DTD SVG 1.1//EN"
 "http://www.w3.org/Graphics/SVG/1.1/DTD/svg11.dtd">
<!-- Generated by graphviz version 7.0.0 (20221023.0053)
 -->
<!-- Title: G Pages: 1 -->
<svg width="2334pt" height="764pt"
 viewBox="0.00 0.00 2334.00 764.00" xmlns="http://www.w3.org/2000/svg" xmlns:xlink="http://www.w3.org/1999/xlink">
<g id="graph0" class="graph" transform="scale(1 1) rotate(0) translate(4 760)">
<title>G</title>
<polygon fill="white" stroke="none" points="-4,4 -4,-760 2330,-760 2330,4 -4,4"/>
<!-- staking_contract -->
<g id="node1" class="node">
<title>staking_contract</title>
<ellipse fill="none" stroke="black" cx="524" cy="-738" rx="68.79" ry="18"/>
<text text-anchor="middle" x="524" y="-734.3" font-family="Times,serif" font-size="14.00">staking_contract</text>
</g>
<!-- vector -->
<g id="node2" class="node">
<title>vector</title>
<ellipse fill="none" stroke="black" cx="546" cy="-18" rx="32.49" ry="18"/>
<text text-anchor="middle" x="546" y="-14.3" font-family="Times,serif" font-size="14.00">vector</text>
</g>
<!-- staking_contract&#45;&gt;vector -->
<g id="edge1" class="edge">
<title>staking_contract&#45;&gt;vector</title>
<path fill="none" stroke="black" d="M458.24,-732.46C359.74,-724.97 179.02,-708.4 119,-684 57.82,-659.13 0,-661.04 0,-595 0,-595 0,-595 0,-161 0,-108.4 31.39,-96.38 78,-72 151.18,-33.72 400.26,-22.85 502.09,-19.97"/>
<polygon fill="black" stroke="black" points="502.05,-23.47 511.95,-19.7 501.86,-16.47 502.05,-23.47"/>
</g>
<!-- signer -->
<g id="node3" class="node">
<title>signer</title>
<ellipse fill="none" stroke="black" cx="1963" cy="-234" rx="32.49" ry="18"/>
<text text-anchor="middle" x="1963" y="-230.3" font-family="Times,serif" font-size="14.00">signer</text>
</g>
<!-- staking_contract&#45;&gt;signer -->
<g id="edge2" class="edge">
<title>staking_contract&#45;&gt;signer</title>
<path fill="none" stroke="black" d="M592.88,-737.51C853.46,-739.01 1778.75,-740.15 2067,-684 2170.93,-663.76 2288,-700.89 2288,-595 2288,-595 2288,-595 2288,-521 2288,-387.38 2205.94,-366.77 2098,-288 2069.45,-267.17 2031.62,-253.25 2003.27,-244.92"/>
<polygon fill="black" stroke="black" points="2004.56,-241.65 1993.99,-242.31 2002.66,-248.38 2004.56,-241.65"/>
</g>
<!-- error -->
<g id="node4" class="node">
<title>error</title>
<ellipse fill="none" stroke="black" cx="1166" cy="-234" rx="27.9" ry="18"/>
<text text-anchor="middle" x="1166" y="-230.3" font-family="Times,serif" font-size="14.00">error</text>
</g>
<!-- staking_contract&#45;&gt;error -->
<g id="edge3" class="edge">
<title>staking_contract&#45;&gt;error</title>
<path fill="none" stroke="black" d="M491.99,-721.79C451.23,-699.93 386,-655.5 386,-595 386,-595 386,-595 386,-377 386,-330.03 402.6,-311.97 443,-288 492.24,-258.78 899.91,-256.32 957,-252 1016.27,-247.51 1084.95,-241.84 1126.93,-238.31"/>
<polygon fill="black" stroke="black" points="1127.11,-241.81 1136.78,-237.48 1126.52,-234.83 1127.11,-241.81"/>
</g>
<!-- bcs -->
<g id="node5" class="node">
<title>bcs</title>
<ellipse fill="none" stroke="black" cx="458" cy="-234" rx="27" ry="18"/>
<text text-anchor="middle" x="458" y="-230.3" font-family="Times,serif" font-size="14.00">bcs</text>
</g>
<!-- staking_contract&#45;&gt;bcs -->
<g id="edge4" class="edge">
<title>staking_contract&#45;&gt;bcs</title>
<path fill="none" stroke="black" d="M461.24,-730.38C337.94,-715.61 76,-674.86 76,-595 76,-595 76,-595 76,-377 76,-330.03 93.75,-313.8 133,-288 179.6,-257.38 343.88,-242.65 419.44,-237.37"/>
<polygon fill="black" stroke="black" points="419.53,-240.88 429.27,-236.71 419.06,-233.89 419.53,-240.88"/>
</g>
<!-- event -->
<g id="node6" class="node">
<title>event</title>
<ellipse fill="none" stroke="black" cx="444" cy="-378" rx="29.8" ry="18"/>
<text text-anchor="middle" x="444" y="-374.3" font-family="Times,serif" font-size="14.00">event</text>
</g>
<!-- staking_contract&#45;&gt;event -->
<g id="edge5" class="edge">
<title>staking_contract&#45;&gt;event</title>
<path fill="none" stroke="black" d="M516.31,-719.91C505.21,-693.62 486,-641.45 486,-595 486,-595 486,-595 486,-521 486,-479.47 469.27,-433.8 456.93,-405.76"/>
<polygon fill="black" stroke="black" points="460.25,-404.61 452.92,-396.96 453.88,-407.51 460.25,-404.61"/>
</g>
<!-- account -->
<g id="node7" class="node">
<title>account</title>
<ellipse fill="none" stroke="black" cx="854" cy="-450" rx="38.19" ry="18"/>
<text text-anchor="middle" x="854" y="-446.3" font-family="Times,serif" font-size="14.00">account</text>
</g>
<!-- staking_contract&#45;&gt;account -->
<g id="edge6" class="edge">
<title>staking_contract&#45;&gt;account</title>
<path fill="none" stroke="black" d="M543.17,-720.39C599.4,-671.65 763.97,-529.02 828.05,-473.49"/>
<polygon fill="black" stroke="black" points="829.99,-476.44 835.26,-467.24 825.41,-471.15 829.99,-476.44"/>
</g>
<!-- coin -->
<g id="node8" class="node">
<title>coin</title>
<ellipse fill="none" stroke="black" cx="1261" cy="-522" rx="27" ry="18"/>
<text text-anchor="middle" x="1261" y="-518.3" font-family="Times,serif" font-size="14.00">coin</text>
</g>
<!-- staking_contract&#45;&gt;coin -->
<g id="edge7" class="edge">
<title>staking_contract&#45;&gt;coin</title>
<path fill="none" stroke="black" d="M585.45,-729.53C646.98,-721.28 744.04,-706.16 826,-684 980.53,-642.21 1157.38,-568.24 1228.69,-537.26"/>
<polygon fill="black" stroke="black" points="1229.67,-540.66 1237.44,-533.45 1226.87,-534.24 1229.67,-540.66"/>
</g>
<!-- aptos_coin -->
<g id="node9" class="node">
<title>aptos_coin</title>
<ellipse fill="none" stroke="black" cx="2099" cy="-594" rx="48.99" ry="18"/>
<text text-anchor="middle" x="2099" y="-590.3" font-family="Times,serif" font-size="14.00">aptos_coin</text>
</g>
<!-- staking_contract&#45;&gt;aptos_coin -->
<g id="edge8" class="edge">
<title>staking_contract&#45;&gt;aptos_coin</title>
<path fill="none" stroke="black" d="M592.56,-736.29C879.46,-733.09 1971.79,-718.66 2036,-684 2060.54,-670.75 2077.7,-643.28 2087.85,-622.34"/>
<polygon fill="black" stroke="black" points="2090.93,-624.02 2091.89,-613.47 2084.56,-621.12 2090.93,-624.02"/>
</g>
<!-- simple_map -->
<g id="node10" class="node">
<title>simple_map</title>
<ellipse fill="none" stroke="black" cx="227" cy="-378" rx="54.69" ry="18"/>
<text text-anchor="middle" x="227" y="-374.3" font-family="Times,serif" font-size="14.00">simple_map</text>
</g>
<!-- staking_contract&#45;&gt;simple_map -->
<g id="edge9" class="edge">
<title>staking_contract&#45;&gt;simple_map</title>
<path fill="none" stroke="black" d="M469.58,-726.55C404.72,-710.57 305,-673.28 305,-595 305,-595 305,-595 305,-521 305,-480.25 303.51,-467.2 283,-432 276.5,-420.84 266.94,-410.57 257.56,-402.1"/>
<polygon fill="black" stroke="black" points="260.11,-399.67 250.24,-395.83 255.56,-404.99 260.11,-399.67"/>
</g>
<!-- staking_config -->
<g id="node11" class="node">
<title>staking_config</title>
<ellipse fill="none" stroke="black" cx="1855" cy="-522" rx="63.09" ry="18"/>
<text text-anchor="middle" x="1855" y="-518.3" font-family="Times,serif" font-size="14.00">staking_config</text>
</g>
<!-- staking_contract&#45;&gt;staking_config -->
<g id="edge10" class="edge">
<title>staking_contract&#45;&gt;staking_config</title>
<path fill="none" stroke="black" d="M592.52,-735.76C825.78,-731.28 1580.41,-714.54 1685,-684 1746.54,-666.03 1765.92,-658.55 1810,-612 1826.54,-594.53 1838.38,-569.81 1845.75,-550.85"/>
<polygon fill="black" stroke="black" points="1848.99,-552.19 1849.15,-541.6 1842.42,-549.78 1848.99,-552.19"/>
</g>
<!-- stake -->
<g id="node12" class="node">
<title>stake</title>
<ellipse fill="none" stroke="black" cx="1647" cy="-666" rx="28.7" ry="18"/>
<text text-anchor="middle" x="1647" y="-662.3" font-family="Times,serif" font-size="14.00">stake</text>
</g>
<!-- staking_contract&#45;&gt;stake -->
<g id="edge11" class="edge">
<title>staking_contract&#45;&gt;stake</title>
<path fill="none" stroke="black" d="M590.47,-732.86C799.73,-719.81 1440.89,-679.85 1607.24,-669.48"/>
<polygon fill="black" stroke="black" points="1607.33,-672.98 1617.09,-668.86 1606.89,-665.99 1607.33,-672.98"/>
</g>
<!-- pool_u64 -->
<g id="node13" class="node">
<title>pool_u64</title>
<ellipse fill="none" stroke="black" cx="230" cy="-450" rx="44.39" ry="18"/>
<text text-anchor="middle" x="230" y="-446.3" font-family="Times,serif" font-size="14.00">pool_u64</text>
</g>
<!-- staking_contract&#45;&gt;pool_u64 -->
<g id="edge12" class="edge">
<title>staking_contract&#45;&gt;pool_u64</title>
<path fill="none" stroke="black" d="M461.47,-730.12C400.96,-722.2 314.99,-707.23 291,-684 234.36,-629.17 228.06,-528.74 228.68,-479.6"/>
<polygon fill="black" stroke="black" points="232.17,-479.87 228.92,-469.79 225.17,-479.7 232.17,-479.87"/>
</g>
<!-- event&#45;&gt;bcs -->
<g id="edge13" class="edge">
<title>event&#45;&gt;bcs</title>
<path fill="none" stroke="black" d="M442.3,-359.84C440.87,-341.85 439.56,-312.8 443,-288 444.15,-279.73 446.26,-270.93 448.54,-262.93"/>
<polygon fill="black" stroke="black" points="451.89,-263.96 451.47,-253.38 445.19,-261.91 451.89,-263.96"/>
</g>
<!-- guid -->
<g id="node14" class="node">
<title>guid</title>
<ellipse fill="none" stroke="black" cx="479" cy="-306" rx="27" ry="18"/>
<text text-anchor="middle" x="479" y="-302.3" font-family="Times,serif" font-size="14.00">guid</text>
</g>
<!-- event&#45;&gt;guid -->
<g id="edge14" class="edge">
<title>event&#45;&gt;guid</title>
<path fill="none" stroke="black" d="M452.29,-360.41C456.3,-352.39 461.22,-342.57 465.73,-333.54"/>
<polygon fill="black" stroke="black" points="468.75,-335.33 470.09,-324.82 462.49,-332.2 468.75,-335.33"/>
</g>
<!-- account&#45;&gt;vector -->
<g id="edge15" class="edge">
<title>account&#45;&gt;vector</title>
<path fill="none" stroke="black" d="M818.11,-443.56C765.34,-434.97 670.15,-417.08 643,-396 533.5,-310.97 537.2,-120.15 543,-47.67"/>
<polygon fill="black" stroke="black" points="546.47,-48.1 543.87,-37.83 539.5,-47.48 546.47,-48.1"/>
</g>
<!-- account&#45;&gt;signer -->
<g id="edge19" class="edge">
<title>account&#45;&gt;signer</title>
<path fill="none" stroke="black" d="M886.77,-440.29C921.7,-430.69 978.42,-414.17 1026,-396 1133.38,-354.99 1149.72,-316.78 1261,-288 1386.49,-255.55 1785.91,-240.49 1919.22,-236.28"/>
<polygon fill="black" stroke="black" points="1919.15,-239.78 1929.03,-235.97 1918.93,-232.79 1919.15,-239.78"/>
</g>
<!-- account&#45;&gt;error -->
<g id="edge20" class="edge">
<title>account&#45;&gt;error</title>
<path fill="none" stroke="black" d="M886.34,-440.11C914.93,-431.4 957.07,-416.47 990,-396 1023.41,-375.23 1104.16,-296.61 1143.59,-257.45"/>
<polygon fill="black" stroke="black" points="1145.66,-260.33 1150.27,-250.8 1140.72,-255.37 1145.66,-260.33"/>
</g>
<!-- account&#45;&gt;bcs -->
<g id="edge23" class="edge">
<title>account&#45;&gt;bcs</title>
<path fill="none" stroke="black" d="M818.2,-443.36C742.85,-431.38 574.01,-403.81 564,-396 522.45,-363.57 545.79,-330.78 515,-288 506.3,-275.92 494.54,-264.42 483.95,-255.24"/>
<polygon fill="black" stroke="black" points="486.51,-252.82 476.6,-249.09 482.02,-258.19 486.51,-252.82"/>
</g>
<!-- account&#45;&gt;event -->
<g id="edge28" class="edge">
<title>account&#45;&gt;event</title>
<path fill="none" stroke="black" d="M818.76,-442.94C798.88,-439.58 773.58,-435.41 751,-432 634.34,-414.39 602.24,-425.46 488,-396 484.88,-395.19 481.67,-394.24 478.49,-393.19"/>
<polygon fill="black" stroke="black" points="479.9,-389.97 469.3,-389.89 477.53,-396.56 479.9,-389.97"/>
</g>
<!-- account&#45;&gt;guid -->
<g id="edge26" class="edge">
<title>account&#45;&gt;guid</title>
<path fill="none" stroke="black" d="M818.26,-443.06C798.44,-439.77 773.36,-435.63 751,-432 651.04,-415.75 608.32,-454.99 526,-396 505.6,-381.38 493.3,-355.16 486.43,-334.95"/>
<polygon fill="black" stroke="black" points="489.84,-334.12 483.52,-325.61 483.15,-336.2 489.84,-334.12"/>
</g>
<!-- option -->
<g id="node15" class="node">
<title>option</title>
<ellipse fill="none" stroke="black" cx="976" cy="-90" rx="33.29" ry="18"/>
<text text-anchor="middle" x="976" y="-86.3" font-family="Times,serif" font-size="14.00">option</text>
</g>
<!-- account&#45;&gt;option -->
<g id="edge16" class="edge">
<title>account&#45;&gt;option</title>
<path fill="none" stroke="black" d="M877.81,-435.63C913.32,-413.74 976,-366.64 976,-307 976,-307 976,-307 976,-233 976,-193.74 976,-148.38 976,-119.69"/>
<polygon fill="black" stroke="black" points="979.5,-120 976,-110 972.5,-120 979.5,-120"/>
</g>
<!-- type_info -->
<g id="node16" class="node">
<title>type_info</title>
<ellipse fill="none" stroke="black" cx="904" cy="-234" rx="44.39" ry="18"/>
<text text-anchor="middle" x="904" y="-230.3" font-family="Times,serif" font-size="14.00">type_info</text>
</g>
<!-- account&#45;&gt;type_info -->
<g id="edge17" class="edge">
<title>account&#45;&gt;type_info</title>
<path fill="none" stroke="black" d="M858.01,-431.85C866.6,-395.07 886.88,-308.29 897.4,-263.24"/>
<polygon fill="black" stroke="black" points="900.76,-264.24 899.63,-253.71 893.95,-262.65 900.76,-264.24"/>
</g>
<!-- table -->
<g id="node17" class="node">
<title>table</title>
<ellipse fill="none" stroke="black" cx="1298" cy="-306" rx="27.9" ry="18"/>
<text text-anchor="middle" x="1298" y="-302.3" font-family="Times,serif" font-size="14.00">table</text>
</g>
<!-- account&#45;&gt;table -->
<g id="edge18" class="edge">
<title>account&#45;&gt;table</title>
<path fill="none" stroke="black" d="M892.08,-446.73C973.58,-441.34 1162.05,-425.96 1218,-396 1245.39,-381.34 1268.08,-353.44 1282.21,-332.77"/>
<polygon fill="black" stroke="black" points="1285.04,-334.83 1287.61,-324.56 1279.19,-330.99 1285.04,-334.83"/>
</g>
<!-- system_addresses -->
<g id="node18" class="node">
<title>system_addresses</title>
<ellipse fill="none" stroke="black" cx="1779" cy="-306" rx="73.39" ry="18"/>
<text text-anchor="middle" x="1779" y="-302.3" font-family="Times,serif" font-size="14.00">system_addresses</text>
</g>
<!-- account&#45;&gt;system_addresses -->
<g id="edge21" class="edge">
<title>account&#45;&gt;system_addresses</title>
<path fill="none" stroke="black" d="M892.22,-447.24C1059.46,-439.45 1719.23,-408.02 1737,-396 1757.44,-382.17 1768.19,-355.61 1773.67,-335.09"/>
<polygon fill="black" stroke="black" points="1777.01,-336.15 1775.91,-325.61 1770.2,-334.54 1777.01,-336.15"/>
</g>
<!-- hash -->
<g id="node19" class="node">
<title>hash</title>
<ellipse fill="none" stroke="black" cx="707" cy="-234" rx="27" ry="18"/>
<text text-anchor="middle" x="707" y="-230.3" font-family="Times,serif" font-size="14.00">hash</text>
</g>
<!-- account&#45;&gt;hash -->
<g id="edge22" class="edge">
<title>account&#45;&gt;hash</title>
<path fill="none" stroke="black" d="M815.57,-448.76C776.52,-446.21 717.8,-435.51 689,-396 660.14,-356.42 678.88,-296.18 693.81,-261.71"/>
<polygon fill="black" stroke="black" points="696.88,-263.41 697.83,-252.86 690.51,-260.52 696.88,-263.41"/>
</g>
<!-- ed25519 -->
<g id="node20" class="node">
<title>ed25519</title>
<ellipse fill="none" stroke="black" cx="831" cy="-306" rx="40.89" ry="18"/>
<text text-anchor="middle" x="831" y="-302.3" font-family="Times,serif" font-size="14.00">ed25519</text>
</g>
<!-- account&#45;&gt;ed25519 -->
<g id="edge24" class="edge">
<title>account&#45;&gt;ed25519</title>
<path fill="none" stroke="black" d="M851.18,-431.59C847.3,-407.61 840.26,-364.14 835.6,-335.42"/>
<polygon fill="black" stroke="black" points="839.07,-334.92 834.01,-325.6 832.16,-336.04 839.07,-334.92"/>
</g>
<!-- multi_ed25519 -->
<g id="node21" class="node">
<title>multi_ed25519</title>
<ellipse fill="none" stroke="black" cx="762" cy="-378" rx="64.19" ry="18"/>
<text text-anchor="middle" x="762" y="-374.3" font-family="Times,serif" font-size="14.00">multi_ed25519</text>
</g>
<!-- account&#45;&gt;multi_ed25519 -->
<g id="edge25" class="edge">
<title>account&#45;&gt;multi_ed25519</title>
<path fill="none" stroke="black" d="M834.49,-434.15C822.32,-424.89 806.39,-412.78 792.57,-402.26"/>
<polygon fill="black" stroke="black" points="794.69,-399.48 784.61,-396.21 790.45,-405.05 794.69,-399.48"/>
</g>
<!-- from_bcs -->
<g id="node22" class="node">
<title>from_bcs</title>
<ellipse fill="none" stroke="black" cx="618" cy="-234" rx="44.39" ry="18"/>
<text text-anchor="middle" x="618" y="-230.3" font-family="Times,serif" font-size="14.00">from_bcs</text>
</g>
<!-- account&#45;&gt;from_bcs -->
<g id="edge27" class="edge">
<title>account&#45;&gt;from_bcs</title>
<path fill="none" stroke="black" d="M815.83,-447.9C775.06,-444.69 711.04,-433.5 672,-396 635.13,-360.59 623.43,-299.28 619.72,-263.41"/>
<polygon fill="black" stroke="black" points="623.24,-263.45 618.88,-253.8 616.27,-264.07 623.24,-263.45"/>
</g>
<!-- coin&#45;&gt;signer -->
<g id="edge32" class="edge">
<title>coin&#45;&gt;signer</title>
<path fill="none" stroke="black" d="M1288.1,-519.85C1356.72,-516.43 1535.08,-504.19 1580,-468 1620.23,-435.58 1594.3,-402.96 1623,-360 1648.49,-321.84 1656.39,-309.36 1697,-288 1768.64,-250.32 1863.99,-239.35 1918.92,-236.2"/>
<polygon fill="black" stroke="black" points="1919.01,-239.7 1928.82,-235.71 1918.66,-232.71 1919.01,-239.7"/>
</g>
<!-- coin&#45;&gt;error -->
<g id="edge33" class="edge">
<title>coin&#45;&gt;error</title>
<path fill="none" stroke="black" d="M1255.34,-503.97C1239.5,-456.28 1194.6,-321.11 1175.16,-262.58"/>
<polygon fill="black" stroke="black" points="1178.58,-261.77 1172.11,-253.38 1171.94,-263.97 1178.58,-261.77"/>
</g>
<!-- coin&#45;&gt;event -->
<g id="edge35" class="edge">
<title>coin&#45;&gt;event</title>
<path fill="none" stroke="black" d="M1233.99,-518.89C1163.42,-513.15 967.89,-495.81 807,-468 666.34,-443.69 631.31,-435.03 494,-396 489.44,-394.7 484.67,-393.24 479.98,-391.72"/>
<polygon fill="black" stroke="black" points="481.31,-388.47 470.72,-388.63 479.09,-395.11 481.31,-388.47"/>
</g>
<!-- coin&#45;&gt;account -->
<g id="edge36" class="edge">
<title>coin&#45;&gt;account</title>
<path fill="none" stroke="black" d="M1234.92,-516.51C1167.49,-504.92 986.65,-473.81 900.66,-459.03"/>
<polygon fill="black" stroke="black" points="901.37,-455.6 890.92,-457.35 900.18,-462.49 901.37,-455.6"/>
</g>
<!-- coin&#45;&gt;option -->
<g id="edge29" class="edge">
<title>coin&#45;&gt;option</title>
<path fill="none" stroke="black" d="M1288.25,-521.39C1332.38,-520.61 1420.07,-512.99 1475,-468 1537.99,-416.42 1536.4,-364.67 1509,-288 1475.22,-193.47 1429.19,-178.7 1335,-144 1227,-104.21 1090.33,-94.22 1020.9,-91.76"/>
<polygon fill="black" stroke="black" points="1021.16,-88.27 1011.06,-91.45 1020.94,-95.26 1021.16,-88.27"/>
</g>
<!-- coin&#45;&gt;type_info -->
<g id="edge31" class="edge">
<title>coin&#45;&gt;type_info</title>
<path fill="none" stroke="black" d="M1235.34,-515.78C1204.54,-508.65 1152.28,-493.72 1114,-468 1027.49,-409.87 952.96,-308.43 920.85,-260.93"/>
<polygon fill="black" stroke="black" points="923.95,-259.28 915.49,-252.9 918.13,-263.16 923.95,-259.28"/>
</g>
<!-- coin&#45;&gt;system_addresses -->
<g id="edge34" class="edge">
<title>coin&#45;&gt;system_addresses</title>
<path fill="none" stroke="black" d="M1288.06,-519.84C1348.52,-516.64 1498.68,-505.27 1618,-468 1687.06,-446.43 1720.8,-454.04 1764,-396 1776.82,-378.78 1780.21,-354.5 1780.6,-335.65"/>
<polygon fill="black" stroke="black" points="1784.1,-335.66 1780.5,-325.69 1777.1,-335.73 1784.1,-335.66"/>
</g>
<!-- string -->
<g id="node23" class="node">
<title>string</title>
<ellipse fill="none" stroke="black" cx="916" cy="-162" rx="30.59" ry="18"/>
<text text-anchor="middle" x="916" y="-158.3" font-family="Times,serif" font-size="14.00">string</text>
</g>
<!-- coin&#45;&gt;string -->
<g id="edge30" class="edge">
<title>coin&#45;&gt;string</title>
<path fill="none" stroke="black" d="M1247.05,-506.52C1193.86,-451.33 1003.49,-253.79 938.18,-186.02"/>
<polygon fill="black" stroke="black" points="941.02,-183.92 931.56,-179.14 935.98,-188.77 941.02,-183.92"/>
</g>
<!-- optional_aggregator -->
<g id="node24" class="node">
<title>optional_aggregator</title>
<ellipse fill="none" stroke="black" cx="1385" cy="-450" rx="81.49" ry="18"/>
<text text-anchor="middle" x="1385" y="-446.3" font-family="Times,serif" font-size="14.00">optional_aggregator</text>
</g>
<!-- coin&#45;&gt;optional_aggregator -->
<g id="edge37" class="edge">
<title>coin&#45;&gt;optional_aggregator</title>
<path fill="none" stroke="black" d="M1281.2,-509.6C1298.85,-499.63 1324.97,-484.89 1346.59,-472.68"/>
<polygon fill="black" stroke="black" points="1348.17,-475.81 1355.16,-467.85 1344.73,-469.71 1348.17,-475.81"/>
</g>
<!-- aptos_coin&#45;&gt;vector -->
<g id="edge38" class="edge">
<title>aptos_coin&#45;&gt;vector</title>
<path fill="none" stroke="black" d="M2131.52,-580.33C2194.29,-553.5 2326,-484.61 2326,-379 2326,-379 2326,-379 2326,-161 2326,-71.13 865.02,-27.55 590.26,-20.15"/>
<polygon fill="black" stroke="black" points="590.4,-16.65 580.31,-19.88 590.22,-23.65 590.4,-16.65"/>
</g>
<!-- aptos_coin&#45;&gt;signer -->
<g id="edge41" class="edge">
<title>aptos_coin&#45;&gt;signer</title>
<path fill="none" stroke="black" d="M2098.8,-575.51C2098.51,-548.71 2098,-495.87 2098,-451 2098,-451 2098,-451 2098,-377 2098,-336.03 2100.22,-319.48 2074,-288 2056.07,-266.47 2027.36,-253.08 2003.63,-245.15"/>
<polygon fill="black" stroke="black" points="2004.82,-241.86 1994.23,-242.23 2002.75,-248.54 2004.82,-241.86"/>
</g>
<!-- aptos_coin&#45;&gt;error -->
<g id="edge42" class="edge">
<title>aptos_coin&#45;&gt;error</title>
<path fill="none" stroke="black" d="M2092.96,-575.71C2072.99,-521.52 2003.34,-354.61 1882,-288 1822.55,-255.36 1346.61,-239.91 1205.38,-236.01"/>
<polygon fill="black" stroke="black" points="1205.5,-232.52 1195.41,-235.74 1205.31,-239.51 1205.5,-232.52"/>
</g>
<!-- aptos_coin&#45;&gt;coin -->
<g id="edge44" class="edge">
<title>aptos_coin&#45;&gt;coin</title>
<path fill="none" stroke="black" d="M2051.54,-589.04C1900.97,-576.46 1435.87,-537.61 1299.16,-526.19"/>
<polygon fill="black" stroke="black" points="1299.46,-522.7 1289.21,-525.36 1298.88,-529.68 1299.46,-522.7"/>
</g>
<!-- aptos_coin&#45;&gt;option -->
<g id="edge39" class="edge">
<title>aptos_coin&#45;&gt;option</title>
<path fill="none" stroke="black" d="M2114.3,-576.63C2122.65,-566.76 2132.4,-553.51 2138,-540 2150.4,-510.1 2146.32,-500.26 2149,-468 2151.18,-441.75 2150.27,-288.6 2150,-288 2130.81,-244.54 2113.62,-236.97 2071,-216 1881.27,-122.63 1202.86,-97.31 1021.08,-92.13"/>
<polygon fill="black" stroke="black" points="1021.2,-88.64 1011.11,-91.86 1021.01,-95.63 1021.2,-88.64"/>
</g>
<!-- aptos_coin&#45;&gt;system_addresses -->
<g id="edge43" class="edge">
<title>aptos_coin&#45;&gt;system_addresses</title>
<path fill="none" stroke="black" d="M2082.65,-576.64C2029.7,-523.68 1866.38,-360.3 1866,-360 1851.29,-348.43 1833.87,-337.37 1818.5,-328.38"/>
<polygon fill="black" stroke="black" points="1820.48,-325.47 1810.06,-323.53 1816.99,-331.54 1820.48,-325.47"/>
</g>
<!-- aptos_coin&#45;&gt;string -->
<g id="edge40" class="edge">
<title>aptos_coin&#45;&gt;string</title>
<path fill="none" stroke="black" d="M2106.49,-575.89C2117.3,-549.58 2136,-497.37 2136,-451 2136,-451 2136,-451 2136,-305 2136,-234.24 2071.14,-238.32 2004,-216 1903.53,-182.6 1146.23,-167.08 958.17,-163.71"/>
<polygon fill="black" stroke="black" points="958.44,-160.22 948.38,-163.54 958.32,-167.22 958.44,-160.22"/>
</g>
<!-- simple_map&#45;&gt;error -->
<g id="edge46" class="edge">
<title>simple_map&#45;&gt;error</title>
<path fill="none" stroke="black" d="M234.61,-359.95C245.06,-338.83 266.04,-303.7 296,-288 361.14,-253.85 883.62,-256.98 957,-252 1016.3,-247.97 1084.97,-242.17 1126.94,-238.49"/>
<polygon fill="black" stroke="black" points="1127.13,-241.99 1136.79,-237.62 1126.52,-235.01 1127.13,-241.99"/>
</g>
<!-- simple_map&#45;&gt;option -->
<g id="edge45" class="edge">
<title>simple_map&#45;&gt;option</title>
<path fill="none" stroke="black" d="M187.14,-365.26C167.14,-357.12 144.72,-344.06 133,-324 124.93,-310.18 123.15,-300.61 133,-288 233.78,-159.03 773.26,-106.92 932.02,-94.24"/>
<polygon fill="black" stroke="black" points="932.01,-97.75 941.7,-93.48 931.46,-90.77 932.01,-97.75"/>
</g>
<!-- comparator -->
<g id="node25" class="node">
<title>comparator</title>
<ellipse fill="none" stroke="black" cx="193" cy="-306" rx="51.19" ry="18"/>
<text text-anchor="middle" x="193" y="-302.3" font-family="Times,serif" font-size="14.00">comparator</text>
</g>
<!-- simple_map&#45;&gt;comparator -->
<g id="edge47" class="edge">
<title>simple_map&#45;&gt;comparator</title>
<path fill="none" stroke="black" d="M218.77,-360.05C214.97,-352.23 210.36,-342.75 206.1,-333.98"/>
<polygon fill="black" stroke="black" points="209.33,-332.62 201.82,-325.15 203.04,-335.67 209.33,-332.62"/>
</g>
<!-- staking_config&#45;&gt;error -->
<g id="edge48" class="edge">
<title>staking_config&#45;&gt;error</title>
<path fill="none" stroke="black" d="M1864.13,-503.88C1869.01,-493.76 1874.51,-480.51 1877,-468 1888.08,-412.42 1882.48,-308.75 1861,-288 1813.7,-242.3 1345.46,-236 1205.39,-235.13"/>
<polygon fill="black" stroke="black" points="1205.52,-231.64 1195.51,-235.08 1205.49,-238.64 1205.52,-231.64"/>
</g>
<!-- staking_config&#45;&gt;system_addresses -->
<g id="edge49" class="edge">
<title>staking_config&#45;&gt;system_addresses</title>
<path fill="none" stroke="black" d="M1858.4,-503.83C1863.59,-473.03 1870.5,-407.21 1846,-360 1839.65,-347.76 1829.07,-337.42 1818.18,-329.22"/>
<polygon fill="black" stroke="black" points="1820.49,-326.56 1810.28,-323.7 1816.48,-332.29 1820.49,-326.56"/>
</g>
<!-- stake&#45;&gt;vector -->
<g id="edge50" class="edge">
<title>stake&#45;&gt;vector</title>
<path fill="none" stroke="black" d="M1618.05,-664.97C1426.38,-664.4 348,-655.29 348,-523 348,-523 348,-523 348,-161 348,-84.26 447.42,-44.98 505.36,-28.6"/>
<polygon fill="black" stroke="black" points="506.16,-32.01 514.9,-26.02 504.33,-25.25 506.16,-32.01"/>
</g>
<!-- stake&#45;&gt;signer -->
<g id="edge52" class="edge">
<title>stake&#45;&gt;signer</title>
<path fill="none" stroke="black" d="M1675.64,-662.87C1738.73,-657.65 1887.18,-642.4 1926,-612 1961.58,-584.14 2013.46,-474.15 2041,-324 2043.89,-308.26 2048.49,-302.14 2041,-288 2032.08,-271.15 2015.12,-258.66 1999.3,-250.05"/>
<polygon fill="black" stroke="black" points="2001.01,-246.99 1990.51,-245.63 1997.87,-253.25 2001.01,-246.99"/>
</g>
<!-- stake&#45;&gt;error -->
<g id="edge53" class="edge">
<title>stake&#45;&gt;error</title>
<path fill="none" stroke="black" d="M1619.11,-660.78C1533.53,-647.25 1277.25,-602.14 1225,-540 1156.79,-458.87 1158.54,-322.56 1163.03,-263.6"/>
<polygon fill="black" stroke="black" points="1166.51,-264.02 1163.88,-253.75 1159.53,-263.42 1166.51,-264.02"/>
</g>
<!-- stake&#45;&gt;event -->
<g id="edge55" class="edge">
<title>stake&#45;&gt;event</title>
<path fill="none" stroke="black" d="M1618.17,-663.94C1505.86,-659.64 1097.72,-642.22 972,-612 809.65,-572.98 777.11,-536.87 625,-468 572.16,-444.07 511.92,-413.85 475.98,-395.49"/>
<polygon fill="black" stroke="black" points="477.92,-392.55 467.42,-391.11 474.73,-398.78 477.92,-392.55"/>
</g>
<!-- stake&#45;&gt;account -->
<g id="edge56" class="edge">
<title>stake&#45;&gt;account</title>
<path fill="none" stroke="black" d="M1618.13,-664.84C1512.06,-663.91 1144.54,-657.4 1038,-612 967.08,-581.78 904.18,-513.41 873.62,-476.23"/>
<polygon fill="black" stroke="black" points="876.51,-474.25 867.51,-468.67 871.07,-478.65 876.51,-474.25"/>
</g>
<!-- stake&#45;&gt;coin -->
<g id="edge57" class="edge">
<title>stake&#45;&gt;coin</title>
<path fill="none" stroke="black" d="M1622.56,-656.01C1555.9,-631.49 1370.84,-563.41 1294.55,-535.34"/>
<polygon fill="black" stroke="black" points="1296.12,-532.19 1285.53,-532.02 1293.7,-538.76 1296.12,-532.19"/>
</g>
<!-- stake&#45;&gt;aptos_coin -->
<g id="edge58" class="edge">
<title>stake&#45;&gt;aptos_coin</title>
<path fill="none" stroke="black" d="M1674.78,-660.97C1734.16,-652.31 1877.81,-631.19 1998,-612 2012.97,-609.61 2029.17,-606.93 2044.13,-604.41"/>
<polygon fill="black" stroke="black" points="2044.51,-607.89 2053.79,-602.78 2043.34,-600.99 2044.51,-607.89"/>
</g>
<!-- stake&#45;&gt;staking_config -->
<g id="edge60" class="edge">
<title>stake&#45;&gt;staking_config</title>
<path fill="none" stroke="black" d="M1673.43,-658.31C1701.26,-650.39 1745.48,-635.27 1778,-612 1802.02,-594.81 1823.47,-568.65 1837.59,-549.14"/>
<polygon fill="black" stroke="black" points="1840.33,-551.32 1843.22,-541.13 1834.61,-547.29 1840.33,-551.32"/>
</g>
<!-- stake&#45;&gt;option -->
<g id="edge51" class="edge">
<title>stake&#45;&gt;option</title>
<path fill="none" stroke="black" d="M1676.03,-664.43C1770.86,-662.21 2070.36,-652.1 2157,-612 2208.92,-587.97 2250,-580.21 2250,-523 2250,-523 2250,-523 2250,-233 2250,-106.6 1246.66,-92.71 1020.79,-91.19"/>
<polygon fill="black" stroke="black" points="1020.96,-87.69 1010.94,-91.13 1020.91,-94.69 1020.96,-87.69"/>
</g>
<!-- stake&#45;&gt;system_addresses -->
<g id="edge54" class="edge">
<title>stake&#45;&gt;system_addresses</title>
<path fill="none" stroke="black" d="M1658.72,-649.11C1687.37,-609.15 1760.4,-500.21 1785,-396 1789.68,-376.16 1787.96,-353.19 1785.19,-335.56"/>
<polygon fill="black" stroke="black" points="1788.65,-335.02 1783.43,-325.8 1781.76,-336.26 1788.65,-335.02"/>
</g>
<!-- timestamp -->
<g id="node26" class="node">
<title>timestamp</title>
<ellipse fill="none" stroke="black" cx="1680" cy="-378" rx="48.19" ry="18"/>
<text text-anchor="middle" x="1680" y="-374.3" font-family="Times,serif" font-size="14.00">timestamp</text>
</g>
<!-- stake&#45;&gt;timestamp -->
<g id="edge59" class="edge">
<title>stake&#45;&gt;timestamp</title>
<path fill="none" stroke="black" d="M1652.32,-647.98C1655.33,-637.67 1658.91,-624.19 1661,-612 1673.51,-539.05 1677.84,-451.8 1679.29,-407.64"/>
<polygon fill="black" stroke="black" points="1682.78,-407.99 1679.59,-397.89 1675.79,-407.78 1682.78,-407.99"/>
</g>
<!-- math64 -->
<g id="node27" class="node">
<title>math64</title>
<ellipse fill="none" stroke="black" cx="1614" cy="-594" rx="37.89" ry="18"/>
<text text-anchor="middle" x="1614" y="-590.3" font-family="Times,serif" font-size="14.00">math64</text>
</g>
<!-- stake&#45;&gt;math64 -->
<g id="edge61" class="edge">
<title>stake&#45;&gt;math64</title>
<path fill="none" stroke="black" d="M1639.18,-648.41C1635.49,-640.59 1631,-631.06 1626.84,-622.23"/>
<polygon fill="black" stroke="black" points="1630.07,-620.88 1622.64,-613.33 1623.74,-623.86 1630.07,-620.88"/>
</g>
<!-- bls12381 -->
<g id="node28" class="node">
<title>bls12381</title>
<ellipse fill="none" stroke="black" cx="1989" cy="-306" rx="42.79" ry="18"/>
<text text-anchor="middle" x="1989" y="-302.3" font-family="Times,serif" font-size="14.00">bls12381</text>
</g>
<!-- stake&#45;&gt;bls12381 -->
<g id="edge62" class="edge">
<title>stake&#45;&gt;bls12381</title>
<path fill="none" stroke="black" d="M1675.94,-664.45C1750.98,-661.33 1946,-641.81 1946,-523 1946,-523 1946,-523 1946,-449 1946,-407.61 1962.94,-362.24 1975.55,-334.19"/>
<polygon fill="black" stroke="black" points="1978.62,-335.9 1979.66,-325.36 1972.27,-332.95 1978.62,-335.9"/>
</g>
<!-- pool_u64&#45;&gt;vector -->
<g id="edge63" class="edge">
<title>pool_u64&#45;&gt;vector</title>
<path fill="none" stroke="black" d="M203.3,-435.37C150.55,-406.3 38,-332.83 38,-235 38,-235 38,-235 38,-161 38,-64.97 378.98,-30.98 502.22,-21.83"/>
<polygon fill="black" stroke="black" points="502.22,-25.34 511.94,-21.13 501.71,-18.36 502.22,-25.34"/>
</g>
<!-- pool_u64&#45;&gt;error -->
<g id="edge64" class="edge">
<title>pool_u64&#45;&gt;error</title>
<path fill="none" stroke="black" d="M249.91,-433.51C262.32,-423.43 278.29,-409.66 291,-396 331.88,-352.08 319.18,-316.47 372,-288 429.33,-257.1 892.04,-256.64 957,-252 1016.29,-247.77 1084.96,-242.02 1126.93,-238.41"/>
<polygon fill="black" stroke="black" points="1127.12,-241.91 1136.78,-237.56 1126.52,-234.93 1127.12,-241.91"/>
</g>
<!-- pool_u64&#45;&gt;simple_map -->
<g id="edge65" class="edge">
<title>pool_u64&#45;&gt;simple_map</title>
<path fill="none" stroke="black" d="M229.26,-431.7C228.95,-424.41 228.57,-415.73 228.22,-407.54"/>
<polygon fill="black" stroke="black" points="231.72,-407.46 227.8,-397.62 224.73,-407.76 231.72,-407.46"/>
</g>
<!-- option&#45;&gt;vector -->
<g id="edge66" class="edge">
<title>option&#45;&gt;vector</title>
<path fill="none" stroke="black" d="M944.38,-83.85C868.17,-71.45 674.29,-39.88 588.25,-25.88"/>
<polygon fill="black" stroke="black" points="589.01,-22.46 578.58,-24.3 587.89,-29.36 589.01,-22.46"/>
</g>
<!-- type_info&#45;&gt;string -->
<g id="edge67" class="edge">
<title>type_info&#45;&gt;string</title>
<path fill="none" stroke="black" d="M906.97,-215.7C908.23,-208.32 909.74,-199.52 911.16,-191.25"/>
<polygon fill="black" stroke="black" points="914.57,-192.04 912.81,-181.6 907.67,-190.86 914.57,-192.04"/>
</g>
<!-- system_addresses&#45;&gt;signer -->
<g id="edge68" class="edge">
<title>system_addresses&#45;&gt;signer</title>
<path fill="none" stroke="black" d="M1817.57,-290.33C1849.53,-278.17 1894.65,-261 1926.12,-249.03"/>
<polygon fill="black" stroke="black" points="1927.13,-252.39 1935.23,-245.56 1924.64,-245.85 1927.13,-252.39"/>
</g>
<!-- system_addresses&#45;&gt;error -->
<g id="edge69" class="edge">
<title>system_addresses&#45;&gt;error</title>
<path fill="none" stroke="black" d="M1713.4,-297.51C1585.65,-282.92 1307.05,-251.11 1204.71,-239.42"/>
<polygon fill="black" stroke="black" points="1205.24,-235.96 1194.91,-238.3 1204.45,-242.91 1205.24,-235.96"/>
</g>
<!-- ed25519&#45;&gt;error -->
<g id="edge72" class="edge">
<title>ed25519&#45;&gt;error</title>
<path fill="none" stroke="black" d="M863.11,-294.41C870.58,-292.13 878.53,-289.85 886,-288 971.44,-266.78 1073.39,-249.45 1127.61,-240.86"/>
<polygon fill="black" stroke="black" points="1127.92,-244.35 1137.26,-239.35 1126.83,-237.44 1127.92,-244.35"/>
</g>
<!-- ed25519&#45;&gt;bcs -->
<g id="edge74" class="edge">
<title>ed25519&#45;&gt;bcs</title>
<path fill="none" stroke="black" d="M793.87,-298.03C722.31,-284.6 566.05,-255.28 494.77,-241.9"/>
<polygon fill="black" stroke="black" points="495.65,-238.5 485.17,-240.1 494.35,-245.38 495.65,-238.5"/>
</g>
<!-- ed25519&#45;&gt;option -->
<g id="edge70" class="edge">
<title>ed25519&#45;&gt;option</title>
<path fill="none" stroke="black" d="M831.24,-287.52C832.59,-255.35 839.82,-186.19 876,-144 891.94,-125.41 916.05,-112.36 936.61,-103.87"/>
<polygon fill="black" stroke="black" points="937.81,-107.15 945.87,-100.27 935.28,-100.63 937.81,-107.15"/>
</g>
<!-- ed25519&#45;&gt;type_info -->
<g id="edge71" class="edge">
<title>ed25519&#45;&gt;type_info</title>
<path fill="none" stroke="black" d="M847.56,-289.12C856.83,-280.23 868.57,-268.97 878.94,-259.03"/>
<polygon fill="black" stroke="black" points="881.36,-261.56 886.16,-252.11 876.52,-256.51 881.36,-261.56"/>
</g>
<!-- ed25519&#45;&gt;hash -->
<g id="edge73" class="edge">
<title>ed25519&#45;&gt;hash</title>
<path fill="none" stroke="black" d="M806.5,-291.17C786.49,-279.87 758.12,-263.86 736.79,-251.82"/>
<polygon fill="black" stroke="black" points="738.7,-248.87 728.27,-247.01 735.26,-254.97 738.7,-248.87"/>
</g>
<!-- multi_ed25519&#45;&gt;error -->
<g id="edge76" class="edge">
<title>multi_ed25519&#45;&gt;error</title>
<path fill="none" stroke="black" d="M798.09,-362.88C844.55,-344.84 927.89,-312.98 1000,-288 1044.69,-272.52 1096.7,-256.18 1130.43,-245.81"/>
<polygon fill="black" stroke="black" points="1131.14,-249.25 1139.68,-242.97 1129.09,-242.56 1131.14,-249.25"/>
</g>
<!-- multi_ed25519&#45;&gt;bcs -->
<g id="edge78" class="edge">
<title>multi_ed25519&#45;&gt;bcs</title>
<path fill="none" stroke="black" d="M730.04,-362.07C671.63,-334.79 548.3,-277.18 489.92,-249.91"/>
<polygon fill="black" stroke="black" points="491.72,-246.89 481.17,-245.82 488.75,-253.23 491.72,-246.89"/>
</g>
<!-- multi_ed25519&#45;&gt;option -->
<g id="edge75" class="edge">
<title>multi_ed25519&#45;&gt;option</title>
<path fill="none" stroke="black" d="M763.6,-359.6C768.46,-316.67 786.95,-204.84 851,-144 874.18,-121.98 907.88,-108.42 934.45,-100.53"/>
<polygon fill="black" stroke="black" points="935.2,-103.96 943.89,-97.9 933.32,-97.21 935.2,-103.96"/>
</g>
<!-- multi_ed25519&#45;&gt;hash -->
<g id="edge77" class="edge">
<title>multi_ed25519&#45;&gt;hash</title>
<path fill="none" stroke="black" d="M755.37,-359.87C745.98,-335.65 728.74,-291.12 717.58,-262.31"/>
<polygon fill="black" stroke="black" points="720.91,-261.22 714.03,-253.16 714.38,-263.75 720.91,-261.22"/>
</g>
<!-- multi_ed25519&#45;&gt;ed25519 -->
<g id="edge79" class="edge">
<title>multi_ed25519&#45;&gt;ed25519</title>
<path fill="none" stroke="black" d="M778.35,-360.41C786.98,-351.66 797.73,-340.75 807.26,-331.08"/>
<polygon fill="black" stroke="black" points="809.65,-333.64 814.18,-324.07 804.67,-328.73 809.65,-333.64"/>
</g>
<!-- from_bcs&#45;&gt;string -->
<g id="edge80" class="edge">
<title>from_bcs&#45;&gt;string</title>
<path fill="none" stroke="black" d="M651.5,-221.71C657.94,-219.7 664.65,-217.7 671,-216 742.46,-196.86 827.04,-179.77 875.81,-170.45"/>
<polygon fill="black" stroke="black" points="876.46,-173.89 885.63,-168.58 875.15,-167.01 876.46,-173.89"/>
</g>
<!-- string&#45;&gt;vector -->
<g id="edge81" class="edge">
<title>string&#45;&gt;vector</title>
<path fill="none" stroke="black" d="M890.86,-151.35C826.83,-126.78 657.41,-61.76 582.5,-33.01"/>
<polygon fill="black" stroke="black" points="584.16,-29.9 573.57,-29.58 581.65,-36.43 584.16,-29.9"/>
</g>
<!-- string&#45;&gt;option -->
<g id="edge82" class="edge">
<title>string&#45;&gt;option</title>
<path fill="none" stroke="black" d="M929.32,-145.46C936.93,-136.58 946.64,-125.25 955.24,-115.22"/>
<polygon fill="black" stroke="black" points="957.89,-117.51 961.74,-107.64 952.57,-112.96 957.89,-117.51"/>
</g>
<!-- optional_aggregator&#45;&gt;error -->
<g id="edge84" class="edge">
<title>optional_aggregator&#45;&gt;error</title>
<path fill="none" stroke="black" d="M1353.89,-433.1C1336.76,-423.58 1315.67,-410.51 1299,-396 1250.97,-354.18 1206.23,-293.95 1182.88,-260.26"/>
<polygon fill="black" stroke="black" points="1186.01,-258.63 1177.47,-252.35 1180.23,-262.58 1186.01,-258.63"/>
</g>
<!-- optional_aggregator&#45;&gt;option -->
<g id="edge83" class="edge">
<title>optional_aggregator&#45;&gt;option</title>
<path fill="none" stroke="black" d="M1435.03,-435.47C1454.8,-427.41 1475.5,-414.93 1487,-396 1511.92,-354.97 1514.16,-327.58 1487,-288 1378.48,-129.85 1123.69,-98.62 1020.53,-92.48"/>
<polygon fill="black" stroke="black" points="1020.98,-89 1010.81,-91.96 1020.61,-95.99 1020.98,-89"/>
</g>
<!-- aggregator -->
<g id="node29" class="node">
<title>aggregator</title>
<ellipse fill="none" stroke="black" cx="1430" cy="-306" rx="48.19" ry="18"/>
<text text-anchor="middle" x="1430" y="-302.3" font-family="Times,serif" font-size="14.00">aggregator</text>
</g>
<!-- optional_aggregator&#45;&gt;aggregator -->
<g id="edge85" class="edge">
<title>optional_aggregator&#45;&gt;aggregator</title>
<path fill="none" stroke="black" d="M1426.48,-434.06C1443.45,-425.66 1461.34,-413.3 1471,-396 1482.83,-374.81 1468.75,-349.6 1453.95,-331.43"/>
<polygon fill="black" stroke="black" points="1456.93,-329.52 1447.74,-324.27 1451.65,-334.11 1456.93,-329.52"/>
</g>
<!-- aggregator_factory -->
<g id="node30" class="node">
<title>aggregator_factory</title>
<ellipse fill="none" stroke="black" cx="1385" cy="-378" rx="77.19" ry="18"/>
<text text-anchor="middle" x="1385" y="-374.3" font-family="Times,serif" font-size="14.00">aggregator_factory</text>
</g>
<!-- optional_aggregator&#45;&gt;aggregator_factory -->
<g id="edge86" class="edge">
<title>optional_aggregator&#45;&gt;aggregator_factory</title>
<path fill="none" stroke="black" d="M1385,-431.7C1385,-424.41 1385,-415.73 1385,-407.54"/>
<polygon fill="black" stroke="black" points="1388.5,-407.62 1385,-397.62 1381.5,-407.62 1388.5,-407.62"/>
</g>
<!-- comparator&#45;&gt;bcs -->
<g id="edge87" class="edge">
<title>comparator&#45;&gt;bcs</title>
<path fill="none" stroke="black" d="M232.96,-294.44C284.36,-280.87 372.88,-257.49 422.18,-244.46"/>
<polygon fill="black" stroke="black" points="423.01,-247.86 431.78,-241.92 421.22,-241.09 423.01,-247.86"/>
</g>
<!-- timestamp&#45;&gt;error -->
<g id="edge88" class="edge">
<title>timestamp&#45;&gt;error</title>
<path fill="none" stroke="black" d="M1654.35,-362.45C1618.18,-342.57 1549.61,-307.22 1487,-288 1388.03,-257.62 1266.24,-243.57 1205.03,-238.05"/>
<polygon fill="black" stroke="black" points="1205.4,-234.56 1195.13,-237.18 1204.79,-241.54 1205.4,-234.56"/>
</g>
<!-- timestamp&#45;&gt;system_addresses -->
<g id="edge89" class="edge">
<title>timestamp&#45;&gt;system_addresses</title>
<path fill="none" stroke="black" d="M1701.48,-361.81C1714.64,-352.51 1731.73,-340.42 1746.51,-329.97"/>
<polygon fill="black" stroke="black" points="1748.45,-332.89 1754.6,-324.25 1744.41,-327.17 1748.45,-332.89"/>
</g>
<!-- bls12381&#45;&gt;error -->
<g id="edge91" class="edge">
<title>bls12381&#45;&gt;error</title>
<path fill="none" stroke="black" d="M1956.45,-293.95C1948.53,-291.63 1940.03,-289.46 1932,-288 1657.1,-238.13 1318.91,-234.39 1205.3,-234.68"/>
<polygon fill="black" stroke="black" points="1205.6,-231.18 1195.61,-234.71 1205.63,-238.18 1205.6,-231.18"/>
</g>
<!-- bls12381&#45;&gt;option -->
<g id="edge90" class="edge">
<title>bls12381&#45;&gt;option</title>
<path fill="none" stroke="black" d="M1963.24,-291.2C1901.77,-259 1740.77,-178.98 1596,-144 1385.39,-93.12 1124.24,-89.43 1021.01,-90.22"/>
<polygon fill="black" stroke="black" points="1020.98,-86.72 1011.01,-90.32 1021.05,-93.72 1020.98,-86.72"/>
</g>
<!-- aggregator_factory&#45;&gt;error -->
<g id="edge93" class="edge">
<title>aggregator_factory&#45;&gt;error</title>
<path fill="none" stroke="black" d="M1379.66,-359.69C1372.6,-339.61 1358.26,-306.87 1335,-288 1297.4,-257.5 1242.11,-244.47 1205.13,-238.96"/>
<polygon fill="black" stroke="black" points="1205.69,-235.5 1195.31,-237.62 1204.75,-242.44 1205.69,-235.5"/>
</g>
<!-- aggregator_factory&#45;&gt;table -->
<g id="edge92" class="edge">
<title>aggregator_factory&#45;&gt;table</title>
<path fill="none" stroke="black" d="M1364.38,-360.41C1352.25,-350.65 1336.8,-338.22 1323.86,-327.81"/>
<polygon fill="black" stroke="black" points="1326.13,-325.14 1316.14,-321.6 1321.74,-330.59 1326.13,-325.14"/>
</g>
<!-- aggregator_factory&#45;&gt;system_addresses -->
<g id="edge94" class="edge">
<title>aggregator_factory&#45;&gt;system_addresses</title>
<path fill="none" stroke="black" d="M1444.84,-366.37C1516,-353.73 1634.54,-332.66 1709.64,-319.32"/>
<polygon fill="black" stroke="black" points="1710.13,-322.79 1719.36,-317.6 1708.9,-315.9 1710.13,-322.79"/>
</g>
<!-- aggregator_factory&#45;&gt;aggregator -->
<g id="edge95" class="edge">
<title>aggregator_factory&#45;&gt;aggregator</title>
<path fill="none" stroke="black" d="M1396.12,-359.7C1401.27,-351.7 1407.49,-342.02 1413.19,-333.15"/>
<polygon fill="black" stroke="black" points="1416.03,-335.2 1418.5,-324.9 1410.14,-331.41 1416.03,-335.2"/>
</g>
</g>
</svg>
