<?xml version="1.0" encoding="UTF-8" standalone="no"?>
<!DOCTYPE svg PUBLIC "-//W3C//DTD SVG 1.1//EN"
 "http://www.w3.org/Graphics/SVG/1.1/DTD/svg11.dtd">
<!-- Generated by graphviz version 7.0.0 (20221023.0053)
 -->
<!-- Title: G Pages: 1 -->
<svg width="2032pt" height="692pt"
 viewBox="0.00 0.00 2031.70 692.00" xmlns="http://www.w3.org/2000/svg" xmlns:xlink="http://www.w3.org/1999/xlink">
<g id="graph0" class="graph" transform="scale(1 1) rotate(0) translate(4 688)">
<title>G</title>
<polygon fill="white" stroke="none" points="-4,4 -4,-688 2027.7,-688 2027.7,4 -4,4"/>
<!-- stake -->
<g id="node1" class="node">
<title>stake</title>
<ellipse fill="none" stroke="black" cx="958" cy="-666" rx="28.7" ry="18"/>
<text text-anchor="middle" x="958" y="-662.3" font-family="Times,serif" font-size="14.00">stake</text>
</g>
<!-- vector -->
<g id="node2" class="node">
<title>vector</title>
<ellipse fill="none" stroke="black" cx="625" cy="-18" rx="32.49" ry="18"/>
<text text-anchor="middle" x="625" y="-14.3" font-family="Times,serif" font-size="14.00">vector</text>
</g>
<!-- stake&#45;&gt;vector -->
<g id="edge1" class="edge">
<title>stake&#45;&gt;vector</title>
<path fill="none" stroke="black" d="M929.33,-664.86C784.01,-663.95 132.72,-657.36 56,-612 15.77,-588.22 0,-569.73 0,-523 0,-523 0,-523 0,-161 0,-41.68 438.67,-22.62 580.99,-19.58"/>
<polygon fill="black" stroke="black" points="580.83,-23.08 590.76,-19.39 580.7,-16.08 580.83,-23.08"/>
</g>
<!-- option -->
<g id="node3" class="node">
<title>option</title>
<ellipse fill="none" stroke="black" cx="625" cy="-90" rx="33.29" ry="18"/>
<text text-anchor="middle" x="625" y="-86.3" font-family="Times,serif" font-size="14.00">option</text>
</g>
<!-- stake&#45;&gt;option -->
<g id="edge2" class="edge">
<title>stake&#45;&gt;option</title>
<path fill="none" stroke="black" d="M929.28,-664.3C792.12,-660.82 207.34,-644.17 133,-612 79.9,-589.02 38,-580.86 38,-523 38,-523 38,-523 38,-233 38,-121.44 443.6,-97.23 580.49,-92.24"/>
<polygon fill="black" stroke="black" points="580.37,-95.74 590.25,-91.9 580.13,-88.75 580.37,-95.74"/>
</g>
<!-- signer -->
<g id="node4" class="node">
<title>signer</title>
<ellipse fill="none" stroke="black" cx="1626" cy="-234" rx="32.49" ry="18"/>
<text text-anchor="middle" x="1626" y="-230.3" font-family="Times,serif" font-size="14.00">signer</text>
</g>
<!-- stake&#45;&gt;signer -->
<g id="edge3" class="edge">
<title>stake&#45;&gt;signer</title>
<path fill="none" stroke="black" d="M986.82,-664.34C1134.16,-660.83 1797.55,-643.3 1827,-612 1930.92,-501.55 1829.1,-393.33 1720,-288 1703.36,-271.94 1680.91,-259.04 1662.12,-249.99"/>
<polygon fill="black" stroke="black" points="1663.76,-246.89 1653.21,-245.87 1660.82,-253.25 1663.76,-246.89"/>
</g>
<!-- error -->
<g id="node5" class="node">
<title>error</title>
<ellipse fill="none" stroke="black" cx="1018" cy="-234" rx="27.9" ry="18"/>
<text text-anchor="middle" x="1018" y="-230.3" font-family="Times,serif" font-size="14.00">error</text>
</g>
<!-- stake&#45;&gt;error -->
<g id="edge4" class="edge">
<title>stake&#45;&gt;error</title>
<path fill="none" stroke="black" d="M929.63,-662.93C789.08,-652.32 174,-601.41 174,-523 174,-523 174,-523 174,-449 174,-364.53 202.18,-330.8 275,-288 341.19,-249.1 889.49,-265.84 965,-252 971.12,-250.88 977.51,-249.25 983.65,-247.43"/>
<polygon fill="black" stroke="black" points="984.41,-250.86 992.88,-244.49 982.29,-244.19 984.41,-250.86"/>
</g>
<!-- system_addresses -->
<g id="node6" class="node">
<title>system_addresses</title>
<ellipse fill="none" stroke="black" cx="1449" cy="-306" rx="73.39" ry="18"/>
<text text-anchor="middle" x="1449" y="-302.3" font-family="Times,serif" font-size="14.00">system_addresses</text>
</g>
<!-- stake&#45;&gt;system_addresses -->
<g id="edge5" class="edge">
<title>stake&#45;&gt;system_addresses</title>
<path fill="none" stroke="black" d="M987.02,-665.37C1118.74,-666.27 1654,-661.43 1654,-523 1654,-523 1654,-523 1654,-449 1654,-402.03 1633.74,-389.26 1597,-360 1573.73,-341.47 1543.45,-329.11 1516.35,-321.03"/>
<polygon fill="black" stroke="black" points="1517.38,-317.68 1506.81,-318.34 1515.48,-324.42 1517.38,-317.68"/>
</g>
<!-- event -->
<g id="node7" class="node">
<title>event</title>
<ellipse fill="none" stroke="black" cx="270" cy="-378" rx="29.8" ry="18"/>
<text text-anchor="middle" x="270" y="-374.3" font-family="Times,serif" font-size="14.00">event</text>
</g>
<!-- stake&#45;&gt;event -->
<g id="edge6" class="edge">
<title>stake&#45;&gt;event</title>
<path fill="none" stroke="black" d="M933.3,-656.36C859.1,-630.19 631.94,-548.67 449,-468 396.4,-444.8 336.92,-414.36 301.5,-395.76"/>
<polygon fill="black" stroke="black" points="303.55,-392.89 293.08,-391.33 300.29,-399.09 303.55,-392.89"/>
</g>
<!-- account -->
<g id="node8" class="node">
<title>account</title>
<ellipse fill="none" stroke="black" cx="673" cy="-450" rx="38.19" ry="18"/>
<text text-anchor="middle" x="673" y="-446.3" font-family="Times,serif" font-size="14.00">account</text>
</g>
<!-- stake&#45;&gt;account -->
<g id="edge7" class="edge">
<title>stake&#45;&gt;account</title>
<path fill="none" stroke="black" d="M940.17,-651.61C892.27,-615.64 760.42,-516.64 701.78,-472.61"/>
<polygon fill="black" stroke="black" points="704,-469.9 693.9,-466.69 699.79,-475.5 704,-469.9"/>
</g>
<!-- coin -->
<g id="node9" class="node">
<title>coin</title>
<ellipse fill="none" stroke="black" cx="1213" cy="-522" rx="27" ry="18"/>
<text text-anchor="middle" x="1213" y="-518.3" font-family="Times,serif" font-size="14.00">coin</text>
</g>
<!-- stake&#45;&gt;coin -->
<g id="edge8" class="edge">
<title>stake&#45;&gt;coin</title>
<path fill="none" stroke="black" d="M978.87,-653.38C1023.94,-628.28 1130.52,-568.93 1182.89,-539.76"/>
<polygon fill="black" stroke="black" points="1184.55,-542.85 1191.59,-534.92 1181.15,-536.73 1184.55,-542.85"/>
</g>
<!-- aptos_coin -->
<g id="node10" class="node">
<title>aptos_coin</title>
<ellipse fill="none" stroke="black" cx="1769" cy="-594" rx="48.99" ry="18"/>
<text text-anchor="middle" x="1769" y="-590.3" font-family="Times,serif" font-size="14.00">aptos_coin</text>
</g>
<!-- stake&#45;&gt;aptos_coin -->
<g id="edge9" class="edge">
<title>stake&#45;&gt;aptos_coin</title>
<path fill="none" stroke="black" d="M986.84,-663.8C1083.45,-659.59 1404.48,-643.94 1668,-612 1683.33,-610.14 1699.89,-607.59 1715.07,-605.02"/>
<polygon fill="black" stroke="black" points="1715.62,-608.48 1724.88,-603.33 1714.43,-601.58 1715.62,-608.48"/>
</g>
<!-- timestamp -->
<g id="node11" class="node">
<title>timestamp</title>
<ellipse fill="none" stroke="black" cx="958" cy="-378" rx="48.19" ry="18"/>
<text text-anchor="middle" x="958" y="-374.3" font-family="Times,serif" font-size="14.00">timestamp</text>
</g>
<!-- stake&#45;&gt;timestamp -->
<g id="edge10" class="edge">
<title>stake&#45;&gt;timestamp</title>
<path fill="none" stroke="black" d="M958,-647.54C958,-599.76 958,-466.51 958,-407.61"/>
<polygon fill="black" stroke="black" points="961.5,-407.75 958,-397.75 954.5,-407.75 961.5,-407.75"/>
</g>
<!-- staking_config -->
<g id="node12" class="node">
<title>staking_config</title>
<ellipse fill="none" stroke="black" cx="1525" cy="-378" rx="63.09" ry="18"/>
<text text-anchor="middle" x="1525" y="-374.3" font-family="Times,serif" font-size="14.00">staking_config</text>
</g>
<!-- stake&#45;&gt;staking_config -->
<g id="edge11" class="edge">
<title>stake&#45;&gt;staking_config</title>
<path fill="none" stroke="black" d="M982.71,-656.45C1011.06,-646.46 1058.82,-629.12 1099,-612 1235.42,-553.86 1272.23,-543.29 1400,-468 1434.19,-447.85 1470.92,-421.02 1495.65,-402.1"/>
<polygon fill="black" stroke="black" points="1497.53,-405.07 1503.31,-396.19 1493.26,-399.52 1497.53,-405.07"/>
</g>
<!-- math64 -->
<g id="node13" class="node">
<title>math64</title>
<ellipse fill="none" stroke="black" cx="1986" cy="-594" rx="37.89" ry="18"/>
<text text-anchor="middle" x="1986" y="-590.3" font-family="Times,serif" font-size="14.00">math64</text>
</g>
<!-- stake&#45;&gt;math64 -->
<g id="edge12" class="edge">
<title>stake&#45;&gt;math64</title>
<path fill="none" stroke="black" d="M986.83,-664.45C1127.81,-661.61 1745.31,-647.33 1934,-612 1937.9,-611.27 1941.91,-610.33 1945.89,-609.26"/>
<polygon fill="black" stroke="black" points="1946.88,-612.61 1955.47,-606.42 1944.89,-605.9 1946.88,-612.61"/>
</g>
<!-- bls12381 -->
<g id="node14" class="node">
<title>bls12381</title>
<ellipse fill="none" stroke="black" cx="147" cy="-306" rx="42.79" ry="18"/>
<text text-anchor="middle" x="147" y="-302.3" font-family="Times,serif" font-size="14.00">bls12381</text>
</g>
<!-- stake&#45;&gt;bls12381 -->
<g id="edge13" class="edge">
<title>stake&#45;&gt;bls12381</title>
<path fill="none" stroke="black" d="M929.29,-665.04C793.6,-664.95 220.53,-661.64 160,-612 128.32,-586.02 136,-563.97 136,-523 136,-523 136,-523 136,-449 136,-409.62 140.26,-364.29 143.47,-335.64"/>
<polygon fill="black" stroke="black" points="146.92,-336.3 144.6,-325.96 139.97,-335.49 146.92,-336.3"/>
</g>
<!-- option&#45;&gt;vector -->
<g id="edge14" class="edge">
<title>option&#45;&gt;vector</title>
<path fill="none" stroke="black" d="M625,-71.7C625,-64.41 625,-55.73 625,-47.54"/>
<polygon fill="black" stroke="black" points="628.5,-47.62 625,-37.62 621.5,-47.62 628.5,-47.62"/>
</g>
<!-- system_addresses&#45;&gt;signer -->
<g id="edge15" class="edge">
<title>system_addresses&#45;&gt;signer</title>
<path fill="none" stroke="black" d="M1486.54,-290.15C1516.9,-278.15 1559.42,-261.33 1589.5,-249.43"/>
<polygon fill="black" stroke="black" points="1590.56,-252.78 1598.57,-245.85 1587.98,-246.27 1590.56,-252.78"/>
</g>
<!-- system_addresses&#45;&gt;error -->
<g id="edge16" class="edge">
<title>system_addresses&#45;&gt;error</title>
<path fill="none" stroke="black" d="M1393.83,-293.87C1383.28,-291.84 1372.31,-289.8 1362,-288 1251.33,-268.67 1119.96,-249.46 1056.33,-240.39"/>
<polygon fill="black" stroke="black" points="1057.15,-236.98 1046.76,-239.03 1056.17,-243.91 1057.15,-236.98"/>
</g>
<!-- bcs -->
<g id="node15" class="node">
<title>bcs</title>
<ellipse fill="none" stroke="black" cx="425" cy="-234" rx="27" ry="18"/>
<text text-anchor="middle" x="425" y="-230.3" font-family="Times,serif" font-size="14.00">bcs</text>
</g>
<!-- event&#45;&gt;bcs -->
<g id="edge17" class="edge">
<title>event&#45;&gt;bcs</title>
<path fill="none" stroke="black" d="M265.77,-359.7C262.09,-340.25 259.49,-308.67 275,-288 300.99,-253.36 351.4,-241.27 386.58,-237.1"/>
<polygon fill="black" stroke="black" points="386.76,-240.6 396.36,-236.12 386.06,-233.64 386.76,-240.6"/>
</g>
<!-- guid -->
<g id="node16" class="node">
<title>guid</title>
<ellipse fill="none" stroke="black" cx="311" cy="-306" rx="27" ry="18"/>
<text text-anchor="middle" x="311" y="-302.3" font-family="Times,serif" font-size="14.00">guid</text>
</g>
<!-- event&#45;&gt;guid -->
<g id="edge18" class="edge">
<title>event&#45;&gt;guid</title>
<path fill="none" stroke="black" d="M279.51,-360.76C284.37,-352.46 290.41,-342.15 295.89,-332.79"/>
<polygon fill="black" stroke="black" points="298.74,-334.85 300.78,-324.45 292.7,-331.31 298.74,-334.85"/>
</g>
<!-- account&#45;&gt;vector -->
<g id="edge19" class="edge">
<title>account&#45;&gt;vector</title>
<path fill="none" stroke="black" d="M634.47,-449.07C556.47,-448.21 375.02,-441.04 231,-396 165.73,-375.58 136.23,-378.57 95,-324 70.62,-291.73 76,-275.45 76,-235 76,-235 76,-235 76,-161 76,-56.94 450.37,-27.91 580.82,-20.95"/>
<polygon fill="black" stroke="black" points="580.98,-24.45 590.79,-20.44 580.62,-17.46 580.98,-24.45"/>
</g>
<!-- account&#45;&gt;option -->
<g id="edge20" class="edge">
<title>account&#45;&gt;option</title>
<path fill="none" stroke="black" d="M636.72,-443.66C579.82,-434.81 472.71,-416.07 440,-396 396.16,-369.09 366,-358.44 366,-307 366,-307 366,-307 366,-233 366,-136.13 507.01,-104.91 580.94,-95.19"/>
<polygon fill="black" stroke="black" points="581.2,-98.68 590.7,-93.99 580.34,-91.74 581.2,-98.68"/>
</g>
<!-- account&#45;&gt;signer -->
<g id="edge23" class="edge">
<title>account&#45;&gt;signer</title>
<path fill="none" stroke="black" d="M708.21,-442.52C745.54,-434.78 805.54,-419.81 853,-396 876.84,-384.04 877.03,-371.68 901,-360 1138.27,-244.37 1464.91,-233.97 1582.02,-234.25"/>
<polygon fill="black" stroke="black" points="1581.8,-237.75 1591.82,-234.31 1581.84,-230.75 1581.8,-237.75"/>
</g>
<!-- account&#45;&gt;error -->
<g id="edge24" class="edge">
<title>account&#45;&gt;error</title>
<path fill="none" stroke="black" d="M695.86,-435.14C712.04,-424.98 733.98,-410.48 752,-396 758.77,-390.56 857.59,-292.53 865,-288 875.3,-281.71 940.65,-260 982.54,-246.4"/>
<polygon fill="black" stroke="black" points="983.54,-249.75 991.97,-243.34 981.38,-243.1 983.54,-249.75"/>
</g>
<!-- account&#45;&gt;system_addresses -->
<g id="edge25" class="edge">
<title>account&#45;&gt;system_addresses</title>
<path fill="none" stroke="black" d="M711.18,-447.34C824.62,-442.14 1158.25,-424.76 1263,-396 1318.06,-380.88 1376.72,-350.05 1413.11,-328.96"/>
<polygon fill="black" stroke="black" points="1414.61,-332.14 1421.46,-324.06 1411.06,-326.1 1414.61,-332.14"/>
</g>
<!-- account&#45;&gt;event -->
<g id="edge32" class="edge">
<title>account&#45;&gt;event</title>
<path fill="none" stroke="black" d="M636.56,-444.09C551.52,-432.56 344.84,-404.13 314,-396 310.88,-395.18 307.68,-394.21 304.5,-393.15"/>
<polygon fill="black" stroke="black" points="305.91,-389.94 295.31,-389.85 303.54,-396.53 305.91,-389.94"/>
</g>
<!-- account&#45;&gt;bcs -->
<g id="edge27" class="edge">
<title>account&#45;&gt;bcs</title>
<path fill="none" stroke="black" d="M636.41,-444.09C583.85,-436.32 490.67,-419.59 467,-396 431.52,-360.64 424.84,-299.32 424.22,-263.43"/>
<polygon fill="black" stroke="black" points="427.72,-263.81 424.21,-253.82 420.72,-263.82 427.72,-263.81"/>
</g>
<!-- account&#45;&gt;guid -->
<g id="edge30" class="edge">
<title>account&#45;&gt;guid</title>
<path fill="none" stroke="black" d="M636.48,-443.9C554.74,-432.37 363.29,-404.6 352,-396 332.66,-381.26 322.14,-355.23 316.61,-335.12"/>
<polygon fill="black" stroke="black" points="320.05,-334.44 314.27,-325.56 313.25,-336.1 320.05,-334.44"/>
</g>
<!-- type_info -->
<g id="node17" class="node">
<title>type_info</title>
<ellipse fill="none" stroke="black" cx="717" cy="-234" rx="44.39" ry="18"/>
<text text-anchor="middle" x="717" y="-230.3" font-family="Times,serif" font-size="14.00">type_info</text>
</g>
<!-- account&#45;&gt;type_info -->
<g id="edge21" class="edge">
<title>account&#45;&gt;type_info</title>
<path fill="none" stroke="black" d="M676.53,-431.85C684.09,-395.07 701.93,-308.29 711.19,-263.24"/>
<polygon fill="black" stroke="black" points="714.57,-264.21 713.15,-253.71 707.71,-262.81 714.57,-264.21"/>
</g>
<!-- table -->
<g id="node18" class="node">
<title>table</title>
<ellipse fill="none" stroke="black" cx="902" cy="-306" rx="27.9" ry="18"/>
<text text-anchor="middle" x="902" y="-302.3" font-family="Times,serif" font-size="14.00">table</text>
</g>
<!-- account&#45;&gt;table -->
<g id="edge22" class="edge">
<title>account&#45;&gt;table</title>
<path fill="none" stroke="black" d="M707.23,-441.62C738.47,-433.78 784.97,-419.26 820,-396 845.87,-378.82 869.2,-351.81 884.3,-332.05"/>
<polygon fill="black" stroke="black" points="886.97,-334.33 890.13,-324.22 881.35,-330.15 886.97,-334.33"/>
</g>
<!-- hash -->
<g id="node19" class="node">
<title>hash</title>
<ellipse fill="none" stroke="black" cx="501" cy="-234" rx="27" ry="18"/>
<text text-anchor="middle" x="501" y="-230.3" font-family="Times,serif" font-size="14.00">hash</text>
</g>
<!-- account&#45;&gt;hash -->
<g id="edge26" class="edge">
<title>account&#45;&gt;hash</title>
<path fill="none" stroke="black" d="M636.77,-444C587.46,-436.38 503.27,-420.13 485,-396 455.47,-357 473.52,-296.55 488.08,-261.89"/>
<polygon fill="black" stroke="black" points="491.18,-263.55 492.01,-252.98 484.77,-260.72 491.18,-263.55"/>
</g>
<!-- ed25519 -->
<g id="node20" class="node">
<title>ed25519</title>
<ellipse fill="none" stroke="black" cx="625" cy="-306" rx="40.89" ry="18"/>
<text text-anchor="middle" x="625" y="-302.3" font-family="Times,serif" font-size="14.00">ed25519</text>
</g>
<!-- account&#45;&gt;ed25519 -->
<g id="edge28" class="edge">
<title>account&#45;&gt;ed25519</title>
<path fill="none" stroke="black" d="M667.21,-431.87C659.07,-407.78 644.13,-363.6 634.39,-334.77"/>
<polygon fill="black" stroke="black" points="637.81,-333.98 631.3,-325.62 631.18,-336.22 637.81,-333.98"/>
</g>
<!-- multi_ed25519 -->
<g id="node21" class="node">
<title>multi_ed25519</title>
<ellipse fill="none" stroke="black" cx="558" cy="-378" rx="64.19" ry="18"/>
<text text-anchor="middle" x="558" y="-374.3" font-family="Times,serif" font-size="14.00">multi_ed25519</text>
</g>
<!-- account&#45;&gt;multi_ed25519 -->
<g id="edge29" class="edge">
<title>account&#45;&gt;multi_ed25519</title>
<path fill="none" stroke="black" d="M650.28,-435.17C634.15,-425.35 612.18,-411.98 593.72,-400.74"/>
<polygon fill="black" stroke="black" points="595.54,-397.75 585.18,-395.54 591.9,-403.73 595.54,-397.75"/>
</g>
<!-- from_bcs -->
<g id="node22" class="node">
<title>from_bcs</title>
<ellipse fill="none" stroke="black" cx="912" cy="-234" rx="44.39" ry="18"/>
<text text-anchor="middle" x="912" y="-230.3" font-family="Times,serif" font-size="14.00">from_bcs</text>
</g>
<!-- account&#45;&gt;from_bcs -->
<g id="edge31" class="edge">
<title>account&#45;&gt;from_bcs</title>
<path fill="none" stroke="black" d="M686.92,-432.83C713.44,-402.52 773.75,-335.92 832,-288 846.32,-276.22 863.31,-264.66 877.95,-255.36"/>
<polygon fill="black" stroke="black" points="879.73,-258.38 886.35,-250.11 876.02,-252.44 879.73,-258.38"/>
</g>
<!-- coin&#45;&gt;option -->
<g id="edge33" class="edge">
<title>coin&#45;&gt;option</title>
<path fill="none" stroke="black" d="M1187.11,-515.78C1130.34,-503.29 992.64,-467.32 901,-396 822.92,-335.23 837.03,-288.78 770,-216 732.86,-175.67 683.39,-135.42 652.89,-111.89"/>
<polygon fill="black" stroke="black" points="655.34,-109.36 645.27,-106.06 651.09,-114.92 655.34,-109.36"/>
</g>
<!-- coin&#45;&gt;signer -->
<g id="edge36" class="edge">
<title>coin&#45;&gt;signer</title>
<path fill="none" stroke="black" d="M1240.32,-521.21C1311.57,-520.15 1503.92,-506.66 1597,-396 1628.4,-358.67 1630.72,-298.96 1628.85,-263.71"/>
<polygon fill="black" stroke="black" points="1632.35,-263.57 1628.16,-253.84 1625.36,-264.06 1632.35,-263.57"/>
</g>
<!-- coin&#45;&gt;error -->
<g id="edge37" class="edge">
<title>coin&#45;&gt;error</title>
<path fill="none" stroke="black" d="M1191.25,-510.93C1172.1,-501.45 1144.07,-486.05 1123,-468 1091.58,-441.09 1083.19,-432.65 1064,-396 1041.3,-352.65 1028.56,-296.7 1022.5,-263.46"/>
<polygon fill="black" stroke="black" points="1025.98,-263.05 1020.82,-253.8 1019.09,-264.25 1025.98,-263.05"/>
</g>
<!-- coin&#45;&gt;system_addresses -->
<g id="edge38" class="edge">
<title>coin&#45;&gt;system_addresses</title>
<path fill="none" stroke="black" d="M1239.81,-518.48C1274.23,-513.95 1334.04,-501.51 1372,-468 1412.28,-432.44 1433.32,-371.19 1442.7,-335.36"/>
<polygon fill="black" stroke="black" points="1446.08,-336.28 1445.09,-325.73 1439.29,-334.6 1446.08,-336.28"/>
</g>
<!-- coin&#45;&gt;event -->
<g id="edge39" class="edge">
<title>coin&#45;&gt;event</title>
<path fill="none" stroke="black" d="M1185.91,-519.93C1102.16,-516.32 840.11,-502.84 626,-468 488.95,-445.7 455.66,-433.61 322,-396 316.84,-394.55 311.43,-392.91 306.13,-391.24"/>
<polygon fill="black" stroke="black" points="307.56,-388.02 296.97,-388.28 305.41,-394.68 307.56,-388.02"/>
</g>
<!-- coin&#45;&gt;account -->
<g id="edge40" class="edge">
<title>coin&#45;&gt;account</title>
<path fill="none" stroke="black" d="M1185.98,-518.75C1114.93,-512.66 917.11,-494.48 754,-468 742.18,-466.08 729.47,-463.61 717.7,-461.15"/>
<polygon fill="black" stroke="black" points="718.75,-457.79 708.24,-459.13 717.29,-464.64 718.75,-457.79"/>
</g>
<!-- coin&#45;&gt;type_info -->
<g id="edge35" class="edge">
<title>coin&#45;&gt;type_info</title>
<path fill="none" stroke="black" d="M1237.46,-514.15C1259,-506.68 1289.05,-492.4 1303,-468 1328.39,-423.59 1354.32,-356.11 1282,-288 1247.66,-255.66 905.92,-256.8 859,-252 829.63,-248.99 796.91,-245.11 770.29,-241.82"/>
<polygon fill="black" stroke="black" points="770.76,-238.35 760.4,-240.59 769.89,-245.3 770.76,-238.35"/>
</g>
<!-- string -->
<g id="node23" class="node">
<title>string</title>
<ellipse fill="none" stroke="black" cx="1369" cy="-162" rx="30.59" ry="18"/>
<text text-anchor="middle" x="1369" y="-158.3" font-family="Times,serif" font-size="14.00">string</text>
</g>
<!-- coin&#45;&gt;string -->
<g id="edge34" class="edge">
<title>coin&#45;&gt;string</title>
<path fill="none" stroke="black" d="M1240.34,-521.87C1299.1,-522.67 1440.51,-518.67 1544,-468 1643.22,-419.42 1649.99,-361.16 1667,-252 1669.46,-236.19 1677.28,-228.26 1667,-216 1634.85,-177.62 1485.45,-167.01 1411.16,-164.1"/>
<polygon fill="black" stroke="black" points="1411.55,-160.61 1401.43,-163.75 1411.3,-167.6 1411.55,-160.61"/>
</g>
<!-- optional_aggregator -->
<g id="node24" class="node">
<title>optional_aggregator</title>
<ellipse fill="none" stroke="black" cx="1213" cy="-450" rx="81.49" ry="18"/>
<text text-anchor="middle" x="1213" y="-446.3" font-family="Times,serif" font-size="14.00">optional_aggregator</text>
</g>
<!-- coin&#45;&gt;optional_aggregator -->
<g id="edge41" class="edge">
<title>coin&#45;&gt;optional_aggregator</title>
<path fill="none" stroke="black" d="M1213,-503.7C1213,-496.41 1213,-487.73 1213,-479.54"/>
<polygon fill="black" stroke="black" points="1216.5,-479.62 1213,-469.62 1209.5,-479.62 1216.5,-479.62"/>
</g>
<!-- aptos_coin&#45;&gt;vector -->
<g id="edge42" class="edge">
<title>aptos_coin&#45;&gt;vector</title>
<path fill="none" stroke="black" d="M1808.16,-582.71C1863.52,-565.51 1958,-525.29 1958,-451 1958,-451 1958,-451 1958,-161 1958,-28.25 899.18,-19.33 668.87,-18.96"/>
<polygon fill="black" stroke="black" points="669.14,-15.46 659.13,-18.95 669.13,-22.46 669.14,-15.46"/>
</g>
<!-- aptos_coin&#45;&gt;option -->
<g id="edge43" class="edge">
<title>aptos_coin&#45;&gt;option</title>
<path fill="none" stroke="black" d="M1794.13,-578.35C1809.03,-568.78 1827.57,-555.26 1841,-540 1893.66,-480.16 1920,-458.71 1920,-379 1920,-379 1920,-379 1920,-233 1920,-104.41 898,-92.22 669.81,-91.11"/>
<polygon fill="black" stroke="black" points="670.17,-87.61 660.16,-91.06 670.14,-94.61 670.17,-87.61"/>
</g>
<!-- aptos_coin&#45;&gt;signer -->
<g id="edge45" class="edge">
<title>aptos_coin&#45;&gt;signer</title>
<path fill="none" stroke="black" d="M1770.77,-575.64C1774.12,-535.55 1778.22,-434.27 1744,-360 1723.8,-316.17 1682.04,-277.83 1654.01,-255.54"/>
<polygon fill="black" stroke="black" points="1656.32,-252.9 1646.28,-249.54 1652.03,-258.43 1656.32,-252.9"/>
</g>
<!-- aptos_coin&#45;&gt;error -->
<g id="edge46" class="edge">
<title>aptos_coin&#45;&gt;error</title>
<path fill="none" stroke="black" d="M1767.91,-575.59C1764.42,-533.62 1750.18,-425.46 1694,-360 1647.4,-305.7 1618.74,-307.88 1550,-288 1457.27,-261.19 1164.07,-242.96 1057.34,-237.06"/>
<polygon fill="black" stroke="black" points="1057.54,-233.57 1047.36,-236.52 1057.16,-240.56 1057.54,-233.57"/>
</g>
<!-- aptos_coin&#45;&gt;system_addresses -->
<g id="edge47" class="edge">
<title>aptos_coin&#45;&gt;system_addresses</title>
<path fill="none" stroke="black" d="M1748.74,-577.32C1737.57,-567.68 1724.32,-554.43 1716,-540 1674.65,-468.27 1727.22,-417.86 1668,-360 1647.55,-340.02 1579.05,-325.58 1524.04,-316.86"/>
<polygon fill="black" stroke="black" points="1524.79,-313.44 1514.38,-315.37 1523.73,-320.35 1524.79,-313.44"/>
</g>
<!-- aptos_coin&#45;&gt;coin -->
<g id="edge48" class="edge">
<title>aptos_coin&#45;&gt;coin</title>
<path fill="none" stroke="black" d="M1723.03,-587.21C1615.52,-573.68 1349.35,-540.17 1250.63,-527.74"/>
<polygon fill="black" stroke="black" points="1251.31,-524.3 1240.95,-526.52 1250.43,-531.24 1251.31,-524.3"/>
</g>
<!-- aptos_coin&#45;&gt;string -->
<g id="edge44" class="edge">
<title>aptos_coin&#45;&gt;string</title>
<path fill="none" stroke="black" d="M1784.95,-576.56C1816.1,-542.63 1882,-461.14 1882,-379 1882,-379 1882,-379 1882,-305 1882,-207.52 1533.58,-174.27 1411.03,-165.59"/>
<polygon fill="black" stroke="black" points="1411.28,-162.1 1401.06,-164.9 1410.8,-169.08 1411.28,-162.1"/>
</g>
<!-- timestamp&#45;&gt;error -->
<g id="edge49" class="edge">
<title>timestamp&#45;&gt;error</title>
<path fill="none" stroke="black" d="M965.24,-359.87C975.47,-335.65 994.29,-291.12 1006.46,-262.31"/>
<polygon fill="black" stroke="black" points="1009.67,-263.72 1010.33,-253.14 1003.22,-260.99 1009.67,-263.72"/>
</g>
<!-- timestamp&#45;&gt;system_addresses -->
<g id="edge50" class="edge">
<title>timestamp&#45;&gt;system_addresses</title>
<path fill="none" stroke="black" d="M1002.44,-370.66C1087.08,-358.6 1272.18,-332.21 1375.52,-317.48"/>
<polygon fill="black" stroke="black" points="1375.89,-320.96 1385.29,-316.08 1374.9,-314.03 1375.89,-320.96"/>
</g>
<!-- staking_config&#45;&gt;error -->
<g id="edge51" class="edge">
<title>staking_config&#45;&gt;error</title>
<path fill="none" stroke="black" d="M1532.68,-359.88C1540.3,-340 1548.53,-307.43 1531,-288 1499.4,-252.96 1172.03,-239.69 1057.39,-236.1"/>
<polygon fill="black" stroke="black" points="1057.66,-232.6 1047.55,-235.8 1057.44,-239.6 1057.66,-232.6"/>
</g>
<!-- staking_config&#45;&gt;system_addresses -->
<g id="edge52" class="edge">
<title>staking_config&#45;&gt;system_addresses</title>
<path fill="none" stroke="black" d="M1506.99,-360.41C1497.59,-351.76 1485.92,-341 1475.51,-331.42"/>
<polygon fill="black" stroke="black" points="1477.98,-328.94 1468.26,-324.74 1473.24,-334.09 1477.98,-328.94"/>
</g>
<!-- bls12381&#45;&gt;option -->
<g id="edge53" class="edge">
<title>bls12381&#45;&gt;option</title>
<path fill="none" stroke="black" d="M162.21,-288.69C194.02,-255.66 271.33,-180.88 352,-144 427.43,-109.52 524.55,-97.45 580.29,-93.24"/>
<polygon fill="black" stroke="black" points="580.29,-96.75 590.03,-92.56 579.81,-89.76 580.29,-96.75"/>
</g>
<!-- bls12381&#45;&gt;error -->
<g id="edge54" class="edge">
<title>bls12381&#45;&gt;error</title>
<path fill="none" stroke="black" d="M179.53,-293.82C187.45,-291.51 195.96,-289.37 204,-288 537.8,-231.2 631.8,-312.23 965,-252 971.12,-250.89 977.52,-249.27 983.66,-247.46"/>
<polygon fill="black" stroke="black" points="984.42,-250.89 992.89,-244.52 982.3,-244.22 984.42,-250.89"/>
</g>
<!-- type_info&#45;&gt;string -->
<g id="edge55" class="edge">
<title>type_info&#45;&gt;string</title>
<path fill="none" stroke="black" d="M759.23,-227.77C787.46,-224.32 825.44,-219.75 859,-216 1033.02,-196.54 1240.73,-175.69 1327.6,-167.08"/>
<polygon fill="black" stroke="black" points="1327.69,-170.59 1337.3,-166.12 1327,-163.62 1327.69,-170.59"/>
</g>
<!-- ed25519&#45;&gt;option -->
<g id="edge56" class="edge">
<title>ed25519&#45;&gt;option</title>
<path fill="none" stroke="black" d="M625,-287.85C625,-251.14 625,-164.66 625,-119.53"/>
<polygon fill="black" stroke="black" points="628.5,-119.75 625,-109.75 621.5,-119.75 628.5,-119.75"/>
</g>
<!-- ed25519&#45;&gt;error -->
<g id="edge58" class="edge">
<title>ed25519&#45;&gt;error</title>
<path fill="none" stroke="black" d="M662.06,-297.91C679.07,-294.73 699.54,-291.03 718,-288 827.47,-270.02 856.92,-277.03 965,-252 971,-250.61 977.3,-248.86 983.38,-247.01"/>
<polygon fill="black" stroke="black" points="984.05,-250.47 992.52,-244.1 981.93,-243.8 984.05,-250.47"/>
</g>
<!-- ed25519&#45;&gt;bcs -->
<g id="edge60" class="edge">
<title>ed25519&#45;&gt;bcs</title>
<path fill="none" stroke="black" d="M591.94,-294.92C559.39,-284.79 508.39,-268.38 465,-252 462.5,-251.06 459.92,-250.05 457.34,-249.01"/>
<polygon fill="black" stroke="black" points="458.85,-245.85 448.27,-245.26 456.18,-252.32 458.85,-245.85"/>
</g>
<!-- ed25519&#45;&gt;type_info -->
<g id="edge57" class="edge">
<title>ed25519&#45;&gt;type_info</title>
<path fill="none" stroke="black" d="M644.96,-289.81C657.53,-280.25 673.98,-267.74 687.98,-257.08"/>
<polygon fill="black" stroke="black" points="689.72,-260.16 695.55,-251.32 685.48,-254.59 689.72,-260.16"/>
</g>
<!-- ed25519&#45;&gt;hash -->
<g id="edge59" class="edge">
<title>ed25519&#45;&gt;hash</title>
<path fill="none" stroke="black" d="M600.5,-291.17C580.49,-279.87 552.12,-263.86 530.79,-251.82"/>
<polygon fill="black" stroke="black" points="532.7,-248.87 522.27,-247.01 529.26,-254.97 532.7,-248.87"/>
</g>
<!-- multi_ed25519&#45;&gt;option -->
<g id="edge61" class="edge">
<title>multi_ed25519&#45;&gt;option</title>
<path fill="none" stroke="black" d="M561.02,-359.54C564.2,-341.55 569.51,-312.72 575,-288 588.46,-227.44 607.01,-157.15 617.32,-119.05"/>
<polygon fill="black" stroke="black" points="620.59,-120.34 619.84,-109.77 613.84,-118.5 620.59,-120.34"/>
</g>
<!-- multi_ed25519&#45;&gt;error -->
<g id="edge62" class="edge">
<title>multi_ed25519&#45;&gt;error</title>
<path fill="none" stroke="black" d="M597.74,-363.41C650.87,-345.39 748.11,-312.96 832,-288 890.7,-270.54 906.27,-269.36 965,-252 970.7,-250.31 976.73,-248.46 982.59,-246.61"/>
<polygon fill="black" stroke="black" points="983.63,-249.95 992.09,-243.57 981.5,-243.28 983.63,-249.95"/>
</g>
<!-- multi_ed25519&#45;&gt;bcs -->
<g id="edge64" class="edge">
<title>multi_ed25519&#45;&gt;bcs</title>
<path fill="none" stroke="black" d="M542.22,-360.15C518.4,-334.72 473.2,-286.46 446.42,-257.87"/>
<polygon fill="black" stroke="black" points="449.18,-255.69 439.78,-250.78 444.07,-260.48 449.18,-255.69"/>
</g>
<!-- multi_ed25519&#45;&gt;hash -->
<g id="edge63" class="edge">
<title>multi_ed25519&#45;&gt;hash</title>
<path fill="none" stroke="black" d="M551.12,-359.87C541.4,-335.65 523.53,-291.12 511.96,-262.31"/>
<polygon fill="black" stroke="black" points="515.26,-261.13 508.29,-253.15 508.76,-263.74 515.26,-261.13"/>
</g>
<!-- multi_ed25519&#45;&gt;ed25519 -->
<g id="edge65" class="edge">
<title>multi_ed25519&#45;&gt;ed25519</title>
<path fill="none" stroke="black" d="M573.88,-360.41C582.26,-351.66 592.7,-340.75 601.95,-331.08"/>
<polygon fill="black" stroke="black" points="604.26,-333.73 608.65,-324.08 599.21,-328.89 604.26,-333.73"/>
</g>
<!-- from_bcs&#45;&gt;string -->
<g id="edge66" class="edge">
<title>from_bcs&#45;&gt;string</title>
<path fill="none" stroke="black" d="M948.37,-223.28C958.85,-220.68 970.34,-218.04 981,-216 1106.57,-192.02 1257,-174.68 1328.03,-167.15"/>
<polygon fill="black" stroke="black" points="1328.05,-170.67 1337.63,-166.15 1327.32,-163.71 1328.05,-170.67"/>
</g>
<!-- string&#45;&gt;vector -->
<g id="edge67" class="edge">
<title>string&#45;&gt;vector</title>
<path fill="none" stroke="black" d="M1344.51,-150.82C1337.93,-148.34 1330.76,-145.86 1324,-144 1080.34,-76.81 778.61,-37.06 668.12,-23.9"/>
<polygon fill="black" stroke="black" points="668.66,-20.44 658.32,-22.75 667.84,-27.39 668.66,-20.44"/>
</g>
<!-- string&#45;&gt;option -->
<g id="edge68" class="edge">
<title>string&#45;&gt;option</title>
<path fill="none" stroke="black" d="M1345.1,-150.53C1338.39,-147.99 1331.01,-145.56 1324,-144 1198.43,-116.13 803.69,-98.15 669.88,-92.73"/>
<polygon fill="black" stroke="black" points="670.13,-89.24 660,-92.33 669.85,-96.23 670.13,-89.24"/>
</g>
<!-- optional_aggregator&#45;&gt;option -->
<g id="edge69" class="edge">
<title>optional_aggregator&#45;&gt;option</title>
<path fill="none" stroke="black" d="M1243.04,-432.89C1256.55,-423.95 1271.18,-411.48 1279,-396 1300.66,-353.14 1310.36,-326.75 1282,-288 1207.08,-185.64 801.86,-117.22 667.97,-97.13"/>
<polygon fill="black" stroke="black" points="668.87,-93.73 658.46,-95.72 667.84,-100.65 668.87,-93.73"/>
</g>
<!-- optional_aggregator&#45;&gt;error -->
<g id="edge70" class="edge">
<title>optional_aggregator&#45;&gt;error</title>
<path fill="none" stroke="black" d="M1159.87,-435.93C1136.21,-427.81 1109.57,-415.15 1091,-396 1055.04,-358.91 1070.33,-334.59 1048,-288 1043.65,-278.92 1038.38,-269.25 1033.48,-260.7"/>
<polygon fill="black" stroke="black" points="1036.6,-259.11 1028.54,-252.24 1030.56,-262.64 1036.6,-259.11"/>
</g>
<!-- aggregator -->
<g id="node25" class="node">
<title>aggregator</title>
<ellipse fill="none" stroke="black" cx="1225" cy="-306" rx="48.19" ry="18"/>
<text text-anchor="middle" x="1225" y="-302.3" font-family="Times,serif" font-size="14.00">aggregator</text>
</g>
<!-- optional_aggregator&#45;&gt;aggregator -->
<g id="edge71" class="edge">
<title>optional_aggregator&#45;&gt;aggregator</title>
<path fill="none" stroke="black" d="M1235.07,-432.43C1245.68,-423.05 1257.3,-410.34 1263,-396 1268.91,-381.13 1267.9,-375.23 1263,-360 1259.78,-349.98 1253.88,-340.24 1247.68,-331.91"/>
<polygon fill="black" stroke="black" points="1250.6,-329.95 1241.62,-324.33 1245.14,-334.33 1250.6,-329.95"/>
</g>
<!-- aggregator_factory -->
<g id="node26" class="node">
<title>aggregator_factory</title>
<ellipse fill="none" stroke="black" cx="1177" cy="-378" rx="77.19" ry="18"/>
<text text-anchor="middle" x="1177" y="-374.3" font-family="Times,serif" font-size="14.00">aggregator_factory</text>
</g>
<!-- optional_aggregator&#45;&gt;aggregator_factory -->
<g id="edge72" class="edge">
<title>optional_aggregator&#45;&gt;aggregator_factory</title>
<path fill="none" stroke="black" d="M1204.1,-431.7C1200.13,-423.98 1195.37,-414.71 1190.94,-406.11"/>
<polygon fill="black" stroke="black" points="1194.17,-404.74 1186.49,-397.45 1187.95,-407.94 1194.17,-404.74"/>
</g>
<!-- aggregator_factory&#45;&gt;error -->
<g id="edge74" class="edge">
<title>aggregator_factory&#45;&gt;error</title>
<path fill="none" stroke="black" d="M1160.76,-360.02C1142.96,-341.67 1113.29,-311.85 1086,-288 1072.98,-276.62 1057.86,-264.72 1045.19,-255.08"/>
<polygon fill="black" stroke="black" points="1047.35,-252.33 1037.26,-249.11 1043.14,-257.92 1047.35,-252.33"/>
</g>
<!-- aggregator_factory&#45;&gt;system_addresses -->
<g id="edge75" class="edge">
<title>aggregator_factory&#45;&gt;system_addresses</title>
<path fill="none" stroke="black" d="M1227.52,-364C1273.13,-352.26 1340.31,-334.97 1388.71,-322.51"/>
<polygon fill="black" stroke="black" points="1389.39,-325.96 1398.2,-320.07 1387.64,-319.18 1389.39,-325.96"/>
</g>
<!-- aggregator_factory&#45;&gt;table -->
<g id="edge73" class="edge">
<title>aggregator_factory&#45;&gt;table</title>
<path fill="none" stroke="black" d="M1126.24,-364.08C1071.9,-350.25 987.02,-328.64 938.77,-316.36"/>
<polygon fill="black" stroke="black" points="939.65,-312.97 929.09,-313.9 937.92,-319.76 939.65,-312.97"/>
</g>
<!-- aggregator_factory&#45;&gt;aggregator -->
<g id="edge76" class="edge">
<title>aggregator_factory&#45;&gt;aggregator</title>
<path fill="none" stroke="black" d="M1188.62,-360.05C1194.16,-351.97 1200.92,-342.12 1207.09,-333.11"/>
<polygon fill="black" stroke="black" points="1209.86,-335.26 1212.63,-325.04 1204.09,-331.31 1209.86,-335.26"/>
</g>
</g>
</svg>
