<?xml version="1.0" encoding="UTF-8" standalone="no"?>
<!DOCTYPE svg PUBLIC "-//W3C//DTD SVG 1.1//EN"
 "http://www.w3.org/Graphics/SVG/1.1/DTD/svg11.dtd">
<!-- Generated by graphviz version 7.0.0 (20221023.0053)
 -->
<!-- Title: G Pages: 1 -->
<svg width="1524pt" height="692pt"
 viewBox="0.00 0.00 1524.00 692.00" xmlns="http://www.w3.org/2000/svg" xmlns:xlink="http://www.w3.org/1999/xlink">
<g id="graph0" class="graph" transform="scale(1 1) rotate(0) translate(4 688)">
<title>G</title>
<polygon fill="white" stroke="none" points="-4,4 -4,-688 1520,-688 1520,4 -4,4"/>
<!-- transaction_fee -->
<g id="node1" class="node">
<title>transaction_fee</title>
<ellipse fill="none" stroke="black" cx="1332" cy="-666" rx="64.19" ry="18"/>
<text text-anchor="middle" x="1332" y="-662.3" font-family="Times,serif" font-size="14.00">transaction_fee</text>
</g>
<!-- system_addresses -->
<g id="node2" class="node">
<title>system_addresses</title>
<ellipse fill="none" stroke="black" cx="1225" cy="-306" rx="73.39" ry="18"/>
<text text-anchor="middle" x="1225" y="-302.3" font-family="Times,serif" font-size="14.00">system_addresses</text>
</g>
<!-- transaction_fee&#45;&gt;system_addresses -->
<g id="edge1" class="edge">
<title>transaction_fee&#45;&gt;system_addresses</title>
<path fill="none" stroke="black" d="M1333.16,-647.54C1335.63,-598.76 1337.34,-458.21 1284,-360 1277.86,-348.7 1268.35,-338.59 1258.74,-330.3"/>
<polygon fill="black" stroke="black" points="1261.14,-327.74 1251.16,-324.18 1256.74,-333.19 1261.14,-327.74"/>
</g>
<!-- coin -->
<g id="node3" class="node">
<title>coin</title>
<ellipse fill="none" stroke="black" cx="914" cy="-522" rx="27" ry="18"/>
<text text-anchor="middle" x="914" y="-518.3" font-family="Times,serif" font-size="14.00">coin</text>
</g>
<!-- transaction_fee&#45;&gt;coin -->
<g id="edge2" class="edge">
<title>transaction_fee&#45;&gt;coin</title>
<path fill="none" stroke="black" d="M1292.3,-651.51C1210.53,-623.73 1024.57,-560.56 947.96,-534.54"/>
<polygon fill="black" stroke="black" points="949.5,-531.36 938.91,-531.46 947.25,-537.99 949.5,-531.36"/>
</g>
<!-- aptos_coin -->
<g id="node4" class="node">
<title>aptos_coin</title>
<ellipse fill="none" stroke="black" cx="1409" cy="-594" rx="48.99" ry="18"/>
<text text-anchor="middle" x="1409" y="-590.3" font-family="Times,serif" font-size="14.00">aptos_coin</text>
</g>
<!-- transaction_fee&#45;&gt;aptos_coin -->
<g id="edge3" class="edge">
<title>transaction_fee&#45;&gt;aptos_coin</title>
<path fill="none" stroke="black" d="M1350.25,-648.41C1360,-639.54 1372.18,-628.47 1382.92,-618.71"/>
<polygon fill="black" stroke="black" points="1384.98,-621.56 1390.03,-612.25 1380.27,-616.38 1384.98,-621.56"/>
</g>
<!-- signer -->
<g id="node5" class="node">
<title>signer</title>
<ellipse fill="none" stroke="black" cx="1226" cy="-234" rx="32.49" ry="18"/>
<text text-anchor="middle" x="1226" y="-230.3" font-family="Times,serif" font-size="14.00">signer</text>
</g>
<!-- system_addresses&#45;&gt;signer -->
<g id="edge4" class="edge">
<title>system_addresses&#45;&gt;signer</title>
<path fill="none" stroke="black" d="M1225.25,-287.7C1225.35,-280.41 1225.48,-271.73 1225.59,-263.54"/>
<polygon fill="black" stroke="black" points="1229.09,-263.67 1225.73,-253.62 1222.09,-263.57 1229.09,-263.67"/>
</g>
<!-- error -->
<g id="node6" class="node">
<title>error</title>
<ellipse fill="none" stroke="black" cx="953" cy="-234" rx="27.9" ry="18"/>
<text text-anchor="middle" x="953" y="-230.3" font-family="Times,serif" font-size="14.00">error</text>
</g>
<!-- system_addresses&#45;&gt;error -->
<g id="edge5" class="edge">
<title>system_addresses&#45;&gt;error</title>
<path fill="none" stroke="black" d="M1175.74,-292.32C1122.14,-278.53 1037.68,-256.79 989.64,-244.43"/>
<polygon fill="black" stroke="black" points="990.56,-241.05 980,-241.95 988.81,-247.83 990.56,-241.05"/>
</g>
<!-- coin&#45;&gt;system_addresses -->
<g id="edge11" class="edge">
<title>coin&#45;&gt;system_addresses</title>
<path fill="none" stroke="black" d="M940.93,-519.66C1003.97,-515.94 1158.52,-503.37 1194,-468 1228.96,-433.15 1230.78,-371.65 1228.32,-335.59"/>
<polygon fill="black" stroke="black" points="1231.83,-335.58 1227.49,-325.91 1224.86,-336.18 1231.83,-335.58"/>
</g>
<!-- coin&#45;&gt;signer -->
<g id="edge9" class="edge">
<title>coin&#45;&gt;signer</title>
<path fill="none" stroke="black" d="M940.93,-519.12C1006.57,-514.1 1172.74,-498.62 1218,-468 1291.91,-417.98 1349.45,-366.5 1307,-288 1297.53,-270.49 1279.49,-257.84 1262.84,-249.3"/>
<polygon fill="black" stroke="black" points="1264.63,-246.28 1254.1,-245.16 1261.63,-252.6 1264.63,-246.28"/>
</g>
<!-- coin&#45;&gt;error -->
<g id="edge10" class="edge">
<title>coin&#45;&gt;error</title>
<path fill="none" stroke="black" d="M935.45,-510.56C954.4,-500.85 982.31,-485.3 1004,-468 1065.12,-419.27 1088.33,-400.38 1105,-324 1108.41,-308.37 1114.27,-301.04 1105,-288 1079.59,-252.23 1028.17,-240.4 992.21,-236.6"/>
<polygon fill="black" stroke="black" points="992.9,-233.15 982.63,-235.76 992.29,-240.12 992.9,-233.15"/>
</g>
<!-- option -->
<g id="node7" class="node">
<title>option</title>
<ellipse fill="none" stroke="black" cx="651" cy="-90" rx="33.29" ry="18"/>
<text text-anchor="middle" x="651" y="-86.3" font-family="Times,serif" font-size="14.00">option</text>
</g>
<!-- coin&#45;&gt;option -->
<g id="edge6" class="edge">
<title>coin&#45;&gt;option</title>
<path fill="none" stroke="black" d="M886.64,-520.29C760.92,-516.87 242.05,-500.85 178,-468 140.94,-448.99 132.18,-435.17 118,-396 89.48,-317.22 107.28,-266.67 174,-216 307.4,-114.69 515.55,-95.22 606.24,-91.67"/>
<polygon fill="black" stroke="black" points="606.09,-95.18 615.96,-91.35 605.85,-88.19 606.09,-95.18"/>
</g>
<!-- string -->
<g id="node8" class="node">
<title>string</title>
<ellipse fill="none" stroke="black" cx="93" cy="-162" rx="30.59" ry="18"/>
<text text-anchor="middle" x="93" y="-158.3" font-family="Times,serif" font-size="14.00">string</text>
</g>
<!-- coin&#45;&gt;string -->
<g id="edge7" class="edge">
<title>coin&#45;&gt;string</title>
<path fill="none" stroke="black" d="M886.64,-521.16C748.03,-521.73 127.22,-521.25 62,-468 30.27,-442.09 38,-419.97 38,-379 38,-379 38,-379 38,-305 38,-262.1 60.1,-216.53 76.28,-188.92"/>
<polygon fill="black" stroke="black" points="79.16,-190.91 81.35,-180.55 73.17,-187.29 79.16,-190.91"/>
</g>
<!-- type_info -->
<g id="node9" class="node">
<title>type_info</title>
<ellipse fill="none" stroke="black" cx="227" cy="-234" rx="44.39" ry="18"/>
<text text-anchor="middle" x="227" y="-230.3" font-family="Times,serif" font-size="14.00">type_info</text>
</g>
<!-- coin&#45;&gt;type_info -->
<g id="edge8" class="edge">
<title>coin&#45;&gt;type_info</title>
<path fill="none" stroke="black" d="M886.67,-521.25C759.7,-521.76 229.58,-516.56 133,-396 96.58,-350.54 157.83,-289.42 197.42,-257.13"/>
<polygon fill="black" stroke="black" points="199.39,-260.04 205.04,-251.07 195.03,-254.56 199.39,-260.04"/>
</g>
<!-- event -->
<g id="node10" class="node">
<title>event</title>
<ellipse fill="none" stroke="black" cx="316" cy="-378" rx="29.8" ry="18"/>
<text text-anchor="middle" x="316" y="-374.3" font-family="Times,serif" font-size="14.00">event</text>
</g>
<!-- coin&#45;&gt;event -->
<g id="edge12" class="edge">
<title>coin&#45;&gt;event</title>
<path fill="none" stroke="black" d="M887.47,-517.99C831.47,-511.36 697.28,-493.99 587,-468 482.33,-443.34 456.94,-433.08 356,-396 354.07,-395.29 352.09,-394.54 350.1,-393.76"/>
<polygon fill="black" stroke="black" points="351.52,-390.56 340.94,-390.03 348.88,-397.04 351.52,-390.56"/>
</g>
<!-- account -->
<g id="node11" class="node">
<title>account</title>
<ellipse fill="none" stroke="black" cx="634" cy="-450" rx="38.19" ry="18"/>
<text text-anchor="middle" x="634" y="-446.3" font-family="Times,serif" font-size="14.00">account</text>
</g>
<!-- coin&#45;&gt;account -->
<g id="edge13" class="edge">
<title>coin&#45;&gt;account</title>
<path fill="none" stroke="black" d="M889.15,-514.79C841.75,-502.94 737.83,-476.96 678.27,-462.07"/>
<polygon fill="black" stroke="black" points="679.36,-458.73 668.81,-459.7 677.66,-465.52 679.36,-458.73"/>
</g>
<!-- optional_aggregator -->
<g id="node12" class="node">
<title>optional_aggregator</title>
<ellipse fill="none" stroke="black" cx="914" cy="-450" rx="81.49" ry="18"/>
<text text-anchor="middle" x="914" y="-446.3" font-family="Times,serif" font-size="14.00">optional_aggregator</text>
</g>
<!-- coin&#45;&gt;optional_aggregator -->
<g id="edge14" class="edge">
<title>coin&#45;&gt;optional_aggregator</title>
<path fill="none" stroke="black" d="M914,-503.7C914,-496.41 914,-487.73 914,-479.54"/>
<polygon fill="black" stroke="black" points="917.5,-479.62 914,-469.62 910.5,-479.62 917.5,-479.62"/>
</g>
<!-- aptos_coin&#45;&gt;system_addresses -->
<g id="edge20" class="edge">
<title>aptos_coin&#45;&gt;system_addresses</title>
<path fill="none" stroke="black" d="M1398.04,-575.97C1367.17,-527.98 1279.31,-391.41 1242.04,-333.49"/>
<polygon fill="black" stroke="black" points="1245.07,-331.73 1236.72,-325.22 1239.19,-335.52 1245.07,-331.73"/>
</g>
<!-- aptos_coin&#45;&gt;coin -->
<g id="edge21" class="edge">
<title>aptos_coin&#45;&gt;coin</title>
<path fill="none" stroke="black" d="M1363.76,-586.6C1266.91,-572.91 1041.07,-540.97 951.54,-528.31"/>
<polygon fill="black" stroke="black" points="952.21,-524.87 941.82,-526.93 951.23,-531.8 952.21,-524.87"/>
</g>
<!-- aptos_coin&#45;&gt;signer -->
<g id="edge18" class="edge">
<title>aptos_coin&#45;&gt;signer</title>
<path fill="none" stroke="black" d="M1415.27,-575.78C1424.33,-549.32 1440,-496.92 1440,-451 1440,-451 1440,-451 1440,-377 1440,-336.03 1445.19,-316.75 1416,-288 1369.62,-242.31 1336.31,-270.89 1274,-252 1270.49,-250.94 1266.85,-249.77 1263.23,-248.56"/>
<polygon fill="black" stroke="black" points="1264.54,-245.31 1253.95,-245.37 1262.27,-251.93 1264.54,-245.31"/>
</g>
<!-- aptos_coin&#45;&gt;error -->
<g id="edge19" class="edge">
<title>aptos_coin&#45;&gt;error</title>
<path fill="none" stroke="black" d="M1407.58,-575.52C1405.54,-548.74 1402,-495.92 1402,-451 1402,-451 1402,-451 1402,-377 1402,-319.14 1359.08,-313.2 1307,-288 1251.89,-261.33 1071.86,-244.31 991.89,-237.89"/>
<polygon fill="black" stroke="black" points="992.6,-234.44 982.35,-237.14 992.05,-241.42 992.6,-234.44"/>
</g>
<!-- aptos_coin&#45;&gt;option -->
<g id="edge16" class="edge">
<title>aptos_coin&#45;&gt;option</title>
<path fill="none" stroke="black" d="M1423.3,-576.35C1443.51,-551.05 1478,-500.61 1478,-451 1478,-451 1478,-451 1478,-377 1478,-333.99 1470.55,-318.27 1440,-288 1331.74,-180.72 844.89,-114.27 695.04,-96.09"/>
<polygon fill="black" stroke="black" points="695.47,-92.62 685.12,-94.9 694.63,-99.57 695.47,-92.62"/>
</g>
<!-- aptos_coin&#45;&gt;string -->
<g id="edge17" class="edge">
<title>aptos_coin&#45;&gt;string</title>
<path fill="none" stroke="black" d="M1359.68,-593.31C1110.3,-594.27 0,-590.68 0,-451 0,-451 0,-451 0,-305 0,-255.81 39.54,-210.39 67.06,-184.74"/>
<polygon fill="black" stroke="black" points="69.3,-187.44 74.38,-178.14 64.61,-182.24 69.3,-187.44"/>
</g>
<!-- vector -->
<g id="node13" class="node">
<title>vector</title>
<ellipse fill="none" stroke="black" cx="979" cy="-18" rx="32.49" ry="18"/>
<text text-anchor="middle" x="979" y="-14.3" font-family="Times,serif" font-size="14.00">vector</text>
</g>
<!-- aptos_coin&#45;&gt;vector -->
<g id="edge15" class="edge">
<title>aptos_coin&#45;&gt;vector</title>
<path fill="none" stroke="black" d="M1431.69,-577.58C1463.1,-554.19 1516,-506.56 1516,-451 1516,-451 1516,-451 1516,-161 1516,-59.19 1150.65,-28.72 1022.66,-21.17"/>
<polygon fill="black" stroke="black" points="1023.08,-17.69 1012.89,-20.62 1022.68,-24.68 1023.08,-17.69"/>
</g>
<!-- option&#45;&gt;vector -->
<g id="edge22" class="edge">
<title>option&#45;&gt;vector</title>
<path fill="none" stroke="black" d="M681.56,-82.48C740.8,-69.84 871.25,-42 937.96,-27.76"/>
<polygon fill="black" stroke="black" points="938.34,-31.26 947.39,-25.75 936.88,-24.41 938.34,-31.26"/>
</g>
<!-- string&#45;&gt;option -->
<g id="edge24" class="edge">
<title>string&#45;&gt;option</title>
<path fill="none" stroke="black" d="M116.93,-150.65C123.64,-148.11 131.01,-145.65 138,-144 307.7,-103.89 516.1,-94.14 606.1,-91.76"/>
<polygon fill="black" stroke="black" points="606.07,-95.26 615.98,-91.52 605.9,-88.27 606.07,-95.26"/>
</g>
<!-- string&#45;&gt;vector -->
<g id="edge23" class="edge">
<title>string&#45;&gt;vector</title>
<path fill="none" stroke="black" d="M117.46,-150.7C124.04,-148.22 131.21,-145.78 138,-144 437.12,-65.56 809.87,-31.79 935.43,-22.11"/>
<polygon fill="black" stroke="black" points="935.59,-25.61 945.29,-21.36 935.06,-18.63 935.59,-25.61"/>
</g>
<!-- type_info&#45;&gt;string -->
<g id="edge25" class="edge">
<title>type_info&#45;&gt;string</title>
<path fill="none" stroke="black" d="M200.53,-219.17C178.96,-207.91 148.43,-191.96 125.41,-179.93"/>
<polygon fill="black" stroke="black" points="127.24,-176.94 116.76,-175.41 124,-183.14 127.24,-176.94"/>
</g>
<!-- bcs -->
<g id="node14" class="node">
<title>bcs</title>
<ellipse fill="none" stroke="black" cx="553" cy="-234" rx="27" ry="18"/>
<text text-anchor="middle" x="553" y="-230.3" font-family="Times,serif" font-size="14.00">bcs</text>
</g>
<!-- event&#45;&gt;bcs -->
<g id="edge26" class="edge">
<title>event&#45;&gt;bcs</title>
<path fill="none" stroke="black" d="M303.5,-361.48C289.64,-342.27 271.4,-309.48 289,-288 292.61,-283.59 444.11,-255.11 515.94,-241.81"/>
<polygon fill="black" stroke="black" points="516.47,-245.28 525.67,-240.02 515.2,-238.39 516.47,-245.28"/>
</g>
<!-- guid -->
<g id="node15" class="node">
<title>guid</title>
<ellipse fill="none" stroke="black" cx="325" cy="-306" rx="27" ry="18"/>
<text text-anchor="middle" x="325" y="-302.3" font-family="Times,serif" font-size="14.00">guid</text>
</g>
<!-- event&#45;&gt;guid -->
<g id="edge27" class="edge">
<title>event&#45;&gt;guid</title>
<path fill="none" stroke="black" d="M318.22,-359.7C319.17,-352.32 320.3,-343.52 321.37,-335.25"/>
<polygon fill="black" stroke="black" points="324.8,-335.97 322.61,-325.61 317.86,-335.08 324.8,-335.97"/>
</g>
<!-- account&#45;&gt;system_addresses -->
<g id="edge34" class="edge">
<title>account&#45;&gt;system_addresses</title>
<path fill="none" stroke="black" d="M671.4,-445.49C767.56,-436.28 1018.35,-411.12 1053,-396 1075.84,-386.03 1074.67,-372.89 1096,-360 1119.45,-345.83 1147.38,-333.83 1171.24,-324.85"/>
<polygon fill="black" stroke="black" points="1172.29,-328.2 1180.47,-321.47 1169.87,-321.63 1172.29,-328.2"/>
</g>
<!-- account&#45;&gt;signer -->
<g id="edge32" class="edge">
<title>account&#45;&gt;signer</title>
<path fill="none" stroke="black" d="M662.62,-437.74C688.88,-427.29 728.78,-411.12 763,-396 865.56,-350.68 885,-324.56 991,-288 1056.75,-265.33 1136.24,-249.75 1183.87,-241.61"/>
<polygon fill="black" stroke="black" points="1184.2,-245.1 1193.49,-240 1183.05,-238.2 1184.2,-245.1"/>
</g>
<!-- account&#45;&gt;error -->
<g id="edge33" class="edge">
<title>account&#45;&gt;error</title>
<path fill="none" stroke="black" d="M649.61,-433.37C688,-395.02 785.22,-298.64 803,-288 838.67,-266.65 884.25,-252.08 915.75,-243.71"/>
<polygon fill="black" stroke="black" points="916.4,-247.15 925.21,-241.27 914.66,-240.37 916.4,-247.15"/>
</g>
<!-- account&#45;&gt;option -->
<g id="edge29" class="edge">
<title>account&#45;&gt;option</title>
<path fill="none" stroke="black" d="M634.82,-431.73C637.54,-374.43 646.29,-190.18 649.66,-119.22"/>
<polygon fill="black" stroke="black" points="653.14,-119.76 650.12,-109.61 646.15,-119.43 653.14,-119.76"/>
</g>
<!-- account&#45;&gt;type_info -->
<g id="edge30" class="edge">
<title>account&#45;&gt;type_info</title>
<path fill="none" stroke="black" d="M595.52,-448.31C513.33,-446.07 324.28,-436.52 277,-396 238.26,-362.8 229.1,-300.18 227.19,-263.59"/>
<polygon fill="black" stroke="black" points="230.7,-263.64 226.84,-253.77 223.7,-263.88 230.7,-263.64"/>
</g>
<!-- account&#45;&gt;event -->
<g id="edge41" class="edge">
<title>account&#45;&gt;event</title>
<path fill="none" stroke="black" d="M597.61,-444.07C544.67,-436.42 443.59,-420.02 360,-396 356.9,-395.11 353.71,-394.09 350.54,-393"/>
<polygon fill="black" stroke="black" points="351.96,-389.8 341.37,-389.66 349.56,-396.37 351.96,-389.8"/>
</g>
<!-- account&#45;&gt;vector -->
<g id="edge28" class="edge">
<title>account&#45;&gt;vector</title>
<path fill="none" stroke="black" d="M671.5,-445.62C765.52,-436.99 1009.4,-413.59 1089,-396 1188.63,-373.98 1238.87,-399.96 1307,-324 1334,-293.89 1326,-275.45 1326,-235 1326,-235 1326,-235 1326,-161 1326,-95.69 1112.79,-45.52 1020.63,-26.88"/>
<polygon fill="black" stroke="black" points="1021.47,-23.48 1010.97,-24.96 1020.1,-30.34 1021.47,-23.48"/>
</g>
<!-- account&#45;&gt;bcs -->
<g id="edge36" class="edge">
<title>account&#45;&gt;bcs</title>
<path fill="none" stroke="black" d="M631.6,-431.59C628.8,-413.39 623.42,-384.17 615,-360 602.51,-324.17 582.1,-285.4 568.13,-260.69"/>
<polygon fill="black" stroke="black" points="571.34,-259.26 563.33,-252.32 565.27,-262.74 571.34,-259.26"/>
</g>
<!-- account&#45;&gt;guid -->
<g id="edge39" class="edge">
<title>account&#45;&gt;guid</title>
<path fill="none" stroke="black" d="M595.59,-447.95C546.38,-444.98 460.02,-434.23 398,-396 372.82,-380.48 352.36,-353.16 339.57,-332.87"/>
<polygon fill="black" stroke="black" points="342.72,-331.31 334.55,-324.57 336.73,-334.94 342.72,-331.31"/>
</g>
<!-- table -->
<g id="node16" class="node">
<title>table</title>
<ellipse fill="none" stroke="black" cx="840" cy="-306" rx="27.9" ry="18"/>
<text text-anchor="middle" x="840" y="-302.3" font-family="Times,serif" font-size="14.00">table</text>
</g>
<!-- account&#45;&gt;table -->
<g id="edge31" class="edge">
<title>account&#45;&gt;table</title>
<path fill="none" stroke="black" d="M658.18,-435.83C676.58,-425.54 702.35,-410.6 724,-396 756.37,-374.17 791.72,-346.45 814.78,-327.79"/>
<polygon fill="black" stroke="black" points="816.85,-330.61 822.4,-321.59 812.43,-325.19 816.85,-330.61"/>
</g>
<!-- hash -->
<g id="node17" class="node">
<title>hash</title>
<ellipse fill="none" stroke="black" cx="418" cy="-234" rx="27" ry="18"/>
<text text-anchor="middle" x="418" y="-230.3" font-family="Times,serif" font-size="14.00">hash</text>
</g>
<!-- account&#45;&gt;hash -->
<g id="edge35" class="edge">
<title>account&#45;&gt;hash</title>
<path fill="none" stroke="black" d="M599.59,-441.87C554.86,-432.06 479.87,-413.62 458,-396 429.49,-373.04 427.18,-359.44 418,-324 412.9,-304.31 413.04,-281.34 414.39,-263.67"/>
<polygon fill="black" stroke="black" points="417.85,-264.18 415.32,-253.89 410.89,-263.52 417.85,-264.18"/>
</g>
<!-- ed25519 -->
<g id="node18" class="node">
<title>ed25519</title>
<ellipse fill="none" stroke="black" cx="487" cy="-306" rx="40.89" ry="18"/>
<text text-anchor="middle" x="487" y="-302.3" font-family="Times,serif" font-size="14.00">ed25519</text>
</g>
<!-- account&#45;&gt;ed25519 -->
<g id="edge37" class="edge">
<title>account&#45;&gt;ed25519</title>
<path fill="none" stroke="black" d="M595.57,-448.76C556.52,-446.21 497.8,-435.51 469,-396 455.9,-378.03 462.7,-352.83 471.46,-333.83"/>
<polygon fill="black" stroke="black" points="474.49,-335.59 475.87,-325.08 468.24,-332.44 474.49,-335.59"/>
</g>
<!-- multi_ed25519 -->
<g id="node19" class="node">
<title>multi_ed25519</title>
<ellipse fill="none" stroke="black" cx="542" cy="-378" rx="64.19" ry="18"/>
<text text-anchor="middle" x="542" y="-374.3" font-family="Times,serif" font-size="14.00">multi_ed25519</text>
</g>
<!-- account&#45;&gt;multi_ed25519 -->
<g id="edge38" class="edge">
<title>account&#45;&gt;multi_ed25519</title>
<path fill="none" stroke="black" d="M614.49,-434.15C602.32,-424.89 586.39,-412.78 572.57,-402.26"/>
<polygon fill="black" stroke="black" points="574.69,-399.48 564.61,-396.21 570.45,-405.05 574.69,-399.48"/>
</g>
<!-- from_bcs -->
<g id="node20" class="node">
<title>from_bcs</title>
<ellipse fill="none" stroke="black" cx="186" cy="-378" rx="44.39" ry="18"/>
<text text-anchor="middle" x="186" y="-374.3" font-family="Times,serif" font-size="14.00">from_bcs</text>
</g>
<!-- account&#45;&gt;from_bcs -->
<g id="edge40" class="edge">
<title>account&#45;&gt;from_bcs</title>
<path fill="none" stroke="black" d="M596.58,-445.8C526.72,-439.41 371.98,-423.29 244,-396 239.73,-395.09 235.33,-394.03 230.93,-392.89"/>
<polygon fill="black" stroke="black" points="232.16,-389.59 221.59,-390.33 230.31,-396.35 232.16,-389.59"/>
</g>
<!-- optional_aggregator&#45;&gt;error -->
<g id="edge43" class="edge">
<title>optional_aggregator&#45;&gt;error</title>
<path fill="none" stroke="black" d="M900.02,-432.04C892.81,-422.18 884.75,-409.13 881,-396 876.6,-380.62 876.87,-375.46 881,-360 891.18,-321.94 916.04,-283.45 933.69,-259.43"/>
<polygon fill="black" stroke="black" points="936.39,-261.67 939.61,-251.58 930.8,-257.46 936.39,-261.67"/>
</g>
<!-- optional_aggregator&#45;&gt;option -->
<g id="edge42" class="edge">
<title>optional_aggregator&#45;&gt;option</title>
<path fill="none" stroke="black" d="M897.34,-431.9C874.84,-408.46 834,-364.6 803,-324 748.32,-252.39 692.62,-161.42 666.42,-117.33"/>
<polygon fill="black" stroke="black" points="669.58,-115.79 661.47,-108.97 663.55,-119.36 669.58,-115.79"/>
</g>
<!-- aggregator -->
<g id="node21" class="node">
<title>aggregator</title>
<ellipse fill="none" stroke="black" cx="1048" cy="-306" rx="48.19" ry="18"/>
<text text-anchor="middle" x="1048" y="-302.3" font-family="Times,serif" font-size="14.00">aggregator</text>
</g>
<!-- optional_aggregator&#45;&gt;aggregator -->
<g id="edge44" class="edge">
<title>optional_aggregator&#45;&gt;aggregator</title>
<path fill="none" stroke="black" d="M981.97,-439.87C1008.7,-432.59 1036.81,-419.5 1053,-396 1065.14,-378.38 1062.71,-353.82 1057.9,-334.96"/>
<polygon fill="black" stroke="black" points="1061.3,-334.14 1055.13,-325.53 1054.59,-336.11 1061.3,-334.14"/>
</g>
<!-- aggregator_factory -->
<g id="node22" class="node">
<title>aggregator_factory</title>
<ellipse fill="none" stroke="black" cx="967" cy="-378" rx="77.19" ry="18"/>
<text text-anchor="middle" x="967" y="-374.3" font-family="Times,serif" font-size="14.00">aggregator_factory</text>
</g>
<!-- optional_aggregator&#45;&gt;aggregator_factory -->
<g id="edge45" class="edge">
<title>optional_aggregator&#45;&gt;aggregator_factory</title>
<path fill="none" stroke="black" d="M926.83,-432.05C933.01,-423.89 940.57,-413.91 947.45,-404.82"/>
<polygon fill="black" stroke="black" points="950.13,-407.08 953.37,-397 944.55,-402.86 950.13,-407.08"/>
</g>
<!-- ed25519&#45;&gt;error -->
<g id="edge48" class="edge">
<title>ed25519&#45;&gt;error</title>
<path fill="none" stroke="black" d="M525.13,-299.27C612.63,-286.13 826.98,-253.93 914.67,-240.76"/>
<polygon fill="black" stroke="black" points="915.06,-244.24 924.43,-239.29 914.02,-237.32 915.06,-244.24"/>
</g>
<!-- ed25519&#45;&gt;option -->
<g id="edge46" class="edge">
<title>ed25519&#45;&gt;option</title>
<path fill="none" stroke="black" d="M490.15,-287.83C494.17,-269.05 502.42,-238.61 517,-216 545,-172.57 591.41,-133.93 621.6,-111.49"/>
<polygon fill="black" stroke="black" points="623.55,-114.4 629.56,-105.68 619.42,-108.74 623.55,-114.4"/>
</g>
<!-- ed25519&#45;&gt;type_info -->
<g id="edge47" class="edge">
<title>ed25519&#45;&gt;type_info</title>
<path fill="none" stroke="black" d="M452.74,-295.78C407.01,-283.46 325.8,-261.6 274.27,-247.73"/>
<polygon fill="black" stroke="black" points="275.46,-244.42 264.89,-245.2 273.64,-251.18 275.46,-244.42"/>
</g>
<!-- ed25519&#45;&gt;bcs -->
<g id="edge50" class="edge">
<title>ed25519&#45;&gt;bcs</title>
<path fill="none" stroke="black" d="M501.98,-289.12C510.65,-279.91 521.73,-268.17 531.34,-257.97"/>
<polygon fill="black" stroke="black" points="533.63,-260.64 537.95,-250.97 528.54,-255.84 533.63,-260.64"/>
</g>
<!-- ed25519&#45;&gt;hash -->
<g id="edge49" class="edge">
<title>ed25519&#45;&gt;hash</title>
<path fill="none" stroke="black" d="M471.34,-289.12C462.15,-279.79 450.38,-267.85 440.23,-257.56"/>
<polygon fill="black" stroke="black" points="442.76,-255.14 433.25,-250.47 437.78,-260.05 442.76,-255.14"/>
</g>
<!-- multi_ed25519&#45;&gt;error -->
<g id="edge52" class="edge">
<title>multi_ed25519&#45;&gt;error</title>
<path fill="none" stroke="black" d="M576.41,-362.45C620.74,-343.96 700.38,-311.61 770,-288 820.24,-270.96 879.37,-254.46 916.52,-244.52"/>
<polygon fill="black" stroke="black" points="917.09,-247.99 925.85,-242.04 915.29,-241.23 917.09,-247.99"/>
</g>
<!-- multi_ed25519&#45;&gt;option -->
<g id="edge51" class="edge">
<title>multi_ed25519&#45;&gt;option</title>
<path fill="none" stroke="black" d="M548.49,-359.97C566.67,-312.28 618.18,-177.11 640.49,-118.58"/>
<polygon fill="black" stroke="black" points="643.71,-119.95 644,-109.36 637.17,-117.46 643.71,-119.95"/>
</g>
<!-- multi_ed25519&#45;&gt;bcs -->
<g id="edge54" class="edge">
<title>multi_ed25519&#45;&gt;bcs</title>
<path fill="none" stroke="black" d="M543.35,-359.59C545.21,-335.61 548.57,-292.14 550.8,-263.42"/>
<polygon fill="black" stroke="black" points="554.27,-263.86 551.56,-253.62 547.3,-263.32 554.27,-263.86"/>
</g>
<!-- multi_ed25519&#45;&gt;hash -->
<g id="edge53" class="edge">
<title>multi_ed25519&#45;&gt;hash</title>
<path fill="none" stroke="black" d="M497.78,-364.65C476.37,-356.48 452.09,-343.57 437,-324 423.78,-306.86 419.27,-282.58 417.93,-263.71"/>
<polygon fill="black" stroke="black" points="421.43,-263.57 417.51,-253.73 414.44,-263.86 421.43,-263.57"/>
</g>
<!-- multi_ed25519&#45;&gt;ed25519 -->
<g id="edge55" class="edge">
<title>multi_ed25519&#45;&gt;ed25519</title>
<path fill="none" stroke="black" d="M528.69,-360.05C522.11,-351.68 514.03,-341.4 506.75,-332.13"/>
<polygon fill="black" stroke="black" points="509.68,-330.2 500.75,-324.5 504.17,-334.52 509.68,-330.2"/>
</g>
<!-- from_bcs&#45;&gt;string -->
<g id="edge56" class="edge">
<title>from_bcs&#45;&gt;string</title>
<path fill="none" stroke="black" d="M178.55,-359.85C162.45,-322.82 124.34,-235.12 104.88,-190.34"/>
<polygon fill="black" stroke="black" points="108.16,-189.1 100.96,-181.32 101.74,-191.89 108.16,-189.1"/>
</g>
<!-- aggregator_factory&#45;&gt;system_addresses -->
<g id="edge59" class="edge">
<title>aggregator_factory&#45;&gt;system_addresses</title>
<path fill="none" stroke="black" d="M1015.83,-363.75C1058.61,-352.14 1120.89,-335.25 1166.36,-322.91"/>
<polygon fill="black" stroke="black" points="1167.05,-326.35 1175.78,-320.35 1165.21,-319.59 1167.05,-326.35"/>
</g>
<!-- aggregator_factory&#45;&gt;error -->
<g id="edge58" class="edge">
<title>aggregator_factory&#45;&gt;error</title>
<path fill="none" stroke="black" d="M965.28,-359.59C962.92,-335.61 958.63,-292.14 955.8,-263.42"/>
<polygon fill="black" stroke="black" points="959.3,-263.23 954.84,-253.62 952.33,-263.91 959.3,-263.23"/>
</g>
<!-- aggregator_factory&#45;&gt;table -->
<g id="edge57" class="edge">
<title>aggregator_factory&#45;&gt;table</title>
<path fill="none" stroke="black" d="M937.86,-360.94C917.78,-349.87 891.14,-335.19 870.73,-323.94"/>
<polygon fill="black" stroke="black" points="872.46,-320.89 862.01,-319.13 869.08,-327.02 872.46,-320.89"/>
</g>
<!-- aggregator_factory&#45;&gt;aggregator -->
<g id="edge60" class="edge">
<title>aggregator_factory&#45;&gt;aggregator</title>
<path fill="none" stroke="black" d="M986.2,-360.41C996.53,-351.48 1009.46,-340.31 1020.81,-330.5"/>
<polygon fill="black" stroke="black" points="1023.08,-333.16 1028.35,-323.98 1018.5,-327.87 1023.08,-333.16"/>
</g>
</g>
</svg>
