<?xml version="1.0" encoding="UTF-8" standalone="no"?>
<!DOCTYPE svg PUBLIC "-//W3C//DTD SVG 1.1//EN"
 "http://www.w3.org/Graphics/SVG/1.1/DTD/svg11.dtd">
<!-- Generated by graphviz version 7.0.0 (20221023.0053)
 -->
<!-- Title: G Pages: 1 -->
<svg width="2508pt" height="836pt"
 viewBox="0.00 0.00 2508.00 836.00" xmlns="http://www.w3.org/2000/svg" xmlns:xlink="http://www.w3.org/1999/xlink">
<g id="graph0" class="graph" transform="scale(1 1) rotate(0) translate(4 832)">
<title>G</title>
<polygon fill="white" stroke="none" points="-4,4 -4,-832 2504,-832 2504,4 -4,4"/>
<!-- version -->
<g id="node1" class="node">
<title>version</title>
<ellipse fill="none" stroke="black" cx="409" cy="-810" rx="36.29" ry="18"/>
<text text-anchor="middle" x="409" y="-806.3" font-family="Times,serif" font-size="14.00">version</text>
</g>
<!-- signer -->
<g id="node2" class="node">
<title>signer</title>
<ellipse fill="none" stroke="black" cx="304" cy="-234" rx="32.49" ry="18"/>
<text text-anchor="middle" x="304" y="-230.3" font-family="Times,serif" font-size="14.00">signer</text>
</g>
<!-- version&#45;&gt;signer -->
<g id="edge1" class="edge">
<title>version&#45;&gt;signer</title>
<path fill="none" stroke="black" d="M373.05,-806.28C298.37,-800.15 129.23,-783.57 79,-756 32.64,-730.55 0,-719.89 0,-667 0,-667 0,-667 0,-377 0,-263.64 175.66,-240.57 259.92,-236.02"/>
<polygon fill="black" stroke="black" points="259.84,-239.53 269.67,-235.57 259.51,-232.54 259.84,-239.53"/>
</g>
<!-- error -->
<g id="node3" class="node">
<title>error</title>
<ellipse fill="none" stroke="black" cx="1143" cy="-234" rx="27.9" ry="18"/>
<text text-anchor="middle" x="1143" y="-230.3" font-family="Times,serif" font-size="14.00">error</text>
</g>
<!-- version&#45;&gt;error -->
<g id="edge2" class="edge">
<title>version&#45;&gt;error</title>
<path fill="none" stroke="black" d="M445.48,-809.28C667.43,-810.53 1827,-810.19 1827,-667 1827,-667 1827,-667 1827,-449 1827,-373.94 1929.13,-342.95 1878,-288 1830.37,-236.81 1328.13,-234.4 1182.42,-234.79"/>
<polygon fill="black" stroke="black" points="1182.5,-231.29 1172.51,-234.82 1182.52,-238.29 1182.5,-231.29"/>
</g>
<!-- system_addresses -->
<g id="node4" class="node">
<title>system_addresses</title>
<ellipse fill="none" stroke="black" cx="777" cy="-306" rx="73.39" ry="18"/>
<text text-anchor="middle" x="777" y="-302.3" font-family="Times,serif" font-size="14.00">system_addresses</text>
</g>
<!-- version&#45;&gt;system_addresses -->
<g id="edge3" class="edge">
<title>version&#45;&gt;system_addresses</title>
<path fill="none" stroke="black" d="M374.76,-803.46C282.92,-787.64 38,-738.73 38,-667 38,-667 38,-667 38,-449 38,-382.42 506.52,-331.84 697.45,-313.99"/>
<polygon fill="black" stroke="black" points="697.66,-317.49 707.29,-313.08 697.01,-310.52 697.66,-317.49"/>
</g>
<!-- reconfiguration -->
<g id="node5" class="node">
<title>reconfiguration</title>
<ellipse fill="none" stroke="black" cx="881" cy="-738" rx="64.99" ry="18"/>
<text text-anchor="middle" x="881" y="-734.3" font-family="Times,serif" font-size="14.00">reconfiguration</text>
</g>
<!-- version&#45;&gt;reconfiguration -->
<g id="edge4" class="edge">
<title>version&#45;&gt;reconfiguration</title>
<path fill="none" stroke="black" d="M443.33,-803.91C521.03,-792.39 711.54,-764.13 813.7,-748.98"/>
<polygon fill="black" stroke="black" points="813.93,-752.49 823.3,-747.56 812.9,-745.56 813.93,-752.49"/>
</g>
<!-- system_addresses&#45;&gt;signer -->
<g id="edge5" class="edge">
<title>system_addresses&#45;&gt;signer</title>
<path fill="none" stroke="black" d="M715.65,-295.92C618.22,-281.5 430.59,-253.73 346.54,-241.29"/>
<polygon fill="black" stroke="black" points="347.05,-237.83 336.64,-239.83 346.02,-244.76 347.05,-237.83"/>
</g>
<!-- system_addresses&#45;&gt;error -->
<g id="edge6" class="edge">
<title>system_addresses&#45;&gt;error</title>
<path fill="none" stroke="black" d="M833.15,-293.98C843.41,-291.98 854.03,-289.92 864,-288 950.37,-271.36 1051.86,-252.17 1105.45,-242.07"/>
<polygon fill="black" stroke="black" points="1105.78,-245.57 1114.96,-240.28 1104.49,-238.69 1105.78,-245.57"/>
</g>
<!-- reconfiguration&#45;&gt;signer -->
<g id="edge7" class="edge">
<title>reconfiguration&#45;&gt;signer</title>
<path fill="none" stroke="black" d="M819.21,-732.08C636.9,-716.76 114,-666.56 114,-595 114,-595 114,-595 114,-377 114,-302.84 208.03,-262.74 263.79,-245.49"/>
<polygon fill="black" stroke="black" points="264.69,-248.87 273.28,-242.67 262.7,-242.16 264.69,-248.87"/>
</g>
<!-- reconfiguration&#45;&gt;error -->
<g id="edge8" class="edge">
<title>reconfiguration&#45;&gt;error</title>
<path fill="none" stroke="black" d="M943.3,-732.43C1130.48,-717.89 1675,-669.22 1675,-595 1675,-595 1675,-595 1675,-377 1675,-275 1305.35,-244.38 1182.3,-237.01"/>
<polygon fill="black" stroke="black" points="1182.55,-233.52 1172.36,-236.44 1182.15,-240.51 1182.55,-233.52"/>
</g>
<!-- reconfiguration&#45;&gt;system_addresses -->
<g id="edge9" class="edge">
<title>reconfiguration&#45;&gt;system_addresses</title>
<path fill="none" stroke="black" d="M820.43,-731.1C756.48,-723.87 653.19,-709.35 567,-684 489.07,-661.08 457.15,-668.72 399,-612 373.8,-587.42 373.51,-574.39 366,-540 346.3,-449.73 387.97,-402.52 470,-360 539.31,-324.08 628.05,-311.81 692.28,-307.95"/>
<polygon fill="black" stroke="black" points="692.27,-311.46 702.07,-307.42 691.89,-304.47 692.27,-311.46"/>
</g>
<!-- event -->
<g id="node6" class="node">
<title>event</title>
<ellipse fill="none" stroke="black" cx="1760" cy="-378" rx="29.8" ry="18"/>
<text text-anchor="middle" x="1760" y="-374.3" font-family="Times,serif" font-size="14.00">event</text>
</g>
<!-- reconfiguration&#45;&gt;event -->
<g id="edge10" class="edge">
<title>reconfiguration&#45;&gt;event</title>
<path fill="none" stroke="black" d="M945.91,-735.95C1126.37,-732.6 1625,-720.13 1689,-684 1730.98,-660.3 1751,-643.21 1751,-595 1751,-595 1751,-595 1751,-521 1751,-481.66 1754.48,-436.32 1757.12,-407.66"/>
<polygon fill="black" stroke="black" points="1760.57,-408.26 1758.04,-397.97 1753.61,-407.6 1760.57,-408.26"/>
</g>
<!-- account -->
<g id="node7" class="node">
<title>account</title>
<ellipse fill="none" stroke="black" cx="1979" cy="-450" rx="38.19" ry="18"/>
<text text-anchor="middle" x="1979" y="-446.3" font-family="Times,serif" font-size="14.00">account</text>
</g>
<!-- reconfiguration&#45;&gt;account -->
<g id="edge11" class="edge">
<title>reconfiguration&#45;&gt;account</title>
<path fill="none" stroke="black" d="M945.87,-735.9C1137.41,-732.28 1691.67,-718.87 1765,-684 1861.09,-638.31 1934.29,-528.35 1964.23,-477.55"/>
<polygon fill="black" stroke="black" points="1967.22,-479.37 1969.19,-468.96 1961.16,-475.87 1967.22,-479.37"/>
</g>
<!-- chain_status -->
<g id="node8" class="node">
<title>chain_status</title>
<ellipse fill="none" stroke="black" cx="1079" cy="-378" rx="53.89" ry="18"/>
<text text-anchor="middle" x="1079" y="-374.3" font-family="Times,serif" font-size="14.00">chain_status</text>
</g>
<!-- reconfiguration&#45;&gt;chain_status -->
<g id="edge12" class="edge">
<title>reconfiguration&#45;&gt;chain_status</title>
<path fill="none" stroke="black" d="M890.78,-719.84C896.67,-709.48 904.3,-696 911,-684 968.22,-581.54 1035.26,-459.09 1064.33,-405.88"/>
<polygon fill="black" stroke="black" points="1067.33,-407.68 1069.05,-397.23 1061.19,-404.33 1067.33,-407.68"/>
</g>
<!-- timestamp -->
<g id="node9" class="node">
<title>timestamp</title>
<ellipse fill="none" stroke="black" cx="796" cy="-522" rx="48.19" ry="18"/>
<text text-anchor="middle" x="796" y="-518.3" font-family="Times,serif" font-size="14.00">timestamp</text>
</g>
<!-- reconfiguration&#45;&gt;timestamp -->
<g id="edge13" class="edge">
<title>reconfiguration&#45;&gt;timestamp</title>
<path fill="none" stroke="black" d="M874.19,-719.85C859.52,-682.91 824.82,-595.55 806.99,-550.67"/>
<polygon fill="black" stroke="black" points="810.35,-549.64 803.4,-541.64 803.84,-552.22 810.35,-549.64"/>
</g>
<!-- stake -->
<g id="node10" class="node">
<title>stake</title>
<ellipse fill="none" stroke="black" cx="605" cy="-666" rx="28.7" ry="18"/>
<text text-anchor="middle" x="605" y="-662.3" font-family="Times,serif" font-size="14.00">stake</text>
</g>
<!-- reconfiguration&#45;&gt;stake -->
<g id="edge14" class="edge">
<title>reconfiguration&#45;&gt;stake</title>
<path fill="none" stroke="black" d="M834.18,-725.13C779.96,-711.37 691.75,-689 642.07,-676.4"/>
<polygon fill="black" stroke="black" points="643.21,-673.08 632.66,-674.01 641.49,-679.87 643.21,-673.08"/>
</g>
<!-- storage_gas -->
<g id="node11" class="node">
<title>storage_gas</title>
<ellipse fill="none" stroke="black" cx="948" cy="-450" rx="51.99" ry="18"/>
<text text-anchor="middle" x="948" y="-446.3" font-family="Times,serif" font-size="14.00">storage_gas</text>
</g>
<!-- reconfiguration&#45;&gt;storage_gas -->
<g id="edge15" class="edge">
<title>reconfiguration&#45;&gt;storage_gas</title>
<path fill="none" stroke="black" d="M885.09,-719.54C896.31,-671.66 927.63,-537.95 941.38,-479.24"/>
<polygon fill="black" stroke="black" points="944.74,-480.24 943.62,-469.71 937.93,-478.64 944.74,-480.24"/>
</g>
<!-- bcs -->
<g id="node12" class="node">
<title>bcs</title>
<ellipse fill="none" stroke="black" cx="2085" cy="-234" rx="27" ry="18"/>
<text text-anchor="middle" x="2085" y="-230.3" font-family="Times,serif" font-size="14.00">bcs</text>
</g>
<!-- event&#45;&gt;bcs -->
<g id="edge16" class="edge">
<title>event&#45;&gt;bcs</title>
<path fill="none" stroke="black" d="M1763.96,-359.96C1769.64,-339.52 1782.16,-305.78 1806,-288 1843.66,-259.92 1979.84,-244.28 2047.01,-238.11"/>
<polygon fill="black" stroke="black" points="2047.17,-241.61 2056.82,-237.24 2046.55,-234.64 2047.17,-241.61"/>
</g>
<!-- guid -->
<g id="node13" class="node">
<title>guid</title>
<ellipse fill="none" stroke="black" cx="1842" cy="-306" rx="27" ry="18"/>
<text text-anchor="middle" x="1842" y="-302.3" font-family="Times,serif" font-size="14.00">guid</text>
</g>
<!-- event&#45;&gt;guid -->
<g id="edge17" class="edge">
<title>event&#45;&gt;guid</title>
<path fill="none" stroke="black" d="M1776.59,-362.83C1788.31,-352.84 1804.19,-339.27 1817.38,-328.02"/>
<polygon fill="black" stroke="black" points="1819.5,-330.81 1824.84,-321.65 1814.96,-325.48 1819.5,-330.81"/>
</g>
<!-- account&#45;&gt;signer -->
<g id="edge22" class="edge">
<title>account&#45;&gt;signer</title>
<path fill="none" stroke="black" d="M1974.22,-431.89C1963.54,-397.38 1934.19,-320.02 1878,-288 1843.84,-268.53 599.49,-241.24 348.03,-235.92"/>
<polygon fill="black" stroke="black" points="348.4,-232.43 338.33,-235.72 348.25,-239.43 348.4,-232.43"/>
</g>
<!-- account&#45;&gt;error -->
<g id="edge23" class="edge">
<title>account&#45;&gt;error</title>
<path fill="none" stroke="black" d="M1981.83,-431.69C1986.21,-398.2 1990.25,-324.62 1949,-288 1891.26,-236.73 1336.21,-234.45 1182.36,-234.81"/>
<polygon fill="black" stroke="black" points="1182.67,-231.31 1172.68,-234.84 1182.69,-238.31 1182.67,-231.31"/>
</g>
<!-- account&#45;&gt;system_addresses -->
<g id="edge24" class="edge">
<title>account&#45;&gt;system_addresses</title>
<path fill="none" stroke="black" d="M1940.93,-447.29C1840.82,-442.48 1562.07,-427.13 1332,-396 1246.83,-384.48 1226.77,-374.18 1142,-360 1041.68,-343.22 925.33,-326.86 851.46,-316.86"/>
<polygon fill="black" stroke="black" points="852.31,-313.44 841.93,-315.57 851.37,-320.38 852.31,-313.44"/>
</g>
<!-- account&#45;&gt;event -->
<g id="edge31" class="edge">
<title>account&#45;&gt;event</title>
<path fill="none" stroke="black" d="M1948.09,-439.12C1908.26,-426.39 1839.11,-404.29 1796.67,-390.72"/>
<polygon fill="black" stroke="black" points="1798,-387.47 1787.41,-387.76 1795.87,-394.14 1798,-387.47"/>
</g>
<!-- account&#45;&gt;bcs -->
<g id="edge26" class="edge">
<title>account&#45;&gt;bcs</title>
<path fill="none" stroke="black" d="M2008.29,-438.17C2027.06,-429.65 2050.21,-415.86 2063,-396 2088.97,-355.65 2090.14,-297.83 2088,-263.58"/>
<polygon fill="black" stroke="black" points="2091.49,-263.31 2087.22,-253.61 2084.51,-263.86 2091.49,-263.31"/>
</g>
<!-- account&#45;&gt;guid -->
<g id="edge29" class="edge">
<title>account&#45;&gt;guid</title>
<path fill="none" stroke="black" d="M1963.47,-433.28C1953.11,-422.77 1939.19,-408.6 1927,-396 1905.42,-373.7 1880.97,-348.06 1863.85,-330.04"/>
<polygon fill="black" stroke="black" points="1866.54,-327.8 1857.12,-322.96 1861.47,-332.62 1866.54,-327.8"/>
</g>
<!-- vector -->
<g id="node14" class="node">
<title>vector</title>
<ellipse fill="none" stroke="black" cx="1561" cy="-18" rx="32.49" ry="18"/>
<text text-anchor="middle" x="1561" y="-14.3" font-family="Times,serif" font-size="14.00">vector</text>
</g>
<!-- account&#45;&gt;vector -->
<g id="edge18" class="edge">
<title>account&#45;&gt;vector</title>
<path fill="none" stroke="black" d="M2016.89,-446.86C2136.78,-439.07 2500,-407.2 2500,-307 2500,-307 2500,-307 2500,-161 2500,-69.29 1790.74,-29.73 1605.06,-20.95"/>
<polygon fill="black" stroke="black" points="1605.26,-17.45 1595.11,-20.48 1604.93,-24.45 1605.26,-17.45"/>
</g>
<!-- option -->
<g id="node15" class="node">
<title>option</title>
<ellipse fill="none" stroke="black" cx="1561" cy="-90" rx="33.29" ry="18"/>
<text text-anchor="middle" x="1561" y="-86.3" font-family="Times,serif" font-size="14.00">option</text>
</g>
<!-- account&#45;&gt;option -->
<g id="edge19" class="edge">
<title>account&#45;&gt;option</title>
<path fill="none" stroke="black" d="M1986.29,-432.18C1990.33,-421.94 1994.94,-408.46 1997,-396 2004.98,-347.67 2006.99,-325.1 1975,-288 1873.72,-170.55 1686.8,-117.77 1603.26,-99.25"/>
<polygon fill="black" stroke="black" points="1604.17,-95.87 1593.66,-97.18 1602.7,-102.71 1604.17,-95.87"/>
</g>
<!-- type_info -->
<g id="node16" class="node">
<title>type_info</title>
<ellipse fill="none" stroke="black" cx="2428" cy="-234" rx="44.39" ry="18"/>
<text text-anchor="middle" x="2428" y="-230.3" font-family="Times,serif" font-size="14.00">type_info</text>
</g>
<!-- account&#45;&gt;type_info -->
<g id="edge20" class="edge">
<title>account&#45;&gt;type_info</title>
<path fill="none" stroke="black" d="M2017.12,-447.01C2095.79,-442.29 2272.92,-428.3 2323,-396 2372.43,-364.12 2403.57,-299.81 2418.17,-262.85"/>
<polygon fill="black" stroke="black" points="2421.35,-264.33 2421.64,-253.73 2414.81,-261.84 2421.35,-264.33"/>
</g>
<!-- table -->
<g id="node17" class="node">
<title>table</title>
<ellipse fill="none" stroke="black" cx="1731" cy="-306" rx="27.9" ry="18"/>
<text text-anchor="middle" x="1731" y="-302.3" font-family="Times,serif" font-size="14.00">table</text>
</g>
<!-- account&#45;&gt;table -->
<g id="edge21" class="edge">
<title>account&#45;&gt;table</title>
<path fill="none" stroke="black" d="M1955.67,-435.64C1910.53,-409.79 1811.28,-352.97 1761.19,-324.29"/>
<polygon fill="black" stroke="black" points="1763.01,-321.3 1752.6,-319.37 1759.54,-327.37 1763.01,-321.3"/>
</g>
<!-- hash -->
<g id="node18" class="node">
<title>hash</title>
<ellipse fill="none" stroke="black" cx="2233" cy="-234" rx="27" ry="18"/>
<text text-anchor="middle" x="2233" y="-230.3" font-family="Times,serif" font-size="14.00">hash</text>
</g>
<!-- account&#45;&gt;hash -->
<g id="edge25" class="edge">
<title>account&#45;&gt;hash</title>
<path fill="none" stroke="black" d="M2016.9,-446.56C2086.46,-441.38 2230.88,-427.1 2269,-396 2307.51,-364.58 2319.32,-332.89 2298,-288 2290.83,-272.91 2277.03,-260.7 2263.98,-251.82"/>
<polygon fill="black" stroke="black" points="2265.88,-248.87 2255.55,-246.49 2262.14,-254.79 2265.88,-248.87"/>
</g>
<!-- ed25519 -->
<g id="node19" class="node">
<title>ed25519</title>
<ellipse fill="none" stroke="black" cx="2232" cy="-306" rx="40.89" ry="18"/>
<text text-anchor="middle" x="2232" y="-302.3" font-family="Times,serif" font-size="14.00">ed25519</text>
</g>
<!-- account&#45;&gt;ed25519 -->
<g id="edge27" class="edge">
<title>account&#45;&gt;ed25519</title>
<path fill="none" stroke="black" d="M2017.19,-447.36C2085.14,-443.57 2222.67,-431.57 2252,-396 2266.37,-378.58 2258.52,-352.95 2248.75,-333.66"/>
<polygon fill="black" stroke="black" points="2251.88,-332.09 2243.99,-325.02 2245.75,-335.47 2251.88,-332.09"/>
</g>
<!-- multi_ed25519 -->
<g id="node20" class="node">
<title>multi_ed25519</title>
<ellipse fill="none" stroke="black" cx="2179" cy="-378" rx="64.19" ry="18"/>
<text text-anchor="middle" x="2179" y="-374.3" font-family="Times,serif" font-size="14.00">multi_ed25519</text>
</g>
<!-- account&#45;&gt;multi_ed25519 -->
<g id="edge28" class="edge">
<title>account&#45;&gt;multi_ed25519</title>
<path fill="none" stroke="black" d="M2008.94,-438.52C2040.68,-427.41 2091.34,-409.68 2129.12,-396.46"/>
<polygon fill="black" stroke="black" points="2130.19,-399.79 2138.48,-393.18 2127.88,-393.18 2130.19,-399.79"/>
</g>
<!-- from_bcs -->
<g id="node21" class="node">
<title>from_bcs</title>
<ellipse fill="none" stroke="black" cx="2322" cy="-234" rx="44.39" ry="18"/>
<text text-anchor="middle" x="2322" y="-230.3" font-family="Times,serif" font-size="14.00">from_bcs</text>
</g>
<!-- account&#45;&gt;from_bcs -->
<g id="edge30" class="edge">
<title>account&#45;&gt;from_bcs</title>
<path fill="none" stroke="black" d="M2017.23,-447.71C2092.78,-444.37 2257.43,-432.95 2298,-396 2334.42,-362.83 2332.37,-300.2 2327.35,-263.6"/>
<polygon fill="black" stroke="black" points="2330.82,-263.1 2325.82,-253.76 2323.9,-264.18 2330.82,-263.1"/>
</g>
<!-- chain_status&#45;&gt;error -->
<g id="edge32" class="edge">
<title>chain_status&#45;&gt;error</title>
<path fill="none" stroke="black" d="M1086.72,-359.87C1097.69,-335.54 1117.88,-290.73 1130.86,-261.93"/>
<polygon fill="black" stroke="black" points="1133.91,-263.68 1134.83,-253.13 1127.53,-260.81 1133.91,-263.68"/>
</g>
<!-- chain_status&#45;&gt;system_addresses -->
<g id="edge33" class="edge">
<title>chain_status&#45;&gt;system_addresses</title>
<path fill="none" stroke="black" d="M1038.72,-365.64C1031.51,-363.7 1024.04,-361.74 1017,-360 958.52,-345.53 891.55,-330.91 843.24,-320.69"/>
<polygon fill="black" stroke="black" points="843.98,-317.27 833.47,-318.63 842.54,-324.12 843.98,-317.27"/>
</g>
<!-- timestamp&#45;&gt;error -->
<g id="edge34" class="edge">
<title>timestamp&#45;&gt;error</title>
<path fill="none" stroke="black" d="M801.8,-503.66C813.24,-471.72 841.43,-402.92 885,-360 949.39,-296.58 1052.24,-260.24 1106.59,-244.47"/>
<polygon fill="black" stroke="black" points="1107.29,-247.91 1115.97,-241.82 1105.39,-241.17 1107.29,-247.91"/>
</g>
<!-- timestamp&#45;&gt;system_addresses -->
<g id="edge35" class="edge">
<title>timestamp&#45;&gt;system_addresses</title>
<path fill="none" stroke="black" d="M787.69,-503.79C783.26,-493.63 778.26,-480.38 776,-468 767.64,-422.16 770.59,-367.75 773.67,-335.37"/>
<polygon fill="black" stroke="black" points="777.13,-335.91 774.67,-325.61 770.17,-335.2 777.13,-335.91"/>
</g>
<!-- stake&#45;&gt;signer -->
<g id="edge38" class="edge">
<title>stake&#45;&gt;signer</title>
<path fill="none" stroke="black" d="M576.36,-663.81C523.09,-660.74 406.05,-649.86 316,-612 232.24,-576.78 190,-541.86 190,-451 190,-451 190,-451 190,-377 190,-323.4 240.01,-278.51 273.78,-254.3"/>
<polygon fill="black" stroke="black" points="275.36,-257.47 281.58,-248.9 271.37,-251.72 275.36,-257.47"/>
</g>
<!-- stake&#45;&gt;error -->
<g id="edge39" class="edge">
<title>stake&#45;&gt;error</title>
<path fill="none" stroke="black" d="M596.75,-648.48C569.48,-592.85 485.46,-412.85 513,-360 538.81,-310.47 563.63,-307.42 616,-288 705.55,-254.79 996.81,-240.58 1103.43,-236.4"/>
<polygon fill="black" stroke="black" points="1103.54,-239.9 1113.4,-236.02 1103.27,-232.9 1103.54,-239.9"/>
</g>
<!-- stake&#45;&gt;system_addresses -->
<g id="edge40" class="edge">
<title>stake&#45;&gt;system_addresses</title>
<path fill="none" stroke="black" d="M576.02,-665.45C537.06,-664.28 469.01,-655.66 437,-612 384.74,-540.72 287.25,-556.12 513,-360 540.2,-336.37 630.39,-321.98 697.83,-314.27"/>
<polygon fill="black" stroke="black" points="697.81,-317.79 707.36,-313.21 697.03,-310.83 697.81,-317.79"/>
</g>
<!-- stake&#45;&gt;event -->
<g id="edge41" class="edge">
<title>stake&#45;&gt;event</title>
<path fill="none" stroke="black" d="M633.57,-663.49C743.61,-657.13 1149.95,-628.62 1471,-540 1557.65,-516.08 1583.16,-514.65 1660,-468 1689.94,-449.82 1719.28,-422.21 1738.36,-402.56"/>
<polygon fill="black" stroke="black" points="1740.71,-405.17 1745.07,-395.52 1735.64,-400.34 1740.71,-405.17"/>
</g>
<!-- stake&#45;&gt;account -->
<g id="edge42" class="edge">
<title>stake&#45;&gt;account</title>
<path fill="none" stroke="black" d="M633.79,-665.03C763.27,-664.49 1303.83,-655.11 1727,-540 1804,-519.05 1891.28,-486.08 1940.28,-466.7"/>
<polygon fill="black" stroke="black" points="1941.31,-470.05 1949.31,-463.1 1938.72,-463.55 1941.31,-470.05"/>
</g>
<!-- stake&#45;&gt;timestamp -->
<g id="edge45" class="edge">
<title>stake&#45;&gt;timestamp</title>
<path fill="none" stroke="black" d="M629.97,-656.69C654.01,-647.94 690.64,-632.58 718,-612 741.6,-594.25 763.28,-568.38 777.77,-549.1"/>
<polygon fill="black" stroke="black" points="780.48,-551.32 783.57,-541.19 774.83,-547.18 780.48,-551.32"/>
</g>
<!-- stake&#45;&gt;vector -->
<g id="edge36" class="edge">
<title>stake&#45;&gt;vector</title>
<path fill="none" stroke="black" d="M576.21,-663.81C491.34,-659.92 243.55,-645.9 171,-612 118.58,-587.51 76,-580.86 76,-523 76,-523 76,-523 76,-161 76,63.84 350.65,-97.85 574,-72 936.74,-30.01 1378.41,-21.21 1517.15,-19.43"/>
<polygon fill="black" stroke="black" points="1517.03,-22.93 1526.99,-19.31 1516.95,-15.93 1517.03,-22.93"/>
</g>
<!-- stake&#45;&gt;option -->
<g id="edge37" class="edge">
<title>stake&#45;&gt;option</title>
<path fill="none" stroke="black" d="M576.4,-663.04C501.9,-657.57 303.6,-640.65 245,-612 193.6,-586.87 152,-580.21 152,-523 152,-523 152,-523 152,-377 152,-226.41 252.78,-183.84 398,-144 507.17,-114.05 1315.98,-95.93 1516.24,-91.87"/>
<polygon fill="black" stroke="black" points="1516.04,-95.38 1525.96,-91.68 1515.9,-88.38 1516.04,-95.38"/>
</g>
<!-- coin -->
<g id="node22" class="node">
<title>coin</title>
<ellipse fill="none" stroke="black" cx="1435" cy="-522" rx="27" ry="18"/>
<text text-anchor="middle" x="1435" y="-518.3" font-family="Times,serif" font-size="14.00">coin</text>
</g>
<!-- stake&#45;&gt;coin -->
<g id="edge43" class="edge">
<title>stake&#45;&gt;coin</title>
<path fill="none" stroke="black" d="M632.7,-660.87C731.34,-646.07 1074.58,-593.67 1356,-540 1369.86,-537.36 1385.01,-534.17 1398.32,-531.27"/>
<polygon fill="black" stroke="black" points="1398.95,-534.71 1407.97,-529.14 1397.45,-527.88 1398.95,-534.71"/>
</g>
<!-- aptos_coin -->
<g id="node23" class="node">
<title>aptos_coin</title>
<ellipse fill="none" stroke="black" cx="495" cy="-594" rx="48.99" ry="18"/>
<text text-anchor="middle" x="495" y="-590.3" font-family="Times,serif" font-size="14.00">aptos_coin</text>
</g>
<!-- stake&#45;&gt;aptos_coin -->
<g id="edge44" class="edge">
<title>stake&#45;&gt;aptos_coin</title>
<path fill="none" stroke="black" d="M585.33,-652.49C569.51,-642.42 546.93,-628.05 528.3,-616.19"/>
<polygon fill="black" stroke="black" points="530.3,-613.31 519.98,-610.9 526.54,-619.22 530.3,-613.31"/>
</g>
<!-- staking_config -->
<g id="node24" class="node">
<title>staking_config</title>
<ellipse fill="none" stroke="black" cx="585" cy="-378" rx="63.09" ry="18"/>
<text text-anchor="middle" x="585" y="-374.3" font-family="Times,serif" font-size="14.00">staking_config</text>
</g>
<!-- stake&#45;&gt;staking_config -->
<g id="edge46" class="edge">
<title>stake&#45;&gt;staking_config</title>
<path fill="none" stroke="black" d="M629.47,-656.26C648.42,-648.04 673.33,-633.72 685,-612 692.57,-597.9 688.72,-591.56 685,-576 669.29,-510.36 627.94,-441.89 603.61,-405.48"/>
<polygon fill="black" stroke="black" points="606.6,-403.65 598.08,-397.35 600.81,-407.59 606.6,-403.65"/>
</g>
<!-- math64 -->
<g id="node25" class="node">
<title>math64</title>
<ellipse fill="none" stroke="black" cx="638" cy="-594" rx="37.89" ry="18"/>
<text text-anchor="middle" x="638" y="-590.3" font-family="Times,serif" font-size="14.00">math64</text>
</g>
<!-- stake&#45;&gt;math64 -->
<g id="edge47" class="edge">
<title>stake&#45;&gt;math64</title>
<path fill="none" stroke="black" d="M612.82,-648.41C616.51,-640.59 621,-631.06 625.16,-622.23"/>
<polygon fill="black" stroke="black" points="628.26,-623.86 629.36,-613.33 621.93,-620.88 628.26,-623.86"/>
</g>
<!-- bls12381 -->
<g id="node26" class="node">
<title>bls12381</title>
<ellipse fill="none" stroke="black" cx="375" cy="-306" rx="42.79" ry="18"/>
<text text-anchor="middle" x="375" y="-302.3" font-family="Times,serif" font-size="14.00">bls12381</text>
</g>
<!-- stake&#45;&gt;bls12381 -->
<g id="edge48" class="edge">
<title>stake&#45;&gt;bls12381</title>
<path fill="none" stroke="black" d="M576.14,-664.53C500.8,-661.63 304,-642.6 304,-523 304,-523 304,-523 304,-449 304,-408.03 308.56,-396.06 328,-360 333.69,-349.45 341.86,-339.24 349.8,-330.65"/>
<polygon fill="black" stroke="black" points="352.06,-333.35 356.51,-323.74 347.04,-328.48 352.06,-333.35"/>
</g>
<!-- storage_gas&#45;&gt;error -->
<g id="edge49" class="edge">
<title>storage_gas&#45;&gt;error</title>
<path fill="none" stroke="black" d="M998.42,-445.09C1133.77,-434.49 1495.52,-405.33 1504,-396 1601.21,-289.08 1294.24,-249.12 1182.24,-238.31"/>
<polygon fill="black" stroke="black" points="1182.6,-234.83 1172.31,-237.38 1181.95,-241.8 1182.6,-234.83"/>
</g>
<!-- storage_gas&#45;&gt;system_addresses -->
<g id="edge50" class="edge">
<title>storage_gas&#45;&gt;system_addresses</title>
<path fill="none" stroke="black" d="M928.72,-432.99C898.73,-408.08 840.74,-359.93 805.79,-330.9"/>
<polygon fill="black" stroke="black" points="808.1,-328.27 798.17,-324.58 803.63,-333.66 808.1,-328.27"/>
</g>
<!-- state_storage -->
<g id="node27" class="node">
<title>state_storage</title>
<ellipse fill="none" stroke="black" cx="951" cy="-378" rx="56.59" ry="18"/>
<text text-anchor="middle" x="951" y="-374.3" font-family="Times,serif" font-size="14.00">state_storage</text>
</g>
<!-- storage_gas&#45;&gt;state_storage -->
<g id="edge51" class="edge">
<title>storage_gas&#45;&gt;state_storage</title>
<path fill="none" stroke="black" d="M948.74,-431.7C949.05,-424.41 949.43,-415.73 949.78,-407.54"/>
<polygon fill="black" stroke="black" points="953.27,-407.76 950.2,-397.62 946.28,-407.46 953.27,-407.76"/>
</g>
<!-- option&#45;&gt;vector -->
<g id="edge52" class="edge">
<title>option&#45;&gt;vector</title>
<path fill="none" stroke="black" d="M1561,-71.7C1561,-64.41 1561,-55.73 1561,-47.54"/>
<polygon fill="black" stroke="black" points="1564.5,-47.62 1561,-37.62 1557.5,-47.62 1564.5,-47.62"/>
</g>
<!-- string -->
<g id="node28" class="node">
<title>string</title>
<ellipse fill="none" stroke="black" cx="2237" cy="-162" rx="30.59" ry="18"/>
<text text-anchor="middle" x="2237" y="-158.3" font-family="Times,serif" font-size="14.00">string</text>
</g>
<!-- type_info&#45;&gt;string -->
<g id="edge53" class="edge">
<title>type_info&#45;&gt;string</title>
<path fill="none" stroke="black" d="M2396.03,-221.28C2362.06,-208.83 2308.45,-189.19 2273.01,-176.2"/>
<polygon fill="black" stroke="black" points="2274.65,-173.07 2264.06,-172.92 2272.25,-179.64 2274.65,-173.07"/>
</g>
<!-- ed25519&#45;&gt;error -->
<g id="edge56" class="edge">
<title>ed25519&#45;&gt;error</title>
<path fill="none" stroke="black" d="M2191.95,-301.45C2150.27,-297.81 2083.09,-292.13 2025,-288 1699.59,-264.86 1306.15,-243.59 1182.28,-237.05"/>
<polygon fill="black" stroke="black" points="1182.5,-233.56 1172.33,-236.53 1182.13,-240.55 1182.5,-233.56"/>
</g>
<!-- ed25519&#45;&gt;bcs -->
<g id="edge58" class="edge">
<title>ed25519&#45;&gt;bcs</title>
<path fill="none" stroke="black" d="M2205.04,-292.16C2180.12,-280.3 2143.09,-262.66 2116.75,-250.12"/>
<polygon fill="black" stroke="black" points="2118.44,-247.05 2107.9,-245.91 2115.43,-253.37 2118.44,-247.05"/>
</g>
<!-- ed25519&#45;&gt;option -->
<g id="edge54" class="edge">
<title>ed25519&#45;&gt;option</title>
<path fill="none" stroke="black" d="M2219.73,-288.36C2212.56,-278.18 2203.64,-264.71 2197,-252 2173.08,-206.2 2195.42,-174.88 2154,-144 2132.03,-127.62 1739.41,-102 1605.4,-93.7"/>
<polygon fill="black" stroke="black" points="1605.7,-90.21 1595.5,-93.09 1605.26,-97.2 1605.7,-90.21"/>
</g>
<!-- ed25519&#45;&gt;type_info -->
<g id="edge55" class="edge">
<title>ed25519&#45;&gt;type_info</title>
<path fill="none" stroke="black" d="M2263.06,-293.91C2295.97,-282.15 2348.18,-263.51 2385.03,-250.35"/>
<polygon fill="black" stroke="black" points="2385.79,-253.79 2394.03,-247.13 2383.44,-247.2 2385.79,-253.79"/>
</g>
<!-- ed25519&#45;&gt;hash -->
<g id="edge57" class="edge">
<title>ed25519&#45;&gt;hash</title>
<path fill="none" stroke="black" d="M2232.25,-287.7C2232.35,-280.41 2232.48,-271.73 2232.59,-263.54"/>
<polygon fill="black" stroke="black" points="2236.09,-263.67 2232.73,-253.62 2229.09,-263.57 2236.09,-263.67"/>
</g>
<!-- multi_ed25519&#45;&gt;error -->
<g id="edge60" class="edge">
<title>multi_ed25519&#45;&gt;error</title>
<path fill="none" stroke="black" d="M2153.14,-361.19C2117.31,-340.21 2049.86,-303.94 1987,-288 1831.62,-248.59 1327.25,-237.85 1182.29,-235.54"/>
<polygon fill="black" stroke="black" points="1182.5,-232.05 1172.45,-235.39 1182.39,-239.05 1182.5,-232.05"/>
</g>
<!-- multi_ed25519&#45;&gt;bcs -->
<g id="edge62" class="edge">
<title>multi_ed25519&#45;&gt;bcs</title>
<path fill="none" stroke="black" d="M2167.66,-359.87C2151.24,-335.06 2120.72,-288.96 2101.71,-260.25"/>
<polygon fill="black" stroke="black" points="2104.79,-258.55 2096.35,-252.14 2098.95,-262.41 2104.79,-258.55"/>
</g>
<!-- multi_ed25519&#45;&gt;option -->
<g id="edge59" class="edge">
<title>multi_ed25519&#45;&gt;option</title>
<path fill="none" stroke="black" d="M2177.93,-359.52C2174.93,-326.4 2163.6,-254.38 2121,-216 2044.1,-146.71 1722.98,-107.54 1604.85,-95.25"/>
<polygon fill="black" stroke="black" points="1605.55,-91.81 1595.25,-94.27 1604.84,-98.77 1605.55,-91.81"/>
</g>
<!-- multi_ed25519&#45;&gt;hash -->
<g id="edge61" class="edge">
<title>multi_ed25519&#45;&gt;hash</title>
<path fill="none" stroke="black" d="M2225.48,-365.16C2246.6,-357.21 2269.59,-344.34 2282,-324 2290.33,-310.34 2287.83,-302.9 2282,-288 2277.17,-275.67 2267.98,-264.49 2258.86,-255.61"/>
<polygon fill="black" stroke="black" points="2261.5,-253.28 2251.74,-249.15 2256.79,-258.46 2261.5,-253.28"/>
</g>
<!-- multi_ed25519&#45;&gt;ed25519 -->
<g id="edge63" class="edge">
<title>multi_ed25519&#45;&gt;ed25519</title>
<path fill="none" stroke="black" d="M2191.83,-360.05C2198.11,-351.77 2205.79,-341.62 2212.75,-332.42"/>
<polygon fill="black" stroke="black" points="2215.49,-334.6 2218.74,-324.51 2209.91,-330.37 2215.49,-334.6"/>
</g>
<!-- from_bcs&#45;&gt;string -->
<g id="edge64" class="edge">
<title>from_bcs&#45;&gt;string</title>
<path fill="none" stroke="black" d="M2303.14,-217.46C2291.29,-207.71 2275.86,-195 2262.88,-184.32"/>
<polygon fill="black" stroke="black" points="2265.48,-181.92 2255.53,-178.26 2261.03,-187.32 2265.48,-181.92"/>
</g>
<!-- coin&#45;&gt;signer -->
<g id="edge68" class="edge">
<title>coin&#45;&gt;signer</title>
<path fill="none" stroke="black" d="M1407.97,-520.35C1295.68,-517.05 855.98,-497.91 513,-396 426.44,-370.28 381.83,-392.52 323,-324 308.75,-307.4 304.36,-282.72 303.33,-263.56"/>
<polygon fill="black" stroke="black" points="306.83,-263.61 303.1,-253.69 299.83,-263.77 306.83,-263.61"/>
</g>
<!-- coin&#45;&gt;error -->
<g id="edge69" class="edge">
<title>coin&#45;&gt;error</title>
<path fill="none" stroke="black" d="M1413.19,-510.9C1407.08,-508.37 1400.37,-505.84 1394,-504 1303.46,-477.79 1251.91,-534.39 1185,-468 1156.53,-439.75 1147.06,-319.14 1144.16,-263.42"/>
<polygon fill="black" stroke="black" points="1147.68,-263.6 1143.7,-253.78 1140.68,-263.94 1147.68,-263.6"/>
</g>
<!-- coin&#45;&gt;system_addresses -->
<g id="edge70" class="edge">
<title>coin&#45;&gt;system_addresses</title>
<path fill="none" stroke="black" d="M1407.62,-521.35C1309.48,-522.17 976.48,-520.9 887,-468 835.5,-437.56 802.69,-372.42 787.3,-335"/>
<polygon fill="black" stroke="black" points="790.57,-333.76 783.64,-325.75 784.06,-336.34 790.57,-333.76"/>
</g>
<!-- coin&#45;&gt;event -->
<g id="edge71" class="edge">
<title>coin&#45;&gt;event</title>
<path fill="none" stroke="black" d="M1460.48,-515.58C1495.7,-507.6 1560.82,-491.11 1613,-468 1656.68,-448.66 1703.23,-418.69 1731.97,-398.96"/>
<polygon fill="black" stroke="black" points="1733.89,-401.88 1740.11,-393.31 1729.9,-396.13 1733.89,-401.88"/>
</g>
<!-- coin&#45;&gt;account -->
<g id="edge72" class="edge">
<title>coin&#45;&gt;account</title>
<path fill="none" stroke="black" d="M1461.61,-517.58C1547.83,-506.48 1820.37,-471.41 1931.31,-457.14"/>
<polygon fill="black" stroke="black" points="1931.5,-460.64 1940.97,-455.89 1930.6,-453.7 1931.5,-460.64"/>
</g>
<!-- coin&#45;&gt;option -->
<g id="edge65" class="edge">
<title>coin&#45;&gt;option</title>
<path fill="none" stroke="black" d="M1455.81,-510.04C1491.59,-489.51 1561,-441.62 1561,-379 1561,-379 1561,-379 1561,-233 1561,-193.74 1561,-148.38 1561,-119.69"/>
<polygon fill="black" stroke="black" points="1564.5,-120 1561,-110 1557.5,-120 1564.5,-120"/>
</g>
<!-- coin&#45;&gt;type_info -->
<g id="edge67" class="edge">
<title>coin&#45;&gt;type_info</title>
<path fill="none" stroke="black" d="M1462.28,-520.32C1598.17,-516.51 2201.65,-494.2 2356,-396 2389.97,-374.38 2394.56,-360.76 2411,-324 2419.55,-304.89 2423.8,-281.6 2425.92,-263.64"/>
<polygon fill="black" stroke="black" points="2429.37,-264.24 2426.89,-253.94 2422.41,-263.54 2429.37,-264.24"/>
</g>
<!-- coin&#45;&gt;string -->
<g id="edge66" class="edge">
<title>coin&#45;&gt;string</title>
<path fill="none" stroke="black" d="M1460.9,-516.24C1490.96,-509.65 1540.79,-495.34 1575,-468 1649.92,-408.13 1615.2,-342.66 1694,-288 1853.66,-177.25 2097.08,-163.34 2194.52,-162.49"/>
<polygon fill="black" stroke="black" points="2194.43,-165.99 2204.41,-162.45 2194.4,-158.99 2194.43,-165.99"/>
</g>
<!-- optional_aggregator -->
<g id="node29" class="node">
<title>optional_aggregator</title>
<ellipse fill="none" stroke="black" cx="1275" cy="-450" rx="81.49" ry="18"/>
<text text-anchor="middle" x="1275" y="-446.3" font-family="Times,serif" font-size="14.00">optional_aggregator</text>
</g>
<!-- coin&#45;&gt;optional_aggregator -->
<g id="edge73" class="edge">
<title>coin&#45;&gt;optional_aggregator</title>
<path fill="none" stroke="black" d="M1412.75,-511.27C1389.1,-500.92 1351.01,-484.25 1320.87,-471.07"/>
<polygon fill="black" stroke="black" points="1322.53,-467.98 1311.97,-467.17 1319.73,-474.39 1322.53,-467.98"/>
</g>
<!-- aptos_coin&#45;&gt;signer -->
<g id="edge77" class="edge">
<title>aptos_coin&#45;&gt;signer</title>
<path fill="none" stroke="black" d="M477.29,-576.82C443.64,-545.18 370.1,-471.6 328,-396 311.45,-366.28 307.87,-357.51 302,-324 299.24,-308.24 301.7,-304 302,-288 302.15,-280.05 302.43,-271.44 302.73,-263.51"/>
<polygon fill="black" stroke="black" points="306.22,-263.83 303.13,-253.69 299.22,-263.54 306.22,-263.83"/>
</g>
<!-- aptos_coin&#45;&gt;error -->
<g id="edge78" class="edge">
<title>aptos_coin&#45;&gt;error</title>
<path fill="none" stroke="black" d="M532.5,-582.19C585.52,-564.34 676,-523.29 676,-451 676,-451 676,-451 676,-377 676,-336.55 665.11,-315.25 695,-288 724.99,-260.66 1000.08,-242.85 1103.73,-237.06"/>
<polygon fill="black" stroke="black" points="1103.62,-240.57 1113.42,-236.53 1103.24,-233.58 1103.62,-240.57"/>
</g>
<!-- aptos_coin&#45;&gt;system_addresses -->
<g id="edge79" class="edge">
<title>aptos_coin&#45;&gt;system_addresses</title>
<path fill="none" stroke="black" d="M510.97,-576.8C557.96,-529.15 695.98,-389.17 752.47,-331.88"/>
<polygon fill="black" stroke="black" points="754.91,-334.39 759.44,-324.81 749.93,-329.47 754.91,-334.39"/>
</g>
<!-- aptos_coin&#45;&gt;vector -->
<g id="edge74" class="edge">
<title>aptos_coin&#45;&gt;vector</title>
<path fill="none" stroke="black" d="M447.57,-589.05C370.85,-579.78 228,-549.31 228,-451 228,-451 228,-451 228,-377 228,-303.77 218.83,-274.41 263,-216 304.01,-161.76 333.01,-164 398,-144 613.8,-77.6 1332.19,-32.24 1517.23,-21.47"/>
<polygon fill="black" stroke="black" points="1517.34,-24.97 1527.12,-20.9 1516.94,-17.98 1517.34,-24.97"/>
</g>
<!-- aptos_coin&#45;&gt;option -->
<g id="edge75" class="edge">
<title>aptos_coin&#45;&gt;option</title>
<path fill="none" stroke="black" d="M490.4,-575.72C477.35,-522.29 446.48,-359.01 535,-288 691.03,-162.84 1339.77,-107.12 1516.42,-94.09"/>
<polygon fill="black" stroke="black" points="1516.61,-97.58 1526.33,-93.36 1516.1,-90.6 1516.61,-97.58"/>
</g>
<!-- aptos_coin&#45;&gt;coin -->
<g id="edge80" class="edge">
<title>aptos_coin&#45;&gt;coin</title>
<path fill="none" stroke="black" d="M536.89,-584.38C553.65,-581.25 573.17,-577.99 591,-576 929.28,-538.25 1018.47,-583.95 1356,-540 1370.1,-538.16 1385.41,-535.12 1398.77,-532.11"/>
<polygon fill="black" stroke="black" points="1399.51,-535.53 1408.45,-529.85 1397.92,-528.71 1399.51,-535.53"/>
</g>
<!-- aptos_coin&#45;&gt;string -->
<g id="edge76" class="edge">
<title>aptos_coin&#45;&gt;string</title>
<path fill="none" stroke="black" d="M537.95,-585.03C554.51,-582.05 573.61,-578.73 591,-576 707.11,-557.75 736.58,-556.18 853,-540 1155.97,-497.88 1267.27,-559.16 1526,-396 1635.21,-327.13 1633.37,-262 1754,-216 1834.27,-185.39 2092.57,-169.94 2194.79,-164.9"/>
<polygon fill="black" stroke="black" points="2194.84,-168.4 2204.66,-164.42 2194.51,-161.41 2194.84,-168.4"/>
</g>
<!-- staking_config&#45;&gt;error -->
<g id="edge81" class="edge">
<title>staking_config&#45;&gt;error</title>
<path fill="none" stroke="black" d="M594.38,-359.82C606.82,-338.9 630.89,-304.34 662,-288 738.47,-247.83 1002.46,-238 1103.36,-235.68"/>
<polygon fill="black" stroke="black" points="1103.4,-239.18 1113.32,-235.47 1103.25,-232.18 1103.4,-239.18"/>
</g>
<!-- staking_config&#45;&gt;system_addresses -->
<g id="edge82" class="edge">
<title>staking_config&#45;&gt;system_addresses</title>
<path fill="none" stroke="black" d="M622.93,-363.17C652.59,-352.36 694.08,-337.23 726.53,-325.4"/>
<polygon fill="black" stroke="black" points="727.54,-328.76 735.74,-322.04 725.15,-322.18 727.54,-328.76"/>
</g>
<!-- bls12381&#45;&gt;error -->
<g id="edge84" class="edge">
<title>bls12381&#45;&gt;error</title>
<path fill="none" stroke="black" d="M412.78,-297.36C430.14,-294.07 451.06,-290.44 470,-288 709.57,-257.21 999.58,-241.64 1103.55,-236.75"/>
<polygon fill="black" stroke="black" points="1103.67,-240.25 1113.5,-236.29 1103.35,-233.25 1103.67,-240.25"/>
</g>
<!-- bls12381&#45;&gt;option -->
<g id="edge83" class="edge">
<title>bls12381&#45;&gt;option</title>
<path fill="none" stroke="black" d="M375.27,-287.54C376.85,-253.46 385.7,-178.38 432,-144 476.21,-111.17 1311.34,-95.16 1516.01,-91.72"/>
<polygon fill="black" stroke="black" points="1516.02,-95.22 1525.96,-91.55 1515.91,-88.22 1516.02,-95.22"/>
</g>
<!-- state_storage&#45;&gt;error -->
<g id="edge85" class="edge">
<title>state_storage&#45;&gt;error</title>
<path fill="none" stroke="black" d="M972.65,-360.99C1007.91,-334.91 1077.65,-283.33 1116.06,-254.93"/>
<polygon fill="black" stroke="black" points="1117.93,-257.89 1123.89,-249.13 1113.77,-252.26 1117.93,-257.89"/>
</g>
<!-- state_storage&#45;&gt;system_addresses -->
<g id="edge86" class="edge">
<title>state_storage&#45;&gt;system_addresses</title>
<path fill="none" stroke="black" d="M917.04,-363.34C890.7,-352.74 853.88,-337.93 824.6,-326.15"/>
<polygon fill="black" stroke="black" points="826.18,-323.01 815.59,-322.53 823.57,-329.51 826.18,-323.01"/>
</g>
<!-- string&#45;&gt;vector -->
<g id="edge87" class="edge">
<title>string&#45;&gt;vector</title>
<path fill="none" stroke="black" d="M2212.49,-150.9C2205.91,-148.42 2198.75,-145.93 2192,-144 1974.36,-81.8 1705.8,-39.73 1603.38,-24.91"/>
<polygon fill="black" stroke="black" points="1604.19,-21.49 1593.79,-23.54 1603.19,-28.42 1604.19,-21.49"/>
</g>
<!-- string&#45;&gt;option -->
<g id="edge88" class="edge">
<title>string&#45;&gt;option</title>
<path fill="none" stroke="black" d="M2213.09,-150.56C2206.38,-148.02 2199.01,-145.58 2192,-144 2079.95,-118.65 1730.26,-99.36 1605.65,-93.14"/>
<polygon fill="black" stroke="black" points="1605.98,-89.65 1595.82,-92.65 1605.64,-96.64 1605.98,-89.65"/>
</g>
<!-- optional_aggregator&#45;&gt;error -->
<g id="edge90" class="edge">
<title>optional_aggregator&#45;&gt;error</title>
<path fill="none" stroke="black" d="M1264.42,-431.85C1241.31,-394.39 1186.22,-305.06 1158.91,-260.79"/>
<polygon fill="black" stroke="black" points="1161.93,-259.02 1153.7,-252.35 1155.97,-262.69 1161.93,-259.02"/>
</g>
<!-- optional_aggregator&#45;&gt;option -->
<g id="edge89" class="edge">
<title>optional_aggregator&#45;&gt;option</title>
<path fill="none" stroke="black" d="M1258.88,-432.19C1236.57,-407.09 1199,-357.33 1199,-307 1199,-307 1199,-307 1199,-233 1199,-165.12 1422.41,-116.25 1518.21,-98.42"/>
<polygon fill="black" stroke="black" points="1518.81,-101.87 1528.02,-96.63 1517.55,-94.98 1518.81,-101.87"/>
</g>
<!-- aggregator -->
<g id="node30" class="node">
<title>aggregator</title>
<ellipse fill="none" stroke="black" cx="1321" cy="-306" rx="48.19" ry="18"/>
<text text-anchor="middle" x="1321" y="-302.3" font-family="Times,serif" font-size="14.00">aggregator</text>
</g>
<!-- optional_aggregator&#45;&gt;aggregator -->
<g id="edge91" class="edge">
<title>optional_aggregator&#45;&gt;aggregator</title>
<path fill="none" stroke="black" d="M1280.64,-431.59C1288.44,-407.5 1302.61,-363.75 1311.92,-335.03"/>
<polygon fill="black" stroke="black" points="1315.24,-336.14 1314.99,-325.55 1308.58,-333.99 1315.24,-336.14"/>
</g>
<!-- aggregator_factory -->
<g id="node31" class="node">
<title>aggregator_factory</title>
<ellipse fill="none" stroke="black" cx="1418" cy="-378" rx="77.19" ry="18"/>
<text text-anchor="middle" x="1418" y="-374.3" font-family="Times,serif" font-size="14.00">aggregator_factory</text>
</g>
<!-- optional_aggregator&#45;&gt;aggregator_factory -->
<g id="edge92" class="edge">
<title>optional_aggregator&#45;&gt;aggregator_factory</title>
<path fill="none" stroke="black" d="M1307.45,-433.12C1327.56,-423.27 1353.62,-410.52 1375.38,-399.86"/>
<polygon fill="black" stroke="black" points="1376.88,-403.03 1384.32,-395.49 1373.8,-396.74 1376.88,-403.03"/>
</g>
<!-- aggregator_factory&#45;&gt;error -->
<g id="edge94" class="edge">
<title>aggregator_factory&#45;&gt;error</title>
<path fill="none" stroke="black" d="M1415.04,-359.79C1410.62,-339.49 1400.3,-306.22 1378,-288 1348.31,-263.74 1240.58,-247.04 1181.85,-239.52"/>
<polygon fill="black" stroke="black" points="1182.3,-236.05 1171.95,-238.28 1181.44,-242.99 1182.3,-236.05"/>
</g>
<!-- aggregator_factory&#45;&gt;system_addresses -->
<g id="edge95" class="edge">
<title>aggregator_factory&#45;&gt;system_addresses</title>
<path fill="none" stroke="black" d="M1360.85,-365.52C1349.65,-363.5 1337.98,-361.55 1327,-360 1161.35,-336.59 966.15,-320.48 858.53,-312.59"/>
<polygon fill="black" stroke="black" points="858.86,-309.1 848.64,-311.87 858.35,-316.08 858.86,-309.1"/>
</g>
<!-- aggregator_factory&#45;&gt;table -->
<g id="edge93" class="edge">
<title>aggregator_factory&#45;&gt;table</title>
<path fill="none" stroke="black" d="M1472.16,-364.89C1535.54,-350.71 1638.8,-327.62 1693.78,-315.32"/>
<polygon fill="black" stroke="black" points="1694.28,-318.8 1703.28,-313.2 1692.75,-311.97 1694.28,-318.8"/>
</g>
<!-- aggregator_factory&#45;&gt;aggregator -->
<g id="edge96" class="edge">
<title>aggregator_factory&#45;&gt;aggregator</title>
<path fill="none" stroke="black" d="M1395.01,-360.41C1382.08,-351.08 1365.78,-339.31 1351.76,-329.2"/>
<polygon fill="black" stroke="black" points="1353.88,-326.41 1343.72,-323.4 1349.78,-332.09 1353.88,-326.41"/>
</g>
</g>
</svg>
