<?xml version="1.0" encoding="UTF-8" standalone="no"?>
<!DOCTYPE svg PUBLIC "-//W3C//DTD SVG 1.1//EN"
 "http://www.w3.org/Graphics/SVG/1.1/DTD/svg11.dtd">
<!-- Generated by graphviz version 7.0.0 (20221023.0053)
 -->
<!-- Title: G Pages: 1 -->
<svg width="2588pt" height="836pt"
 viewBox="0.00 0.00 2587.79 836.00" xmlns="http://www.w3.org/2000/svg" xmlns:xlink="http://www.w3.org/1999/xlink">
<g id="graph0" class="graph" transform="scale(1 1) rotate(0) translate(4 832)">
<title>G</title>
<polygon fill="white" stroke="none" points="-4,4 -4,-832 2583.79,-832 2583.79,4 -4,4"/>
<!-- vesting -->
<g id="node1" class="node">
<title>vesting</title>
<ellipse fill="none" stroke="black" cx="960" cy="-810" rx="36.29" ry="18"/>
<text text-anchor="middle" x="960" y="-806.3" font-family="Times,serif" font-size="14.00">vesting</text>
</g>
<!-- vector -->
<g id="node2" class="node">
<title>vector</title>
<ellipse fill="none" stroke="black" cx="1731" cy="-18" rx="32.49" ry="18"/>
<text text-anchor="middle" x="1731" y="-14.3" font-family="Times,serif" font-size="14.00">vector</text>
</g>
<!-- vesting&#45;&gt;vector -->
<g id="edge1" class="edge">
<title>vesting&#45;&gt;vector</title>
<path fill="none" stroke="black" d="M923.47,-808.97C762.56,-808.59 121.66,-804.01 47,-756 9.37,-731.81 0,-711.73 0,-667 0,-667 0,-667 0,-161 0,-73.68 1417.74,-28.11 1687.1,-20.24"/>
<polygon fill="black" stroke="black" points="1686.94,-23.74 1696.83,-19.95 1686.74,-16.75 1686.94,-23.74"/>
</g>
<!-- string -->
<g id="node3" class="node">
<title>string</title>
<ellipse fill="none" stroke="black" cx="630" cy="-162" rx="30.59" ry="18"/>
<text text-anchor="middle" x="630" y="-158.3" font-family="Times,serif" font-size="14.00">string</text>
</g>
<!-- vesting&#45;&gt;string -->
<g id="edge2" class="edge">
<title>vesting&#45;&gt;string</title>
<path fill="none" stroke="black" d="M923.46,-808.68C768.25,-807.05 168.28,-798.08 96,-756 55.2,-732.24 38,-714.21 38,-667 38,-667 38,-667 38,-449 38,-313.68 112.09,-274.74 234,-216 265.53,-200.81 493.49,-176.63 588.55,-167.07"/>
<polygon fill="black" stroke="black" points="588.62,-170.58 598.22,-166.11 587.92,-163.62 588.62,-170.58"/>
</g>
<!-- signer -->
<g id="node4" class="node">
<title>signer</title>
<ellipse fill="none" stroke="black" cx="310" cy="-234" rx="32.49" ry="18"/>
<text text-anchor="middle" x="310" y="-230.3" font-family="Times,serif" font-size="14.00">signer</text>
</g>
<!-- vesting&#45;&gt;signer -->
<g id="edge3" class="edge">
<title>vesting&#45;&gt;signer</title>
<path fill="none" stroke="black" d="M923.37,-808.7C792.99,-807.27 352.25,-799.28 219,-756 147.8,-732.87 76,-741.86 76,-667 76,-667 76,-667 76,-449 76,-343.66 206.73,-276.23 272.76,-248.9"/>
<polygon fill="black" stroke="black" points="273.79,-252.26 281.75,-245.27 271.17,-245.77 273.79,-252.26"/>
</g>
<!-- error -->
<g id="node5" class="node">
<title>error</title>
<ellipse fill="none" stroke="black" cx="1896" cy="-234" rx="27.9" ry="18"/>
<text text-anchor="middle" x="1896" y="-230.3" font-family="Times,serif" font-size="14.00">error</text>
</g>
<!-- vesting&#45;&gt;error -->
<g id="edge4" class="edge">
<title>vesting&#45;&gt;error</title>
<path fill="none" stroke="black" d="M996.49,-808.51C1211.18,-805.49 2302.6,-788.61 2365,-756 2408.88,-733.07 2432,-716.51 2432,-667 2432,-667 2432,-667 2432,-521 2432,-461.01 2267.86,-299.31 2247,-288 2193.69,-259.08 2014.88,-243.3 1935.05,-237.55"/>
<polygon fill="black" stroke="black" points="1935.75,-234.09 1925.53,-236.88 1935.26,-241.07 1935.75,-234.09"/>
</g>
<!-- system_addresses -->
<g id="node6" class="node">
<title>system_addresses</title>
<ellipse fill="none" stroke="black" cx="1259" cy="-306" rx="73.39" ry="18"/>
<text text-anchor="middle" x="1259" y="-302.3" font-family="Times,serif" font-size="14.00">system_addresses</text>
</g>
<!-- vesting&#45;&gt;system_addresses -->
<g id="edge5" class="edge">
<title>vesting&#45;&gt;system_addresses</title>
<path fill="none" stroke="black" d="M995.13,-804.65C1048.85,-797.49 1154.3,-781.44 1241,-756 1486.66,-683.92 1631.88,-752.27 1775,-540 1783.94,-526.73 1785.55,-516.03 1775,-504 1734.81,-458.15 1560.12,-489.33 1503,-468 1416.18,-435.58 1329.08,-367.49 1286.26,-331.12"/>
<polygon fill="black" stroke="black" points="1288.58,-328.5 1278.72,-324.64 1284.02,-333.81 1288.58,-328.5"/>
</g>
<!-- bcs -->
<g id="node7" class="node">
<title>bcs</title>
<ellipse fill="none" stroke="black" cx="839" cy="-234" rx="27" ry="18"/>
<text text-anchor="middle" x="839" y="-230.3" font-family="Times,serif" font-size="14.00">bcs</text>
</g>
<!-- vesting&#45;&gt;bcs -->
<g id="edge6" class="edge">
<title>vesting&#45;&gt;bcs</title>
<path fill="none" stroke="black" d="M923.47,-808.88C803.23,-808.06 421.01,-801.82 308,-756 250.36,-732.63 200,-729.2 200,-667 200,-667 200,-667 200,-521 200,-377.04 295.31,-350.47 425,-288 577.04,-214.76 640.27,-296.7 803,-252 804.62,-251.55 806.27,-251.04 807.91,-250.47"/>
<polygon fill="black" stroke="black" points="809.18,-253.73 817.13,-246.73 806.55,-247.25 809.18,-253.73"/>
</g>
<!-- event -->
<g id="node8" class="node">
<title>event</title>
<ellipse fill="none" stroke="black" cx="438" cy="-378" rx="29.8" ry="18"/>
<text text-anchor="middle" x="438" y="-374.3" font-family="Times,serif" font-size="14.00">event</text>
</g>
<!-- vesting&#45;&gt;event -->
<g id="edge7" class="edge">
<title>vesting&#45;&gt;event</title>
<path fill="none" stroke="black" d="M923.71,-809.28C782.3,-809.41 276,-800.56 276,-667 276,-667 276,-667 276,-521 276,-454.38 354.43,-411.72 402.15,-391.93"/>
<polygon fill="black" stroke="black" points="403.29,-395.24 411.28,-388.28 400.7,-388.74 403.29,-395.24"/>
</g>
<!-- account -->
<g id="node9" class="node">
<title>account</title>
<ellipse fill="none" stroke="black" cx="830" cy="-450" rx="38.19" ry="18"/>
<text text-anchor="middle" x="830" y="-446.3" font-family="Times,serif" font-size="14.00">account</text>
</g>
<!-- vesting&#45;&gt;account -->
<g id="edge8" class="edge">
<title>vesting&#45;&gt;account</title>
<path fill="none" stroke="black" d="M923.85,-807.17C804.11,-800.14 428,-769.88 428,-667 428,-667 428,-667 428,-593 428,-518.62 675.74,-473.51 782.25,-457.55"/>
<polygon fill="black" stroke="black" points="782.73,-461.02 792.12,-456.1 781.72,-454.1 782.73,-461.02"/>
</g>
<!-- coin -->
<g id="node10" class="node">
<title>coin</title>
<ellipse fill="none" stroke="black" cx="779" cy="-522" rx="27" ry="18"/>
<text text-anchor="middle" x="779" y="-518.3" font-family="Times,serif" font-size="14.00">coin</text>
</g>
<!-- vesting&#45;&gt;coin -->
<g id="edge9" class="edge">
<title>vesting&#45;&gt;coin</title>
<path fill="none" stroke="black" d="M924.33,-805.97C887.47,-801.12 830.21,-788.54 793,-756 730.31,-701.19 715.52,-655.28 741,-576 744.46,-565.23 751,-554.8 757.7,-546.08"/>
<polygon fill="black" stroke="black" points="760.27,-548.47 763.92,-538.52 754.86,-544.02 760.27,-548.47"/>
</g>
<!-- aptos_coin -->
<g id="node11" class="node">
<title>aptos_coin</title>
<ellipse fill="none" stroke="black" cx="1240" cy="-594" rx="48.99" ry="18"/>
<text text-anchor="middle" x="1240" y="-590.3" font-family="Times,serif" font-size="14.00">aptos_coin</text>
</g>
<!-- vesting&#45;&gt;aptos_coin -->
<g id="edge10" class="edge">
<title>vesting&#45;&gt;aptos_coin</title>
<path fill="none" stroke="black" d="M996.03,-806.58C1059.48,-801.52 1187.27,-787.61 1217,-756 1250.54,-720.33 1249.2,-659.12 1244.84,-623.33"/>
<polygon fill="black" stroke="black" points="1248.35,-623.16 1243.5,-613.74 1241.41,-624.13 1248.35,-623.16"/>
</g>
<!-- aptos_account -->
<g id="node12" class="node">
<title>aptos_account</title>
<ellipse fill="none" stroke="black" cx="839" cy="-666" rx="61.19" ry="18"/>
<text text-anchor="middle" x="839" y="-662.3" font-family="Times,serif" font-size="14.00">aptos_account</text>
</g>
<!-- vesting&#45;&gt;aptos_account -->
<g id="edge11" class="edge">
<title>vesting&#45;&gt;aptos_account</title>
<path fill="none" stroke="black" d="M946.35,-792.99C925.41,-768.4 885.15,-721.16 860.32,-692.03"/>
<polygon fill="black" stroke="black" points="863.29,-690.11 854.14,-684.76 857.96,-694.65 863.29,-690.11"/>
</g>
<!-- timestamp -->
<g id="node13" class="node">
<title>timestamp</title>
<ellipse fill="none" stroke="black" cx="1946" cy="-522" rx="48.19" ry="18"/>
<text text-anchor="middle" x="1946" y="-518.3" font-family="Times,serif" font-size="14.00">timestamp</text>
</g>
<!-- vesting&#45;&gt;timestamp -->
<g id="edge12" class="edge">
<title>vesting&#45;&gt;timestamp</title>
<path fill="none" stroke="black" d="M996.48,-808.88C1199.49,-808.03 2182.32,-801.55 2226,-756 2259.22,-721.36 2249.17,-690.04 2226,-648 2182.06,-568.28 2071.91,-539.29 2003.6,-528.83"/>
<polygon fill="black" stroke="black" points="2004.49,-525.42 1994.09,-527.46 2003.49,-532.35 2004.49,-525.42"/>
</g>
<!-- simple_map -->
<g id="node14" class="node">
<title>simple_map</title>
<ellipse fill="none" stroke="black" cx="2220" cy="-378" rx="54.69" ry="18"/>
<text text-anchor="middle" x="2220" y="-374.3" font-family="Times,serif" font-size="14.00">simple_map</text>
</g>
<!-- vesting&#45;&gt;simple_map -->
<g id="edge13" class="edge">
<title>vesting&#45;&gt;simple_map</title>
<path fill="none" stroke="black" d="M996.5,-808.91C1201.85,-808.21 2205.43,-802.44 2250,-756 2343.22,-658.88 2267.87,-475.5 2234.18,-406.33"/>
<polygon fill="black" stroke="black" points="2237.42,-404.99 2229.84,-397.6 2231.15,-408.11 2237.42,-404.99"/>
</g>
<!-- math64 -->
<g id="node15" class="node">
<title>math64</title>
<ellipse fill="none" stroke="black" cx="831" cy="-594" rx="37.89" ry="18"/>
<text text-anchor="middle" x="831" y="-590.3" font-family="Times,serif" font-size="14.00">math64</text>
</g>
<!-- vesting&#45;&gt;math64 -->
<g id="edge14" class="edge">
<title>vesting&#45;&gt;math64</title>
<path fill="none" stroke="black" d="M929.95,-799.61C885.37,-783.86 803.3,-747.45 769,-684 761.39,-669.93 762.3,-662.53 769,-648 775.11,-634.74 786.36,-623.56 797.61,-614.94"/>
<polygon fill="black" stroke="black" points="799.59,-617.83 805.72,-609.18 795.54,-612.12 799.59,-617.83"/>
</g>
<!-- stake -->
<g id="node16" class="node">
<title>stake</title>
<ellipse fill="none" stroke="black" cx="1139" cy="-666" rx="28.7" ry="18"/>
<text text-anchor="middle" x="1139" y="-662.3" font-family="Times,serif" font-size="14.00">stake</text>
</g>
<!-- vesting&#45;&gt;stake -->
<g id="edge15" class="edge">
<title>vesting&#45;&gt;stake</title>
<path fill="none" stroke="black" d="M976.25,-793.54C995.77,-775.24 1029.79,-744.2 1061,-720 1076.71,-707.82 1095.06,-695.27 1110.01,-685.45"/>
<polygon fill="black" stroke="black" points="1111.55,-688.62 1118.02,-680.24 1107.73,-682.76 1111.55,-688.62"/>
</g>
<!-- pool_u64 -->
<g id="node17" class="node">
<title>pool_u64</title>
<ellipse fill="none" stroke="black" cx="2322" cy="-450" rx="44.39" ry="18"/>
<text text-anchor="middle" x="2322" y="-446.3" font-family="Times,serif" font-size="14.00">pool_u64</text>
</g>
<!-- vesting&#45;&gt;pool_u64 -->
<g id="edge16" class="edge">
<title>vesting&#45;&gt;pool_u64</title>
<path fill="none" stroke="black" d="M996.57,-809.01C1210.51,-808.89 2292.07,-805.8 2340,-756 2413.23,-679.9 2361.66,-537.68 2335.12,-478.22"/>
<polygon fill="black" stroke="black" points="2338.47,-477.13 2331.12,-469.49 2332.11,-480.04 2338.47,-477.13"/>
</g>
<!-- staking_contract -->
<g id="node18" class="node">
<title>staking_contract</title>
<ellipse fill="none" stroke="black" cx="1139" cy="-738" rx="68.79" ry="18"/>
<text text-anchor="middle" x="1139" y="-734.3" font-family="Times,serif" font-size="14.00">staking_contract</text>
</g>
<!-- vesting&#45;&gt;staking_contract -->
<g id="edge17" class="edge">
<title>vesting&#45;&gt;staking_contract</title>
<path fill="none" stroke="black" d="M987.97,-798.06C1015.65,-787.24 1058.55,-770.46 1091.57,-757.55"/>
<polygon fill="black" stroke="black" points="1092.46,-760.96 1100.5,-754.06 1089.91,-754.44 1092.46,-760.96"/>
</g>
<!-- fixed_point32 -->
<g id="node19" class="node">
<title>fixed_point32</title>
<ellipse fill="none" stroke="black" cx="2520" cy="-738" rx="59.59" ry="18"/>
<text text-anchor="middle" x="2520" y="-734.3" font-family="Times,serif" font-size="14.00">fixed_point32</text>
</g>
<!-- vesting&#45;&gt;fixed_point32 -->
<g id="edge18" class="edge">
<title>vesting&#45;&gt;fixed_point32</title>
<path fill="none" stroke="black" d="M996.65,-808.64C1196.15,-806.52 2153.1,-794.51 2446,-756 2452.13,-755.19 2458.49,-754.11 2464.8,-752.89"/>
<polygon fill="black" stroke="black" points="2465.48,-756.32 2474.55,-750.85 2464.05,-749.47 2465.48,-756.32"/>
</g>
<!-- string&#45;&gt;vector -->
<g id="edge19" class="edge">
<title>string&#45;&gt;vector</title>
<path fill="none" stroke="black" d="M654.47,-150.75C661.05,-148.27 668.22,-145.81 675,-144 1057.86,-41.53 1541.24,-23.02 1687.28,-19.71"/>
<polygon fill="black" stroke="black" points="1686.96,-23.22 1696.88,-19.51 1686.81,-16.22 1686.96,-23.22"/>
</g>
<!-- option -->
<g id="node20" class="node">
<title>option</title>
<ellipse fill="none" stroke="black" cx="1158" cy="-90" rx="33.29" ry="18"/>
<text text-anchor="middle" x="1158" y="-86.3" font-family="Times,serif" font-size="14.00">option</text>
</g>
<!-- string&#45;&gt;option -->
<g id="edge20" class="edge">
<title>string&#45;&gt;option</title>
<path fill="none" stroke="black" d="M653.94,-150.68C660.65,-148.14 668.02,-145.67 675,-144 833.07,-106.11 1026.82,-95.23 1112.99,-92.17"/>
<polygon fill="black" stroke="black" points="1113.03,-95.67 1122.91,-91.84 1112.79,-88.67 1113.03,-95.67"/>
</g>
<!-- system_addresses&#45;&gt;signer -->
<g id="edge21" class="edge">
<title>system_addresses&#45;&gt;signer</title>
<path fill="none" stroke="black" d="M1189.6,-299.88C1004.7,-286.24 504.04,-249.31 353.43,-238.2"/>
<polygon fill="black" stroke="black" points="354.13,-234.75 343.9,-237.5 353.61,-241.73 354.13,-234.75"/>
</g>
<!-- system_addresses&#45;&gt;error -->
<g id="edge22" class="edge">
<title>system_addresses&#45;&gt;error</title>
<path fill="none" stroke="black" d="M1311.78,-293.17C1321.47,-291.26 1331.51,-289.43 1341,-288 1533.35,-258.97 1765.75,-242.85 1856.76,-237.27"/>
<polygon fill="black" stroke="black" points="1856.87,-240.77 1866.64,-236.67 1856.45,-233.78 1856.87,-240.77"/>
</g>
<!-- event&#45;&gt;bcs -->
<g id="edge23" class="edge">
<title>event&#45;&gt;bcs</title>
<path fill="none" stroke="black" d="M433.15,-360.05C428.57,-340.02 424.81,-307 443,-288 498.6,-229.93 725.52,-273.48 803,-252 804.62,-251.55 806.26,-251.03 807.9,-250.46"/>
<polygon fill="black" stroke="black" points="809.18,-253.72 817.12,-246.71 806.54,-247.24 809.18,-253.72"/>
</g>
<!-- guid -->
<g id="node21" class="node">
<title>guid</title>
<ellipse fill="none" stroke="black" cx="479" cy="-306" rx="27" ry="18"/>
<text text-anchor="middle" x="479" y="-302.3" font-family="Times,serif" font-size="14.00">guid</text>
</g>
<!-- event&#45;&gt;guid -->
<g id="edge24" class="edge">
<title>event&#45;&gt;guid</title>
<path fill="none" stroke="black" d="M447.51,-360.76C452.37,-352.46 458.41,-342.15 463.89,-332.79"/>
<polygon fill="black" stroke="black" points="466.74,-334.85 468.78,-324.45 460.7,-331.31 466.74,-334.85"/>
</g>
<!-- account&#45;&gt;vector -->
<g id="edge25" class="edge">
<title>account&#45;&gt;vector</title>
<path fill="none" stroke="black" d="M792.48,-446.19C755.93,-441.52 701.03,-429.09 667,-396 583.04,-314.36 519.57,-237.57 590,-144 659.53,-51.62 726.04,-91.55 840,-72 1005.78,-43.56 1531.15,-25.24 1687,-20.33"/>
<polygon fill="black" stroke="black" points="1687.02,-23.83 1696.91,-20.02 1686.8,-16.83 1687.02,-23.83"/>
</g>
<!-- account&#45;&gt;signer -->
<g id="edge29" class="edge">
<title>account&#45;&gt;signer</title>
<path fill="none" stroke="black" d="M795.79,-441.79C747.43,-431.24 661.83,-411.22 634,-396 571.34,-361.72 577.85,-321.93 515,-288 463.29,-260.09 396.23,-246.37 353.15,-240"/>
<polygon fill="black" stroke="black" points="353.83,-236.56 343.44,-238.64 352.86,-243.49 353.83,-236.56"/>
</g>
<!-- account&#45;&gt;error -->
<g id="edge30" class="edge">
<title>account&#45;&gt;error</title>
<path fill="none" stroke="black" d="M868.52,-449.43C1020.27,-450.73 1571.04,-451.55 1623,-396 1633.93,-384.32 1632.71,-372.72 1623,-360 1586.09,-311.67 1527.91,-372.33 1491,-324 1481.29,-311.28 1480.45,-300.03 1491,-288 1514.94,-260.72 1759.57,-243.18 1856.63,-237.25"/>
<polygon fill="black" stroke="black" points="1856.69,-240.75 1866.47,-236.65 1856.27,-233.76 1856.69,-240.75"/>
</g>
<!-- account&#45;&gt;system_addresses -->
<g id="edge31" class="edge">
<title>account&#45;&gt;system_addresses</title>
<path fill="none" stroke="black" d="M868.15,-448.33C928.65,-446.01 1049.26,-436.23 1142,-396 1144.47,-394.93 1194.46,-356.65 1228.29,-330.64"/>
<polygon fill="black" stroke="black" points="1230.36,-333.47 1236.15,-324.6 1226.09,-327.92 1230.36,-333.47"/>
</g>
<!-- account&#45;&gt;bcs -->
<g id="edge33" class="edge">
<title>account&#45;&gt;bcs</title>
<path fill="none" stroke="black" d="M830.72,-431.85C832.26,-395.14 835.9,-308.66 837.8,-263.53"/>
<polygon fill="black" stroke="black" points="841.29,-263.88 838.21,-253.74 834.29,-263.59 841.29,-263.88"/>
</g>
<!-- account&#45;&gt;event -->
<g id="edge38" class="edge">
<title>account&#45;&gt;event</title>
<path fill="none" stroke="black" d="M793.75,-443.94C710.76,-432.27 511.79,-403.92 482,-396 478.88,-395.17 475.69,-394.2 472.5,-393.14"/>
<polygon fill="black" stroke="black" points="473.91,-389.92 463.32,-389.83 471.54,-396.51 473.91,-389.92"/>
</g>
<!-- account&#45;&gt;option -->
<g id="edge26" class="edge">
<title>account&#45;&gt;option</title>
<path fill="none" stroke="black" d="M867.72,-446.28C932.03,-440.85 1058.94,-426.5 1090,-396 1166.6,-320.79 1165.41,-179.63 1160.92,-119.4"/>
<polygon fill="black" stroke="black" points="1164.43,-119.33 1160.1,-109.66 1157.45,-119.92 1164.43,-119.33"/>
</g>
<!-- account&#45;&gt;guid -->
<g id="edge36" class="edge">
<title>account&#45;&gt;guid</title>
<path fill="none" stroke="black" d="M793,-444.77C728.3,-436.88 597.69,-418.66 558,-396 531.17,-380.69 508.73,-352.9 494.7,-332.43"/>
<polygon fill="black" stroke="black" points="497.78,-330.74 489.35,-324.32 491.94,-334.6 497.78,-330.74"/>
</g>
<!-- type_info -->
<g id="node22" class="node">
<title>type_info</title>
<ellipse fill="none" stroke="black" cx="750" cy="-234" rx="44.39" ry="18"/>
<text text-anchor="middle" x="750" y="-230.3" font-family="Times,serif" font-size="14.00">type_info</text>
</g>
<!-- account&#45;&gt;type_info -->
<g id="edge27" class="edge">
<title>account&#45;&gt;type_info</title>
<path fill="none" stroke="black" d="M823.59,-431.85C809.81,-394.99 777.26,-307.92 760.45,-262.96"/>
<polygon fill="black" stroke="black" points="763.75,-261.79 756.97,-253.65 757.2,-264.24 763.75,-261.79"/>
</g>
<!-- table -->
<g id="node23" class="node">
<title>table</title>
<ellipse fill="none" stroke="black" cx="1378" cy="-306" rx="27.9" ry="18"/>
<text text-anchor="middle" x="1378" y="-302.3" font-family="Times,serif" font-size="14.00">table</text>
</g>
<!-- account&#45;&gt;table -->
<g id="edge28" class="edge">
<title>account&#45;&gt;table</title>
<path fill="none" stroke="black" d="M867.9,-446.57C932.76,-441.69 1068.71,-428.25 1179,-396 1241.09,-377.84 1308.98,-344.26 1347.25,-323.94"/>
<polygon fill="black" stroke="black" points="1348.74,-327.11 1355.89,-319.3 1345.43,-320.94 1348.74,-327.11"/>
</g>
<!-- hash -->
<g id="node24" class="node">
<title>hash</title>
<ellipse fill="none" stroke="black" cx="1006" cy="-234" rx="27" ry="18"/>
<text text-anchor="middle" x="1006" y="-230.3" font-family="Times,serif" font-size="14.00">hash</text>
</g>
<!-- account&#45;&gt;hash -->
<g id="edge32" class="edge">
<title>account&#45;&gt;hash</title>
<path fill="none" stroke="black" d="M867.62,-446.33C928.88,-441.11 1045.9,-427.22 1071,-396 1105.16,-353.52 1058.62,-290.71 1028.35,-257.5"/>
<polygon fill="black" stroke="black" points="1031.13,-255.34 1021.73,-250.44 1026.02,-260.13 1031.13,-255.34"/>
</g>
<!-- ed25519 -->
<g id="node25" class="node">
<title>ed25519</title>
<ellipse fill="none" stroke="black" cx="937" cy="-306" rx="40.89" ry="18"/>
<text text-anchor="middle" x="937" y="-302.3" font-family="Times,serif" font-size="14.00">ed25519</text>
</g>
<!-- account&#45;&gt;ed25519 -->
<g id="edge34" class="edge">
<title>account&#45;&gt;ed25519</title>
<path fill="none" stroke="black" d="M842.27,-432.71C860.72,-408.23 895.75,-361.74 917.66,-332.67"/>
<polygon fill="black" stroke="black" points="920.41,-334.84 923.63,-324.75 914.82,-330.63 920.41,-334.84"/>
</g>
<!-- multi_ed25519 -->
<g id="node26" class="node">
<title>multi_ed25519</title>
<ellipse fill="none" stroke="black" cx="998" cy="-378" rx="64.19" ry="18"/>
<text text-anchor="middle" x="998" y="-374.3" font-family="Times,serif" font-size="14.00">multi_ed25519</text>
</g>
<!-- account&#45;&gt;multi_ed25519 -->
<g id="edge35" class="edge">
<title>account&#45;&gt;multi_ed25519</title>
<path fill="none" stroke="black" d="M857.74,-437.44C883.59,-426.67 922.58,-410.43 952.9,-397.79"/>
<polygon fill="black" stroke="black" points="953.94,-401.15 961.83,-394.07 951.25,-394.69 953.94,-401.15"/>
</g>
<!-- from_bcs -->
<g id="node27" class="node">
<title>from_bcs</title>
<ellipse fill="none" stroke="black" cx="720" cy="-378" rx="44.39" ry="18"/>
<text text-anchor="middle" x="720" y="-374.3" font-family="Times,serif" font-size="14.00">from_bcs</text>
</g>
<!-- account&#45;&gt;from_bcs -->
<g id="edge37" class="edge">
<title>account&#45;&gt;from_bcs</title>
<path fill="none" stroke="black" d="M808,-435C792.13,-424.9 770.45,-411.1 752.57,-399.73"/>
<polygon fill="black" stroke="black" points="754.69,-396.93 744.37,-394.51 750.93,-402.83 754.69,-396.93"/>
</g>
<!-- coin&#45;&gt;string -->
<g id="edge40" class="edge">
<title>coin&#45;&gt;string</title>
<path fill="none" stroke="black" d="M757.25,-510.7C751.14,-508.16 744.41,-505.69 738,-504 610.7,-470.48 563.8,-522.56 444,-468 422.23,-458.09 422.32,-447.38 404,-432 384.12,-415.31 375.32,-415.34 358,-396 307.82,-339.94 289.56,-324.37 269,-252 264.63,-236.61 258.35,-227.94 269,-216 316.06,-163.27 516.3,-196.62 585,-180 588.38,-179.18 591.85,-178.18 595.3,-177.08"/>
<polygon fill="black" stroke="black" points="596.35,-180.41 604.63,-173.8 594.04,-173.81 596.35,-180.41"/>
</g>
<!-- coin&#45;&gt;signer -->
<g id="edge42" class="edge">
<title>coin&#45;&gt;signer</title>
<path fill="none" stroke="black" d="M757.2,-510.87C751.09,-508.33 744.37,-505.82 738,-504 642.72,-476.85 611.55,-500.63 518,-468 502.5,-462.59 400.3,-407.91 389,-396 352.14,-357.13 329.14,-297.79 318.02,-263.05"/>
<polygon fill="black" stroke="black" points="321.44,-262.25 315.15,-253.72 314.75,-264.31 321.44,-262.25"/>
</g>
<!-- coin&#45;&gt;error -->
<g id="edge43" class="edge">
<title>coin&#45;&gt;error</title>
<path fill="none" stroke="black" d="M806.29,-520.05C964.05,-514.53 1752.93,-486 1770,-468 1781.01,-456.39 1772.36,-447.82 1770,-432 1765.06,-398.91 1762.32,-390.24 1748,-360 1739.77,-342.62 1729.57,-342.4 1724,-324 1719.36,-308.69 1714.5,-300.87 1724,-288 1754.24,-247.05 1815.65,-236.75 1856.31,-234.68"/>
<polygon fill="black" stroke="black" points="1856.31,-238.18 1866.18,-234.34 1856.07,-231.19 1856.31,-238.18"/>
</g>
<!-- coin&#45;&gt;system_addresses -->
<g id="edge44" class="edge">
<title>coin&#45;&gt;system_addresses</title>
<path fill="none" stroke="black" d="M805.36,-517.69C872.49,-508.26 1053.49,-476.58 1179,-396 1204.39,-379.7 1226.72,-353.25 1241.29,-333.41"/>
<polygon fill="black" stroke="black" points="1243.97,-335.69 1246.92,-325.51 1238.27,-331.62 1243.97,-335.69"/>
</g>
<!-- coin&#45;&gt;event -->
<g id="edge45" class="edge">
<title>coin&#45;&gt;event</title>
<path fill="none" stroke="black" d="M761.74,-507.71C729.88,-483.21 664.81,-433.27 662,-432 587.63,-398.45 560.34,-418.78 482,-396 478.9,-395.1 475.72,-394.07 472.55,-392.98"/>
<polygon fill="black" stroke="black" points="473.97,-389.78 463.37,-389.63 471.56,-396.35 473.97,-389.78"/>
</g>
<!-- coin&#45;&gt;account -->
<g id="edge46" class="edge">
<title>coin&#45;&gt;account</title>
<path fill="none" stroke="black" d="M790.32,-505.46C796.48,-497.01 804.26,-486.32 811.3,-476.66"/>
<polygon fill="black" stroke="black" points="814.05,-478.83 817.11,-468.69 808.39,-474.71 814.05,-478.83"/>
</g>
<!-- coin&#45;&gt;option -->
<g id="edge39" class="edge">
<title>coin&#45;&gt;option</title>
<path fill="none" stroke="black" d="M765.76,-506.29C736.19,-473.43 667.33,-396.85 667,-396 646.93,-343.52 658.25,-257.13 697,-216 754.77,-154.69 1011.21,-111.96 1114.59,-96.94"/>
<polygon fill="black" stroke="black" points="1114.94,-100.43 1124.34,-95.54 1113.94,-93.5 1114.94,-100.43"/>
</g>
<!-- coin&#45;&gt;type_info -->
<g id="edge41" class="edge">
<title>coin&#45;&gt;type_info</title>
<path fill="none" stroke="black" d="M756.57,-511.33C750.57,-508.85 744.07,-506.25 738,-504 641.52,-468.27 616.13,-462.9 518,-432 465.29,-415.41 431.93,-440.37 399,-396 378.12,-367.88 420.71,-291.56 425,-288 465.08,-254.72 612.78,-241.97 694.58,-237.38"/>
<polygon fill="black" stroke="black" points="694.6,-240.88 704.4,-236.85 694.22,-233.89 694.6,-240.88"/>
</g>
<!-- optional_aggregator -->
<g id="node28" class="node">
<title>optional_aggregator</title>
<ellipse fill="none" stroke="black" cx="1680" cy="-450" rx="81.49" ry="18"/>
<text text-anchor="middle" x="1680" y="-446.3" font-family="Times,serif" font-size="14.00">optional_aggregator</text>
</g>
<!-- coin&#45;&gt;optional_aggregator -->
<g id="edge47" class="edge">
<title>coin&#45;&gt;optional_aggregator</title>
<path fill="none" stroke="black" d="M805.97,-518.91C923.67,-509.76 1395.34,-473.12 1592.59,-457.79"/>
<polygon fill="black" stroke="black" points="1592.84,-461.28 1602.54,-457.02 1592.3,-454.3 1592.84,-461.28"/>
</g>
<!-- aptos_coin&#45;&gt;vector -->
<g id="edge48" class="edge">
<title>aptos_coin&#45;&gt;vector</title>
<path fill="none" stroke="black" d="M1288.92,-591.8C1447.3,-587.6 1939.48,-572.09 2003,-540 2014.71,-534.08 2145.72,-368.16 2156,-360 2183.41,-338.26 2207.78,-353.86 2226,-324 2339.15,-138.57 1912.27,-49.37 1773.33,-25.64"/>
<polygon fill="black" stroke="black" points="1774.25,-22.25 1763.81,-24.05 1773.09,-29.15 1774.25,-22.25"/>
</g>
<!-- aptos_coin&#45;&gt;string -->
<g id="edge50" class="edge">
<title>aptos_coin&#45;&gt;string</title>
<path fill="none" stroke="black" d="M1192.03,-589.75C1035.96,-578.59 544.6,-538.53 404,-468 360.65,-446.26 353.41,-432.96 322,-396 267.11,-331.42 202.45,-279.14 259,-216 307.63,-161.71 514.13,-197.01 585,-180 588.38,-179.19 591.86,-178.19 595.3,-177.09"/>
<polygon fill="black" stroke="black" points="596.36,-180.43 604.63,-173.82 594.04,-173.82 596.36,-180.43"/>
</g>
<!-- aptos_coin&#45;&gt;signer -->
<g id="edge51" class="edge">
<title>aptos_coin&#45;&gt;signer</title>
<path fill="none" stroke="black" d="M1214.05,-578.32C1144.31,-539.26 946.39,-430.91 773,-360 676.99,-320.74 651.1,-315.17 551,-288 481.87,-269.24 400.23,-252.37 351.91,-242.93"/>
<polygon fill="black" stroke="black" points="352.64,-239.51 342.15,-241.04 351.3,-246.38 352.64,-239.51"/>
</g>
<!-- aptos_coin&#45;&gt;error -->
<g id="edge52" class="edge">
<title>aptos_coin&#45;&gt;error</title>
<path fill="none" stroke="black" d="M1279.8,-583.14C1350.31,-565.85 1501.91,-529.48 1631,-504 1678.53,-494.62 1810.96,-501.46 1846,-468 1902.41,-414.14 1902.85,-313.25 1899.17,-263.8"/>
<polygon fill="black" stroke="black" points="1902.66,-263.57 1898.3,-253.91 1895.69,-264.17 1902.66,-263.57"/>
</g>
<!-- aptos_coin&#45;&gt;system_addresses -->
<g id="edge53" class="edge">
<title>aptos_coin&#45;&gt;system_addresses</title>
<path fill="none" stroke="black" d="M1242.82,-575.67C1246.61,-551.59 1253.18,-506.62 1256,-468 1259.38,-421.77 1259.64,-367.88 1259.4,-335.65"/>
<polygon fill="black" stroke="black" points="1262.91,-335.9 1259.31,-325.93 1255.91,-335.97 1262.91,-335.9"/>
</g>
<!-- aptos_coin&#45;&gt;coin -->
<g id="edge54" class="edge">
<title>aptos_coin&#45;&gt;coin</title>
<path fill="none" stroke="black" d="M1195.38,-586.22C1104.83,-572.48 900.96,-541.52 816.62,-528.71"/>
<polygon fill="black" stroke="black" points="817.22,-525.26 806.8,-527.22 816.17,-532.18 817.22,-525.26"/>
</g>
<!-- aptos_coin&#45;&gt;option -->
<g id="edge49" class="edge">
<title>aptos_coin&#45;&gt;option</title>
<path fill="none" stroke="black" d="M1288.49,-590.65C1402.48,-584.74 1684.65,-567.7 1775,-540 1926.96,-493.42 1938.58,-424.14 2084,-360 2136.9,-336.67 2174.23,-370.19 2209,-324 2218.62,-311.22 2218.34,-300.99 2209,-288 2088.88,-120.85 1388.23,-95.46 1202.94,-91.66"/>
<polygon fill="black" stroke="black" points="1203.07,-88.16 1193,-91.47 1202.93,-95.16 1203.07,-88.16"/>
</g>
<!-- aptos_account&#45;&gt;error -->
<g id="edge55" class="edge">
<title>aptos_account&#45;&gt;error</title>
<path fill="none" stroke="black" d="M883.95,-653.33C949.48,-636.32 1075.1,-603.71 1182,-576 1305.55,-543.97 1334.47,-527.06 1460,-504 1531.68,-490.83 1737.37,-522.29 1786,-468 1796.67,-456.08 1787.85,-447.89 1786,-432 1782.2,-399.34 1777.99,-391.63 1769,-360 1764.39,-343.78 1759.7,-340.65 1757,-324 1754.44,-308.21 1747.92,-301.18 1757,-288 1779.28,-255.66 1824.14,-243.04 1856.89,-238.12"/>
<polygon fill="black" stroke="black" points="1856.95,-241.64 1866.41,-236.88 1856.04,-234.7 1856.95,-241.64"/>
</g>
<!-- aptos_account&#45;&gt;account -->
<g id="edge56" class="edge">
<title>aptos_account&#45;&gt;account</title>
<path fill="none" stroke="black" d="M795.47,-652.9C775.16,-644.83 752.88,-631.94 741,-612 733.15,-598.82 730.4,-525.73 743,-504 753.24,-486.35 771.92,-473.85 789.35,-465.43"/>
<polygon fill="black" stroke="black" points="790.31,-468.84 798.01,-461.56 787.45,-462.45 790.31,-468.84"/>
</g>
<!-- aptos_account&#45;&gt;coin -->
<g id="edge57" class="edge">
<title>aptos_account&#45;&gt;coin</title>
<path fill="none" stroke="black" d="M799.8,-651.79C781.52,-643.44 761.53,-630.63 751,-612 739.57,-591.77 749.74,-566.27 760.89,-547.76"/>
<polygon fill="black" stroke="black" points="763.72,-549.83 766.23,-539.54 757.85,-546.01 763.72,-549.83"/>
</g>
<!-- aptos_account&#45;&gt;aptos_coin -->
<g id="edge58" class="edge">
<title>aptos_account&#45;&gt;aptos_coin</title>
<path fill="none" stroke="black" d="M890.6,-655.99C966.51,-642.74 1107.65,-618.1 1185.29,-604.55"/>
<polygon fill="black" stroke="black" points="1185.53,-608.06 1194.78,-602.89 1184.33,-601.17 1185.53,-608.06"/>
</g>
<!-- timestamp&#45;&gt;error -->
<g id="edge59" class="edge">
<title>timestamp&#45;&gt;error</title>
<path fill="none" stroke="black" d="M1955.91,-504.18C1978.21,-463.95 2027.25,-360.16 1986,-288 1982.59,-282.04 1951.75,-264.6 1927.1,-251.34"/>
<polygon fill="black" stroke="black" points="1928.83,-248.29 1918.36,-246.67 1925.53,-254.46 1928.83,-248.29"/>
</g>
<!-- timestamp&#45;&gt;system_addresses -->
<g id="edge60" class="edge">
<title>timestamp&#45;&gt;system_addresses</title>
<path fill="none" stroke="black" d="M1900.96,-515.14C1811.84,-503.42 1619.1,-477.41 1590,-468 1523.8,-446.59 1508.91,-434.56 1451,-396 1430.25,-382.19 1429.64,-372.37 1408,-360 1380.33,-344.18 1347.11,-331.81 1319.07,-323.01"/>
<polygon fill="black" stroke="black" points="1320.24,-319.71 1309.65,-320.14 1318.2,-326.4 1320.24,-319.71"/>
</g>
<!-- simple_map&#45;&gt;error -->
<g id="edge62" class="edge">
<title>simple_map&#45;&gt;error</title>
<path fill="none" stroke="black" d="M2185.05,-363.73C2161.59,-354.16 2130.45,-340.11 2105,-324 2083.94,-310.67 2083.84,-300.02 2062,-288 2020.8,-265.33 1968.44,-250.65 1933.65,-242.62"/>
<polygon fill="black" stroke="black" points="1934.57,-239.24 1924.05,-240.47 1933.05,-246.07 1934.57,-239.24"/>
</g>
<!-- simple_map&#45;&gt;option -->
<g id="edge61" class="edge">
<title>simple_map&#45;&gt;option</title>
<path fill="none" stroke="black" d="M2229.27,-359.81C2251.02,-316.89 2299.3,-204.17 2242,-144 2205.61,-105.79 1402.7,-93.87 1202.77,-91.49"/>
<polygon fill="black" stroke="black" points="1203.11,-87.99 1193.07,-91.37 1203.03,-94.99 1203.11,-87.99"/>
</g>
<!-- comparator -->
<g id="node29" class="node">
<title>comparator</title>
<ellipse fill="none" stroke="black" cx="1817" cy="-306" rx="51.19" ry="18"/>
<text text-anchor="middle" x="1817" y="-302.3" font-family="Times,serif" font-size="14.00">comparator</text>
</g>
<!-- simple_map&#45;&gt;comparator -->
<g id="edge63" class="edge">
<title>simple_map&#45;&gt;comparator</title>
<path fill="none" stroke="black" d="M2172.59,-368.76C2097.92,-355.8 1953.24,-330.66 1873.37,-316.79"/>
<polygon fill="black" stroke="black" points="1874.02,-313.35 1863.56,-315.09 1872.82,-320.25 1874.02,-313.35"/>
</g>
<!-- stake&#45;&gt;vector -->
<g id="edge64" class="edge">
<title>stake&#45;&gt;vector</title>
<path fill="none" stroke="black" d="M1167.84,-664.44C1290.35,-661.85 1767.92,-649.49 1913,-612 2048.59,-576.97 2418,-375.04 2418,-235 2418,-235 2418,-235 2418,-161 2418,-29.1 1926.16,-18.74 1774.8,-18.68"/>
<polygon fill="black" stroke="black" points="1775.18,-15.18 1765.19,-18.69 1775.19,-22.18 1775.18,-15.18"/>
</g>
<!-- stake&#45;&gt;signer -->
<g id="edge66" class="edge">
<title>stake&#45;&gt;signer</title>
<path fill="none" stroke="black" d="M1111.96,-659.24C1080.35,-651.7 1027.22,-636.49 987,-612 967.13,-599.9 970.06,-585.89 949,-576 828.26,-519.26 780.97,-570.09 651,-540 556.1,-518.03 528.73,-516.05 444,-468 371.28,-426.76 347.6,-403.89 323,-324 316.95,-304.36 313.68,-281.38 311.94,-263.7"/>
<polygon fill="black" stroke="black" points="315.44,-263.58 311.09,-253.92 308.47,-264.18 315.44,-263.58"/>
</g>
<!-- stake&#45;&gt;error -->
<g id="edge67" class="edge">
<title>stake&#45;&gt;error</title>
<path fill="none" stroke="black" d="M1167.43,-662.11C1294.61,-648.54 1809.52,-586.86 1908,-468 1959.32,-406.06 1950.19,-365.03 1927,-288 1924.12,-278.42 1919.18,-268.74 1914.09,-260.33"/>
<polygon fill="black" stroke="black" points="1917.11,-258.55 1908.74,-252.05 1911.22,-262.35 1917.11,-258.55"/>
</g>
<!-- stake&#45;&gt;system_addresses -->
<g id="edge68" class="edge">
<title>stake&#45;&gt;system_addresses</title>
<path fill="none" stroke="black" d="M1144.63,-648.21C1163.68,-591.38 1225.87,-405.82 1249.65,-334.9"/>
<polygon fill="black" stroke="black" points="1252.9,-336.2 1252.76,-325.6 1246.27,-333.97 1252.9,-336.2"/>
</g>
<!-- stake&#45;&gt;event -->
<g id="edge69" class="edge">
<title>stake&#45;&gt;event</title>
<path fill="none" stroke="black" d="M1121.4,-651.62C1094.18,-631.66 1039.5,-594.46 987,-576 883.59,-539.64 847.19,-574.08 743,-540 634.74,-504.59 518.95,-432.9 466.61,-398.4"/>
<polygon fill="black" stroke="black" points="468.82,-395.67 458.56,-393.06 464.95,-401.5 468.82,-395.67"/>
</g>
<!-- stake&#45;&gt;account -->
<g id="edge70" class="edge">
<title>stake&#45;&gt;account</title>
<path fill="none" stroke="black" d="M1133,-648C1125.98,-629.36 1113.22,-599.06 1097,-576 1070.96,-538.99 1064.15,-526.7 1025,-504 979.18,-477.44 919.6,-463.77 878.41,-457.03"/>
<polygon fill="black" stroke="black" points="878.96,-453.57 868.54,-455.5 877.89,-460.49 878.96,-453.57"/>
</g>
<!-- stake&#45;&gt;coin -->
<g id="edge71" class="edge">
<title>stake&#45;&gt;coin</title>
<path fill="none" stroke="black" d="M1129.81,-648.55C1117.44,-628.05 1093.43,-593.6 1063,-576 984.56,-530.64 875.4,-522.91 817.94,-522.28"/>
<polygon fill="black" stroke="black" points="818.02,-518.78 808.01,-522.25 818,-525.78 818.02,-518.78"/>
</g>
<!-- stake&#45;&gt;aptos_coin -->
<g id="edge72" class="edge">
<title>stake&#45;&gt;aptos_coin</title>
<path fill="none" stroke="black" d="M1157.52,-652.16C1171.71,-642.33 1191.62,-628.53 1208.32,-616.96"/>
<polygon fill="black" stroke="black" points="1210.24,-619.88 1216.47,-611.31 1206.26,-614.13 1210.24,-619.88"/>
</g>
<!-- stake&#45;&gt;timestamp -->
<g id="edge73" class="edge">
<title>stake&#45;&gt;timestamp</title>
<path fill="none" stroke="black" d="M1168.03,-664.43C1249.51,-662.34 1486.9,-652.9 1679,-612 1760.65,-594.61 1852.24,-560.8 1904.13,-540.22"/>
<polygon fill="black" stroke="black" points="1905.19,-543.56 1913.18,-536.6 1902.59,-537.06 1905.19,-543.56"/>
</g>
<!-- stake&#45;&gt;math64 -->
<g id="edge75" class="edge">
<title>stake&#45;&gt;math64</title>
<path fill="none" stroke="black" d="M1112.21,-658.91C1059.33,-646.89 941.04,-620.01 876,-605.23"/>
<polygon fill="black" stroke="black" points="876.89,-601.84 866.36,-603.04 875.33,-608.67 876.89,-601.84"/>
</g>
<!-- stake&#45;&gt;option -->
<g id="edge65" class="edge">
<title>stake&#45;&gt;option</title>
<path fill="none" stroke="black" d="M1112.03,-659.25C1074.7,-650.89 1005.5,-633.96 949,-612 916.02,-599.18 911.97,-585.9 878,-576 721.08,-530.26 667.9,-589.12 512,-540 449.75,-520.39 436.27,-507.09 384,-468 279.61,-389.95 151.47,-316.89 234,-216 290.55,-146.87 936.22,-104.04 1113.32,-93.53"/>
<polygon fill="black" stroke="black" points="1113.48,-97.03 1123.26,-92.95 1113.07,-90.04 1113.48,-97.03"/>
</g>
<!-- staking_config -->
<g id="node30" class="node">
<title>staking_config</title>
<ellipse fill="none" stroke="black" cx="1703" cy="-522" rx="63.09" ry="18"/>
<text text-anchor="middle" x="1703" y="-518.3" font-family="Times,serif" font-size="14.00">staking_config</text>
</g>
<!-- stake&#45;&gt;staking_config -->
<g id="edge74" class="edge">
<title>stake&#45;&gt;staking_config</title>
<path fill="none" stroke="black" d="M1165.45,-658.34C1251.63,-636.64 1525.72,-567.63 1645.76,-537.41"/>
<polygon fill="black" stroke="black" points="1646.58,-540.82 1655.42,-534.98 1644.87,-534.03 1646.58,-540.82"/>
</g>
<!-- bls12381 -->
<g id="node31" class="node">
<title>bls12381</title>
<ellipse fill="none" stroke="black" cx="2157" cy="-306" rx="42.79" ry="18"/>
<text text-anchor="middle" x="2157" y="-302.3" font-family="Times,serif" font-size="14.00">bls12381</text>
</g>
<!-- stake&#45;&gt;bls12381 -->
<g id="edge76" class="edge">
<title>stake&#45;&gt;bls12381</title>
<path fill="none" stroke="black" d="M1167.79,-664.8C1305.62,-663.29 1897.04,-650.4 2036,-540 2103.59,-486.31 2137.4,-384.54 2150.41,-335.21"/>
<polygon fill="black" stroke="black" points="2153.79,-336.16 2152.85,-325.6 2147,-334.44 2153.79,-336.16"/>
</g>
<!-- pool_u64&#45;&gt;vector -->
<g id="edge77" class="edge">
<title>pool_u64&#45;&gt;vector</title>
<path fill="none" stroke="black" d="M2349.44,-435.55C2388.64,-414.19 2456,-368.52 2456,-307 2456,-307 2456,-307 2456,-161 2456,-120.03 2463.56,-98.12 2432,-72 2381.42,-30.14 1920.63,-21.2 1774.94,-19.42"/>
<polygon fill="black" stroke="black" points="1775.37,-15.92 1765.33,-19.31 1775.29,-22.92 1775.37,-15.92"/>
</g>
<!-- pool_u64&#45;&gt;error -->
<g id="edge78" class="edge">
<title>pool_u64&#45;&gt;error</title>
<path fill="none" stroke="black" d="M2316.98,-431.9C2310.99,-413.19 2299.76,-382.81 2284,-360 2257.73,-321.99 2250.27,-308.78 2209,-288 2118.59,-242.49 1996.8,-235 1935.19,-234.4"/>
<polygon fill="black" stroke="black" points="1935.58,-230.9 1925.57,-234.37 1935.56,-237.9 1935.58,-230.9"/>
</g>
<!-- pool_u64&#45;&gt;simple_map -->
<g id="edge79" class="edge">
<title>pool_u64&#45;&gt;simple_map</title>
<path fill="none" stroke="black" d="M2300.12,-433.98C2286.16,-424.4 2267.82,-411.82 2252.21,-401.1"/>
<polygon fill="black" stroke="black" points="2254.38,-398.35 2244.15,-395.58 2250.42,-404.12 2254.38,-398.35"/>
</g>
<!-- staking_contract&#45;&gt;vector -->
<g id="edge80" class="edge">
<title>staking_contract&#45;&gt;vector</title>
<path fill="none" stroke="black" d="M1207.81,-736.51C1425.62,-734.54 2090.78,-725.19 2178,-684 2375.7,-590.65 2494,-525.63 2494,-307 2494,-307 2494,-307 2494,-161 2494,-118.16 2491.74,-97.06 2457,-72 2401.68,-32.1 1923.28,-21.8 1774.78,-19.56"/>
<polygon fill="black" stroke="black" points="1775.02,-16.06 1764.97,-19.41 1774.92,-23.06 1775.02,-16.06"/>
</g>
<!-- staking_contract&#45;&gt;signer -->
<g id="edge81" class="edge">
<title>staking_contract&#45;&gt;signer</title>
<path fill="none" stroke="black" d="M1070.86,-734.93C915.46,-729.7 544.61,-714.19 497,-684 372.23,-604.88 388.11,-532.25 331,-396 318.16,-365.37 315.67,-356.88 311,-324 308.15,-303.96 307.96,-281.13 308.45,-263.6"/>
<polygon fill="black" stroke="black" points="311.94,-263.8 308.82,-253.67 304.95,-263.53 311.94,-263.8"/>
</g>
<!-- staking_contract&#45;&gt;error -->
<g id="edge82" class="edge">
<title>staking_contract&#45;&gt;error</title>
<path fill="none" stroke="black" d="M1194.98,-727.24C1303.59,-707.94 1550.23,-662.41 1755,-612 1866.45,-584.56 1930.94,-629.33 2003,-540 2073.32,-452.82 2070.64,-379.47 2006,-288 1984.2,-257.15 1962.91,-268.65 1929,-252 1928.4,-251.71 1927.8,-251.41 1927.2,-251.11"/>
<polygon fill="black" stroke="black" points="1929.1,-248.15 1918.59,-246.78 1925.95,-254.4 1929.1,-248.15"/>
</g>
<!-- staking_contract&#45;&gt;bcs -->
<g id="edge83" class="edge">
<title>staking_contract&#45;&gt;bcs</title>
<path fill="none" stroke="black" d="M1072.79,-732.6C981.09,-725.64 820.86,-710.15 769,-684 679.2,-638.73 610,-623.57 610,-523 610,-523 610,-523 610,-449 610,-402.03 634.78,-394.18 667,-360 710.4,-313.97 772.78,-273.55 809.27,-251.85"/>
<polygon fill="black" stroke="black" points="810.68,-255.09 817.54,-247.01 807.14,-249.05 810.68,-255.09"/>
</g>
<!-- staking_contract&#45;&gt;event -->
<g id="edge84" class="edge">
<title>staking_contract&#45;&gt;event</title>
<path fill="none" stroke="black" d="M1070.14,-736.92C898.61,-734.87 466,-717.55 466,-595 466,-595 466,-595 466,-521 466,-480.59 454.95,-434.9 446.73,-406.52"/>
<polygon fill="black" stroke="black" points="450.19,-405.86 443.97,-397.29 443.48,-407.87 450.19,-405.86"/>
</g>
<!-- staking_contract&#45;&gt;account -->
<g id="edge85" class="edge">
<title>staking_contract&#45;&gt;account</title>
<path fill="none" stroke="black" d="M1121.05,-720.39C1068.63,-671.87 915.65,-530.27 855.09,-474.23"/>
<polygon fill="black" stroke="black" points="857.68,-471.85 847.96,-467.63 852.93,-476.99 857.68,-471.85"/>
</g>
<!-- staking_contract&#45;&gt;coin -->
<g id="edge86" class="edge">
<title>staking_contract&#45;&gt;coin</title>
<path fill="none" stroke="black" d="M1100,-722.82C1071.4,-712.32 1031.68,-697.56 997,-684 957.64,-668.61 948.92,-661.87 909,-648 854.39,-629.03 820.05,-657.2 784,-612 770.64,-595.25 770.27,-570.58 772.74,-551.46"/>
<polygon fill="black" stroke="black" points="776.2,-552.04 774.37,-541.61 769.29,-550.9 776.2,-552.04"/>
</g>
<!-- staking_contract&#45;&gt;aptos_coin -->
<g id="edge87" class="edge">
<title>staking_contract&#45;&gt;aptos_coin</title>
<path fill="none" stroke="black" d="M1151.35,-719.83C1158.79,-709.47 1168.46,-695.99 1177,-684 1192.11,-662.8 1209.16,-638.69 1221.72,-620.92"/>
<polygon fill="black" stroke="black" points="1224.41,-623.18 1227.31,-612.99 1218.69,-619.14 1224.41,-623.18"/>
</g>
<!-- staking_contract&#45;&gt;simple_map -->
<g id="edge88" class="edge">
<title>staking_contract&#45;&gt;simple_map</title>
<path fill="none" stroke="black" d="M1207.5,-735.83C1409.75,-731.99 1995.16,-718.03 2074,-684 2183.09,-636.91 2210.94,-473.63 2217.83,-407.32"/>
<polygon fill="black" stroke="black" points="2221.29,-407.91 2218.74,-397.62 2214.32,-407.25 2221.29,-407.91"/>
</g>
<!-- staking_contract&#45;&gt;stake -->
<g id="edge90" class="edge">
<title>staking_contract&#45;&gt;stake</title>
<path fill="none" stroke="black" d="M1139,-719.7C1139,-712.41 1139,-703.73 1139,-695.54"/>
<polygon fill="black" stroke="black" points="1142.5,-695.62 1139,-685.62 1135.5,-695.62 1142.5,-695.62"/>
</g>
<!-- staking_contract&#45;&gt;pool_u64 -->
<g id="edge91" class="edge">
<title>staking_contract&#45;&gt;pool_u64</title>
<path fill="none" stroke="black" d="M1208.01,-736.77C1422.42,-735.59 2067.58,-728.35 2150,-684 2161.19,-677.98 2262.05,-536.05 2303.91,-476.71"/>
<polygon fill="black" stroke="black" points="2306.56,-479.03 2309.46,-468.84 2300.84,-475 2306.56,-479.03"/>
</g>
<!-- staking_contract&#45;&gt;staking_config -->
<g id="edge89" class="edge">
<title>staking_contract&#45;&gt;staking_config</title>
<path fill="none" stroke="black" d="M1176.88,-722.63C1276.45,-684.85 1545.42,-582.79 1655.28,-541.11"/>
<polygon fill="black" stroke="black" points="1656.5,-544.39 1664.6,-537.57 1654.01,-537.84 1656.5,-544.39"/>
</g>
<!-- option&#45;&gt;vector -->
<g id="edge92" class="edge">
<title>option&#45;&gt;vector</title>
<path fill="none" stroke="black" d="M1190.45,-85.04C1287.87,-73.13 1577.87,-37.71 1687.96,-24.26"/>
<polygon fill="black" stroke="black" points="1688.26,-27.75 1697.76,-23.06 1687.41,-20.8 1688.26,-27.75"/>
</g>
<!-- type_info&#45;&gt;string -->
<g id="edge93" class="edge">
<title>type_info&#45;&gt;string</title>
<path fill="none" stroke="black" d="M725.43,-218.67C706.86,-207.83 681.24,-192.89 661.22,-181.21"/>
<polygon fill="black" stroke="black" points="663.04,-178.22 652.63,-176.2 659.51,-184.27 663.04,-178.22"/>
</g>
<!-- ed25519&#45;&gt;error -->
<g id="edge96" class="edge">
<title>ed25519&#45;&gt;error</title>
<path fill="none" stroke="black" d="M976.58,-300.64C1010.8,-296.97 1061.63,-291.72 1106,-288 1393.75,-263.88 1741.2,-243.66 1856.62,-237.18"/>
<polygon fill="black" stroke="black" points="1856.69,-240.68 1866.48,-236.63 1856.3,-233.69 1856.69,-240.68"/>
</g>
<!-- ed25519&#45;&gt;bcs -->
<g id="edge98" class="edge">
<title>ed25519&#45;&gt;bcs</title>
<path fill="none" stroke="black" d="M916.22,-290.15C901.61,-279.72 881.92,-265.66 866.08,-254.34"/>
<polygon fill="black" stroke="black" points="868.2,-251.56 858.03,-248.59 864.13,-257.25 868.2,-251.56"/>
</g>
<!-- ed25519&#45;&gt;option -->
<g id="edge94" class="edge">
<title>ed25519&#45;&gt;option</title>
<path fill="none" stroke="black" d="M940.26,-287.83C944.54,-268.78 953.53,-237.84 970,-216 1009.84,-163.17 1078.88,-125.66 1121.29,-106.24"/>
<polygon fill="black" stroke="black" points="1122.64,-109.47 1130.34,-102.2 1119.78,-103.08 1122.64,-109.47"/>
</g>
<!-- ed25519&#45;&gt;type_info -->
<g id="edge95" class="edge">
<title>ed25519&#45;&gt;type_info</title>
<path fill="none" stroke="black" d="M906.54,-293.6C875.53,-281.99 827.22,-263.91 792.47,-250.9"/>
<polygon fill="black" stroke="black" points="793.71,-247.62 783.12,-247.4 791.25,-254.18 793.71,-247.62"/>
</g>
<!-- ed25519&#45;&gt;hash -->
<g id="edge97" class="edge">
<title>ed25519&#45;&gt;hash</title>
<path fill="none" stroke="black" d="M952.66,-289.12C961.85,-279.79 973.62,-267.85 983.77,-257.56"/>
<polygon fill="black" stroke="black" points="986.22,-260.05 990.75,-250.47 981.24,-255.14 986.22,-260.05"/>
</g>
<!-- multi_ed25519&#45;&gt;error -->
<g id="edge100" class="edge">
<title>multi_ed25519&#45;&gt;error</title>
<path fill="none" stroke="black" d="M1025.89,-361.46C1068.06,-338.27 1146.37,-296.39 1177,-288 1306.79,-252.43 1725.85,-239.22 1856.63,-235.9"/>
<polygon fill="black" stroke="black" points="1856.6,-239.41 1866.51,-235.66 1856.42,-232.41 1856.6,-239.41"/>
</g>
<!-- multi_ed25519&#45;&gt;bcs -->
<g id="edge102" class="edge">
<title>multi_ed25519&#45;&gt;bcs</title>
<path fill="none" stroke="black" d="M955.74,-364.03C933.25,-355.47 906.33,-342.41 887,-324 869.14,-307 856.43,-281.87 848.6,-262.64"/>
<polygon fill="black" stroke="black" points="851.95,-261.6 845.09,-253.52 845.41,-264.11 851.95,-261.6"/>
</g>
<!-- multi_ed25519&#45;&gt;option -->
<g id="edge99" class="edge">
<title>multi_ed25519&#45;&gt;option</title>
<path fill="none" stroke="black" d="M1007.53,-359.97C1034.38,-311.97 1110.82,-175.34 1143.21,-117.44"/>
<polygon fill="black" stroke="black" points="1146.15,-119.34 1147.98,-108.91 1140.04,-115.93 1146.15,-119.34"/>
</g>
<!-- multi_ed25519&#45;&gt;hash -->
<g id="edge101" class="edge">
<title>multi_ed25519&#45;&gt;hash</title>
<path fill="none" stroke="black" d="M998.98,-359.59C1000.33,-335.61 1002.78,-292.14 1004.4,-263.42"/>
<polygon fill="black" stroke="black" points="1007.88,-263.8 1004.95,-253.62 1000.89,-263.41 1007.88,-263.8"/>
</g>
<!-- multi_ed25519&#45;&gt;ed25519 -->
<g id="edge103" class="edge">
<title>multi_ed25519&#45;&gt;ed25519</title>
<path fill="none" stroke="black" d="M983.23,-360.05C975.86,-351.59 966.79,-341.19 958.65,-331.84"/>
<polygon fill="black" stroke="black" points="961.41,-329.69 952.2,-324.45 956.14,-334.29 961.41,-329.69"/>
</g>
<!-- from_bcs&#45;&gt;string -->
<g id="edge104" class="edge">
<title>from_bcs&#45;&gt;string</title>
<path fill="none" stroke="black" d="M712.79,-359.85C697.21,-322.82 660.33,-235.12 641.5,-190.34"/>
<polygon fill="black" stroke="black" points="644.81,-189.19 637.71,-181.33 638.36,-191.91 644.81,-189.19"/>
</g>
<!-- optional_aggregator&#45;&gt;error -->
<g id="edge106" class="edge">
<title>optional_aggregator&#45;&gt;error</title>
<path fill="none" stroke="black" d="M1703.21,-432.37C1714.16,-423.07 1726.1,-410.44 1732,-396 1738.05,-381.19 1739.01,-374.38 1732,-360 1720.63,-336.66 1697.37,-347.34 1686,-324 1678.99,-309.62 1676.17,-300.62 1686,-288 1706.83,-261.26 1802.46,-245.9 1857.21,-239.15"/>
<polygon fill="black" stroke="black" points="1857.54,-242.64 1867.06,-237.98 1856.71,-235.69 1857.54,-242.64"/>
</g>
<!-- optional_aggregator&#45;&gt;option -->
<g id="edge105" class="edge">
<title>optional_aggregator&#45;&gt;option</title>
<path fill="none" stroke="black" d="M1683.3,-431.8C1686.04,-413.25 1688.04,-383.27 1678,-360 1659.94,-318.16 1642.69,-313.61 1605,-288 1467.49,-194.57 1278.47,-128.71 1197.46,-102.99"/>
<polygon fill="black" stroke="black" points="1198.79,-99.74 1188.21,-100.08 1196.7,-106.41 1198.79,-99.74"/>
</g>
<!-- aggregator -->
<g id="node32" class="node">
<title>aggregator</title>
<ellipse fill="none" stroke="black" cx="1548" cy="-306" rx="48.19" ry="18"/>
<text text-anchor="middle" x="1548" y="-302.3" font-family="Times,serif" font-size="14.00">aggregator</text>
</g>
<!-- optional_aggregator&#45;&gt;aggregator -->
<g id="edge107" class="edge">
<title>optional_aggregator&#45;&gt;aggregator</title>
<path fill="none" stroke="black" d="M1679.48,-431.69C1678.03,-412.22 1672.99,-380.63 1656,-360 1640.96,-341.74 1618.09,-329.26 1597.26,-321.03"/>
<polygon fill="black" stroke="black" points="1598.62,-317.8 1588.03,-317.62 1596.2,-324.37 1598.62,-317.8"/>
</g>
<!-- aggregator_factory -->
<g id="node33" class="node">
<title>aggregator_factory</title>
<ellipse fill="none" stroke="black" cx="1537" cy="-378" rx="77.19" ry="18"/>
<text text-anchor="middle" x="1537" y="-374.3" font-family="Times,serif" font-size="14.00">aggregator_factory</text>
</g>
<!-- optional_aggregator&#45;&gt;aggregator_factory -->
<g id="edge108" class="edge">
<title>optional_aggregator&#45;&gt;aggregator_factory</title>
<path fill="none" stroke="black" d="M1647.55,-433.12C1627.44,-423.27 1601.38,-410.52 1579.62,-399.86"/>
<polygon fill="black" stroke="black" points="1581.2,-396.74 1570.68,-395.49 1578.12,-403.03 1581.2,-396.74"/>
</g>
<!-- comparator&#45;&gt;bcs -->
<g id="edge109" class="edge">
<title>comparator&#45;&gt;bcs</title>
<path fill="none" stroke="black" d="M1767.76,-300.72C1724.81,-297.07 1660.81,-291.82 1605,-288 1322.98,-268.7 1251.46,-278.21 970,-252 938.42,-249.06 902.72,-244.33 876.57,-240.61"/>
<polygon fill="black" stroke="black" points="877.18,-237.16 866.78,-239.2 876.18,-244.09 877.18,-237.16"/>
</g>
<!-- staking_config&#45;&gt;error -->
<g id="edge110" class="edge">
<title>staking_config&#45;&gt;error</title>
<path fill="none" stroke="black" d="M1756.01,-511.84C1803.04,-502.62 1866.87,-487.05 1884,-468 1935.16,-411.09 1917.35,-311.28 1904.5,-262.89"/>
<polygon fill="black" stroke="black" points="1907.93,-262.16 1901.87,-253.47 1901.19,-264.05 1907.93,-262.16"/>
</g>
<!-- staking_config&#45;&gt;system_addresses -->
<g id="edge111" class="edge">
<title>staking_config&#45;&gt;system_addresses</title>
<path fill="none" stroke="black" d="M1642.68,-516.47C1561.74,-509.5 1423.14,-494.12 1380,-468 1365.99,-459.51 1307.65,-377.18 1277.39,-333.66"/>
<polygon fill="black" stroke="black" points="1280.3,-331.71 1271.73,-325.49 1274.55,-335.7 1280.3,-331.71"/>
</g>
<!-- bls12381&#45;&gt;error -->
<g id="edge113" class="edge">
<title>bls12381&#45;&gt;error</title>
<path fill="none" stroke="black" d="M2123,-294.64C2115.44,-292.4 2107.46,-290.08 2100,-288 2041.81,-271.77 1973.83,-254.43 1932.89,-244.16"/>
<polygon fill="black" stroke="black" points="1933.86,-240.8 1923.31,-241.77 1932.16,-247.59 1933.86,-240.8"/>
</g>
<!-- bls12381&#45;&gt;option -->
<g id="edge112" class="edge">
<title>bls12381&#45;&gt;option</title>
<path fill="none" stroke="black" d="M2128.47,-292.18C2086.35,-273.59 2004.76,-238.89 1933,-216 1804.42,-174.98 1770.91,-167.45 1638,-144 1478.91,-115.92 1287.37,-100.09 1202.36,-93.97"/>
<polygon fill="black" stroke="black" points="1202.82,-90.49 1192.6,-93.28 1202.33,-97.48 1202.82,-90.49"/>
</g>
<!-- aggregator_factory&#45;&gt;error -->
<g id="edge115" class="edge">
<title>aggregator_factory&#45;&gt;error</title>
<path fill="none" stroke="black" d="M1500.05,-361.95C1484.08,-353.37 1467.02,-340.9 1458,-324 1450.47,-309.88 1447.39,-299.97 1458,-288 1484.27,-258.36 1753.95,-242.02 1856.61,-236.84"/>
<polygon fill="black" stroke="black" points="1856.67,-240.34 1866.48,-236.35 1856.32,-233.35 1856.67,-240.34"/>
</g>
<!-- aggregator_factory&#45;&gt;system_addresses -->
<g id="edge116" class="edge">
<title>aggregator_factory&#45;&gt;system_addresses</title>
<path fill="none" stroke="black" d="M1486.01,-364.16C1439.09,-352.35 1369.43,-334.81 1319.66,-322.27"/>
<polygon fill="black" stroke="black" points="1320.75,-318.94 1310.2,-319.89 1319.04,-325.73 1320.75,-318.94"/>
</g>
<!-- aggregator_factory&#45;&gt;table -->
<g id="edge114" class="edge">
<title>aggregator_factory&#45;&gt;table</title>
<path fill="none" stroke="black" d="M1502.11,-361.64C1474.95,-349.68 1437.53,-333.21 1410.89,-321.48"/>
<polygon fill="black" stroke="black" points="1412.5,-318.36 1401.94,-317.54 1409.68,-324.77 1412.5,-318.36"/>
</g>
<!-- aggregator_factory&#45;&gt;aggregator -->
<g id="edge117" class="edge">
<title>aggregator_factory&#45;&gt;aggregator</title>
<path fill="none" stroke="black" d="M1539.72,-359.7C1540.88,-352.32 1542.26,-343.52 1543.56,-335.25"/>
<polygon fill="black" stroke="black" points="1546.98,-336.02 1545.08,-325.6 1540.07,-334.93 1546.98,-336.02"/>
</g>
</g>
</svg>
