<?xml version="1.0" encoding="UTF-8" standalone="no"?>
<!DOCTYPE svg PUBLIC "-//W3C//DTD SVG 1.1//EN"
 "http://www.w3.org/Graphics/SVG/1.1/DTD/svg11.dtd">
<!-- Generated by graphviz version 7.0.0 (20221023.0053)
 -->
<!-- Title: G Pages: 1 -->
<svg width="962pt" height="293pt"
 viewBox="0.00 0.00 962.00 293.00" xmlns="http://www.w3.org/2000/svg" xmlns:xlink="http://www.w3.org/1999/xlink">
<g id="graph0" class="graph" transform="scale(1 1) rotate(0) translate(4 289)">
<title>G</title>
<polygon fill="white" stroke="none" points="-4,4 -4,-289 958,-289 958,4 -4,4"/>
<g id="clust1" class="cluster">
<title>cluster_option</title>
<polygon fill="none" stroke="black" points="24,-91 24,-241 190,-241 190,-91 24,-91"/>
<text text-anchor="middle" x="107" y="-225.8" font-family="Times,serif" font-size="14.00">option</text>
</g>
<g id="clust2" class="cluster">
<title>cluster_table</title>
<polygon fill="none" stroke="black" points="198,-91 198,-241 296,-241 296,-91 198,-91"/>
<text text-anchor="middle" x="247" y="-225.8" font-family="Times,serif" font-size="14.00">table</text>
</g>
<g id="clust3" class="cluster">
<title>cluster_error</title>
<polygon fill="none" stroke="black" points="304,-91 304,-241 466,-241 466,-91 304,-91"/>
<text text-anchor="middle" x="385" y="-225.8" font-family="Times,serif" font-size="14.00">error</text>
</g>
<g id="clust4" class="cluster">
<title>cluster_event</title>
<polygon fill="none" stroke="black" points="474,-91 474,-241 660,-241 660,-91 474,-91"/>
<text text-anchor="middle" x="567" y="-225.8" font-family="Times,serif" font-size="14.00">event</text>
</g>
<g id="clust5" class="cluster">
<title>cluster_timestamp</title>
<polygon fill="none" stroke="black" points="772,-91 772,-241 946,-241 946,-91 772,-91"/>
<text text-anchor="middle" x="859" y="-225.8" font-family="Times,serif" font-size="14.00">timestamp</text>
</g>
<g id="clust6" class="cluster">
<title>cluster_vector</title>
<polygon fill="none" stroke="black" points="8,-8 8,-83 215,-83 215,-8 8,-8"/>
<text text-anchor="middle" x="111.5" y="-67.8" font-family="Times,serif" font-size="14.00">vector</text>
</g>
<g id="clust7" class="cluster">
<title>cluster_bcs</title>
<polygon fill="none" stroke="black" points="668,-91 668,-166 764,-166 764,-91 668,-91"/>
<text text-anchor="middle" x="716" y="-150.8" font-family="Times,serif" font-size="14.00">bcs</text>
</g>
<!-- create_proposal -->
<g id="node1" class="node">
<title>create_proposal</title>
<ellipse fill="none" stroke="black" cx="247" cy="-267" rx="66.09" ry="18"/>
<text text-anchor="middle" x="247" y="-263.3" font-family="Times,serif" font-size="14.00">create_proposal</text>
</g>
<!-- option::borrow -->
<g id="node2" class="node">
<title>option::borrow</title>
<ellipse fill="none" stroke="black" cx="68" cy="-192" rx="36.29" ry="18"/>
<text text-anchor="middle" x="68" y="-188.3" font-family="Times,serif" font-size="14.00">borrow</text>
</g>
<!-- create_proposal&#45;&gt;option::borrow -->
<g id="edge1" class="edge">
<title>create_proposal&#45;&gt;option::borrow</title>
<path fill="none" stroke="black" d="M182.85,-262.33C159.74,-258.92 134.17,-252.59 113,-241 102.85,-235.44 93.68,-226.76 86.31,-218.3"/>
<polygon fill="black" stroke="black" points="89.03,-216.1 80.01,-210.54 83.6,-220.51 89.03,-216.1"/>
</g>
<!-- option::is_some -->
<g id="node3" class="node">
<title>option::is_some</title>
<ellipse fill="none" stroke="black" cx="72" cy="-117" rx="40.09" ry="18"/>
<text text-anchor="middle" x="72" y="-113.3" font-family="Times,serif" font-size="14.00">is_some</text>
</g>
<!-- create_proposal&#45;&gt;option::is_some -->
<g id="edge2" class="edge">
<title>create_proposal&#45;&gt;option::is_some</title>
<path fill="none" stroke="black" d="M181.98,-263.09C119.66,-259.62 33.52,-252.76 23,-241 3.15,-218.81 12.53,-201.88 23,-174 27.63,-161.69 36.33,-150.31 45.12,-141.07"/>
<polygon fill="black" stroke="black" points="47.36,-143.78 52.04,-134.28 42.45,-138.79 47.36,-143.78"/>
</g>
<!-- option::some -->
<g id="node4" class="node">
<title>option::some</title>
<ellipse fill="none" stroke="black" cx="152" cy="-192" rx="29.8" ry="18"/>
<text text-anchor="middle" x="152" y="-188.3" font-family="Times,serif" font-size="14.00">some</text>
</g>
<!-- create_proposal&#45;&gt;option::some -->
<g id="edge3" class="edge">
<title>create_proposal&#45;&gt;option::some</title>
<path fill="none" stroke="black" d="M211.05,-251.52C205.11,-248.44 199.2,-244.92 194,-241 185.27,-234.41 177.02,-225.76 170.18,-217.61"/>
<polygon fill="black" stroke="black" points="173.03,-215.58 164.05,-209.96 167.57,-219.95 173.03,-215.58"/>
</g>
<!-- table::add -->
<g id="node5" class="node">
<title>table::add</title>
<ellipse fill="none" stroke="black" cx="247" cy="-192" rx="27" ry="18"/>
<text text-anchor="middle" x="247" y="-188.3" font-family="Times,serif" font-size="14.00">add</text>
</g>
<!-- create_proposal&#45;&gt;table::add -->
<g id="edge4" class="edge">
<title>create_proposal&#45;&gt;table::add</title>
<path fill="none" stroke="black" d="M247,-248.7C247,-240.67 247,-230.9 247,-221.8"/>
<polygon fill="black" stroke="black" points="250.5,-221.94 247,-211.94 243.5,-221.94 250.5,-221.94"/>
</g>
<!-- error::invalid_argument -->
<g id="node6" class="node">
<title>error::invalid_argument</title>
<ellipse fill="none" stroke="black" cx="385" cy="-192" rx="73.39" ry="18"/>
<text text-anchor="middle" x="385" y="-188.3" font-family="Times,serif" font-size="14.00">invalid_argument</text>
</g>
<!-- create_proposal&#45;&gt;error::invalid_argument -->
<g id="edge5" class="edge">
<title>create_proposal&#45;&gt;error::invalid_argument</title>
<path fill="none" stroke="black" d="M279.7,-251.04C286.46,-247.82 293.49,-244.37 300,-241 315.9,-232.78 333.15,-223.17 347.93,-214.72"/>
<polygon fill="black" stroke="black" points="349.48,-217.86 356.41,-209.84 345.99,-211.79 349.48,-217.86"/>
</g>
<!-- event::emit_event -->
<g id="node7" class="node">
<title>event::emit_event</title>
<ellipse fill="none" stroke="black" cx="567" cy="-192" rx="50.09" ry="18"/>
<text text-anchor="middle" x="567" y="-188.3" font-family="Times,serif" font-size="14.00">emit_event</text>
</g>
<!-- create_proposal&#45;&gt;event::emit_event -->
<g id="edge6" class="edge">
<title>create_proposal&#45;&gt;event::emit_event</title>
<path fill="none" stroke="black" d="M312.58,-264.62C357.64,-262.23 418.42,-256.15 470,-241 491.7,-234.63 514.44,-223.64 532.44,-213.78"/>
<polygon fill="black" stroke="black" points="534.13,-216.84 541.13,-208.89 530.7,-210.74 534.13,-216.84"/>
</g>
<!-- timestamp::now_seconds -->
<g id="node8" class="node">
<title>timestamp::now_seconds</title>
<ellipse fill="none" stroke="black" cx="848" cy="-192" rx="57.69" ry="18"/>
<text text-anchor="middle" x="848" y="-188.3" font-family="Times,serif" font-size="14.00">now_seconds</text>
</g>
<!-- create_proposal&#45;&gt;timestamp::now_seconds -->
<g id="edge7" class="edge">
<title>create_proposal&#45;&gt;timestamp::now_seconds</title>
<path fill="none" stroke="black" d="M313.15,-266C395.76,-265.1 541.16,-260.51 664,-241 710.09,-233.68 761.39,-219.8 798.09,-208.85"/>
<polygon fill="black" stroke="black" points="798.98,-212.24 807.54,-205.99 796.96,-205.54 798.98,-212.24"/>
</g>
<!-- option::borrow&#45;&gt;option::is_some -->
<g id="edge8" class="edge">
<title>option::borrow&#45;&gt;option::is_some</title>
<path fill="none" stroke="black" d="M68.95,-173.7C69.39,-165.67 69.92,-155.9 70.42,-146.8"/>
<polygon fill="black" stroke="black" points="73.91,-147.12 70.96,-136.94 66.92,-146.73 73.91,-147.12"/>
</g>
<!-- vector::is_empty -->
<g id="node9" class="node">
<title>vector::is_empty</title>
<ellipse fill="none" stroke="black" cx="60" cy="-34" rx="43.59" ry="18"/>
<text text-anchor="middle" x="60" y="-30.3" font-family="Times,serif" font-size="14.00">is_empty</text>
</g>
<!-- option::is_some&#45;&gt;vector::is_empty -->
<g id="edge9" class="edge">
<title>option::is_some&#45;&gt;vector::is_empty</title>
<path fill="none" stroke="black" d="M69.46,-98.82C67.94,-88.58 65.97,-75.33 64.23,-63.55"/>
<polygon fill="black" stroke="black" points="67.73,-63.31 62.8,-53.93 60.81,-64.33 67.73,-63.31"/>
</g>
<!-- vector::singleton -->
<g id="node10" class="node">
<title>vector::singleton</title>
<ellipse fill="none" stroke="black" cx="164" cy="-34" rx="42.79" ry="18"/>
<text text-anchor="middle" x="164" y="-30.3" font-family="Times,serif" font-size="14.00">singleton</text>
</g>
<!-- option::some&#45;&gt;vector::singleton -->
<g id="edge10" class="edge">
<title>option::some&#45;&gt;vector::singleton</title>
<path fill="none" stroke="black" d="M153.33,-173.71C155.38,-147.12 159.32,-95.9 161.79,-63.69"/>
<polygon fill="black" stroke="black" points="165.27,-64.12 162.55,-53.88 158.29,-63.58 165.27,-64.12"/>
</g>
<!-- table::add_box -->
<g id="node11" class="node">
<title>table::add_box</title>
<ellipse fill="none" stroke="black" cx="247" cy="-117" rx="40.89" ry="18"/>
<text text-anchor="middle" x="247" y="-113.3" font-family="Times,serif" font-size="14.00">add_box</text>
</g>
<!-- table::add&#45;&gt;table::add_box -->
<g id="edge11" class="edge">
<title>table::add&#45;&gt;table::add_box</title>
<path fill="none" stroke="black" d="M247,-173.7C247,-165.67 247,-155.9 247,-146.8"/>
<polygon fill="black" stroke="black" points="250.5,-146.94 247,-136.94 243.5,-146.94 250.5,-146.94"/>
</g>
<!-- error::canonical -->
<g id="node12" class="node">
<title>error::canonical</title>
<ellipse fill="none" stroke="black" cx="385" cy="-117" rx="44.39" ry="18"/>
<text text-anchor="middle" x="385" y="-113.3" font-family="Times,serif" font-size="14.00">canonical</text>
</g>
<!-- error::invalid_argument&#45;&gt;error::canonical -->
<g id="edge12" class="edge">
<title>error::invalid_argument&#45;&gt;error::canonical</title>
<path fill="none" stroke="black" d="M385,-173.7C385,-165.67 385,-155.9 385,-146.8"/>
<polygon fill="black" stroke="black" points="388.5,-146.94 385,-136.94 381.5,-146.94 388.5,-146.94"/>
</g>
<!-- bcs::to_bytes -->
<g id="node13" class="node">
<title>bcs::to_bytes</title>
<ellipse fill="none" stroke="black" cx="716" cy="-117" rx="40.09" ry="18"/>
<text text-anchor="middle" x="716" y="-113.3" font-family="Times,serif" font-size="14.00">to_bytes</text>
</g>
<!-- event::emit_event&#45;&gt;bcs::to_bytes -->
<g id="edge13" class="edge">
<title>event::emit_event&#45;&gt;bcs::to_bytes</title>
<path fill="none" stroke="black" d="M612.67,-184.07C629.5,-180.29 648.27,-174.57 664,-166 675.28,-159.85 686.03,-150.72 694.79,-142.06"/>
<polygon fill="black" stroke="black" points="697.06,-144.74 701.48,-135.11 692.02,-139.89 697.06,-144.74"/>
</g>
<!-- event::write_to_event_store -->
<g id="node14" class="node">
<title>event::write_to_event_store</title>
<ellipse fill="none" stroke="black" cx="567" cy="-117" rx="85.29" ry="18"/>
<text text-anchor="middle" x="567" y="-113.3" font-family="Times,serif" font-size="14.00">write_to_event_store</text>
</g>
<!-- event::emit_event&#45;&gt;event::write_to_event_store -->
<g id="edge14" class="edge">
<title>event::emit_event&#45;&gt;event::write_to_event_store</title>
<path fill="none" stroke="black" d="M567,-173.7C567,-165.67 567,-155.9 567,-146.8"/>
<polygon fill="black" stroke="black" points="570.5,-146.94 567,-136.94 563.5,-146.94 570.5,-146.94"/>
</g>
<!-- timestamp::now_microseconds -->
<g id="node15" class="node">
<title>timestamp::now_microseconds</title>
<ellipse fill="none" stroke="black" cx="859" cy="-117" rx="79.09" ry="18"/>
<text text-anchor="middle" x="859" y="-113.3" font-family="Times,serif" font-size="14.00">now_microseconds</text>
</g>
<!-- timestamp::now_seconds&#45;&gt;timestamp::now_microseconds -->
<g id="edge15" class="edge">
<title>timestamp::now_seconds&#45;&gt;timestamp::now_microseconds</title>
<path fill="none" stroke="black" d="M850.61,-173.7C851.82,-165.67 853.29,-155.9 854.66,-146.8"/>
<polygon fill="black" stroke="black" points="858.12,-147.34 856.15,-136.93 851.2,-146.29 858.12,-147.34"/>
</g>
</g>
</svg>
