<?xml version="1.0" encoding="UTF-8" standalone="no"?>
<!DOCTYPE svg PUBLIC "-//W3C//DTD SVG 1.1//EN"
 "http://www.w3.org/Graphics/SVG/1.1/DTD/svg11.dtd">
<!-- Generated by graphviz version 7.0.0 (20221023.0053)
 -->
<!-- Title: G Pages: 1 -->
<svg width="942pt" height="373pt"
 viewBox="0.00 0.00 942.00 373.00" xmlns="http://www.w3.org/2000/svg" xmlns:xlink="http://www.w3.org/1999/xlink">
<g id="graph0" class="graph" transform="scale(1 1) rotate(0) translate(4 369)">
<title>G</title>
<polygon fill="white" stroke="none" points="-4,4 -4,-369 938,-369 938,4 -4,4"/>
<g id="clust1" class="cluster">
<title>cluster_type_info</title>
<polygon fill="none" stroke="black" points="8,-246 8,-321 100,-321 100,-246 8,-246"/>
<text text-anchor="middle" x="54" y="-305.8" font-family="Times,serif" font-size="14.00">type_info</text>
</g>
<g id="clust2" class="cluster">
<title>cluster_table</title>
<polygon fill="none" stroke="black" points="108,-163 108,-321 274,-321 274,-163 108,-163"/>
<text text-anchor="middle" x="191" y="-305.8" font-family="Times,serif" font-size="14.00">table</text>
</g>
<g id="clust3" class="cluster">
<title>cluster_signer</title>
<polygon fill="none" stroke="black" points="210,-8 210,-155 360,-155 360,-8 210,-8"/>
<text text-anchor="middle" x="285" y="-139.8" font-family="Times,serif" font-size="14.00">signer</text>
</g>
<g id="clust4" class="cluster">
<title>cluster_error</title>
<polygon fill="none" stroke="black" points="788,-163 788,-321 926,-321 926,-163 788,-163"/>
<text text-anchor="middle" x="857" y="-305.8" font-family="Times,serif" font-size="14.00">error</text>
</g>
<g id="clust5" class="cluster">
<title>cluster_event</title>
<polygon fill="none" stroke="black" points="492,-80 492,-238 780,-238 780,-80 492,-80"/>
<text text-anchor="middle" x="636" y="-222.8" font-family="Times,serif" font-size="14.00">event</text>
</g>
<g id="clust6" class="cluster">
<title>cluster_account</title>
<polygon fill="none" stroke="black" points="314,-163 314,-321 484,-321 484,-163 314,-163"/>
<text text-anchor="middle" x="399" y="-305.8" font-family="Times,serif" font-size="14.00">account</text>
</g>
<g id="clust7" class="cluster">
<title>cluster_bcs</title>
<polygon fill="none" stroke="black" points="788,-80 788,-155 884,-155 884,-80 788,-80"/>
<text text-anchor="middle" x="836" y="-139.8" font-family="Times,serif" font-size="14.00">bcs</text>
</g>
<g id="clust8" class="cluster">
<title>cluster_guid</title>
<polygon fill="none" stroke="black" points="368,-80 368,-155 448,-155 448,-80 368,-80"/>
<text text-anchor="middle" x="408" y="-139.8" font-family="Times,serif" font-size="14.00">guid</text>
</g>
<!-- register -->
<g id="node1" class="node">
<title>register</title>
<ellipse fill="none" stroke="black" cx="346" cy="-347" rx="37.09" ry="18"/>
<text text-anchor="middle" x="346" y="-343.3" font-family="Times,serif" font-size="14.00">register</text>
</g>
<!-- type_info::type_of -->
<g id="node2" class="node">
<title>type_info::type_of</title>
<ellipse fill="none" stroke="black" cx="54" cy="-272" rx="37.89" ry="18"/>
<text text-anchor="middle" x="54" y="-268.3" font-family="Times,serif" font-size="14.00">type_of</text>
</g>
<!-- register&#45;&gt;type_info::type_of -->
<g id="edge1" class="edge">
<title>register&#45;&gt;type_info::type_of</title>
<path fill="none" stroke="black" d="M308.66,-345.09C250.04,-343.17 139.45,-337.43 104,-321 92.54,-315.69 82.07,-306.66 73.7,-297.85"/>
<polygon fill="black" stroke="black" points="76.34,-295.56 67.08,-290.4 71.11,-300.2 76.34,-295.56"/>
</g>
<!-- table::new -->
<g id="node3" class="node">
<title>table::new</title>
<ellipse fill="none" stroke="black" cx="215" cy="-272" rx="27" ry="18"/>
<text text-anchor="middle" x="215" y="-268.3" font-family="Times,serif" font-size="14.00">new</text>
</g>
<!-- register&#45;&gt;table::new -->
<g id="edge2" class="edge">
<title>register&#45;&gt;table::new</title>
<path fill="none" stroke="black" d="M315.33,-336.36C303.93,-332.27 291.08,-327.04 280,-321 265.91,-313.32 251.43,-302.91 239.72,-293.76"/>
<polygon fill="black" stroke="black" points="242.16,-291.23 232.17,-287.7 237.78,-296.69 242.16,-291.23"/>
</g>
<!-- signer::address_of -->
<g id="node4" class="node">
<title>signer::address_of</title>
<ellipse fill="none" stroke="black" cx="294" cy="-106" rx="48.99" ry="18"/>
<text text-anchor="middle" x="294" y="-102.3" font-family="Times,serif" font-size="14.00">address_of</text>
</g>
<!-- register&#45;&gt;signer::address_of -->
<g id="edge3" class="edge">
<title>register&#45;&gt;signer::address_of</title>
<path fill="none" stroke="black" d="M321.15,-333.19C316.76,-329.82 312.72,-325.76 310,-321 276.36,-262.14 282.46,-178.83 288.8,-135.57"/>
<polygon fill="black" stroke="black" points="292.25,-136.16 290.37,-125.74 285.34,-135.06 292.25,-136.16"/>
</g>
<!-- error::already_exists -->
<g id="node5" class="node">
<title>error::already_exists</title>
<ellipse fill="none" stroke="black" cx="857" cy="-272" rx="61.19" ry="18"/>
<text text-anchor="middle" x="857" y="-268.3" font-family="Times,serif" font-size="14.00">already_exists</text>
</g>
<!-- register&#45;&gt;error::already_exists -->
<g id="edge4" class="edge">
<title>register&#45;&gt;error::already_exists</title>
<path fill="none" stroke="black" d="M382.98,-344.09C436.87,-341 540.04,-333.9 627,-321 686.46,-312.18 753.67,-297.61 800.01,-286.83"/>
<polygon fill="black" stroke="black" points="800.62,-290.29 809.55,-284.6 799.02,-283.47 800.62,-290.29"/>
</g>
<!-- event::emit_event -->
<g id="node6" class="node">
<title>event::emit_event</title>
<ellipse fill="none" stroke="black" cx="722" cy="-189" rx="50.09" ry="18"/>
<text text-anchor="middle" x="722" y="-185.3" font-family="Times,serif" font-size="14.00">emit_event</text>
</g>
<!-- register&#45;&gt;event::emit_event -->
<g id="edge5" class="edge">
<title>register&#45;&gt;event::emit_event</title>
<path fill="none" stroke="black" d="M382.24,-342.34C411.32,-338.76 452.94,-332.18 488,-321 570.02,-294.86 590.2,-283.94 663,-238 674.37,-230.82 686.03,-221.76 695.95,-213.45"/>
<polygon fill="black" stroke="black" points="698.06,-216.26 703.37,-207.09 693.5,-210.95 698.06,-216.26"/>
</g>
<!-- account::new_event_handle -->
<g id="node7" class="node">
<title>account::new_event_handle</title>
<ellipse fill="none" stroke="black" cx="399" cy="-272" rx="76.89" ry="18"/>
<text text-anchor="middle" x="399" y="-268.3" font-family="Times,serif" font-size="14.00">new_event_handle</text>
</g>
<!-- register&#45;&gt;account::new_event_handle -->
<g id="edge6" class="edge">
<title>register&#45;&gt;account::new_event_handle</title>
<path fill="none" stroke="black" d="M357.76,-329.8C364.23,-320.89 372.42,-309.61 379.8,-299.45"/>
<polygon fill="black" stroke="black" points="382.6,-301.55 385.64,-291.4 376.94,-297.43 382.6,-301.55"/>
</g>
<!-- table::new_table_handle -->
<g id="node8" class="node">
<title>table::new_table_handle</title>
<ellipse fill="none" stroke="black" cx="191" cy="-189" rx="74.99" ry="18"/>
<text text-anchor="middle" x="191" y="-185.3" font-family="Times,serif" font-size="14.00">new_table_handle</text>
</g>
<!-- table::new&#45;&gt;table::new_table_handle -->
<g id="edge7" class="edge">
<title>table::new&#45;&gt;table::new_table_handle</title>
<path fill="none" stroke="black" d="M209.91,-253.82C206.84,-243.48 202.87,-230.05 199.35,-218.18"/>
<polygon fill="black" stroke="black" points="202.79,-217.48 196.6,-208.88 196.08,-219.47 202.79,-217.48"/>
</g>
<!-- signer::borrow_address -->
<g id="node9" class="node">
<title>signer::borrow_address</title>
<ellipse fill="none" stroke="black" cx="285" cy="-34" rx="66.89" ry="18"/>
<text text-anchor="middle" x="285" y="-30.3" font-family="Times,serif" font-size="14.00">borrow_address</text>
</g>
<!-- signer::address_of&#45;&gt;signer::borrow_address -->
<g id="edge8" class="edge">
<title>signer::address_of&#45;&gt;signer::borrow_address</title>
<path fill="none" stroke="black" d="M291.78,-87.7C290.83,-80.32 289.7,-71.52 288.63,-63.25"/>
<polygon fill="black" stroke="black" points="292.14,-63.08 287.39,-53.61 285.2,-63.97 292.14,-63.08"/>
</g>
<!-- error::canonical -->
<g id="node10" class="node">
<title>error::canonical</title>
<ellipse fill="none" stroke="black" cx="857" cy="-189" rx="44.39" ry="18"/>
<text text-anchor="middle" x="857" y="-185.3" font-family="Times,serif" font-size="14.00">canonical</text>
</g>
<!-- error::already_exists&#45;&gt;error::canonical -->
<g id="edge9" class="edge">
<title>error::already_exists&#45;&gt;error::canonical</title>
<path fill="none" stroke="black" d="M857,-253.82C857,-243.69 857,-230.6 857,-218.92"/>
<polygon fill="black" stroke="black" points="860.5,-218.95 857,-208.95 853.5,-218.95 860.5,-218.95"/>
</g>
<!-- bcs::to_bytes -->
<g id="node11" class="node">
<title>bcs::to_bytes</title>
<ellipse fill="none" stroke="black" cx="836" cy="-106" rx="40.09" ry="18"/>
<text text-anchor="middle" x="836" y="-102.3" font-family="Times,serif" font-size="14.00">to_bytes</text>
</g>
<!-- event::emit_event&#45;&gt;bcs::to_bytes -->
<g id="edge10" class="edge">
<title>event::emit_event&#45;&gt;bcs::to_bytes</title>
<path fill="none" stroke="black" d="M751.62,-174.2C762.19,-168.77 773.96,-162.13 784,-155 794.07,-147.85 804.25,-138.92 812.9,-130.7"/>
<polygon fill="black" stroke="black" points="815.18,-133.37 819.89,-123.88 810.29,-128.36 815.18,-133.37"/>
</g>
<!-- event::write_to_event_store -->
<g id="node12" class="node">
<title>event::write_to_event_store</title>
<ellipse fill="none" stroke="black" cx="687" cy="-106" rx="85.29" ry="18"/>
<text text-anchor="middle" x="687" y="-102.3" font-family="Times,serif" font-size="14.00">write_to_event_store</text>
</g>
<!-- event::emit_event&#45;&gt;event::write_to_event_store -->
<g id="edge11" class="edge">
<title>event::emit_event&#45;&gt;event::write_to_event_store</title>
<path fill="none" stroke="black" d="M714.58,-170.82C710.03,-160.3 704.11,-146.59 698.91,-134.57"/>
<polygon fill="black" stroke="black" points="702.19,-133.33 695.01,-125.54 695.77,-136.11 702.19,-133.33"/>
</g>
<!-- event::new_event_handle -->
<g id="node13" class="node">
<title>event::new_event_handle</title>
<ellipse fill="none" stroke="black" cx="577" cy="-189" rx="76.89" ry="18"/>
<text text-anchor="middle" x="577" y="-185.3" font-family="Times,serif" font-size="14.00">new_event_handle</text>
</g>
<!-- account::new_event_handle&#45;&gt;event::new_event_handle -->
<g id="edge12" class="edge">
<title>account::new_event_handle&#45;&gt;event::new_event_handle</title>
<path fill="none" stroke="black" d="M441.59,-256.58C456.46,-251.18 473.14,-244.72 488,-238 505.32,-230.16 523.91,-220.37 539.6,-211.68"/>
<polygon fill="black" stroke="black" points="541.12,-214.84 548.13,-206.89 537.69,-208.73 541.12,-214.84"/>
</g>
<!-- account::create_guid -->
<g id="node14" class="node">
<title>account::create_guid</title>
<ellipse fill="none" stroke="black" cx="399" cy="-189" rx="51.99" ry="18"/>
<text text-anchor="middle" x="399" y="-185.3" font-family="Times,serif" font-size="14.00">create_guid</text>
</g>
<!-- account::new_event_handle&#45;&gt;account::create_guid -->
<g id="edge13" class="edge">
<title>account::new_event_handle&#45;&gt;account::create_guid</title>
<path fill="none" stroke="black" d="M399,-253.82C399,-243.69 399,-230.6 399,-218.92"/>
<polygon fill="black" stroke="black" points="402.5,-218.95 399,-208.95 395.5,-218.95 402.5,-218.95"/>
</g>
<!-- account::create_guid&#45;&gt;signer::address_of -->
<g id="edge14" class="edge">
<title>account::create_guid&#45;&gt;signer::address_of</title>
<path fill="none" stroke="black" d="M378.51,-172.19C362.75,-160.04 340.78,-143.09 323.19,-129.51"/>
<polygon fill="black" stroke="black" points="325.7,-127.03 315.64,-123.69 321.42,-132.57 325.7,-127.03"/>
</g>
<!-- guid::create -->
<g id="node15" class="node">
<title>guid::create</title>
<ellipse fill="none" stroke="black" cx="408" cy="-106" rx="31.7" ry="18"/>
<text text-anchor="middle" x="408" y="-102.3" font-family="Times,serif" font-size="14.00">create</text>
</g>
<!-- account::create_guid&#45;&gt;guid::create -->
<g id="edge15" class="edge">
<title>account::create_guid&#45;&gt;guid::create</title>
<path fill="none" stroke="black" d="M400.91,-170.82C402.05,-160.58 403.52,-147.33 404.83,-135.55"/>
<polygon fill="black" stroke="black" points="408.27,-136.26 405.9,-125.94 401.31,-135.49 408.27,-136.26"/>
</g>
</g>
</svg>
