<?xml version="1.0" encoding="UTF-8" standalone="no"?>
<!DOCTYPE svg PUBLIC "-//W3C//DTD SVG 1.1//EN"
 "http://www.w3.org/Graphics/SVG/1.1/DTD/svg11.dtd">
<!-- Generated by graphviz version 7.0.0 (20221023.0053)
 -->
<!-- Title: G Pages: 1 -->
<svg width="1314pt" height="548pt"
 viewBox="0.00 0.00 1314.14 548.00" xmlns="http://www.w3.org/2000/svg" xmlns:xlink="http://www.w3.org/1999/xlink">
<g id="graph0" class="graph" transform="scale(1 1) rotate(0) translate(4 544)">
<title>G</title>
<polygon fill="white" stroke="none" points="-4,4 -4,-544 1310.14,-544 1310.14,4 -4,4"/>
<!-- voting -->
<g id="node1" class="node">
<title>voting</title>
<ellipse fill="none" stroke="black" cx="516" cy="-522" rx="33.29" ry="18"/>
<text text-anchor="middle" x="516" y="-518.3" font-family="Times,serif" font-size="14.00">voting</text>
</g>
<!-- option -->
<g id="node2" class="node">
<title>option</title>
<ellipse fill="none" stroke="black" cx="625" cy="-90" rx="33.29" ry="18"/>
<text text-anchor="middle" x="625" y="-86.3" font-family="Times,serif" font-size="14.00">option</text>
</g>
<!-- voting&#45;&gt;option -->
<g id="edge1" class="edge">
<title>voting&#45;&gt;option</title>
<path fill="none" stroke="black" d="M549.53,-520.8C688.75,-519.68 1216.76,-512.52 1275,-468 1308.28,-442.56 1306,-420.89 1306,-379 1306,-379 1306,-379 1306,-233 1306,-102.49 820.65,-91.14 669.43,-90.76"/>
<polygon fill="black" stroke="black" points="669.82,-87.26 659.82,-90.76 669.82,-94.26 669.82,-87.26"/>
</g>
<!-- string -->
<g id="node3" class="node">
<title>string</title>
<ellipse fill="none" stroke="black" cx="256" cy="-162" rx="30.59" ry="18"/>
<text text-anchor="middle" x="256" y="-158.3" font-family="Times,serif" font-size="14.00">string</text>
</g>
<!-- voting&#45;&gt;string -->
<g id="edge2" class="edge">
<title>voting&#45;&gt;string</title>
<path fill="none" stroke="black" d="M482.73,-519.52C395.48,-515.22 162.09,-500.87 93,-468 41.34,-443.42 0,-436.21 0,-379 0,-379 0,-379 0,-305 0,-208.03 142.2,-176.73 214.63,-167.07"/>
<polygon fill="black" stroke="black" points="214.64,-170.6 224.13,-165.89 213.77,-163.65 214.64,-170.6"/>
</g>
<!-- type_info -->
<g id="node4" class="node">
<title>type_info</title>
<ellipse fill="none" stroke="black" cx="256" cy="-234" rx="44.39" ry="18"/>
<text text-anchor="middle" x="256" y="-230.3" font-family="Times,serif" font-size="14.00">type_info</text>
</g>
<!-- voting&#45;&gt;type_info -->
<g id="edge3" class="edge">
<title>voting&#45;&gt;type_info</title>
<path fill="none" stroke="black" d="M482.33,-520.94C427.39,-519.52 316.43,-511.01 235,-468 194.98,-446.87 180.32,-437.81 163,-396 141.36,-343.76 192.87,-287.64 227.56,-257.4"/>
<polygon fill="black" stroke="black" points="229.44,-260.4 234.81,-251.27 224.91,-255.05 229.44,-260.4"/>
</g>
<!-- table -->
<g id="node5" class="node">
<title>table</title>
<ellipse fill="none" stroke="black" cx="200" cy="-378" rx="27.9" ry="18"/>
<text text-anchor="middle" x="200" y="-374.3" font-family="Times,serif" font-size="14.00">table</text>
</g>
<!-- voting&#45;&gt;table -->
<g id="edge4" class="edge">
<title>voting&#45;&gt;table</title>
<path fill="none" stroke="black" d="M482.8,-519.83C434.9,-516.82 345.05,-506.09 280,-468 253.35,-452.39 230.67,-424.9 216.34,-404.58"/>
<polygon fill="black" stroke="black" points="219.37,-402.82 210.85,-396.52 213.59,-406.76 219.37,-402.82"/>
</g>
<!-- signer -->
<g id="node6" class="node">
<title>signer</title>
<ellipse fill="none" stroke="black" cx="1140" cy="-306" rx="32.49" ry="18"/>
<text text-anchor="middle" x="1140" y="-302.3" font-family="Times,serif" font-size="14.00">signer</text>
</g>
<!-- voting&#45;&gt;signer -->
<g id="edge5" class="edge">
<title>voting&#45;&gt;signer</title>
<path fill="none" stroke="black" d="M549.35,-520.38C649.78,-518.08 947.84,-507.98 1035,-468 1056.15,-458.3 1053.19,-444.2 1073,-432 1113.22,-407.23 1145.84,-434.65 1173,-396 1186.72,-376.48 1174.37,-350.58 1161.05,-331.75"/>
<polygon fill="black" stroke="black" points="1163.87,-329.68 1155.04,-323.83 1158.29,-333.91 1163.87,-329.68"/>
</g>
<!-- error -->
<g id="node7" class="node">
<title>error</title>
<ellipse fill="none" stroke="black" cx="1042" cy="-234" rx="27.9" ry="18"/>
<text text-anchor="middle" x="1042" y="-230.3" font-family="Times,serif" font-size="14.00">error</text>
</g>
<!-- voting&#45;&gt;error -->
<g id="edge6" class="edge">
<title>voting&#45;&gt;error</title>
<path fill="none" stroke="black" d="M549.73,-521.19C687.28,-521.62 1200.88,-519.73 1249,-468 1288.23,-425.84 1301.51,-387.39 1203,-288 1170.47,-255.19 1117.28,-242.69 1081.01,-237.93"/>
<polygon fill="black" stroke="black" points="1081.72,-234.48 1071.38,-236.81 1080.91,-241.44 1081.72,-234.48"/>
</g>
<!-- bcs -->
<g id="node8" class="node">
<title>bcs</title>
<ellipse fill="none" stroke="black" cx="537" cy="-234" rx="27" ry="18"/>
<text text-anchor="middle" x="537" y="-230.3" font-family="Times,serif" font-size="14.00">bcs</text>
</g>
<!-- voting&#45;&gt;bcs -->
<g id="edge7" class="edge">
<title>voting&#45;&gt;bcs</title>
<path fill="none" stroke="black" d="M495.27,-507.72C480.45,-497.72 460.49,-483.18 445,-468 416.05,-439.62 402.16,-434.35 389,-396 383.81,-380.87 386.44,-375.79 389,-360 394.4,-326.7 390.15,-312.81 413,-288 435.83,-263.21 472.19,-249.54 499.64,-242.33"/>
<polygon fill="black" stroke="black" points="500.44,-245.74 509.33,-239.97 498.79,-238.93 500.44,-245.74"/>
</g>
<!-- from_bcs -->
<g id="node9" class="node">
<title>from_bcs</title>
<ellipse fill="none" stroke="black" cx="72" cy="-378" rx="44.39" ry="18"/>
<text text-anchor="middle" x="72" y="-374.3" font-family="Times,serif" font-size="14.00">from_bcs</text>
</g>
<!-- voting&#45;&gt;from_bcs -->
<g id="edge8" class="edge">
<title>voting&#45;&gt;from_bcs</title>
<path fill="none" stroke="black" d="M482.51,-519.92C399.82,-516.72 188.42,-505.02 130,-468 107.39,-453.67 91.78,-426.99 82.49,-406.56"/>
<polygon fill="black" stroke="black" points="85.71,-405.19 78.57,-397.37 79.28,-407.94 85.71,-405.19"/>
</g>
<!-- event -->
<g id="node10" class="node">
<title>event</title>
<ellipse fill="none" stroke="black" cx="428" cy="-378" rx="29.8" ry="18"/>
<text text-anchor="middle" x="428" y="-374.3" font-family="Times,serif" font-size="14.00">event</text>
</g>
<!-- voting&#45;&gt;event -->
<g id="edge9" class="edge">
<title>voting&#45;&gt;event</title>
<path fill="none" stroke="black" d="M500.29,-505.76C490.47,-495.67 478.01,-481.8 469,-468 456.29,-448.54 445.47,-424.5 438.14,-406.31"/>
<polygon fill="black" stroke="black" points="441.49,-405.28 434.59,-397.24 434.97,-407.83 441.49,-405.28"/>
</g>
<!-- account -->
<g id="node11" class="node">
<title>account</title>
<ellipse fill="none" stroke="black" cx="516" cy="-450" rx="38.19" ry="18"/>
<text text-anchor="middle" x="516" y="-446.3" font-family="Times,serif" font-size="14.00">account</text>
</g>
<!-- voting&#45;&gt;account -->
<g id="edge10" class="edge">
<title>voting&#45;&gt;account</title>
<path fill="none" stroke="black" d="M516,-503.7C516,-496.41 516,-487.73 516,-479.54"/>
<polygon fill="black" stroke="black" points="519.5,-479.62 516,-469.62 512.5,-479.62 519.5,-479.62"/>
</g>
<!-- transaction_context -->
<g id="node12" class="node">
<title>transaction_context</title>
<ellipse fill="none" stroke="black" cx="1161" cy="-450" rx="79.09" ry="18"/>
<text text-anchor="middle" x="1161" y="-446.3" font-family="Times,serif" font-size="14.00">transaction_context</text>
</g>
<!-- voting&#45;&gt;transaction_context -->
<g id="edge11" class="edge">
<title>voting&#45;&gt;transaction_context</title>
<path fill="none" stroke="black" d="M549.09,-518.81C634.99,-512.91 872.04,-495.27 1068,-468 1075.62,-466.94 1083.58,-465.7 1091.48,-464.37"/>
<polygon fill="black" stroke="black" points="1091.83,-467.87 1101.09,-462.72 1090.64,-460.97 1091.83,-467.87"/>
</g>
<!-- timestamp -->
<g id="node13" class="node">
<title>timestamp</title>
<ellipse fill="none" stroke="black" cx="978" cy="-450" rx="48.19" ry="18"/>
<text text-anchor="middle" x="978" y="-446.3" font-family="Times,serif" font-size="14.00">timestamp</text>
</g>
<!-- voting&#45;&gt;timestamp -->
<g id="edge12" class="edge">
<title>voting&#45;&gt;timestamp</title>
<path fill="none" stroke="black" d="M547.76,-516.19C625.31,-504.44 825.16,-474.16 922.74,-459.37"/>
<polygon fill="black" stroke="black" points="922.97,-462.88 932.34,-457.92 921.93,-455.96 922.97,-462.88"/>
</g>
<!-- simple_map -->
<g id="node14" class="node">
<title>simple_map</title>
<ellipse fill="none" stroke="black" cx="869" cy="-378" rx="54.69" ry="18"/>
<text text-anchor="middle" x="869" y="-374.3" font-family="Times,serif" font-size="14.00">simple_map</text>
</g>
<!-- voting&#45;&gt;simple_map -->
<g id="edge13" class="edge">
<title>voting&#45;&gt;simple_map</title>
<path fill="none" stroke="black" d="M542.24,-510.44C602.32,-486.27 750.39,-426.71 824.8,-396.78"/>
<polygon fill="black" stroke="black" points="825.86,-400.13 833.83,-393.15 823.24,-393.63 825.86,-400.13"/>
</g>
<!-- vector -->
<g id="node15" class="node">
<title>vector</title>
<ellipse fill="none" stroke="black" cx="332" cy="-18" rx="32.49" ry="18"/>
<text text-anchor="middle" x="332" y="-14.3" font-family="Times,serif" font-size="14.00">vector</text>
</g>
<!-- option&#45;&gt;vector -->
<g id="edge14" class="edge">
<title>option&#45;&gt;vector</title>
<path fill="none" stroke="black" d="M594.75,-81.77C541.73,-69.11 432.01,-42.89 372.5,-28.68"/>
<polygon fill="black" stroke="black" points="373.66,-25.36 363.12,-26.44 372.04,-32.16 373.66,-25.36"/>
</g>
<!-- string&#45;&gt;option -->
<g id="edge16" class="edge">
<title>string&#45;&gt;option</title>
<path fill="none" stroke="black" d="M284.95,-155.51C349.84,-143.2 507.11,-113.36 582.86,-98.99"/>
<polygon fill="black" stroke="black" points="583.19,-102.49 592.37,-97.19 581.89,-95.62 583.19,-102.49"/>
</g>
<!-- string&#45;&gt;vector -->
<g id="edge15" class="edge">
<title>string&#45;&gt;vector</title>
<path fill="none" stroke="black" d="M264.87,-144.43C277.91,-120.06 302.4,-74.31 317.92,-45.32"/>
<polygon fill="black" stroke="black" points="320.84,-47.26 322.48,-36.8 314.67,-43.96 320.84,-47.26"/>
</g>
<!-- type_info&#45;&gt;string -->
<g id="edge17" class="edge">
<title>type_info&#45;&gt;string</title>
<path fill="none" stroke="black" d="M256,-215.7C256,-208.41 256,-199.73 256,-191.54"/>
<polygon fill="black" stroke="black" points="259.5,-191.62 256,-181.62 252.5,-191.62 259.5,-191.62"/>
</g>
<!-- from_bcs&#45;&gt;string -->
<g id="edge18" class="edge">
<title>from_bcs&#45;&gt;string</title>
<path fill="none" stroke="black" d="M81.49,-360.2C92.24,-341.75 110.78,-311.6 130,-288 161.82,-248.93 204.39,-208.77 231.01,-184.86"/>
<polygon fill="black" stroke="black" points="233.11,-187.67 238.25,-178.4 228.46,-182.44 233.11,-187.67"/>
</g>
<!-- event&#45;&gt;bcs -->
<g id="edge19" class="edge">
<title>event&#45;&gt;bcs</title>
<path fill="none" stroke="black" d="M422.74,-360.13C417.88,-341.07 413.27,-309.85 427,-288 442.84,-262.78 474.42,-249.28 499.7,-242.23"/>
<polygon fill="black" stroke="black" points="500.48,-245.64 509.32,-239.8 498.77,-238.86 500.48,-245.64"/>
</g>
<!-- guid -->
<g id="node16" class="node">
<title>guid</title>
<ellipse fill="none" stroke="black" cx="463" cy="-306" rx="27" ry="18"/>
<text text-anchor="middle" x="463" y="-302.3" font-family="Times,serif" font-size="14.00">guid</text>
</g>
<!-- event&#45;&gt;guid -->
<g id="edge20" class="edge">
<title>event&#45;&gt;guid</title>
<path fill="none" stroke="black" d="M436.29,-360.41C440.3,-352.39 445.22,-342.57 449.73,-333.54"/>
<polygon fill="black" stroke="black" points="452.75,-335.33 454.09,-324.82 446.49,-332.2 452.75,-335.33"/>
</g>
<!-- account&#45;&gt;option -->
<g id="edge22" class="edge">
<title>account&#45;&gt;option</title>
<path fill="none" stroke="black" d="M480.19,-443.38C451.29,-436.94 411.82,-423.48 389,-396 363.16,-364.88 370,-347.45 370,-307 370,-307 370,-307 370,-233 370,-137.52 508.14,-105.67 581.07,-95.5"/>
<polygon fill="black" stroke="black" points="581.22,-99.01 590.68,-94.25 580.32,-92.07 581.22,-99.01"/>
</g>
<!-- account&#45;&gt;type_info -->
<g id="edge23" class="edge">
<title>account&#45;&gt;type_info</title>
<path fill="none" stroke="black" d="M477.65,-448.69C433.83,-446.31 362.45,-435.97 318,-396 279.38,-361.27 264.63,-299.73 259.14,-263.62"/>
<polygon fill="black" stroke="black" points="262.63,-263.36 257.81,-253.93 255.7,-264.31 262.63,-263.36"/>
</g>
<!-- account&#45;&gt;table -->
<g id="edge24" class="edge">
<title>account&#45;&gt;table</title>
<path fill="none" stroke="black" d="M479.56,-444.24C426.55,-436.81 325.39,-420.69 242,-396 239.06,-395.13 236.04,-394.13 233.04,-393.06"/>
<polygon fill="black" stroke="black" points="234.39,-389.83 223.8,-389.53 231.89,-396.37 234.39,-389.83"/>
</g>
<!-- account&#45;&gt;signer -->
<g id="edge25" class="edge">
<title>account&#45;&gt;signer</title>
<path fill="none" stroke="black" d="M553.99,-447.31C648.53,-442.67 892.05,-427.89 966,-396 988.89,-386.13 987.63,-372.83 1009,-360 1038.17,-342.48 1074.18,-328.39 1101.06,-319.15"/>
<polygon fill="black" stroke="black" points="1102.17,-322.47 1110.54,-315.98 1099.95,-315.84 1102.17,-322.47"/>
</g>
<!-- account&#45;&gt;error -->
<g id="edge26" class="edge">
<title>account&#45;&gt;error</title>
<path fill="none" stroke="black" d="M554.09,-447.49C644.1,-443.39 867.3,-430.01 933,-396 952.28,-386.02 950.31,-375 966,-360 984.02,-342.78 994.63,-344.37 1009,-324 1021.92,-305.69 1030.43,-281.71 1035.56,-263.26"/>
<polygon fill="black" stroke="black" points="1038.9,-264.34 1038.02,-253.79 1032.12,-262.59 1038.9,-264.34"/>
</g>
<!-- account&#45;&gt;bcs -->
<g id="edge29" class="edge">
<title>account&#45;&gt;bcs</title>
<path fill="none" stroke="black" d="M517.68,-431.85C521.28,-395.14 529.77,-308.66 534.2,-263.53"/>
<polygon fill="black" stroke="black" points="537.67,-264.03 535.16,-253.74 530.7,-263.35 537.67,-264.03"/>
</g>
<!-- account&#45;&gt;from_bcs -->
<g id="edge33" class="edge">
<title>account&#45;&gt;from_bcs</title>
<path fill="none" stroke="black" d="M479.6,-443.97C415.5,-435.02 278.35,-415.43 163,-396 149.88,-393.79 135.74,-391.23 122.6,-388.78"/>
<polygon fill="black" stroke="black" points="123.32,-385.36 112.85,-386.95 122.03,-392.24 123.32,-385.36"/>
</g>
<!-- account&#45;&gt;event -->
<g id="edge34" class="edge">
<title>account&#45;&gt;event</title>
<path fill="none" stroke="black" d="M497.34,-434.15C484.76,-424.15 467.98,-410.8 454.08,-399.75"/>
<polygon fill="black" stroke="black" points="456.63,-397.3 446.62,-393.81 452.27,-402.78 456.63,-397.3"/>
</g>
<!-- account&#45;&gt;vector -->
<g id="edge21" class="edge">
<title>account&#45;&gt;vector</title>
<path fill="none" stroke="black" d="M482.62,-440.71C443.8,-430.49 382.86,-412.44 366,-396 335.68,-366.44 332,-349.34 332,-307 332,-307 332,-307 332,-161 332,-121.74 332,-76.38 332,-47.69"/>
<polygon fill="black" stroke="black" points="335.5,-48 332,-38 328.5,-48 335.5,-48"/>
</g>
<!-- account&#45;&gt;guid -->
<g id="edge32" class="edge">
<title>account&#45;&gt;guid</title>
<path fill="none" stroke="black" d="M509.61,-431.87C500.57,-407.65 483.95,-363.12 473.19,-334.31"/>
<polygon fill="black" stroke="black" points="476.56,-333.31 469.78,-325.17 470,-335.76 476.56,-333.31"/>
</g>
<!-- system_addresses -->
<g id="node17" class="node">
<title>system_addresses</title>
<ellipse fill="none" stroke="black" cx="1091" cy="-378" rx="73.39" ry="18"/>
<text text-anchor="middle" x="1091" y="-374.3" font-family="Times,serif" font-size="14.00">system_addresses</text>
</g>
<!-- account&#45;&gt;system_addresses -->
<g id="edge27" class="edge">
<title>account&#45;&gt;system_addresses</title>
<path fill="none" stroke="black" d="M553.49,-446.02C635.47,-439.26 836.75,-421.38 1004,-396 1010.89,-394.95 1018.06,-393.75 1025.21,-392.47"/>
<polygon fill="black" stroke="black" points="1025.67,-395.94 1034.87,-390.69 1024.4,-389.06 1025.67,-395.94"/>
</g>
<!-- hash -->
<g id="node18" class="node">
<title>hash</title>
<ellipse fill="none" stroke="black" cx="694" cy="-234" rx="27" ry="18"/>
<text text-anchor="middle" x="694" y="-230.3" font-family="Times,serif" font-size="14.00">hash</text>
</g>
<!-- account&#45;&gt;hash -->
<g id="edge28" class="edge">
<title>account&#45;&gt;hash</title>
<path fill="none" stroke="black" d="M541.5,-436.37C577.31,-417.23 641.83,-377.39 675,-324 686.28,-305.83 690.95,-282 692.84,-263.57"/>
<polygon fill="black" stroke="black" points="696.31,-264.1 693.6,-253.86 689.33,-263.55 696.31,-264.1"/>
</g>
<!-- ed25519 -->
<g id="node19" class="node">
<title>ed25519</title>
<ellipse fill="none" stroke="black" cx="625" cy="-306" rx="40.89" ry="18"/>
<text text-anchor="middle" x="625" y="-302.3" font-family="Times,serif" font-size="14.00">ed25519</text>
</g>
<!-- account&#45;&gt;ed25519 -->
<g id="edge30" class="edge">
<title>account&#45;&gt;ed25519</title>
<path fill="none" stroke="black" d="M528.5,-432.71C547.38,-408.13 583.29,-361.33 605.59,-332.29"/>
<polygon fill="black" stroke="black" points="608.07,-334.8 611.38,-324.74 602.52,-330.54 608.07,-334.8"/>
</g>
<!-- multi_ed25519 -->
<g id="node20" class="node">
<title>multi_ed25519</title>
<ellipse fill="none" stroke="black" cx="732" cy="-378" rx="64.19" ry="18"/>
<text text-anchor="middle" x="732" y="-374.3" font-family="Times,serif" font-size="14.00">multi_ed25519</text>
</g>
<!-- account&#45;&gt;multi_ed25519 -->
<g id="edge31" class="edge">
<title>account&#45;&gt;multi_ed25519</title>
<path fill="none" stroke="black" d="M546.95,-438.97C581.75,-427.69 638.83,-409.2 680.4,-395.72"/>
<polygon fill="black" stroke="black" points="681.27,-399.12 689.71,-392.71 679.12,-392.46 681.27,-399.12"/>
</g>
<!-- timestamp&#45;&gt;error -->
<g id="edge35" class="edge">
<title>timestamp&#45;&gt;error</title>
<path fill="none" stroke="black" d="M1019.36,-440.34C1073.55,-428.61 1162.9,-407.79 1173,-396 1204.3,-359.44 1208.31,-327.64 1181,-288 1158.72,-255.66 1113.86,-243.04 1081.11,-238.12"/>
<polygon fill="black" stroke="black" points="1081.96,-234.7 1071.59,-236.88 1081.05,-241.64 1081.96,-234.7"/>
</g>
<!-- timestamp&#45;&gt;system_addresses -->
<g id="edge36" class="edge">
<title>timestamp&#45;&gt;system_addresses</title>
<path fill="none" stroke="black" d="M1002.24,-433.98C1017.64,-424.45 1037.84,-411.93 1055.08,-401.25"/>
<polygon fill="black" stroke="black" points="1056.88,-404.25 1063.54,-396.01 1053.2,-398.3 1056.88,-404.25"/>
</g>
<!-- simple_map&#45;&gt;option -->
<g id="edge37" class="edge">
<title>simple_map&#45;&gt;option</title>
<path fill="none" stroke="black" d="M876.89,-359.75C881.11,-349.58 885.86,-336.33 888,-324 896.74,-273.72 880.94,-255.8 849,-216 818.43,-177.92 807.96,-168.98 766,-144 734.26,-125.1 694.62,-110.92 665.46,-102.01"/>
<polygon fill="black" stroke="black" points="666.48,-98.66 655.9,-99.17 664.49,-105.37 666.48,-98.66"/>
</g>
<!-- simple_map&#45;&gt;error -->
<g id="edge38" class="edge">
<title>simple_map&#45;&gt;error</title>
<path fill="none" stroke="black" d="M906.77,-364.58C929.67,-355.76 958.51,-342.24 980,-324 1000.59,-306.52 1017.57,-280.69 1028.52,-261.35"/>
<polygon fill="black" stroke="black" points="1031.53,-263.15 1033.25,-252.7 1025.38,-259.8 1031.53,-263.15"/>
</g>
<!-- comparator -->
<g id="node21" class="node">
<title>comparator</title>
<ellipse fill="none" stroke="black" cx="811" cy="-306" rx="51.19" ry="18"/>
<text text-anchor="middle" x="811" y="-302.3" font-family="Times,serif" font-size="14.00">comparator</text>
</g>
<!-- simple_map&#45;&gt;comparator -->
<g id="edge39" class="edge">
<title>simple_map&#45;&gt;comparator</title>
<path fill="none" stroke="black" d="M855.25,-360.41C848.25,-351.95 839.58,-341.49 831.78,-332.08"/>
<polygon fill="black" stroke="black" points="834.69,-330.1 825.61,-324.64 829.3,-334.57 834.69,-330.1"/>
</g>
<!-- system_addresses&#45;&gt;signer -->
<g id="edge40" class="edge">
<title>system_addresses&#45;&gt;signer</title>
<path fill="none" stroke="black" d="M1102.86,-360.05C1108.6,-351.85 1115.62,-341.83 1122,-332.71"/>
<polygon fill="black" stroke="black" points="1124.85,-334.75 1127.72,-324.55 1119.12,-330.73 1124.85,-334.75"/>
</g>
<!-- system_addresses&#45;&gt;error -->
<g id="edge41" class="edge">
<title>system_addresses&#45;&gt;error</title>
<path fill="none" stroke="black" d="M1084.99,-359.59C1076.6,-335.27 1061.29,-290.89 1051.38,-262.19"/>
<polygon fill="black" stroke="black" points="1054.82,-261.41 1048.25,-253.1 1048.2,-263.7 1054.82,-261.41"/>
</g>
<!-- ed25519&#45;&gt;option -->
<g id="edge42" class="edge">
<title>ed25519&#45;&gt;option</title>
<path fill="none" stroke="black" d="M625,-287.85C625,-251.14 625,-164.66 625,-119.53"/>
<polygon fill="black" stroke="black" points="628.5,-119.75 625,-109.75 621.5,-119.75 628.5,-119.75"/>
</g>
<!-- ed25519&#45;&gt;type_info -->
<g id="edge43" class="edge">
<title>ed25519&#45;&gt;type_info</title>
<path fill="none" stroke="black" d="M587.93,-297.97C521.44,-285.35 381.84,-258.87 306.6,-244.6"/>
<polygon fill="black" stroke="black" points="307.51,-241.21 297.03,-242.78 306.21,-248.09 307.51,-241.21"/>
</g>
<!-- ed25519&#45;&gt;error -->
<g id="edge44" class="edge">
<title>ed25519&#45;&gt;error</title>
<path fill="none" stroke="black" d="M662.74,-298.66C741.95,-285.37 924.73,-254.69 1004.09,-241.36"/>
<polygon fill="black" stroke="black" points="1004.24,-244.89 1013.53,-239.78 1003.08,-237.98 1004.24,-244.89"/>
</g>
<!-- ed25519&#45;&gt;bcs -->
<g id="edge46" class="edge">
<title>ed25519&#45;&gt;bcs</title>
<path fill="none" stroke="black" d="M605.91,-289.81C593.34,-279.81 576.73,-266.6 562.96,-255.65"/>
<polygon fill="black" stroke="black" points="565.16,-252.93 555.16,-249.45 560.81,-258.41 565.16,-252.93"/>
</g>
<!-- ed25519&#45;&gt;hash -->
<g id="edge45" class="edge">
<title>ed25519&#45;&gt;hash</title>
<path fill="none" stroke="black" d="M640.66,-289.12C649.85,-279.79 661.62,-267.85 671.77,-257.56"/>
<polygon fill="black" stroke="black" points="674.22,-260.05 678.75,-250.47 669.24,-255.14 674.22,-260.05"/>
</g>
<!-- multi_ed25519&#45;&gt;option -->
<g id="edge47" class="edge">
<title>multi_ed25519&#45;&gt;option</title>
<path fill="none" stroke="black" d="M778.83,-365.27C814.79,-355.2 860.08,-339.84 871,-324 880.08,-310.82 877.93,-302.42 871,-288 827.05,-196.49 717.58,-134.14 660.66,-106.76"/>
<polygon fill="black" stroke="black" points="662.25,-103.64 651.71,-102.54 659.26,-109.97 662.25,-103.64"/>
</g>
<!-- multi_ed25519&#45;&gt;error -->
<g id="edge48" class="edge">
<title>multi_ed25519&#45;&gt;error</title>
<path fill="none" stroke="black" d="M780.39,-365.88C815.6,-356.89 863.92,-342.67 904,-324 945.2,-304.81 988.6,-275.01 1015.49,-255.25"/>
<polygon fill="black" stroke="black" points="1017.46,-258.14 1023.4,-249.37 1013.28,-252.53 1017.46,-258.14"/>
</g>
<!-- multi_ed25519&#45;&gt;bcs -->
<g id="edge50" class="edge">
<title>multi_ed25519&#45;&gt;bcs</title>
<path fill="none" stroke="black" d="M674.91,-369.5C642.2,-362.56 602.35,-349.3 575,-324 557.66,-307.96 547.9,-282.69 542.63,-263.17"/>
<polygon fill="black" stroke="black" points="546.08,-262.53 540.32,-253.64 539.28,-264.18 546.08,-262.53"/>
</g>
<!-- multi_ed25519&#45;&gt;hash -->
<g id="edge49" class="edge">
<title>multi_ed25519&#45;&gt;hash</title>
<path fill="none" stroke="black" d="M727.34,-359.59C720.9,-335.5 709.19,-291.75 701.5,-263.03"/>
<polygon fill="black" stroke="black" points="704.94,-262.33 698.97,-253.57 698.17,-264.14 704.94,-262.33"/>
</g>
<!-- multi_ed25519&#45;&gt;ed25519 -->
<g id="edge51" class="edge">
<title>multi_ed25519&#45;&gt;ed25519</title>
<path fill="none" stroke="black" d="M707.45,-360.94C692.43,-351.11 673.05,-338.43 656.85,-327.84"/>
<polygon fill="black" stroke="black" points="658.8,-324.93 648.52,-322.38 654.97,-330.79 658.8,-324.93"/>
</g>
<!-- comparator&#45;&gt;bcs -->
<g id="edge52" class="edge">
<title>comparator&#45;&gt;bcs</title>
<path fill="none" stroke="black" d="M770.57,-294.67C717.26,-281.05 624.26,-257.29 573.17,-244.24"/>
<polygon fill="black" stroke="black" points="574.06,-240.85 563.5,-241.77 572.32,-247.64 574.06,-240.85"/>
</g>
</g>
</svg>
