<?xml version="1.0" encoding="UTF-8" standalone="no"?>
<!DOCTYPE svg PUBLIC "-//W3C//DTD SVG 1.1//EN"
 "http://www.w3.org/Graphics/SVG/1.1/DTD/svg11.dtd">
<!-- Generated by graphviz version 7.0.0 (20221023.0053)
 -->
<!-- Title: G Pages: 1 -->
<svg width="1594pt" height="459pt"
 viewBox="0.00 0.00 1594.00 459.00" xmlns="http://www.w3.org/2000/svg" xmlns:xlink="http://www.w3.org/1999/xlink">
<g id="graph0" class="graph" transform="scale(1 1) rotate(0) translate(4 455)">
<title>G</title>
<polygon fill="white" stroke="none" points="-4,4 -4,-455 1590,-455 1590,4 -4,4"/>
<g id="clust1" class="cluster">
<title>cluster_string</title>
<polygon fill="none" stroke="black" points="8,-257 8,-407 186,-407 186,-257 8,-257"/>
<text text-anchor="middle" x="97" y="-391.8" font-family="Times,serif" font-size="14.00">string</text>
</g>
<g id="clust2" class="cluster">
<title>cluster_table</title>
<polygon fill="none" stroke="black" points="194,-257 194,-407 354,-407 354,-257 194,-257"/>
<text text-anchor="middle" x="274" y="-391.8" font-family="Times,serif" font-size="14.00">table</text>
</g>
<g id="clust3" class="cluster">
<title>cluster_error</title>
<polygon fill="none" stroke="black" points="362,-174 362,-332 654,-332 654,-174 362,-174"/>
<text text-anchor="middle" x="508" y="-316.8" font-family="Times,serif" font-size="14.00">error</text>
</g>
<g id="clust4" class="cluster">
<title>cluster_bcs</title>
<polygon fill="none" stroke="black" points="1329,-91 1329,-166 1425,-166 1425,-91 1329,-91"/>
<text text-anchor="middle" x="1377" y="-150.8" font-family="Times,serif" font-size="14.00">bcs</text>
</g>
<g id="clust5" class="cluster">
<title>cluster_event</title>
<polygon fill="none" stroke="black" points="1173,-257 1173,-407 1359,-407 1359,-257 1173,-257"/>
<text text-anchor="middle" x="1266" y="-391.8" font-family="Times,serif" font-size="14.00">event</text>
</g>
<g id="clust6" class="cluster">
<title>cluster_timestamp</title>
<polygon fill="none" stroke="black" points="1404,-174 1404,-332 1578,-332 1578,-174 1404,-174"/>
<text text-anchor="middle" x="1491" y="-316.8" font-family="Times,serif" font-size="14.00">timestamp</text>
</g>
<g id="clust7" class="cluster">
<title>cluster_simple_map</title>
<polygon fill="none" stroke="black" points="667,-257 667,-407 997,-407 997,-257 667,-257"/>
<text text-anchor="middle" x="832" y="-391.8" font-family="Times,serif" font-size="14.00">simple_map</text>
</g>
<g id="clust8" class="cluster">
<title>cluster_option</title>
<polygon fill="none" stroke="black" points="730,-91 730,-249 1061,-249 1061,-91 730,-91"/>
<text text-anchor="middle" x="895.5" y="-233.8" font-family="Times,serif" font-size="14.00">option</text>
</g>
<g id="clust9" class="cluster">
<title>cluster_vector</title>
<polygon fill="none" stroke="black" points="793,-8 793,-83 1000,-83 1000,-8 793,-8"/>
<text text-anchor="middle" x="896.5" y="-67.8" font-family="Times,serif" font-size="14.00">vector</text>
</g>
<g id="clust10" class="cluster">
<title>cluster_comparator</title>
<polygon fill="none" stroke="black" points="1069,-91 1069,-249 1321,-249 1321,-91 1069,-91"/>
<text text-anchor="middle" x="1195" y="-233.8" font-family="Times,serif" font-size="14.00">comparator</text>
</g>
<!-- vote -->
<g id="node1" class="node">
<title>vote</title>
<ellipse fill="none" stroke="black" cx="881" cy="-433" rx="27" ry="18"/>
<text text-anchor="middle" x="881" y="-429.3" font-family="Times,serif" font-size="14.00">vote</text>
</g>
<!-- string::utf8 -->
<g id="node2" class="node">
<title>string::utf8</title>
<ellipse fill="none" stroke="black" cx="124" cy="-358" rx="27" ry="18"/>
<text text-anchor="middle" x="124" y="-354.3" font-family="Times,serif" font-size="14.00">utf8</text>
</g>
<!-- vote&#45;&gt;string::utf8 -->
<g id="edge1" class="edge">
<title>vote&#45;&gt;string::utf8</title>
<path fill="none" stroke="black" d="M853.89,-431.95C733.86,-431.62 253.47,-428.92 190,-407 174.1,-401.51 158.75,-390.79 146.86,-380.87"/>
<polygon fill="black" stroke="black" points="149.46,-378.49 139.63,-374.53 144.85,-383.75 149.46,-378.49"/>
</g>
<!-- table::borrow_mut -->
<g id="node3" class="node">
<title>table::borrow_mut</title>
<ellipse fill="none" stroke="black" cx="282" cy="-358" rx="54.69" ry="18"/>
<text text-anchor="middle" x="282" y="-354.3" font-family="Times,serif" font-size="14.00">borrow_mut</text>
</g>
<!-- vote&#45;&gt;table::borrow_mut -->
<g id="edge2" class="edge">
<title>vote&#45;&gt;table::borrow_mut</title>
<path fill="none" stroke="black" d="M853.86,-431.29C793.8,-429.47 645.22,-423.54 522,-407 457.67,-398.36 384.66,-382.94 336.23,-371.91"/>
<polygon fill="black" stroke="black" points="337.08,-368.51 326.55,-369.69 335.51,-375.34 337.08,-368.51"/>
</g>
<!-- error::invalid_state -->
<g id="node4" class="node">
<title>error::invalid_state</title>
<ellipse fill="none" stroke="black" cx="426" cy="-283" rx="55.79" ry="18"/>
<text text-anchor="middle" x="426" y="-279.3" font-family="Times,serif" font-size="14.00">invalid_state</text>
</g>
<!-- vote&#45;&gt;error::invalid_state -->
<g id="edge3" class="edge">
<title>vote&#45;&gt;error::invalid_state</title>
<path fill="none" stroke="black" d="M853.67,-431.45C811.89,-430.04 729.96,-425 663,-407 582.46,-385.34 563.22,-373.7 491,-332 478.38,-324.71 465.29,-315.43 454.2,-306.98"/>
<polygon fill="black" stroke="black" points="456.64,-304.44 446.6,-301.06 452.34,-309.97 456.64,-304.44"/>
</g>
<!-- bcs::to_bytes -->
<g id="node5" class="node">
<title>bcs::to_bytes</title>
<ellipse fill="none" stroke="black" cx="1377" cy="-117" rx="40.09" ry="18"/>
<text text-anchor="middle" x="1377" y="-113.3" font-family="Times,serif" font-size="14.00">to_bytes</text>
</g>
<!-- vote&#45;&gt;bcs::to_bytes -->
<g id="edge4" class="edge">
<title>vote&#45;&gt;bcs::to_bytes</title>
<path fill="none" stroke="black" d="M908.06,-430.38C933.28,-427.96 971.36,-421.95 1001,-407 1090.37,-361.92 1076.42,-295.06 1169,-257 1185.05,-250.4 1310.9,-259.11 1325,-249 1358,-225.33 1370.07,-177.29 1374.48,-146.43"/>
<polygon fill="black" stroke="black" points="1377.93,-147 1375.67,-136.65 1370.98,-146.15 1377.93,-147"/>
</g>
<!-- event::emit_event -->
<g id="node6" class="node">
<title>event::emit_event</title>
<ellipse fill="none" stroke="black" cx="1266" cy="-358" rx="50.09" ry="18"/>
<text text-anchor="middle" x="1266" y="-354.3" font-family="Times,serif" font-size="14.00">emit_event</text>
</g>
<!-- vote&#45;&gt;event::emit_event -->
<g id="edge5" class="edge">
<title>vote&#45;&gt;event::emit_event</title>
<path fill="none" stroke="black" d="M908.24,-430.88C969.94,-428.14 1118.71,-420.33 1167,-407 1189.42,-400.81 1212.91,-389.65 1231.38,-379.64"/>
<polygon fill="black" stroke="black" points="1233,-382.75 1240.04,-374.83 1229.6,-376.63 1233,-382.75"/>
</g>
<!-- timestamp::now_seconds -->
<g id="node7" class="node">
<title>timestamp::now_seconds</title>
<ellipse fill="none" stroke="black" cx="1491" cy="-283" rx="57.69" ry="18"/>
<text text-anchor="middle" x="1491" y="-279.3" font-family="Times,serif" font-size="14.00">now_seconds</text>
</g>
<!-- vote&#45;&gt;timestamp::now_seconds -->
<g id="edge6" class="edge">
<title>vote&#45;&gt;timestamp::now_seconds</title>
<path fill="none" stroke="black" d="M908.18,-432.18C1004.37,-432.58 1324.99,-432.03 1363,-407 1390.72,-388.74 1373.42,-364.33 1396,-340 1410.26,-324.63 1429.7,-312.16 1447.29,-302.93"/>
<polygon fill="black" stroke="black" points="1448.65,-306.16 1456.02,-298.54 1445.51,-299.9 1448.65,-306.16"/>
</g>
<!-- simple_map::borrow_mut -->
<g id="node8" class="node">
<title>simple_map::borrow_mut</title>
<ellipse fill="none" stroke="black" cx="730" cy="-358" rx="54.69" ry="18"/>
<text text-anchor="middle" x="730" y="-354.3" font-family="Times,serif" font-size="14.00">borrow_mut</text>
</g>
<!-- vote&#45;&gt;simple_map::borrow_mut -->
<g id="edge7" class="edge">
<title>vote&#45;&gt;simple_map::borrow_mut</title>
<path fill="none" stroke="black" d="M854.96,-427.12C837.18,-423.17 813.42,-416.66 794,-407 780.89,-400.48 767.71,-391.18 756.76,-382.5"/>
<polygon fill="black" stroke="black" points="759.25,-380.02 749.3,-376.39 754.82,-385.44 759.25,-380.02"/>
</g>
<!-- simple_map::add -->
<g id="node9" class="node">
<title>simple_map::add</title>
<ellipse fill="none" stroke="black" cx="830" cy="-358" rx="27" ry="18"/>
<text text-anchor="middle" x="830" y="-354.3" font-family="Times,serif" font-size="14.00">add</text>
</g>
<!-- vote&#45;&gt;simple_map::add -->
<g id="edge8" class="edge">
<title>vote&#45;&gt;simple_map::add</title>
<path fill="none" stroke="black" d="M869.93,-416.16C863.38,-406.79 854.94,-394.7 847.51,-384.06"/>
<polygon fill="black" stroke="black" points="850.51,-382.24 841.91,-376.05 844.77,-386.25 850.51,-382.24"/>
</g>
<!-- simple_map::contains_key -->
<g id="node10" class="node">
<title>simple_map::contains_key</title>
<ellipse fill="none" stroke="black" cx="932" cy="-358" rx="57.39" ry="18"/>
<text text-anchor="middle" x="932" y="-354.3" font-family="Times,serif" font-size="14.00">contains_key</text>
</g>
<!-- vote&#45;&gt;simple_map::contains_key -->
<g id="edge9" class="edge">
<title>vote&#45;&gt;simple_map::contains_key</title>
<path fill="none" stroke="black" d="M892.07,-416.16C898.33,-407.2 906.32,-395.76 913.5,-385.47"/>
<polygon fill="black" stroke="black" points="916.34,-387.52 919.2,-377.32 910.6,-383.52 916.34,-387.52"/>
</g>
<!-- is_voting_period_over -->
<g id="node11" class="node">
<title>is_voting_period_over</title>
<ellipse fill="none" stroke="black" cx="1495" cy="-358" rx="90.18" ry="18"/>
<text text-anchor="middle" x="1495" y="-354.3" font-family="Times,serif" font-size="14.00">is_voting_period_over</text>
</g>
<!-- vote&#45;&gt;is_voting_period_over -->
<g id="edge10" class="edge">
<title>vote&#45;&gt;is_voting_period_over</title>
<path fill="none" stroke="black" d="M908.29,-432.03C1000.25,-431.92 1298.24,-429.77 1391,-407 1413.81,-401.4 1437.72,-390.75 1456.85,-380.9"/>
<polygon fill="black" stroke="black" points="1458.41,-384.03 1465.61,-376.26 1455.13,-377.85 1458.41,-384.03"/>
</g>
<!-- string::internal_check_utf8 -->
<g id="node12" class="node">
<title>string::internal_check_utf8</title>
<ellipse fill="none" stroke="black" cx="97" cy="-283" rx="81.49" ry="18"/>
<text text-anchor="middle" x="97" y="-279.3" font-family="Times,serif" font-size="14.00">internal_check_utf8</text>
</g>
<!-- string::utf8&#45;&gt;string::internal_check_utf8 -->
<g id="edge11" class="edge">
<title>string::utf8&#45;&gt;string::internal_check_utf8</title>
<path fill="none" stroke="black" d="M117.74,-340.07C114.65,-331.71 110.84,-321.42 107.33,-311.94"/>
<polygon fill="black" stroke="black" points="110.69,-310.93 103.94,-302.77 104.13,-313.36 110.69,-310.93"/>
</g>
<!-- table::borrow_box_mut -->
<g id="node13" class="node">
<title>table::borrow_box_mut</title>
<ellipse fill="none" stroke="black" cx="274" cy="-283" rx="72.29" ry="18"/>
<text text-anchor="middle" x="274" y="-279.3" font-family="Times,serif" font-size="14.00">borrow_box_mut</text>
</g>
<!-- table::borrow_mut&#45;&gt;table::borrow_box_mut -->
<g id="edge12" class="edge">
<title>table::borrow_mut&#45;&gt;table::borrow_box_mut</title>
<path fill="none" stroke="black" d="M280.1,-339.7C279.22,-331.67 278.15,-321.9 277.16,-312.8"/>
<polygon fill="black" stroke="black" points="280.64,-312.49 276.07,-302.93 273.69,-313.26 280.64,-312.49"/>
</g>
<!-- error::canonical -->
<g id="node14" class="node">
<title>error::canonical</title>
<ellipse fill="none" stroke="black" cx="499" cy="-200" rx="44.39" ry="18"/>
<text text-anchor="middle" x="499" y="-196.3" font-family="Times,serif" font-size="14.00">canonical</text>
</g>
<!-- error::invalid_state&#45;&gt;error::canonical -->
<g id="edge13" class="edge">
<title>error::invalid_state&#45;&gt;error::canonical</title>
<path fill="none" stroke="black" d="M441.13,-265.22C451.44,-253.77 465.27,-238.42 476.83,-225.6"/>
<polygon fill="black" stroke="black" points="479.28,-228.1 483.38,-218.33 474.08,-223.42 479.28,-228.1"/>
</g>
<!-- event::emit_event&#45;&gt;bcs::to_bytes -->
<g id="edge14" class="edge">
<title>event::emit_event&#45;&gt;bcs::to_bytes</title>
<path fill="none" stroke="black" d="M1315.64,-355.01C1332.14,-351.75 1349.08,-345.1 1360,-332 1404.06,-279.17 1393.42,-191.27 1384.06,-146.34"/>
<polygon fill="black" stroke="black" points="1387.48,-145.6 1381.89,-136.6 1380.65,-147.12 1387.48,-145.6"/>
</g>
<!-- event::write_to_event_store -->
<g id="node15" class="node">
<title>event::write_to_event_store</title>
<ellipse fill="none" stroke="black" cx="1266" cy="-283" rx="85.29" ry="18"/>
<text text-anchor="middle" x="1266" y="-279.3" font-family="Times,serif" font-size="14.00">write_to_event_store</text>
</g>
<!-- event::emit_event&#45;&gt;event::write_to_event_store -->
<g id="edge15" class="edge">
<title>event::emit_event&#45;&gt;event::write_to_event_store</title>
<path fill="none" stroke="black" d="M1266,-339.7C1266,-331.67 1266,-321.9 1266,-312.8"/>
<polygon fill="black" stroke="black" points="1269.5,-312.94 1266,-302.94 1262.5,-312.94 1269.5,-312.94"/>
</g>
<!-- timestamp::now_microseconds -->
<g id="node16" class="node">
<title>timestamp::now_microseconds</title>
<ellipse fill="none" stroke="black" cx="1491" cy="-200" rx="79.09" ry="18"/>
<text text-anchor="middle" x="1491" y="-196.3" font-family="Times,serif" font-size="14.00">now_microseconds</text>
</g>
<!-- timestamp::now_seconds&#45;&gt;timestamp::now_microseconds -->
<g id="edge16" class="edge">
<title>timestamp::now_seconds&#45;&gt;timestamp::now_microseconds</title>
<path fill="none" stroke="black" d="M1491,-264.82C1491,-254.69 1491,-241.6 1491,-229.92"/>
<polygon fill="black" stroke="black" points="1494.5,-229.95 1491,-219.95 1487.5,-229.95 1494.5,-229.95"/>
</g>
<!-- option::extract -->
<g id="node17" class="node">
<title>option::extract</title>
<ellipse fill="none" stroke="black" cx="772" cy="-200" rx="34.39" ry="18"/>
<text text-anchor="middle" x="772" y="-196.3" font-family="Times,serif" font-size="14.00">extract</text>
</g>
<!-- simple_map::borrow_mut&#45;&gt;option::extract -->
<g id="edge17" class="edge">
<title>simple_map::borrow_mut&#45;&gt;option::extract</title>
<path fill="none" stroke="black" d="M733.77,-339.55C738.19,-319.52 745.95,-285.71 754,-257 756.6,-247.74 759.72,-237.7 762.63,-228.73"/>
<polygon fill="black" stroke="black" points="765.87,-230.09 765.67,-219.49 759.22,-227.89 765.87,-230.09"/>
</g>
<!-- option::is_some -->
<g id="node18" class="node">
<title>option::is_some</title>
<ellipse fill="none" stroke="black" cx="778" cy="-117" rx="40.09" ry="18"/>
<text text-anchor="middle" x="778" y="-113.3" font-family="Times,serif" font-size="14.00">is_some</text>
</g>
<!-- simple_map::borrow_mut&#45;&gt;option::is_some -->
<g id="edge18" class="edge">
<title>simple_map::borrow_mut&#45;&gt;option::is_some</title>
<path fill="none" stroke="black" d="M719.98,-340.01C701.53,-306.34 666.65,-229.58 696,-174 705.13,-156.7 722.28,-143.74 738.54,-134.67"/>
<polygon fill="black" stroke="black" points="739.86,-137.92 747.12,-130.21 736.63,-131.71 739.86,-137.92"/>
</g>
<!-- error::invalid_argument -->
<g id="node19" class="node">
<title>error::invalid_argument</title>
<ellipse fill="none" stroke="black" cx="573" cy="-283" rx="73.39" ry="18"/>
<text text-anchor="middle" x="573" y="-279.3" font-family="Times,serif" font-size="14.00">invalid_argument</text>
</g>
<!-- simple_map::borrow_mut&#45;&gt;error::invalid_argument -->
<g id="edge19" class="edge">
<title>simple_map::borrow_mut&#45;&gt;error::invalid_argument</title>
<path fill="none" stroke="black" d="M693.13,-344.24C683.24,-340.55 672.62,-336.34 663,-332 645.52,-324.12 626.73,-314.32 610.86,-305.63"/>
<polygon fill="black" stroke="black" points="612.66,-302.63 602.22,-300.85 609.27,-308.75 612.66,-302.63"/>
</g>
<!-- simple_map::find -->
<g id="node20" class="node">
<title>simple_map::find</title>
<ellipse fill="none" stroke="black" cx="949" cy="-283" rx="27" ry="18"/>
<text text-anchor="middle" x="949" y="-279.3" font-family="Times,serif" font-size="14.00">find</text>
</g>
<!-- simple_map::borrow_mut&#45;&gt;simple_map::find -->
<g id="edge20" class="edge">
<title>simple_map::borrow_mut&#45;&gt;simple_map::find</title>
<path fill="none" stroke="black" d="M767.15,-344.62C808.33,-330.89 874.23,-308.92 914.37,-295.54"/>
<polygon fill="black" stroke="black" points="915.4,-298.89 923.78,-292.41 913.19,-292.25 915.4,-298.89"/>
</g>
<!-- simple_map::add&#45;&gt;option::extract -->
<g id="edge21" class="edge">
<title>simple_map::add&#45;&gt;option::extract</title>
<path fill="none" stroke="black" d="M823.68,-340.01C813.7,-313.17 794.19,-260.69 782.21,-228.45"/>
<polygon fill="black" stroke="black" points="785.6,-227.54 778.84,-219.39 779.04,-229.98 785.6,-227.54"/>
</g>
<!-- simple_map::add&#45;&gt;error::invalid_argument -->
<g id="edge23" class="edge">
<title>simple_map::add&#45;&gt;error::invalid_argument</title>
<path fill="none" stroke="black" d="M809.56,-345.72C804.6,-343.44 799.22,-341.34 794,-340 737.5,-325.51 719.13,-347.87 663,-332 643.24,-326.42 622.92,-316.04 606.6,-306.37"/>
<polygon fill="black" stroke="black" points="608.64,-303.51 598.29,-301.27 604.98,-309.48 608.64,-303.51"/>
</g>
<!-- simple_map::add&#45;&gt;simple_map::find -->
<g id="edge24" class="edge">
<title>simple_map::add&#45;&gt;simple_map::find</title>
<path fill="none" stroke="black" d="M849.38,-345.11C868.49,-333.39 897.92,-315.34 919.84,-301.89"/>
<polygon fill="black" stroke="black" points="921.64,-304.89 928.33,-296.68 917.98,-298.92 921.64,-304.89"/>
</g>
<!-- option::is_none -->
<g id="node21" class="node">
<title>option::is_none</title>
<ellipse fill="none" stroke="black" cx="863" cy="-200" rx="38.19" ry="18"/>
<text text-anchor="middle" x="863" y="-196.3" font-family="Times,serif" font-size="14.00">is_none</text>
</g>
<!-- simple_map::add&#45;&gt;option::is_none -->
<g id="edge22" class="edge">
<title>simple_map::add&#45;&gt;option::is_none</title>
<path fill="none" stroke="black" d="M833.66,-339.71C839.31,-313 850.21,-261.45 857.02,-229.27"/>
<polygon fill="black" stroke="black" points="860.37,-230.36 859.01,-219.85 853.52,-228.91 860.37,-230.36"/>
</g>
<!-- simple_map::contains_key&#45;&gt;option::is_some -->
<g id="edge25" class="edge">
<title>simple_map::contains_key&#45;&gt;option::is_some</title>
<path fill="none" stroke="black" d="M896.92,-343.47C843.98,-322.27 747.86,-280.4 729,-249 711.84,-220.43 717.28,-205.2 729,-174 733.63,-161.69 742.33,-150.31 751.12,-141.07"/>
<polygon fill="black" stroke="black" points="753.36,-143.78 758.04,-134.28 748.45,-138.79 753.36,-143.78"/>
</g>
<!-- simple_map::contains_key&#45;&gt;simple_map::find -->
<g id="edge26" class="edge">
<title>simple_map::contains_key&#45;&gt;simple_map::find</title>
<path fill="none" stroke="black" d="M936.03,-339.7C937.93,-331.52 940.26,-321.54 942.41,-312.29"/>
<polygon fill="black" stroke="black" points="945.8,-313.18 944.66,-302.65 938.98,-311.6 945.8,-313.18"/>
</g>
<!-- is_voting_period_over&#45;&gt;timestamp::now_seconds -->
<g id="edge27" class="edge">
<title>is_voting_period_over&#45;&gt;timestamp::now_seconds</title>
<path fill="none" stroke="black" d="M1494.05,-339.7C1493.61,-331.67 1493.08,-321.9 1492.58,-312.8"/>
<polygon fill="black" stroke="black" points="1496.08,-312.73 1492.04,-302.94 1489.09,-313.12 1496.08,-312.73"/>
</g>
<!-- option::extract&#45;&gt;option::is_some -->
<g id="edge28" class="edge">
<title>option::extract&#45;&gt;option::is_some</title>
<path fill="none" stroke="black" d="M773.27,-181.82C774.03,-171.58 775.01,-158.33 775.89,-146.55"/>
<polygon fill="black" stroke="black" points="779.35,-147.17 776.6,-136.94 772.37,-146.66 779.35,-147.17"/>
</g>
<!-- vector::is_empty -->
<g id="node22" class="node">
<title>vector::is_empty</title>
<ellipse fill="none" stroke="black" cx="845" cy="-34" rx="43.59" ry="18"/>
<text text-anchor="middle" x="845" y="-30.3" font-family="Times,serif" font-size="14.00">is_empty</text>
</g>
<!-- option::is_some&#45;&gt;vector::is_empty -->
<g id="edge29" class="edge">
<title>option::is_some&#45;&gt;vector::is_empty</title>
<path fill="none" stroke="black" d="M791.56,-99.61C800.91,-88.3 813.53,-73.05 824.15,-60.2"/>
<polygon fill="black" stroke="black" points="826.82,-62.47 830.5,-52.53 821.43,-58.01 826.82,-62.47"/>
</g>
<!-- error::invalid_argument&#45;&gt;error::canonical -->
<g id="edge30" class="edge">
<title>error::invalid_argument&#45;&gt;error::canonical</title>
<path fill="none" stroke="black" d="M557.67,-265.22C547.21,-253.77 533.19,-238.42 521.48,-225.6"/>
<polygon fill="black" stroke="black" points="524.16,-223.35 514.83,-218.33 518.99,-228.07 524.16,-223.35"/>
</g>
<!-- option::none -->
<g id="node23" class="node">
<title>option::none</title>
<ellipse fill="none" stroke="black" cx="1025" cy="-200" rx="27.9" ry="18"/>
<text text-anchor="middle" x="1025" y="-196.3" font-family="Times,serif" font-size="14.00">none</text>
</g>
<!-- simple_map::find&#45;&gt;option::none -->
<g id="edge31" class="edge">
<title>simple_map::find&#45;&gt;option::none</title>
<path fill="none" stroke="black" d="M966.01,-268.93C973.11,-263.14 981.26,-256.05 988,-249 994.75,-241.94 1001.46,-233.69 1007.29,-226.04"/>
<polygon fill="black" stroke="black" points="1010.08,-228.14 1013.22,-218.02 1004.46,-223.98 1010.08,-228.14"/>
</g>
<!-- option::some -->
<g id="node24" class="node">
<title>option::some</title>
<ellipse fill="none" stroke="black" cx="949" cy="-200" rx="29.8" ry="18"/>
<text text-anchor="middle" x="949" y="-196.3" font-family="Times,serif" font-size="14.00">some</text>
</g>
<!-- simple_map::find&#45;&gt;option::some -->
<g id="edge32" class="edge">
<title>simple_map::find&#45;&gt;option::some</title>
<path fill="none" stroke="black" d="M949,-264.82C949,-254.69 949,-241.6 949,-229.92"/>
<polygon fill="black" stroke="black" points="952.5,-229.95 949,-219.95 945.5,-229.95 952.5,-229.95"/>
</g>
<!-- comparator::compare -->
<g id="node25" class="node">
<title>comparator::compare</title>
<ellipse fill="none" stroke="black" cx="1271" cy="-200" rx="41.69" ry="18"/>
<text text-anchor="middle" x="1271" y="-196.3" font-family="Times,serif" font-size="14.00">compare</text>
</g>
<!-- simple_map::find&#45;&gt;comparator::compare -->
<g id="edge33" class="edge">
<title>simple_map::find&#45;&gt;comparator::compare</title>
<path fill="none" stroke="black" d="M975.4,-278.25C1012.07,-273.11 1080.5,-263.74 1139,-257 1156.97,-254.93 1203.53,-256.49 1220,-249 1231.74,-243.66 1242.51,-234.5 1251.1,-225.61"/>
<polygon fill="black" stroke="black" points="1253.49,-228.18 1257.6,-218.42 1248.3,-223.48 1253.49,-228.18"/>
</g>
<!-- comparator::is_smaller_than -->
<g id="node26" class="node">
<title>comparator::is_smaller_than</title>
<ellipse fill="none" stroke="black" cx="1144" cy="-200" rx="66.89" ry="18"/>
<text text-anchor="middle" x="1144" y="-196.3" font-family="Times,serif" font-size="14.00">is_smaller_than</text>
</g>
<!-- simple_map::find&#45;&gt;comparator::is_smaller_than -->
<g id="edge34" class="edge">
<title>simple_map::find&#45;&gt;comparator::is_smaller_than</title>
<path fill="none" stroke="black" d="M974.57,-276.81C998.54,-271.46 1035.06,-262.07 1065,-249 1080.98,-242.03 1097.62,-232.33 1111.49,-223.47"/>
<polygon fill="black" stroke="black" points="1113.32,-226.45 1119.78,-218.05 1109.49,-220.59 1113.32,-226.45"/>
</g>
<!-- option::is_none&#45;&gt;vector::is_empty -->
<g id="edge35" class="edge">
<title>option::is_none&#45;&gt;vector::is_empty</title>
<path fill="none" stroke="black" d="M861.11,-181.76C858.01,-153.51 851.82,-97.11 848.08,-63.04"/>
<polygon fill="black" stroke="black" points="851.6,-63.07 847.03,-53.51 844.64,-63.84 851.6,-63.07"/>
</g>
<!-- vector::singleton -->
<g id="node27" class="node">
<title>vector::singleton</title>
<ellipse fill="none" stroke="black" cx="949" cy="-34" rx="42.79" ry="18"/>
<text text-anchor="middle" x="949" y="-30.3" font-family="Times,serif" font-size="14.00">singleton</text>
</g>
<!-- option::some&#45;&gt;vector::singleton -->
<g id="edge36" class="edge">
<title>option::some&#45;&gt;vector::singleton</title>
<path fill="none" stroke="black" d="M949,-181.76C949,-153.63 949,-97.6 949,-63.49"/>
<polygon fill="black" stroke="black" points="952.5,-63.52 949,-53.52 945.5,-63.52 952.5,-63.52"/>
</g>
<!-- comparator::compare&#45;&gt;bcs::to_bytes -->
<g id="edge37" class="edge">
<title>comparator::compare&#45;&gt;bcs::to_bytes</title>
<path fill="none" stroke="black" d="M1295.86,-185.2C1305.26,-179.63 1315.88,-172.89 1325,-166 1334.71,-158.67 1344.68,-149.83 1353.27,-141.74"/>
<polygon fill="black" stroke="black" points="1355.45,-144.5 1360.24,-135.04 1350.6,-139.45 1355.45,-144.5"/>
</g>
<!-- comparator::compare_u8_vector -->
<g id="node28" class="node">
<title>comparator::compare_u8_vector</title>
<ellipse fill="none" stroke="black" cx="1232" cy="-117" rx="81.49" ry="18"/>
<text text-anchor="middle" x="1232" y="-113.3" font-family="Times,serif" font-size="14.00">compare_u8_vector</text>
</g>
<!-- comparator::compare&#45;&gt;comparator::compare_u8_vector -->
<g id="edge38" class="edge">
<title>comparator::compare&#45;&gt;comparator::compare_u8_vector</title>
<path fill="none" stroke="black" d="M1262.92,-182.22C1257.81,-171.61 1251.09,-157.65 1245.22,-145.45"/>
<polygon fill="black" stroke="black" points="1248.49,-144.18 1241,-136.68 1242.18,-147.21 1248.49,-144.18"/>
</g>
</g>
</svg>
