<?xml version="1.0" encoding="UTF-8" standalone="no"?>
<!DOCTYPE svg PUBLIC "-//W3C//DTD SVG 1.1//EN"
 "http://www.w3.org/Graphics/SVG/1.1/DTD/svg11.dtd">
<!-- Generated by graphviz version 7.0.0 (20221023.0053)
 -->
<!-- Title: G Pages: 1 -->
<svg width="1861pt" height="550pt"
 viewBox="0.00 0.00 1861.00 550.00" xmlns="http://www.w3.org/2000/svg" xmlns:xlink="http://www.w3.org/1999/xlink">
<g id="graph0" class="graph" transform="scale(1 1) rotate(0) translate(4 546)">
<title>G</title>
<polygon fill="white" stroke="none" points="-4,4 -4,-546 1857,-546 1857,4 -4,4"/>
<g id="clust1" class="cluster">
<title>cluster_option</title>
<polygon fill="none" stroke="black" points="866,-91 866,-249 1193,-249 1193,-91 866,-91"/>
<text text-anchor="middle" x="1029.5" y="-233.8" font-family="Times,serif" font-size="14.00">option</text>
</g>
<g id="clust2" class="cluster">
<title>cluster_string</title>
<polygon fill="none" stroke="black" points="479,-340 479,-498 657,-498 657,-340 479,-340"/>
<text text-anchor="middle" x="568" y="-482.8" font-family="Times,serif" font-size="14.00">string</text>
</g>
<g id="clust3" class="cluster">
<title>cluster_table</title>
<polygon fill="none" stroke="black" points="1315,-174 1315,-332 1601,-332 1601,-174 1315,-174"/>
<text text-anchor="middle" x="1458" y="-316.8" font-family="Times,serif" font-size="14.00">table</text>
</g>
<g id="clust4" class="cluster">
<title>cluster_error</title>
<polygon fill="none" stroke="black" points="8,-174 8,-332 300,-332 300,-174 8,-174"/>
<text text-anchor="middle" x="154" y="-316.8" font-family="Times,serif" font-size="14.00">error</text>
</g>
<g id="clust5" class="cluster">
<title>cluster_from_bcs</title>
<polygon fill="none" stroke="black" points="773,-340 773,-498 891,-498 891,-340 773,-340"/>
<text text-anchor="middle" x="832" y="-482.8" font-family="Times,serif" font-size="14.00">from_bcs</text>
</g>
<g id="clust6" class="cluster">
<title>cluster_event</title>
<polygon fill="none" stroke="black" points="308,-91 308,-249 494,-249 494,-91 308,-91"/>
<text text-anchor="middle" x="401" y="-233.8" font-family="Times,serif" font-size="14.00">event</text>
</g>
<g id="clust8" class="cluster">
<title>cluster_timestamp</title>
<polygon fill="none" stroke="black" points="1671,-91 1671,-249 1845,-249 1845,-91 1671,-91"/>
<text text-anchor="middle" x="1758" y="-233.8" font-family="Times,serif" font-size="14.00">timestamp</text>
</g>
<g id="clust9" class="cluster">
<title>cluster_simple_map</title>
<polygon fill="none" stroke="black" points="899,-257 899,-415 987,-415 987,-257 899,-257"/>
<text text-anchor="middle" x="943" y="-399.8" font-family="Times,serif" font-size="14.00">simple_map</text>
</g>
<g id="clust10" class="cluster">
<title>cluster_bcs</title>
<polygon fill="none" stroke="black" points="502,-91 502,-166 598,-166 598,-91 502,-91"/>
<text text-anchor="middle" x="550" y="-150.8" font-family="Times,serif" font-size="14.00">bcs</text>
</g>
<g id="clust11" class="cluster">
<title>cluster_vector</title>
<polygon fill="none" stroke="black" points="974,-8 974,-83 1181,-83 1181,-8 974,-8"/>
<text text-anchor="middle" x="1077.5" y="-67.8" font-family="Times,serif" font-size="14.00">vector</text>
</g>
<g id="clust12" class="cluster">
<title>cluster_comparator</title>
<polygon fill="none" stroke="black" points="606,-91 606,-249 858,-249 858,-91 606,-91"/>
<text text-anchor="middle" x="732" y="-233.8" font-family="Times,serif" font-size="14.00">comparator</text>
</g>
<g id="clust7" class="cluster">
<title>cluster_transaction_context</title>
<polygon fill="none" stroke="black" points="1047,-423 1047,-498 1195,-498 1195,-423 1047,-423"/>
<text text-anchor="middle" x="1121" y="-482.8" font-family="Times,serif" font-size="14.00">transaction_context</text>
</g>
<!-- resolve -->
<g id="node1" class="node">
<title>resolve</title>
<ellipse fill="none" stroke="black" cx="1006" cy="-524" rx="36.29" ry="18"/>
<text text-anchor="middle" x="1006" y="-520.3" font-family="Times,serif" font-size="14.00">resolve</text>
</g>
<!-- option::extract -->
<g id="node2" class="node">
<title>option::extract</title>
<ellipse fill="none" stroke="black" cx="1060" cy="-200" rx="34.39" ry="18"/>
<text text-anchor="middle" x="1060" y="-196.3" font-family="Times,serif" font-size="14.00">extract</text>
</g>
<!-- resolve&#45;&gt;option::extract -->
<g id="edge1" class="edge">
<title>resolve&#45;&gt;option::extract</title>
<path fill="none" stroke="black" d="M1008.9,-505.69C1017.73,-453.05 1044.31,-294.57 1055.23,-229.43"/>
<polygon fill="black" stroke="black" points="1058.63,-230.33 1056.83,-219.89 1051.73,-229.17 1058.63,-230.33"/>
</g>
<!-- string::utf8 -->
<g id="node3" class="node">
<title>string::utf8</title>
<ellipse fill="none" stroke="black" cx="595" cy="-449" rx="27" ry="18"/>
<text text-anchor="middle" x="595" y="-445.3" font-family="Times,serif" font-size="14.00">utf8</text>
</g>
<!-- resolve&#45;&gt;string::utf8 -->
<g id="edge2" class="edge">
<title>resolve&#45;&gt;string::utf8</title>
<path fill="none" stroke="black" d="M969.44,-522.8C892.96,-521.97 718.58,-517.89 663,-498 646.85,-492.22 631.05,-481.47 618.75,-471.61"/>
<polygon fill="black" stroke="black" points="621.15,-469.06 611.24,-465.32 616.66,-474.42 621.15,-469.06"/>
</g>
<!-- table::borrow_mut -->
<g id="node4" class="node">
<title>table::borrow_mut</title>
<ellipse fill="none" stroke="black" cx="1519" cy="-283" rx="54.69" ry="18"/>
<text text-anchor="middle" x="1519" y="-279.3" font-family="Times,serif" font-size="14.00">borrow_mut</text>
</g>
<!-- resolve&#45;&gt;table::borrow_mut -->
<g id="edge3" class="edge">
<title>resolve&#45;&gt;table::borrow_mut</title>
<path fill="none" stroke="black" d="M1042.31,-522.12C1135.06,-519.69 1375.76,-512.08 1409,-498 1459.4,-476.65 1474.35,-463.36 1500,-415 1517.07,-382.81 1520.29,-340.25 1520.26,-312.51"/>
<polygon fill="black" stroke="black" points="1523.76,-312.7 1520.09,-302.76 1516.76,-312.82 1523.76,-312.7"/>
</g>
<!-- error::invalid_argument -->
<g id="node5" class="node">
<title>error::invalid_argument</title>
<ellipse fill="none" stroke="black" cx="219" cy="-283" rx="73.39" ry="18"/>
<text text-anchor="middle" x="219" y="-279.3" font-family="Times,serif" font-size="14.00">invalid_argument</text>
</g>
<!-- resolve&#45;&gt;error::invalid_argument -->
<g id="edge4" class="edge">
<title>resolve&#45;&gt;error::invalid_argument</title>
<path fill="none" stroke="black" d="M969.68,-521.82C900.81,-519.27 756.49,-512.28 739,-498 682.15,-451.59 747.28,-387.11 691,-340 634.07,-292.34 423.97,-284.01 304.15,-283.27"/>
<polygon fill="black" stroke="black" points="304.37,-279.77 294.36,-283.23 304.34,-286.77 304.37,-279.77"/>
</g>
<!-- error::invalid_state -->
<g id="node6" class="node">
<title>error::invalid_state</title>
<ellipse fill="none" stroke="black" cx="72" cy="-283" rx="55.79" ry="18"/>
<text text-anchor="middle" x="72" y="-279.3" font-family="Times,serif" font-size="14.00">invalid_state</text>
</g>
<!-- resolve&#45;&gt;error::invalid_state -->
<g id="edge5" class="edge">
<title>resolve&#45;&gt;error::invalid_state</title>
<path fill="none" stroke="black" d="M969.52,-522.17C894.83,-520.16 729.82,-513.93 710,-498 652.7,-451.93 719.85,-384.06 661,-340 637.69,-322.55 164.58,-341.32 137,-332 122.21,-327.01 108,-317.29 96.66,-307.89"/>
<polygon fill="black" stroke="black" points="99.2,-305.46 89.36,-301.52 94.59,-310.73 99.2,-305.46"/>
</g>
<!-- from_bcs::to_u64 -->
<g id="node7" class="node">
<title>from_bcs::to_u64</title>
<ellipse fill="none" stroke="black" cx="840" cy="-449" rx="35.19" ry="18"/>
<text text-anchor="middle" x="840" y="-445.3" font-family="Times,serif" font-size="14.00">to_u64</text>
</g>
<!-- resolve&#45;&gt;from_bcs::to_u64 -->
<g id="edge6" class="edge">
<title>resolve&#45;&gt;from_bcs::to_u64</title>
<path fill="none" stroke="black" d="M979.33,-511.27C951.46,-499.01 907.53,-479.7 876.46,-466.04"/>
<polygon fill="black" stroke="black" points="878.01,-462.89 867.44,-462.07 875.19,-469.3 878.01,-462.89"/>
</g>
<!-- event::emit_event -->
<g id="node8" class="node">
<title>event::emit_event</title>
<ellipse fill="none" stroke="black" cx="436" cy="-200" rx="50.09" ry="18"/>
<text text-anchor="middle" x="436" y="-196.3" font-family="Times,serif" font-size="14.00">emit_event</text>
</g>
<!-- resolve&#45;&gt;event::emit_event -->
<g id="edge7" class="edge">
<title>resolve&#45;&gt;event::emit_event</title>
<path fill="none" stroke="black" d="M969.23,-523.85C910.45,-524.46 798.87,-522.25 769,-498 711.71,-451.5 766.24,-395.84 718,-340 656.99,-269.38 551.68,-231.09 488.46,-213.44"/>
<polygon fill="black" stroke="black" points="489.57,-210.12 479.01,-210.88 487.74,-216.87 489.57,-210.12"/>
</g>
<!-- transaction_context::get_script_hash -->
<g id="node9" class="node">
<title>transaction_context::get_script_hash</title>
<ellipse fill="none" stroke="black" cx="1121" cy="-449" rx="65.79" ry="18"/>
<text text-anchor="middle" x="1121" y="-445.3" font-family="Times,serif" font-size="14.00">get_script_hash</text>
</g>
<!-- resolve&#45;&gt;transaction_context::get_script_hash -->
<g id="edge8" class="edge">
<title>resolve&#45;&gt;transaction_context::get_script_hash</title>
<path fill="none" stroke="black" d="M1027.63,-509.27C1044.14,-498.79 1067.22,-484.14 1086.3,-472.02"/>
<polygon fill="black" stroke="black" points="1088.02,-475.08 1094.58,-466.77 1084.27,-469.17 1088.02,-475.08"/>
</g>
<!-- timestamp::now_seconds -->
<g id="node10" class="node">
<title>timestamp::now_seconds</title>
<ellipse fill="none" stroke="black" cx="1758" cy="-200" rx="57.69" ry="18"/>
<text text-anchor="middle" x="1758" y="-196.3" font-family="Times,serif" font-size="14.00">now_seconds</text>
</g>
<!-- resolve&#45;&gt;timestamp::now_seconds -->
<g id="edge9" class="edge">
<title>resolve&#45;&gt;timestamp::now_seconds</title>
<path fill="none" stroke="black" d="M1042.59,-522.92C1136.74,-522.39 1385.53,-519.01 1465,-498 1624.88,-455.74 1710.98,-472.62 1798,-332 1815.54,-303.66 1808.17,-288.74 1798,-257 1794.48,-246.02 1787.93,-235.36 1781.14,-226.35"/>
<polygon fill="black" stroke="black" points="1784.04,-224.36 1775.04,-218.77 1778.59,-228.76 1784.04,-224.36"/>
</g>
<!-- simple_map::borrow -->
<g id="node11" class="node">
<title>simple_map::borrow</title>
<ellipse fill="none" stroke="black" cx="943" cy="-366" rx="36.29" ry="18"/>
<text text-anchor="middle" x="943" y="-362.3" font-family="Times,serif" font-size="14.00">borrow</text>
</g>
<!-- resolve&#45;&gt;simple_map::borrow -->
<g id="edge10" class="edge">
<title>resolve&#45;&gt;simple_map::borrow</title>
<path fill="none" stroke="black" d="M999.14,-506.01C988.3,-479.17 967.11,-426.69 954.09,-394.45"/>
<polygon fill="black" stroke="black" points="957.41,-393.34 950.42,-385.37 950.92,-395.96 957.41,-393.34"/>
</g>
<!-- can_be_resolved_early -->
<g id="node12" class="node">
<title>can_be_resolved_early</title>
<ellipse fill="none" stroke="black" cx="1215" cy="-283" rx="91.78" ry="18"/>
<text text-anchor="middle" x="1215" y="-279.3" font-family="Times,serif" font-size="14.00">can_be_resolved_early</text>
</g>
<!-- resolve&#45;&gt;can_be_resolved_early -->
<g id="edge11" class="edge">
<title>resolve&#45;&gt;can_be_resolved_early</title>
<path fill="none" stroke="black" d="M1042.65,-523.53C1092.61,-523.41 1178.26,-519.89 1199,-498 1246.51,-447.84 1233.59,-358.07 1222.85,-312.39"/>
<polygon fill="black" stroke="black" points="1226.26,-311.58 1220.44,-302.72 1219.47,-313.27 1226.26,-311.58"/>
</g>
<!-- get_proposal_state -->
<g id="node13" class="node">
<title>get_proposal_state</title>
<ellipse fill="none" stroke="black" cx="1323" cy="-449" rx="76.89" ry="18"/>
<text text-anchor="middle" x="1323" y="-445.3" font-family="Times,serif" font-size="14.00">get_proposal_state</text>
</g>
<!-- resolve&#45;&gt;get_proposal_state -->
<g id="edge12" class="edge">
<title>resolve&#45;&gt;get_proposal_state</title>
<path fill="none" stroke="black" d="M1042.72,-522.89C1087.59,-521.86 1165.39,-517.11 1229,-498 1249.39,-491.87 1270.64,-481.42 1287.76,-471.83"/>
<polygon fill="black" stroke="black" points="1289.1,-475.1 1296.02,-467.08 1285.6,-469.03 1289.1,-475.1"/>
</g>
<!-- option::is_some -->
<g id="node14" class="node">
<title>option::is_some</title>
<ellipse fill="none" stroke="black" cx="1145" cy="-117" rx="40.09" ry="18"/>
<text text-anchor="middle" x="1145" y="-113.3" font-family="Times,serif" font-size="14.00">is_some</text>
</g>
<!-- option::extract&#45;&gt;option::is_some -->
<g id="edge13" class="edge">
<title>option::extract&#45;&gt;option::is_some</title>
<path fill="none" stroke="black" d="M1075.99,-183.76C1088.53,-171.81 1106.2,-154.97 1120.52,-141.32"/>
<polygon fill="black" stroke="black" points="1122.58,-144.2 1127.41,-134.76 1117.75,-139.13 1122.58,-144.2"/>
</g>
<!-- string::internal_check_utf8 -->
<g id="node15" class="node">
<title>string::internal_check_utf8</title>
<ellipse fill="none" stroke="black" cx="568" cy="-366" rx="81.49" ry="18"/>
<text text-anchor="middle" x="568" y="-362.3" font-family="Times,serif" font-size="14.00">internal_check_utf8</text>
</g>
<!-- string::utf8&#45;&gt;string::internal_check_utf8 -->
<g id="edge14" class="edge">
<title>string::utf8&#45;&gt;string::internal_check_utf8</title>
<path fill="none" stroke="black" d="M589.41,-431.22C585.94,-420.82 581.4,-407.21 577.4,-395.19"/>
<polygon fill="black" stroke="black" points="580.73,-394.14 574.25,-385.76 574.09,-396.35 580.73,-394.14"/>
</g>
<!-- table::borrow_box_mut -->
<g id="node16" class="node">
<title>table::borrow_box_mut</title>
<ellipse fill="none" stroke="black" cx="1521" cy="-200" rx="72.29" ry="18"/>
<text text-anchor="middle" x="1521" y="-196.3" font-family="Times,serif" font-size="14.00">borrow_box_mut</text>
</g>
<!-- table::borrow_mut&#45;&gt;table::borrow_box_mut -->
<g id="edge15" class="edge">
<title>table::borrow_mut&#45;&gt;table::borrow_box_mut</title>
<path fill="none" stroke="black" d="M1519.42,-264.82C1519.67,-254.69 1520,-241.6 1520.29,-229.92"/>
<polygon fill="black" stroke="black" points="1523.78,-230.03 1520.53,-219.95 1516.79,-229.86 1523.78,-230.03"/>
</g>
<!-- error::canonical -->
<g id="node17" class="node">
<title>error::canonical</title>
<ellipse fill="none" stroke="black" cx="145" cy="-200" rx="44.39" ry="18"/>
<text text-anchor="middle" x="145" y="-196.3" font-family="Times,serif" font-size="14.00">canonical</text>
</g>
<!-- error::invalid_argument&#45;&gt;error::canonical -->
<g id="edge16" class="edge">
<title>error::invalid_argument&#45;&gt;error::canonical</title>
<path fill="none" stroke="black" d="M203.67,-265.22C193.21,-253.77 179.19,-238.42 167.48,-225.6"/>
<polygon fill="black" stroke="black" points="170.16,-223.35 160.83,-218.33 164.99,-228.07 170.16,-223.35"/>
</g>
<!-- error::invalid_state&#45;&gt;error::canonical -->
<g id="edge17" class="edge">
<title>error::invalid_state&#45;&gt;error::canonical</title>
<path fill="none" stroke="black" d="M87.13,-265.22C97.44,-253.77 111.27,-238.42 122.83,-225.6"/>
<polygon fill="black" stroke="black" points="125.28,-228.1 129.38,-218.33 120.08,-223.42 125.28,-228.1"/>
</g>
<!-- from_bcs::from_bytes -->
<g id="node18" class="node">
<title>from_bcs::from_bytes</title>
<ellipse fill="none" stroke="black" cx="832" cy="-366" rx="51.19" ry="18"/>
<text text-anchor="middle" x="832" y="-362.3" font-family="Times,serif" font-size="14.00">from_bytes</text>
</g>
<!-- from_bcs::to_u64&#45;&gt;from_bcs::from_bytes -->
<g id="edge18" class="edge">
<title>from_bcs::to_u64&#45;&gt;from_bcs::from_bytes</title>
<path fill="none" stroke="black" d="M838.3,-430.82C837.29,-420.58 835.98,-407.33 834.82,-395.55"/>
<polygon fill="black" stroke="black" points="838.34,-395.55 833.87,-385.94 831.37,-396.23 838.34,-395.55"/>
</g>
<!-- bcs::to_bytes -->
<g id="node19" class="node">
<title>bcs::to_bytes</title>
<ellipse fill="none" stroke="black" cx="550" cy="-117" rx="40.09" ry="18"/>
<text text-anchor="middle" x="550" y="-113.3" font-family="Times,serif" font-size="14.00">to_bytes</text>
</g>
<!-- event::emit_event&#45;&gt;bcs::to_bytes -->
<g id="edge19" class="edge">
<title>event::emit_event&#45;&gt;bcs::to_bytes</title>
<path fill="none" stroke="black" d="M465.62,-185.2C476.19,-179.77 487.96,-173.13 498,-166 508.07,-158.85 518.25,-149.92 526.9,-141.7"/>
<polygon fill="black" stroke="black" points="529.18,-144.37 533.89,-134.88 524.29,-139.36 529.18,-144.37"/>
</g>
<!-- event::write_to_event_store -->
<g id="node20" class="node">
<title>event::write_to_event_store</title>
<ellipse fill="none" stroke="black" cx="401" cy="-117" rx="85.29" ry="18"/>
<text text-anchor="middle" x="401" y="-113.3" font-family="Times,serif" font-size="14.00">write_to_event_store</text>
</g>
<!-- event::emit_event&#45;&gt;event::write_to_event_store -->
<g id="edge20" class="edge">
<title>event::emit_event&#45;&gt;event::write_to_event_store</title>
<path fill="none" stroke="black" d="M428.58,-181.82C424.03,-171.3 418.11,-157.59 412.91,-145.57"/>
<polygon fill="black" stroke="black" points="416.19,-144.33 409.01,-136.54 409.77,-147.11 416.19,-144.33"/>
</g>
<!-- timestamp::now_microseconds -->
<g id="node21" class="node">
<title>timestamp::now_microseconds</title>
<ellipse fill="none" stroke="black" cx="1758" cy="-117" rx="79.09" ry="18"/>
<text text-anchor="middle" x="1758" y="-113.3" font-family="Times,serif" font-size="14.00">now_microseconds</text>
</g>
<!-- timestamp::now_seconds&#45;&gt;timestamp::now_microseconds -->
<g id="edge21" class="edge">
<title>timestamp::now_seconds&#45;&gt;timestamp::now_microseconds</title>
<path fill="none" stroke="black" d="M1758,-181.82C1758,-171.69 1758,-158.6 1758,-146.92"/>
<polygon fill="black" stroke="black" points="1761.5,-146.95 1758,-136.95 1754.5,-146.95 1761.5,-146.95"/>
</g>
<!-- simple_map::borrow&#45;&gt;option::extract -->
<g id="edge22" class="edge">
<title>simple_map::borrow&#45;&gt;option::extract</title>
<path fill="none" stroke="black" d="M957.01,-348.96C961.36,-343.7 966.05,-337.73 970,-332 991.8,-300.36 991.01,-288.51 1013,-257 1020.6,-246.12 1029.83,-234.78 1038.1,-225.18"/>
<polygon fill="black" stroke="black" points="1040.68,-227.54 1044.64,-217.71 1035.42,-222.92 1040.68,-227.54"/>
</g>
<!-- simple_map::borrow&#45;&gt;error::invalid_argument -->
<g id="edge24" class="edge">
<title>simple_map::borrow&#45;&gt;error::invalid_argument</title>
<path fill="none" stroke="black" d="M921.31,-351.37C913.32,-346.99 904.03,-342.61 895,-340 786.08,-308.51 458.56,-292.71 302.91,-286.81"/>
<polygon fill="black" stroke="black" points="303.19,-283.32 293.06,-286.44 302.93,-290.32 303.19,-283.32"/>
</g>
<!-- simple_map::borrow&#45;&gt;option::is_some -->
<g id="edge23" class="edge">
<title>simple_map::borrow&#45;&gt;option::is_some</title>
<path fill="none" stroke="black" d="M967.8,-352.62C979.29,-346.68 993.02,-339.28 1005,-332 1055.26,-301.47 1058.78,-277.23 1114,-257 1130.78,-250.85 1182.01,-262.25 1194,-249 1216.37,-224.28 1205.72,-205.2 1194,-174 1189.37,-161.69 1180.67,-150.31 1171.88,-141.07"/>
<polygon fill="black" stroke="black" points="1174.55,-138.79 1164.96,-134.28 1169.64,-143.78 1174.55,-138.79"/>
</g>
<!-- simple_map::find -->
<g id="node22" class="node">
<title>simple_map::find</title>
<ellipse fill="none" stroke="black" cx="934" cy="-283" rx="27" ry="18"/>
<text text-anchor="middle" x="934" y="-279.3" font-family="Times,serif" font-size="14.00">find</text>
</g>
<!-- simple_map::borrow&#45;&gt;simple_map::find -->
<g id="edge25" class="edge">
<title>simple_map::borrow&#45;&gt;simple_map::find</title>
<path fill="none" stroke="black" d="M941.09,-347.82C939.95,-337.58 938.48,-324.33 937.17,-312.55"/>
<polygon fill="black" stroke="black" points="940.69,-312.49 936.1,-302.94 933.73,-313.26 940.69,-312.49"/>
</g>
<!-- can_be_resolved_early&#45;&gt;option::is_some -->
<g id="edge27" class="edge">
<title>can_be_resolved_early&#45;&gt;option::is_some</title>
<path fill="none" stroke="black" d="M1222.62,-264.79C1231.28,-242.49 1242.33,-203.03 1227,-174 1217.87,-156.7 1200.72,-143.74 1184.46,-134.67"/>
<polygon fill="black" stroke="black" points="1186.37,-131.71 1175.88,-130.21 1183.14,-137.92 1186.37,-131.71"/>
</g>
<!-- option::borrow -->
<g id="node23" class="node">
<title>option::borrow</title>
<ellipse fill="none" stroke="black" cx="1149" cy="-200" rx="36.29" ry="18"/>
<text text-anchor="middle" x="1149" y="-196.3" font-family="Times,serif" font-size="14.00">borrow</text>
</g>
<!-- can_be_resolved_early&#45;&gt;option::borrow -->
<g id="edge26" class="edge">
<title>can_be_resolved_early&#45;&gt;option::borrow</title>
<path fill="none" stroke="black" d="M1201,-264.82C1191.75,-253.46 1179.46,-238.39 1169.16,-225.74"/>
<polygon fill="black" stroke="black" points="1172.07,-223.77 1163.03,-218.22 1166.64,-228.19 1172.07,-223.77"/>
</g>
<!-- table::borrow -->
<g id="node24" class="node">
<title>table::borrow</title>
<ellipse fill="none" stroke="black" cx="1369" cy="-283" rx="36.29" ry="18"/>
<text text-anchor="middle" x="1369" y="-279.3" font-family="Times,serif" font-size="14.00">borrow</text>
</g>
<!-- get_proposal_state&#45;&gt;table::borrow -->
<g id="edge28" class="edge">
<title>get_proposal_state&#45;&gt;table::borrow</title>
<path fill="none" stroke="black" d="M1324.55,-430.81C1326.83,-409.21 1331.96,-371.17 1342,-340 1345.19,-330.11 1349.8,-319.73 1354.31,-310.64"/>
<polygon fill="black" stroke="black" points="1357.29,-312.49 1358.78,-302 1351.07,-309.27 1357.29,-312.49"/>
</g>
<!-- is_voting_closed -->
<g id="node25" class="node">
<title>is_voting_closed</title>
<ellipse fill="none" stroke="black" cx="1421" cy="-366" rx="70.39" ry="18"/>
<text text-anchor="middle" x="1421" y="-362.3" font-family="Times,serif" font-size="14.00">is_voting_closed</text>
</g>
<!-- get_proposal_state&#45;&gt;is_voting_closed -->
<g id="edge29" class="edge">
<title>get_proposal_state&#45;&gt;is_voting_closed</title>
<path fill="none" stroke="black" d="M1343.31,-431.22C1357.46,-419.52 1376.54,-403.74 1392.26,-390.76"/>
<polygon fill="black" stroke="black" points="1394.41,-393.52 1399.89,-384.45 1389.95,-388.12 1394.41,-393.52"/>
</g>
<!-- vector::is_empty -->
<g id="node26" class="node">
<title>vector::is_empty</title>
<ellipse fill="none" stroke="black" cx="1129" cy="-34" rx="43.59" ry="18"/>
<text text-anchor="middle" x="1129" y="-30.3" font-family="Times,serif" font-size="14.00">is_empty</text>
</g>
<!-- option::is_some&#45;&gt;vector::is_empty -->
<g id="edge30" class="edge">
<title>option::is_some&#45;&gt;vector::is_empty</title>
<path fill="none" stroke="black" d="M1141.61,-98.82C1139.58,-88.58 1136.97,-75.33 1134.64,-63.55"/>
<polygon fill="black" stroke="black" points="1138.11,-63.05 1132.74,-53.92 1131.24,-64.41 1138.11,-63.05"/>
</g>
<!-- option::none -->
<g id="node27" class="node">
<title>option::none</title>
<ellipse fill="none" stroke="black" cx="902" cy="-200" rx="27.9" ry="18"/>
<text text-anchor="middle" x="902" y="-196.3" font-family="Times,serif" font-size="14.00">none</text>
</g>
<!-- simple_map::find&#45;&gt;option::none -->
<g id="edge31" class="edge">
<title>simple_map::find&#45;&gt;option::none</title>
<path fill="none" stroke="black" d="M927.37,-265.22C923.16,-254.57 917.63,-240.56 912.8,-228.33"/>
<polygon fill="black" stroke="black" points="916.11,-227.18 909.18,-219.17 909.6,-229.76 916.11,-227.18"/>
</g>
<!-- option::some -->
<g id="node28" class="node">
<title>option::some</title>
<ellipse fill="none" stroke="black" cx="978" cy="-200" rx="29.8" ry="18"/>
<text text-anchor="middle" x="978" y="-196.3" font-family="Times,serif" font-size="14.00">some</text>
</g>
<!-- simple_map::find&#45;&gt;option::some -->
<g id="edge32" class="edge">
<title>simple_map::find&#45;&gt;option::some</title>
<path fill="none" stroke="black" d="M942.9,-265.61C948.83,-254.7 956.75,-240.13 963.56,-227.58"/>
<polygon fill="black" stroke="black" points="966.54,-229.43 968.24,-218.98 960.39,-226.09 966.54,-229.43"/>
</g>
<!-- comparator::compare -->
<g id="node29" class="node">
<title>comparator::compare</title>
<ellipse fill="none" stroke="black" cx="656" cy="-200" rx="41.69" ry="18"/>
<text text-anchor="middle" x="656" y="-196.3" font-family="Times,serif" font-size="14.00">compare</text>
</g>
<!-- simple_map::find&#45;&gt;comparator::compare -->
<g id="edge33" class="edge">
<title>simple_map::find&#45;&gt;comparator::compare</title>
<path fill="none" stroke="black" d="M907.7,-277.93C874.81,-272.87 816.78,-264.04 767,-257 740.36,-253.23 731.3,-260.55 707,-249 695.63,-243.6 685.12,-234.72 676.63,-226.05"/>
<polygon fill="black" stroke="black" points="679.23,-223.71 669.88,-218.71 674.08,-228.44 679.23,-223.71"/>
</g>
<!-- comparator::is_smaller_than -->
<g id="node30" class="node">
<title>comparator::is_smaller_than</title>
<ellipse fill="none" stroke="black" cx="783" cy="-200" rx="66.89" ry="18"/>
<text text-anchor="middle" x="783" y="-196.3" font-family="Times,serif" font-size="14.00">is_smaller_than</text>
</g>
<!-- simple_map::find&#45;&gt;comparator::is_smaller_than -->
<g id="edge34" class="edge">
<title>simple_map::find&#45;&gt;comparator::is_smaller_than</title>
<path fill="none" stroke="black" d="M911.62,-272.54C897.24,-266.27 878.28,-257.64 862,-249 847.06,-241.07 831.02,-231.53 817.33,-223.05"/>
<polygon fill="black" stroke="black" points="819.45,-220.25 809.11,-217.91 815.73,-226.18 819.45,-220.25"/>
</g>
<!-- option::borrow&#45;&gt;option::is_some -->
<g id="edge35" class="edge">
<title>option::borrow&#45;&gt;option::is_some</title>
<path fill="none" stroke="black" d="M1148.15,-181.82C1147.65,-171.69 1147,-158.6 1146.43,-146.92"/>
<polygon fill="black" stroke="black" points="1149.92,-146.76 1145.94,-136.94 1142.93,-147.1 1149.92,-146.76"/>
</g>
<!-- table::borrow_box -->
<g id="node31" class="node">
<title>table::borrow_box</title>
<ellipse fill="none" stroke="black" cx="1377" cy="-200" rx="53.89" ry="18"/>
<text text-anchor="middle" x="1377" y="-196.3" font-family="Times,serif" font-size="14.00">borrow_box</text>
</g>
<!-- table::borrow&#45;&gt;table::borrow_box -->
<g id="edge36" class="edge">
<title>table::borrow&#45;&gt;table::borrow_box</title>
<path fill="none" stroke="black" d="M1370.7,-264.82C1371.71,-254.58 1373.02,-241.33 1374.18,-229.55"/>
<polygon fill="black" stroke="black" points="1377.63,-230.23 1375.13,-219.94 1370.66,-229.55 1377.63,-230.23"/>
</g>
<!-- is_voting_closed&#45;&gt;table::borrow_mut -->
<g id="edge37" class="edge">
<title>is_voting_closed&#45;&gt;table::borrow_mut</title>
<path fill="none" stroke="black" d="M1440.83,-348.61C1455.27,-336.67 1475.03,-320.35 1491.06,-307.09"/>
<polygon fill="black" stroke="black" points="1492.89,-310.12 1498.37,-301.06 1488.43,-304.73 1492.89,-310.12"/>
</g>
<!-- is_voting_closed&#45;&gt;can_be_resolved_early -->
<g id="edge38" class="edge">
<title>is_voting_closed&#45;&gt;can_be_resolved_early</title>
<path fill="none" stroke="black" d="M1372.74,-352.47C1353.3,-346.92 1330.83,-339.86 1311,-332 1292.07,-324.49 1271.8,-314.64 1254.79,-305.82"/>
<polygon fill="black" stroke="black" points="1256.48,-302.76 1246,-301.2 1253.22,-308.95 1256.48,-302.76"/>
</g>
<!-- is_voting_period_over -->
<g id="node32" class="node">
<title>is_voting_period_over</title>
<ellipse fill="none" stroke="black" cx="1699" cy="-283" rx="90.18" ry="18"/>
<text text-anchor="middle" x="1699" y="-279.3" font-family="Times,serif" font-size="14.00">is_voting_period_over</text>
</g>
<!-- is_voting_closed&#45;&gt;is_voting_period_over -->
<g id="edge39" class="edge">
<title>is_voting_closed&#45;&gt;is_voting_period_over</title>
<path fill="none" stroke="black" d="M1485.17,-358.21C1521.07,-353.25 1566.25,-345.05 1605,-332 1624.56,-325.41 1645.1,-315.33 1661.98,-306.11"/>
<polygon fill="black" stroke="black" points="1663.63,-309.19 1670.65,-301.25 1660.21,-303.08 1663.63,-309.19"/>
</g>
<!-- vector::singleton -->
<g id="node33" class="node">
<title>vector::singleton</title>
<ellipse fill="none" stroke="black" cx="1025" cy="-34" rx="42.79" ry="18"/>
<text text-anchor="middle" x="1025" y="-30.3" font-family="Times,serif" font-size="14.00">singleton</text>
</g>
<!-- option::some&#45;&gt;vector::singleton -->
<g id="edge40" class="edge">
<title>option::some&#45;&gt;vector::singleton</title>
<path fill="none" stroke="black" d="M982.94,-181.76C991.04,-153.51 1007.2,-97.11 1016.96,-63.04"/>
<polygon fill="black" stroke="black" points="1020.32,-64.04 1019.71,-53.46 1013.59,-62.11 1020.32,-64.04"/>
</g>
<!-- comparator::compare&#45;&gt;bcs::to_bytes -->
<g id="edge41" class="edge">
<title>comparator::compare&#45;&gt;bcs::to_bytes</title>
<path fill="none" stroke="black" d="M631.14,-185.2C621.74,-179.63 611.12,-172.89 602,-166 592.29,-158.67 582.32,-149.83 573.73,-141.74"/>
<polygon fill="black" stroke="black" points="576.4,-139.45 566.76,-135.04 571.55,-144.5 576.4,-139.45"/>
</g>
<!-- comparator::compare_u8_vector -->
<g id="node34" class="node">
<title>comparator::compare_u8_vector</title>
<ellipse fill="none" stroke="black" cx="695" cy="-117" rx="81.49" ry="18"/>
<text text-anchor="middle" x="695" y="-113.3" font-family="Times,serif" font-size="14.00">compare_u8_vector</text>
</g>
<!-- comparator::compare&#45;&gt;comparator::compare_u8_vector -->
<g id="edge42" class="edge">
<title>comparator::compare&#45;&gt;comparator::compare_u8_vector</title>
<path fill="none" stroke="black" d="M664.08,-182.22C669.19,-171.61 675.91,-157.65 681.78,-145.45"/>
<polygon fill="black" stroke="black" points="684.82,-147.21 686,-136.68 678.51,-144.18 684.82,-147.21"/>
</g>
<!-- is_voting_period_over&#45;&gt;timestamp::now_seconds -->
<g id="edge43" class="edge">
<title>is_voting_period_over&#45;&gt;timestamp::now_seconds</title>
<path fill="none" stroke="black" d="M1711.51,-264.82C1719.55,-253.79 1730.13,-239.27 1739.16,-226.86"/>
<polygon fill="black" stroke="black" points="1741.76,-229.24 1744.82,-219.1 1736.1,-225.12 1741.76,-229.24"/>
</g>
</g>
</svg>
