<?xml version="1.0" encoding="UTF-8" standalone="no"?>
<!DOCTYPE svg PUBLIC "-//W3C//DTD SVG 1.1//EN"
 "http://www.w3.org/Graphics/SVG/1.1/DTD/svg11.dtd">
<!-- Generated by graphviz version 7.0.0 (20221023.0053)
 -->
<!-- Title: G Pages: 1 -->
<svg width="470pt" height="116pt"
 viewBox="0.00 0.00 470.28 116.00" xmlns="http://www.w3.org/2000/svg" xmlns:xlink="http://www.w3.org/1999/xlink">
<g id="graph0" class="graph" transform="scale(1 1) rotate(0) translate(4 112)">
<title>G</title>
<polygon fill="white" stroke="none" points="-4,4 -4,-112 466.28,-112 466.28,4 -4,4"/>
<!-- is_enabled -->
<g id="node1" class="node">
<title>is_enabled</title>
<ellipse fill="none" stroke="black" cx="249.99" cy="-18" rx="48.19" ry="18"/>
<text text-anchor="middle" x="249.99" y="-14.3" font-family="Times,serif" font-size="14.00">is_enabled</text>
</g>
<!-- code_dependency_check_enabled -->
<g id="node2" class="node">
<title>code_dependency_check_enabled</title>
<ellipse fill="none" stroke="black" cx="129.99" cy="-90" rx="129.98" ry="18"/>
<text text-anchor="middle" x="129.99" y="-86.3" font-family="Times,serif" font-size="14.00">code_dependency_check_enabled</text>
</g>
<!-- code_dependency_check_enabled&#45;&gt;is_enabled -->
<g id="edge1" class="edge">
<title>code_dependency_check_enabled&#45;&gt;is_enabled</title>
<path fill="none" stroke="black" d="M159.04,-72.05C176.01,-62.15 197.53,-49.6 215.38,-39.19"/>
<polygon fill="black" stroke="black" points="216.68,-42.48 223.56,-34.42 213.16,-36.43 216.68,-42.48"/>
</g>
<!-- treat_friend_as_private -->
<g id="node3" class="node">
<title>treat_friend_as_private</title>
<ellipse fill="none" stroke="black" cx="369.99" cy="-90" rx="92.08" ry="18"/>
<text text-anchor="middle" x="369.99" y="-86.3" font-family="Times,serif" font-size="14.00">treat_friend_as_private</text>
</g>
<!-- treat_friend_as_private&#45;&gt;is_enabled -->
<g id="edge2" class="edge">
<title>treat_friend_as_private&#45;&gt;is_enabled</title>
<path fill="none" stroke="black" d="M341.55,-72.41C324.55,-62.5 302.83,-49.83 284.81,-39.31"/>
<polygon fill="black" stroke="black" points="286.68,-36.35 276.27,-34.33 283.15,-42.4 286.68,-36.35"/>
</g>
</g>
</svg>
