<?xml version="1.0" encoding="UTF-8" standalone="no"?>
<!DOCTYPE svg PUBLIC "-//W3C//DTD SVG 1.1//EN"
 "http://www.w3.org/Graphics/SVG/1.1/DTD/svg11.dtd">
<!-- Generated by graphviz version 7.0.0 (20221023.0053)
 -->
<!-- Title: G Pages: 1 -->
<svg width="423pt" height="332pt"
 viewBox="0.00 0.00 422.87 332.00" xmlns="http://www.w3.org/2000/svg" xmlns:xlink="http://www.w3.org/1999/xlink">
<g id="graph0" class="graph" transform="scale(1 1) rotate(0) translate(4 328)">
<title>G</title>
<polygon fill="white" stroke="none" points="-4,4 -4,-328 418.87,-328 418.87,4 -4,4"/>
<!-- property_map -->
<g id="node1" class="node">
<title>property_map</title>
<ellipse fill="none" stroke="black" cx="201.75" cy="-306" rx="60.39" ry="18"/>
<text text-anchor="middle" x="201.75" y="-302.3" font-family="Times,serif" font-size="14.00">property_map</text>
</g>
<!-- string -->
<g id="node2" class="node">
<title>string</title>
<ellipse fill="none" stroke="black" cx="98.75" cy="-162" rx="30.59" ry="18"/>
<text text-anchor="middle" x="98.75" y="-158.3" font-family="Times,serif" font-size="14.00">string</text>
</g>
<!-- property_map&#45;&gt;string -->
<g id="edge1" class="edge">
<title>property_map&#45;&gt;string</title>
<path fill="none" stroke="black" d="M147.73,-297.71C96.16,-289.52 23.85,-274.37 6.75,-252 -2.96,-239.29 -1.25,-229.85 6.75,-216 18.43,-195.8 41.05,-182.62 60.93,-174.46"/>
<polygon fill="black" stroke="black" points="62.08,-177.76 70.2,-170.96 59.6,-171.22 62.08,-177.76"/>
</g>
<!-- type_info -->
<g id="node3" class="node">
<title>type_info</title>
<ellipse fill="none" stroke="black" cx="59.75" cy="-234" rx="44.39" ry="18"/>
<text text-anchor="middle" x="59.75" y="-230.3" font-family="Times,serif" font-size="14.00">type_info</text>
</g>
<!-- property_map&#45;&gt;type_info -->
<g id="edge2" class="edge">
<title>property_map&#45;&gt;type_info</title>
<path fill="none" stroke="black" d="M171.29,-289.98C149.67,-279.32 120.5,-264.94 97.41,-253.56"/>
<polygon fill="black" stroke="black" points="99.16,-250.52 88.64,-249.24 96.06,-256.8 99.16,-250.52"/>
</g>
<!-- error -->
<g id="node4" class="node">
<title>error</title>
<ellipse fill="none" stroke="black" cx="213.75" cy="-162" rx="27.9" ry="18"/>
<text text-anchor="middle" x="213.75" y="-158.3" font-family="Times,serif" font-size="14.00">error</text>
</g>
<!-- property_map&#45;&gt;error -->
<g id="edge3" class="edge">
<title>property_map&#45;&gt;error</title>
<path fill="none" stroke="black" d="M208.82,-287.67C212.59,-277.47 216.84,-264.22 218.75,-252 221.9,-231.87 220.49,-208.92 218.38,-191.36"/>
<polygon fill="black" stroke="black" points="221.87,-191.1 217.05,-181.67 214.94,-192.05 221.87,-191.1"/>
</g>
<!-- bcs -->
<g id="node5" class="node">
<title>bcs</title>
<ellipse fill="none" stroke="black" cx="387.75" cy="-90" rx="27" ry="18"/>
<text text-anchor="middle" x="387.75" y="-86.3" font-family="Times,serif" font-size="14.00">bcs</text>
</g>
<!-- property_map&#45;&gt;bcs -->
<g id="edge4" class="edge">
<title>property_map&#45;&gt;bcs</title>
<path fill="none" stroke="black" d="M260.71,-301.87C300.5,-296.74 351.6,-283.86 384.75,-252 420.21,-217.93 417.97,-192.3 408.75,-144 407.07,-135.18 403.94,-125.95 400.6,-117.71"/>
<polygon fill="black" stroke="black" points="403.84,-116.39 396.64,-108.61 397.42,-119.18 403.84,-116.39"/>
</g>
<!-- from_bcs -->
<g id="node6" class="node">
<title>from_bcs</title>
<ellipse fill="none" stroke="black" cx="165.75" cy="-234" rx="44.39" ry="18"/>
<text text-anchor="middle" x="165.75" y="-230.3" font-family="Times,serif" font-size="14.00">from_bcs</text>
</g>
<!-- property_map&#45;&gt;from_bcs -->
<g id="edge5" class="edge">
<title>property_map&#45;&gt;from_bcs</title>
<path fill="none" stroke="black" d="M193.04,-288.05C189.01,-280.23 184.14,-270.75 179.63,-261.98"/>
<polygon fill="black" stroke="black" points="182.77,-260.43 175.08,-253.13 176.54,-263.63 182.77,-260.43"/>
</g>
<!-- simple_map -->
<g id="node7" class="node">
<title>simple_map</title>
<ellipse fill="none" stroke="black" cx="320.75" cy="-234" rx="54.69" ry="18"/>
<text text-anchor="middle" x="320.75" y="-230.3" font-family="Times,serif" font-size="14.00">simple_map</text>
</g>
<!-- property_map&#45;&gt;simple_map -->
<g id="edge6" class="edge">
<title>property_map&#45;&gt;simple_map</title>
<path fill="none" stroke="black" d="M228.16,-289.46C244.92,-279.61 266.81,-266.73 285.09,-255.98"/>
<polygon fill="black" stroke="black" points="286.68,-259.11 293.52,-251.02 283.13,-253.07 286.68,-259.11"/>
</g>
<!-- vector -->
<g id="node8" class="node">
<title>vector</title>
<ellipse fill="none" stroke="black" cx="128.75" cy="-18" rx="32.49" ry="18"/>
<text text-anchor="middle" x="128.75" y="-14.3" font-family="Times,serif" font-size="14.00">vector</text>
</g>
<!-- string&#45;&gt;vector -->
<g id="edge7" class="edge">
<title>string&#45;&gt;vector</title>
<path fill="none" stroke="black" d="M102.37,-143.87C107.44,-119.88 116.71,-75.99 122.8,-47.16"/>
<polygon fill="black" stroke="black" points="126.17,-48.18 124.81,-37.67 119.32,-46.73 126.17,-48.18"/>
</g>
<!-- option -->
<g id="node9" class="node">
<title>option</title>
<ellipse fill="none" stroke="black" cx="159.75" cy="-90" rx="33.29" ry="18"/>
<text text-anchor="middle" x="159.75" y="-86.3" font-family="Times,serif" font-size="14.00">option</text>
</g>
<!-- string&#45;&gt;option -->
<g id="edge8" class="edge">
<title>string&#45;&gt;option</title>
<path fill="none" stroke="black" d="M112.29,-145.46C120.11,-136.49 130.11,-125.02 138.91,-114.92"/>
<polygon fill="black" stroke="black" points="141.33,-117.47 145.26,-107.63 136.05,-112.87 141.33,-117.47"/>
</g>
<!-- type_info&#45;&gt;string -->
<g id="edge9" class="edge">
<title>type_info&#45;&gt;string</title>
<path fill="none" stroke="black" d="M69.19,-216.05C73.67,-208.03 79.11,-198.26 84.1,-189.3"/>
<polygon fill="black" stroke="black" points="87.12,-191.07 88.93,-180.63 81.01,-187.66 87.12,-191.07"/>
</g>
<!-- from_bcs&#45;&gt;string -->
<g id="edge10" class="edge">
<title>from_bcs&#45;&gt;string</title>
<path fill="none" stroke="black" d="M150.21,-216.76C141.6,-207.77 130.74,-196.42 121.22,-186.48"/>
<polygon fill="black" stroke="black" points="123.78,-184.09 114.34,-179.28 118.72,-188.93 123.78,-184.09"/>
</g>
<!-- simple_map&#45;&gt;error -->
<g id="edge12" class="edge">
<title>simple_map&#45;&gt;error</title>
<path fill="none" stroke="black" d="M297.01,-217.46C280.85,-206.89 259.37,-192.85 242.28,-181.67"/>
<polygon fill="black" stroke="black" points="244.35,-178.84 234.07,-176.29 240.52,-184.69 244.35,-178.84"/>
</g>
<!-- simple_map&#45;&gt;option -->
<g id="edge11" class="edge">
<title>simple_map&#45;&gt;option</title>
<path fill="none" stroke="black" d="M310.24,-216.02C297.77,-196.85 275.52,-165.54 250.75,-144 233.92,-129.36 212.45,-116.63 194.6,-107.32"/>
<polygon fill="black" stroke="black" points="196.42,-104.32 185.91,-102.93 193.26,-110.56 196.42,-104.32"/>
</g>
<!-- comparator -->
<g id="node10" class="node">
<title>comparator</title>
<ellipse fill="none" stroke="black" cx="348.75" cy="-162" rx="51.19" ry="18"/>
<text text-anchor="middle" x="348.75" y="-158.3" font-family="Times,serif" font-size="14.00">comparator</text>
</g>
<!-- simple_map&#45;&gt;comparator -->
<g id="edge13" class="edge">
<title>simple_map&#45;&gt;comparator</title>
<path fill="none" stroke="black" d="M327.67,-215.7C330.69,-208.15 334.31,-199.12 337.68,-190.68"/>
<polygon fill="black" stroke="black" points="340.89,-192.09 341.35,-181.51 334.39,-189.49 340.89,-192.09"/>
</g>
<!-- option&#45;&gt;vector -->
<g id="edge14" class="edge">
<title>option&#45;&gt;vector</title>
<path fill="none" stroke="black" d="M152.25,-72.05C148.82,-64.32 144.68,-54.96 140.83,-46.27"/>
<polygon fill="black" stroke="black" points="144.05,-44.9 136.8,-37.17 137.65,-47.73 144.05,-44.9"/>
</g>
<!-- comparator&#45;&gt;bcs -->
<g id="edge15" class="edge">
<title>comparator&#45;&gt;bcs</title>
<path fill="none" stroke="black" d="M358.19,-144.05C362.67,-136.03 368.11,-126.26 373.1,-117.3"/>
<polygon fill="black" stroke="black" points="376.12,-119.07 377.93,-108.63 370.01,-115.66 376.12,-119.07"/>
</g>
</g>
</svg>
