<?xml version="1.0" encoding="UTF-8" standalone="no"?>
<!DOCTYPE svg PUBLIC "-//W3C//DTD SVG 1.1//EN"
 "http://www.w3.org/Graphics/SVG/1.1/DTD/svg11.dtd">
<!-- Generated by graphviz version 7.0.0 (20221023.0053)
 -->
<!-- Title: G Pages: 1 -->
<svg width="1762pt" height="520pt"
 viewBox="0.00 0.00 1762.39 520.00" xmlns="http://www.w3.org/2000/svg" xmlns:xlink="http://www.w3.org/1999/xlink">
<g id="graph0" class="graph" transform="scale(1 1) rotate(0) translate(4 516)">
<title>G</title>
<polygon fill="white" stroke="none" points="-4,4 -4,-516 1758.39,-516 1758.39,4 -4,4"/>
<g id="clust1" class="cluster">
<title>cluster_table</title>
<polygon fill="none" stroke="black" points="8,-163 8,-321 698,-321 698,-163 8,-163"/>
<text text-anchor="middle" x="353" y="-305.8" font-family="Times,serif" font-size="14.00">table</text>
</g>
<g id="clust2" class="cluster">
<title>cluster_signer</title>
<polygon fill="none" stroke="black" points="1476,-8 1476,-155 1626,-155 1626,-8 1476,-8"/>
<text text-anchor="middle" x="1551" y="-139.8" font-family="Times,serif" font-size="14.00">signer</text>
</g>
<g id="clust3" class="cluster">
<title>cluster_error</title>
<polygon fill="none" stroke="black" points="706,-80 706,-238 980,-238 980,-80 706,-80"/>
<text text-anchor="middle" x="843" y="-222.8" font-family="Times,serif" font-size="14.00">error</text>
</g>
<g id="clust4" class="cluster">
<title>cluster_event</title>
<polygon fill="none" stroke="black" points="988,-80 988,-238 1276,-238 1276,-80 988,-80"/>
<text text-anchor="middle" x="1132" y="-222.8" font-family="Times,serif" font-size="14.00">event</text>
</g>
<g id="clust5" class="cluster">
<title>cluster_token</title>
<polygon fill="none" stroke="black" points="746,-246 746,-468 1075,-468 1075,-246 746,-246"/>
<text text-anchor="middle" x="910.5" y="-452.8" font-family="Times,serif" font-size="14.00">token</text>
</g>
<g id="clust6" class="cluster">
<title>cluster_bcs</title>
<polygon fill="none" stroke="black" points="1284,-80 1284,-155 1380,-155 1380,-80 1284,-80"/>
<text text-anchor="middle" x="1332" y="-139.8" font-family="Times,serif" font-size="14.00">bcs</text>
</g>
<g id="clust7" class="cluster">
<title>cluster_account</title>
<polygon fill="none" stroke="black" points="1284,-163 1284,-321 1454,-321 1454,-163 1284,-163"/>
<text text-anchor="middle" x="1369" y="-305.8" font-family="Times,serif" font-size="14.00">account</text>
</g>
<g id="clust8" class="cluster">
<title>cluster_guid</title>
<polygon fill="none" stroke="black" points="1388,-80 1388,-155 1468,-155 1468,-80 1388,-80"/>
<text text-anchor="middle" x="1428" y="-139.8" font-family="Times,serif" font-size="14.00">guid</text>
</g>
<!-- claim -->
<g id="node1" class="node">
<title>claim</title>
<ellipse fill="none" stroke="black" cx="1051" cy="-494" rx="30.59" ry="18"/>
<text text-anchor="middle" x="1051" y="-490.3" font-family="Times,serif" font-size="14.00">claim</text>
</g>
<!-- table::contains -->
<g id="node2" class="node">
<title>table::contains</title>
<ellipse fill="none" stroke="black" cx="378" cy="-272" rx="40.09" ry="18"/>
<text text-anchor="middle" x="378" y="-268.3" font-family="Times,serif" font-size="14.00">contains</text>
</g>
<!-- claim&#45;&gt;table::contains -->
<g id="edge1" class="edge">
<title>claim&#45;&gt;table::contains</title>
<path fill="none" stroke="black" d="M1020.32,-491.91C952.95,-489.31 793.94,-481.85 742,-468 601.95,-430.67 579.9,-386.83 447,-329 438.22,-325.18 435.02,-326.23 427,-321 417.08,-314.53 407.47,-305.84 399.43,-297.64"/>
<polygon fill="black" stroke="black" points="402.1,-295.37 392.71,-290.48 397,-300.16 402.1,-295.37"/>
</g>
<!-- table::remove -->
<g id="node3" class="node">
<title>table::remove</title>
<ellipse fill="none" stroke="black" cx="177" cy="-272" rx="37.89" ry="18"/>
<text text-anchor="middle" x="177" y="-268.3" font-family="Times,serif" font-size="14.00">remove</text>
</g>
<!-- claim&#45;&gt;table::remove -->
<g id="edge2" class="edge">
<title>claim&#45;&gt;table::remove</title>
<path fill="none" stroke="black" d="M1020.02,-492.93C929.28,-492.49 665.23,-489.34 582,-468 432.8,-429.75 272.93,-334.57 207.52,-292.98"/>
<polygon fill="black" stroke="black" points="209.79,-290.28 199.49,-287.83 206.02,-296.17 209.79,-290.28"/>
</g>
<!-- signer::address_of -->
<g id="node4" class="node">
<title>signer::address_of</title>
<ellipse fill="none" stroke="black" cx="1533" cy="-106" rx="48.99" ry="18"/>
<text text-anchor="middle" x="1533" y="-102.3" font-family="Times,serif" font-size="14.00">address_of</text>
</g>
<!-- claim&#45;&gt;signer::address_of -->
<g id="edge3" class="edge">
<title>claim&#45;&gt;signer::address_of</title>
<path fill="none" stroke="black" d="M1081.46,-490.8C1189.8,-482.18 1550,-446.11 1550,-348 1550,-348 1550,-348 1550,-271 1550,-223.28 1542.79,-168.17 1537.76,-135.52"/>
<polygon fill="black" stroke="black" points="1541.22,-135 1536.2,-125.67 1534.31,-136.1 1541.22,-135"/>
</g>
<!-- error::not_found -->
<g id="node5" class="node">
<title>error::not_found</title>
<ellipse fill="none" stroke="black" cx="925" cy="-189" rx="46.59" ry="18"/>
<text text-anchor="middle" x="925" y="-185.3" font-family="Times,serif" font-size="14.00">not_found</text>
</g>
<!-- claim&#45;&gt;error::not_found -->
<g id="edge4" class="edge">
<title>claim&#45;&gt;error::not_found</title>
<path fill="none" stroke="black" d="M1070.35,-479.73C1073.86,-476.35 1077.03,-472.4 1079,-468 1099.16,-422.97 1112.39,-282.32 1079,-246 1064.66,-230.4 1003.65,-245.93 984,-238 970.74,-232.65 958.14,-223.24 948.02,-214.16"/>
<polygon fill="black" stroke="black" points="950.57,-211.75 940.9,-207.42 945.75,-216.83 950.57,-211.75"/>
</g>
<!-- event::emit_event -->
<g id="node6" class="node">
<title>event::emit_event</title>
<ellipse fill="none" stroke="black" cx="1046" cy="-189" rx="50.09" ry="18"/>
<text text-anchor="middle" x="1046" y="-185.3" font-family="Times,serif" font-size="14.00">emit_event</text>
</g>
<!-- claim&#45;&gt;event::emit_event -->
<g id="edge5" class="edge">
<title>claim&#45;&gt;event::emit_event</title>
<path fill="none" stroke="black" d="M1079.91,-487.61C1090.94,-484 1102.43,-477.98 1109,-468 1163.23,-385.57 1149.42,-336.01 1109,-246 1102.9,-232.41 1091.69,-220.78 1080.4,-211.69"/>
<polygon fill="black" stroke="black" points="1082.73,-209.06 1072.63,-205.87 1078.53,-214.66 1082.73,-209.06"/>
</g>
<!-- token::deposit_token -->
<g id="node7" class="node">
<title>token::deposit_token</title>
<ellipse fill="none" stroke="black" cx="1007" cy="-419" rx="59.59" ry="18"/>
<text text-anchor="middle" x="1007" y="-415.3" font-family="Times,serif" font-size="14.00">deposit_token</text>
</g>
<!-- claim&#45;&gt;token::deposit_token -->
<g id="edge6" class="edge">
<title>claim&#45;&gt;token::deposit_token</title>
<path fill="none" stroke="black" d="M1041.23,-476.8C1035.92,-467.98 1029.2,-456.84 1023.13,-446.76"/>
<polygon fill="black" stroke="black" points="1026.29,-445.23 1018.13,-438.47 1020.3,-448.84 1026.29,-445.23"/>
</g>
<!-- token::get_token_amount -->
<g id="node8" class="node">
<title>token::get_token_amount</title>
<ellipse fill="none" stroke="black" cx="853" cy="-419" rx="76.89" ry="18"/>
<text text-anchor="middle" x="853" y="-415.3" font-family="Times,serif" font-size="14.00">get_token_amount</text>
</g>
<!-- claim&#45;&gt;token::get_token_amount -->
<g id="edge7" class="edge">
<title>claim&#45;&gt;token::get_token_amount</title>
<path fill="none" stroke="black" d="M1021.51,-488.93C998.29,-485.15 965.39,-478.5 938,-468 920.34,-461.24 901.93,-451.25 886.78,-442.14"/>
<polygon fill="black" stroke="black" points="888.97,-439.38 878.62,-437.11 885.3,-445.34 888.97,-439.38"/>
</g>
<!-- create_token_offer_id -->
<g id="node9" class="node">
<title>create_token_offer_id</title>
<ellipse fill="none" stroke="black" cx="1666" cy="-419" rx="88.28" ry="18"/>
<text text-anchor="middle" x="1666" y="-415.3" font-family="Times,serif" font-size="14.00">create_token_offer_id</text>
</g>
<!-- claim&#45;&gt;create_token_offer_id -->
<g id="edge8" class="edge">
<title>claim&#45;&gt;create_token_offer_id</title>
<path fill="none" stroke="black" d="M1081.76,-493.06C1177.91,-493.02 1471.85,-490.97 1564,-468 1586.43,-462.41 1609.88,-451.76 1628.63,-441.91"/>
<polygon fill="black" stroke="black" points="1630.07,-445.11 1637.2,-437.27 1626.73,-438.95 1630.07,-445.11"/>
</g>
<!-- table::contains_box -->
<g id="node10" class="node">
<title>table::contains_box</title>
<ellipse fill="none" stroke="black" cx="202" cy="-189" rx="57.69" ry="18"/>
<text text-anchor="middle" x="202" y="-185.3" font-family="Times,serif" font-size="14.00">contains_box</text>
</g>
<!-- table::contains&#45;&gt;table::contains_box -->
<g id="edge9" class="edge">
<title>table::contains&#45;&gt;table::contains_box</title>
<path fill="none" stroke="black" d="M342.28,-263.33C320.45,-257.88 292.32,-249.49 269,-238 255.46,-231.33 241.71,-222.01 230.21,-213.35"/>
<polygon fill="black" stroke="black" points="232.38,-210.61 222.34,-207.24 228.09,-216.14 232.38,-210.61"/>
</g>
<!-- table::remove_box -->
<g id="node11" class="node">
<title>table::remove_box</title>
<ellipse fill="none" stroke="black" cx="71" cy="-189" rx="55.49" ry="18"/>
<text text-anchor="middle" x="71" y="-185.3" font-family="Times,serif" font-size="14.00">remove_box</text>
</g>
<!-- table::remove&#45;&gt;table::remove_box -->
<g id="edge10" class="edge">
<title>table::remove&#45;&gt;table::remove_box</title>
<path fill="none" stroke="black" d="M157.56,-256.14C141.68,-244.01 118.97,-226.66 100.8,-212.77"/>
<polygon fill="black" stroke="black" points="103.04,-210.08 92.97,-206.79 98.79,-215.64 103.04,-210.08"/>
</g>
<!-- signer::borrow_address -->
<g id="node12" class="node">
<title>signer::borrow_address</title>
<ellipse fill="none" stroke="black" cx="1551" cy="-34" rx="66.89" ry="18"/>
<text text-anchor="middle" x="1551" y="-30.3" font-family="Times,serif" font-size="14.00">borrow_address</text>
</g>
<!-- signer::address_of&#45;&gt;signer::borrow_address -->
<g id="edge11" class="edge">
<title>signer::address_of&#45;&gt;signer::borrow_address</title>
<path fill="none" stroke="black" d="M1537.45,-87.7C1539.35,-80.32 1541.61,-71.52 1543.74,-63.25"/>
<polygon fill="black" stroke="black" points="1547.12,-64.13 1546.22,-53.57 1540.34,-62.38 1547.12,-64.13"/>
</g>
<!-- error::canonical -->
<g id="node13" class="node">
<title>error::canonical</title>
<ellipse fill="none" stroke="black" cx="856" cy="-106" rx="44.39" ry="18"/>
<text text-anchor="middle" x="856" y="-102.3" font-family="Times,serif" font-size="14.00">canonical</text>
</g>
<!-- error::not_found&#45;&gt;error::canonical -->
<g id="edge12" class="edge">
<title>error::not_found&#45;&gt;error::canonical</title>
<path fill="none" stroke="black" d="M911.04,-171.61C901.31,-160.19 888.16,-144.75 877.15,-131.83"/>
<polygon fill="black" stroke="black" points="880.07,-129.86 870.92,-124.52 874.74,-134.4 880.07,-129.86"/>
</g>
<!-- bcs::to_bytes -->
<g id="node14" class="node">
<title>bcs::to_bytes</title>
<ellipse fill="none" stroke="black" cx="1332" cy="-106" rx="40.09" ry="18"/>
<text text-anchor="middle" x="1332" y="-102.3" font-family="Times,serif" font-size="14.00">to_bytes</text>
</g>
<!-- event::emit_event&#45;&gt;bcs::to_bytes -->
<g id="edge13" class="edge">
<title>event::emit_event&#45;&gt;bcs::to_bytes</title>
<path fill="none" stroke="black" d="M1074.13,-173.68C1083.68,-169.47 1094.59,-165.36 1105,-163 1142.96,-154.38 1244.08,-170 1280,-155 1292.03,-149.98 1303.02,-140.87 1311.76,-131.93"/>
<polygon fill="black" stroke="black" points="1314.24,-134.41 1318.4,-124.67 1309.07,-129.69 1314.24,-134.41"/>
</g>
<!-- event::write_to_event_store -->
<g id="node15" class="node">
<title>event::write_to_event_store</title>
<ellipse fill="none" stroke="black" cx="1081" cy="-106" rx="85.29" ry="18"/>
<text text-anchor="middle" x="1081" y="-102.3" font-family="Times,serif" font-size="14.00">write_to_event_store</text>
</g>
<!-- event::emit_event&#45;&gt;event::write_to_event_store -->
<g id="edge14" class="edge">
<title>event::emit_event&#45;&gt;event::write_to_event_store</title>
<path fill="none" stroke="black" d="M1053.42,-170.82C1057.97,-160.3 1063.89,-146.59 1069.09,-134.57"/>
<polygon fill="black" stroke="black" points="1072.23,-136.11 1072.99,-125.54 1065.81,-133.33 1072.23,-136.11"/>
</g>
<!-- token::deposit_token&#45;&gt;signer::address_of -->
<g id="edge15" class="edge">
<title>token::deposit_token&#45;&gt;signer::address_of</title>
<path fill="none" stroke="black" d="M1064.85,-414.09C1179.12,-405.17 1427.87,-379.4 1487,-321 1512.91,-295.41 1525.8,-188.21 1530.65,-135.93"/>
<polygon fill="black" stroke="black" points="1534.14,-136.26 1531.53,-125.99 1527.16,-135.64 1534.14,-136.26"/>
</g>
<!-- token::direct_deposit -->
<g id="node16" class="node">
<title>token::direct_deposit</title>
<ellipse fill="none" stroke="black" cx="814" cy="-347" rx="60.39" ry="18"/>
<text text-anchor="middle" x="814" y="-343.3" font-family="Times,serif" font-size="14.00">direct_deposit</text>
</g>
<!-- token::deposit_token&#45;&gt;token::direct_deposit -->
<g id="edge16" class="edge">
<title>token::deposit_token&#45;&gt;token::direct_deposit</title>
<path fill="none" stroke="black" d="M969.79,-404.5C939.05,-393.35 895.2,-377.45 861.86,-365.36"/>
<polygon fill="black" stroke="black" points="863.44,-362.21 852.85,-362.09 861.06,-368.79 863.44,-362.21"/>
</g>
<!-- token::initialize_token_store -->
<g id="node17" class="node">
<title>token::initialize_token_store</title>
<ellipse fill="none" stroke="black" cx="980" cy="-347" rx="87.18" ry="18"/>
<text text-anchor="middle" x="980" y="-343.3" font-family="Times,serif" font-size="14.00">initialize_token_store</text>
</g>
<!-- token::deposit_token&#45;&gt;token::initialize_token_store -->
<g id="edge17" class="edge">
<title>token::deposit_token&#45;&gt;token::initialize_token_store</title>
<path fill="none" stroke="black" d="M1000.33,-400.7C997.42,-393.15 993.93,-384.12 990.68,-375.68"/>
<polygon fill="black" stroke="black" points="994.01,-374.59 987.14,-366.52 987.48,-377.11 994.01,-374.59"/>
</g>
<!-- token::direct_deposit&#45;&gt;table::contains -->
<g id="edge18" class="edge">
<title>token::direct_deposit&#45;&gt;table::contains</title>
<path fill="none" stroke="black" d="M755.89,-341.84C705.63,-338.28 631.04,-333.1 566,-329 535.12,-327.05 455.3,-333.51 427,-321 415.56,-315.94 405.27,-306.96 397.1,-298.12"/>
<polygon fill="black" stroke="black" points="399.83,-295.93 390.66,-290.63 394.52,-300.5 399.83,-295.93"/>
</g>
<!-- token::direct_deposit&#45;&gt;error::not_found -->
<g id="edge22" class="edge">
<title>token::direct_deposit&#45;&gt;error::not_found</title>
<path fill="none" stroke="black" d="M837.36,-330.13C840.78,-327.3 844.12,-324.21 847,-321 875.51,-289.13 899.1,-245.31 912.63,-217.32"/>
<polygon fill="black" stroke="black" points="915.71,-218.98 916.82,-208.44 909.38,-215.99 915.71,-218.98"/>
</g>
<!-- token::direct_deposit&#45;&gt;event::emit_event -->
<g id="edge23" class="edge">
<title>token::direct_deposit&#45;&gt;event::emit_event</title>
<path fill="none" stroke="black" d="M857.19,-334.08C867.27,-330.52 877.76,-326.16 887,-321 940.14,-291.31 992.9,-243.19 1022.3,-214.28"/>
<polygon fill="black" stroke="black" points="1024.61,-216.91 1029.23,-207.38 1019.67,-211.95 1024.61,-216.91"/>
</g>
<!-- table::borrow_mut -->
<g id="node18" class="node">
<title>table::borrow_mut</title>
<ellipse fill="none" stroke="black" cx="491" cy="-272" rx="54.69" ry="18"/>
<text text-anchor="middle" x="491" y="-268.3" font-family="Times,serif" font-size="14.00">borrow_mut</text>
</g>
<!-- token::direct_deposit&#45;&gt;table::borrow_mut -->
<g id="edge19" class="edge">
<title>token::direct_deposit&#45;&gt;table::borrow_mut</title>
<path fill="none" stroke="black" d="M754.02,-343.95C689.08,-341.08 590.06,-334.59 555,-321 540.94,-315.55 527.29,-306.08 516.23,-296.99"/>
<polygon fill="black" stroke="black" points="518.61,-294.42 508.75,-290.53 514.03,-299.72 518.61,-294.42"/>
</g>
<!-- table::add -->
<g id="node19" class="node">
<title>table::add</title>
<ellipse fill="none" stroke="black" cx="591" cy="-272" rx="27" ry="18"/>
<text text-anchor="middle" x="591" y="-268.3" font-family="Times,serif" font-size="14.00">add</text>
</g>
<!-- token::direct_deposit&#45;&gt;table::add -->
<g id="edge20" class="edge">
<title>token::direct_deposit&#45;&gt;table::add</title>
<path fill="none" stroke="black" d="M754.8,-343.05C708.35,-339.83 648.12,-333.38 627,-321 618.09,-315.78 610.68,-307.39 604.94,-299.09"/>
<polygon fill="black" stroke="black" points="608.06,-297.47 599.79,-290.84 602.12,-301.18 608.06,-297.47"/>
</g>
<!-- error::invalid_argument -->
<g id="node20" class="node">
<title>error::invalid_argument</title>
<ellipse fill="none" stroke="black" cx="787" cy="-189" rx="73.39" ry="18"/>
<text text-anchor="middle" x="787" y="-185.3" font-family="Times,serif" font-size="14.00">invalid_argument</text>
</g>
<!-- token::direct_deposit&#45;&gt;error::invalid_argument -->
<g id="edge21" class="edge">
<title>token::direct_deposit&#45;&gt;error::invalid_argument</title>
<path fill="none" stroke="black" d="M825.78,-329.07C827.1,-326.46 828.24,-323.73 829,-321 837.9,-288.88 839.54,-277.62 829,-246 825.35,-235.05 818.62,-224.51 811.61,-215.59"/>
<polygon fill="black" stroke="black" points="814.41,-213.48 805.29,-208.09 809.05,-217.99 814.41,-213.48"/>
</g>
<!-- token::merge -->
<g id="node21" class="node">
<title>token::merge</title>
<ellipse fill="none" stroke="black" cx="787" cy="-272" rx="33.29" ry="18"/>
<text text-anchor="middle" x="787" y="-268.3" font-family="Times,serif" font-size="14.00">merge</text>
</g>
<!-- token::direct_deposit&#45;&gt;token::merge -->
<g id="edge24" class="edge">
<title>token::direct_deposit&#45;&gt;token::merge</title>
<path fill="none" stroke="black" d="M807.6,-328.7C804.49,-320.28 800.66,-309.94 797.16,-300.48"/>
<polygon fill="black" stroke="black" points="800.54,-299.51 793.78,-291.34 793.97,-301.94 800.54,-299.51"/>
</g>
<!-- token::initialize_token_store&#45;&gt;signer::address_of -->
<g id="edge26" class="edge">
<title>token::initialize_token_store&#45;&gt;signer::address_of</title>
<path fill="none" stroke="black" d="M1059.67,-339.36C1104.42,-335.83 1161.29,-331.68 1212,-329 1225.65,-328.28 1447.35,-329.57 1458,-321 1514.43,-275.58 1469.57,-229.63 1498,-163 1502.32,-152.89 1508.31,-142.49 1514.12,-133.44"/>
<polygon fill="black" stroke="black" points="1517.02,-135.41 1519.66,-125.15 1511.19,-131.52 1517.02,-135.41"/>
</g>
<!-- table::new -->
<g id="node22" class="node">
<title>table::new</title>
<ellipse fill="none" stroke="black" cx="663" cy="-272" rx="27" ry="18"/>
<text text-anchor="middle" x="663" y="-268.3" font-family="Times,serif" font-size="14.00">new</text>
</g>
<!-- token::initialize_token_store&#45;&gt;table::new -->
<g id="edge25" class="edge">
<title>token::initialize_token_store&#45;&gt;table::new</title>
<path fill="none" stroke="black" d="M917.8,-333.99C906.27,-332.08 894.29,-330.31 883,-329 851.82,-325.4 771.97,-330.31 742,-321 722.77,-315.02 703.4,-303.37 688.66,-293.04"/>
<polygon fill="black" stroke="black" points="691.06,-290.46 680.91,-287.41 686.94,-296.12 691.06,-290.46"/>
</g>
<!-- account::new_event_handle -->
<g id="node23" class="node">
<title>account::new_event_handle</title>
<ellipse fill="none" stroke="black" cx="1369" cy="-272" rx="76.89" ry="18"/>
<text text-anchor="middle" x="1369" y="-268.3" font-family="Times,serif" font-size="14.00">new_event_handle</text>
</g>
<!-- token::initialize_token_store&#45;&gt;account::new_event_handle -->
<g id="edge27" class="edge">
<title>token::initialize_token_store&#45;&gt;account::new_event_handle</title>
<path fill="none" stroke="black" d="M1042.93,-334.19C1113.19,-321.01 1226.56,-299.73 1299.41,-286.06"/>
<polygon fill="black" stroke="black" points="1299.63,-289.58 1308.81,-284.3 1298.34,-282.7 1299.63,-289.58"/>
</g>
<!-- table::borrow_box_mut -->
<g id="node24" class="node">
<title>table::borrow_box_mut</title>
<ellipse fill="none" stroke="black" cx="350" cy="-189" rx="72.29" ry="18"/>
<text text-anchor="middle" x="350" y="-185.3" font-family="Times,serif" font-size="14.00">borrow_box_mut</text>
</g>
<!-- table::borrow_mut&#45;&gt;table::borrow_box_mut -->
<g id="edge28" class="edge">
<title>table::borrow_mut&#45;&gt;table::borrow_box_mut</title>
<path fill="none" stroke="black" d="M463.42,-256.07C453.19,-250.47 441.53,-244.01 431,-238 416.27,-229.59 400.16,-220.1 386.22,-211.8"/>
<polygon fill="black" stroke="black" points="388.19,-208.9 377.81,-206.77 384.6,-214.91 388.19,-208.9"/>
</g>
<!-- table::add_box -->
<g id="node25" class="node">
<title>table::add_box</title>
<ellipse fill="none" stroke="black" cx="481" cy="-189" rx="40.89" ry="18"/>
<text text-anchor="middle" x="481" y="-185.3" font-family="Times,serif" font-size="14.00">add_box</text>
</g>
<!-- table::add&#45;&gt;table::add_box -->
<g id="edge29" class="edge">
<title>table::add&#45;&gt;table::add_box</title>
<path fill="none" stroke="black" d="M574.04,-257.74C568.23,-253.61 561.53,-249.27 555,-246 544.95,-240.96 540.62,-243.81 531,-238 520.49,-231.65 510.42,-222.75 502.11,-214.32"/>
<polygon fill="black" stroke="black" points="504.87,-212.15 495.46,-207.28 499.78,-216.95 504.87,-212.15"/>
</g>
<!-- error::invalid_argument&#45;&gt;error::canonical -->
<g id="edge30" class="edge">
<title>error::invalid_argument&#45;&gt;error::canonical</title>
<path fill="none" stroke="black" d="M801.3,-171.22C810.89,-159.96 823.7,-144.92 834.51,-132.22"/>
<polygon fill="black" stroke="black" points="837.16,-134.52 840.98,-124.64 831.83,-129.98 837.16,-134.52"/>
</g>
<!-- token::merge&#45;&gt;error::invalid_argument -->
<g id="edge31" class="edge">
<title>token::merge&#45;&gt;error::invalid_argument</title>
<path fill="none" stroke="black" d="M787,-253.82C787,-243.69 787,-230.6 787,-218.92"/>
<polygon fill="black" stroke="black" points="790.5,-218.95 787,-208.95 783.5,-218.95 790.5,-218.95"/>
</g>
<!-- table::new_table_handle -->
<g id="node26" class="node">
<title>table::new_table_handle</title>
<ellipse fill="none" stroke="black" cx="615" cy="-189" rx="74.99" ry="18"/>
<text text-anchor="middle" x="615" y="-185.3" font-family="Times,serif" font-size="14.00">new_table_handle</text>
</g>
<!-- table::new&#45;&gt;table::new_table_handle -->
<g id="edge32" class="edge">
<title>table::new&#45;&gt;table::new_table_handle</title>
<path fill="none" stroke="black" d="M653.52,-255C647.05,-244.08 638.33,-229.37 630.82,-216.7"/>
<polygon fill="black" stroke="black" points="634.01,-215.21 625.9,-208.39 627.99,-218.78 634.01,-215.21"/>
</g>
<!-- event::new_event_handle -->
<g id="node27" class="node">
<title>event::new_event_handle</title>
<ellipse fill="none" stroke="black" cx="1191" cy="-189" rx="76.89" ry="18"/>
<text text-anchor="middle" x="1191" y="-185.3" font-family="Times,serif" font-size="14.00">new_event_handle</text>
</g>
<!-- account::new_event_handle&#45;&gt;event::new_event_handle -->
<g id="edge33" class="edge">
<title>account::new_event_handle&#45;&gt;event::new_event_handle</title>
<path fill="none" stroke="black" d="M1326.41,-256.58C1311.54,-251.18 1294.86,-244.72 1280,-238 1262.68,-230.16 1244.09,-220.37 1228.4,-211.68"/>
<polygon fill="black" stroke="black" points="1230.31,-208.73 1219.87,-206.89 1226.88,-214.84 1230.31,-208.73"/>
</g>
<!-- account::create_guid -->
<g id="node28" class="node">
<title>account::create_guid</title>
<ellipse fill="none" stroke="black" cx="1394" cy="-189" rx="51.99" ry="18"/>
<text text-anchor="middle" x="1394" y="-185.3" font-family="Times,serif" font-size="14.00">create_guid</text>
</g>
<!-- account::new_event_handle&#45;&gt;account::create_guid -->
<g id="edge34" class="edge">
<title>account::new_event_handle&#45;&gt;account::create_guid</title>
<path fill="none" stroke="black" d="M1374.3,-253.82C1377.52,-243.41 1381.7,-229.87 1385.38,-217.94"/>
<polygon fill="black" stroke="black" points="1388.65,-219.19 1388.26,-208.6 1381.97,-217.12 1388.65,-219.19"/>
</g>
<!-- account::create_guid&#45;&gt;signer::address_of -->
<g id="edge35" class="edge">
<title>account::create_guid&#45;&gt;signer::address_of</title>
<path fill="none" stroke="black" d="M1429.13,-175.45C1442.9,-169.95 1458.58,-162.93 1472,-155 1484.03,-147.9 1496.31,-138.68 1506.68,-130.22"/>
<polygon fill="black" stroke="black" points="1508.65,-133.13 1514.08,-124.03 1504.16,-127.76 1508.65,-133.13"/>
</g>
<!-- guid::create -->
<g id="node29" class="node">
<title>guid::create</title>
<ellipse fill="none" stroke="black" cx="1428" cy="-106" rx="31.7" ry="18"/>
<text text-anchor="middle" x="1428" y="-102.3" font-family="Times,serif" font-size="14.00">create</text>
</g>
<!-- account::create_guid&#45;&gt;guid::create -->
<g id="edge36" class="edge">
<title>account::create_guid&#45;&gt;guid::create</title>
<path fill="none" stroke="black" d="M1401.21,-170.82C1405.66,-160.23 1411.46,-146.4 1416.53,-134.33"/>
<polygon fill="black" stroke="black" points="1419.69,-135.85 1420.33,-125.27 1413.23,-133.14 1419.69,-135.85"/>
</g>
</g>
</svg>
