<?xml version="1.0" encoding="UTF-8" standalone="no"?>
<!DOCTYPE svg PUBLIC "-//W3C//DTD SVG 1.1//EN"
 "http://www.w3.org/Graphics/SVG/1.1/DTD/svg11.dtd">
<!-- Generated by graphviz version 7.0.0 (20221023.0053)
 -->
<!-- Title: G Pages: 1 -->
<svg width="1896pt" height="440pt"
 viewBox="0.00 0.00 1896.00 440.00" xmlns="http://www.w3.org/2000/svg" xmlns:xlink="http://www.w3.org/1999/xlink">
<g id="graph0" class="graph" transform="scale(1 1) rotate(0) translate(4 436)">
<title>G</title>
<polygon fill="white" stroke="none" points="-4,4 -4,-436 1892,-436 1892,4 -4,4"/>
<g id="clust1" class="cluster">
<title>cluster_table</title>
<polygon fill="none" stroke="black" points="100,-8 100,-155 916,-155 916,-8 100,-8"/>
<text text-anchor="middle" x="508" y="-139.8" font-family="Times,serif" font-size="14.00">table</text>
</g>
<g id="clust2" class="cluster">
<title>cluster_signer</title>
<polygon fill="none" stroke="black" points="1730,-8 1730,-155 1880,-155 1880,-8 1730,-8"/>
<text text-anchor="middle" x="1805" y="-139.8" font-family="Times,serif" font-size="14.00">signer</text>
</g>
<g id="clust3" class="cluster">
<title>cluster_event</title>
<polygon fill="none" stroke="black" points="1310,-80 1310,-238 1598,-238 1598,-80 1310,-80"/>
<text text-anchor="middle" x="1454" y="-222.8" font-family="Times,serif" font-size="14.00">event</text>
</g>
<g id="clust4" class="cluster">
<title>cluster_token</title>
<polygon fill="none" stroke="black" points="432,-163 432,-388 684,-388 684,-163 432,-163"/>
<text text-anchor="middle" x="558" y="-372.8" font-family="Times,serif" font-size="14.00">token</text>
</g>
<g id="clust5" class="cluster">
<title>cluster_bcs</title>
<polygon fill="none" stroke="black" points="1206,-80 1206,-155 1302,-155 1302,-80 1206,-80"/>
<text text-anchor="middle" x="1254" y="-139.8" font-family="Times,serif" font-size="14.00">bcs</text>
</g>
<g id="clust6" class="cluster">
<title>cluster_error</title>
<polygon fill="none" stroke="black" points="924,-80 924,-238 1198,-238 1198,-80 924,-80"/>
<text text-anchor="middle" x="1061" y="-222.8" font-family="Times,serif" font-size="14.00">error</text>
</g>
<g id="clust7" class="cluster">
<title>cluster_account</title>
<polygon fill="none" stroke="black" points="1606,-163 1606,-313 1776,-313 1776,-163 1606,-163"/>
<text text-anchor="middle" x="1691" y="-297.8" font-family="Times,serif" font-size="14.00">account</text>
</g>
<g id="clust8" class="cluster">
<title>cluster_property_map</title>
<polygon fill="none" stroke="black" points="298,-163 298,-238 391,-238 391,-163 298,-163"/>
<text text-anchor="middle" x="344.5" y="-222.8" font-family="Times,serif" font-size="14.00">property_map</text>
</g>
<g id="clust9" class="cluster">
<title>cluster_simple_map</title>
<polygon fill="none" stroke="black" points="8,-80 8,-155 92,-155 92,-80 8,-80"/>
<text text-anchor="middle" x="50" y="-139.8" font-family="Times,serif" font-size="14.00">simple_map</text>
</g>
<g id="clust10" class="cluster">
<title>cluster_guid</title>
<polygon fill="none" stroke="black" points="1642,-80 1642,-155 1722,-155 1722,-80 1642,-80"/>
<text text-anchor="middle" x="1682" y="-139.8" font-family="Times,serif" font-size="14.00">guid</text>
</g>
<!-- offer -->
<g id="node1" class="node">
<title>offer</title>
<ellipse fill="none" stroke="black" cx="780" cy="-414" rx="27.9" ry="18"/>
<text text-anchor="middle" x="780" y="-410.3" font-family="Times,serif" font-size="14.00">offer</text>
</g>
<!-- table::contains -->
<g id="node2" class="node">
<title>table::contains</title>
<ellipse fill="none" stroke="black" cx="669" cy="-106" rx="40.09" ry="18"/>
<text text-anchor="middle" x="669" y="-102.3" font-family="Times,serif" font-size="14.00">contains</text>
</g>
<!-- offer&#45;&gt;table::contains -->
<g id="edge1" class="edge">
<title>offer&#45;&gt;table::contains</title>
<path fill="none" stroke="black" d="M807.58,-409.66C833.16,-405.93 868.53,-398.93 877,-388 895.24,-364.46 888.2,-348.59 877,-321 841.27,-232.97 750.01,-161.26 701.1,-127.65"/>
<polygon fill="black" stroke="black" points="703.13,-124.79 692.88,-122.1 699.21,-130.59 703.13,-124.79"/>
</g>
<!-- table::borrow_mut -->
<g id="node3" class="node">
<title>table::borrow_mut</title>
<ellipse fill="none" stroke="black" cx="280" cy="-106" rx="54.69" ry="18"/>
<text text-anchor="middle" x="280" y="-102.3" font-family="Times,serif" font-size="14.00">borrow_mut</text>
</g>
<!-- offer&#45;&gt;table::borrow_mut -->
<g id="edge2" class="edge">
<title>offer&#45;&gt;table::borrow_mut</title>
<path fill="none" stroke="black" d="M751.84,-412.7C666.9,-411.59 417.12,-406.74 386,-388 297.62,-334.78 282.54,-195.96 280.24,-135.66"/>
<polygon fill="black" stroke="black" points="283.75,-135.78 279.97,-125.88 276.75,-135.97 283.75,-135.78"/>
</g>
<!-- table::add -->
<g id="node4" class="node">
<title>table::add</title>
<ellipse fill="none" stroke="black" cx="382" cy="-106" rx="27" ry="18"/>
<text text-anchor="middle" x="382" y="-102.3" font-family="Times,serif" font-size="14.00">add</text>
</g>
<!-- offer&#45;&gt;table::add -->
<g id="edge3" class="edge">
<title>offer&#45;&gt;table::add</title>
<path fill="none" stroke="black" d="M751.71,-412.99C672.28,-412.67 451.52,-409.83 428,-388 353.91,-319.25 413.78,-262.31 395,-163 393.27,-153.86 391.08,-143.96 388.99,-135.06"/>
<polygon fill="black" stroke="black" points="392.45,-134.45 386.7,-125.55 385.64,-136.09 392.45,-134.45"/>
</g>
<!-- signer::address_of -->
<g id="node5" class="node">
<title>signer::address_of</title>
<ellipse fill="none" stroke="black" cx="1800" cy="-106" rx="48.99" ry="18"/>
<text text-anchor="middle" x="1800" y="-102.3" font-family="Times,serif" font-size="14.00">address_of</text>
</g>
<!-- offer&#45;&gt;signer::address_of -->
<g id="edge4" class="edge">
<title>offer&#45;&gt;signer::address_of</title>
<path fill="none" stroke="black" d="M808.21,-412.34C966.16,-408.36 1736.5,-385.35 1810,-313 1857.4,-266.34 1830.75,-178.93 1812.55,-134.48"/>
<polygon fill="black" stroke="black" points="1815.89,-133.38 1808.75,-125.54 1809.44,-136.12 1815.89,-133.38"/>
</g>
<!-- event::emit_event -->
<g id="node6" class="node">
<title>event::emit_event</title>
<ellipse fill="none" stroke="black" cx="1368" cy="-189" rx="50.09" ry="18"/>
<text text-anchor="middle" x="1368" y="-185.3" font-family="Times,serif" font-size="14.00">emit_event</text>
</g>
<!-- offer&#45;&gt;event::emit_event -->
<g id="edge5" class="edge">
<title>offer&#45;&gt;event::emit_event</title>
<path fill="none" stroke="black" d="M808.29,-413.79C836.38,-413.23 879.55,-408.61 910,-388 939.3,-368.16 924.9,-342.5 953,-321 968.01,-309.51 1213.27,-235.9 1319.53,-204.34"/>
<polygon fill="black" stroke="black" points="1320.23,-207.78 1328.82,-201.58 1318.24,-201.07 1320.23,-207.78"/>
</g>
<!-- token::merge -->
<g id="node7" class="node">
<title>token::merge</title>
<ellipse fill="none" stroke="black" cx="640" cy="-339" rx="33.29" ry="18"/>
<text text-anchor="middle" x="640" y="-335.3" font-family="Times,serif" font-size="14.00">merge</text>
</g>
<!-- offer&#45;&gt;token::merge -->
<g id="edge6" class="edge">
<title>offer&#45;&gt;token::merge</title>
<path fill="none" stroke="black" d="M752.41,-410.24C732.03,-407.21 704.25,-400.92 683,-388 673.31,-382.11 664.56,-373.36 657.51,-364.94"/>
<polygon fill="black" stroke="black" points="660.43,-362.99 651.51,-357.27 654.92,-367.3 660.43,-362.99"/>
</g>
<!-- token::withdraw_token -->
<g id="node8" class="node">
<title>token::withdraw_token</title>
<ellipse fill="none" stroke="black" cx="521" cy="-339" rx="67.69" ry="18"/>
<text text-anchor="middle" x="521" y="-335.3" font-family="Times,serif" font-size="14.00">withdraw_token</text>
</g>
<!-- offer&#45;&gt;token::withdraw_token -->
<g id="edge7" class="edge">
<title>offer&#45;&gt;token::withdraw_token</title>
<path fill="none" stroke="black" d="M751.69,-412.75C715.14,-411.61 650.04,-406.82 598,-388 581.55,-382.05 564.88,-372.23 551.28,-363.02"/>
<polygon fill="black" stroke="black" points="553.4,-360.23 543.21,-357.35 549.38,-365.96 553.4,-360.23"/>
</g>
<!-- create_token_offer_id -->
<g id="node9" class="node">
<title>create_token_offer_id</title>
<ellipse fill="none" stroke="black" cx="780" cy="-339" rx="88.28" ry="18"/>
<text text-anchor="middle" x="780" y="-335.3" font-family="Times,serif" font-size="14.00">create_token_offer_id</text>
</g>
<!-- offer&#45;&gt;create_token_offer_id -->
<g id="edge8" class="edge">
<title>offer&#45;&gt;create_token_offer_id</title>
<path fill="none" stroke="black" d="M780,-395.7C780,-387.67 780,-377.9 780,-368.8"/>
<polygon fill="black" stroke="black" points="783.5,-368.94 780,-358.94 776.5,-368.94 783.5,-368.94"/>
</g>
<!-- initialize_token_transfers -->
<g id="node10" class="node">
<title>initialize_token_transfers</title>
<ellipse fill="none" stroke="black" cx="1062" cy="-339" rx="100.18" ry="18"/>
<text text-anchor="middle" x="1062" y="-335.3" font-family="Times,serif" font-size="14.00">initialize_token_transfers</text>
</g>
<!-- offer&#45;&gt;initialize_token_transfers -->
<g id="edge9" class="edge">
<title>offer&#45;&gt;initialize_token_transfers</title>
<path fill="none" stroke="black" d="M807.8,-411.01C841.48,-408.11 899.73,-401.52 948,-388 972.24,-381.21 998.17,-370.58 1019.18,-361.04"/>
<polygon fill="black" stroke="black" points="1020.39,-364.34 1027.99,-356.96 1017.45,-357.99 1020.39,-364.34"/>
</g>
<!-- table::contains_box -->
<g id="node11" class="node">
<title>table::contains_box</title>
<ellipse fill="none" stroke="black" cx="682" cy="-34" rx="57.69" ry="18"/>
<text text-anchor="middle" x="682" y="-30.3" font-family="Times,serif" font-size="14.00">contains_box</text>
</g>
<!-- table::contains&#45;&gt;table::contains_box -->
<g id="edge10" class="edge">
<title>table::contains&#45;&gt;table::contains_box</title>
<path fill="none" stroke="black" d="M672.21,-87.7C673.58,-80.32 675.22,-71.52 676.75,-63.25"/>
<polygon fill="black" stroke="black" points="680.16,-64.06 678.55,-53.59 673.28,-62.79 680.16,-64.06"/>
</g>
<!-- table::borrow_box_mut -->
<g id="node12" class="node">
<title>table::borrow_box_mut</title>
<ellipse fill="none" stroke="black" cx="180" cy="-34" rx="72.29" ry="18"/>
<text text-anchor="middle" x="180" y="-30.3" font-family="Times,serif" font-size="14.00">borrow_box_mut</text>
</g>
<!-- table::borrow_mut&#45;&gt;table::borrow_box_mut -->
<g id="edge11" class="edge">
<title>table::borrow_mut&#45;&gt;table::borrow_box_mut</title>
<path fill="none" stroke="black" d="M257.81,-89.46C244.59,-80.21 227.57,-68.3 212.83,-57.98"/>
<polygon fill="black" stroke="black" points="214.96,-55.2 204.76,-52.34 210.95,-60.94 214.96,-55.2"/>
</g>
<!-- table::add_box -->
<g id="node13" class="node">
<title>table::add_box</title>
<ellipse fill="none" stroke="black" cx="311" cy="-34" rx="40.89" ry="18"/>
<text text-anchor="middle" x="311" y="-30.3" font-family="Times,serif" font-size="14.00">add_box</text>
</g>
<!-- table::add&#45;&gt;table::add_box -->
<g id="edge12" class="edge">
<title>table::add&#45;&gt;table::add_box</title>
<path fill="none" stroke="black" d="M367.29,-90.5C358.06,-81.4 345.93,-69.44 335.3,-58.96"/>
<polygon fill="black" stroke="black" points="337.83,-56.54 328.26,-52.01 332.92,-61.53 337.83,-56.54"/>
</g>
<!-- signer::borrow_address -->
<g id="node14" class="node">
<title>signer::borrow_address</title>
<ellipse fill="none" stroke="black" cx="1805" cy="-34" rx="66.89" ry="18"/>
<text text-anchor="middle" x="1805" y="-30.3" font-family="Times,serif" font-size="14.00">borrow_address</text>
</g>
<!-- signer::address_of&#45;&gt;signer::borrow_address -->
<g id="edge13" class="edge">
<title>signer::address_of&#45;&gt;signer::borrow_address</title>
<path fill="none" stroke="black" d="M1801.24,-87.7C1801.76,-80.41 1802.38,-71.73 1802.96,-63.54"/>
<polygon fill="black" stroke="black" points="1806.45,-63.84 1803.67,-53.61 1799.47,-63.34 1806.45,-63.84"/>
</g>
<!-- bcs::to_bytes -->
<g id="node15" class="node">
<title>bcs::to_bytes</title>
<ellipse fill="none" stroke="black" cx="1254" cy="-106" rx="40.09" ry="18"/>
<text text-anchor="middle" x="1254" y="-102.3" font-family="Times,serif" font-size="14.00">to_bytes</text>
</g>
<!-- event::emit_event&#45;&gt;bcs::to_bytes -->
<g id="edge14" class="edge">
<title>event::emit_event&#45;&gt;bcs::to_bytes</title>
<path fill="none" stroke="black" d="M1338.38,-174.2C1327.81,-168.77 1316.04,-162.13 1306,-155 1295.93,-147.85 1285.75,-138.92 1277.1,-130.7"/>
<polygon fill="black" stroke="black" points="1279.71,-128.36 1270.11,-123.88 1274.82,-133.37 1279.71,-128.36"/>
</g>
<!-- event::write_to_event_store -->
<g id="node16" class="node">
<title>event::write_to_event_store</title>
<ellipse fill="none" stroke="black" cx="1403" cy="-106" rx="85.29" ry="18"/>
<text text-anchor="middle" x="1403" y="-102.3" font-family="Times,serif" font-size="14.00">write_to_event_store</text>
</g>
<!-- event::emit_event&#45;&gt;event::write_to_event_store -->
<g id="edge15" class="edge">
<title>event::emit_event&#45;&gt;event::write_to_event_store</title>
<path fill="none" stroke="black" d="M1375.42,-170.82C1379.97,-160.3 1385.89,-146.59 1391.09,-134.57"/>
<polygon fill="black" stroke="black" points="1394.23,-136.11 1394.99,-125.54 1387.81,-133.33 1394.23,-136.11"/>
</g>
<!-- error::invalid_argument -->
<g id="node17" class="node">
<title>error::invalid_argument</title>
<ellipse fill="none" stroke="black" cx="1117" cy="-189" rx="73.39" ry="18"/>
<text text-anchor="middle" x="1117" y="-185.3" font-family="Times,serif" font-size="14.00">invalid_argument</text>
</g>
<!-- token::merge&#45;&gt;error::invalid_argument -->
<g id="edge16" class="edge">
<title>token::merge&#45;&gt;error::invalid_argument</title>
<path fill="none" stroke="black" d="M665.81,-327.46C671.45,-325.25 677.4,-322.99 683,-321 787.1,-284 811.46,-266.65 920,-246 970.33,-236.43 986.05,-253.12 1035,-238 1052.93,-232.46 1071.11,-222.37 1085.79,-212.86"/>
<polygon fill="black" stroke="black" points="1087.74,-215.77 1094.08,-207.28 1083.83,-209.96 1087.74,-215.77"/>
</g>
<!-- token::withdraw_token&#45;&gt;signer::address_of -->
<g id="edge17" class="edge">
<title>token::withdraw_token&#45;&gt;signer::address_of</title>
<path fill="none" stroke="black" d="M568.8,-325.81C578.4,-323.83 588.48,-322.07 598,-321 614.31,-319.16 1767.88,-324.07 1780,-313 1829.06,-268.17 1817.67,-180.57 1807.57,-135.42"/>
<polygon fill="black" stroke="black" points="1811.01,-134.78 1805.29,-125.87 1804.2,-136.4 1811.01,-134.78"/>
</g>
<!-- token::withdraw_with_event_internal -->
<g id="node18" class="node">
<title>token::withdraw_with_event_internal</title>
<ellipse fill="none" stroke="black" cx="558" cy="-264" rx="118.08" ry="18"/>
<text text-anchor="middle" x="558" y="-260.3" font-family="Times,serif" font-size="14.00">withdraw_with_event_internal</text>
</g>
<!-- token::withdraw_token&#45;&gt;token::withdraw_with_event_internal -->
<g id="edge18" class="edge">
<title>token::withdraw_token&#45;&gt;token::withdraw_with_event_internal</title>
<path fill="none" stroke="black" d="M529.77,-320.7C534.02,-312.31 539.24,-302.02 544.02,-292.58"/>
<polygon fill="black" stroke="black" points="547.08,-294.28 548.48,-283.78 540.84,-291.12 547.08,-294.28"/>
</g>
<!-- table::new -->
<g id="node19" class="node">
<title>table::new</title>
<ellipse fill="none" stroke="black" cx="857" cy="-106" rx="27" ry="18"/>
<text text-anchor="middle" x="857" y="-102.3" font-family="Times,serif" font-size="14.00">new</text>
</g>
<!-- initialize_token_transfers&#45;&gt;table::new -->
<g id="edge19" class="edge">
<title>initialize_token_transfers&#45;&gt;table::new</title>
<path fill="none" stroke="black" d="M1029.63,-321.57C998.26,-304.3 950.99,-274.58 920,-238 893.62,-206.86 875.43,-162.78 865.61,-134.55"/>
<polygon fill="black" stroke="black" points="869,-133.66 862.51,-125.28 862.36,-135.88 869,-133.66"/>
</g>
<!-- account::new_event_handle -->
<g id="node20" class="node">
<title>account::new_event_handle</title>
<ellipse fill="none" stroke="black" cx="1691" cy="-264" rx="76.89" ry="18"/>
<text text-anchor="middle" x="1691" y="-260.3" font-family="Times,serif" font-size="14.00">new_event_handle</text>
</g>
<!-- initialize_token_transfers&#45;&gt;account::new_event_handle -->
<g id="edge20" class="edge">
<title>initialize_token_transfers&#45;&gt;account::new_event_handle</title>
<path fill="none" stroke="black" d="M1144.55,-328.42C1266.28,-314.29 1492.39,-288.05 1612.03,-274.16"/>
<polygon fill="black" stroke="black" points="1612.24,-277.66 1621.77,-273.04 1611.43,-270.71 1612.24,-277.66"/>
</g>
<!-- error::canonical -->
<g id="node21" class="node">
<title>error::canonical</title>
<ellipse fill="none" stroke="black" cx="1048" cy="-106" rx="44.39" ry="18"/>
<text text-anchor="middle" x="1048" y="-102.3" font-family="Times,serif" font-size="14.00">canonical</text>
</g>
<!-- error::invalid_argument&#45;&gt;error::canonical -->
<g id="edge21" class="edge">
<title>error::invalid_argument&#45;&gt;error::canonical</title>
<path fill="none" stroke="black" d="M1102.7,-171.22C1093.11,-159.96 1080.3,-144.92 1069.49,-132.22"/>
<polygon fill="black" stroke="black" points="1072.17,-129.98 1063.02,-124.64 1066.84,-134.52 1072.17,-129.98"/>
</g>
<!-- token::withdraw_with_event_internal&#45;&gt;table::contains -->
<g id="edge22" class="edge">
<title>token::withdraw_with_event_internal&#45;&gt;table::contains</title>
<path fill="none" stroke="black" d="M608.1,-247.3C612.45,-244.65 616.52,-241.57 620,-238 647.56,-209.73 659.88,-164.52 665.2,-135.3"/>
<polygon fill="black" stroke="black" points="668.61,-136.15 666.77,-125.71 661.7,-135.01 668.61,-136.15"/>
</g>
<!-- token::withdraw_with_event_internal&#45;&gt;table::borrow_mut -->
<g id="edge23" class="edge">
<title>token::withdraw_with_event_internal&#45;&gt;table::borrow_mut</title>
<path fill="none" stroke="black" d="M492.22,-248.75C484.13,-245.79 476.19,-242.24 469,-238 428.67,-214.21 436.6,-184.5 395,-163 375.4,-152.87 366.36,-163.5 346,-155 331.76,-149.06 317.7,-139.49 306.23,-130.45"/>
<polygon fill="black" stroke="black" points="308.76,-128 298.81,-124.35 304.32,-133.41 308.76,-128"/>
</g>
<!-- token::withdraw_with_event_internal&#45;&gt;event::emit_event -->
<g id="edge27" class="edge">
<title>token::withdraw_with_event_internal&#45;&gt;event::emit_event</title>
<path fill="none" stroke="black" d="M668.08,-257.3C739.81,-253.72 835.44,-249.18 920,-246 982.65,-243.64 1140.06,-247.67 1202,-238 1243.94,-231.45 1290.24,-217.48 1323.26,-206.29"/>
<polygon fill="black" stroke="black" points="1324.17,-209.67 1332.49,-203.1 1321.89,-203.05 1324.17,-209.67"/>
</g>
<!-- token::withdraw_with_event_internal&#45;&gt;error::invalid_argument -->
<g id="edge25" class="edge">
<title>token::withdraw_with_event_internal&#45;&gt;error::invalid_argument</title>
<path fill="none" stroke="black" d="M668.22,-257.21C730.9,-253.92 810.84,-249.73 882,-246 916,-244.22 1002.38,-247.77 1035,-238 1053.15,-232.57 1071.52,-222.35 1086.25,-212.73"/>
<polygon fill="black" stroke="black" points="1087.8,-215.91 1094.12,-207.4 1083.88,-210.11 1087.8,-215.91"/>
</g>
<!-- table::remove -->
<g id="node22" class="node">
<title>table::remove</title>
<ellipse fill="none" stroke="black" cx="468" cy="-106" rx="37.89" ry="18"/>
<text text-anchor="middle" x="468" y="-102.3" font-family="Times,serif" font-size="14.00">remove</text>
</g>
<!-- token::withdraw_with_event_internal&#45;&gt;table::remove -->
<g id="edge24" class="edge">
<title>token::withdraw_with_event_internal&#45;&gt;table::remove</title>
<path fill="none" stroke="black" d="M514.02,-246.92C510.3,-244.35 506.87,-241.39 504,-238 479.46,-209.02 471.55,-164.68 469.05,-135.76"/>
<polygon fill="black" stroke="black" points="472.56,-135.65 468.39,-125.91 465.57,-136.12 472.56,-135.65"/>
</g>
<!-- error::not_found -->
<g id="node23" class="node">
<title>error::not_found</title>
<ellipse fill="none" stroke="black" cx="979" cy="-189" rx="46.59" ry="18"/>
<text text-anchor="middle" x="979" y="-185.3" font-family="Times,serif" font-size="14.00">not_found</text>
</g>
<!-- token::withdraw_with_event_internal&#45;&gt;error::not_found -->
<g id="edge26" class="edge">
<title>token::withdraw_with_event_internal&#45;&gt;error::not_found</title>
<path fill="none" stroke="black" d="M633.75,-249.86C718.02,-235.25 851.99,-212.02 925.82,-199.22"/>
<polygon fill="black" stroke="black" points="926.39,-202.67 935.65,-197.52 925.2,-195.78 926.39,-202.67"/>
</g>
<!-- property_map::empty -->
<g id="node24" class="node">
<title>property_map::empty</title>
<ellipse fill="none" stroke="black" cx="344" cy="-189" rx="33.29" ry="18"/>
<text text-anchor="middle" x="344" y="-185.3" font-family="Times,serif" font-size="14.00">empty</text>
</g>
<!-- token::withdraw_with_event_internal&#45;&gt;property_map::empty -->
<g id="edge28" class="edge">
<title>token::withdraw_with_event_internal&#45;&gt;property_map::empty</title>
<path fill="none" stroke="black" d="M474.01,-251.06C458.46,-247.67 442.55,-243.39 428,-238 408.88,-230.92 389,-219.76 373.38,-209.98"/>
<polygon fill="black" stroke="black" points="375.37,-207.1 365.06,-204.63 371.58,-212.98 375.37,-207.1"/>
</g>
<!-- token::balance_of -->
<g id="node25" class="node">
<title>token::balance_of</title>
<ellipse fill="none" stroke="black" cx="562" cy="-189" rx="49.29" ry="18"/>
<text text-anchor="middle" x="562" y="-185.3" font-family="Times,serif" font-size="14.00">balance_of</text>
</g>
<!-- token::withdraw_with_event_internal&#45;&gt;token::balance_of -->
<g id="edge29" class="edge">
<title>token::withdraw_with_event_internal&#45;&gt;token::balance_of</title>
<path fill="none" stroke="black" d="M558.95,-245.7C559.39,-237.67 559.92,-227.9 560.42,-218.8"/>
<polygon fill="black" stroke="black" points="563.91,-219.12 560.96,-208.94 556.92,-218.73 563.91,-219.12"/>
</g>
<!-- table::new_table_handle -->
<g id="node26" class="node">
<title>table::new_table_handle</title>
<ellipse fill="none" stroke="black" cx="833" cy="-34" rx="74.99" ry="18"/>
<text text-anchor="middle" x="833" y="-30.3" font-family="Times,serif" font-size="14.00">new_table_handle</text>
</g>
<!-- table::new&#45;&gt;table::new_table_handle -->
<g id="edge30" class="edge">
<title>table::new&#45;&gt;table::new_table_handle</title>
<path fill="none" stroke="black" d="M851.19,-88.05C848.61,-80.52 845.49,-71.44 842.58,-62.94"/>
<polygon fill="black" stroke="black" points="845.97,-62.03 839.41,-53.71 839.35,-64.3 845.97,-62.03"/>
</g>
<!-- event::new_event_handle -->
<g id="node27" class="node">
<title>event::new_event_handle</title>
<ellipse fill="none" stroke="black" cx="1513" cy="-189" rx="76.89" ry="18"/>
<text text-anchor="middle" x="1513" y="-185.3" font-family="Times,serif" font-size="14.00">new_event_handle</text>
</g>
<!-- account::new_event_handle&#45;&gt;event::new_event_handle -->
<g id="edge31" class="edge">
<title>account::new_event_handle&#45;&gt;event::new_event_handle</title>
<path fill="none" stroke="black" d="M1639.05,-250.49C1626.73,-246.95 1613.75,-242.75 1602,-238 1584.11,-230.77 1565.17,-220.9 1549.39,-211.98"/>
<polygon fill="black" stroke="black" points="1551.24,-209.01 1540.83,-207.06 1547.75,-215.08 1551.24,-209.01"/>
</g>
<!-- account::create_guid -->
<g id="node28" class="node">
<title>account::create_guid</title>
<ellipse fill="none" stroke="black" cx="1691" cy="-189" rx="51.99" ry="18"/>
<text text-anchor="middle" x="1691" y="-185.3" font-family="Times,serif" font-size="14.00">create_guid</text>
</g>
<!-- account::new_event_handle&#45;&gt;account::create_guid -->
<g id="edge32" class="edge">
<title>account::new_event_handle&#45;&gt;account::create_guid</title>
<path fill="none" stroke="black" d="M1691,-245.7C1691,-237.67 1691,-227.9 1691,-218.8"/>
<polygon fill="black" stroke="black" points="1694.5,-218.94 1691,-208.94 1687.5,-218.94 1694.5,-218.94"/>
</g>
<!-- table::remove_box -->
<g id="node29" class="node">
<title>table::remove_box</title>
<ellipse fill="none" stroke="black" cx="425" cy="-34" rx="55.49" ry="18"/>
<text text-anchor="middle" x="425" y="-30.3" font-family="Times,serif" font-size="14.00">remove_box</text>
</g>
<!-- table::remove&#45;&gt;table::remove_box -->
<g id="edge33" class="edge">
<title>table::remove&#45;&gt;table::remove_box</title>
<path fill="none" stroke="black" d="M457.81,-88.41C452.9,-80.42 446.89,-70.64 441.37,-61.64"/>
<polygon fill="black" stroke="black" points="444.42,-59.93 436.21,-53.25 438.46,-63.6 444.42,-59.93"/>
</g>
<!-- error::not_found&#45;&gt;error::canonical -->
<g id="edge34" class="edge">
<title>error::not_found&#45;&gt;error::canonical</title>
<path fill="none" stroke="black" d="M992.96,-171.61C1002.69,-160.19 1015.84,-144.75 1026.85,-131.83"/>
<polygon fill="black" stroke="black" points="1029.26,-134.4 1033.08,-124.52 1023.93,-129.86 1029.26,-134.4"/>
</g>
<!-- simple_map::create -->
<g id="node30" class="node">
<title>simple_map::create</title>
<ellipse fill="none" stroke="black" cx="52" cy="-106" rx="31.7" ry="18"/>
<text text-anchor="middle" x="52" y="-102.3" font-family="Times,serif" font-size="14.00">create</text>
</g>
<!-- property_map::empty&#45;&gt;simple_map::create -->
<g id="edge35" class="edge">
<title>property_map::empty&#45;&gt;simple_map::create</title>
<path fill="none" stroke="black" d="M310.81,-186.38C252.1,-183.06 132.69,-174.13 96,-155 85.58,-149.57 76.37,-140.64 69.11,-131.95"/>
<polygon fill="black" stroke="black" points="72.09,-130.08 63.2,-124.32 66.56,-134.37 72.09,-130.08"/>
</g>
<!-- token::balance_of&#45;&gt;table::contains -->
<g id="edge36" class="edge">
<title>token::balance_of&#45;&gt;table::contains</title>
<path fill="none" stroke="black" d="M583.06,-172.25C590.34,-166.8 598.54,-160.64 606,-155 617.28,-146.47 629.67,-137.05 640.45,-128.82"/>
<polygon fill="black" stroke="black" points="642.42,-131.72 648.25,-122.88 638.17,-126.16 642.42,-131.72"/>
</g>
<!-- table::borrow -->
<g id="node31" class="node">
<title>table::borrow</title>
<ellipse fill="none" stroke="black" cx="561" cy="-106" rx="36.29" ry="18"/>
<text text-anchor="middle" x="561" y="-102.3" font-family="Times,serif" font-size="14.00">borrow</text>
</g>
<!-- token::balance_of&#45;&gt;table::borrow -->
<g id="edge37" class="edge">
<title>token::balance_of&#45;&gt;table::borrow</title>
<path fill="none" stroke="black" d="M561.79,-170.82C561.66,-160.69 561.5,-147.6 561.36,-135.92"/>
<polygon fill="black" stroke="black" points="564.86,-135.9 561.23,-125.95 557.86,-135.99 564.86,-135.9"/>
</g>
<!-- account::create_guid&#45;&gt;signer::address_of -->
<g id="edge38" class="edge">
<title>account::create_guid&#45;&gt;signer::address_of</title>
<path fill="none" stroke="black" d="M1712.28,-172.19C1728.74,-159.96 1751.74,-142.87 1770.05,-129.25"/>
<polygon fill="black" stroke="black" points="1772,-132.17 1777.93,-123.4 1767.82,-126.55 1772,-132.17"/>
</g>
<!-- guid::create -->
<g id="node32" class="node">
<title>guid::create</title>
<ellipse fill="none" stroke="black" cx="1682" cy="-106" rx="31.7" ry="18"/>
<text text-anchor="middle" x="1682" y="-102.3" font-family="Times,serif" font-size="14.00">create</text>
</g>
<!-- account::create_guid&#45;&gt;guid::create -->
<g id="edge39" class="edge">
<title>account::create_guid&#45;&gt;guid::create</title>
<path fill="none" stroke="black" d="M1689.09,-170.82C1687.95,-160.58 1686.48,-147.33 1685.17,-135.55"/>
<polygon fill="black" stroke="black" points="1688.69,-135.49 1684.1,-125.94 1681.73,-136.26 1688.69,-135.49"/>
</g>
<!-- table::borrow_box -->
<g id="node33" class="node">
<title>table::borrow_box</title>
<ellipse fill="none" stroke="black" cx="552" cy="-34" rx="53.89" ry="18"/>
<text text-anchor="middle" x="552" y="-30.3" font-family="Times,serif" font-size="14.00">borrow_box</text>
</g>
<!-- table::borrow&#45;&gt;table::borrow_box -->
<g id="edge40" class="edge">
<title>table::borrow&#45;&gt;table::borrow_box</title>
<path fill="none" stroke="black" d="M558.78,-87.7C557.83,-80.32 556.7,-71.52 555.63,-63.25"/>
<polygon fill="black" stroke="black" points="559.14,-63.08 554.39,-53.61 552.2,-63.97 559.14,-63.08"/>
</g>
</g>
</svg>
