<?xml version="1.0" encoding="UTF-8" standalone="no"?>
<!DOCTYPE svg PUBLIC "-//W3C//DTD SVG 1.1//EN"
 "http://www.w3.org/Graphics/SVG/1.1/DTD/svg11.dtd">
<!-- Generated by graphviz version 7.0.0 (20221023.0053)
 -->
<!-- Title: G Pages: 1 -->
<svg width="2058pt" height="512pt"
 viewBox="0.00 0.00 2058.39 512.00" xmlns="http://www.w3.org/2000/svg" xmlns:xlink="http://www.w3.org/1999/xlink">
<g id="graph0" class="graph" transform="scale(1 1) rotate(0) translate(4 508)">
<title>G</title>
<polygon fill="white" stroke="none" points="-4,4 -4,-508 2054.39,-508 2054.39,4 -4,4"/>
<g id="clust1" class="cluster">
<title>cluster_token</title>
<polygon fill="none" stroke="black" points="1129.39,-163 1129.39,-388 1571.39,-388 1571.39,-163 1129.39,-163"/>
<text text-anchor="middle" x="1350.39" y="-372.8" font-family="Times,serif" font-size="14.00">token</text>
</g>
<g id="clust2" class="cluster">
<title>cluster_table</title>
<polygon fill="none" stroke="black" points="840.39,-8 840.39,-155 1656.39,-155 1656.39,-8 840.39,-8"/>
<text text-anchor="middle" x="1248.39" y="-139.8" font-family="Times,serif" font-size="14.00">table</text>
</g>
<g id="clust3" class="cluster">
<title>cluster_signer</title>
<polygon fill="none" stroke="black" points="154.39,-8 154.39,-155 304.39,-155 304.39,-8 154.39,-8"/>
<text text-anchor="middle" x="229.39" y="-139.8" font-family="Times,serif" font-size="14.00">signer</text>
</g>
<g id="clust4" class="cluster">
<title>cluster_event</title>
<polygon fill="none" stroke="black" points="440.39,-80 440.39,-238 728.39,-238 728.39,-80 440.39,-80"/>
<text text-anchor="middle" x="584.39" y="-222.8" font-family="Times,serif" font-size="14.00">event</text>
</g>
<g id="clust5" class="cluster">
<title>cluster_string</title>
<polygon fill="none" stroke="black" points="1579.39,-163 1579.39,-238 1659.39,-238 1659.39,-163 1579.39,-163"/>
<text text-anchor="middle" x="1619.39" y="-222.8" font-family="Times,serif" font-size="14.00">string</text>
</g>
<g id="clust6" class="cluster">
<title>cluster_error</title>
<polygon fill="none" stroke="black" points="1768.39,-80 1768.39,-238 2042.39,-238 2042.39,-80 1768.39,-80"/>
<text text-anchor="middle" x="1905.39" y="-222.8" font-family="Times,serif" font-size="14.00">error</text>
</g>
<g id="clust7" class="cluster">
<title>cluster_bcs</title>
<polygon fill="none" stroke="black" points="736.39,-80 736.39,-155 832.39,-155 832.39,-80 736.39,-80"/>
<text text-anchor="middle" x="784.39" y="-139.8" font-family="Times,serif" font-size="14.00">bcs</text>
</g>
<g id="clust8" class="cluster">
<title>cluster_account</title>
<polygon fill="none" stroke="black" points="262.39,-163 262.39,-313 432.39,-313 432.39,-163 262.39,-163"/>
<text text-anchor="middle" x="347.39" y="-297.8" font-family="Times,serif" font-size="14.00">account</text>
</g>
<g id="clust9" class="cluster">
<title>cluster_property_map</title>
<polygon fill="none" stroke="black" points="1667.39,-163 1667.39,-238 1760.39,-238 1760.39,-163 1667.39,-163"/>
<text text-anchor="middle" x="1713.89" y="-222.8" font-family="Times,serif" font-size="14.00">property_map</text>
</g>
<g id="clust10" class="cluster">
<title>cluster_simple_map</title>
<polygon fill="none" stroke="black" points="1667.39,-80 1667.39,-155 1751.39,-155 1751.39,-80 1667.39,-80"/>
<text text-anchor="middle" x="1709.39" y="-139.8" font-family="Times,serif" font-size="14.00">simple_map</text>
</g>
<g id="clust11" class="cluster">
<title>cluster_guid</title>
<polygon fill="none" stroke="black" points="312.39,-80 312.39,-155 392.39,-155 392.39,-80 312.39,-80"/>
<text text-anchor="middle" x="352.39" y="-139.8" font-family="Times,serif" font-size="14.00">guid</text>
</g>
<!-- offer_script -->
<g id="node1" class="node">
<title>offer_script</title>
<ellipse fill="none" stroke="black" cx="1044.39" cy="-486" rx="51.99" ry="18"/>
<text text-anchor="middle" x="1044.39" y="-482.3" font-family="Times,serif" font-size="14.00">offer_script</text>
</g>
<!-- token::create_token_id_raw -->
<g id="node2" class="node">
<title>token::create_token_id_raw</title>
<ellipse fill="none" stroke="black" cx="1384.39" cy="-339" rx="84.49" ry="18"/>
<text text-anchor="middle" x="1384.39" y="-335.3" font-family="Times,serif" font-size="14.00">create_token_id_raw</text>
</g>
<!-- offer_script&#45;&gt;token::create_token_id_raw -->
<g id="edge1" class="edge">
<title>offer_script&#45;&gt;token::create_token_id_raw</title>
<path fill="none" stroke="black" d="M1078.13,-471.9C1124.47,-453.76 1210.27,-419.64 1282.39,-388 1301.87,-379.46 1323.19,-369.52 1341.28,-360.9"/>
<polygon fill="black" stroke="black" points="1342.64,-364.13 1350.15,-356.66 1339.62,-357.82 1342.64,-364.13"/>
</g>
<!-- offer -->
<g id="node3" class="node">
<title>offer</title>
<ellipse fill="none" stroke="black" cx="1016.39" cy="-414" rx="27.9" ry="18"/>
<text text-anchor="middle" x="1016.39" y="-410.3" font-family="Times,serif" font-size="14.00">offer</text>
</g>
<!-- offer_script&#45;&gt;offer -->
<g id="edge2" class="edge">
<title>offer_script&#45;&gt;offer</title>
<path fill="none" stroke="black" d="M1037.47,-467.7C1034.41,-460.04 1030.73,-450.85 1027.31,-442.3"/>
<polygon fill="black" stroke="black" points="1030.57,-441.01 1023.6,-433.03 1024.07,-443.61 1030.57,-441.01"/>
</g>
<!-- token::create_token_data_id -->
<g id="node4" class="node">
<title>token::create_token_data_id</title>
<ellipse fill="none" stroke="black" cx="1477.39" cy="-264" rx="85.59" ry="18"/>
<text text-anchor="middle" x="1477.39" y="-260.3" font-family="Times,serif" font-size="14.00">create_token_data_id</text>
</g>
<!-- token::create_token_id_raw&#45;&gt;token::create_token_data_id -->
<g id="edge3" class="edge">
<title>token::create_token_id_raw&#45;&gt;token::create_token_data_id</title>
<path fill="none" stroke="black" d="M1405.5,-321.44C1417.77,-311.8 1433.46,-299.48 1447.05,-288.82"/>
<polygon fill="black" stroke="black" points="1449.15,-291.61 1454.86,-282.69 1444.83,-286.11 1449.15,-291.61"/>
</g>
<!-- table::contains -->
<g id="node5" class="node">
<title>table::contains</title>
<ellipse fill="none" stroke="black" cx="1138.39" cy="-106" rx="40.09" ry="18"/>
<text text-anchor="middle" x="1138.39" y="-102.3" font-family="Times,serif" font-size="14.00">contains</text>
</g>
<!-- offer&#45;&gt;table::contains -->
<g id="edge4" class="edge">
<title>offer&#45;&gt;table::contains</title>
<path fill="none" stroke="black" d="M1023.13,-396.11C1043.16,-345.87 1102.53,-196.96 1127.32,-134.77"/>
<polygon fill="black" stroke="black" points="1130.52,-136.2 1130.97,-125.62 1124.01,-133.61 1130.52,-136.2"/>
</g>
<!-- table::borrow_mut -->
<g id="node6" class="node">
<title>table::borrow_mut</title>
<ellipse fill="none" stroke="black" cx="1276.39" cy="-106" rx="54.69" ry="18"/>
<text text-anchor="middle" x="1276.39" y="-102.3" font-family="Times,serif" font-size="14.00">borrow_mut</text>
</g>
<!-- offer&#45;&gt;table::borrow_mut -->
<g id="edge5" class="edge">
<title>offer&#45;&gt;table::borrow_mut</title>
<path fill="none" stroke="black" d="M1037.13,-401.57C1042.63,-397.8 1048.19,-393.22 1052.39,-388 1075.01,-359.91 1071.62,-347.09 1083.39,-313 1094.69,-280.28 1099.21,-185.64 1125.39,-163 1135.9,-153.91 1174.17,-159.26 1187.39,-155 1207.04,-148.67 1227.42,-138.03 1243.71,-128.37"/>
<polygon fill="black" stroke="black" points="1245.27,-131.52 1251.99,-123.32 1241.63,-125.54 1245.27,-131.52"/>
</g>
<!-- table::add -->
<g id="node7" class="node">
<title>table::add</title>
<ellipse fill="none" stroke="black" cx="1026.39" cy="-106" rx="27" ry="18"/>
<text text-anchor="middle" x="1026.39" y="-102.3" font-family="Times,serif" font-size="14.00">add</text>
</g>
<!-- offer&#45;&gt;table::add -->
<g id="edge6" class="edge">
<title>offer&#45;&gt;table::add</title>
<path fill="none" stroke="black" d="M1016.33,-395.71C1016.26,-355.07 1016.63,-250.34 1021.39,-163 1021.88,-154.02 1022.67,-144.25 1023.47,-135.43"/>
<polygon fill="black" stroke="black" points="1026.94,-135.93 1024.41,-125.64 1019.97,-135.26 1026.94,-135.93"/>
</g>
<!-- signer::address_of -->
<g id="node8" class="node">
<title>signer::address_of</title>
<ellipse fill="none" stroke="black" cx="238.39" cy="-106" rx="48.99" ry="18"/>
<text text-anchor="middle" x="238.39" y="-102.3" font-family="Times,serif" font-size="14.00">address_of</text>
</g>
<!-- offer&#45;&gt;signer::address_of -->
<g id="edge7" class="edge">
<title>offer&#45;&gt;signer::address_of</title>
<path fill="none" stroke="black" d="M988.36,-411.61C853.28,-404.65 273.87,-371.51 221.39,-313 177.09,-263.6 205.65,-178.09 224.94,-134.41"/>
<polygon fill="black" stroke="black" points="228.09,-135.93 229.08,-125.38 221.73,-133.01 228.09,-135.93"/>
</g>
<!-- event::emit_event -->
<g id="node9" class="node">
<title>event::emit_event</title>
<ellipse fill="none" stroke="black" cx="670.39" cy="-189" rx="50.09" ry="18"/>
<text text-anchor="middle" x="670.39" y="-185.3" font-family="Times,serif" font-size="14.00">emit_event</text>
</g>
<!-- offer&#45;&gt;event::emit_event -->
<g id="edge8" class="edge">
<title>offer&#45;&gt;event::emit_event</title>
<path fill="none" stroke="black" d="M997.62,-400.57C992.69,-396.85 987.59,-392.54 983.39,-388 959.36,-362.03 966.85,-344.49 940.39,-321 874.14,-262.19 776.78,-223.71 718.86,-204.5"/>
<polygon fill="black" stroke="black" points="720.21,-201.25 709.62,-201.49 718.04,-207.91 720.21,-201.25"/>
</g>
<!-- token::merge -->
<g id="node10" class="node">
<title>token::merge</title>
<ellipse fill="none" stroke="black" cx="1525.39" cy="-339" rx="33.29" ry="18"/>
<text text-anchor="middle" x="1525.39" y="-335.3" font-family="Times,serif" font-size="14.00">merge</text>
</g>
<!-- offer&#45;&gt;token::merge -->
<g id="edge9" class="edge">
<title>offer&#45;&gt;token::merge</title>
<path fill="none" stroke="black" d="M1044.39,-412.64C1138.24,-411.28 1437.96,-405.6 1477.39,-388 1488.85,-382.88 1499.09,-373.72 1507.13,-364.76"/>
<polygon fill="black" stroke="black" points="1509.73,-367.11 1513.44,-357.18 1504.35,-362.63 1509.73,-367.11"/>
</g>
<!-- token::withdraw_token -->
<g id="node11" class="node">
<title>token::withdraw_token</title>
<ellipse fill="none" stroke="black" cx="1205.39" cy="-339" rx="67.69" ry="18"/>
<text text-anchor="middle" x="1205.39" y="-335.3" font-family="Times,serif" font-size="14.00">withdraw_token</text>
</g>
<!-- offer&#45;&gt;token::withdraw_token -->
<g id="edge10" class="edge">
<title>offer&#45;&gt;token::withdraw_token</title>
<path fill="none" stroke="black" d="M1043.45,-408.99C1065.5,-405.18 1097.17,-398.46 1123.39,-388 1140.32,-381.25 1157.92,-371.38 1172.44,-362.35"/>
<polygon fill="black" stroke="black" points="1174.14,-365.42 1180.69,-357.09 1170.38,-359.51 1174.14,-365.42"/>
</g>
<!-- create_token_offer_id -->
<g id="node12" class="node">
<title>create_token_offer_id</title>
<ellipse fill="none" stroke="black" cx="88.39" cy="-339" rx="88.28" ry="18"/>
<text text-anchor="middle" x="88.39" y="-335.3" font-family="Times,serif" font-size="14.00">create_token_offer_id</text>
</g>
<!-- offer&#45;&gt;create_token_offer_id -->
<g id="edge11" class="edge">
<title>offer&#45;&gt;create_token_offer_id</title>
<path fill="none" stroke="black" d="M988.27,-412.83C852.62,-411.91 269.22,-406.88 190.39,-388 167.75,-382.58 144.12,-371.83 125.32,-361.87"/>
<polygon fill="black" stroke="black" points="127.19,-358.91 116.73,-357.19 123.83,-365.05 127.19,-358.91"/>
</g>
<!-- initialize_token_transfers -->
<g id="node13" class="node">
<title>initialize_token_transfers</title>
<ellipse fill="none" stroke="black" cx="831.39" cy="-339" rx="100.18" ry="18"/>
<text text-anchor="middle" x="831.39" y="-335.3" font-family="Times,serif" font-size="14.00">initialize_token_transfers</text>
</g>
<!-- offer&#45;&gt;initialize_token_transfers -->
<g id="edge12" class="edge">
<title>offer&#45;&gt;initialize_token_transfers</title>
<path fill="none" stroke="black" d="M991.94,-404.8C978.19,-400.08 960.75,-393.93 945.39,-388 923.22,-379.44 898.9,-369.3 878.44,-360.56"/>
<polygon fill="black" stroke="black" points="880.09,-357.46 869.52,-356.73 877.33,-363.89 880.09,-357.46"/>
</g>
<!-- string::length -->
<g id="node14" class="node">
<title>string::length</title>
<ellipse fill="none" stroke="black" cx="1619.39" cy="-189" rx="32.49" ry="18"/>
<text text-anchor="middle" x="1619.39" y="-185.3" font-family="Times,serif" font-size="14.00">length</text>
</g>
<!-- token::create_token_data_id&#45;&gt;string::length -->
<g id="edge13" class="edge">
<title>token::create_token_data_id&#45;&gt;string::length</title>
<path fill="none" stroke="black" d="M1542.52,-252.04C1553.95,-248.56 1565.37,-244 1575.39,-238 1585.22,-232.12 1594.17,-223.37 1601.38,-214.95"/>
<polygon fill="black" stroke="black" points="1604.02,-217.26 1607.55,-207.27 1598.56,-212.87 1604.02,-217.26"/>
</g>
<!-- error::invalid_argument -->
<g id="node15" class="node">
<title>error::invalid_argument</title>
<ellipse fill="none" stroke="black" cx="1961.39" cy="-189" rx="73.39" ry="18"/>
<text text-anchor="middle" x="1961.39" y="-185.3" font-family="Times,serif" font-size="14.00">invalid_argument</text>
</g>
<!-- token::create_token_data_id&#45;&gt;error::invalid_argument -->
<g id="edge14" class="edge">
<title>token::create_token_data_id&#45;&gt;error::invalid_argument</title>
<path fill="none" stroke="black" d="M1558.75,-258.17C1675.12,-251.24 1875.6,-239.16 1879.39,-238 1897.51,-232.48 1915.88,-222.25 1930.62,-212.65"/>
<polygon fill="black" stroke="black" points="1932.16,-215.83 1938.49,-207.33 1928.25,-210.03 1932.16,-215.83"/>
</g>
<!-- table::contains_box -->
<g id="node16" class="node">
<title>table::contains_box</title>
<ellipse fill="none" stroke="black" cx="1174.39" cy="-34" rx="57.69" ry="18"/>
<text text-anchor="middle" x="1174.39" y="-30.3" font-family="Times,serif" font-size="14.00">contains_box</text>
</g>
<!-- table::contains&#45;&gt;table::contains_box -->
<g id="edge15" class="edge">
<title>table::contains&#45;&gt;table::contains_box</title>
<path fill="none" stroke="black" d="M1147.11,-88.05C1151.07,-80.35 1155.86,-71.03 1160.32,-62.36"/>
<polygon fill="black" stroke="black" points="1163.35,-64.11 1164.82,-53.62 1157.13,-60.91 1163.35,-64.11"/>
</g>
<!-- table::borrow_box_mut -->
<g id="node17" class="node">
<title>table::borrow_box_mut</title>
<ellipse fill="none" stroke="black" cx="1322.39" cy="-34" rx="72.29" ry="18"/>
<text text-anchor="middle" x="1322.39" y="-30.3" font-family="Times,serif" font-size="14.00">borrow_box_mut</text>
</g>
<!-- table::borrow_mut&#45;&gt;table::borrow_box_mut -->
<g id="edge16" class="edge">
<title>table::borrow_mut&#45;&gt;table::borrow_box_mut</title>
<path fill="none" stroke="black" d="M1287.53,-88.05C1292.78,-80.06 1299.17,-70.33 1305.04,-61.4"/>
<polygon fill="black" stroke="black" points="1307.96,-63.33 1310.53,-53.05 1302.11,-59.49 1307.96,-63.33"/>
</g>
<!-- table::add_box -->
<g id="node18" class="node">
<title>table::add_box</title>
<ellipse fill="none" stroke="black" cx="1057.39" cy="-34" rx="40.89" ry="18"/>
<text text-anchor="middle" x="1057.39" y="-30.3" font-family="Times,serif" font-size="14.00">add_box</text>
</g>
<!-- table::add&#45;&gt;table::add_box -->
<g id="edge17" class="edge">
<title>table::add&#45;&gt;table::add_box</title>
<path fill="none" stroke="black" d="M1033.74,-88.41C1037.2,-80.59 1041.42,-71.06 1045.33,-62.23"/>
<polygon fill="black" stroke="black" points="1048.42,-63.9 1049.27,-53.34 1042.02,-61.07 1048.42,-63.9"/>
</g>
<!-- signer::borrow_address -->
<g id="node19" class="node">
<title>signer::borrow_address</title>
<ellipse fill="none" stroke="black" cx="229.39" cy="-34" rx="66.89" ry="18"/>
<text text-anchor="middle" x="229.39" y="-30.3" font-family="Times,serif" font-size="14.00">borrow_address</text>
</g>
<!-- signer::address_of&#45;&gt;signer::borrow_address -->
<g id="edge18" class="edge">
<title>signer::address_of&#45;&gt;signer::borrow_address</title>
<path fill="none" stroke="black" d="M236.17,-87.7C235.22,-80.32 234.09,-71.52 233.02,-63.25"/>
<polygon fill="black" stroke="black" points="236.53,-63.08 231.78,-53.61 229.59,-63.97 236.53,-63.08"/>
</g>
<!-- bcs::to_bytes -->
<g id="node20" class="node">
<title>bcs::to_bytes</title>
<ellipse fill="none" stroke="black" cx="784.39" cy="-106" rx="40.09" ry="18"/>
<text text-anchor="middle" x="784.39" y="-102.3" font-family="Times,serif" font-size="14.00">to_bytes</text>
</g>
<!-- event::emit_event&#45;&gt;bcs::to_bytes -->
<g id="edge19" class="edge">
<title>event::emit_event&#45;&gt;bcs::to_bytes</title>
<path fill="none" stroke="black" d="M700.01,-174.2C710.58,-168.77 722.35,-162.13 732.39,-155 742.46,-147.85 752.64,-138.92 761.29,-130.7"/>
<polygon fill="black" stroke="black" points="763.57,-133.37 768.28,-123.88 758.68,-128.36 763.57,-133.37"/>
</g>
<!-- event::write_to_event_store -->
<g id="node21" class="node">
<title>event::write_to_event_store</title>
<ellipse fill="none" stroke="black" cx="635.39" cy="-106" rx="85.29" ry="18"/>
<text text-anchor="middle" x="635.39" y="-102.3" font-family="Times,serif" font-size="14.00">write_to_event_store</text>
</g>
<!-- event::emit_event&#45;&gt;event::write_to_event_store -->
<g id="edge20" class="edge">
<title>event::emit_event&#45;&gt;event::write_to_event_store</title>
<path fill="none" stroke="black" d="M662.97,-170.82C658.42,-160.3 652.5,-146.59 647.31,-134.57"/>
<polygon fill="black" stroke="black" points="650.58,-133.33 643.4,-125.54 644.16,-136.11 650.58,-133.33"/>
</g>
<!-- token::merge&#45;&gt;error::invalid_argument -->
<g id="edge21" class="edge">
<title>token::merge&#45;&gt;error::invalid_argument</title>
<path fill="none" stroke="black" d="M1556.59,-331.98C1619.39,-319.27 1764.81,-286.78 1879.39,-238 1895.92,-230.97 1913.22,-221.23 1927.65,-212.37"/>
<polygon fill="black" stroke="black" points="1929.24,-215.5 1935.85,-207.22 1925.52,-209.57 1929.24,-215.5"/>
</g>
<!-- token::withdraw_token&#45;&gt;signer::address_of -->
<g id="edge22" class="edge">
<title>token::withdraw_token&#45;&gt;signer::address_of</title>
<path fill="none" stroke="black" d="M1141.18,-332.94C1087.54,-328.93 1009.03,-323.6 940.39,-321 930.93,-320.64 265.37,-319.41 258.39,-313 209.44,-268.04 220.79,-180.51 230.85,-135.39"/>
<polygon fill="black" stroke="black" points="234.21,-136.39 233.12,-125.85 227.4,-134.76 234.21,-136.39"/>
</g>
<!-- token::withdraw_with_event_internal -->
<g id="node22" class="node">
<title>token::withdraw_with_event_internal</title>
<ellipse fill="none" stroke="black" cx="1255.39" cy="-264" rx="118.08" ry="18"/>
<text text-anchor="middle" x="1255.39" y="-260.3" font-family="Times,serif" font-size="14.00">withdraw_with_event_internal</text>
</g>
<!-- token::withdraw_token&#45;&gt;token::withdraw_with_event_internal -->
<g id="edge23" class="edge">
<title>token::withdraw_token&#45;&gt;token::withdraw_with_event_internal</title>
<path fill="none" stroke="black" d="M1216.99,-321.07C1222.96,-312.35 1230.38,-301.52 1237.1,-291.7"/>
<polygon fill="black" stroke="black" points="1239.89,-293.82 1242.66,-283.59 1234.12,-289.87 1239.89,-293.82"/>
</g>
<!-- table::new -->
<g id="node23" class="node">
<title>table::new</title>
<ellipse fill="none" stroke="black" cx="922.39" cy="-106" rx="27" ry="18"/>
<text text-anchor="middle" x="922.39" y="-102.3" font-family="Times,serif" font-size="14.00">new</text>
</g>
<!-- initialize_token_transfers&#45;&gt;table::new -->
<g id="edge24" class="edge">
<title>initialize_token_transfers&#45;&gt;table::new</title>
<path fill="none" stroke="black" d="M838.23,-320.64C853.92,-280.81 892.6,-182.62 911.56,-134.49"/>
<polygon fill="black" stroke="black" points="914.76,-135.93 915.17,-125.34 908.24,-133.37 914.76,-135.93"/>
</g>
<!-- account::new_event_handle -->
<g id="node24" class="node">
<title>account::new_event_handle</title>
<ellipse fill="none" stroke="black" cx="347.39" cy="-264" rx="76.89" ry="18"/>
<text text-anchor="middle" x="347.39" y="-260.3" font-family="Times,serif" font-size="14.00">new_event_handle</text>
</g>
<!-- initialize_token_transfers&#45;&gt;account::new_event_handle -->
<g id="edge25" class="edge">
<title>initialize_token_transfers&#45;&gt;account::new_event_handle</title>
<path fill="none" stroke="black" d="M756.56,-326.71C665.59,-312.99 512.99,-289.98 422.08,-276.27"/>
<polygon fill="black" stroke="black" points="422.67,-272.82 412.26,-274.78 421.63,-279.74 422.67,-272.82"/>
</g>
<!-- error::canonical -->
<g id="node25" class="node">
<title>error::canonical</title>
<ellipse fill="none" stroke="black" cx="1892.39" cy="-106" rx="44.39" ry="18"/>
<text text-anchor="middle" x="1892.39" y="-102.3" font-family="Times,serif" font-size="14.00">canonical</text>
</g>
<!-- error::invalid_argument&#45;&gt;error::canonical -->
<g id="edge26" class="edge">
<title>error::invalid_argument&#45;&gt;error::canonical</title>
<path fill="none" stroke="black" d="M1947.1,-171.22C1937.5,-159.96 1924.69,-144.92 1913.88,-132.22"/>
<polygon fill="black" stroke="black" points="1916.57,-129.98 1907.42,-124.64 1911.24,-134.52 1916.57,-129.98"/>
</g>
<!-- token::withdraw_with_event_internal&#45;&gt;table::contains -->
<g id="edge27" class="edge">
<title>token::withdraw_with_event_internal&#45;&gt;table::contains</title>
<path fill="none" stroke="black" d="M1169.72,-251.33C1156.62,-247.89 1145.93,-243.51 1141.39,-238 1117.88,-209.45 1123.02,-164.32 1129.91,-135.19"/>
<polygon fill="black" stroke="black" points="1133.27,-136.17 1132.4,-125.61 1126.5,-134.4 1133.27,-136.17"/>
</g>
<!-- token::withdraw_with_event_internal&#45;&gt;table::borrow_mut -->
<g id="edge28" class="edge">
<title>token::withdraw_with_event_internal&#45;&gt;table::borrow_mut</title>
<path fill="none" stroke="black" d="M1257.72,-245.71C1261.3,-219.12 1268.19,-167.9 1272.53,-135.69"/>
<polygon fill="black" stroke="black" points="1275.99,-136.25 1273.85,-125.87 1269.05,-135.31 1275.99,-136.25"/>
</g>
<!-- token::withdraw_with_event_internal&#45;&gt;event::emit_event -->
<g id="edge32" class="edge">
<title>token::withdraw_with_event_internal&#45;&gt;event::emit_event</title>
<path fill="none" stroke="black" d="M1166.23,-251.87C1044.88,-236.73 831.13,-210.06 728.54,-197.26"/>
<polygon fill="black" stroke="black" points="729.04,-193.79 718.68,-196.03 728.17,-200.74 729.04,-193.79"/>
</g>
<!-- token::withdraw_with_event_internal&#45;&gt;error::invalid_argument -->
<g id="edge30" class="edge">
<title>token::withdraw_with_event_internal&#45;&gt;error::invalid_argument</title>
<path fill="none" stroke="black" d="M1337.23,-250.62C1352.22,-248.75 1367.75,-247.09 1382.39,-246 1409.93,-243.94 1852.8,-245.44 1879.39,-238 1897.77,-232.86 1916.28,-222.56 1931.05,-212.82"/>
<polygon fill="black" stroke="black" points="1932.66,-215.96 1938.93,-207.42 1928.7,-210.19 1932.66,-215.96"/>
</g>
<!-- table::remove -->
<g id="node26" class="node">
<title>table::remove</title>
<ellipse fill="none" stroke="black" cx="1556.39" cy="-106" rx="37.89" ry="18"/>
<text text-anchor="middle" x="1556.39" y="-102.3" font-family="Times,serif" font-size="14.00">remove</text>
</g>
<!-- token::withdraw_with_event_internal&#45;&gt;table::remove -->
<g id="edge29" class="edge">
<title>token::withdraw_with_event_internal&#45;&gt;table::remove</title>
<path fill="none" stroke="black" d="M1290.08,-246.32C1332.98,-225.55 1408.1,-188.67 1471.39,-155 1488.7,-145.79 1507.72,-135.11 1523.37,-126.16"/>
<polygon fill="black" stroke="black" points="1524.87,-129.33 1531.8,-121.32 1521.39,-123.26 1524.87,-129.33"/>
</g>
<!-- error::not_found -->
<g id="node27" class="node">
<title>error::not_found</title>
<ellipse fill="none" stroke="black" cx="1823.39" cy="-189" rx="46.59" ry="18"/>
<text text-anchor="middle" x="1823.39" y="-185.3" font-family="Times,serif" font-size="14.00">not_found</text>
</g>
<!-- token::withdraw_with_event_internal&#45;&gt;error::not_found -->
<g id="edge31" class="edge">
<title>token::withdraw_with_event_internal&#45;&gt;error::not_found</title>
<path fill="none" stroke="black" d="M1337.23,-250.67C1352.22,-248.81 1367.75,-247.13 1382.39,-246 1403.56,-244.37 1744.47,-245.32 1764.39,-238 1778.01,-233 1790.8,-223.46 1800.97,-214.19"/>
<polygon fill="black" stroke="black" points="1803.35,-216.76 1808.1,-207.29 1798.48,-211.73 1803.35,-216.76"/>
</g>
<!-- property_map::empty -->
<g id="node28" class="node">
<title>property_map::empty</title>
<ellipse fill="none" stroke="black" cx="1708.39" cy="-189" rx="33.29" ry="18"/>
<text text-anchor="middle" x="1708.39" y="-185.3" font-family="Times,serif" font-size="14.00">empty</text>
</g>
<!-- token::withdraw_with_event_internal&#45;&gt;property_map::empty -->
<g id="edge33" class="edge">
<title>token::withdraw_with_event_internal&#45;&gt;property_map::empty</title>
<path fill="none" stroke="black" d="M1337.58,-250.72C1352.46,-248.86 1367.87,-247.18 1382.39,-246 1413.53,-243.48 1634.91,-250.82 1663.39,-238 1674.21,-233.13 1683.67,-224.3 1691.07,-215.54"/>
<polygon fill="black" stroke="black" points="1693.73,-217.83 1697.1,-207.79 1688.2,-213.53 1693.73,-217.83"/>
</g>
<!-- token::balance_of -->
<g id="node29" class="node">
<title>token::balance_of</title>
<ellipse fill="none" stroke="black" cx="1199.39" cy="-189" rx="49.29" ry="18"/>
<text text-anchor="middle" x="1199.39" y="-185.3" font-family="Times,serif" font-size="14.00">balance_of</text>
</g>
<!-- token::withdraw_with_event_internal&#45;&gt;token::balance_of -->
<g id="edge34" class="edge">
<title>token::withdraw_with_event_internal&#45;&gt;token::balance_of</title>
<path fill="none" stroke="black" d="M1242.12,-245.7C1235.26,-236.75 1226.74,-225.66 1219.13,-215.73"/>
<polygon fill="black" stroke="black" points="1221.97,-213.68 1213.1,-207.87 1216.41,-217.94 1221.97,-213.68"/>
</g>
<!-- table::new_table_handle -->
<g id="node30" class="node">
<title>table::new_table_handle</title>
<ellipse fill="none" stroke="black" cx="923.39" cy="-34" rx="74.99" ry="18"/>
<text text-anchor="middle" x="923.39" y="-30.3" font-family="Times,serif" font-size="14.00">new_table_handle</text>
</g>
<!-- table::new&#45;&gt;table::new_table_handle -->
<g id="edge35" class="edge">
<title>table::new&#45;&gt;table::new_table_handle</title>
<path fill="none" stroke="black" d="M922.64,-87.7C922.74,-80.41 922.87,-71.73 922.98,-63.54"/>
<polygon fill="black" stroke="black" points="926.48,-63.67 923.13,-53.62 919.48,-63.57 926.48,-63.67"/>
</g>
<!-- event::new_event_handle -->
<g id="node31" class="node">
<title>event::new_event_handle</title>
<ellipse fill="none" stroke="black" cx="525.39" cy="-189" rx="76.89" ry="18"/>
<text text-anchor="middle" x="525.39" y="-185.3" font-family="Times,serif" font-size="14.00">new_event_handle</text>
</g>
<!-- account::new_event_handle&#45;&gt;event::new_event_handle -->
<g id="edge36" class="edge">
<title>account::new_event_handle&#45;&gt;event::new_event_handle</title>
<path fill="none" stroke="black" d="M399.34,-250.49C411.66,-246.95 424.64,-242.75 436.39,-238 454.28,-230.77 473.22,-220.9 489,-211.98"/>
<polygon fill="black" stroke="black" points="490.64,-215.08 497.57,-207.06 487.15,-209.01 490.64,-215.08"/>
</g>
<!-- account::create_guid -->
<g id="node32" class="node">
<title>account::create_guid</title>
<ellipse fill="none" stroke="black" cx="347.39" cy="-189" rx="51.99" ry="18"/>
<text text-anchor="middle" x="347.39" y="-185.3" font-family="Times,serif" font-size="14.00">create_guid</text>
</g>
<!-- account::new_event_handle&#45;&gt;account::create_guid -->
<g id="edge37" class="edge">
<title>account::new_event_handle&#45;&gt;account::create_guid</title>
<path fill="none" stroke="black" d="M347.39,-245.7C347.39,-237.67 347.39,-227.9 347.39,-218.8"/>
<polygon fill="black" stroke="black" points="350.89,-218.94 347.39,-208.94 343.89,-218.94 350.89,-218.94"/>
</g>
<!-- table::remove_box -->
<g id="node33" class="node">
<title>table::remove_box</title>
<ellipse fill="none" stroke="black" cx="1593.39" cy="-34" rx="55.49" ry="18"/>
<text text-anchor="middle" x="1593.39" y="-30.3" font-family="Times,serif" font-size="14.00">remove_box</text>
</g>
<!-- table::remove&#45;&gt;table::remove_box -->
<g id="edge38" class="edge">
<title>table::remove&#45;&gt;table::remove_box</title>
<path fill="none" stroke="black" d="M1565.35,-88.05C1569.53,-80.14 1574.61,-70.54 1579.29,-61.69"/>
<polygon fill="black" stroke="black" points="1582.23,-63.6 1583.81,-53.13 1576.04,-60.33 1582.23,-63.6"/>
</g>
<!-- error::not_found&#45;&gt;error::canonical -->
<g id="edge39" class="edge">
<title>error::not_found&#45;&gt;error::canonical</title>
<path fill="none" stroke="black" d="M1837.36,-171.61C1847.08,-160.19 1860.23,-144.75 1871.24,-131.83"/>
<polygon fill="black" stroke="black" points="1873.65,-134.4 1877.47,-124.52 1868.32,-129.86 1873.65,-134.4"/>
</g>
<!-- simple_map::create -->
<g id="node34" class="node">
<title>simple_map::create</title>
<ellipse fill="none" stroke="black" cx="1708.39" cy="-106" rx="31.7" ry="18"/>
<text text-anchor="middle" x="1708.39" y="-102.3" font-family="Times,serif" font-size="14.00">create</text>
</g>
<!-- property_map::empty&#45;&gt;simple_map::create -->
<g id="edge40" class="edge">
<title>property_map::empty&#45;&gt;simple_map::create</title>
<path fill="none" stroke="black" d="M1708.39,-170.82C1708.39,-160.69 1708.39,-147.6 1708.39,-135.92"/>
<polygon fill="black" stroke="black" points="1711.89,-135.95 1708.39,-125.95 1704.89,-135.95 1711.89,-135.95"/>
</g>
<!-- token::balance_of&#45;&gt;table::contains -->
<g id="edge41" class="edge">
<title>token::balance_of&#45;&gt;table::contains</title>
<path fill="none" stroke="black" d="M1186.75,-171.22C1178.35,-160.07 1167.17,-145.21 1157.67,-132.6"/>
<polygon fill="black" stroke="black" points="1160.53,-130.58 1151.72,-124.69 1154.94,-134.79 1160.53,-130.58"/>
</g>
<!-- table::borrow -->
<g id="node35" class="node">
<title>table::borrow</title>
<ellipse fill="none" stroke="black" cx="1426.39" cy="-106" rx="36.29" ry="18"/>
<text text-anchor="middle" x="1426.39" y="-102.3" font-family="Times,serif" font-size="14.00">borrow</text>
</g>
<!-- token::balance_of&#45;&gt;table::borrow -->
<g id="edge42" class="edge">
<title>token::balance_of&#45;&gt;table::borrow</title>
<path fill="none" stroke="black" d="M1243.85,-180.89C1272.09,-175.57 1309.09,-167.12 1340.39,-155 1359.67,-147.53 1379.92,-136.41 1395.93,-126.76"/>
<polygon fill="black" stroke="black" points="1397.33,-130 1404.01,-121.77 1393.66,-124.04 1397.33,-130"/>
</g>
<!-- account::create_guid&#45;&gt;signer::address_of -->
<g id="edge43" class="edge">
<title>account::create_guid&#45;&gt;signer::address_of</title>
<path fill="none" stroke="black" d="M326.12,-172.19C309.66,-159.96 286.66,-142.87 268.34,-129.25"/>
<polygon fill="black" stroke="black" points="270.57,-126.55 260.46,-123.4 266.4,-132.17 270.57,-126.55"/>
</g>
<!-- guid::create -->
<g id="node36" class="node">
<title>guid::create</title>
<ellipse fill="none" stroke="black" cx="352.39" cy="-106" rx="31.7" ry="18"/>
<text text-anchor="middle" x="352.39" y="-102.3" font-family="Times,serif" font-size="14.00">create</text>
</g>
<!-- account::create_guid&#45;&gt;guid::create -->
<g id="edge44" class="edge">
<title>account::create_guid&#45;&gt;guid::create</title>
<path fill="none" stroke="black" d="M348.45,-170.82C349.08,-160.69 349.89,-147.6 350.61,-135.92"/>
<polygon fill="black" stroke="black" points="354.1,-136.14 351.22,-125.94 347.11,-135.71 354.1,-136.14"/>
</g>
<!-- table::borrow_box -->
<g id="node37" class="node">
<title>table::borrow_box</title>
<ellipse fill="none" stroke="black" cx="1466.39" cy="-34" rx="53.89" ry="18"/>
<text text-anchor="middle" x="1466.39" y="-30.3" font-family="Times,serif" font-size="14.00">borrow_box</text>
</g>
<!-- table::borrow&#45;&gt;table::borrow_box -->
<g id="edge45" class="edge">
<title>table::borrow&#45;&gt;table::borrow_box</title>
<path fill="none" stroke="black" d="M1435.87,-88.41C1440.39,-80.51 1445.91,-70.85 1451,-61.94"/>
<polygon fill="black" stroke="black" points="1454.03,-63.69 1455.95,-53.27 1447.95,-60.22 1454.03,-63.69"/>
</g>
</g>
</svg>
