<?xml version="1.0" encoding="UTF-8" standalone="no"?>
<!DOCTYPE svg PUBLIC "-//W3C//DTD SVG 1.1//EN"
 "http://www.w3.org/Graphics/SVG/1.1/DTD/svg11.dtd">
<!-- Generated by graphviz version 7.0.0 (20221023.0053)
 -->
<!-- Title: G Pages: 1 -->
<svg width="931pt" height="290pt"
 viewBox="0.00 0.00 931.00 290.00" xmlns="http://www.w3.org/2000/svg" xmlns:xlink="http://www.w3.org/1999/xlink">
<g id="graph0" class="graph" transform="scale(1 1) rotate(0) translate(4 286)">
<title>G</title>
<polygon fill="white" stroke="none" points="-4,4 -4,-286 927,-286 927,4 -4,4"/>
<g id="clust1" class="cluster">
<title>cluster_string</title>
<polygon fill="none" stroke="black" points="301,-163 301,-238 381,-238 381,-163 301,-163"/>
<text text-anchor="middle" x="341" y="-222.8" font-family="Times,serif" font-size="14.00">string</text>
</g>
<g id="clust2" class="cluster">
<title>cluster_table</title>
<polygon fill="none" stroke="black" points="8,-8 8,-155 302,-155 302,-8 8,-8"/>
<text text-anchor="middle" x="155" y="-139.8" font-family="Times,serif" font-size="14.00">table</text>
</g>
<g id="clust3" class="cluster">
<title>cluster_error</title>
<polygon fill="none" stroke="black" points="468,-8 468,-155 915,-155 915,-8 468,-8"/>
<text text-anchor="middle" x="691.5" y="-139.8" font-family="Times,serif" font-size="14.00">error</text>
</g>
<g id="clust4" class="cluster">
<title>cluster_signer</title>
<polygon fill="none" stroke="black" points="310,-8 310,-155 460,-155 460,-8 310,-8"/>
<text text-anchor="middle" x="385" y="-139.8" font-family="Times,serif" font-size="14.00">signer</text>
</g>
<!-- mutate_tokendata_uri -->
<g id="node1" class="node">
<title>mutate_tokendata_uri</title>
<ellipse fill="none" stroke="black" cx="523" cy="-264" rx="87.99" ry="18"/>
<text text-anchor="middle" x="523" y="-260.3" font-family="Times,serif" font-size="14.00">mutate_tokendata_uri</text>
</g>
<!-- string::length -->
<g id="node2" class="node">
<title>string::length</title>
<ellipse fill="none" stroke="black" cx="341" cy="-189" rx="32.49" ry="18"/>
<text text-anchor="middle" x="341" y="-185.3" font-family="Times,serif" font-size="14.00">length</text>
</g>
<!-- mutate_tokendata_uri&#45;&gt;string::length -->
<g id="edge1" class="edge">
<title>mutate_tokendata_uri&#45;&gt;string::length</title>
<path fill="none" stroke="black" d="M442.16,-256.65C423.28,-252.89 403.8,-247.05 387,-238 376.44,-232.31 366.88,-223.33 359.24,-214.67"/>
<polygon fill="black" stroke="black" points="362.04,-212.57 352.98,-207.08 356.64,-217.02 362.04,-212.57"/>
</g>
<!-- table::borrow_mut -->
<g id="node3" class="node">
<title>table::borrow_mut</title>
<ellipse fill="none" stroke="black" cx="105" cy="-106" rx="54.69" ry="18"/>
<text text-anchor="middle" x="105" y="-102.3" font-family="Times,serif" font-size="14.00">borrow_mut</text>
</g>
<!-- mutate_tokendata_uri&#45;&gt;table::borrow_mut -->
<g id="edge2" class="edge">
<title>mutate_tokendata_uri&#45;&gt;table::borrow_mut</title>
<path fill="none" stroke="black" d="M449.34,-253.78C438.74,-250.08 428.54,-244.99 420,-238 391.54,-214.7 415.6,-183.41 385,-163 367.51,-151.34 216.29,-160.48 196,-155 175.44,-149.45 154.29,-138.65 137.56,-128.7"/>
<polygon fill="black" stroke="black" points="139.4,-125.72 129.04,-123.46 135.73,-131.69 139.4,-125.72"/>
</g>
<!-- error::invalid_argument -->
<g id="node4" class="node">
<title>error::invalid_argument</title>
<ellipse fill="none" stroke="black" cx="834" cy="-106" rx="73.39" ry="18"/>
<text text-anchor="middle" x="834" y="-102.3" font-family="Times,serif" font-size="14.00">invalid_argument</text>
</g>
<!-- mutate_tokendata_uri&#45;&gt;error::invalid_argument -->
<g id="edge3" class="edge">
<title>mutate_tokendata_uri&#45;&gt;error::invalid_argument</title>
<path fill="none" stroke="black" d="M599.55,-254.86C618.82,-251.16 639.1,-245.8 657,-238 717.49,-211.65 776.86,-161.3 809.13,-131.27"/>
<polygon fill="black" stroke="black" points="811.14,-134.19 816.02,-124.78 806.34,-129.1 811.14,-134.19"/>
</g>
<!-- error::permission_denied -->
<g id="node5" class="node">
<title>error::permission_denied</title>
<ellipse fill="none" stroke="black" cx="665" cy="-106" rx="77.19" ry="18"/>
<text text-anchor="middle" x="665" y="-102.3" font-family="Times,serif" font-size="14.00">permission_denied</text>
</g>
<!-- mutate_tokendata_uri&#45;&gt;error::permission_denied -->
<g id="edge4" class="edge">
<title>mutate_tokendata_uri&#45;&gt;error::permission_denied</title>
<path fill="none" stroke="black" d="M598.65,-254.46C608.74,-250.65 618.26,-245.35 626,-238 654.12,-211.28 662.23,-165.27 664.42,-135.5"/>
<polygon fill="black" stroke="black" points="667.9,-135.89 664.94,-125.72 660.91,-135.52 667.9,-135.89"/>
</g>
<!-- assert_tokendata_exists -->
<g id="node6" class="node">
<title>assert_tokendata_exists</title>
<ellipse fill="none" stroke="black" cx="523" cy="-189" rx="93.68" ry="18"/>
<text text-anchor="middle" x="523" y="-185.3" font-family="Times,serif" font-size="14.00">assert_tokendata_exists</text>
</g>
<!-- mutate_tokendata_uri&#45;&gt;assert_tokendata_exists -->
<g id="edge5" class="edge">
<title>mutate_tokendata_uri&#45;&gt;assert_tokendata_exists</title>
<path fill="none" stroke="black" d="M523,-245.7C523,-237.67 523,-227.9 523,-218.8"/>
<polygon fill="black" stroke="black" points="526.5,-218.94 523,-208.94 519.5,-218.94 526.5,-218.94"/>
</g>
<!-- table::borrow_box_mut -->
<g id="node7" class="node">
<title>table::borrow_box_mut</title>
<ellipse fill="none" stroke="black" cx="88" cy="-34" rx="72.29" ry="18"/>
<text text-anchor="middle" x="88" y="-30.3" font-family="Times,serif" font-size="14.00">borrow_box_mut</text>
</g>
<!-- table::borrow_mut&#45;&gt;table::borrow_box_mut -->
<g id="edge6" class="edge">
<title>table::borrow_mut&#45;&gt;table::borrow_box_mut</title>
<path fill="none" stroke="black" d="M100.8,-87.7C99.01,-80.32 96.87,-71.52 94.86,-63.25"/>
<polygon fill="black" stroke="black" points="98.27,-62.47 92.51,-53.58 91.47,-64.12 98.27,-62.47"/>
</g>
<!-- error::canonical -->
<g id="node8" class="node">
<title>error::canonical</title>
<ellipse fill="none" stroke="black" cx="665" cy="-34" rx="44.39" ry="18"/>
<text text-anchor="middle" x="665" y="-30.3" font-family="Times,serif" font-size="14.00">canonical</text>
</g>
<!-- error::invalid_argument&#45;&gt;error::canonical -->
<g id="edge7" class="edge">
<title>error::invalid_argument&#45;&gt;error::canonical</title>
<path fill="none" stroke="black" d="M797.75,-89.98C770.65,-78.76 733.62,-63.42 705.54,-51.79"/>
<polygon fill="black" stroke="black" points="707.24,-48.71 696.66,-48.11 704.56,-55.18 707.24,-48.71"/>
</g>
<!-- error::permission_denied&#45;&gt;error::canonical -->
<g id="edge8" class="edge">
<title>error::permission_denied&#45;&gt;error::canonical</title>
<path fill="none" stroke="black" d="M665,-87.7C665,-80.41 665,-71.73 665,-63.54"/>
<polygon fill="black" stroke="black" points="668.5,-63.62 665,-53.62 661.5,-63.62 668.5,-63.62"/>
</g>
<!-- assert_tokendata_exists&#45;&gt;error::permission_denied -->
<g id="edge12" class="edge">
<title>assert_tokendata_exists&#45;&gt;error::permission_denied</title>
<path fill="none" stroke="black" d="M552.08,-171.41C573.71,-159.08 603.42,-142.13 626.94,-128.71"/>
<polygon fill="black" stroke="black" points="628.66,-131.76 635.61,-123.76 625.19,-125.68 628.66,-131.76"/>
</g>
<!-- table::contains -->
<g id="node9" class="node">
<title>table::contains</title>
<ellipse fill="none" stroke="black" cx="245" cy="-106" rx="40.09" ry="18"/>
<text text-anchor="middle" x="245" y="-102.3" font-family="Times,serif" font-size="14.00">contains</text>
</g>
<!-- assert_tokendata_exists&#45;&gt;table::contains -->
<g id="edge9" class="edge">
<title>assert_tokendata_exists&#45;&gt;table::contains</title>
<path fill="none" stroke="black" d="M469.2,-173.83C451.99,-169.76 432.79,-165.7 415,-163 390.99,-159.36 328.64,-163.78 306,-155 292.06,-149.59 278.75,-139.86 268.14,-130.56"/>
<polygon fill="black" stroke="black" points="270.74,-128.2 261.01,-123.99 265.99,-133.34 270.74,-128.2"/>
</g>
<!-- signer::address_of -->
<g id="node10" class="node">
<title>signer::address_of</title>
<ellipse fill="none" stroke="black" cx="394" cy="-106" rx="48.99" ry="18"/>
<text text-anchor="middle" x="394" y="-102.3" font-family="Times,serif" font-size="14.00">address_of</text>
</g>
<!-- assert_tokendata_exists&#45;&gt;signer::address_of -->
<g id="edge10" class="edge">
<title>assert_tokendata_exists&#45;&gt;signer::address_of</title>
<path fill="none" stroke="black" d="M492.37,-171.56C483.15,-166.43 473.07,-160.63 464,-155 450.86,-146.84 436.73,-137.31 424.63,-128.9"/>
<polygon fill="black" stroke="black" points="426.85,-126.18 416.66,-123.31 422.84,-131.91 426.85,-126.18"/>
</g>
<!-- error::not_found -->
<g id="node11" class="node">
<title>error::not_found</title>
<ellipse fill="none" stroke="black" cx="523" cy="-106" rx="46.59" ry="18"/>
<text text-anchor="middle" x="523" y="-102.3" font-family="Times,serif" font-size="14.00">not_found</text>
</g>
<!-- assert_tokendata_exists&#45;&gt;error::not_found -->
<g id="edge11" class="edge">
<title>assert_tokendata_exists&#45;&gt;error::not_found</title>
<path fill="none" stroke="black" d="M523,-170.82C523,-160.69 523,-147.6 523,-135.92"/>
<polygon fill="black" stroke="black" points="526.5,-135.95 523,-125.95 519.5,-135.95 526.5,-135.95"/>
</g>
<!-- table::contains_box -->
<g id="node12" class="node">
<title>table::contains_box</title>
<ellipse fill="none" stroke="black" cx="236" cy="-34" rx="57.69" ry="18"/>
<text text-anchor="middle" x="236" y="-30.3" font-family="Times,serif" font-size="14.00">contains_box</text>
</g>
<!-- table::contains&#45;&gt;table::contains_box -->
<g id="edge13" class="edge">
<title>table::contains&#45;&gt;table::contains_box</title>
<path fill="none" stroke="black" d="M242.78,-87.7C241.83,-80.32 240.7,-71.52 239.63,-63.25"/>
<polygon fill="black" stroke="black" points="243.14,-63.08 238.39,-53.61 236.2,-63.97 243.14,-63.08"/>
</g>
<!-- signer::borrow_address -->
<g id="node13" class="node">
<title>signer::borrow_address</title>
<ellipse fill="none" stroke="black" cx="385" cy="-34" rx="66.89" ry="18"/>
<text text-anchor="middle" x="385" y="-30.3" font-family="Times,serif" font-size="14.00">borrow_address</text>
</g>
<!-- signer::address_of&#45;&gt;signer::borrow_address -->
<g id="edge14" class="edge">
<title>signer::address_of&#45;&gt;signer::borrow_address</title>
<path fill="none" stroke="black" d="M391.78,-87.7C390.83,-80.32 389.7,-71.52 388.63,-63.25"/>
<polygon fill="black" stroke="black" points="392.14,-63.08 387.39,-53.61 385.2,-63.97 392.14,-63.08"/>
</g>
<!-- error::not_found&#45;&gt;error::canonical -->
<g id="edge15" class="edge">
<title>error::not_found&#45;&gt;error::canonical</title>
<path fill="none" stroke="black" d="M551.05,-91.17C572.88,-80.41 603.38,-65.38 627.33,-53.57"/>
<polygon fill="black" stroke="black" points="628.71,-56.79 636.13,-49.23 625.61,-50.51 628.71,-56.79"/>
</g>
</g>
</svg>
