<?xml version="1.0" encoding="UTF-8" standalone="no"?>
<!DOCTYPE svg PUBLIC "-//W3C//DTD SVG 1.1//EN"
 "http://www.w3.org/Graphics/SVG/1.1/DTD/svg11.dtd">
<!-- Generated by graphviz version 7.0.0 (20221023.0053)
 -->
<!-- Title: G Pages: 1 -->
<svg width="1712pt" height="617pt"
 viewBox="0.00 0.00 1712.00 617.00" xmlns="http://www.w3.org/2000/svg" xmlns:xlink="http://www.w3.org/1999/xlink">
<g id="graph0" class="graph" transform="scale(1 1) rotate(0) translate(4 613)">
<title>G</title>
<polygon fill="white" stroke="none" points="-4,4 -4,-613 1708,-613 1708,4 -4,4"/>
<g id="clust1" class="cluster">
<title>cluster_string</title>
<polygon fill="none" stroke="black" points="773,-415 773,-490 853,-490 853,-415 773,-415"/>
<text text-anchor="middle" x="813" y="-474.8" font-family="Times,serif" font-size="14.00">string</text>
</g>
<g id="clust2" class="cluster">
<title>cluster_table</title>
<polygon fill="none" stroke="black" points="8,-415 8,-565 402,-565 402,-415 8,-415"/>
<text text-anchor="middle" x="205" y="-549.8" font-family="Times,serif" font-size="14.00">table</text>
</g>
<g id="clust3" class="cluster">
<title>cluster_signer</title>
<polygon fill="none" stroke="black" points="410,-415 410,-565 560,-565 560,-415 410,-415"/>
<text text-anchor="middle" x="485" y="-549.8" font-family="Times,serif" font-size="14.00">signer</text>
</g>
<g id="clust4" class="cluster">
<title>cluster_error</title>
<polygon fill="none" stroke="black" points="384,-174 384,-332 799,-332 799,-174 384,-174"/>
<text text-anchor="middle" x="591.5" y="-316.8" font-family="Times,serif" font-size="14.00">error</text>
</g>
<g id="clust5" class="cluster">
<title>cluster_event</title>
<polygon fill="none" stroke="black" points="1510,-91 1510,-249 1696,-249 1696,-91 1510,-91"/>
<text text-anchor="middle" x="1603" y="-233.8" font-family="Times,serif" font-size="14.00">event</text>
</g>
<g id="clust6" class="cluster">
<title>cluster_property_map</title>
<polygon fill="none" stroke="black" points="920,-415 920,-565 1013,-565 1013,-415 920,-415"/>
<text text-anchor="middle" x="966.5" y="-549.8" font-family="Times,serif" font-size="14.00">property_map</text>
</g>
<g id="clust7" class="cluster">
<title>cluster_bcs</title>
<polygon fill="none" stroke="black" points="1406,-91 1406,-166 1502,-166 1502,-91 1406,-91"/>
<text text-anchor="middle" x="1454" y="-150.8" font-family="Times,serif" font-size="14.00">bcs</text>
</g>
<g id="clust8" class="cluster">
<title>cluster_simple_map</title>
<polygon fill="none" stroke="black" points="905,-257 905,-407 1057,-407 1057,-257 905,-257"/>
<text text-anchor="middle" x="981" y="-391.8" font-family="Times,serif" font-size="14.00">simple_map</text>
</g>
<g id="clust9" class="cluster">
<title>cluster_option</title>
<polygon fill="none" stroke="black" points="807,-91 807,-249 1138,-249 1138,-91 807,-91"/>
<text text-anchor="middle" x="972.5" y="-233.8" font-family="Times,serif" font-size="14.00">option</text>
</g>
<g id="clust10" class="cluster">
<title>cluster_vector</title>
<polygon fill="none" stroke="black" points="870,-8 870,-83 1077,-83 1077,-8 870,-8"/>
<text text-anchor="middle" x="973.5" y="-67.8" font-family="Times,serif" font-size="14.00">vector</text>
</g>
<g id="clust11" class="cluster">
<title>cluster_comparator</title>
<polygon fill="none" stroke="black" points="1146,-91 1146,-249 1398,-249 1398,-91 1146,-91"/>
<text text-anchor="middle" x="1272" y="-233.8" font-family="Times,serif" font-size="14.00">comparator</text>
</g>
<!-- create_tokendata -->
<g id="node1" class="node">
<title>create_tokendata</title>
<ellipse fill="none" stroke="black" cx="618" cy="-591" rx="70.39" ry="18"/>
<text text-anchor="middle" x="618" y="-587.3" font-family="Times,serif" font-size="14.00">create_tokendata</text>
</g>
<!-- string::length -->
<g id="node2" class="node">
<title>string::length</title>
<ellipse fill="none" stroke="black" cx="813" cy="-441" rx="32.49" ry="18"/>
<text text-anchor="middle" x="813" y="-437.3" font-family="Times,serif" font-size="14.00">length</text>
</g>
<!-- create_tokendata&#45;&gt;string::length -->
<g id="edge1" class="edge">
<title>create_tokendata&#45;&gt;string::length</title>
<path fill="none" stroke="black" d="M687.45,-587.66C756.31,-584.6 853.22,-578.03 865,-565 884.97,-542.91 875.88,-525.72 865,-498 864.16,-495.87 849.13,-479.78 835.45,-465.39"/>
<polygon fill="black" stroke="black" points="838.14,-463.14 828.71,-458.33 833.08,-467.98 838.14,-463.14"/>
</g>
<!-- table::contains -->
<g id="node3" class="node">
<title>table::contains</title>
<ellipse fill="none" stroke="black" cx="345" cy="-516" rx="40.09" ry="18"/>
<text text-anchor="middle" x="345" y="-512.3" font-family="Times,serif" font-size="14.00">contains</text>
</g>
<!-- create_tokendata&#45;&gt;table::contains -->
<g id="edge2" class="edge">
<title>create_tokendata&#45;&gt;table::contains</title>
<path fill="none" stroke="black" d="M549.91,-585.98C498.01,-582.17 431.3,-575.46 406,-565 392.18,-559.29 378.89,-549.51 368.25,-540.27"/>
<polygon fill="black" stroke="black" points="370.86,-537.91 361.11,-533.75 366.14,-543.08 370.86,-537.91"/>
</g>
<!-- table::borrow_mut -->
<g id="node4" class="node">
<title>table::borrow_mut</title>
<ellipse fill="none" stroke="black" cx="210" cy="-516" rx="54.69" ry="18"/>
<text text-anchor="middle" x="210" y="-512.3" font-family="Times,serif" font-size="14.00">borrow_mut</text>
</g>
<!-- create_tokendata&#45;&gt;table::borrow_mut -->
<g id="edge3" class="edge">
<title>create_tokendata&#45;&gt;table::borrow_mut</title>
<path fill="none" stroke="black" d="M548.14,-588.07C467.9,-585.24 341.49,-578.74 296,-565 276.93,-559.24 257.41,-548.79 241.8,-539.1"/>
<polygon fill="black" stroke="black" points="243.73,-536.18 233.42,-533.72 239.94,-542.07 243.73,-536.18"/>
</g>
<!-- table::add -->
<g id="node5" class="node">
<title>table::add</title>
<ellipse fill="none" stroke="black" cx="72" cy="-516" rx="27" ry="18"/>
<text text-anchor="middle" x="72" y="-512.3" font-family="Times,serif" font-size="14.00">add</text>
</g>
<!-- create_tokendata&#45;&gt;table::add -->
<g id="edge4" class="edge">
<title>create_tokendata&#45;&gt;table::add</title>
<path fill="none" stroke="black" d="M547.25,-590.71C434.28,-591.09 218.48,-588.55 146,-565 128.13,-559.19 110.39,-547.93 96.77,-537.77"/>
<polygon fill="black" stroke="black" points="99.28,-535.29 89.23,-531.92 94.99,-540.82 99.28,-535.29"/>
</g>
<!-- signer::address_of -->
<g id="node6" class="node">
<title>signer::address_of</title>
<ellipse fill="none" stroke="black" cx="494" cy="-516" rx="48.99" ry="18"/>
<text text-anchor="middle" x="494" y="-512.3" font-family="Times,serif" font-size="14.00">address_of</text>
</g>
<!-- create_tokendata&#45;&gt;signer::address_of -->
<g id="edge5" class="edge">
<title>create_tokendata&#45;&gt;signer::address_of</title>
<path fill="none" stroke="black" d="M584.63,-574.81C578.36,-571.72 571.92,-568.37 566,-565 552.06,-557.06 537.23,-547.39 524.66,-538.82"/>
<polygon fill="black" stroke="black" points="527.02,-536.19 516.8,-533.38 523.04,-541.95 527.02,-536.19"/>
</g>
<!-- error::already_exists -->
<g id="node7" class="node">
<title>error::already_exists</title>
<ellipse fill="none" stroke="black" cx="565" cy="-283" rx="61.19" ry="18"/>
<text text-anchor="middle" x="565" y="-279.3" font-family="Times,serif" font-size="14.00">already_exists</text>
</g>
<!-- create_tokendata&#45;&gt;error::already_exists -->
<g id="edge6" class="edge">
<title>create_tokendata&#45;&gt;error::already_exists</title>
<path fill="none" stroke="black" d="M618.57,-572.6C619.45,-531.29 618.91,-424.48 594,-340 591.06,-330.04 586.32,-319.77 581.51,-310.79"/>
<polygon fill="black" stroke="black" points="584.65,-309.23 576.69,-302.25 578.56,-312.68 584.65,-309.23"/>
</g>
<!-- error::invalid_argument -->
<g id="node8" class="node">
<title>error::invalid_argument</title>
<ellipse fill="none" stroke="black" cx="718" cy="-283" rx="73.39" ry="18"/>
<text text-anchor="middle" x="718" y="-279.3" font-family="Times,serif" font-size="14.00">invalid_argument</text>
</g>
<!-- create_tokendata&#45;&gt;error::invalid_argument -->
<g id="edge7" class="edge">
<title>create_tokendata&#45;&gt;error::invalid_argument</title>
<path fill="none" stroke="black" d="M629.06,-572.81C630.49,-570.25 631.85,-567.59 633,-565 672.28,-476.35 700.12,-364.27 711.83,-312.54"/>
<polygon fill="black" stroke="black" points="715.25,-313.31 714.01,-302.79 708.41,-311.79 715.25,-313.31"/>
</g>
<!-- error::not_found -->
<g id="node9" class="node">
<title>error::not_found</title>
<ellipse fill="none" stroke="black" cx="439" cy="-283" rx="46.59" ry="18"/>
<text text-anchor="middle" x="439" y="-279.3" font-family="Times,serif" font-size="14.00">not_found</text>
</g>
<!-- create_tokendata&#45;&gt;error::not_found -->
<g id="edge8" class="edge">
<title>create_tokendata&#45;&gt;error::not_found</title>
<path fill="none" stroke="black" d="M613.76,-572.77C604.12,-534.27 580.13,-442.49 564,-415 550.05,-391.23 496.58,-338.57 464.26,-307.74"/>
<polygon fill="black" stroke="black" points="466.9,-305.43 457.24,-301.08 462.08,-310.51 466.9,-305.43"/>
</g>
<!-- event::emit_event -->
<g id="node10" class="node">
<title>event::emit_event</title>
<ellipse fill="none" stroke="black" cx="1568" cy="-200" rx="50.09" ry="18"/>
<text text-anchor="middle" x="1568" y="-196.3" font-family="Times,serif" font-size="14.00">emit_event</text>
</g>
<!-- create_tokendata&#45;&gt;event::emit_event -->
<g id="edge9" class="edge">
<title>create_tokendata&#45;&gt;event::emit_event</title>
<path fill="none" stroke="black" d="M688.73,-589.98C867.25,-588.04 1322,-570.48 1322,-442 1322,-442 1322,-442 1322,-357 1322,-267.59 1439.32,-227.27 1511.92,-210.88"/>
<polygon fill="black" stroke="black" points="1512.65,-214.31 1521.69,-208.77 1511.17,-207.47 1512.65,-214.31"/>
</g>
<!-- property_map::new -->
<g id="node11" class="node">
<title>property_map::new</title>
<ellipse fill="none" stroke="black" cx="955" cy="-516" rx="27" ry="18"/>
<text text-anchor="middle" x="955" y="-512.3" font-family="Times,serif" font-size="14.00">new</text>
</g>
<!-- create_tokendata&#45;&gt;property_map::new -->
<g id="edge10" class="edge">
<title>create_tokendata&#45;&gt;property_map::new</title>
<path fill="none" stroke="black" d="M688.12,-588.53C758.44,-586.21 861.39,-580.24 898,-565 911.49,-559.39 924.17,-549.38 934.13,-539.96"/>
<polygon fill="black" stroke="black" points="936.47,-542.57 941.06,-533.02 931.52,-537.62 936.47,-542.57"/>
</g>
<!-- create_token_data_id -->
<g id="node12" class="node">
<title>create_token_data_id</title>
<ellipse fill="none" stroke="black" cx="770" cy="-516" rx="85.59" ry="18"/>
<text text-anchor="middle" x="770" y="-512.3" font-family="Times,serif" font-size="14.00">create_token_data_id</text>
</g>
<!-- create_tokendata&#45;&gt;create_token_data_id -->
<g id="edge11" class="edge">
<title>create_tokendata&#45;&gt;create_token_data_id</title>
<path fill="none" stroke="black" d="M649.86,-574.7C672.11,-564.01 702.07,-549.63 726.5,-537.89"/>
<polygon fill="black" stroke="black" points="727.74,-541.18 735.23,-533.7 724.7,-534.87 727.74,-541.18"/>
</g>
<!-- table::contains_box -->
<g id="node13" class="node">
<title>table::contains_box</title>
<ellipse fill="none" stroke="black" cx="336" cy="-441" rx="57.69" ry="18"/>
<text text-anchor="middle" x="336" y="-437.3" font-family="Times,serif" font-size="14.00">contains_box</text>
</g>
<!-- table::contains&#45;&gt;table::contains_box -->
<g id="edge12" class="edge">
<title>table::contains&#45;&gt;table::contains_box</title>
<path fill="none" stroke="black" d="M342.87,-497.7C341.88,-489.67 340.67,-479.9 339.55,-470.8"/>
<polygon fill="black" stroke="black" points="343.03,-470.43 338.33,-460.93 336.08,-471.28 343.03,-470.43"/>
</g>
<!-- table::borrow_box_mut -->
<g id="node14" class="node">
<title>table::borrow_box_mut</title>
<ellipse fill="none" stroke="black" cx="188" cy="-441" rx="72.29" ry="18"/>
<text text-anchor="middle" x="188" y="-437.3" font-family="Times,serif" font-size="14.00">borrow_box_mut</text>
</g>
<!-- table::borrow_mut&#45;&gt;table::borrow_box_mut -->
<g id="edge13" class="edge">
<title>table::borrow_mut&#45;&gt;table::borrow_box_mut</title>
<path fill="none" stroke="black" d="M204.79,-497.7C202.31,-489.49 199.29,-479.46 196.5,-470.19"/>
<polygon fill="black" stroke="black" points="199.93,-469.44 193.69,-460.88 193.22,-471.46 199.93,-469.44"/>
</g>
<!-- table::add_box -->
<g id="node15" class="node">
<title>table::add_box</title>
<ellipse fill="none" stroke="black" cx="57" cy="-441" rx="40.89" ry="18"/>
<text text-anchor="middle" x="57" y="-437.3" font-family="Times,serif" font-size="14.00">add_box</text>
</g>
<!-- table::add&#45;&gt;table::add_box -->
<g id="edge14" class="edge">
<title>table::add&#45;&gt;table::add_box</title>
<path fill="none" stroke="black" d="M68.45,-497.7C66.78,-489.58 64.74,-479.68 62.86,-470.5"/>
<polygon fill="black" stroke="black" points="66.33,-470 60.89,-460.91 59.47,-471.41 66.33,-470"/>
</g>
<!-- signer::borrow_address -->
<g id="node16" class="node">
<title>signer::borrow_address</title>
<ellipse fill="none" stroke="black" cx="485" cy="-441" rx="66.89" ry="18"/>
<text text-anchor="middle" x="485" y="-437.3" font-family="Times,serif" font-size="14.00">borrow_address</text>
</g>
<!-- signer::address_of&#45;&gt;signer::borrow_address -->
<g id="edge15" class="edge">
<title>signer::address_of&#45;&gt;signer::borrow_address</title>
<path fill="none" stroke="black" d="M491.87,-497.7C490.88,-489.67 489.67,-479.9 488.55,-470.8"/>
<polygon fill="black" stroke="black" points="492.03,-470.43 487.33,-460.93 485.08,-471.28 492.03,-470.43"/>
</g>
<!-- error::canonical -->
<g id="node17" class="node">
<title>error::canonical</title>
<ellipse fill="none" stroke="black" cx="565" cy="-200" rx="44.39" ry="18"/>
<text text-anchor="middle" x="565" y="-196.3" font-family="Times,serif" font-size="14.00">canonical</text>
</g>
<!-- error::already_exists&#45;&gt;error::canonical -->
<g id="edge16" class="edge">
<title>error::already_exists&#45;&gt;error::canonical</title>
<path fill="none" stroke="black" d="M565,-264.82C565,-254.69 565,-241.6 565,-229.92"/>
<polygon fill="black" stroke="black" points="568.5,-229.95 565,-219.95 561.5,-229.95 568.5,-229.95"/>
</g>
<!-- error::invalid_argument&#45;&gt;error::canonical -->
<g id="edge17" class="edge">
<title>error::invalid_argument&#45;&gt;error::canonical</title>
<path fill="none" stroke="black" d="M688.14,-266.19C663.26,-253.02 627.75,-234.22 601.25,-220.19"/>
<polygon fill="black" stroke="black" points="603.03,-217.17 592.56,-215.59 599.76,-223.36 603.03,-217.17"/>
</g>
<!-- error::not_found&#45;&gt;error::canonical -->
<g id="edge18" class="edge">
<title>error::not_found&#45;&gt;error::canonical</title>
<path fill="none" stroke="black" d="M462.4,-266.95C482.15,-254.26 510.63,-235.95 532.58,-221.84"/>
<polygon fill="black" stroke="black" points="534.35,-224.86 540.87,-216.51 530.57,-218.97 534.35,-224.86"/>
</g>
<!-- bcs::to_bytes -->
<g id="node18" class="node">
<title>bcs::to_bytes</title>
<ellipse fill="none" stroke="black" cx="1454" cy="-117" rx="40.09" ry="18"/>
<text text-anchor="middle" x="1454" y="-113.3" font-family="Times,serif" font-size="14.00">to_bytes</text>
</g>
<!-- event::emit_event&#45;&gt;bcs::to_bytes -->
<g id="edge19" class="edge">
<title>event::emit_event&#45;&gt;bcs::to_bytes</title>
<path fill="none" stroke="black" d="M1538.38,-185.2C1527.81,-179.77 1516.04,-173.13 1506,-166 1495.93,-158.85 1485.75,-149.92 1477.1,-141.7"/>
<polygon fill="black" stroke="black" points="1479.71,-139.36 1470.11,-134.88 1474.82,-144.37 1479.71,-139.36"/>
</g>
<!-- event::write_to_event_store -->
<g id="node19" class="node">
<title>event::write_to_event_store</title>
<ellipse fill="none" stroke="black" cx="1603" cy="-117" rx="85.29" ry="18"/>
<text text-anchor="middle" x="1603" y="-113.3" font-family="Times,serif" font-size="14.00">write_to_event_store</text>
</g>
<!-- event::emit_event&#45;&gt;event::write_to_event_store -->
<g id="edge20" class="edge">
<title>event::emit_event&#45;&gt;event::write_to_event_store</title>
<path fill="none" stroke="black" d="M1575.42,-181.82C1579.97,-171.3 1585.89,-157.59 1591.09,-145.57"/>
<polygon fill="black" stroke="black" points="1594.23,-147.11 1594.99,-136.54 1587.81,-144.33 1594.23,-147.11"/>
</g>
<!-- property_map::new&#45;&gt;string::length -->
<g id="edge21" class="edge">
<title>property_map::new&#45;&gt;string::length</title>
<path fill="none" stroke="black" d="M931,-507.33C920.87,-504.23 908.92,-500.74 898,-498 880.84,-493.69 874.49,-498.55 859,-490 848.65,-484.29 839.22,-475.46 831.63,-466.93"/>
<polygon fill="black" stroke="black" points="834.48,-464.89 825.39,-459.45 829.11,-469.37 834.48,-464.89"/>
</g>
<!-- property_map::new&#45;&gt;error::invalid_argument -->
<g id="edge22" class="edge">
<title>property_map::new&#45;&gt;error::invalid_argument</title>
<path fill="none" stroke="black" d="M935.38,-503.29C929.52,-499.4 923.26,-494.81 918,-490 886.3,-460.99 886.25,-446.47 857,-415 820.38,-375.6 774.35,-333.53 745.55,-308"/>
<polygon fill="black" stroke="black" points="748.14,-305.62 738.33,-301.63 743.51,-310.87 748.14,-305.62"/>
</g>
<!-- simple_map::add -->
<g id="node20" class="node">
<title>simple_map::add</title>
<ellipse fill="none" stroke="black" cx="940" cy="-358" rx="27" ry="18"/>
<text text-anchor="middle" x="940" y="-354.3" font-family="Times,serif" font-size="14.00">add</text>
</g>
<!-- property_map::new&#45;&gt;simple_map::add -->
<g id="edge23" class="edge">
<title>property_map::new&#45;&gt;simple_map::add</title>
<path fill="none" stroke="black" d="M937.95,-501.69C934.71,-498.26 931.79,-494.31 930,-490 916.1,-456.44 923.36,-413.94 930.84,-386.61"/>
<polygon fill="black" stroke="black" points="934.1,-387.93 933.57,-377.35 927.38,-385.95 934.1,-387.93"/>
</g>
<!-- property_map::empty -->
<g id="node21" class="node">
<title>property_map::empty</title>
<ellipse fill="none" stroke="black" cx="972" cy="-441" rx="33.29" ry="18"/>
<text text-anchor="middle" x="972" y="-437.3" font-family="Times,serif" font-size="14.00">empty</text>
</g>
<!-- property_map::new&#45;&gt;property_map::empty -->
<g id="edge24" class="edge">
<title>property_map::new&#45;&gt;property_map::empty</title>
<path fill="none" stroke="black" d="M959.03,-497.7C960.93,-489.52 963.26,-479.54 965.41,-470.29"/>
<polygon fill="black" stroke="black" points="968.8,-471.18 967.66,-460.65 961.98,-469.6 968.8,-471.18"/>
</g>
<!-- create_token_data_id&#45;&gt;string::length -->
<g id="edge25" class="edge">
<title>create_token_data_id&#45;&gt;string::length</title>
<path fill="none" stroke="black" d="M780.19,-497.7C785.43,-488.81 791.91,-477.8 797.73,-467.92"/>
<polygon fill="black" stroke="black" points="800.64,-469.87 802.7,-459.48 794.61,-466.32 800.64,-469.87"/>
</g>
<!-- create_token_data_id&#45;&gt;error::invalid_argument -->
<g id="edge26" class="edge">
<title>create_token_data_id&#45;&gt;error::invalid_argument</title>
<path fill="none" stroke="black" d="M766.09,-497.64C757.19,-458.08 735.32,-360.92 724.41,-312.46"/>
<polygon fill="black" stroke="black" points="727.83,-311.71 722.22,-302.73 721,-313.25 727.83,-311.71"/>
</g>
<!-- simple_map::add&#45;&gt;error::invalid_argument -->
<g id="edge29" class="edge">
<title>simple_map::add&#45;&gt;error::invalid_argument</title>
<path fill="none" stroke="black" d="M916.01,-349.24C906.93,-346.32 896.5,-342.98 887,-340 875.47,-336.38 872.51,-335.7 861,-332 830.87,-322.31 797.32,-311.07 770.29,-301.91"/>
<polygon fill="black" stroke="black" points="771.55,-298.64 760.95,-298.73 769.3,-305.26 771.55,-298.64"/>
</g>
<!-- option::extract -->
<g id="node22" class="node">
<title>option::extract</title>
<ellipse fill="none" stroke="black" cx="849" cy="-200" rx="34.39" ry="18"/>
<text text-anchor="middle" x="849" y="-196.3" font-family="Times,serif" font-size="14.00">extract</text>
</g>
<!-- simple_map::add&#45;&gt;option::extract -->
<g id="edge27" class="edge">
<title>simple_map::add&#45;&gt;option::extract</title>
<path fill="none" stroke="black" d="M930.6,-340.89C914.95,-314.06 883.39,-259.95 864.43,-227.45"/>
<polygon fill="black" stroke="black" points="867.58,-225.91 859.52,-219.03 861.53,-229.43 867.58,-225.91"/>
</g>
<!-- option::is_none -->
<g id="node23" class="node">
<title>option::is_none</title>
<ellipse fill="none" stroke="black" cx="940" cy="-200" rx="38.19" ry="18"/>
<text text-anchor="middle" x="940" y="-196.3" font-family="Times,serif" font-size="14.00">is_none</text>
</g>
<!-- simple_map::add&#45;&gt;option::is_none -->
<g id="edge28" class="edge">
<title>simple_map::add&#45;&gt;option::is_none</title>
<path fill="none" stroke="black" d="M940,-339.71C940,-313.12 940,-261.9 940,-229.69"/>
<polygon fill="black" stroke="black" points="943.5,-229.88 940,-219.88 936.5,-229.88 943.5,-229.88"/>
</g>
<!-- simple_map::find -->
<g id="node24" class="node">
<title>simple_map::find</title>
<ellipse fill="none" stroke="black" cx="1022" cy="-283" rx="27" ry="18"/>
<text text-anchor="middle" x="1022" y="-279.3" font-family="Times,serif" font-size="14.00">find</text>
</g>
<!-- simple_map::add&#45;&gt;simple_map::find -->
<g id="edge30" class="edge">
<title>simple_map::add&#45;&gt;simple_map::find</title>
<path fill="none" stroke="black" d="M955.81,-342.92C967.72,-332.32 984.26,-317.59 997.83,-305.52"/>
<polygon fill="black" stroke="black" points="999.97,-308.3 1005.11,-299.04 995.31,-303.07 999.97,-308.3"/>
</g>
<!-- simple_map::create -->
<g id="node25" class="node">
<title>simple_map::create</title>
<ellipse fill="none" stroke="black" cx="1017" cy="-358" rx="31.7" ry="18"/>
<text text-anchor="middle" x="1017" y="-354.3" font-family="Times,serif" font-size="14.00">create</text>
</g>
<!-- property_map::empty&#45;&gt;simple_map::create -->
<g id="edge31" class="edge">
<title>property_map::empty&#45;&gt;simple_map::create</title>
<path fill="none" stroke="black" d="M981.11,-423.61C987.17,-412.7 995.26,-398.13 1002.23,-385.58"/>
<polygon fill="black" stroke="black" points="1005.22,-387.41 1007.02,-376.97 999.1,-384.01 1005.22,-387.41"/>
</g>
<!-- option::is_some -->
<g id="node26" class="node">
<title>option::is_some</title>
<ellipse fill="none" stroke="black" cx="860" cy="-117" rx="40.09" ry="18"/>
<text text-anchor="middle" x="860" y="-113.3" font-family="Times,serif" font-size="14.00">is_some</text>
</g>
<!-- option::extract&#45;&gt;option::is_some -->
<g id="edge32" class="edge">
<title>option::extract&#45;&gt;option::is_some</title>
<path fill="none" stroke="black" d="M851.33,-181.82C852.72,-171.58 854.52,-158.33 856.12,-146.55"/>
<polygon fill="black" stroke="black" points="859.55,-147.31 857.43,-136.93 852.62,-146.37 859.55,-147.31"/>
</g>
<!-- vector::is_empty -->
<g id="node27" class="node">
<title>vector::is_empty</title>
<ellipse fill="none" stroke="black" cx="922" cy="-34" rx="43.59" ry="18"/>
<text text-anchor="middle" x="922" y="-30.3" font-family="Times,serif" font-size="14.00">is_empty</text>
</g>
<!-- option::is_none&#45;&gt;vector::is_empty -->
<g id="edge33" class="edge">
<title>option::is_none&#45;&gt;vector::is_empty</title>
<path fill="none" stroke="black" d="M938.11,-181.76C935.01,-153.51 928.82,-97.11 925.08,-63.04"/>
<polygon fill="black" stroke="black" points="928.6,-63.07 924.03,-53.51 921.64,-63.84 928.6,-63.07"/>
</g>
<!-- option::none -->
<g id="node28" class="node">
<title>option::none</title>
<ellipse fill="none" stroke="black" cx="1102" cy="-200" rx="27.9" ry="18"/>
<text text-anchor="middle" x="1102" y="-196.3" font-family="Times,serif" font-size="14.00">none</text>
</g>
<!-- simple_map::find&#45;&gt;option::none -->
<g id="edge34" class="edge">
<title>simple_map::find&#45;&gt;option::none</title>
<path fill="none" stroke="black" d="M1040.43,-269.49C1048.38,-263.69 1057.54,-256.44 1065,-249 1071.91,-242.1 1078.68,-233.9 1084.49,-226.24"/>
<polygon fill="black" stroke="black" points="1087.3,-228.32 1090.39,-218.19 1081.66,-224.19 1087.3,-228.32"/>
</g>
<!-- option::some -->
<g id="node29" class="node">
<title>option::some</title>
<ellipse fill="none" stroke="black" cx="1026" cy="-200" rx="29.8" ry="18"/>
<text text-anchor="middle" x="1026" y="-196.3" font-family="Times,serif" font-size="14.00">some</text>
</g>
<!-- simple_map::find&#45;&gt;option::some -->
<g id="edge35" class="edge">
<title>simple_map::find&#45;&gt;option::some</title>
<path fill="none" stroke="black" d="M1022.85,-264.82C1023.35,-254.69 1024,-241.6 1024.57,-229.92"/>
<polygon fill="black" stroke="black" points="1028.07,-230.1 1025.06,-219.94 1021.08,-229.76 1028.07,-230.1"/>
</g>
<!-- comparator::compare -->
<g id="node30" class="node">
<title>comparator::compare</title>
<ellipse fill="none" stroke="black" cx="1348" cy="-200" rx="41.69" ry="18"/>
<text text-anchor="middle" x="1348" y="-196.3" font-family="Times,serif" font-size="14.00">compare</text>
</g>
<!-- simple_map::find&#45;&gt;comparator::compare -->
<g id="edge36" class="edge">
<title>simple_map::find&#45;&gt;comparator::compare</title>
<path fill="none" stroke="black" d="M1049.01,-280.9C1109.38,-278.09 1253.33,-269.41 1297,-249 1308.69,-243.54 1319.45,-234.36 1328.04,-225.48"/>
<polygon fill="black" stroke="black" points="1330.42,-228.07 1334.56,-218.31 1325.24,-223.36 1330.42,-228.07"/>
</g>
<!-- comparator::is_smaller_than -->
<g id="node31" class="node">
<title>comparator::is_smaller_than</title>
<ellipse fill="none" stroke="black" cx="1221" cy="-200" rx="66.89" ry="18"/>
<text text-anchor="middle" x="1221" y="-196.3" font-family="Times,serif" font-size="14.00">is_smaller_than</text>
</g>
<!-- simple_map::find&#45;&gt;comparator::is_smaller_than -->
<g id="edge37" class="edge">
<title>simple_map::find&#45;&gt;comparator::is_smaller_than</title>
<path fill="none" stroke="black" d="M1047.98,-277.04C1072.77,-271.8 1110.85,-262.43 1142,-249 1158.01,-242.1 1174.66,-232.41 1188.52,-223.54"/>
<polygon fill="black" stroke="black" points="1190.36,-226.52 1196.8,-218.11 1186.52,-220.67 1190.36,-226.52"/>
</g>
<!-- option::is_some&#45;&gt;vector::is_empty -->
<g id="edge38" class="edge">
<title>option::is_some&#45;&gt;vector::is_empty</title>
<path fill="none" stroke="black" d="M872.55,-99.61C881.15,-88.37 892.72,-73.25 902.51,-60.46"/>
<polygon fill="black" stroke="black" points="905.04,-62.92 908.34,-52.85 899.48,-58.66 905.04,-62.92"/>
</g>
<!-- vector::singleton -->
<g id="node32" class="node">
<title>vector::singleton</title>
<ellipse fill="none" stroke="black" cx="1026" cy="-34" rx="42.79" ry="18"/>
<text text-anchor="middle" x="1026" y="-30.3" font-family="Times,serif" font-size="14.00">singleton</text>
</g>
<!-- option::some&#45;&gt;vector::singleton -->
<g id="edge39" class="edge">
<title>option::some&#45;&gt;vector::singleton</title>
<path fill="none" stroke="black" d="M1026,-181.76C1026,-153.63 1026,-97.6 1026,-63.49"/>
<polygon fill="black" stroke="black" points="1029.5,-63.52 1026,-53.52 1022.5,-63.52 1029.5,-63.52"/>
</g>
<!-- comparator::compare&#45;&gt;bcs::to_bytes -->
<g id="edge40" class="edge">
<title>comparator::compare&#45;&gt;bcs::to_bytes</title>
<path fill="none" stroke="black" d="M1372.86,-185.2C1382.26,-179.63 1392.88,-172.89 1402,-166 1411.71,-158.67 1421.68,-149.83 1430.27,-141.74"/>
<polygon fill="black" stroke="black" points="1432.45,-144.5 1437.24,-135.04 1427.6,-139.45 1432.45,-144.5"/>
</g>
<!-- comparator::compare_u8_vector -->
<g id="node33" class="node">
<title>comparator::compare_u8_vector</title>
<ellipse fill="none" stroke="black" cx="1309" cy="-117" rx="81.49" ry="18"/>
<text text-anchor="middle" x="1309" y="-113.3" font-family="Times,serif" font-size="14.00">compare_u8_vector</text>
</g>
<!-- comparator::compare&#45;&gt;comparator::compare_u8_vector -->
<g id="edge41" class="edge">
<title>comparator::compare&#45;&gt;comparator::compare_u8_vector</title>
<path fill="none" stroke="black" d="M1339.92,-182.22C1334.81,-171.61 1328.09,-157.65 1322.22,-145.45"/>
<polygon fill="black" stroke="black" points="1325.49,-144.18 1318,-136.68 1319.18,-147.21 1325.49,-144.18"/>
</g>
</g>
</svg>
