<?xml version="1.0" encoding="UTF-8" standalone="no"?>
<!DOCTYPE svg PUBLIC "-//W3C//DTD SVG 1.1//EN"
 "http://www.w3.org/Graphics/SVG/1.1/DTD/svg11.dtd">
<!-- Generated by graphviz version 7.0.0 (20221023.0053)
 -->
<!-- Title: G Pages: 1 -->
<svg width="766pt" height="282pt"
 viewBox="0.00 0.00 766.00 282.00" xmlns="http://www.w3.org/2000/svg" xmlns:xlink="http://www.w3.org/1999/xlink">
<g id="graph0" class="graph" transform="scale(1 1) rotate(0) translate(4 278)">
<title>G</title>
<polygon fill="white" stroke="none" points="-4,4 -4,-278 762,-278 762,4 -4,4"/>
<g id="clust1" class="cluster">
<title>cluster_table</title>
<polygon fill="none" stroke="black" points="166,-8 166,-155 460,-155 460,-8 166,-8"/>
<text text-anchor="middle" x="313" y="-139.8" font-family="Times,serif" font-size="14.00">table</text>
</g>
<g id="clust2" class="cluster">
<title>cluster_signer</title>
<polygon fill="none" stroke="black" points="8,-80 8,-230 158,-230 158,-80 8,-80"/>
<text text-anchor="middle" x="83" y="-214.8" font-family="Times,serif" font-size="14.00">signer</text>
</g>
<g id="clust3" class="cluster">
<title>cluster_error</title>
<polygon fill="none" stroke="black" points="468,-8 468,-155 750,-155 750,-8 468,-8"/>
<text text-anchor="middle" x="609" y="-139.8" font-family="Times,serif" font-size="14.00">error</text>
</g>
<!-- mutate_collection_description -->
<g id="node1" class="node">
<title>mutate_collection_description</title>
<ellipse fill="none" stroke="black" cx="339" cy="-256" rx="117.78" ry="18"/>
<text text-anchor="middle" x="339" y="-252.3" font-family="Times,serif" font-size="14.00">mutate_collection_description</text>
</g>
<!-- table::borrow_mut -->
<g id="node2" class="node">
<title>table::borrow_mut</title>
<ellipse fill="none" stroke="black" cx="259" cy="-106" rx="54.69" ry="18"/>
<text text-anchor="middle" x="259" y="-102.3" font-family="Times,serif" font-size="14.00">borrow_mut</text>
</g>
<!-- mutate_collection_description&#45;&gt;table::borrow_mut -->
<g id="edge1" class="edge">
<title>mutate_collection_description&#45;&gt;table::borrow_mut</title>
<path fill="none" stroke="black" d="M300.07,-238.61C296.68,-236.09 293.58,-233.23 291,-230 269.42,-202.91 262.28,-162.8 259.97,-135.82"/>
<polygon fill="black" stroke="black" points="263.47,-135.7 259.32,-125.95 256.49,-136.16 263.47,-135.7"/>
</g>
<!-- signer::address_of -->
<g id="node3" class="node">
<title>signer::address_of</title>
<ellipse fill="none" stroke="black" cx="92" cy="-181" rx="48.99" ry="18"/>
<text text-anchor="middle" x="92" y="-177.3" font-family="Times,serif" font-size="14.00">address_of</text>
</g>
<!-- mutate_collection_description&#45;&gt;signer::address_of -->
<g id="edge2" class="edge">
<title>mutate_collection_description&#45;&gt;signer::address_of</title>
<path fill="none" stroke="black" d="M284.51,-239.67C273.41,-236.51 261.82,-233.17 251,-230 213.5,-219.01 171.14,-206.21 139.58,-196.59"/>
<polygon fill="black" stroke="black" points="140.93,-193.34 130.34,-193.77 138.89,-200.03 140.93,-193.34"/>
</g>
<!-- error::permission_denied -->
<g id="node4" class="node">
<title>error::permission_denied</title>
<ellipse fill="none" stroke="black" cx="665" cy="-106" rx="77.19" ry="18"/>
<text text-anchor="middle" x="665" y="-102.3" font-family="Times,serif" font-size="14.00">permission_denied</text>
</g>
<!-- mutate_collection_description&#45;&gt;error::permission_denied -->
<g id="edge3" class="edge">
<title>mutate_collection_description&#45;&gt;error::permission_denied</title>
<path fill="none" stroke="black" d="M439.6,-246.42C459.11,-242.73 479.05,-237.47 497,-230 553.74,-206.38 609.21,-159.88 640.08,-131.31"/>
<polygon fill="black" stroke="black" points="642.12,-134.2 647.01,-124.8 637.32,-129.1 642.12,-134.2"/>
</g>
<!-- assert_collection_exists -->
<g id="node5" class="node">
<title>assert_collection_exists</title>
<ellipse fill="none" stroke="black" cx="394" cy="-181" rx="94.48" ry="18"/>
<text text-anchor="middle" x="394" y="-177.3" font-family="Times,serif" font-size="14.00">assert_collection_exists</text>
</g>
<!-- mutate_collection_description&#45;&gt;assert_collection_exists -->
<g id="edge4" class="edge">
<title>mutate_collection_description&#45;&gt;assert_collection_exists</title>
<path fill="none" stroke="black" d="M352.03,-237.7C358.68,-228.88 366.9,-217.97 374.3,-208.15"/>
<polygon fill="black" stroke="black" points="376.93,-210.48 380.15,-200.38 371.34,-206.27 376.93,-210.48"/>
</g>
<!-- table::borrow_box_mut -->
<g id="node6" class="node">
<title>table::borrow_box_mut</title>
<ellipse fill="none" stroke="black" cx="246" cy="-34" rx="72.29" ry="18"/>
<text text-anchor="middle" x="246" y="-30.3" font-family="Times,serif" font-size="14.00">borrow_box_mut</text>
</g>
<!-- table::borrow_mut&#45;&gt;table::borrow_box_mut -->
<g id="edge5" class="edge">
<title>table::borrow_mut&#45;&gt;table::borrow_box_mut</title>
<path fill="none" stroke="black" d="M255.79,-87.7C254.42,-80.32 252.78,-71.52 251.25,-63.25"/>
<polygon fill="black" stroke="black" points="254.72,-62.79 249.45,-53.59 247.84,-64.06 254.72,-62.79"/>
</g>
<!-- signer::borrow_address -->
<g id="node7" class="node">
<title>signer::borrow_address</title>
<ellipse fill="none" stroke="black" cx="83" cy="-106" rx="66.89" ry="18"/>
<text text-anchor="middle" x="83" y="-102.3" font-family="Times,serif" font-size="14.00">borrow_address</text>
</g>
<!-- signer::address_of&#45;&gt;signer::borrow_address -->
<g id="edge6" class="edge">
<title>signer::address_of&#45;&gt;signer::borrow_address</title>
<path fill="none" stroke="black" d="M89.87,-162.7C88.88,-154.67 87.67,-144.9 86.55,-135.8"/>
<polygon fill="black" stroke="black" points="90.03,-135.43 85.33,-125.93 83.08,-136.28 90.03,-135.43"/>
</g>
<!-- error::canonical -->
<g id="node8" class="node">
<title>error::canonical</title>
<ellipse fill="none" stroke="black" cx="594" cy="-34" rx="44.39" ry="18"/>
<text text-anchor="middle" x="594" y="-30.3" font-family="Times,serif" font-size="14.00">canonical</text>
</g>
<!-- error::permission_denied&#45;&gt;error::canonical -->
<g id="edge7" class="edge">
<title>error::permission_denied&#45;&gt;error::canonical</title>
<path fill="none" stroke="black" d="M647.81,-88.05C638.93,-79.29 627.93,-68.45 618.2,-58.86"/>
<polygon fill="black" stroke="black" points="620.71,-56.42 611.13,-51.89 615.8,-61.41 620.71,-56.42"/>
</g>
<!-- table::contains -->
<g id="node9" class="node">
<title>table::contains</title>
<ellipse fill="none" stroke="black" cx="394" cy="-106" rx="40.09" ry="18"/>
<text text-anchor="middle" x="394" y="-102.3" font-family="Times,serif" font-size="14.00">contains</text>
</g>
<!-- assert_collection_exists&#45;&gt;table::contains -->
<g id="edge8" class="edge">
<title>assert_collection_exists&#45;&gt;table::contains</title>
<path fill="none" stroke="black" d="M394,-162.7C394,-154.67 394,-144.9 394,-135.8"/>
<polygon fill="black" stroke="black" points="397.5,-135.94 394,-125.94 390.5,-135.94 397.5,-135.94"/>
</g>
<!-- error::not_found -->
<g id="node10" class="node">
<title>error::not_found</title>
<ellipse fill="none" stroke="black" cx="523" cy="-106" rx="46.59" ry="18"/>
<text text-anchor="middle" x="523" y="-102.3" font-family="Times,serif" font-size="14.00">not_found</text>
</g>
<!-- assert_collection_exists&#45;&gt;error::not_found -->
<g id="edge9" class="edge">
<title>assert_collection_exists&#45;&gt;error::not_found</title>
<path fill="none" stroke="black" d="M442.4,-165.16C449.82,-162.19 457.25,-158.8 464,-155 475.89,-148.3 487.8,-139.19 497.77,-130.7"/>
<polygon fill="black" stroke="black" points="500,-133.4 505.19,-124.17 495.37,-128.15 500,-133.4"/>
</g>
<!-- table::contains_box -->
<g id="node11" class="node">
<title>table::contains_box</title>
<ellipse fill="none" stroke="black" cx="394" cy="-34" rx="57.69" ry="18"/>
<text text-anchor="middle" x="394" y="-30.3" font-family="Times,serif" font-size="14.00">contains_box</text>
</g>
<!-- table::contains&#45;&gt;table::contains_box -->
<g id="edge10" class="edge">
<title>table::contains&#45;&gt;table::contains_box</title>
<path fill="none" stroke="black" d="M394,-87.7C394,-80.41 394,-71.73 394,-63.54"/>
<polygon fill="black" stroke="black" points="397.5,-63.62 394,-53.62 390.5,-63.62 397.5,-63.62"/>
</g>
<!-- error::not_found&#45;&gt;error::canonical -->
<g id="edge11" class="edge">
<title>error::not_found&#45;&gt;error::canonical</title>
<path fill="none" stroke="black" d="M539.47,-88.76C548.43,-79.93 559.69,-68.83 569.64,-59.01"/>
<polygon fill="black" stroke="black" points="571.88,-61.72 576.54,-52.21 566.97,-56.74 571.88,-61.72"/>
</g>
</g>
</svg>
