<?xml version="1.0" encoding="UTF-8" standalone="no"?>
<!DOCTYPE svg PUBLIC "-//W3C//DTD SVG 1.1//EN"
 "http://www.w3.org/Graphics/SVG/1.1/DTD/svg11.dtd">
<!-- Generated by graphviz version 7.0.0 (20221023.0053)
 -->
<!-- Title: G Pages: 1 -->
<svg width="1810pt" height="517pt"
 viewBox="0.00 0.00 1810.00 517.00" xmlns="http://www.w3.org/2000/svg" xmlns:xlink="http://www.w3.org/1999/xlink">
<g id="graph0" class="graph" transform="scale(1 1) rotate(0) translate(4 513)">
<title>G</title>
<polygon fill="white" stroke="none" points="-4,4 -4,-513 1806,-513 1806,4 -4,4"/>
<g id="clust1" class="cluster">
<title>cluster_signer</title>
<polygon fill="none" stroke="black" points="138,-8 138,-155 288,-155 288,-8 138,-8"/>
<text text-anchor="middle" x="213" y="-139.8" font-family="Times,serif" font-size="14.00">signer</text>
</g>
<g id="clust2" class="cluster">
<title>cluster_table</title>
<polygon fill="none" stroke="black" points="978,-80 978,-238 1794,-238 1794,-80 978,-80"/>
<text text-anchor="middle" x="1386" y="-222.8" font-family="Times,serif" font-size="14.00">table</text>
</g>
<g id="clust3" class="cluster">
<title>cluster_error</title>
<polygon fill="none" stroke="black" points="696,-8 696,-155 970,-155 970,-8 696,-8"/>
<text text-anchor="middle" x="833" y="-139.8" font-family="Times,serif" font-size="14.00">error</text>
</g>
<g id="clust4" class="cluster">
<title>cluster_event</title>
<polygon fill="none" stroke="black" points="296,-80 296,-238 584,-238 584,-80 296,-80"/>
<text text-anchor="middle" x="440" y="-222.8" font-family="Times,serif" font-size="14.00">event</text>
</g>
<g id="clust5" class="cluster">
<title>cluster_account</title>
<polygon fill="none" stroke="black" points="8,-163 8,-321 178,-321 178,-163 8,-163"/>
<text text-anchor="middle" x="93" y="-305.8" font-family="Times,serif" font-size="14.00">account</text>
</g>
<g id="clust6" class="cluster">
<title>cluster_property_map</title>
<polygon fill="none" stroke="black" points="736,-246 736,-321 829,-321 829,-246 736,-246"/>
<text text-anchor="middle" x="782.5" y="-305.8" font-family="Times,serif" font-size="14.00">property_map</text>
</g>
<g id="clust7" class="cluster">
<title>cluster_bcs</title>
<polygon fill="none" stroke="black" points="592,-80 592,-155 688,-155 688,-80 592,-80"/>
<text text-anchor="middle" x="640" y="-139.8" font-family="Times,serif" font-size="14.00">bcs</text>
</g>
<g id="clust8" class="cluster">
<title>cluster_simple_map</title>
<polygon fill="none" stroke="black" points="735,-163 735,-238 819,-238 819,-163 735,-163"/>
<text text-anchor="middle" x="777" y="-222.8" font-family="Times,serif" font-size="14.00">simple_map</text>
</g>
<g id="clust9" class="cluster">
<title>cluster_guid</title>
<polygon fill="none" stroke="black" points="50,-80 50,-155 130,-155 130,-80 50,-80"/>
<text text-anchor="middle" x="90" y="-139.8" font-family="Times,serif" font-size="14.00">guid</text>
</g>
<!-- direct_transfer -->
<g id="node1" class="node">
<title>direct_transfer</title>
<ellipse fill="none" stroke="black" cx="308" cy="-491" rx="61.99" ry="18"/>
<text text-anchor="middle" x="308" y="-487.3" font-family="Times,serif" font-size="14.00">direct_transfer</text>
</g>
<!-- deposit_token -->
<g id="node2" class="node">
<title>deposit_token</title>
<ellipse fill="none" stroke="black" cx="236" cy="-419" rx="59.59" ry="18"/>
<text text-anchor="middle" x="236" y="-415.3" font-family="Times,serif" font-size="14.00">deposit_token</text>
</g>
<!-- direct_transfer&#45;&gt;deposit_token -->
<g id="edge1" class="edge">
<title>direct_transfer&#45;&gt;deposit_token</title>
<path fill="none" stroke="black" d="M290.94,-473.41C281.97,-464.69 270.81,-453.85 260.9,-444.21"/>
<polygon fill="black" stroke="black" points="263.64,-441.99 254.03,-437.53 258.76,-447.01 263.64,-441.99"/>
</g>
<!-- withdraw_token -->
<g id="node3" class="node">
<title>withdraw_token</title>
<ellipse fill="none" stroke="black" cx="381" cy="-419" rx="67.69" ry="18"/>
<text text-anchor="middle" x="381" y="-415.3" font-family="Times,serif" font-size="14.00">withdraw_token</text>
</g>
<!-- direct_transfer&#45;&gt;withdraw_token -->
<g id="edge2" class="edge">
<title>direct_transfer&#45;&gt;withdraw_token</title>
<path fill="none" stroke="black" d="M325.3,-473.41C334.33,-464.76 345.54,-454 355.54,-444.42"/>
<polygon fill="black" stroke="black" points="357.68,-447.21 362.48,-437.76 352.84,-442.16 357.68,-447.21"/>
</g>
<!-- signer::address_of -->
<g id="node4" class="node">
<title>signer::address_of</title>
<ellipse fill="none" stroke="black" cx="213" cy="-106" rx="48.99" ry="18"/>
<text text-anchor="middle" x="213" y="-102.3" font-family="Times,serif" font-size="14.00">address_of</text>
</g>
<!-- deposit_token&#45;&gt;signer::address_of -->
<g id="edge3" class="edge">
<title>deposit_token&#45;&gt;signer::address_of</title>
<path fill="none" stroke="black" d="M235.67,-400.63C234.76,-359.34 231.57,-252.05 222,-163 221.03,-153.98 219.59,-144.2 218.15,-135.38"/>
<polygon fill="black" stroke="black" points="221.61,-134.85 216.48,-125.59 214.71,-136.03 221.61,-134.85"/>
</g>
<!-- direct_deposit -->
<g id="node5" class="node">
<title>direct_deposit</title>
<ellipse fill="none" stroke="black" cx="898" cy="-272" rx="60.39" ry="18"/>
<text text-anchor="middle" x="898" y="-268.3" font-family="Times,serif" font-size="14.00">direct_deposit</text>
</g>
<!-- deposit_token&#45;&gt;direct_deposit -->
<g id="edge4" class="edge">
<title>deposit_token&#45;&gt;direct_deposit</title>
<path fill="none" stroke="black" d="M280.2,-406.68C288.11,-404.73 296.29,-402.76 304,-401 457.54,-365.89 494.71,-348.52 651,-329 691.17,-323.98 794.83,-334.5 833,-321 847.61,-315.83 861.71,-306.19 873.03,-296.89"/>
<polygon fill="black" stroke="black" points="875.04,-299.78 880.32,-290.59 870.46,-294.48 875.04,-299.78"/>
</g>
<!-- initialize_token_store -->
<g id="node6" class="node">
<title>initialize_token_store</title>
<ellipse fill="none" stroke="black" cx="121" cy="-347" rx="87.18" ry="18"/>
<text text-anchor="middle" x="121" y="-343.3" font-family="Times,serif" font-size="14.00">initialize_token_store</text>
</g>
<!-- deposit_token&#45;&gt;initialize_token_store -->
<g id="edge5" class="edge">
<title>deposit_token&#45;&gt;initialize_token_store</title>
<path fill="none" stroke="black" d="M210.48,-402.46C194.99,-393.04 174.96,-380.85 157.78,-370.39"/>
<polygon fill="black" stroke="black" points="159.71,-367.46 149.35,-365.25 156.07,-373.44 159.71,-367.46"/>
</g>
<!-- withdraw_token&#45;&gt;signer::address_of -->
<g id="edge6" class="edge">
<title>withdraw_token&#45;&gt;signer::address_of</title>
<path fill="none" stroke="black" d="M371.73,-400.84C343.96,-349.44 261.32,-196.45 227.59,-134"/>
<polygon fill="black" stroke="black" points="230.79,-132.58 222.96,-125.44 224.64,-135.9 230.79,-132.58"/>
</g>
<!-- withdraw_with_event_internal -->
<g id="node7" class="node">
<title>withdraw_with_event_internal</title>
<ellipse fill="none" stroke="black" cx="778" cy="-347" rx="118.08" ry="18"/>
<text text-anchor="middle" x="778" y="-343.3" font-family="Times,serif" font-size="14.00">withdraw_with_event_internal</text>
</g>
<!-- withdraw_token&#45;&gt;withdraw_with_event_internal -->
<g id="edge7" class="edge">
<title>withdraw_token&#45;&gt;withdraw_with_event_internal</title>
<path fill="none" stroke="black" d="M436.2,-408.27C502.4,-396.59 614.13,-376.89 691.75,-363.21"/>
<polygon fill="black" stroke="black" points="692.22,-366.68 701.46,-361.5 691,-359.79 692.22,-366.68"/>
</g>
<!-- signer::borrow_address -->
<g id="node8" class="node">
<title>signer::borrow_address</title>
<ellipse fill="none" stroke="black" cx="213" cy="-34" rx="66.89" ry="18"/>
<text text-anchor="middle" x="213" y="-30.3" font-family="Times,serif" font-size="14.00">borrow_address</text>
</g>
<!-- signer::address_of&#45;&gt;signer::borrow_address -->
<g id="edge8" class="edge">
<title>signer::address_of&#45;&gt;signer::borrow_address</title>
<path fill="none" stroke="black" d="M213,-87.7C213,-80.41 213,-71.73 213,-63.54"/>
<polygon fill="black" stroke="black" points="216.5,-63.62 213,-53.62 209.5,-63.62 216.5,-63.62"/>
</g>
<!-- table::contains -->
<g id="node9" class="node">
<title>table::contains</title>
<ellipse fill="none" stroke="black" cx="1299" cy="-189" rx="40.09" ry="18"/>
<text text-anchor="middle" x="1299" y="-185.3" font-family="Times,serif" font-size="14.00">contains</text>
</g>
<!-- direct_deposit&#45;&gt;table::contains -->
<g id="edge9" class="edge">
<title>direct_deposit&#45;&gt;table::contains</title>
<path fill="none" stroke="black" d="M955.58,-266.1C1053.7,-257.67 1243.41,-241.06 1250,-238 1261.34,-232.74 1271.62,-223.72 1279.81,-214.91"/>
<polygon fill="black" stroke="black" points="1282.36,-217.31 1286.26,-207.46 1277.07,-212.72 1282.36,-217.31"/>
</g>
<!-- table::borrow_mut -->
<g id="node10" class="node">
<title>table::borrow_mut</title>
<ellipse fill="none" stroke="black" cx="1186" cy="-189" rx="54.69" ry="18"/>
<text text-anchor="middle" x="1186" y="-185.3" font-family="Times,serif" font-size="14.00">borrow_mut</text>
</g>
<!-- direct_deposit&#45;&gt;table::borrow_mut -->
<g id="edge10" class="edge">
<title>direct_deposit&#45;&gt;table::borrow_mut</title>
<path fill="none" stroke="black" d="M953.26,-264.3C1014.51,-256.65 1106.72,-244.37 1122,-238 1135.82,-232.24 1149.35,-222.82 1160.39,-213.84"/>
<polygon fill="black" stroke="black" points="1162.52,-216.62 1167.87,-207.47 1157.98,-211.29 1162.52,-216.62"/>
</g>
<!-- table::add -->
<g id="node11" class="node">
<title>table::add</title>
<ellipse fill="none" stroke="black" cx="1014" cy="-189" rx="27" ry="18"/>
<text text-anchor="middle" x="1014" y="-185.3" font-family="Times,serif" font-size="14.00">add</text>
</g>
<!-- direct_deposit&#45;&gt;table::add -->
<g id="edge11" class="edge">
<title>direct_deposit&#45;&gt;table::add</title>
<path fill="none" stroke="black" d="M936.81,-257.83C949.03,-252.68 962.15,-246.06 973,-238 981.69,-231.54 989.78,-222.92 996.44,-214.76"/>
<polygon fill="black" stroke="black" points="999.02,-217.14 1002.38,-207.09 993.49,-212.85 999.02,-217.14"/>
</g>
<!-- error::invalid_argument -->
<g id="node12" class="node">
<title>error::invalid_argument</title>
<ellipse fill="none" stroke="black" cx="889" cy="-106" rx="73.39" ry="18"/>
<text text-anchor="middle" x="889" y="-102.3" font-family="Times,serif" font-size="14.00">invalid_argument</text>
</g>
<!-- direct_deposit&#45;&gt;error::invalid_argument -->
<g id="edge12" class="edge">
<title>direct_deposit&#45;&gt;error::invalid_argument</title>
<path fill="none" stroke="black" d="M925.23,-255.47C931.17,-250.68 936.68,-244.84 940,-238 954.57,-208.02 952.03,-194.09 940,-163 935.43,-151.2 927.09,-140.35 918.46,-131.42"/>
<polygon fill="black" stroke="black" points="920.92,-128.93 911.3,-124.51 916.07,-133.97 920.92,-128.93"/>
</g>
<!-- error::not_found -->
<g id="node13" class="node">
<title>error::not_found</title>
<ellipse fill="none" stroke="black" cx="751" cy="-106" rx="46.59" ry="18"/>
<text text-anchor="middle" x="751" y="-102.3" font-family="Times,serif" font-size="14.00">not_found</text>
</g>
<!-- direct_deposit&#45;&gt;error::not_found -->
<g id="edge13" class="edge">
<title>direct_deposit&#45;&gt;error::not_found</title>
<path fill="none" stroke="black" d="M873.94,-255.35C867.53,-250.36 861,-244.45 856,-238 833.68,-209.22 848.11,-189.38 823,-163 817.52,-157.24 813.62,-159.4 807,-155 796.17,-147.81 785.12,-138.77 775.73,-130.48"/>
<polygon fill="black" stroke="black" points="778.18,-127.98 768.42,-123.86 773.48,-133.17 778.18,-127.98"/>
</g>
<!-- event::emit_event -->
<g id="node14" class="node">
<title>event::emit_event</title>
<ellipse fill="none" stroke="black" cx="526" cy="-189" rx="50.09" ry="18"/>
<text text-anchor="middle" x="526" y="-185.3" font-family="Times,serif" font-size="14.00">emit_event</text>
</g>
<!-- direct_deposit&#45;&gt;event::emit_event -->
<g id="edge14" class="edge">
<title>direct_deposit&#45;&gt;event::emit_event</title>
<path fill="none" stroke="black" d="M865.51,-256.39C855.29,-252.38 843.85,-248.46 833,-246 788.65,-235.96 775.93,-244.98 731,-238 677.35,-229.66 616.94,-214.84 575.68,-203.87"/>
<polygon fill="black" stroke="black" points="576.6,-200.49 566.04,-201.28 574.79,-207.25 576.6,-200.49"/>
</g>
<!-- merge -->
<g id="node15" class="node">
<title>merge</title>
<ellipse fill="none" stroke="black" cx="898" cy="-189" rx="33.29" ry="18"/>
<text text-anchor="middle" x="898" y="-185.3" font-family="Times,serif" font-size="14.00">merge</text>
</g>
<!-- direct_deposit&#45;&gt;merge -->
<g id="edge15" class="edge">
<title>direct_deposit&#45;&gt;merge</title>
<path fill="none" stroke="black" d="M898,-253.82C898,-243.69 898,-230.6 898,-218.92"/>
<polygon fill="black" stroke="black" points="901.5,-218.95 898,-208.95 894.5,-218.95 901.5,-218.95"/>
</g>
<!-- initialize_token_store&#45;&gt;signer::address_of -->
<g id="edge17" class="edge">
<title>initialize_token_store&#45;&gt;signer::address_of</title>
<path fill="none" stroke="black" d="M169.97,-331.7C174.54,-328.77 178.69,-325.24 182,-321 224.34,-266.77 221.94,-180.51 217.17,-135.87"/>
<polygon fill="black" stroke="black" points="220.64,-135.46 215.97,-125.95 213.69,-136.3 220.64,-135.46"/>
</g>
<!-- table::new -->
<g id="node16" class="node">
<title>table::new</title>
<ellipse fill="none" stroke="black" cx="1086" cy="-189" rx="27" ry="18"/>
<text text-anchor="middle" x="1086" y="-185.3" font-family="Times,serif" font-size="14.00">new</text>
</g>
<!-- initialize_token_store&#45;&gt;table::new -->
<g id="edge16" class="edge">
<title>initialize_token_store&#45;&gt;table::new</title>
<path fill="none" stroke="black" d="M206.36,-343.08C311.1,-339.55 494.1,-333.5 651,-329 668.55,-328.5 950.86,-327.93 967,-321 1014.94,-300.43 1015.82,-277.41 1050,-238 1056.33,-230.7 1062.81,-222.38 1068.49,-214.74"/>
<polygon fill="black" stroke="black" points="1071.23,-216.93 1074.29,-206.79 1065.57,-212.8 1071.23,-216.93"/>
</g>
<!-- account::new_event_handle -->
<g id="node17" class="node">
<title>account::new_event_handle</title>
<ellipse fill="none" stroke="black" cx="93" cy="-272" rx="76.89" ry="18"/>
<text text-anchor="middle" x="93" y="-268.3" font-family="Times,serif" font-size="14.00">new_event_handle</text>
</g>
<!-- initialize_token_store&#45;&gt;account::new_event_handle -->
<g id="edge18" class="edge">
<title>initialize_token_store&#45;&gt;account::new_event_handle</title>
<path fill="none" stroke="black" d="M114.36,-328.7C111.18,-320.4 107.28,-310.24 103.7,-300.88"/>
<polygon fill="black" stroke="black" points="107.08,-299.93 100.23,-291.84 100.54,-302.43 107.08,-299.93"/>
</g>
<!-- withdraw_with_event_internal&#45;&gt;table::contains -->
<g id="edge19" class="edge">
<title>withdraw_with_event_internal&#45;&gt;table::contains</title>
<path fill="none" stroke="black" d="M893.23,-342.82C972.38,-339.59 1069.96,-333.24 1109,-321 1178.39,-299.25 1192.27,-282.21 1250,-238 1259.26,-230.91 1268.61,-222.21 1276.62,-214.18"/>
<polygon fill="black" stroke="black" points="1278.92,-216.84 1283.38,-207.23 1273.9,-211.97 1278.92,-216.84"/>
</g>
<!-- withdraw_with_event_internal&#45;&gt;table::borrow_mut -->
<g id="edge20" class="edge">
<title>withdraw_with_event_internal&#45;&gt;table::borrow_mut</title>
<path fill="none" stroke="black" d="M893.66,-342.95C954.67,-339.85 1022.46,-333.6 1050,-321 1101.06,-297.63 1144.67,-246.89 1167.95,-215.87"/>
<polygon fill="black" stroke="black" points="1170.52,-218.28 1173.61,-208.15 1164.88,-214.14 1170.52,-218.28"/>
</g>
<!-- withdraw_with_event_internal&#45;&gt;error::invalid_argument -->
<g id="edge22" class="edge">
<title>withdraw_with_event_internal&#45;&gt;error::invalid_argument</title>
<path fill="none" stroke="black" d="M739.44,-329.65C736.53,-327.14 733.97,-324.27 732,-321 713.87,-290.93 707.51,-189.1 731,-163 742.36,-150.38 790.87,-160.3 807,-155 824.7,-149.19 842.74,-139.16 857.38,-129.77"/>
<polygon fill="black" stroke="black" points="859.27,-132.72 865.66,-124.27 855.4,-126.89 859.27,-132.72"/>
</g>
<!-- withdraw_with_event_internal&#45;&gt;error::not_found -->
<g id="edge23" class="edge">
<title>withdraw_with_event_internal&#45;&gt;error::not_found</title>
<path fill="none" stroke="black" d="M713.77,-331.46C709.65,-328.57 705.97,-325.12 703,-321 661.94,-264.03 678.64,-228.86 703,-163 707.44,-150.99 715.74,-139.81 724.21,-130.65"/>
<polygon fill="black" stroke="black" points="726.64,-133.17 731.19,-123.61 721.66,-128.25 726.64,-133.17"/>
</g>
<!-- withdraw_with_event_internal&#45;&gt;event::emit_event -->
<g id="edge24" class="edge">
<title>withdraw_with_event_internal&#45;&gt;event::emit_event</title>
<path fill="none" stroke="black" d="M696.77,-333.61C685.75,-330.35 674.86,-326.22 665,-321 615.07,-294.57 570.03,-245.3 545.49,-215.29"/>
<polygon fill="black" stroke="black" points="548.49,-213.43 539.5,-207.83 543.03,-217.82 548.49,-213.43"/>
</g>
<!-- table::remove -->
<g id="node18" class="node">
<title>table::remove</title>
<ellipse fill="none" stroke="black" cx="1661" cy="-189" rx="37.89" ry="18"/>
<text text-anchor="middle" x="1661" y="-185.3" font-family="Times,serif" font-size="14.00">remove</text>
</g>
<!-- withdraw_with_event_internal&#45;&gt;table::remove -->
<g id="edge21" class="edge">
<title>withdraw_with_event_internal&#45;&gt;table::remove</title>
<path fill="none" stroke="black" d="M896.24,-345.93C1039.6,-344.97 1272.53,-340.33 1357,-321 1460.68,-297.27 1573.33,-239.38 1627.8,-209.13"/>
<polygon fill="black" stroke="black" points="1629.26,-212.33 1636.27,-204.38 1625.83,-206.22 1629.26,-212.33"/>
</g>
<!-- property_map::empty -->
<g id="node19" class="node">
<title>property_map::empty</title>
<ellipse fill="none" stroke="black" cx="778" cy="-272" rx="33.29" ry="18"/>
<text text-anchor="middle" x="778" y="-268.3" font-family="Times,serif" font-size="14.00">empty</text>
</g>
<!-- withdraw_with_event_internal&#45;&gt;property_map::empty -->
<g id="edge25" class="edge">
<title>withdraw_with_event_internal&#45;&gt;property_map::empty</title>
<path fill="none" stroke="black" d="M778,-328.7C778,-320.67 778,-310.9 778,-301.8"/>
<polygon fill="black" stroke="black" points="781.5,-301.94 778,-291.94 774.5,-301.94 781.5,-301.94"/>
</g>
<!-- balance_of -->
<g id="node20" class="node">
<title>balance_of</title>
<ellipse fill="none" stroke="black" cx="1299" cy="-272" rx="49.29" ry="18"/>
<text text-anchor="middle" x="1299" y="-268.3" font-family="Times,serif" font-size="14.00">balance_of</text>
</g>
<!-- withdraw_with_event_internal&#45;&gt;balance_of -->
<g id="edge26" class="edge">
<title>withdraw_with_event_internal&#45;&gt;balance_of</title>
<path fill="none" stroke="black" d="M895.59,-344.83C1002.61,-342.73 1152.27,-336.94 1209,-321 1229.47,-315.25 1250.54,-304.33 1267.14,-294.36"/>
<polygon fill="black" stroke="black" points="1268.92,-297.38 1275.57,-289.13 1265.23,-291.43 1268.92,-297.38"/>
</g>
<!-- table::contains_box -->
<g id="node21" class="node">
<title>table::contains_box</title>
<ellipse fill="none" stroke="black" cx="1474" cy="-106" rx="57.69" ry="18"/>
<text text-anchor="middle" x="1474" y="-102.3" font-family="Times,serif" font-size="14.00">contains_box</text>
</g>
<!-- table::contains&#45;&gt;table::contains_box -->
<g id="edge27" class="edge">
<title>table::contains&#45;&gt;table::contains_box</title>
<path fill="none" stroke="black" d="M1334.63,-180.22C1356.24,-174.76 1383.98,-166.38 1407,-155 1420.53,-148.31 1434.28,-138.99 1445.78,-130.33"/>
<polygon fill="black" stroke="black" points="1447.9,-133.12 1453.66,-124.22 1443.61,-127.59 1447.9,-133.12"/>
</g>
<!-- table::borrow_box_mut -->
<g id="node22" class="node">
<title>table::borrow_box_mut</title>
<ellipse fill="none" stroke="black" cx="1326" cy="-106" rx="72.29" ry="18"/>
<text text-anchor="middle" x="1326" y="-102.3" font-family="Times,serif" font-size="14.00">borrow_box_mut</text>
</g>
<!-- table::borrow_mut&#45;&gt;table::borrow_box_mut -->
<g id="edge28" class="edge">
<title>table::borrow_mut&#45;&gt;table::borrow_box_mut</title>
<path fill="none" stroke="black" d="M1213.1,-173.03C1223.15,-167.43 1234.63,-160.97 1245,-155 1259.59,-146.6 1275.55,-137.19 1289.42,-128.94"/>
<polygon fill="black" stroke="black" points="1291,-132.07 1297.8,-123.94 1287.42,-126.06 1291,-132.07"/>
</g>
<!-- table::add_box -->
<g id="node23" class="node">
<title>table::add_box</title>
<ellipse fill="none" stroke="black" cx="1027" cy="-106" rx="40.89" ry="18"/>
<text text-anchor="middle" x="1027" y="-102.3" font-family="Times,serif" font-size="14.00">add_box</text>
</g>
<!-- table::add&#45;&gt;table::add_box -->
<g id="edge29" class="edge">
<title>table::add&#45;&gt;table::add_box</title>
<path fill="none" stroke="black" d="M1016.76,-170.82C1018.4,-160.58 1020.53,-147.33 1022.42,-135.55"/>
<polygon fill="black" stroke="black" points="1025.83,-136.36 1023.96,-125.93 1018.92,-135.25 1025.83,-136.36"/>
</g>
<!-- error::canonical -->
<g id="node24" class="node">
<title>error::canonical</title>
<ellipse fill="none" stroke="black" cx="820" cy="-34" rx="44.39" ry="18"/>
<text text-anchor="middle" x="820" y="-30.3" font-family="Times,serif" font-size="14.00">canonical</text>
</g>
<!-- error::invalid_argument&#45;&gt;error::canonical -->
<g id="edge30" class="edge">
<title>error::invalid_argument&#45;&gt;error::canonical</title>
<path fill="none" stroke="black" d="M872.3,-88.05C863.66,-79.29 852.97,-68.45 843.52,-58.86"/>
<polygon fill="black" stroke="black" points="846.18,-56.57 836.67,-51.91 841.19,-61.49 846.18,-56.57"/>
</g>
<!-- error::not_found&#45;&gt;error::canonical -->
<g id="edge31" class="edge">
<title>error::not_found&#45;&gt;error::canonical</title>
<path fill="none" stroke="black" d="M767,-88.76C775.63,-80.02 786.43,-69.05 796.04,-59.31"/>
<polygon fill="black" stroke="black" points="798.49,-61.8 803.02,-52.23 793.51,-56.89 798.49,-61.8"/>
</g>
<!-- bcs::to_bytes -->
<g id="node25" class="node">
<title>bcs::to_bytes</title>
<ellipse fill="none" stroke="black" cx="640" cy="-106" rx="40.09" ry="18"/>
<text text-anchor="middle" x="640" y="-102.3" font-family="Times,serif" font-size="14.00">to_bytes</text>
</g>
<!-- event::emit_event&#45;&gt;bcs::to_bytes -->
<g id="edge32" class="edge">
<title>event::emit_event&#45;&gt;bcs::to_bytes</title>
<path fill="none" stroke="black" d="M555.62,-174.2C566.19,-168.77 577.96,-162.13 588,-155 598.07,-147.85 608.25,-138.92 616.9,-130.7"/>
<polygon fill="black" stroke="black" points="619.18,-133.37 623.89,-123.88 614.29,-128.36 619.18,-133.37"/>
</g>
<!-- event::write_to_event_store -->
<g id="node26" class="node">
<title>event::write_to_event_store</title>
<ellipse fill="none" stroke="black" cx="491" cy="-106" rx="85.29" ry="18"/>
<text text-anchor="middle" x="491" y="-102.3" font-family="Times,serif" font-size="14.00">write_to_event_store</text>
</g>
<!-- event::emit_event&#45;&gt;event::write_to_event_store -->
<g id="edge33" class="edge">
<title>event::emit_event&#45;&gt;event::write_to_event_store</title>
<path fill="none" stroke="black" d="M518.58,-170.82C514.03,-160.3 508.11,-146.59 502.91,-134.57"/>
<polygon fill="black" stroke="black" points="506.19,-133.33 499.01,-125.54 499.77,-136.11 506.19,-133.33"/>
</g>
<!-- merge&#45;&gt;error::invalid_argument -->
<g id="edge34" class="edge">
<title>merge&#45;&gt;error::invalid_argument</title>
<path fill="none" stroke="black" d="M896.09,-170.82C894.95,-160.58 893.48,-147.33 892.17,-135.55"/>
<polygon fill="black" stroke="black" points="895.69,-135.49 891.1,-125.94 888.73,-136.26 895.69,-135.49"/>
</g>
<!-- table::new_table_handle -->
<g id="node27" class="node">
<title>table::new_table_handle</title>
<ellipse fill="none" stroke="black" cx="1161" cy="-106" rx="74.99" ry="18"/>
<text text-anchor="middle" x="1161" y="-102.3" font-family="Times,serif" font-size="14.00">new_table_handle</text>
</g>
<!-- table::new&#45;&gt;table::new_table_handle -->
<g id="edge35" class="edge">
<title>table::new&#45;&gt;table::new_table_handle</title>
<path fill="none" stroke="black" d="M1099.76,-173.14C1110.3,-161.75 1125.1,-145.77 1137.51,-132.37"/>
<polygon fill="black" stroke="black" points="1140,-134.83 1144.23,-125.12 1134.86,-130.08 1140,-134.83"/>
</g>
<!-- event::new_event_handle -->
<g id="node28" class="node">
<title>event::new_event_handle</title>
<ellipse fill="none" stroke="black" cx="381" cy="-189" rx="76.89" ry="18"/>
<text text-anchor="middle" x="381" y="-185.3" font-family="Times,serif" font-size="14.00">new_event_handle</text>
</g>
<!-- account::new_event_handle&#45;&gt;event::new_event_handle -->
<g id="edge36" class="edge">
<title>account::new_event_handle&#45;&gt;event::new_event_handle</title>
<path fill="none" stroke="black" d="M140.88,-257.53C190.61,-243.55 268.48,-221.65 321.98,-206.6"/>
<polygon fill="black" stroke="black" points="322.87,-209.99 331.55,-203.91 320.97,-203.25 322.87,-209.99"/>
</g>
<!-- account::create_guid -->
<g id="node29" class="node">
<title>account::create_guid</title>
<ellipse fill="none" stroke="black" cx="93" cy="-189" rx="51.99" ry="18"/>
<text text-anchor="middle" x="93" y="-185.3" font-family="Times,serif" font-size="14.00">create_guid</text>
</g>
<!-- account::new_event_handle&#45;&gt;account::create_guid -->
<g id="edge37" class="edge">
<title>account::new_event_handle&#45;&gt;account::create_guid</title>
<path fill="none" stroke="black" d="M93,-253.82C93,-243.69 93,-230.6 93,-218.92"/>
<polygon fill="black" stroke="black" points="96.5,-218.95 93,-208.95 89.5,-218.95 96.5,-218.95"/>
</g>
<!-- table::remove_box -->
<g id="node30" class="node">
<title>table::remove_box</title>
<ellipse fill="none" stroke="black" cx="1731" cy="-106" rx="55.49" ry="18"/>
<text text-anchor="middle" x="1731" y="-102.3" font-family="Times,serif" font-size="14.00">remove_box</text>
</g>
<!-- table::remove&#45;&gt;table::remove_box -->
<g id="edge38" class="edge">
<title>table::remove&#45;&gt;table::remove_box</title>
<path fill="none" stroke="black" d="M1674.83,-172C1684.61,-160.68 1697.91,-145.29 1709.12,-132.32"/>
<polygon fill="black" stroke="black" points="1711.6,-134.81 1715.49,-124.95 1706.3,-130.23 1711.6,-134.81"/>
</g>
<!-- simple_map::create -->
<g id="node31" class="node">
<title>simple_map::create</title>
<ellipse fill="none" stroke="black" cx="777" cy="-189" rx="31.7" ry="18"/>
<text text-anchor="middle" x="777" y="-185.3" font-family="Times,serif" font-size="14.00">create</text>
</g>
<!-- property_map::empty&#45;&gt;simple_map::create -->
<g id="edge39" class="edge">
<title>property_map::empty&#45;&gt;simple_map::create</title>
<path fill="none" stroke="black" d="M777.79,-253.82C777.66,-243.69 777.5,-230.6 777.36,-218.92"/>
<polygon fill="black" stroke="black" points="780.86,-218.9 777.23,-208.95 773.86,-218.99 780.86,-218.9"/>
</g>
<!-- balance_of&#45;&gt;table::contains -->
<g id="edge40" class="edge">
<title>balance_of&#45;&gt;table::contains</title>
<path fill="none" stroke="black" d="M1299,-253.82C1299,-243.69 1299,-230.6 1299,-218.92"/>
<polygon fill="black" stroke="black" points="1302.5,-218.95 1299,-208.95 1295.5,-218.95 1302.5,-218.95"/>
</g>
<!-- table::borrow -->
<g id="node32" class="node">
<title>table::borrow</title>
<ellipse fill="none" stroke="black" cx="1499" cy="-189" rx="36.29" ry="18"/>
<text text-anchor="middle" x="1499" y="-185.3" font-family="Times,serif" font-size="14.00">borrow</text>
</g>
<!-- balance_of&#45;&gt;table::borrow -->
<g id="edge41" class="edge">
<title>balance_of&#45;&gt;table::borrow</title>
<path fill="none" stroke="black" d="M1331.13,-257.99C1366.51,-243.66 1423.34,-220.64 1460.92,-205.42"/>
<polygon fill="black" stroke="black" points="1462.1,-208.72 1470.05,-201.72 1459.47,-202.23 1462.1,-208.72"/>
</g>
<!-- account::create_guid&#45;&gt;signer::address_of -->
<g id="edge42" class="edge">
<title>account::create_guid&#45;&gt;signer::address_of</title>
<path fill="none" stroke="black" d="M115.85,-172.57C134.29,-160.13 160.43,-142.48 180.96,-128.63"/>
<polygon fill="black" stroke="black" points="182.65,-131.71 188.98,-123.22 178.73,-125.91 182.65,-131.71"/>
</g>
<!-- guid::create -->
<g id="node33" class="node">
<title>guid::create</title>
<ellipse fill="none" stroke="black" cx="90" cy="-106" rx="31.7" ry="18"/>
<text text-anchor="middle" x="90" y="-102.3" font-family="Times,serif" font-size="14.00">create</text>
</g>
<!-- account::create_guid&#45;&gt;guid::create -->
<g id="edge43" class="edge">
<title>account::create_guid&#45;&gt;guid::create</title>
<path fill="none" stroke="black" d="M92.36,-170.82C91.99,-160.69 91.5,-147.6 91.07,-135.92"/>
<polygon fill="black" stroke="black" points="94.57,-135.81 90.7,-125.95 87.57,-136.07 94.57,-135.81"/>
</g>
<!-- table::borrow_box -->
<g id="node34" class="node">
<title>table::borrow_box</title>
<ellipse fill="none" stroke="black" cx="1604" cy="-106" rx="53.89" ry="18"/>
<text text-anchor="middle" x="1604" y="-102.3" font-family="Times,serif" font-size="14.00">borrow_box</text>
</g>
<!-- table::borrow&#45;&gt;table::borrow_box -->
<g id="edge44" class="edge">
<title>table::borrow&#45;&gt;table::borrow_box</title>
<path fill="none" stroke="black" d="M1517.77,-173.52C1533.44,-161.43 1556.07,-143.97 1574.21,-129.98"/>
<polygon fill="black" stroke="black" points="1576.25,-132.82 1582.03,-123.95 1571.98,-127.28 1576.25,-132.82"/>
</g>
</g>
</svg>
