<?xml version="1.0" encoding="UTF-8" standalone="no"?>
<!DOCTYPE svg PUBLIC "-//W3C//DTD SVG 1.1//EN"
 "http://www.w3.org/Graphics/SVG/1.1/DTD/svg11.dtd">
<!-- Generated by graphviz version 7.0.0 (20221023.0053)
 -->
<!-- Title: G Pages: 1 -->
<svg width="1818pt" height="617pt"
 viewBox="0.00 0.00 1817.95 617.00" xmlns="http://www.w3.org/2000/svg" xmlns:xlink="http://www.w3.org/1999/xlink">
<g id="graph0" class="graph" transform="scale(1 1) rotate(0) translate(4 613)">
<title>G</title>
<polygon fill="white" stroke="none" points="-4,4 -4,-613 1813.95,-613 1813.95,4 -4,4"/>
<g id="clust1" class="cluster">
<title>cluster_table</title>
<polygon fill="none" stroke="black" points="8,-340 8,-490 302,-490 302,-340 8,-340"/>
<text text-anchor="middle" x="155" y="-474.8" font-family="Times,serif" font-size="14.00">table</text>
</g>
<g id="clust2" class="cluster">
<title>cluster_error</title>
<polygon fill="none" stroke="black" points="343,-174 343,-332 1060,-332 1060,-174 343,-174"/>
<text text-anchor="middle" x="701.5" y="-316.8" font-family="Times,serif" font-size="14.00">error</text>
</g>
<g id="clust3" class="cluster">
<title>cluster_property_map</title>
<polygon fill="none" stroke="black" points="722,-340 722,-565 1014,-565 1014,-340 722,-340"/>
<text text-anchor="middle" x="868" y="-549.8" font-family="Times,serif" font-size="14.00">property_map</text>
</g>
<g id="clust4" class="cluster">
<title>cluster_signer</title>
<polygon fill="none" stroke="black" points="310,-340 310,-490 460,-490 460,-340 310,-340"/>
<text text-anchor="middle" x="385" y="-474.8" font-family="Times,serif" font-size="14.00">signer</text>
</g>
<g id="clust5" class="cluster">
<title>cluster_string</title>
<polygon fill="none" stroke="black" points="1022,-340 1022,-415 1102,-415 1102,-340 1022,-340"/>
<text text-anchor="middle" x="1062" y="-399.8" font-family="Times,serif" font-size="14.00">string</text>
</g>
<g id="clust6" class="cluster">
<title>cluster_simple_map</title>
<polygon fill="none" stroke="black" points="1110,-257 1110,-415 1522,-415 1522,-257 1110,-257"/>
<text text-anchor="middle" x="1316" y="-399.8" font-family="Times,serif" font-size="14.00">simple_map</text>
</g>
<g id="clust7" class="cluster">
<title>cluster_option</title>
<polygon fill="none" stroke="black" points="1432,-91 1432,-249 1763,-249 1763,-91 1432,-91"/>
<text text-anchor="middle" x="1597.5" y="-233.8" font-family="Times,serif" font-size="14.00">option</text>
</g>
<g id="clust8" class="cluster">
<title>cluster_vector</title>
<polygon fill="none" stroke="black" points="1493,-8 1493,-83 1700,-83 1700,-8 1493,-8"/>
<text text-anchor="middle" x="1596.5" y="-67.8" font-family="Times,serif" font-size="14.00">vector</text>
</g>
<g id="clust9" class="cluster">
<title>cluster_comparator</title>
<polygon fill="none" stroke="black" points="1068,-91 1068,-249 1320,-249 1320,-91 1068,-91"/>
<text text-anchor="middle" x="1194" y="-233.8" font-family="Times,serif" font-size="14.00">comparator</text>
</g>
<g id="clust10" class="cluster">
<title>cluster_bcs</title>
<polygon fill="none" stroke="black" points="1328,-91 1328,-166 1424,-166 1424,-91 1328,-91"/>
<text text-anchor="middle" x="1376" y="-150.8" font-family="Times,serif" font-size="14.00">bcs</text>
</g>
<!-- mutate_tokendata_property -->
<g id="node1" class="node">
<title>mutate_tokendata_property</title>
<ellipse fill="none" stroke="black" cx="495" cy="-591" rx="107.78" ry="18"/>
<text text-anchor="middle" x="495" y="-587.3" font-family="Times,serif" font-size="14.00">mutate_tokendata_property</text>
</g>
<!-- table::borrow_mut -->
<g id="node2" class="node">
<title>table::borrow_mut</title>
<ellipse fill="none" stroke="black" cx="115" cy="-441" rx="54.69" ry="18"/>
<text text-anchor="middle" x="115" y="-437.3" font-family="Times,serif" font-size="14.00">borrow_mut</text>
</g>
<!-- mutate_tokendata_property&#45;&gt;table::borrow_mut -->
<g id="edge1" class="edge">
<title>mutate_tokendata_property&#45;&gt;table::borrow_mut</title>
<path fill="none" stroke="black" d="M401.67,-581.63C378.21,-577.94 353.35,-572.63 331,-565 266.05,-542.81 255.53,-524.17 196,-490 180.94,-481.36 164.43,-471.62 150.27,-463.19"/>
<polygon fill="black" stroke="black" points="152.11,-460.21 141.73,-458.09 148.52,-466.22 152.11,-460.21"/>
</g>
<!-- error::permission_denied -->
<g id="node3" class="node">
<title>error::permission_denied</title>
<ellipse fill="none" stroke="black" cx="428" cy="-283" rx="77.19" ry="18"/>
<text text-anchor="middle" x="428" y="-279.3" font-family="Times,serif" font-size="14.00">permission_denied</text>
</g>
<!-- mutate_tokendata_property&#45;&gt;error::permission_denied -->
<g id="edge2" class="edge">
<title>mutate_tokendata_property&#45;&gt;error::permission_denied</title>
<path fill="none" stroke="black" d="M529.91,-573.64C532.7,-571.11 535.15,-568.25 537,-565 551.72,-539.11 541.55,-527.43 537,-498 525.76,-425.21 526.06,-402.44 487,-340 479.59,-328.15 469.08,-317.09 458.99,-307.98"/>
<polygon fill="black" stroke="black" points="461.32,-305.37 451.46,-301.49 456.75,-310.67 461.32,-305.37"/>
</g>
<!-- property_map::update_property_map -->
<g id="node4" class="node">
<title>property_map::update_property_map</title>
<ellipse fill="none" stroke="black" cx="818" cy="-516" rx="88.28" ry="18"/>
<text text-anchor="middle" x="818" y="-512.3" font-family="Times,serif" font-size="14.00">update_property_map</text>
</g>
<!-- mutate_tokendata_property&#45;&gt;property_map::update_property_map -->
<g id="edge3" class="edge">
<title>mutate_tokendata_property&#45;&gt;property_map::update_property_map</title>
<path fill="none" stroke="black" d="M557.28,-575.92C612.27,-563.5 692.33,-545.4 749.2,-532.55"/>
<polygon fill="black" stroke="black" points="749.8,-536 758.78,-530.38 748.25,-529.18 749.8,-536"/>
</g>
<!-- assert_tokendata_exists -->
<g id="node5" class="node">
<title>assert_tokendata_exists</title>
<ellipse fill="none" stroke="black" cx="434" cy="-516" rx="93.68" ry="18"/>
<text text-anchor="middle" x="434" y="-512.3" font-family="Times,serif" font-size="14.00">assert_tokendata_exists</text>
</g>
<!-- mutate_tokendata_property&#45;&gt;assert_tokendata_exists -->
<g id="edge4" class="edge">
<title>mutate_tokendata_property&#45;&gt;assert_tokendata_exists</title>
<path fill="none" stroke="black" d="M480.54,-572.7C473.1,-563.79 463.87,-552.75 455.6,-542.85"/>
<polygon fill="black" stroke="black" points="458.42,-540.77 449.32,-535.34 453.05,-545.26 458.42,-540.77"/>
</g>
<!-- table::borrow_box_mut -->
<g id="node6" class="node">
<title>table::borrow_box_mut</title>
<ellipse fill="none" stroke="black" cx="88" cy="-366" rx="72.29" ry="18"/>
<text text-anchor="middle" x="88" y="-362.3" font-family="Times,serif" font-size="14.00">borrow_box_mut</text>
</g>
<!-- table::borrow_mut&#45;&gt;table::borrow_box_mut -->
<g id="edge5" class="edge">
<title>table::borrow_mut&#45;&gt;table::borrow_box_mut</title>
<path fill="none" stroke="black" d="M108.6,-422.7C105.51,-414.34 101.72,-404.09 98.24,-394.68"/>
<polygon fill="black" stroke="black" points="101.63,-393.76 94.88,-385.6 95.06,-396.19 101.63,-393.76"/>
</g>
<!-- error::canonical -->
<g id="node7" class="node">
<title>error::canonical</title>
<ellipse fill="none" stroke="black" cx="691" cy="-200" rx="44.39" ry="18"/>
<text text-anchor="middle" x="691" y="-196.3" font-family="Times,serif" font-size="14.00">canonical</text>
</g>
<!-- error::permission_denied&#45;&gt;error::canonical -->
<g id="edge6" class="edge">
<title>error::permission_denied&#45;&gt;error::canonical</title>
<path fill="none" stroke="black" d="M473.21,-268.08C521.44,-253.22 597.41,-229.82 645.68,-214.96"/>
<polygon fill="black" stroke="black" points="646.46,-218.38 654.99,-212.09 644.4,-211.69 646.46,-218.38"/>
</g>
<!-- error::invalid_state -->
<g id="node8" class="node">
<title>error::invalid_state</title>
<ellipse fill="none" stroke="black" cx="691" cy="-283" rx="55.79" ry="18"/>
<text text-anchor="middle" x="691" y="-279.3" font-family="Times,serif" font-size="14.00">invalid_state</text>
</g>
<!-- property_map::update_property_map&#45;&gt;error::invalid_state -->
<g id="edge7" class="edge">
<title>property_map::update_property_map&#45;&gt;error::invalid_state</title>
<path fill="none" stroke="black" d="M745.74,-505.3C737.55,-501.6 730,-496.64 724,-490 679.49,-440.75 681.8,-356.44 686.7,-312.51"/>
<polygon fill="black" stroke="black" points="690.15,-313.11 687.93,-302.75 683.21,-312.24 690.15,-313.11"/>
</g>
<!-- property_map::add -->
<g id="node9" class="node">
<title>property_map::add</title>
<ellipse fill="none" stroke="black" cx="979" cy="-441" rx="27" ry="18"/>
<text text-anchor="middle" x="979" y="-437.3" font-family="Times,serif" font-size="14.00">add</text>
</g>
<!-- property_map::update_property_map&#45;&gt;property_map::add -->
<g id="edge8" class="edge">
<title>property_map::update_property_map&#45;&gt;property_map::add</title>
<path fill="none" stroke="black" d="M898.01,-507.99C913.73,-504.19 929.52,-498.5 943,-490 951.74,-484.49 959.11,-476.05 964.86,-467.77"/>
<polygon fill="black" stroke="black" points="967.65,-469.91 970.05,-459.59 961.74,-466.16 967.65,-469.91"/>
</g>
<!-- property_map::contains_key -->
<g id="node10" class="node">
<title>property_map::contains_key</title>
<ellipse fill="none" stroke="black" cx="949" cy="-366" rx="57.39" ry="18"/>
<text text-anchor="middle" x="949" y="-362.3" font-family="Times,serif" font-size="14.00">contains_key</text>
</g>
<!-- property_map::update_property_map&#45;&gt;property_map::contains_key -->
<g id="edge9" class="edge">
<title>property_map::update_property_map&#45;&gt;property_map::contains_key</title>
<path fill="none" stroke="black" d="M755.6,-502.9C749.94,-499.57 744.88,-495.34 741,-490 723.49,-465.91 722.89,-446.64 741,-423 758.6,-400.03 830.92,-384.37 885.38,-375.57"/>
<polygon fill="black" stroke="black" points="885.87,-379.04 895.21,-374.03 884.79,-372.12 885.87,-379.04"/>
</g>
<!-- property_map::update_property_value -->
<g id="node11" class="node">
<title>property_map::update_property_value</title>
<ellipse fill="none" stroke="black" cx="842" cy="-441" rx="91.78" ry="18"/>
<text text-anchor="middle" x="842" y="-437.3" font-family="Times,serif" font-size="14.00">update_property_value</text>
</g>
<!-- property_map::update_property_map&#45;&gt;property_map::update_property_value -->
<g id="edge10" class="edge">
<title>property_map::update_property_map&#45;&gt;property_map::update_property_value</title>
<path fill="none" stroke="black" d="M823.69,-497.7C826.39,-489.49 829.68,-479.46 832.73,-470.19"/>
<polygon fill="black" stroke="black" points="836,-471.46 835.8,-460.87 829.35,-469.27 836,-471.46"/>
</g>
<!-- assert_tokendata_exists&#45;&gt;error::permission_denied -->
<g id="edge14" class="edge">
<title>assert_tokendata_exists&#45;&gt;error::permission_denied</title>
<path fill="none" stroke="black" d="M458.5,-498.14C460.7,-495.67 462.62,-492.95 464,-490 492.28,-429.63 482.79,-403.96 464,-340 460.89,-329.41 455.09,-318.93 449.05,-309.96"/>
<polygon fill="black" stroke="black" points="452.07,-308.16 443.39,-302.1 446.39,-312.26 452.07,-308.16"/>
</g>
<!-- table::contains -->
<g id="node12" class="node">
<title>table::contains</title>
<ellipse fill="none" stroke="black" cx="245" cy="-441" rx="40.09" ry="18"/>
<text text-anchor="middle" x="245" y="-437.3" font-family="Times,serif" font-size="14.00">contains</text>
</g>
<!-- assert_tokendata_exists&#45;&gt;table::contains -->
<g id="edge11" class="edge">
<title>assert_tokendata_exists&#45;&gt;table::contains</title>
<path fill="none" stroke="black" d="M355.67,-505.79C338.82,-502.15 321.44,-497.08 306,-490 292.74,-483.92 279.78,-474.4 269.24,-465.43"/>
<polygon fill="black" stroke="black" points="271.59,-462.83 261.79,-458.8 266.93,-468.06 271.59,-462.83"/>
</g>
<!-- signer::address_of -->
<g id="node13" class="node">
<title>signer::address_of</title>
<ellipse fill="none" stroke="black" cx="394" cy="-441" rx="48.99" ry="18"/>
<text text-anchor="middle" x="394" y="-437.3" font-family="Times,serif" font-size="14.00">address_of</text>
</g>
<!-- assert_tokendata_exists&#45;&gt;signer::address_of -->
<g id="edge12" class="edge">
<title>assert_tokendata_exists&#45;&gt;signer::address_of</title>
<path fill="none" stroke="black" d="M424.52,-497.7C419.8,-489.09 414,-478.49 408.72,-468.86"/>
<polygon fill="black" stroke="black" points="411.88,-467.34 404,-460.25 405.74,-470.7 411.88,-467.34"/>
</g>
<!-- error::not_found -->
<g id="node14" class="node">
<title>error::not_found</title>
<ellipse fill="none" stroke="black" cx="570" cy="-283" rx="46.59" ry="18"/>
<text text-anchor="middle" x="570" y="-279.3" font-family="Times,serif" font-size="14.00">not_found</text>
</g>
<!-- assert_tokendata_exists&#45;&gt;error::not_found -->
<g id="edge13" class="edge">
<title>assert_tokendata_exists&#45;&gt;error::not_found</title>
<path fill="none" stroke="black" d="M475.21,-499.51C479.52,-496.78 483.58,-493.63 487,-490 535.38,-438.74 556.99,-355.64 565.39,-312.31"/>
<polygon fill="black" stroke="black" points="568.79,-313.16 567.15,-302.7 561.91,-311.91 568.79,-313.16"/>
</g>
<!-- error::invalid_state&#45;&gt;error::canonical -->
<g id="edge15" class="edge">
<title>error::invalid_state&#45;&gt;error::canonical</title>
<path fill="none" stroke="black" d="M691,-264.82C691,-254.69 691,-241.6 691,-229.92"/>
<polygon fill="black" stroke="black" points="694.5,-229.95 691,-219.95 687.5,-229.95 694.5,-229.95"/>
</g>
<!-- property_map::add&#45;&gt;error::invalid_state -->
<g id="edge19" class="edge">
<title>property_map::add&#45;&gt;error::invalid_state</title>
<path fill="none" stroke="black" d="M958.56,-428.74C953.6,-426.47 948.22,-424.36 943,-423 917.56,-416.38 848.99,-425.74 825,-415 774.14,-392.23 731.35,-341.29 708.6,-310.06"/>
<polygon fill="black" stroke="black" points="711.72,-308.41 703.08,-302.29 706.02,-312.47 711.72,-308.41"/>
</g>
<!-- string::length -->
<g id="node15" class="node">
<title>string::length</title>
<ellipse fill="none" stroke="black" cx="1062" cy="-366" rx="32.49" ry="18"/>
<text text-anchor="middle" x="1062" y="-362.3" font-family="Times,serif" font-size="14.00">length</text>
</g>
<!-- property_map::add&#45;&gt;string::length -->
<g id="edge16" class="edge">
<title>property_map::add&#45;&gt;string::length</title>
<path fill="none" stroke="black" d="M999.14,-428.48C1005.42,-424.53 1012.22,-419.87 1018,-415 1026.42,-407.91 1034.8,-399.28 1041.95,-391.29"/>
<polygon fill="black" stroke="black" points="1044.53,-393.66 1048.45,-383.81 1039.25,-389.07 1044.53,-393.66"/>
</g>
<!-- error::already_exists -->
<g id="node16" class="node">
<title>error::already_exists</title>
<ellipse fill="none" stroke="black" cx="826" cy="-283" rx="61.19" ry="18"/>
<text text-anchor="middle" x="826" y="-279.3" font-family="Times,serif" font-size="14.00">already_exists</text>
</g>
<!-- property_map::add&#45;&gt;error::already_exists -->
<g id="edge17" class="edge">
<title>property_map::add&#45;&gt;error::already_exists</title>
<path fill="none" stroke="black" d="M958.52,-428.87C953.57,-426.59 948.19,-424.44 943,-423 926,-418.28 877.56,-426.3 864,-415 833.97,-389.97 826.87,-342.75 825.61,-312.36"/>
<polygon fill="black" stroke="black" points="829.12,-312.68 825.41,-302.76 822.12,-312.83 829.12,-312.68"/>
</g>
<!-- error::invalid_argument -->
<g id="node17" class="node">
<title>error::invalid_argument</title>
<ellipse fill="none" stroke="black" cx="979" cy="-283" rx="73.39" ry="18"/>
<text text-anchor="middle" x="979" y="-279.3" font-family="Times,serif" font-size="14.00">invalid_argument</text>
</g>
<!-- property_map::add&#45;&gt;error::invalid_argument -->
<g id="edge18" class="edge">
<title>property_map::add&#45;&gt;error::invalid_argument</title>
<path fill="none" stroke="black" d="M958.49,-428.99C953.53,-426.7 948.17,-424.53 943,-423 930.1,-419.19 891.86,-425.12 883,-415 861.04,-389.92 866.4,-368.9 883,-340 883.44,-339.24 914.54,-321.16 941.23,-305.75"/>
<polygon fill="black" stroke="black" points="942.94,-308.8 949.85,-300.77 939.44,-302.74 942.94,-308.8"/>
</g>
<!-- simple_map::length -->
<g id="node18" class="node">
<title>simple_map::length</title>
<ellipse fill="none" stroke="black" cx="1278" cy="-366" rx="32.49" ry="18"/>
<text text-anchor="middle" x="1278" y="-362.3" font-family="Times,serif" font-size="14.00">length</text>
</g>
<!-- property_map::add&#45;&gt;simple_map::length -->
<g id="edge20" class="edge">
<title>property_map::add&#45;&gt;simple_map::length</title>
<path fill="none" stroke="black" d="M1006.21,-439.91C1064.09,-439.3 1197.39,-435.63 1237,-415 1246.99,-409.79 1255.57,-401.03 1262.26,-392.4"/>
<polygon fill="black" stroke="black" points="1264.94,-394.68 1267.88,-384.5 1259.23,-390.62 1264.94,-394.68"/>
</g>
<!-- simple_map::add -->
<g id="node19" class="node">
<title>simple_map::add</title>
<ellipse fill="none" stroke="black" cx="1355" cy="-366" rx="27" ry="18"/>
<text text-anchor="middle" x="1355" y="-362.3" font-family="Times,serif" font-size="14.00">add</text>
</g>
<!-- property_map::add&#45;&gt;simple_map::add -->
<g id="edge21" class="edge">
<title>property_map::add&#45;&gt;simple_map::add</title>
<path fill="none" stroke="black" d="M1006.16,-439.29C1081.92,-437.13 1291.83,-429.85 1319,-415 1328.2,-409.97 1335.73,-401.48 1341.48,-393.02"/>
<polygon fill="black" stroke="black" points="1344.39,-394.97 1346.62,-384.62 1338.41,-391.32 1344.39,-394.97"/>
</g>
<!-- simple_map::contains_key -->
<g id="node20" class="node">
<title>simple_map::contains_key</title>
<ellipse fill="none" stroke="black" cx="1457" cy="-366" rx="57.39" ry="18"/>
<text text-anchor="middle" x="1457" y="-362.3" font-family="Times,serif" font-size="14.00">contains_key</text>
</g>
<!-- property_map::add&#45;&gt;simple_map::contains_key -->
<g id="edge22" class="edge">
<title>property_map::add&#45;&gt;simple_map::contains_key</title>
<path fill="none" stroke="black" d="M1006.4,-440.32C1086.65,-440.96 1319.93,-440.52 1391,-415 1405.73,-409.71 1420.04,-400.05 1431.54,-390.77"/>
<polygon fill="black" stroke="black" points="1433.6,-393.62 1438.97,-384.48 1429.08,-388.27 1433.6,-393.62"/>
</g>
<!-- property_map::contains_key&#45;&gt;simple_map::contains_key -->
<g id="edge23" class="edge">
<title>property_map::contains_key&#45;&gt;simple_map::contains_key</title>
<path fill="none" stroke="black" d="M966.28,-383.65C980.93,-397.04 1003.3,-413.97 1027,-419 1046.29,-423.09 1362.71,-423.09 1382,-419 1400.94,-414.98 1418.78,-402.85 1432.31,-391.21"/>
<polygon fill="black" stroke="black" points="1434.38,-394.06 1439.42,-384.74 1429.67,-388.88 1434.38,-394.06"/>
</g>
<!-- property_map::update_property_value&#45;&gt;property_map::contains_key -->
<g id="edge26" class="edge">
<title>property_map::update_property_value&#45;&gt;property_map::contains_key</title>
<path fill="none" stroke="black" d="M866.55,-423.25C881.4,-413.12 900.52,-400.08 916.6,-389.1"/>
<polygon fill="black" stroke="black" points="918.13,-392.3 924.42,-383.77 914.18,-386.52 918.13,-392.3"/>
</g>
<!-- property_map::update_property_value&#45;&gt;error::not_found -->
<g id="edge24" class="edge">
<title>property_map::update_property_value&#45;&gt;error::not_found</title>
<path fill="none" stroke="black" d="M782.6,-426.91C771.53,-423.62 760.24,-419.67 750,-415 688.98,-387.19 628,-336.91 595.02,-307.38"/>
<polygon fill="black" stroke="black" points="597.76,-305.14 588,-301.01 593.05,-310.32 597.76,-305.14"/>
</g>
<!-- simple_map::borrow_mut -->
<g id="node21" class="node">
<title>simple_map::borrow_mut</title>
<ellipse fill="none" stroke="black" cx="1173" cy="-366" rx="54.69" ry="18"/>
<text text-anchor="middle" x="1173" y="-362.3" font-family="Times,serif" font-size="14.00">borrow_mut</text>
</g>
<!-- property_map::update_property_value&#45;&gt;simple_map::borrow_mut -->
<g id="edge25" class="edge">
<title>property_map::update_property_value&#45;&gt;simple_map::borrow_mut</title>
<path fill="none" stroke="black" d="M907.04,-427.9C918.97,-426.01 931.33,-424.26 943,-423 979.05,-419.09 1071.75,-426.94 1106,-415 1120.93,-409.8 1135.45,-400.15 1147.13,-390.86"/>
<polygon fill="black" stroke="black" points="1149.26,-393.64 1154.69,-384.54 1144.77,-388.27 1149.26,-393.64"/>
</g>
<!-- table::contains_box -->
<g id="node22" class="node">
<title>table::contains_box</title>
<ellipse fill="none" stroke="black" cx="236" cy="-366" rx="57.69" ry="18"/>
<text text-anchor="middle" x="236" y="-362.3" font-family="Times,serif" font-size="14.00">contains_box</text>
</g>
<!-- table::contains&#45;&gt;table::contains_box -->
<g id="edge27" class="edge">
<title>table::contains&#45;&gt;table::contains_box</title>
<path fill="none" stroke="black" d="M242.87,-422.7C241.88,-414.67 240.67,-404.9 239.55,-395.8"/>
<polygon fill="black" stroke="black" points="243.03,-395.43 238.33,-385.93 236.08,-396.28 243.03,-395.43"/>
</g>
<!-- signer::borrow_address -->
<g id="node23" class="node">
<title>signer::borrow_address</title>
<ellipse fill="none" stroke="black" cx="385" cy="-366" rx="66.89" ry="18"/>
<text text-anchor="middle" x="385" y="-362.3" font-family="Times,serif" font-size="14.00">borrow_address</text>
</g>
<!-- signer::address_of&#45;&gt;signer::borrow_address -->
<g id="edge28" class="edge">
<title>signer::address_of&#45;&gt;signer::borrow_address</title>
<path fill="none" stroke="black" d="M391.87,-422.7C390.88,-414.67 389.67,-404.9 388.55,-395.8"/>
<polygon fill="black" stroke="black" points="392.03,-395.43 387.33,-385.93 385.08,-396.28 392.03,-395.43"/>
</g>
<!-- error::not_found&#45;&gt;error::canonical -->
<g id="edge29" class="edge">
<title>error::not_found&#45;&gt;error::canonical</title>
<path fill="none" stroke="black" d="M592.48,-266.95C611.24,-254.39 638.2,-236.34 659.18,-222.3"/>
<polygon fill="black" stroke="black" points="661.02,-225.28 667.39,-216.81 657.13,-219.46 661.02,-225.28"/>
</g>
<!-- error::already_exists&#45;&gt;error::canonical -->
<g id="edge30" class="edge">
<title>error::already_exists&#45;&gt;error::canonical</title>
<path fill="none" stroke="black" d="M799.97,-266.38C778.61,-253.57 748.21,-235.33 724.94,-221.37"/>
<polygon fill="black" stroke="black" points="726.81,-218.4 716.43,-216.26 723.21,-224.41 726.81,-218.4"/>
</g>
<!-- error::invalid_argument&#45;&gt;error::canonical -->
<g id="edge31" class="edge">
<title>error::invalid_argument&#45;&gt;error::canonical</title>
<path fill="none" stroke="black" d="M934.26,-268.29C921.89,-264.57 908.44,-260.57 896,-257 842.08,-241.52 779.89,-224.67 738.27,-213.54"/>
<polygon fill="black" stroke="black" points="739.4,-210.22 728.83,-211.02 737.59,-216.98 739.4,-210.22"/>
</g>
<!-- simple_map::add&#45;&gt;error::invalid_argument -->
<g id="edge34" class="edge">
<title>simple_map::add&#45;&gt;error::invalid_argument</title>
<path fill="none" stroke="black" d="M1339.23,-351.15C1333.29,-346.75 1326.22,-342.41 1319,-340 1274.07,-325 1152.43,-341.38 1106,-332 1076.92,-326.12 1045.73,-314.42 1021.54,-304.04"/>
<polygon fill="black" stroke="black" points="1023.24,-300.97 1012.68,-300.15 1020.43,-307.38 1023.24,-300.97"/>
</g>
<!-- option::extract -->
<g id="node24" class="node">
<title>option::extract</title>
<ellipse fill="none" stroke="black" cx="1721" cy="-200" rx="34.39" ry="18"/>
<text text-anchor="middle" x="1721" y="-196.3" font-family="Times,serif" font-size="14.00">extract</text>
</g>
<!-- simple_map::add&#45;&gt;option::extract -->
<g id="edge32" class="edge">
<title>simple_map::add&#45;&gt;option::extract</title>
<path fill="none" stroke="black" d="M1370.82,-351.28C1376.76,-346.9 1383.82,-342.53 1391,-340 1438.06,-323.4 1454.75,-344.74 1503,-332 1585.84,-310.12 1608.12,-299.96 1677,-249 1685.85,-242.45 1694.33,-233.94 1701.44,-225.91"/>
<polygon fill="black" stroke="black" points="1704.07,-228.22 1707.86,-218.33 1698.73,-223.7 1704.07,-228.22"/>
</g>
<!-- option::is_none -->
<g id="node25" class="node">
<title>option::is_none</title>
<ellipse fill="none" stroke="black" cx="1630" cy="-200" rx="38.19" ry="18"/>
<text text-anchor="middle" x="1630" y="-196.3" font-family="Times,serif" font-size="14.00">is_none</text>
</g>
<!-- simple_map::add&#45;&gt;option::is_none -->
<g id="edge33" class="edge">
<title>simple_map::add&#45;&gt;option::is_none</title>
<path fill="none" stroke="black" d="M1372.57,-351.94C1378.31,-347.91 1384.81,-343.58 1391,-340 1472.72,-292.69 1506.1,-303.81 1583,-249 1592.35,-242.34 1601.45,-233.71 1609.12,-225.6"/>
<polygon fill="black" stroke="black" points="1611.66,-228.01 1615.8,-218.25 1606.49,-223.3 1611.66,-228.01"/>
</g>
<!-- simple_map::find -->
<g id="node26" class="node">
<title>simple_map::find</title>
<ellipse fill="none" stroke="black" cx="1355" cy="-283" rx="27" ry="18"/>
<text text-anchor="middle" x="1355" y="-279.3" font-family="Times,serif" font-size="14.00">find</text>
</g>
<!-- simple_map::add&#45;&gt;simple_map::find -->
<g id="edge35" class="edge">
<title>simple_map::add&#45;&gt;simple_map::find</title>
<path fill="none" stroke="black" d="M1355,-347.82C1355,-337.69 1355,-324.6 1355,-312.92"/>
<polygon fill="black" stroke="black" points="1358.5,-312.95 1355,-302.95 1351.5,-312.95 1358.5,-312.95"/>
</g>
<!-- simple_map::contains_key&#45;&gt;simple_map::find -->
<g id="edge37" class="edge">
<title>simple_map::contains_key&#45;&gt;simple_map::find</title>
<path fill="none" stroke="black" d="M1436.85,-349C1420.63,-336.12 1397.75,-317.95 1380.3,-304.09"/>
<polygon fill="black" stroke="black" points="1382.93,-301.71 1372.92,-298.23 1378.58,-307.19 1382.93,-301.71"/>
</g>
<!-- option::is_some -->
<g id="node27" class="node">
<title>option::is_some</title>
<ellipse fill="none" stroke="black" cx="1715" cy="-117" rx="40.09" ry="18"/>
<text text-anchor="middle" x="1715" y="-113.3" font-family="Times,serif" font-size="14.00">is_some</text>
</g>
<!-- simple_map::contains_key&#45;&gt;option::is_some -->
<g id="edge36" class="edge">
<title>simple_map::contains_key&#45;&gt;option::is_some</title>
<path fill="none" stroke="black" d="M1514.64,-365.01C1594.32,-361.49 1735.26,-341.64 1797,-249 1815.49,-221.26 1812.56,-203.48 1797,-174 1787.87,-156.7 1770.72,-143.74 1754.46,-134.67"/>
<polygon fill="black" stroke="black" points="1756.37,-131.71 1745.88,-130.21 1753.14,-137.92 1756.37,-131.71"/>
</g>
<!-- simple_map::borrow_mut&#45;&gt;error::invalid_argument -->
<g id="edge40" class="edge">
<title>simple_map::borrow_mut&#45;&gt;error::invalid_argument</title>
<path fill="none" stroke="black" d="M1140.09,-351.26C1108.64,-338.13 1060.93,-318.21 1025.58,-303.45"/>
<polygon fill="black" stroke="black" points="1027.01,-300.25 1016.44,-299.63 1024.32,-306.71 1027.01,-300.25"/>
</g>
<!-- simple_map::borrow_mut&#45;&gt;option::extract -->
<g id="edge38" class="edge">
<title>simple_map::borrow_mut&#45;&gt;option::extract</title>
<path fill="none" stroke="black" d="M1203.63,-350.74C1214.01,-346.53 1225.81,-342.41 1237,-340 1304,-325.57 1323.54,-344.09 1391,-332 1501,-312.28 1522.38,-283.3 1631,-257 1651.17,-252.12 1658.79,-258.96 1677,-249 1687.05,-243.5 1696.04,-234.83 1703.23,-226.37"/>
<polygon fill="black" stroke="black" points="1705.91,-228.63 1709.36,-218.61 1700.42,-224.29 1705.91,-228.63"/>
</g>
<!-- simple_map::borrow_mut&#45;&gt;simple_map::find -->
<g id="edge41" class="edge">
<title>simple_map::borrow_mut&#45;&gt;simple_map::find</title>
<path fill="none" stroke="black" d="M1204.7,-350.89C1237.79,-336.17 1289.39,-313.2 1322.7,-298.38"/>
<polygon fill="black" stroke="black" points="1323.72,-301.75 1331.44,-294.49 1320.88,-295.36 1323.72,-301.75"/>
</g>
<!-- simple_map::borrow_mut&#45;&gt;option::is_some -->
<g id="edge39" class="edge">
<title>simple_map::borrow_mut&#45;&gt;option::is_some</title>
<path fill="none" stroke="black" d="M1203.27,-350.71C1213.73,-346.45 1225.66,-342.3 1237,-340 1299.75,-327.27 1462.69,-346.71 1525,-332 1601.83,-313.86 1609.9,-277.99 1686,-257 1702.8,-252.37 1752.32,-261.93 1764,-249 1786.34,-224.26 1775.72,-205.2 1764,-174 1759.37,-161.69 1750.67,-150.31 1741.88,-141.07"/>
<polygon fill="black" stroke="black" points="1744.55,-138.79 1734.96,-134.28 1739.64,-143.78 1744.55,-138.79"/>
</g>
<!-- option::extract&#45;&gt;option::is_some -->
<g id="edge42" class="edge">
<title>option::extract&#45;&gt;option::is_some</title>
<path fill="none" stroke="black" d="M1719.73,-181.82C1718.97,-171.58 1717.99,-158.33 1717.11,-146.55"/>
<polygon fill="black" stroke="black" points="1720.63,-146.66 1716.4,-136.94 1713.65,-147.17 1720.63,-146.66"/>
</g>
<!-- vector::is_empty -->
<g id="node28" class="node">
<title>vector::is_empty</title>
<ellipse fill="none" stroke="black" cx="1648" cy="-34" rx="43.59" ry="18"/>
<text text-anchor="middle" x="1648" y="-30.3" font-family="Times,serif" font-size="14.00">is_empty</text>
</g>
<!-- option::is_none&#45;&gt;vector::is_empty -->
<g id="edge43" class="edge">
<title>option::is_none&#45;&gt;vector::is_empty</title>
<path fill="none" stroke="black" d="M1631.89,-181.76C1634.99,-153.51 1641.18,-97.11 1644.92,-63.04"/>
<polygon fill="black" stroke="black" points="1648.36,-63.84 1645.97,-53.51 1641.4,-63.07 1648.36,-63.84"/>
</g>
<!-- option::none -->
<g id="node29" class="node">
<title>option::none</title>
<ellipse fill="none" stroke="black" cx="1468" cy="-200" rx="27.9" ry="18"/>
<text text-anchor="middle" x="1468" y="-196.3" font-family="Times,serif" font-size="14.00">none</text>
</g>
<!-- simple_map::find&#45;&gt;option::none -->
<g id="edge44" class="edge">
<title>simple_map::find&#45;&gt;option::none</title>
<path fill="none" stroke="black" d="M1372.91,-269.17C1391.15,-256.09 1419.67,-235.65 1440.72,-220.55"/>
<polygon fill="black" stroke="black" points="1442.49,-223.6 1448.57,-214.92 1438.41,-217.91 1442.49,-223.6"/>
</g>
<!-- option::some -->
<g id="node30" class="node">
<title>option::some</title>
<ellipse fill="none" stroke="black" cx="1544" cy="-200" rx="29.8" ry="18"/>
<text text-anchor="middle" x="1544" y="-196.3" font-family="Times,serif" font-size="14.00">some</text>
</g>
<!-- simple_map::find&#45;&gt;option::some -->
<g id="edge45" class="edge">
<title>simple_map::find&#45;&gt;option::some</title>
<path fill="none" stroke="black" d="M1382.19,-281.33C1413.87,-279.42 1466.76,-272.58 1505,-249 1514.07,-243.41 1521.96,-234.95 1528.23,-226.67"/>
<polygon fill="black" stroke="black" points="1531.1,-228.68 1533.95,-218.48 1525.36,-224.67 1531.1,-228.68"/>
</g>
<!-- comparator::compare -->
<g id="node31" class="node">
<title>comparator::compare</title>
<ellipse fill="none" stroke="black" cx="1118" cy="-200" rx="41.69" ry="18"/>
<text text-anchor="middle" x="1118" y="-196.3" font-family="Times,serif" font-size="14.00">compare</text>
</g>
<!-- simple_map::find&#45;&gt;comparator::compare -->
<g id="edge46" class="edge">
<title>simple_map::find&#45;&gt;comparator::compare</title>
<path fill="none" stroke="black" d="M1327.61,-281.95C1289.93,-280.85 1220.88,-275.05 1169,-249 1157.75,-243.35 1147.26,-234.43 1138.76,-225.79"/>
<polygon fill="black" stroke="black" points="1141.36,-223.45 1131.99,-218.5 1136.23,-228.21 1141.36,-223.45"/>
</g>
<!-- comparator::is_smaller_than -->
<g id="node32" class="node">
<title>comparator::is_smaller_than</title>
<ellipse fill="none" stroke="black" cx="1245" cy="-200" rx="66.89" ry="18"/>
<text text-anchor="middle" x="1245" y="-196.3" font-family="Times,serif" font-size="14.00">is_smaller_than</text>
</g>
<!-- simple_map::find&#45;&gt;comparator::is_smaller_than -->
<g id="edge47" class="edge">
<title>simple_map::find&#45;&gt;comparator::is_smaller_than</title>
<path fill="none" stroke="black" d="M1337.33,-268.99C1320.94,-256.92 1296.18,-238.69 1276.42,-224.14"/>
<polygon fill="black" stroke="black" points="1278.53,-221.35 1268.41,-218.24 1274.38,-226.98 1278.53,-221.35"/>
</g>
<!-- option::is_some&#45;&gt;vector::is_empty -->
<g id="edge48" class="edge">
<title>option::is_some&#45;&gt;vector::is_empty</title>
<path fill="none" stroke="black" d="M1701.44,-99.61C1692.09,-88.3 1679.47,-73.05 1668.85,-60.2"/>
<polygon fill="black" stroke="black" points="1671.57,-58.01 1662.5,-52.53 1666.18,-62.47 1671.57,-58.01"/>
</g>
<!-- vector::singleton -->
<g id="node33" class="node">
<title>vector::singleton</title>
<ellipse fill="none" stroke="black" cx="1544" cy="-34" rx="42.79" ry="18"/>
<text text-anchor="middle" x="1544" y="-30.3" font-family="Times,serif" font-size="14.00">singleton</text>
</g>
<!-- option::some&#45;&gt;vector::singleton -->
<g id="edge49" class="edge">
<title>option::some&#45;&gt;vector::singleton</title>
<path fill="none" stroke="black" d="M1544,-181.76C1544,-153.63 1544,-97.6 1544,-63.49"/>
<polygon fill="black" stroke="black" points="1547.5,-63.52 1544,-53.52 1540.5,-63.52 1547.5,-63.52"/>
</g>
<!-- bcs::to_bytes -->
<g id="node34" class="node">
<title>bcs::to_bytes</title>
<ellipse fill="none" stroke="black" cx="1376" cy="-117" rx="40.09" ry="18"/>
<text text-anchor="middle" x="1376" y="-113.3" font-family="Times,serif" font-size="14.00">to_bytes</text>
</g>
<!-- comparator::compare&#45;&gt;bcs::to_bytes -->
<g id="edge50" class="edge">
<title>comparator::compare&#45;&gt;bcs::to_bytes</title>
<path fill="none" stroke="black" d="M1141.87,-184.83C1150.18,-180.57 1159.74,-176.4 1169,-174 1202.39,-165.34 1292.21,-179.38 1324,-166 1336.01,-160.94 1347,-151.83 1355.75,-142.9"/>
<polygon fill="black" stroke="black" points="1358.22,-145.38 1362.39,-135.64 1353.06,-140.66 1358.22,-145.38"/>
</g>
<!-- comparator::compare_u8_vector -->
<g id="node35" class="node">
<title>comparator::compare_u8_vector</title>
<ellipse fill="none" stroke="black" cx="1157" cy="-117" rx="81.49" ry="18"/>
<text text-anchor="middle" x="1157" y="-113.3" font-family="Times,serif" font-size="14.00">compare_u8_vector</text>
</g>
<!-- comparator::compare&#45;&gt;comparator::compare_u8_vector -->
<g id="edge51" class="edge">
<title>comparator::compare&#45;&gt;comparator::compare_u8_vector</title>
<path fill="none" stroke="black" d="M1126.08,-182.22C1131.19,-171.61 1137.91,-157.65 1143.78,-145.45"/>
<polygon fill="black" stroke="black" points="1146.82,-147.21 1148,-136.68 1140.51,-144.18 1146.82,-147.21"/>
</g>
</g>
</svg>
