<?xml version="1.0" encoding="UTF-8" standalone="no"?>
<!DOCTYPE svg PUBLIC "-//W3C//DTD SVG 1.1//EN"
 "http://www.w3.org/Graphics/SVG/1.1/DTD/svg11.dtd">
<!-- Generated by graphviz version 7.0.0 (20221023.0053)
 -->
<!-- Title: G Pages: 1 -->
<svg width="1607pt" height="373pt"
 viewBox="0.00 0.00 1607.44 373.00" xmlns="http://www.w3.org/2000/svg" xmlns:xlink="http://www.w3.org/1999/xlink">
<g id="graph0" class="graph" transform="scale(1 1) rotate(0) translate(4 369)">
<title>G</title>
<polygon fill="white" stroke="none" points="-4,4 -4,-369 1603.44,-369 1603.44,4 -4,4"/>
<g id="clust1" class="cluster">
<title>cluster_string</title>
<polygon fill="none" stroke="black" points="8,-246 8,-321 88,-321 88,-246 8,-246"/>
<text text-anchor="middle" x="48" y="-305.8" font-family="Times,serif" font-size="14.00">string</text>
</g>
<g id="clust2" class="cluster">
<title>cluster_table</title>
<polygon fill="none" stroke="black" points="96,-163 96,-321 496,-321 496,-163 96,-163"/>
<text text-anchor="middle" x="296" y="-305.8" font-family="Times,serif" font-size="14.00">table</text>
</g>
<g id="clust3" class="cluster">
<title>cluster_signer</title>
<polygon fill="none" stroke="black" points="432,-8 432,-155 582,-155 582,-8 432,-8"/>
<text text-anchor="middle" x="507" y="-139.8" font-family="Times,serif" font-size="14.00">signer</text>
</g>
<g id="clust4" class="cluster">
<title>cluster_error</title>
<polygon fill="none" stroke="black" points="1009,-163 1009,-321 1312,-321 1312,-163 1009,-163"/>
<text text-anchor="middle" x="1160.5" y="-305.8" font-family="Times,serif" font-size="14.00">error</text>
</g>
<g id="clust5" class="cluster">
<title>cluster_event</title>
<polygon fill="none" stroke="black" points="713,-80 713,-238 1001,-238 1001,-80 713,-80"/>
<text text-anchor="middle" x="857" y="-222.8" font-family="Times,serif" font-size="14.00">event</text>
</g>
<g id="clust6" class="cluster">
<title>cluster_account</title>
<polygon fill="none" stroke="black" points="535,-163 535,-321 705,-321 705,-163 535,-163"/>
<text text-anchor="middle" x="620" y="-305.8" font-family="Times,serif" font-size="14.00">account</text>
</g>
<g id="clust7" class="cluster">
<title>cluster_bcs</title>
<polygon fill="none" stroke="black" points="1009,-80 1009,-155 1105,-155 1105,-80 1009,-80"/>
<text text-anchor="middle" x="1057" y="-139.8" font-family="Times,serif" font-size="14.00">bcs</text>
</g>
<g id="clust8" class="cluster">
<title>cluster_guid</title>
<polygon fill="none" stroke="black" points="590,-80 590,-155 670,-155 670,-80 590,-80"/>
<text text-anchor="middle" x="630" y="-139.8" font-family="Times,serif" font-size="14.00">guid</text>
</g>
<!-- create_collection -->
<g id="node1" class="node">
<title>create_collection</title>
<ellipse fill="none" stroke="black" cx="567" cy="-347" rx="70.69" ry="18"/>
<text text-anchor="middle" x="567" y="-343.3" font-family="Times,serif" font-size="14.00">create_collection</text>
</g>
<!-- string::length -->
<g id="node2" class="node">
<title>string::length</title>
<ellipse fill="none" stroke="black" cx="48" cy="-272" rx="32.49" ry="18"/>
<text text-anchor="middle" x="48" y="-268.3" font-family="Times,serif" font-size="14.00">length</text>
</g>
<!-- create_collection&#45;&gt;string::length -->
<g id="edge1" class="edge">
<title>create_collection&#45;&gt;string::length</title>
<path fill="none" stroke="black" d="M496.61,-345.22C373.23,-343.43 127.57,-337.78 92,-321 81.38,-315.99 72.13,-307.14 64.89,-298.39"/>
<polygon fill="black" stroke="black" points="67.86,-296.51 59.02,-290.68 62.29,-300.76 67.86,-296.51"/>
</g>
<!-- table::contains -->
<g id="node3" class="node">
<title>table::contains</title>
<ellipse fill="none" stroke="black" cx="438" cy="-272" rx="40.09" ry="18"/>
<text text-anchor="middle" x="438" y="-268.3" font-family="Times,serif" font-size="14.00">contains</text>
</g>
<!-- create_collection&#45;&gt;table::contains -->
<g id="edge2" class="edge">
<title>create_collection&#45;&gt;table::contains</title>
<path fill="none" stroke="black" d="M524.98,-332.18C516.83,-328.92 508.5,-325.16 501,-321 488.13,-313.86 475.01,-304.3 464.1,-295.59"/>
<polygon fill="black" stroke="black" points="466.63,-293.14 456.68,-289.51 462.19,-298.55 466.63,-293.14"/>
</g>
<!-- table::add -->
<g id="node4" class="node">
<title>table::add</title>
<ellipse fill="none" stroke="black" cx="333" cy="-272" rx="27" ry="18"/>
<text text-anchor="middle" x="333" y="-268.3" font-family="Times,serif" font-size="14.00">add</text>
</g>
<!-- create_collection&#45;&gt;table::add -->
<g id="edge3" class="edge">
<title>create_collection&#45;&gt;table::add</title>
<path fill="none" stroke="black" d="M496.42,-345.21C462.66,-342.59 422.42,-336.09 389,-321 376,-315.13 363.71,-305.28 353.98,-296.03"/>
<polygon fill="black" stroke="black" points="356.74,-293.84 347.2,-289.24 351.79,-298.79 356.74,-293.84"/>
</g>
<!-- table::new -->
<g id="node5" class="node">
<title>table::new</title>
<ellipse fill="none" stroke="black" cx="220" cy="-272" rx="27" ry="18"/>
<text text-anchor="middle" x="220" y="-268.3" font-family="Times,serif" font-size="14.00">new</text>
</g>
<!-- create_collection&#45;&gt;table::new -->
<g id="edge4" class="edge">
<title>create_collection&#45;&gt;table::new</title>
<path fill="none" stroke="black" d="M497.57,-343.21C430.14,-339.84 332.86,-333.08 297,-321 278.56,-314.79 259.99,-303.4 245.71,-293.27"/>
<polygon fill="black" stroke="black" points="247.91,-290.55 237.78,-287.44 243.76,-296.19 247.91,-290.55"/>
</g>
<!-- signer::address_of -->
<g id="node6" class="node">
<title>signer::address_of</title>
<ellipse fill="none" stroke="black" cx="516" cy="-106" rx="48.99" ry="18"/>
<text text-anchor="middle" x="516" y="-102.3" font-family="Times,serif" font-size="14.00">address_of</text>
</g>
<!-- create_collection&#45;&gt;signer::address_of -->
<g id="edge5" class="edge">
<title>create_collection&#45;&gt;signer::address_of</title>
<path fill="none" stroke="black" d="M538.58,-330.23C535.6,-327.51 532.96,-324.44 531,-321 497.51,-262.08 504.05,-178.8 510.63,-135.56"/>
<polygon fill="black" stroke="black" points="514.08,-136.16 512.26,-125.72 507.18,-135.02 514.08,-136.16"/>
</g>
<!-- error::already_exists -->
<g id="node7" class="node">
<title>error::already_exists</title>
<ellipse fill="none" stroke="black" cx="1243" cy="-272" rx="61.19" ry="18"/>
<text text-anchor="middle" x="1243" y="-268.3" font-family="Times,serif" font-size="14.00">already_exists</text>
</g>
<!-- create_collection&#45;&gt;error::already_exists -->
<g id="edge6" class="edge">
<title>create_collection&#45;&gt;error::already_exists</title>
<path fill="none" stroke="black" d="M637.64,-345.25C786.42,-343.35 1122.48,-337.3 1172,-321 1187.77,-315.81 1203.28,-306.03 1215.76,-296.64"/>
<polygon fill="black" stroke="black" points="1217.79,-299.5 1223.48,-290.56 1213.46,-294 1217.79,-299.5"/>
</g>
<!-- error::invalid_argument -->
<g id="node8" class="node">
<title>error::invalid_argument</title>
<ellipse fill="none" stroke="black" cx="1090" cy="-272" rx="73.39" ry="18"/>
<text text-anchor="middle" x="1090" y="-268.3" font-family="Times,serif" font-size="14.00">invalid_argument</text>
</g>
<!-- create_collection&#45;&gt;error::invalid_argument -->
<g id="edge7" class="edge">
<title>create_collection&#45;&gt;error::invalid_argument</title>
<path fill="none" stroke="black" d="M635.37,-341.97C692.42,-338.12 775.76,-331.35 848,-321 909.17,-312.24 978.25,-298.11 1026.89,-287.44"/>
<polygon fill="black" stroke="black" points="1027.39,-290.92 1036.4,-285.34 1025.88,-284.08 1027.39,-290.92"/>
</g>
<!-- event::emit_event -->
<g id="node9" class="node">
<title>event::emit_event</title>
<ellipse fill="none" stroke="black" cx="943" cy="-189" rx="50.09" ry="18"/>
<text text-anchor="middle" x="943" y="-185.3" font-family="Times,serif" font-size="14.00">emit_event</text>
</g>
<!-- create_collection&#45;&gt;event::emit_event -->
<g id="edge8" class="edge">
<title>create_collection&#45;&gt;event::emit_event</title>
<path fill="none" stroke="black" d="M630.09,-338.61C655.03,-334.73 683.72,-329.06 709,-321 791.02,-294.86 811.2,-283.94 884,-238 895.37,-230.82 907.03,-221.76 916.95,-213.45"/>
<polygon fill="black" stroke="black" points="919.06,-216.26 924.37,-207.09 914.5,-210.95 919.06,-216.26"/>
</g>
<!-- account::new_event_handle -->
<g id="node10" class="node">
<title>account::new_event_handle</title>
<ellipse fill="none" stroke="black" cx="620" cy="-272" rx="76.89" ry="18"/>
<text text-anchor="middle" x="620" y="-268.3" font-family="Times,serif" font-size="14.00">new_event_handle</text>
</g>
<!-- create_collection&#45;&gt;account::new_event_handle -->
<g id="edge9" class="edge">
<title>create_collection&#45;&gt;account::new_event_handle</title>
<path fill="none" stroke="black" d="M579.29,-329.07C585.73,-320.2 593.77,-309.13 600.99,-299.18"/>
<polygon fill="black" stroke="black" points="603.66,-301.47 606.7,-291.32 597.99,-297.35 603.66,-301.47"/>
</g>
<!-- create_collection_mutability_config -->
<g id="node11" class="node">
<title>create_collection_mutability_config</title>
<ellipse fill="none" stroke="black" cx="1461" cy="-272" rx="138.38" ry="18"/>
<text text-anchor="middle" x="1461" y="-268.3" font-family="Times,serif" font-size="14.00">create_collection_mutability_config</text>
</g>
<!-- create_collection&#45;&gt;create_collection_mutability_config -->
<g id="edge10" class="edge">
<title>create_collection&#45;&gt;create_collection_mutability_config</title>
<path fill="none" stroke="black" d="M638.04,-346.21C798.95,-346.28 1187.27,-343.96 1316,-321 1348.26,-315.24 1383.17,-303.86 1410.65,-293.62"/>
<polygon fill="black" stroke="black" points="1411.66,-296.98 1419.76,-290.16 1409.17,-290.44 1411.66,-296.98"/>
</g>
<!-- table::contains_box -->
<g id="node12" class="node">
<title>table::contains_box</title>
<ellipse fill="none" stroke="black" cx="430" cy="-189" rx="57.69" ry="18"/>
<text text-anchor="middle" x="430" y="-185.3" font-family="Times,serif" font-size="14.00">contains_box</text>
</g>
<!-- table::contains&#45;&gt;table::contains_box -->
<g id="edge11" class="edge">
<title>table::contains&#45;&gt;table::contains_box</title>
<path fill="none" stroke="black" d="M436.3,-253.82C435.29,-243.58 433.98,-230.33 432.82,-218.55"/>
<polygon fill="black" stroke="black" points="436.34,-218.55 431.87,-208.94 429.37,-219.23 436.34,-218.55"/>
</g>
<!-- table::add_box -->
<g id="node13" class="node">
<title>table::add_box</title>
<ellipse fill="none" stroke="black" cx="313" cy="-189" rx="40.89" ry="18"/>
<text text-anchor="middle" x="313" y="-185.3" font-family="Times,serif" font-size="14.00">add_box</text>
</g>
<!-- table::add&#45;&gt;table::add_box -->
<g id="edge12" class="edge">
<title>table::add&#45;&gt;table::add_box</title>
<path fill="none" stroke="black" d="M328.76,-253.82C326.21,-243.51 322.91,-230.14 319.99,-218.31"/>
<polygon fill="black" stroke="black" points="323.39,-217.49 317.6,-208.62 316.6,-219.17 323.39,-217.49"/>
</g>
<!-- table::new_table_handle -->
<g id="node14" class="node">
<title>table::new_table_handle</title>
<ellipse fill="none" stroke="black" cx="179" cy="-189" rx="74.99" ry="18"/>
<text text-anchor="middle" x="179" y="-185.3" font-family="Times,serif" font-size="14.00">new_table_handle</text>
</g>
<!-- table::new&#45;&gt;table::new_table_handle -->
<g id="edge13" class="edge">
<title>table::new&#45;&gt;table::new_table_handle</title>
<path fill="none" stroke="black" d="M211.7,-254.61C206.31,-243.95 199.15,-229.8 192.9,-217.45"/>
<polygon fill="black" stroke="black" points="196.03,-215.9 188.39,-208.56 189.79,-219.06 196.03,-215.9"/>
</g>
<!-- signer::borrow_address -->
<g id="node15" class="node">
<title>signer::borrow_address</title>
<ellipse fill="none" stroke="black" cx="507" cy="-34" rx="66.89" ry="18"/>
<text text-anchor="middle" x="507" y="-30.3" font-family="Times,serif" font-size="14.00">borrow_address</text>
</g>
<!-- signer::address_of&#45;&gt;signer::borrow_address -->
<g id="edge14" class="edge">
<title>signer::address_of&#45;&gt;signer::borrow_address</title>
<path fill="none" stroke="black" d="M513.78,-87.7C512.83,-80.32 511.7,-71.52 510.63,-63.25"/>
<polygon fill="black" stroke="black" points="514.14,-63.08 509.39,-53.61 507.2,-63.97 514.14,-63.08"/>
</g>
<!-- error::canonical -->
<g id="node16" class="node">
<title>error::canonical</title>
<ellipse fill="none" stroke="black" cx="1166" cy="-189" rx="44.39" ry="18"/>
<text text-anchor="middle" x="1166" y="-185.3" font-family="Times,serif" font-size="14.00">canonical</text>
</g>
<!-- error::already_exists&#45;&gt;error::canonical -->
<g id="edge15" class="edge">
<title>error::already_exists&#45;&gt;error::canonical</title>
<path fill="none" stroke="black" d="M1227.05,-254.22C1216.06,-242.66 1201.29,-227.13 1189.04,-214.23"/>
<polygon fill="black" stroke="black" points="1191.88,-212.14 1182.45,-207.31 1186.8,-216.97 1191.88,-212.14"/>
</g>
<!-- error::invalid_argument&#45;&gt;error::canonical -->
<g id="edge16" class="edge">
<title>error::invalid_argument&#45;&gt;error::canonical</title>
<path fill="none" stroke="black" d="M1105.75,-254.22C1116.49,-242.77 1130.89,-227.42 1142.92,-214.6"/>
<polygon fill="black" stroke="black" points="1145.47,-217 1149.76,-207.31 1140.36,-212.21 1145.47,-217"/>
</g>
<!-- bcs::to_bytes -->
<g id="node17" class="node">
<title>bcs::to_bytes</title>
<ellipse fill="none" stroke="black" cx="1057" cy="-106" rx="40.09" ry="18"/>
<text text-anchor="middle" x="1057" y="-102.3" font-family="Times,serif" font-size="14.00">to_bytes</text>
</g>
<!-- event::emit_event&#45;&gt;bcs::to_bytes -->
<g id="edge17" class="edge">
<title>event::emit_event&#45;&gt;bcs::to_bytes</title>
<path fill="none" stroke="black" d="M972.62,-174.2C983.19,-168.77 994.96,-162.13 1005,-155 1015.07,-147.85 1025.25,-138.92 1033.9,-130.7"/>
<polygon fill="black" stroke="black" points="1036.18,-133.37 1040.89,-123.88 1031.29,-128.36 1036.18,-133.37"/>
</g>
<!-- event::write_to_event_store -->
<g id="node18" class="node">
<title>event::write_to_event_store</title>
<ellipse fill="none" stroke="black" cx="908" cy="-106" rx="85.29" ry="18"/>
<text text-anchor="middle" x="908" y="-102.3" font-family="Times,serif" font-size="14.00">write_to_event_store</text>
</g>
<!-- event::emit_event&#45;&gt;event::write_to_event_store -->
<g id="edge18" class="edge">
<title>event::emit_event&#45;&gt;event::write_to_event_store</title>
<path fill="none" stroke="black" d="M935.58,-170.82C931.03,-160.3 925.11,-146.59 919.91,-134.57"/>
<polygon fill="black" stroke="black" points="923.19,-133.33 916.01,-125.54 916.77,-136.11 923.19,-133.33"/>
</g>
<!-- event::new_event_handle -->
<g id="node19" class="node">
<title>event::new_event_handle</title>
<ellipse fill="none" stroke="black" cx="798" cy="-189" rx="76.89" ry="18"/>
<text text-anchor="middle" x="798" y="-185.3" font-family="Times,serif" font-size="14.00">new_event_handle</text>
</g>
<!-- account::new_event_handle&#45;&gt;event::new_event_handle -->
<g id="edge19" class="edge">
<title>account::new_event_handle&#45;&gt;event::new_event_handle</title>
<path fill="none" stroke="black" d="M662.59,-256.58C677.46,-251.18 694.14,-244.72 709,-238 726.32,-230.16 744.91,-220.37 760.6,-211.68"/>
<polygon fill="black" stroke="black" points="762.12,-214.84 769.13,-206.89 758.69,-208.73 762.12,-214.84"/>
</g>
<!-- account::create_guid -->
<g id="node20" class="node">
<title>account::create_guid</title>
<ellipse fill="none" stroke="black" cx="620" cy="-189" rx="51.99" ry="18"/>
<text text-anchor="middle" x="620" y="-185.3" font-family="Times,serif" font-size="14.00">create_guid</text>
</g>
<!-- account::new_event_handle&#45;&gt;account::create_guid -->
<g id="edge20" class="edge">
<title>account::new_event_handle&#45;&gt;account::create_guid</title>
<path fill="none" stroke="black" d="M620,-253.82C620,-243.69 620,-230.6 620,-218.92"/>
<polygon fill="black" stroke="black" points="623.5,-218.95 620,-208.95 616.5,-218.95 623.5,-218.95"/>
</g>
<!-- account::create_guid&#45;&gt;signer::address_of -->
<g id="edge21" class="edge">
<title>account::create_guid&#45;&gt;signer::address_of</title>
<path fill="none" stroke="black" d="M599.45,-172C583.83,-159.83 562.13,-142.93 544.77,-129.41"/>
<polygon fill="black" stroke="black" points="547.38,-127.01 537.34,-123.62 543.08,-132.53 547.38,-127.01"/>
</g>
<!-- guid::create -->
<g id="node21" class="node">
<title>guid::create</title>
<ellipse fill="none" stroke="black" cx="630" cy="-106" rx="31.7" ry="18"/>
<text text-anchor="middle" x="630" y="-102.3" font-family="Times,serif" font-size="14.00">create</text>
</g>
<!-- account::create_guid&#45;&gt;guid::create -->
<g id="edge22" class="edge">
<title>account::create_guid&#45;&gt;guid::create</title>
<path fill="none" stroke="black" d="M622.12,-170.82C623.38,-160.58 625.02,-147.33 626.48,-135.55"/>
<polygon fill="black" stroke="black" points="629.91,-136.29 627.66,-125.93 622.96,-135.43 629.91,-136.29"/>
</g>
</g>
</svg>
