<?xml version="1.0" encoding="UTF-8" standalone="no"?>
<!DOCTYPE svg PUBLIC "-//W3C//DTD SVG 1.1//EN"
 "http://www.w3.org/Graphics/SVG/1.1/DTD/svg11.dtd">
<!-- Generated by graphviz version 7.0.0 (20221023.0053)
 -->
<!-- Title: G Pages: 1 -->
<svg width="1625pt" height="592pt"
 viewBox="0.00 0.00 1624.51 592.00" xmlns="http://www.w3.org/2000/svg" xmlns:xlink="http://www.w3.org/1999/xlink">
<g id="graph0" class="graph" transform="scale(1 1) rotate(0) translate(4 588)">
<title>G</title>
<polygon fill="white" stroke="none" points="-4,4 -4,-588 1620.51,-588 1620.51,4 -4,4"/>
<g id="clust1" class="cluster">
<title>cluster_token</title>
<polygon fill="none" stroke="black" points="96,-246 96,-468 615,-468 615,-246 96,-246"/>
<text text-anchor="middle" x="355.5" y="-452.8" font-family="Times,serif" font-size="14.00">token</text>
</g>
<g id="clust2" class="cluster">
<title>cluster_table</title>
<polygon fill="none" stroke="black" points="901,-163 901,-321 1591,-321 1591,-163 901,-163"/>
<text text-anchor="middle" x="1246" y="-305.8" font-family="Times,serif" font-size="14.00">table</text>
</g>
<g id="clust3" class="cluster">
<title>cluster_signer</title>
<polygon fill="none" stroke="black" points="834,-8 834,-155 984,-155 984,-8 834,-8"/>
<text text-anchor="middle" x="909" y="-139.8" font-family="Times,serif" font-size="14.00">signer</text>
</g>
<g id="clust4" class="cluster">
<title>cluster_event</title>
<polygon fill="none" stroke="black" points="346,-80 346,-238 634,-238 634,-80 346,-80"/>
<text text-anchor="middle" x="490" y="-222.8" font-family="Times,serif" font-size="14.00">event</text>
</g>
<g id="clust5" class="cluster">
<title>cluster_string</title>
<polygon fill="none" stroke="black" points="8,-246 8,-321 88,-321 88,-246 8,-246"/>
<text text-anchor="middle" x="48" y="-305.8" font-family="Times,serif" font-size="14.00">string</text>
</g>
<g id="clust6" class="cluster">
<title>cluster_error</title>
<polygon fill="none" stroke="black" points="64,-80 64,-238 338,-238 338,-80 64,-80"/>
<text text-anchor="middle" x="201" y="-222.8" font-family="Times,serif" font-size="14.00">error</text>
</g>
<g id="clust7" class="cluster">
<title>cluster_bcs</title>
<polygon fill="none" stroke="black" points="642,-80 642,-155 738,-155 738,-80 642,-80"/>
<text text-anchor="middle" x="690" y="-139.8" font-family="Times,serif" font-size="14.00">bcs</text>
</g>
<g id="clust8" class="cluster">
<title>cluster_account</title>
<polygon fill="none" stroke="black" points="653,-163 653,-321 823,-321 823,-163 653,-163"/>
<text text-anchor="middle" x="738" y="-305.8" font-family="Times,serif" font-size="14.00">account</text>
</g>
<g id="clust9" class="cluster">
<title>cluster_guid</title>
<polygon fill="none" stroke="black" points="746,-80 746,-155 826,-155 826,-80 746,-80"/>
<text text-anchor="middle" x="786" y="-139.8" font-family="Times,serif" font-size="14.00">guid</text>
</g>
<!-- cancel_offer_script -->
<g id="node1" class="node">
<title>cancel_offer_script</title>
<ellipse fill="none" stroke="black" cx="457" cy="-566" rx="78.79" ry="18"/>
<text text-anchor="middle" x="457" y="-562.3" font-family="Times,serif" font-size="14.00">cancel_offer_script</text>
</g>
<!-- token::create_token_id_raw -->
<g id="node2" class="node">
<title>token::create_token_id_raw</title>
<ellipse fill="none" stroke="black" cx="202" cy="-419" rx="84.49" ry="18"/>
<text text-anchor="middle" x="202" y="-415.3" font-family="Times,serif" font-size="14.00">create_token_id_raw</text>
</g>
<!-- cancel_offer_script&#45;&gt;token::create_token_id_raw -->
<g id="edge1" class="edge">
<title>cancel_offer_script&#45;&gt;token::create_token_id_raw</title>
<path fill="none" stroke="black" d="M428.74,-548.93C382.91,-522.87 292.3,-471.35 240.58,-441.94"/>
<polygon fill="black" stroke="black" points="242.52,-439.01 232.1,-437.11 239.06,-445.1 242.52,-439.01"/>
</g>
<!-- cancel_offer -->
<g id="node3" class="node">
<title>cancel_offer</title>
<ellipse fill="none" stroke="black" cx="713" cy="-494" rx="54.69" ry="18"/>
<text text-anchor="middle" x="713" y="-490.3" font-family="Times,serif" font-size="14.00">cancel_offer</text>
</g>
<!-- cancel_offer_script&#45;&gt;cancel_offer -->
<g id="edge2" class="edge">
<title>cancel_offer_script&#45;&gt;cancel_offer</title>
<path fill="none" stroke="black" d="M506.06,-551.59C550.49,-539.44 615.75,-521.59 661.06,-509.2"/>
<polygon fill="black" stroke="black" points="661.94,-512.59 670.66,-506.58 660.1,-505.84 661.94,-512.59"/>
</g>
<!-- token::create_token_data_id -->
<g id="node4" class="node">
<title>token::create_token_data_id</title>
<ellipse fill="none" stroke="black" cx="190" cy="-347" rx="85.59" ry="18"/>
<text text-anchor="middle" x="190" y="-343.3" font-family="Times,serif" font-size="14.00">create_token_data_id</text>
</g>
<!-- token::create_token_id_raw&#45;&gt;token::create_token_data_id -->
<g id="edge3" class="edge">
<title>token::create_token_id_raw&#45;&gt;token::create_token_data_id</title>
<path fill="none" stroke="black" d="M199.03,-400.7C197.77,-393.32 196.26,-384.52 194.84,-376.25"/>
<polygon fill="black" stroke="black" points="198.33,-375.86 193.19,-366.6 191.43,-377.04 198.33,-375.86"/>
</g>
<!-- table::remove -->
<g id="node5" class="node">
<title>table::remove</title>
<ellipse fill="none" stroke="black" cx="1473" cy="-272" rx="37.89" ry="18"/>
<text text-anchor="middle" x="1473" y="-268.3" font-family="Times,serif" font-size="14.00">remove</text>
</g>
<!-- cancel_offer&#45;&gt;table::remove -->
<g id="edge4" class="edge">
<title>cancel_offer&#45;&gt;table::remove</title>
<path fill="none" stroke="black" d="M760.74,-484.78C785.4,-480.29 815.93,-474.36 843,-468 1080.13,-412.29 1142.66,-405.83 1371,-321 1393.91,-312.49 1418.74,-300.86 1438.16,-291.18"/>
<polygon fill="black" stroke="black" points="1439.65,-294.35 1447,-286.72 1436.5,-288.1 1439.65,-294.35"/>
</g>
<!-- signer::address_of -->
<g id="node6" class="node">
<title>signer::address_of</title>
<ellipse fill="none" stroke="black" cx="891" cy="-106" rx="48.99" ry="18"/>
<text text-anchor="middle" x="891" y="-102.3" font-family="Times,serif" font-size="14.00">address_of</text>
</g>
<!-- cancel_offer&#45;&gt;signer::address_of -->
<g id="edge5" class="edge">
<title>cancel_offer&#45;&gt;signer::address_of</title>
<path fill="none" stroke="black" d="M766.82,-490.03C960.55,-478.65 1611,-434.02 1611,-348 1611,-348 1611,-348 1611,-271 1611,-222.48 1630.45,-196.13 1595,-163 1548.44,-119.49 1113.26,-109.72 951.32,-107.58"/>
<polygon fill="black" stroke="black" points="951.7,-104.08 941.66,-107.46 951.61,-111.08 951.7,-104.08"/>
</g>
<!-- event::emit_event -->
<g id="node7" class="node">
<title>event::emit_event</title>
<ellipse fill="none" stroke="black" cx="404" cy="-189" rx="50.09" ry="18"/>
<text text-anchor="middle" x="404" y="-185.3" font-family="Times,serif" font-size="14.00">emit_event</text>
</g>
<!-- cancel_offer&#45;&gt;event::emit_event -->
<g id="edge6" class="edge">
<title>cancel_offer&#45;&gt;event::emit_event</title>
<path fill="none" stroke="black" d="M762.49,-485.95C783.15,-481.9 803.79,-476.01 810,-468 828.24,-444.46 825.69,-426.31 810,-401 767.91,-333.08 703.18,-379.73 649,-321 624.66,-294.61 648.2,-266.88 619,-246 604.88,-235.9 479.2,-244.23 463,-238 449.65,-232.87 437.04,-223.49 426.93,-214.38"/>
<polygon fill="black" stroke="black" points="429.48,-211.97 419.83,-207.59 424.64,-217.03 429.48,-211.97"/>
</g>
<!-- token::deposit_token -->
<g id="node8" class="node">
<title>token::deposit_token</title>
<ellipse fill="none" stroke="black" cx="376" cy="-419" rx="59.59" ry="18"/>
<text text-anchor="middle" x="376" y="-415.3" font-family="Times,serif" font-size="14.00">deposit_token</text>
</g>
<!-- cancel_offer&#45;&gt;token::deposit_token -->
<g id="edge7" class="edge">
<title>cancel_offer&#45;&gt;token::deposit_token</title>
<path fill="none" stroke="black" d="M658.51,-491.25C591.53,-488.53 482.06,-482.05 444,-468 429.13,-462.51 414.52,-452.91 402.68,-443.74"/>
<polygon fill="black" stroke="black" points="404.97,-441.09 395,-437.51 400.56,-446.53 404.97,-441.09"/>
</g>
<!-- token::get_token_amount -->
<g id="node9" class="node">
<title>token::get_token_amount</title>
<ellipse fill="none" stroke="black" cx="530" cy="-419" rx="76.89" ry="18"/>
<text text-anchor="middle" x="530" y="-415.3" font-family="Times,serif" font-size="14.00">get_token_amount</text>
</g>
<!-- cancel_offer&#45;&gt;token::get_token_amount -->
<g id="edge8" class="edge">
<title>cancel_offer&#45;&gt;token::get_token_amount</title>
<path fill="none" stroke="black" d="M667.32,-483.78C650.85,-479.79 632.31,-474.53 616,-468 598.42,-460.96 579.96,-451.03 564.66,-442.03"/>
<polygon fill="black" stroke="black" points="566.78,-439.22 556.41,-437.07 563.18,-445.22 566.78,-439.22"/>
</g>
<!-- create_token_offer_id -->
<g id="node10" class="node">
<title>create_token_offer_id</title>
<ellipse fill="none" stroke="black" cx="713" cy="-419" rx="88.28" ry="18"/>
<text text-anchor="middle" x="713" y="-415.3" font-family="Times,serif" font-size="14.00">create_token_offer_id</text>
</g>
<!-- cancel_offer&#45;&gt;create_token_offer_id -->
<g id="edge9" class="edge">
<title>cancel_offer&#45;&gt;create_token_offer_id</title>
<path fill="none" stroke="black" d="M713,-475.7C713,-467.67 713,-457.9 713,-448.8"/>
<polygon fill="black" stroke="black" points="716.5,-448.94 713,-438.94 709.5,-448.94 716.5,-448.94"/>
</g>
<!-- string::length -->
<g id="node11" class="node">
<title>string::length</title>
<ellipse fill="none" stroke="black" cx="48" cy="-272" rx="32.49" ry="18"/>
<text text-anchor="middle" x="48" y="-268.3" font-family="Times,serif" font-size="14.00">length</text>
</g>
<!-- token::create_token_data_id&#45;&gt;string::length -->
<g id="edge10" class="edge">
<title>token::create_token_data_id&#45;&gt;string::length</title>
<path fill="none" stroke="black" d="M124.87,-335.04C113.45,-331.56 102.02,-327 92,-321 82.17,-315.12 73.23,-306.37 66.01,-297.95"/>
<polygon fill="black" stroke="black" points="68.83,-295.87 59.84,-290.27 63.37,-300.26 68.83,-295.87"/>
</g>
<!-- error::invalid_argument -->
<g id="node12" class="node">
<title>error::invalid_argument</title>
<ellipse fill="none" stroke="black" cx="257" cy="-189" rx="73.39" ry="18"/>
<text text-anchor="middle" x="257" y="-185.3" font-family="Times,serif" font-size="14.00">invalid_argument</text>
</g>
<!-- token::create_token_data_id&#45;&gt;error::invalid_argument -->
<g id="edge11" class="edge">
<title>token::create_token_data_id&#45;&gt;error::invalid_argument</title>
<path fill="none" stroke="black" d="M254.09,-334.74C282.86,-329.37 310.9,-323.57 313,-321 334.09,-295.19 325.76,-276.8 313,-246 307.96,-233.84 298.87,-222.95 289.45,-214.07"/>
<polygon fill="black" stroke="black" points="291.78,-211.47 281.96,-207.51 287.17,-216.73 291.78,-211.47"/>
</g>
<!-- table::remove_box -->
<g id="node13" class="node">
<title>table::remove_box</title>
<ellipse fill="none" stroke="black" cx="1528" cy="-189" rx="55.49" ry="18"/>
<text text-anchor="middle" x="1528" y="-185.3" font-family="Times,serif" font-size="14.00">remove_box</text>
</g>
<!-- table::remove&#45;&gt;table::remove_box -->
<g id="edge12" class="edge">
<title>table::remove&#45;&gt;table::remove_box</title>
<path fill="none" stroke="black" d="M1484.13,-254.61C1491.63,-243.56 1501.69,-228.74 1510.29,-216.08"/>
<polygon fill="black" stroke="black" points="1512.94,-218.42 1515.66,-208.18 1507.14,-214.48 1512.94,-218.42"/>
</g>
<!-- signer::borrow_address -->
<g id="node14" class="node">
<title>signer::borrow_address</title>
<ellipse fill="none" stroke="black" cx="909" cy="-34" rx="66.89" ry="18"/>
<text text-anchor="middle" x="909" y="-30.3" font-family="Times,serif" font-size="14.00">borrow_address</text>
</g>
<!-- signer::address_of&#45;&gt;signer::borrow_address -->
<g id="edge13" class="edge">
<title>signer::address_of&#45;&gt;signer::borrow_address</title>
<path fill="none" stroke="black" d="M895.45,-87.7C897.35,-80.32 899.61,-71.52 901.74,-63.25"/>
<polygon fill="black" stroke="black" points="905.12,-64.13 904.22,-53.57 898.34,-62.38 905.12,-64.13"/>
</g>
<!-- bcs::to_bytes -->
<g id="node15" class="node">
<title>bcs::to_bytes</title>
<ellipse fill="none" stroke="black" cx="690" cy="-106" rx="40.09" ry="18"/>
<text text-anchor="middle" x="690" y="-102.3" font-family="Times,serif" font-size="14.00">to_bytes</text>
</g>
<!-- event::emit_event&#45;&gt;bcs::to_bytes -->
<g id="edge14" class="edge">
<title>event::emit_event&#45;&gt;bcs::to_bytes</title>
<path fill="none" stroke="black" d="M432.13,-173.68C441.68,-169.47 452.59,-165.36 463,-163 500.96,-154.38 602.08,-170 638,-155 650.03,-149.98 661.02,-140.87 669.76,-131.93"/>
<polygon fill="black" stroke="black" points="672.24,-134.41 676.4,-124.67 667.07,-129.69 672.24,-134.41"/>
</g>
<!-- event::write_to_event_store -->
<g id="node16" class="node">
<title>event::write_to_event_store</title>
<ellipse fill="none" stroke="black" cx="439" cy="-106" rx="85.29" ry="18"/>
<text text-anchor="middle" x="439" y="-102.3" font-family="Times,serif" font-size="14.00">write_to_event_store</text>
</g>
<!-- event::emit_event&#45;&gt;event::write_to_event_store -->
<g id="edge15" class="edge">
<title>event::emit_event&#45;&gt;event::write_to_event_store</title>
<path fill="none" stroke="black" d="M411.42,-170.82C415.97,-160.3 421.89,-146.59 427.09,-134.57"/>
<polygon fill="black" stroke="black" points="430.23,-136.11 430.99,-125.54 423.81,-133.33 430.23,-136.11"/>
</g>
<!-- token::deposit_token&#45;&gt;signer::address_of -->
<g id="edge16" class="edge">
<title>token::deposit_token&#45;&gt;signer::address_of</title>
<path fill="none" stroke="black" d="M420.18,-406.59C428.09,-404.65 436.28,-402.71 444,-401 626.54,-360.53 727.05,-455.42 857,-321 882.05,-295.09 888.65,-188.05 890.38,-135.87"/>
<polygon fill="black" stroke="black" points="893.88,-136.05 890.67,-125.96 886.88,-135.85 893.88,-136.05"/>
</g>
<!-- token::direct_deposit -->
<g id="node17" class="node">
<title>token::direct_deposit</title>
<ellipse fill="none" stroke="black" cx="354" cy="-347" rx="60.39" ry="18"/>
<text text-anchor="middle" x="354" y="-343.3" font-family="Times,serif" font-size="14.00">direct_deposit</text>
</g>
<!-- token::deposit_token&#45;&gt;token::direct_deposit -->
<g id="edge17" class="edge">
<title>token::deposit_token&#45;&gt;token::direct_deposit</title>
<path fill="none" stroke="black" d="M370.56,-400.7C368.22,-393.24 365.42,-384.32 362.79,-375.97"/>
<polygon fill="black" stroke="black" points="366.17,-375.04 359.83,-366.55 359.49,-377.14 366.17,-375.04"/>
</g>
<!-- token::initialize_token_store -->
<g id="node18" class="node">
<title>token::initialize_token_store</title>
<ellipse fill="none" stroke="black" cx="520" cy="-347" rx="87.18" ry="18"/>
<text text-anchor="middle" x="520" y="-343.3" font-family="Times,serif" font-size="14.00">initialize_token_store</text>
</g>
<!-- token::deposit_token&#45;&gt;token::initialize_token_store -->
<g id="edge18" class="edge">
<title>token::deposit_token&#45;&gt;token::initialize_token_store</title>
<path fill="none" stroke="black" d="M406.54,-403.15C427.01,-393.2 454.28,-379.95 476.95,-368.93"/>
<polygon fill="black" stroke="black" points="478.17,-372.22 485.64,-364.7 475.11,-365.93 478.17,-372.22"/>
</g>
<!-- error::canonical -->
<g id="node19" class="node">
<title>error::canonical</title>
<ellipse fill="none" stroke="black" cx="188" cy="-106" rx="44.39" ry="18"/>
<text text-anchor="middle" x="188" y="-102.3" font-family="Times,serif" font-size="14.00">canonical</text>
</g>
<!-- error::invalid_argument&#45;&gt;error::canonical -->
<g id="edge19" class="edge">
<title>error::invalid_argument&#45;&gt;error::canonical</title>
<path fill="none" stroke="black" d="M242.7,-171.22C233.11,-159.96 220.3,-144.92 209.49,-132.22"/>
<polygon fill="black" stroke="black" points="212.17,-129.98 203.02,-124.64 206.84,-134.52 212.17,-129.98"/>
</g>
<!-- token::direct_deposit&#45;&gt;event::emit_event -->
<g id="edge25" class="edge">
<title>token::direct_deposit&#45;&gt;event::emit_event</title>
<path fill="none" stroke="black" d="M359.54,-328.71C368.1,-302 384.63,-250.45 394.94,-218.27"/>
<polygon fill="black" stroke="black" points="398.25,-219.4 397.97,-208.81 391.59,-217.26 398.25,-219.4"/>
</g>
<!-- token::direct_deposit&#45;&gt;error::invalid_argument -->
<g id="edge23" class="edge">
<title>token::direct_deposit&#45;&gt;error::invalid_argument</title>
<path fill="none" stroke="black" d="M309.6,-334.37C301.45,-332.43 292.99,-330.55 285,-329 272.66,-326.6 237.24,-330.5 229,-321 203.78,-291.92 222.87,-245.7 239.52,-216.64"/>
<polygon fill="black" stroke="black" points="242.3,-218.81 244.45,-208.44 236.3,-215.21 242.3,-218.81"/>
</g>
<!-- table::contains -->
<g id="node20" class="node">
<title>table::contains</title>
<ellipse fill="none" stroke="black" cx="1107" cy="-272" rx="40.09" ry="18"/>
<text text-anchor="middle" x="1107" y="-268.3" font-family="Times,serif" font-size="14.00">contains</text>
</g>
<!-- token::direct_deposit&#45;&gt;table::contains -->
<g id="edge20" class="edge">
<title>token::direct_deposit&#45;&gt;table::contains</title>
<path fill="none" stroke="black" d="M397.03,-333.94C405.88,-331.92 415.19,-330.11 424,-329 457.73,-324.74 1003.55,-331.17 1036,-321 1052.57,-315.81 1068.78,-305.38 1081.52,-295.56"/>
<polygon fill="black" stroke="black" points="1083.38,-298.56 1088.96,-289.56 1078.98,-293.11 1083.38,-298.56"/>
</g>
<!-- table::borrow_mut -->
<g id="node21" class="node">
<title>table::borrow_mut</title>
<ellipse fill="none" stroke="black" cx="972" cy="-272" rx="54.69" ry="18"/>
<text text-anchor="middle" x="972" y="-268.3" font-family="Times,serif" font-size="14.00">borrow_mut</text>
</g>
<!-- token::direct_deposit&#45;&gt;table::borrow_mut -->
<g id="edge21" class="edge">
<title>token::direct_deposit&#45;&gt;table::borrow_mut</title>
<path fill="none" stroke="black" d="M397.04,-333.99C405.89,-331.96 415.19,-330.14 424,-329 512.83,-317.47 738.71,-336.13 827,-321 862.34,-314.94 900.8,-301.89 929.23,-290.93"/>
<polygon fill="black" stroke="black" points="930.17,-294.32 938.2,-287.4 927.61,-287.8 930.17,-294.32"/>
</g>
<!-- table::add -->
<g id="node22" class="node">
<title>table::add</title>
<ellipse fill="none" stroke="black" cx="1219" cy="-272" rx="27" ry="18"/>
<text text-anchor="middle" x="1219" y="-268.3" font-family="Times,serif" font-size="14.00">add</text>
</g>
<!-- token::direct_deposit&#45;&gt;table::add -->
<g id="edge22" class="edge">
<title>token::direct_deposit&#45;&gt;table::add</title>
<path fill="none" stroke="black" d="M397.03,-333.93C405.88,-331.9 415.19,-330.1 424,-329 464.35,-323.95 1117.54,-334.22 1156,-321 1171.19,-315.78 1185.63,-305.34 1196.84,-295.52"/>
<polygon fill="black" stroke="black" points="1199.02,-298.27 1203.99,-288.92 1194.27,-293.13 1199.02,-298.27"/>
</g>
<!-- error::not_found -->
<g id="node23" class="node">
<title>error::not_found</title>
<ellipse fill="none" stroke="black" cx="119" cy="-189" rx="46.59" ry="18"/>
<text text-anchor="middle" x="119" y="-185.3" font-family="Times,serif" font-size="14.00">not_found</text>
</g>
<!-- token::direct_deposit&#45;&gt;error::not_found -->
<g id="edge24" class="edge">
<title>token::direct_deposit&#45;&gt;error::not_found</title>
<path fill="none" stroke="black" d="M310.01,-334.25C301.74,-332.3 293.14,-330.45 285,-329 269.15,-326.18 226.89,-329.13 213,-321 172.55,-297.33 144.8,-248.58 130.44,-217.69"/>
<polygon fill="black" stroke="black" points="133.65,-216.28 126.38,-208.57 127.26,-219.13 133.65,-216.28"/>
</g>
<!-- token::merge -->
<g id="node24" class="node">
<title>token::merge</title>
<ellipse fill="none" stroke="black" cx="271" cy="-272" rx="33.29" ry="18"/>
<text text-anchor="middle" x="271" y="-268.3" font-family="Times,serif" font-size="14.00">merge</text>
</g>
<!-- token::direct_deposit&#45;&gt;token::merge -->
<g id="edge26" class="edge">
<title>token::direct_deposit&#45;&gt;token::merge</title>
<path fill="none" stroke="black" d="M335.17,-329.44C323.7,-319.35 308.9,-306.33 296.4,-295.34"/>
<polygon fill="black" stroke="black" points="298.75,-292.74 288.92,-288.77 294.12,-298 298.75,-292.74"/>
</g>
<!-- token::initialize_token_store&#45;&gt;signer::address_of -->
<g id="edge28" class="edge">
<title>token::initialize_token_store&#45;&gt;signer::address_of</title>
<path fill="none" stroke="black" d="M601.97,-340.48C691.45,-334.29 822.71,-324.63 827,-321 882.31,-274.22 843.77,-231.61 867,-163 870.23,-153.46 874.38,-143.26 878.32,-134.22"/>
<polygon fill="black" stroke="black" points="881.43,-135.82 882.32,-125.27 875.04,-132.97 881.43,-135.82"/>
</g>
<!-- table::new -->
<g id="node25" class="node">
<title>table::new</title>
<ellipse fill="none" stroke="black" cx="1335" cy="-272" rx="27" ry="18"/>
<text text-anchor="middle" x="1335" y="-268.3" font-family="Times,serif" font-size="14.00">new</text>
</g>
<!-- token::initialize_token_store&#45;&gt;table::new -->
<g id="edge27" class="edge">
<title>token::initialize_token_store&#45;&gt;table::new</title>
<path fill="none" stroke="black" d="M605.78,-343.36C798.03,-337.41 1247.3,-323.27 1255,-321 1274.62,-315.2 1294.36,-303.44 1309.32,-293.01"/>
<polygon fill="black" stroke="black" points="1311.14,-296.01 1317.19,-287.31 1307.04,-290.34 1311.14,-296.01"/>
</g>
<!-- account::new_event_handle -->
<g id="node26" class="node">
<title>account::new_event_handle</title>
<ellipse fill="none" stroke="black" cx="738" cy="-272" rx="76.89" ry="18"/>
<text text-anchor="middle" x="738" y="-268.3" font-family="Times,serif" font-size="14.00">new_event_handle</text>
</g>
<!-- token::initialize_token_store&#45;&gt;account::new_event_handle -->
<g id="edge29" class="edge">
<title>token::initialize_token_store&#45;&gt;account::new_event_handle</title>
<path fill="none" stroke="black" d="M576.92,-333.04C590.79,-329.49 605.52,-325.4 619,-321 643.84,-312.89 670.91,-302.14 692.94,-292.86"/>
<polygon fill="black" stroke="black" points="694.09,-296.18 701.92,-289.04 691.35,-289.73 694.09,-296.18"/>
</g>
<!-- table::contains_box -->
<g id="node27" class="node">
<title>table::contains_box</title>
<ellipse fill="none" stroke="black" cx="1129" cy="-189" rx="57.69" ry="18"/>
<text text-anchor="middle" x="1129" y="-185.3" font-family="Times,serif" font-size="14.00">contains_box</text>
</g>
<!-- table::contains&#45;&gt;table::contains_box -->
<g id="edge30" class="edge">
<title>table::contains&#45;&gt;table::contains_box</title>
<path fill="none" stroke="black" d="M1111.67,-253.82C1114.48,-243.48 1118.12,-230.05 1121.35,-218.18"/>
<polygon fill="black" stroke="black" points="1124.63,-219.46 1123.87,-208.89 1117.87,-217.63 1124.63,-219.46"/>
</g>
<!-- table::borrow_box_mut -->
<g id="node28" class="node">
<title>table::borrow_box_mut</title>
<ellipse fill="none" stroke="black" cx="981" cy="-189" rx="72.29" ry="18"/>
<text text-anchor="middle" x="981" y="-185.3" font-family="Times,serif" font-size="14.00">borrow_box_mut</text>
</g>
<!-- table::borrow_mut&#45;&gt;table::borrow_box_mut -->
<g id="edge31" class="edge">
<title>table::borrow_mut&#45;&gt;table::borrow_box_mut</title>
<path fill="none" stroke="black" d="M973.91,-253.82C975.05,-243.58 976.52,-230.33 977.83,-218.55"/>
<polygon fill="black" stroke="black" points="981.27,-219.26 978.9,-208.94 974.31,-218.49 981.27,-219.26"/>
</g>
<!-- table::add_box -->
<g id="node29" class="node">
<title>table::add_box</title>
<ellipse fill="none" stroke="black" cx="1246" cy="-189" rx="40.89" ry="18"/>
<text text-anchor="middle" x="1246" y="-185.3" font-family="Times,serif" font-size="14.00">add_box</text>
</g>
<!-- table::add&#45;&gt;table::add_box -->
<g id="edge32" class="edge">
<title>table::add&#45;&gt;table::add_box</title>
<path fill="none" stroke="black" d="M1224.59,-254.22C1228.08,-243.75 1232.66,-230.03 1236.68,-217.95"/>
<polygon fill="black" stroke="black" points="1240,-219.07 1239.84,-208.48 1233.36,-216.86 1240,-219.07"/>
</g>
<!-- error::not_found&#45;&gt;error::canonical -->
<g id="edge33" class="edge">
<title>error::not_found&#45;&gt;error::canonical</title>
<path fill="none" stroke="black" d="M132.96,-171.61C142.69,-160.19 155.84,-144.75 166.85,-131.83"/>
<polygon fill="black" stroke="black" points="169.26,-134.4 173.08,-124.52 163.93,-129.86 169.26,-134.4"/>
</g>
<!-- token::merge&#45;&gt;error::invalid_argument -->
<g id="edge34" class="edge">
<title>token::merge&#45;&gt;error::invalid_argument</title>
<path fill="none" stroke="black" d="M268.03,-253.82C266.26,-243.58 263.97,-230.33 261.93,-218.55"/>
<polygon fill="black" stroke="black" points="265.42,-218.18 260.27,-208.92 258.53,-219.37 265.42,-218.18"/>
</g>
<!-- table::new_table_handle -->
<g id="node30" class="node">
<title>table::new_table_handle</title>
<ellipse fill="none" stroke="black" cx="1380" cy="-189" rx="74.99" ry="18"/>
<text text-anchor="middle" x="1380" y="-185.3" font-family="Times,serif" font-size="14.00">new_table_handle</text>
</g>
<!-- table::new&#45;&gt;table::new_table_handle -->
<g id="edge35" class="edge">
<title>table::new&#45;&gt;table::new_table_handle</title>
<path fill="none" stroke="black" d="M1344.11,-254.61C1350.09,-243.85 1358.05,-229.51 1364.95,-217.08"/>
<polygon fill="black" stroke="black" points="1367.91,-218.97 1369.71,-208.53 1361.79,-215.57 1367.91,-218.97"/>
</g>
<!-- event::new_event_handle -->
<g id="node31" class="node">
<title>event::new_event_handle</title>
<ellipse fill="none" stroke="black" cx="549" cy="-189" rx="76.89" ry="18"/>
<text text-anchor="middle" x="549" y="-185.3" font-family="Times,serif" font-size="14.00">new_event_handle</text>
</g>
<!-- account::new_event_handle&#45;&gt;event::new_event_handle -->
<g id="edge36" class="edge">
<title>account::new_event_handle&#45;&gt;event::new_event_handle</title>
<path fill="none" stroke="black" d="M696.48,-256.51C681.41,-251.01 664.32,-244.5 649,-238 629.44,-229.7 608.16,-219.64 590.28,-210.87"/>
<polygon fill="black" stroke="black" points="592.06,-207.85 581.54,-206.56 588.96,-214.12 592.06,-207.85"/>
</g>
<!-- account::create_guid -->
<g id="node32" class="node">
<title>account::create_guid</title>
<ellipse fill="none" stroke="black" cx="763" cy="-189" rx="51.99" ry="18"/>
<text text-anchor="middle" x="763" y="-185.3" font-family="Times,serif" font-size="14.00">create_guid</text>
</g>
<!-- account::new_event_handle&#45;&gt;account::create_guid -->
<g id="edge37" class="edge">
<title>account::new_event_handle&#45;&gt;account::create_guid</title>
<path fill="none" stroke="black" d="M743.3,-253.82C746.52,-243.41 750.7,-229.87 754.38,-217.94"/>
<polygon fill="black" stroke="black" points="757.65,-219.19 757.26,-208.6 750.97,-217.12 757.65,-219.19"/>
</g>
<!-- account::create_guid&#45;&gt;signer::address_of -->
<g id="edge38" class="edge">
<title>account::create_guid&#45;&gt;signer::address_of</title>
<path fill="none" stroke="black" d="M794.42,-174.2C805.9,-168.72 818.81,-162.05 830,-155 841.61,-147.69 853.64,-138.6 863.91,-130.3"/>
<polygon fill="black" stroke="black" points="866.13,-133 871.62,-123.94 861.68,-127.6 866.13,-133"/>
</g>
<!-- guid::create -->
<g id="node33" class="node">
<title>guid::create</title>
<ellipse fill="none" stroke="black" cx="786" cy="-106" rx="31.7" ry="18"/>
<text text-anchor="middle" x="786" y="-102.3" font-family="Times,serif" font-size="14.00">create</text>
</g>
<!-- account::create_guid&#45;&gt;guid::create -->
<g id="edge39" class="edge">
<title>account::create_guid&#45;&gt;guid::create</title>
<path fill="none" stroke="black" d="M767.88,-170.82C770.84,-160.41 774.68,-146.87 778.07,-134.94"/>
<polygon fill="black" stroke="black" points="781.35,-136.19 780.72,-125.61 774.62,-134.27 781.35,-136.19"/>
</g>
</g>
</svg>
