<?xml version="1.0" encoding="UTF-8" standalone="no"?>
<!DOCTYPE svg PUBLIC "-//W3C//DTD SVG 1.1//EN"
 "http://www.w3.org/Graphics/SVG/1.1/DTD/svg11.dtd">
<!-- Generated by graphviz version 7.0.0 (20221023.0053)
 -->
<!-- Title: G Pages: 1 -->
<svg width="766pt" height="279pt"
 viewBox="0.00 0.00 766.00 279.00" xmlns="http://www.w3.org/2000/svg" xmlns:xlink="http://www.w3.org/1999/xlink">
<g id="graph0" class="graph" transform="scale(1 1) rotate(0) translate(4 275)">
<title>G</title>
<polygon fill="white" stroke="none" points="-4,4 -4,-275 762,-275 762,4 -4,4"/>
<g id="clust1" class="cluster">
<title>cluster_table</title>
<polygon fill="none" stroke="black" points="8,-8 8,-155 302,-155 302,-8 8,-8"/>
<text text-anchor="middle" x="155" y="-139.8" font-family="Times,serif" font-size="14.00">table</text>
</g>
<g id="clust2" class="cluster">
<title>cluster_error</title>
<polygon fill="none" stroke="black" points="468,-8 468,-155 750,-155 750,-8 468,-8"/>
<text text-anchor="middle" x="609" y="-139.8" font-family="Times,serif" font-size="14.00">error</text>
</g>
<g id="clust3" class="cluster">
<title>cluster_signer</title>
<polygon fill="none" stroke="black" points="310,-8 310,-155 460,-155 460,-8 310,-8"/>
<text text-anchor="middle" x="385" y="-139.8" font-family="Times,serif" font-size="14.00">signer</text>
</g>
<!-- mutate_tokendata_royalty -->
<g id="node1" class="node">
<title>mutate_tokendata_royalty</title>
<ellipse fill="none" stroke="black" cx="429" cy="-253" rx="102.88" ry="18"/>
<text text-anchor="middle" x="429" y="-249.3" font-family="Times,serif" font-size="14.00">mutate_tokendata_royalty</text>
</g>
<!-- table::borrow_mut -->
<g id="node2" class="node">
<title>table::borrow_mut</title>
<ellipse fill="none" stroke="black" cx="115" cy="-106" rx="54.69" ry="18"/>
<text text-anchor="middle" x="115" y="-102.3" font-family="Times,serif" font-size="14.00">borrow_mut</text>
</g>
<!-- mutate_tokendata_royalty&#45;&gt;table::borrow_mut -->
<g id="edge1" class="edge">
<title>mutate_tokendata_royalty&#45;&gt;table::borrow_mut</title>
<path fill="none" stroke="black" d="M386.11,-236.23C338.74,-218.33 260.63,-187.4 196,-155 179.97,-146.96 162.81,-137 148.43,-128.24"/>
<polygon fill="black" stroke="black" points="150.6,-125.47 140.25,-123.2 146.92,-131.43 150.6,-125.47"/>
</g>
<!-- error::permission_denied -->
<g id="node3" class="node">
<title>error::permission_denied</title>
<ellipse fill="none" stroke="black" cx="665" cy="-106" rx="77.19" ry="18"/>
<text text-anchor="middle" x="665" y="-102.3" font-family="Times,serif" font-size="14.00">permission_denied</text>
</g>
<!-- mutate_tokendata_royalty&#45;&gt;error::permission_denied -->
<g id="edge2" class="edge">
<title>mutate_tokendata_royalty&#45;&gt;error::permission_denied</title>
<path fill="none" stroke="black" d="M463.47,-235.66C483.77,-225.7 509.75,-212.34 532,-199 568.03,-177.39 607.37,-149.62 633.85,-130.26"/>
<polygon fill="black" stroke="black" points="635.79,-133.18 641.78,-124.44 631.65,-127.54 635.79,-133.18"/>
</g>
<!-- assert_tokendata_exists -->
<g id="node4" class="node">
<title>assert_tokendata_exists</title>
<ellipse fill="none" stroke="black" cx="429" cy="-181" rx="93.68" ry="18"/>
<text text-anchor="middle" x="429" y="-177.3" font-family="Times,serif" font-size="14.00">assert_tokendata_exists</text>
</g>
<!-- mutate_tokendata_royalty&#45;&gt;assert_tokendata_exists -->
<g id="edge3" class="edge">
<title>mutate_tokendata_royalty&#45;&gt;assert_tokendata_exists</title>
<path fill="none" stroke="black" d="M429,-234.7C429,-227.41 429,-218.73 429,-210.54"/>
<polygon fill="black" stroke="black" points="432.5,-210.62 429,-200.62 425.5,-210.62 432.5,-210.62"/>
</g>
<!-- table::borrow_box_mut -->
<g id="node5" class="node">
<title>table::borrow_box_mut</title>
<ellipse fill="none" stroke="black" cx="88" cy="-34" rx="72.29" ry="18"/>
<text text-anchor="middle" x="88" y="-30.3" font-family="Times,serif" font-size="14.00">borrow_box_mut</text>
</g>
<!-- table::borrow_mut&#45;&gt;table::borrow_box_mut -->
<g id="edge4" class="edge">
<title>table::borrow_mut&#45;&gt;table::borrow_box_mut</title>
<path fill="none" stroke="black" d="M108.33,-87.7C105.42,-80.15 101.93,-71.12 98.68,-62.68"/>
<polygon fill="black" stroke="black" points="102.01,-61.59 95.14,-53.52 95.48,-64.11 102.01,-61.59"/>
</g>
<!-- error::canonical -->
<g id="node6" class="node">
<title>error::canonical</title>
<ellipse fill="none" stroke="black" cx="594" cy="-34" rx="44.39" ry="18"/>
<text text-anchor="middle" x="594" y="-30.3" font-family="Times,serif" font-size="14.00">canonical</text>
</g>
<!-- error::permission_denied&#45;&gt;error::canonical -->
<g id="edge5" class="edge">
<title>error::permission_denied&#45;&gt;error::canonical</title>
<path fill="none" stroke="black" d="M647.81,-88.05C638.93,-79.29 627.93,-68.45 618.2,-58.86"/>
<polygon fill="black" stroke="black" points="620.71,-56.42 611.13,-51.89 615.8,-61.41 620.71,-56.42"/>
</g>
<!-- assert_tokendata_exists&#45;&gt;error::permission_denied -->
<g id="edge9" class="edge">
<title>assert_tokendata_exists&#45;&gt;error::permission_denied</title>
<path fill="none" stroke="black" d="M510.07,-171.7C532.78,-167.98 557.2,-162.64 579,-155 597.13,-148.64 615.92,-138.62 631.29,-129.37"/>
<polygon fill="black" stroke="black" points="632.91,-132.48 639.57,-124.25 629.23,-126.53 632.91,-132.48"/>
</g>
<!-- table::contains -->
<g id="node7" class="node">
<title>table::contains</title>
<ellipse fill="none" stroke="black" cx="245" cy="-106" rx="40.09" ry="18"/>
<text text-anchor="middle" x="245" y="-102.3" font-family="Times,serif" font-size="14.00">contains</text>
</g>
<!-- assert_tokendata_exists&#45;&gt;table::contains -->
<g id="edge6" class="edge">
<title>assert_tokendata_exists&#45;&gt;table::contains</title>
<path fill="none" stroke="black" d="M352.75,-170.26C336.86,-166.66 320.53,-161.73 306,-155 292.76,-148.87 279.81,-139.34 269.27,-130.38"/>
<polygon fill="black" stroke="black" points="271.61,-127.78 261.81,-123.76 266.96,-133.01 271.61,-127.78"/>
</g>
<!-- signer::address_of -->
<g id="node8" class="node">
<title>signer::address_of</title>
<ellipse fill="none" stroke="black" cx="394" cy="-106" rx="48.99" ry="18"/>
<text text-anchor="middle" x="394" y="-102.3" font-family="Times,serif" font-size="14.00">address_of</text>
</g>
<!-- assert_tokendata_exists&#45;&gt;signer::address_of -->
<g id="edge7" class="edge">
<title>assert_tokendata_exists&#45;&gt;signer::address_of</title>
<path fill="none" stroke="black" d="M420.71,-162.7C416.65,-154.25 411.68,-143.87 407.12,-134.37"/>
<polygon fill="black" stroke="black" points="410.37,-133.04 402.89,-125.54 404.06,-136.07 410.37,-133.04"/>
</g>
<!-- error::not_found -->
<g id="node9" class="node">
<title>error::not_found</title>
<ellipse fill="none" stroke="black" cx="523" cy="-106" rx="46.59" ry="18"/>
<text text-anchor="middle" x="523" y="-102.3" font-family="Times,serif" font-size="14.00">not_found</text>
</g>
<!-- assert_tokendata_exists&#45;&gt;error::not_found -->
<g id="edge8" class="edge">
<title>assert_tokendata_exists&#45;&gt;error::not_found</title>
<path fill="none" stroke="black" d="M452.87,-163.25C456.62,-160.53 460.44,-157.72 464,-155 474.34,-147.11 485.46,-138.19 495.23,-130.19"/>
<polygon fill="black" stroke="black" points="497.45,-132.89 502.94,-123.83 493,-127.49 497.45,-132.89"/>
</g>
<!-- table::contains_box -->
<g id="node10" class="node">
<title>table::contains_box</title>
<ellipse fill="none" stroke="black" cx="236" cy="-34" rx="57.69" ry="18"/>
<text text-anchor="middle" x="236" y="-30.3" font-family="Times,serif" font-size="14.00">contains_box</text>
</g>
<!-- table::contains&#45;&gt;table::contains_box -->
<g id="edge10" class="edge">
<title>table::contains&#45;&gt;table::contains_box</title>
<path fill="none" stroke="black" d="M242.78,-87.7C241.83,-80.32 240.7,-71.52 239.63,-63.25"/>
<polygon fill="black" stroke="black" points="243.14,-63.08 238.39,-53.61 236.2,-63.97 243.14,-63.08"/>
</g>
<!-- signer::borrow_address -->
<g id="node11" class="node">
<title>signer::borrow_address</title>
<ellipse fill="none" stroke="black" cx="385" cy="-34" rx="66.89" ry="18"/>
<text text-anchor="middle" x="385" y="-30.3" font-family="Times,serif" font-size="14.00">borrow_address</text>
</g>
<!-- signer::address_of&#45;&gt;signer::borrow_address -->
<g id="edge11" class="edge">
<title>signer::address_of&#45;&gt;signer::borrow_address</title>
<path fill="none" stroke="black" d="M391.78,-87.7C390.83,-80.32 389.7,-71.52 388.63,-63.25"/>
<polygon fill="black" stroke="black" points="392.14,-63.08 387.39,-53.61 385.2,-63.97 392.14,-63.08"/>
</g>
<!-- error::not_found&#45;&gt;error::canonical -->
<g id="edge12" class="edge">
<title>error::not_found&#45;&gt;error::canonical</title>
<path fill="none" stroke="black" d="M539.47,-88.76C548.43,-79.93 559.69,-68.83 569.64,-59.01"/>
<polygon fill="black" stroke="black" points="571.88,-61.72 576.54,-52.21 566.97,-56.74 571.88,-61.72"/>
</g>
</g>
</svg>
