<?xml version="1.0" encoding="UTF-8" standalone="no"?>
<!DOCTYPE svg PUBLIC "-//W3C//DTD SVG 1.1//EN"
 "http://www.w3.org/Graphics/SVG/1.1/DTD/svg11.dtd">
<!-- Generated by graphviz version 7.0.0 (20221023.0053)
 -->
<!-- Title: G Pages: 1 -->
<svg width="1388pt" height="548pt"
 viewBox="0.00 0.00 1388.32 548.00" xmlns="http://www.w3.org/2000/svg" xmlns:xlink="http://www.w3.org/1999/xlink">
<g id="graph0" class="graph" transform="scale(1 1) rotate(0) translate(4 544)">
<title>G</title>
<polygon fill="white" stroke="none" points="-4,4 -4,-544 1384.32,-544 1384.32,4 -4,4"/>
<!-- token -->
<g id="node1" class="node">
<title>token</title>
<ellipse fill="none" stroke="black" cx="716.32" cy="-522" rx="30.59" ry="18"/>
<text text-anchor="middle" x="716.32" y="-518.3" font-family="Times,serif" font-size="14.00">token</text>
</g>
<!-- option -->
<g id="node2" class="node">
<title>option</title>
<ellipse fill="none" stroke="black" cx="432.32" cy="-90" rx="33.29" ry="18"/>
<text text-anchor="middle" x="432.32" y="-86.3" font-family="Times,serif" font-size="14.00">option</text>
</g>
<!-- token&#45;&gt;option -->
<g id="edge1" class="edge">
<title>token&#45;&gt;option</title>
<path fill="none" stroke="black" d="M685.61,-520.55C565.42,-518.04 130,-501.66 57.32,-396 -9.28,-299.18 -72.71,-334.1 205.32,-144 260.41,-106.33 338.72,-95.2 387.47,-92.05"/>
<polygon fill="black" stroke="black" points="387.6,-95.55 397.39,-91.5 387.21,-88.56 387.6,-95.55"/>
</g>
<!-- string -->
<g id="node3" class="node">
<title>string</title>
<ellipse fill="none" stroke="black" cx="1295.32" cy="-162" rx="30.59" ry="18"/>
<text text-anchor="middle" x="1295.32" y="-158.3" font-family="Times,serif" font-size="14.00">string</text>
</g>
<!-- token&#45;&gt;string -->
<g id="edge2" class="edge">
<title>token&#45;&gt;string</title>
<path fill="none" stroke="black" d="M747.02,-521.08C877.61,-520.61 1380.32,-510.29 1380.32,-379 1380.32,-379 1380.32,-379 1380.32,-305 1380.32,-257.24 1344.49,-211.64 1319.36,-185.53"/>
<polygon fill="black" stroke="black" points="1321.91,-183.13 1312.38,-178.52 1316.95,-188.07 1321.91,-183.13"/>
</g>
<!-- table -->
<g id="node4" class="node">
<title>table</title>
<ellipse fill="none" stroke="black" cx="94.32" cy="-378" rx="27.9" ry="18"/>
<text text-anchor="middle" x="94.32" y="-374.3" font-family="Times,serif" font-size="14.00">table</text>
</g>
<!-- token&#45;&gt;table -->
<g id="edge3" class="edge">
<title>token&#45;&gt;table</title>
<path fill="none" stroke="black" d="M686.25,-517.35C628.23,-510.04 496.99,-492.21 388.32,-468 274.63,-442.67 246.46,-433.91 136.32,-396 133.59,-395.06 130.78,-394.04 127.96,-392.98"/>
<polygon fill="black" stroke="black" points="129.26,-389.73 118.67,-389.35 126.71,-396.25 129.26,-389.73"/>
</g>
<!-- signer -->
<g id="node5" class="node">
<title>signer</title>
<ellipse fill="none" stroke="black" cx="768.32" cy="-306" rx="32.49" ry="18"/>
<text text-anchor="middle" x="768.32" y="-302.3" font-family="Times,serif" font-size="14.00">signer</text>
</g>
<!-- token&#45;&gt;signer -->
<g id="edge4" class="edge">
<title>token&#45;&gt;signer</title>
<path fill="none" stroke="black" d="M715.93,-503.53C715.78,-473.36 717.82,-409.93 735.32,-360 738.73,-350.3 744.14,-340.5 749.6,-332.02"/>
<polygon fill="black" stroke="black" points="752.33,-334.24 755.07,-324 746.55,-330.29 752.33,-334.24"/>
</g>
<!-- error -->
<g id="node6" class="node">
<title>error</title>
<ellipse fill="none" stroke="black" cx="885.32" cy="-234" rx="27.9" ry="18"/>
<text text-anchor="middle" x="885.32" y="-230.3" font-family="Times,serif" font-size="14.00">error</text>
</g>
<!-- token&#45;&gt;error -->
<g id="edge5" class="edge">
<title>token&#45;&gt;error</title>
<path fill="none" stroke="black" d="M747.29,-521.56C819.4,-521.94 1003.28,-517.54 1146.32,-468 1204.74,-447.77 1234.97,-449.85 1265.32,-396 1339.25,-264.87 1035.9,-240.54 924.73,-236.02"/>
<polygon fill="black" stroke="black" points="925,-232.53 914.88,-235.66 924.75,-239.53 925,-232.53"/>
</g>
<!-- event -->
<g id="node7" class="node">
<title>event</title>
<ellipse fill="none" stroke="black" cx="284.32" cy="-378" rx="29.8" ry="18"/>
<text text-anchor="middle" x="284.32" y="-374.3" font-family="Times,serif" font-size="14.00">event</text>
</g>
<!-- token&#45;&gt;event -->
<g id="edge6" class="edge">
<title>token&#45;&gt;event</title>
<path fill="none" stroke="black" d="M686.97,-516.46C641.65,-509.01 552.26,-492.5 479.32,-468 419.67,-447.96 353.74,-415.56 315.85,-395.88"/>
<polygon fill="black" stroke="black" points="317.76,-392.92 307.28,-391.38 314.52,-399.13 317.76,-392.92"/>
</g>
<!-- account -->
<g id="node8" class="node">
<title>account</title>
<ellipse fill="none" stroke="black" cx="526.32" cy="-450" rx="38.19" ry="18"/>
<text text-anchor="middle" x="526.32" y="-446.3" font-family="Times,serif" font-size="14.00">account</text>
</g>
<!-- token&#45;&gt;account -->
<g id="edge7" class="edge">
<title>token&#45;&gt;account</title>
<path fill="none" stroke="black" d="M690.7,-511.56C658.8,-499.81 603.96,-479.6 566.46,-465.79"/>
<polygon fill="black" stroke="black" points="567.92,-462.59 557.32,-462.42 565.5,-469.16 567.92,-462.59"/>
</g>
<!-- timestamp -->
<g id="node9" class="node">
<title>timestamp</title>
<ellipse fill="none" stroke="black" cx="817.32" cy="-450" rx="48.19" ry="18"/>
<text text-anchor="middle" x="817.32" y="-446.3" font-family="Times,serif" font-size="14.00">timestamp</text>
</g>
<!-- token&#45;&gt;timestamp -->
<g id="edge8" class="edge">
<title>token&#45;&gt;timestamp</title>
<path fill="none" stroke="black" d="M735.32,-507.83C749.56,-497.97 769.35,-484.25 785.93,-472.76"/>
<polygon fill="black" stroke="black" points="787.78,-475.74 794,-467.16 783.79,-469.98 787.78,-475.74"/>
</g>
<!-- property_map -->
<g id="node10" class="node">
<title>property_map</title>
<ellipse fill="none" stroke="black" cx="1077.32" cy="-450" rx="60.39" ry="18"/>
<text text-anchor="middle" x="1077.32" y="-446.3" font-family="Times,serif" font-size="14.00">property_map</text>
</g>
<!-- token&#45;&gt;property_map -->
<g id="edge9" class="edge">
<title>token&#45;&gt;property_map</title>
<path fill="none" stroke="black" d="M745.25,-515.39C803.86,-504.03 937.7,-478.07 1016.4,-462.81"/>
<polygon fill="black" stroke="black" points="1016.96,-466.27 1026.11,-460.93 1015.63,-459.4 1016.96,-466.27"/>
</g>
<!-- vector -->
<g id="node11" class="node">
<title>vector</title>
<ellipse fill="none" stroke="black" cx="432.32" cy="-18" rx="32.49" ry="18"/>
<text text-anchor="middle" x="432.32" y="-14.3" font-family="Times,serif" font-size="14.00">vector</text>
</g>
<!-- option&#45;&gt;vector -->
<g id="edge10" class="edge">
<title>option&#45;&gt;vector</title>
<path fill="none" stroke="black" d="M432.32,-71.7C432.32,-64.41 432.32,-55.73 432.32,-47.54"/>
<polygon fill="black" stroke="black" points="435.82,-47.62 432.32,-37.62 428.82,-47.62 435.82,-47.62"/>
</g>
<!-- string&#45;&gt;option -->
<g id="edge12" class="edge">
<title>string&#45;&gt;option</title>
<path fill="none" stroke="black" d="M1270.04,-151.5C1261.37,-148.62 1251.53,-145.75 1242.32,-144 1093.54,-115.72 623.64,-97.57 476.69,-92.47"/>
<polygon fill="black" stroke="black" points="477.1,-88.98 466.99,-92.14 476.86,-95.98 477.1,-88.98"/>
</g>
<!-- string&#45;&gt;vector -->
<g id="edge11" class="edge">
<title>string&#45;&gt;vector</title>
<path fill="none" stroke="black" d="M1269.4,-151.79C1260.86,-148.99 1251.26,-146.11 1242.32,-144 953.5,-75.84 597.68,-35.78 475.71,-23.27"/>
<polygon fill="black" stroke="black" points="476.13,-19.79 465.82,-22.26 475.42,-26.75 476.13,-19.79"/>
</g>
<!-- bcs -->
<g id="node12" class="node">
<title>bcs</title>
<ellipse fill="none" stroke="black" cx="498.32" cy="-234" rx="27" ry="18"/>
<text text-anchor="middle" x="498.32" y="-230.3" font-family="Times,serif" font-size="14.00">bcs</text>
</g>
<!-- event&#45;&gt;bcs -->
<g id="edge13" class="edge">
<title>event&#45;&gt;bcs</title>
<path fill="none" stroke="black" d="M303.69,-364.15C341.68,-338.94 426.1,-282.92 470.23,-253.64"/>
<polygon fill="black" stroke="black" points="472.1,-256.6 478.5,-248.15 468.23,-250.77 472.1,-256.6"/>
</g>
<!-- guid -->
<g id="node13" class="node">
<title>guid</title>
<ellipse fill="none" stroke="black" cx="246.32" cy="-306" rx="27" ry="18"/>
<text text-anchor="middle" x="246.32" y="-302.3" font-family="Times,serif" font-size="14.00">guid</text>
</g>
<!-- event&#45;&gt;guid -->
<g id="edge14" class="edge">
<title>event&#45;&gt;guid</title>
<path fill="none" stroke="black" d="M275.32,-360.41C270.96,-352.39 265.63,-342.57 260.73,-333.54"/>
<polygon fill="black" stroke="black" points="263.83,-331.92 255.99,-324.8 257.68,-335.26 263.83,-331.92"/>
</g>
<!-- account&#45;&gt;option -->
<g id="edge16" class="edge">
<title>account&#45;&gt;option</title>
<path fill="none" stroke="black" d="M488.51,-446.45C418.3,-441.03 271.27,-426.32 231.32,-396 196.33,-369.44 188.32,-350.93 188.32,-307 188.32,-307 188.32,-307 188.32,-233 188.32,-141.42 318.31,-107.88 388.53,-96.44"/>
<polygon fill="black" stroke="black" points="388.82,-99.94 398.17,-94.96 387.76,-93.02 388.82,-99.94"/>
</g>
<!-- account&#45;&gt;table -->
<g id="edge18" class="edge">
<title>account&#45;&gt;table</title>
<path fill="none" stroke="black" d="M488.33,-446.99C417.88,-442.56 262.62,-429.58 136.32,-396 133.36,-395.21 130.33,-394.27 127.31,-393.24"/>
<polygon fill="black" stroke="black" points="128.65,-390 118.06,-389.77 126.19,-396.56 128.65,-390"/>
</g>
<!-- account&#45;&gt;signer -->
<g id="edge19" class="edge">
<title>account&#45;&gt;signer</title>
<path fill="none" stroke="black" d="M557.16,-438.89C583.79,-429.54 622.84,-414.35 654.32,-396 663.56,-390.61 711,-352.98 741.7,-328.4"/>
<polygon fill="black" stroke="black" points="743.83,-331.18 749.44,-322.19 739.45,-325.72 743.83,-331.18"/>
</g>
<!-- account&#45;&gt;error -->
<g id="edge20" class="edge">
<title>account&#45;&gt;error</title>
<path fill="none" stroke="black" d="M549.95,-435.41C566.96,-425.27 590.2,-410.68 609.32,-396 665.72,-352.71 666.07,-324.09 727.32,-288 765.45,-265.53 814.43,-250.99 847.67,-242.93"/>
<polygon fill="black" stroke="black" points="848.32,-246.37 857.26,-240.69 846.72,-239.56 848.32,-246.37"/>
</g>
<!-- account&#45;&gt;event -->
<g id="edge28" class="edge">
<title>account&#45;&gt;event</title>
<path fill="none" stroke="black" d="M492.72,-441.17C453.07,-431.67 385.33,-414.58 328.32,-396 325.26,-395 322.09,-393.91 318.93,-392.77"/>
<polygon fill="black" stroke="black" points="320.37,-389.57 309.78,-389.35 317.92,-396.13 320.37,-389.57"/>
</g>
<!-- account&#45;&gt;vector -->
<g id="edge15" class="edge">
<title>account&#45;&gt;vector</title>
<path fill="none" stroke="black" d="M489.31,-445C407.76,-435.92 217.95,-413.19 194.32,-396 129.39,-348.75 112.32,-315.3 112.32,-235 112.32,-235 112.32,-235 112.32,-161 112.32,-41.73 300.34,-21.87 388.14,-19.1"/>
<polygon fill="black" stroke="black" points="388.16,-22.6 398.07,-18.86 387.98,-15.61 388.16,-22.6"/>
</g>
<!-- account&#45;&gt;bcs -->
<g id="edge23" class="edge">
<title>account&#45;&gt;bcs</title>
<path fill="none" stroke="black" d="M524.08,-431.85C519.28,-395.14 507.96,-308.66 502.06,-263.53"/>
<polygon fill="black" stroke="black" points="505.54,-263.19 500.77,-253.73 498.6,-264.1 505.54,-263.19"/>
</g>
<!-- account&#45;&gt;guid -->
<g id="edge26" class="edge">
<title>account&#45;&gt;guid</title>
<path fill="none" stroke="black" d="M488.12,-447.6C418.59,-444.16 275.74,-432.69 245.32,-396 231.52,-379.35 233.11,-354.31 237.38,-335.02"/>
<polygon fill="black" stroke="black" points="240.77,-335.91 239.9,-325.35 234,-334.15 240.77,-335.91"/>
</g>
<!-- type_info -->
<g id="node14" class="node">
<title>type_info</title>
<ellipse fill="none" stroke="black" cx="732.32" cy="-234" rx="44.39" ry="18"/>
<text text-anchor="middle" x="732.32" y="-230.3" font-family="Times,serif" font-size="14.00">type_info</text>
</g>
<!-- account&#45;&gt;type_info -->
<g id="edge17" class="edge">
<title>account&#45;&gt;type_info</title>
<path fill="none" stroke="black" d="M541.47,-433.26C577.1,-396.25 666.4,-303.48 709.01,-259.22"/>
<polygon fill="black" stroke="black" points="711.41,-261.77 715.82,-252.14 706.37,-256.92 711.41,-261.77"/>
</g>
<!-- system_addresses -->
<g id="node15" class="node">
<title>system_addresses</title>
<ellipse fill="none" stroke="black" cx="817.32" cy="-378" rx="73.39" ry="18"/>
<text text-anchor="middle" x="817.32" y="-374.3" font-family="Times,serif" font-size="14.00">system_addresses</text>
</g>
<!-- account&#45;&gt;system_addresses -->
<g id="edge21" class="edge">
<title>account&#45;&gt;system_addresses</title>
<path fill="none" stroke="black" d="M559.99,-440.9C607.57,-429.46 695.31,-408.35 754.98,-394"/>
<polygon fill="black" stroke="black" points="755.77,-397.41 764.67,-391.66 754.13,-390.6 755.77,-397.41"/>
</g>
<!-- hash -->
<g id="node16" class="node">
<title>hash</title>
<ellipse fill="none" stroke="black" cx="380.32" cy="-234" rx="27" ry="18"/>
<text text-anchor="middle" x="380.32" y="-230.3" font-family="Times,serif" font-size="14.00">hash</text>
</g>
<!-- account&#45;&gt;hash -->
<g id="edge22" class="edge">
<title>account&#45;&gt;hash</title>
<path fill="none" stroke="black" d="M493.06,-440.55C447.2,-428.58 369.28,-406.91 361.32,-396 332.45,-356.39 351.65,-296.17 366.88,-261.7"/>
<polygon fill="black" stroke="black" points="369.96,-263.4 370.99,-252.85 363.61,-260.45 369.96,-263.4"/>
</g>
<!-- ed25519 -->
<g id="node17" class="node">
<title>ed25519</title>
<ellipse fill="none" stroke="black" cx="563.32" cy="-306" rx="40.89" ry="18"/>
<text text-anchor="middle" x="563.32" y="-302.3" font-family="Times,serif" font-size="14.00">ed25519</text>
</g>
<!-- account&#45;&gt;ed25519 -->
<g id="edge24" class="edge">
<title>account&#45;&gt;ed25519</title>
<path fill="none" stroke="black" d="M530.89,-431.82C533.63,-421.45 537.2,-407.97 540.32,-396 545.63,-375.68 551.56,-352.72 556.07,-335.22"/>
<polygon fill="black" stroke="black" points="559.46,-336.09 558.56,-325.53 552.68,-334.35 559.46,-336.09"/>
</g>
<!-- multi_ed25519 -->
<g id="node18" class="node">
<title>multi_ed25519</title>
<ellipse fill="none" stroke="black" cx="434.32" cy="-378" rx="64.19" ry="18"/>
<text text-anchor="middle" x="434.32" y="-374.3" font-family="Times,serif" font-size="14.00">multi_ed25519</text>
</g>
<!-- account&#45;&gt;multi_ed25519 -->
<g id="edge25" class="edge">
<title>account&#45;&gt;multi_ed25519</title>
<path fill="none" stroke="black" d="M506.81,-434.15C494.64,-424.89 478.72,-412.78 464.89,-402.26"/>
<polygon fill="black" stroke="black" points="467.02,-399.48 456.94,-396.21 462.78,-405.05 467.02,-399.48"/>
</g>
<!-- from_bcs -->
<g id="node19" class="node">
<title>from_bcs</title>
<ellipse fill="none" stroke="black" cx="1194.32" cy="-378" rx="44.39" ry="18"/>
<text text-anchor="middle" x="1194.32" y="-374.3" font-family="Times,serif" font-size="14.00">from_bcs</text>
</g>
<!-- account&#45;&gt;from_bcs -->
<g id="edge27" class="edge">
<title>account&#45;&gt;from_bcs</title>
<path fill="none" stroke="black" d="M563.81,-446.26C688.53,-437.08 1084.78,-407.35 1141.32,-396 1144.48,-395.37 1147.71,-394.61 1150.94,-393.78"/>
<polygon fill="black" stroke="black" points="1151.71,-397.19 1160.37,-391.1 1149.8,-390.46 1151.71,-397.19"/>
</g>
<!-- timestamp&#45;&gt;error -->
<g id="edge29" class="edge">
<title>timestamp&#45;&gt;error</title>
<path fill="none" stroke="black" d="M850.54,-436.79C868.45,-428.31 888.95,-415.06 899.32,-396 922.34,-353.71 908.21,-295.78 896.39,-262.17"/>
<polygon fill="black" stroke="black" points="899.82,-261.34 893.05,-253.18 893.25,-263.78 899.82,-261.34"/>
</g>
<!-- timestamp&#45;&gt;system_addresses -->
<g id="edge30" class="edge">
<title>timestamp&#45;&gt;system_addresses</title>
<path fill="none" stroke="black" d="M817.32,-431.7C817.32,-424.41 817.32,-415.73 817.32,-407.54"/>
<polygon fill="black" stroke="black" points="820.82,-407.62 817.32,-397.62 813.82,-407.62 820.82,-407.62"/>
</g>
<!-- property_map&#45;&gt;string -->
<g id="edge31" class="edge">
<title>property_map&#45;&gt;string</title>
<path fill="none" stroke="black" d="M1137.45,-447.82C1179.2,-443.68 1232.94,-431.18 1265.32,-396 1317.27,-339.57 1309.08,-240.31 1301.08,-191.6"/>
<polygon fill="black" stroke="black" points="1304.55,-191.08 1299.35,-181.85 1297.65,-192.31 1304.55,-191.08"/>
</g>
<!-- property_map&#45;&gt;error -->
<g id="edge33" class="edge">
<title>property_map&#45;&gt;error</title>
<path fill="none" stroke="black" d="M1131.87,-441.93C1192.24,-431.6 1277.34,-408.12 1247.32,-360 1178.55,-249.73 1003.75,-234.98 924.94,-234.17"/>
<polygon fill="black" stroke="black" points="925.11,-230.67 915.1,-234.14 925.09,-237.67 925.11,-230.67"/>
</g>
<!-- property_map&#45;&gt;bcs -->
<g id="edge34" class="edge">
<title>property_map&#45;&gt;bcs</title>
<path fill="none" stroke="black" d="M1045.71,-434.46C1024.35,-424.33 995.7,-410.15 971.32,-396 896.48,-352.57 889.73,-319.97 809.32,-288 716.04,-250.91 596.92,-239.76 536.77,-236.42"/>
<polygon fill="black" stroke="black" points="537.23,-232.94 527.06,-235.93 536.87,-239.93 537.23,-232.94"/>
</g>
<!-- property_map&#45;&gt;type_info -->
<g id="edge32" class="edge">
<title>property_map&#45;&gt;type_info</title>
<path fill="none" stroke="black" d="M1057.41,-432.55C1044.77,-422.1 1028.07,-408.28 1013.32,-396 954.81,-347.28 946.8,-325.13 880.32,-288 848.63,-270.3 809.92,-256.69 780.04,-247.69"/>
<polygon fill="black" stroke="black" points="781.08,-244.35 770.5,-244.89 779.11,-251.07 781.08,-244.35"/>
</g>
<!-- property_map&#45;&gt;from_bcs -->
<g id="edge35" class="edge">
<title>property_map&#45;&gt;from_bcs</title>
<path fill="none" stroke="black" d="M1103.29,-433.46C1120.1,-423.41 1142.17,-410.2 1160.37,-399.31"/>
<polygon fill="black" stroke="black" points="1161.94,-402.45 1168.73,-394.31 1158.35,-396.44 1161.94,-402.45"/>
</g>
<!-- simple_map -->
<g id="node20" class="node">
<title>simple_map</title>
<ellipse fill="none" stroke="black" cx="1077.32" cy="-378" rx="54.69" ry="18"/>
<text text-anchor="middle" x="1077.32" y="-374.3" font-family="Times,serif" font-size="14.00">simple_map</text>
</g>
<!-- property_map&#45;&gt;simple_map -->
<g id="edge36" class="edge">
<title>property_map&#45;&gt;simple_map</title>
<path fill="none" stroke="black" d="M1077.32,-431.7C1077.32,-424.41 1077.32,-415.73 1077.32,-407.54"/>
<polygon fill="black" stroke="black" points="1080.82,-407.62 1077.32,-397.62 1073.82,-407.62 1080.82,-407.62"/>
</g>
<!-- type_info&#45;&gt;string -->
<g id="edge37" class="edge">
<title>type_info&#45;&gt;string</title>
<path fill="none" stroke="black" d="M773.35,-226.71C795.53,-223.38 823.4,-219.3 848.32,-216 997.36,-196.25 1174.82,-176.25 1253.83,-167.53"/>
<polygon fill="black" stroke="black" points="1254.14,-171.02 1263.7,-166.45 1253.38,-164.06 1254.14,-171.02"/>
</g>
<!-- system_addresses&#45;&gt;signer -->
<g id="edge38" class="edge">
<title>system_addresses&#45;&gt;signer</title>
<path fill="none" stroke="black" d="M805.46,-360.05C799.72,-351.85 792.7,-341.83 786.32,-332.71"/>
<polygon fill="black" stroke="black" points="789.21,-330.73 780.61,-324.55 783.47,-334.75 789.21,-330.73"/>
</g>
<!-- system_addresses&#45;&gt;error -->
<g id="edge39" class="edge">
<title>system_addresses&#45;&gt;error</title>
<path fill="none" stroke="black" d="M825.53,-359.87C837.24,-335.41 858.87,-290.25 872.65,-261.46"/>
<polygon fill="black" stroke="black" points="875.7,-263.21 876.86,-252.68 869.38,-260.18 875.7,-263.21"/>
</g>
<!-- ed25519&#45;&gt;option -->
<g id="edge40" class="edge">
<title>ed25519&#45;&gt;option</title>
<path fill="none" stroke="black" d="M559.73,-287.84C555.4,-269.34 547.09,-239.39 534.32,-216 512.93,-176.81 478.62,-137.95 455.78,-114.21"/>
<polygon fill="black" stroke="black" points="458.48,-111.97 448.99,-107.26 453.48,-116.86 458.48,-111.97"/>
</g>
<!-- ed25519&#45;&gt;error -->
<g id="edge42" class="edge">
<title>ed25519&#45;&gt;error</title>
<path fill="none" stroke="black" d="M595.45,-294.46C602.91,-292.18 610.86,-289.89 618.32,-288 699.04,-267.57 795.11,-250.16 847.18,-241.29"/>
<polygon fill="black" stroke="black" points="847.44,-244.79 856.72,-239.68 846.27,-237.89 847.44,-244.79"/>
</g>
<!-- ed25519&#45;&gt;bcs -->
<g id="edge44" class="edge">
<title>ed25519&#45;&gt;bcs</title>
<path fill="none" stroke="black" d="M548.57,-289.12C540.11,-280.01 529.34,-268.4 519.94,-258.28"/>
<polygon fill="black" stroke="black" points="522.52,-255.92 513.16,-250.97 517.39,-260.68 522.52,-255.92"/>
</g>
<!-- ed25519&#45;&gt;type_info -->
<g id="edge41" class="edge">
<title>ed25519&#45;&gt;type_info</title>
<path fill="none" stroke="black" d="M592.38,-292.97C619.73,-281.64 660.96,-264.56 691.59,-251.87"/>
<polygon fill="black" stroke="black" points="692.64,-255.22 700.54,-248.16 689.96,-248.76 692.64,-255.22"/>
</g>
<!-- ed25519&#45;&gt;hash -->
<g id="edge43" class="edge">
<title>ed25519&#45;&gt;hash</title>
<path fill="none" stroke="black" d="M533.1,-293.44C500.22,-280.86 447.79,-260.81 413.71,-247.77"/>
<polygon fill="black" stroke="black" points="415.34,-244.65 404.75,-244.34 412.84,-251.18 415.34,-244.65"/>
</g>
<!-- multi_ed25519&#45;&gt;option -->
<g id="edge45" class="edge">
<title>multi_ed25519&#45;&gt;option</title>
<path fill="none" stroke="black" d="M416.93,-360.37C395.05,-338.12 358.61,-296.28 344.32,-252 327.25,-199.07 374.39,-143.46 406.1,-113.43"/>
<polygon fill="black" stroke="black" points="408.45,-116.03 413.46,-106.69 403.72,-110.87 408.45,-116.03"/>
</g>
<!-- multi_ed25519&#45;&gt;error -->
<g id="edge46" class="edge">
<title>multi_ed25519&#45;&gt;error</title>
<path fill="none" stroke="black" d="M480.48,-365.12C516.95,-355.3 568.92,-340.36 613.32,-324 650.29,-310.38 657.24,-301.3 694.32,-288 746.95,-269.12 809.7,-252.86 848.54,-243.5"/>
<polygon fill="black" stroke="black" points="848.92,-247 857.83,-241.28 847.29,-240.19 848.92,-247"/>
</g>
<!-- multi_ed25519&#45;&gt;bcs -->
<g id="edge48" class="edge">
<title>multi_ed25519&#45;&gt;bcs</title>
<path fill="none" stroke="black" d="M442.04,-359.87C453.01,-335.54 473.21,-290.73 486.19,-261.93"/>
<polygon fill="black" stroke="black" points="489.23,-263.68 490.15,-253.13 482.85,-260.81 489.23,-263.68"/>
</g>
<!-- multi_ed25519&#45;&gt;hash -->
<g id="edge47" class="edge">
<title>multi_ed25519&#45;&gt;hash</title>
<path fill="none" stroke="black" d="M427.81,-359.87C418.6,-335.65 401.67,-291.12 390.71,-262.31"/>
<polygon fill="black" stroke="black" points="394.06,-261.27 387.23,-253.16 387.51,-263.75 394.06,-261.27"/>
</g>
<!-- multi_ed25519&#45;&gt;ed25519 -->
<g id="edge49" class="edge">
<title>multi_ed25519&#45;&gt;ed25519</title>
<path fill="none" stroke="black" d="M462.95,-361.46C482.26,-350.99 507.85,-337.1 528.35,-325.98"/>
<polygon fill="black" stroke="black" points="529.81,-329.17 536.93,-321.32 526.47,-323.02 529.81,-329.17"/>
</g>
<!-- from_bcs&#45;&gt;string -->
<g id="edge50" class="edge">
<title>from_bcs&#45;&gt;string</title>
<path fill="none" stroke="black" d="M1211.86,-361.26C1221.96,-351.4 1234.21,-337.95 1242.32,-324 1267.37,-280.96 1282.46,-224.47 1289.81,-191.12"/>
<polygon fill="black" stroke="black" points="1293.22,-191.94 1291.86,-181.43 1286.37,-190.49 1293.22,-191.94"/>
</g>
<!-- simple_map&#45;&gt;option -->
<g id="edge51" class="edge">
<title>simple_map&#45;&gt;option</title>
<path fill="none" stroke="black" d="M1089.13,-360.22C1100.89,-341.24 1115.22,-310.1 1100.32,-288 1028.24,-181.09 612.59,-115.58 475.89,-96.69"/>
<polygon fill="black" stroke="black" points="476.55,-93.25 466.16,-95.37 475.6,-100.19 476.55,-93.25"/>
</g>
<!-- simple_map&#45;&gt;error -->
<g id="edge52" class="edge">
<title>simple_map&#45;&gt;error</title>
<path fill="none" stroke="black" d="M1084.13,-359.65C1090.54,-340.14 1097.02,-308.51 1081.32,-288 1062.34,-263.2 975.73,-247.34 924.21,-239.92"/>
<polygon fill="black" stroke="black" points="924.74,-236.47 914.36,-238.55 923.78,-243.4 924.74,-236.47"/>
</g>
<!-- comparator -->
<g id="node21" class="node">
<title>comparator</title>
<ellipse fill="none" stroke="black" cx="1021.32" cy="-306" rx="51.19" ry="18"/>
<text text-anchor="middle" x="1021.32" y="-302.3" font-family="Times,serif" font-size="14.00">comparator</text>
</g>
<!-- simple_map&#45;&gt;comparator -->
<g id="edge53" class="edge">
<title>simple_map&#45;&gt;comparator</title>
<path fill="none" stroke="black" d="M1064.05,-360.41C1057.36,-352.04 1049.09,-341.71 1041.62,-332.37"/>
<polygon fill="black" stroke="black" points="1044.42,-330.27 1035.44,-324.65 1038.96,-334.65 1044.42,-330.27"/>
</g>
<!-- comparator&#45;&gt;bcs -->
<g id="edge54" class="edge">
<title>comparator&#45;&gt;bcs</title>
<path fill="none" stroke="black" d="M973.99,-298.66C871.25,-284.91 629.56,-252.57 536.12,-240.06"/>
<polygon fill="black" stroke="black" points="536.59,-236.59 526.21,-238.73 535.66,-243.53 536.59,-236.59"/>
</g>
</g>
</svg>
