<?xml version="1.0" encoding="UTF-8" standalone="no"?>
<!DOCTYPE svg PUBLIC "-//W3C//DTD SVG 1.1//EN"
 "http://www.w3.org/Graphics/SVG/1.1/DTD/svg11.dtd">
<!-- Generated by graphviz version 7.0.0 (20221023.0053)
 -->
<!-- Title: G Pages: 1 -->
<svg width="2405pt" height="689pt"
 viewBox="0.00 0.00 2405.00 689.00" xmlns="http://www.w3.org/2000/svg" xmlns:xlink="http://www.w3.org/1999/xlink">
<g id="graph0" class="graph" transform="scale(1 1) rotate(0) translate(4 685)">
<title>G</title>
<polygon fill="white" stroke="none" points="-4,4 -4,-685 2401,-685 2401,4 -4,4"/>
<g id="clust1" class="cluster">
<title>cluster_string</title>
<polygon fill="none" stroke="black" points="773,-415 773,-490 853,-490 853,-415 773,-415"/>
<text text-anchor="middle" x="813" y="-474.8" font-family="Times,serif" font-size="14.00">string</text>
</g>
<g id="clust2" class="cluster">
<title>cluster_table</title>
<polygon fill="none" stroke="black" points="1249,-257 1249,-407 1811,-407 1811,-257 1249,-257"/>
<text text-anchor="middle" x="1530" y="-391.8" font-family="Times,serif" font-size="14.00">table</text>
</g>
<g id="clust3" class="cluster">
<title>cluster_signer</title>
<polygon fill="none" stroke="black" points="2239,-91 2239,-249 2389,-249 2389,-91 2239,-91"/>
<text text-anchor="middle" x="2314" y="-233.8" font-family="Times,serif" font-size="14.00">signer</text>
</g>
<g id="clust4" class="cluster">
<title>cluster_error</title>
<polygon fill="none" stroke="black" points="607,-174 607,-332 1195,-332 1195,-174 607,-174"/>
<text text-anchor="middle" x="901" y="-316.8" font-family="Times,serif" font-size="14.00">error</text>
</g>
<g id="clust5" class="cluster">
<title>cluster_event</title>
<polygon fill="none" stroke="black" points="1819,-174 1819,-332 2107,-332 2107,-174 1819,-174"/>
<text text-anchor="middle" x="1963" y="-316.8" font-family="Times,serif" font-size="14.00">event</text>
</g>
<g id="clust6" class="cluster">
<title>cluster_property_map</title>
<polygon fill="none" stroke="black" points="922,-415 922,-565 1015,-565 1015,-415 922,-415"/>
<text text-anchor="middle" x="968.5" y="-549.8" font-family="Times,serif" font-size="14.00">property_map</text>
</g>
<g id="clust7" class="cluster">
<title>cluster_bcs</title>
<polygon fill="none" stroke="black" points="886,-91 886,-166 982,-166 982,-91 886,-91"/>
<text text-anchor="middle" x="934" y="-150.8" font-family="Times,serif" font-size="14.00">bcs</text>
</g>
<g id="clust8" class="cluster">
<title>cluster_simple_map</title>
<polygon fill="none" stroke="black" points="387,-257 387,-407 539,-407 539,-257 387,-257"/>
<text text-anchor="middle" x="463" y="-391.8" font-family="Times,serif" font-size="14.00">simple_map</text>
</g>
<g id="clust9" class="cluster">
<title>cluster_option</title>
<polygon fill="none" stroke="black" points="8,-91 8,-249 339,-249 339,-91 8,-91"/>
<text text-anchor="middle" x="173.5" y="-233.8" font-family="Times,serif" font-size="14.00">option</text>
</g>
<g id="clust10" class="cluster">
<title>cluster_account</title>
<polygon fill="none" stroke="black" points="2115,-257 2115,-407 2285,-407 2285,-257 2115,-257"/>
<text text-anchor="middle" x="2200" y="-391.8" font-family="Times,serif" font-size="14.00">account</text>
</g>
<g id="clust11" class="cluster">
<title>cluster_vector</title>
<polygon fill="none" stroke="black" points="71,-8 71,-83 278,-83 278,-8 71,-8"/>
<text text-anchor="middle" x="174.5" y="-67.8" font-family="Times,serif" font-size="14.00">vector</text>
</g>
<g id="clust12" class="cluster">
<title>cluster_comparator</title>
<polygon fill="none" stroke="black" points="347,-91 347,-249 599,-249 599,-91 347,-91"/>
<text text-anchor="middle" x="473" y="-233.8" font-family="Times,serif" font-size="14.00">comparator</text>
</g>
<g id="clust13" class="cluster">
<title>cluster_guid</title>
<polygon fill="none" stroke="black" points="2151,-174 2151,-249 2231,-249 2231,-174 2151,-174"/>
<text text-anchor="middle" x="2191" y="-233.8" font-family="Times,serif" font-size="14.00">guid</text>
</g>
<!-- create_token_script -->
<g id="node1" class="node">
<title>create_token_script</title>
<ellipse fill="none" stroke="black" cx="1015" cy="-663" rx="79.09" ry="18"/>
<text text-anchor="middle" x="1015" y="-659.3" font-family="Times,serif" font-size="14.00">create_token_script</text>
</g>
<!-- create_token_mutability_config -->
<g id="node2" class="node">
<title>create_token_mutability_config</title>
<ellipse fill="none" stroke="black" cx="803" cy="-591" rx="123.48" ry="18"/>
<text text-anchor="middle" x="803" y="-587.3" font-family="Times,serif" font-size="14.00">create_token_mutability_config</text>
</g>
<!-- create_token_script&#45;&gt;create_token_mutability_config -->
<g id="edge1" class="edge">
<title>create_token_script&#45;&gt;create_token_mutability_config</title>
<path fill="none" stroke="black" d="M971.33,-647.58C939.83,-637.18 896.94,-623.02 862.34,-611.59"/>
<polygon fill="black" stroke="black" points="863.45,-608.27 852.86,-608.46 861.26,-614.92 863.45,-608.27"/>
</g>
<!-- create_tokendata -->
<g id="node3" class="node">
<title>create_tokendata</title>
<ellipse fill="none" stroke="black" cx="1015" cy="-591" rx="70.39" ry="18"/>
<text text-anchor="middle" x="1015" y="-587.3" font-family="Times,serif" font-size="14.00">create_tokendata</text>
</g>
<!-- create_token_script&#45;&gt;create_tokendata -->
<g id="edge2" class="edge">
<title>create_token_script&#45;&gt;create_tokendata</title>
<path fill="none" stroke="black" d="M1015,-644.7C1015,-637.41 1015,-628.73 1015,-620.54"/>
<polygon fill="black" stroke="black" points="1018.5,-620.62 1015,-610.62 1011.5,-620.62 1018.5,-620.62"/>
</g>
<!-- mint_token -->
<g id="node4" class="node">
<title>mint_token</title>
<ellipse fill="none" stroke="black" cx="1570" cy="-591" rx="51.19" ry="18"/>
<text text-anchor="middle" x="1570" y="-587.3" font-family="Times,serif" font-size="14.00">mint_token</text>
</g>
<!-- create_token_script&#45;&gt;mint_token -->
<g id="edge3" class="edge">
<title>create_token_script&#45;&gt;mint_token</title>
<path fill="none" stroke="black" d="M1083.05,-653.42C1192.98,-639.55 1407.73,-612.47 1511.33,-599.4"/>
<polygon fill="black" stroke="black" points="1511.52,-602.9 1521,-598.18 1510.64,-595.96 1511.52,-602.9"/>
</g>
<!-- string::length -->
<g id="node5" class="node">
<title>string::length</title>
<ellipse fill="none" stroke="black" cx="813" cy="-441" rx="32.49" ry="18"/>
<text text-anchor="middle" x="813" y="-437.3" font-family="Times,serif" font-size="14.00">length</text>
</g>
<!-- create_tokendata&#45;&gt;string::length -->
<g id="edge4" class="edge">
<title>create_tokendata&#45;&gt;string::length</title>
<path fill="none" stroke="black" d="M962.94,-578.54C942.02,-573.57 921.9,-568.17 918,-565 892.25,-544.06 910.26,-519.53 885,-498 875.8,-490.16 869.29,-496.35 859,-490 848.94,-483.79 839.56,-474.87 831.94,-466.4"/>
<polygon fill="black" stroke="black" points="834.8,-464.36 825.65,-459.02 829.47,-468.9 834.8,-464.36"/>
</g>
<!-- table::contains -->
<g id="node6" class="node">
<title>table::contains</title>
<ellipse fill="none" stroke="black" cx="1551" cy="-358" rx="40.09" ry="18"/>
<text text-anchor="middle" x="1551" y="-354.3" font-family="Times,serif" font-size="14.00">contains</text>
</g>
<!-- create_tokendata&#45;&gt;table::contains -->
<g id="edge5" class="edge">
<title>create_tokendata&#45;&gt;table::contains</title>
<path fill="none" stroke="black" d="M1083.95,-586.88C1144.9,-583.41 1228.82,-576.69 1260,-565 1371.62,-523.13 1479.99,-427.67 1526.83,-382.95"/>
<polygon fill="black" stroke="black" points="1529.25,-385.48 1534.01,-376.01 1524.39,-380.44 1529.25,-385.48"/>
</g>
<!-- table::borrow_mut -->
<g id="node7" class="node">
<title>table::borrow_mut</title>
<ellipse fill="none" stroke="black" cx="1413" cy="-358" rx="54.69" ry="18"/>
<text text-anchor="middle" x="1413" y="-354.3" font-family="Times,serif" font-size="14.00">borrow_mut</text>
</g>
<!-- create_tokendata&#45;&gt;table::borrow_mut -->
<g id="edge6" class="edge">
<title>create_tokendata&#45;&gt;table::borrow_mut</title>
<path fill="none" stroke="black" d="M1071.56,-579.9C1133.02,-566.88 1232.05,-539.75 1304,-490 1344.49,-462 1378.39,-415.06 1397.16,-385.63"/>
<polygon fill="black" stroke="black" points="1400.04,-387.63 1402.36,-377.29 1394.1,-383.93 1400.04,-387.63"/>
</g>
<!-- table::add -->
<g id="node8" class="node">
<title>table::add</title>
<ellipse fill="none" stroke="black" cx="1298" cy="-358" rx="27" ry="18"/>
<text text-anchor="middle" x="1298" y="-354.3" font-family="Times,serif" font-size="14.00">add</text>
</g>
<!-- create_tokendata&#45;&gt;table::add -->
<g id="edge7" class="edge">
<title>create_tokendata&#45;&gt;table::add</title>
<path fill="none" stroke="black" d="M1084.69,-587.64C1153.21,-581.16 1254.49,-559.52 1304,-490 1325.47,-459.85 1317.25,-415.15 1308.39,-386.55"/>
<polygon fill="black" stroke="black" points="1311.74,-385.53 1305.25,-377.16 1305.1,-387.75 1311.74,-385.53"/>
</g>
<!-- signer::address_of -->
<g id="node9" class="node">
<title>signer::address_of</title>
<ellipse fill="none" stroke="black" cx="2309" cy="-200" rx="48.99" ry="18"/>
<text text-anchor="middle" x="2309" y="-196.3" font-family="Times,serif" font-size="14.00">address_of</text>
</g>
<!-- create_tokendata&#45;&gt;signer::address_of -->
<g id="edge8" class="edge">
<title>create_tokendata&#45;&gt;signer::address_of</title>
<path fill="none" stroke="black" d="M1018.96,-572.87C1031.57,-518.91 1071.14,-355.14 1090,-340 1108.94,-324.8 1178.26,-344.63 1199,-332 1232.4,-311.66 1210.96,-276.24 1245,-257 1268.94,-243.47 2208.66,-256.91 2235,-249 2251.88,-243.93 2268.53,-233.72 2281.76,-224.02"/>
<polygon fill="black" stroke="black" points="2283.74,-226.91 2289.53,-218.04 2279.47,-221.36 2283.74,-226.91"/>
</g>
<!-- error::already_exists -->
<g id="node10" class="node">
<title>error::already_exists</title>
<ellipse fill="none" stroke="black" cx="676" cy="-283" rx="61.19" ry="18"/>
<text text-anchor="middle" x="676" y="-279.3" font-family="Times,serif" font-size="14.00">already_exists</text>
</g>
<!-- create_tokendata&#45;&gt;error::already_exists -->
<g id="edge9" class="edge">
<title>create_tokendata&#45;&gt;error::already_exists</title>
<path fill="none" stroke="black" d="M964.87,-577.94C955.02,-575.97 944.73,-574.19 935,-573 921.76,-571.39 704.59,-574.27 695,-565 659.66,-530.84 668.11,-377.03 673.36,-312.57"/>
<polygon fill="black" stroke="black" points="676.84,-313.04 674.2,-302.78 669.86,-312.45 676.84,-313.04"/>
</g>
<!-- error::invalid_argument -->
<g id="node11" class="node">
<title>error::invalid_argument</title>
<ellipse fill="none" stroke="black" cx="829" cy="-283" rx="73.39" ry="18"/>
<text text-anchor="middle" x="829" y="-279.3" font-family="Times,serif" font-size="14.00">invalid_argument</text>
</g>
<!-- create_tokendata&#45;&gt;error::invalid_argument -->
<g id="edge10" class="edge">
<title>create_tokendata&#45;&gt;error::invalid_argument</title>
<path fill="none" stroke="black" d="M965.3,-577.98C955.32,-575.98 944.87,-574.17 935,-573 919,-571.09 656.24,-576.55 645,-565 598.18,-516.87 632.51,-474.82 663,-415 683.3,-375.18 694.49,-367.14 730,-340 736.32,-335.17 739,-335.77 746,-332 761.36,-323.73 778.06,-314.18 792.42,-305.79"/>
<polygon fill="black" stroke="black" points="793.79,-309.05 800.64,-300.97 790.24,-303.01 793.79,-309.05"/>
</g>
<!-- error::not_found -->
<g id="node12" class="node">
<title>error::not_found</title>
<ellipse fill="none" stroke="black" cx="1140" cy="-283" rx="46.59" ry="18"/>
<text text-anchor="middle" x="1140" y="-279.3" font-family="Times,serif" font-size="14.00">not_found</text>
</g>
<!-- create_tokendata&#45;&gt;error::not_found -->
<g id="edge11" class="edge">
<title>create_tokendata&#45;&gt;error::not_found</title>
<path fill="none" stroke="black" d="M965.3,-577.99C955.32,-575.99 944.87,-574.18 935,-573 919.93,-571.19 672.57,-575.89 662,-565 641.25,-543.64 648.9,-524.74 662,-498 738.33,-342.18 849.19,-375.65 1019,-340 1047.49,-334.02 1057.37,-343.75 1084,-332 1096.56,-326.46 1108.42,-317.14 1117.96,-308.19"/>
<polygon fill="black" stroke="black" points="1120.32,-310.77 1124.95,-301.24 1115.39,-305.8 1120.32,-310.77"/>
</g>
<!-- event::emit_event -->
<g id="node13" class="node">
<title>event::emit_event</title>
<ellipse fill="none" stroke="black" cx="1877" cy="-283" rx="50.09" ry="18"/>
<text text-anchor="middle" x="1877" y="-279.3" font-family="Times,serif" font-size="14.00">emit_event</text>
</g>
<!-- create_tokendata&#45;&gt;event::emit_event -->
<g id="edge12" class="edge">
<title>create_tokendata&#45;&gt;event::emit_event</title>
<path fill="none" stroke="black" d="M1085.22,-589.12C1150.47,-587.22 1250.09,-581.55 1335,-565 1551.47,-522.8 1594.72,-471.12 1808,-415 1824.69,-410.61 1833.56,-418.96 1846,-407 1871.31,-382.67 1877.12,-340.95 1877.9,-312.93"/>
<polygon fill="black" stroke="black" points="1881.4,-313.02 1877.95,-303 1874.4,-312.98 1881.4,-313.02"/>
</g>
<!-- property_map::new -->
<g id="node14" class="node">
<title>property_map::new</title>
<ellipse fill="none" stroke="black" cx="959" cy="-516" rx="27" ry="18"/>
<text text-anchor="middle" x="959" y="-512.3" font-family="Times,serif" font-size="14.00">new</text>
</g>
<!-- create_tokendata&#45;&gt;property_map::new -->
<g id="edge13" class="edge">
<title>create_tokendata&#45;&gt;property_map::new</title>
<path fill="none" stroke="black" d="M1002.01,-573.07C994.79,-563.65 985.67,-551.77 977.69,-541.37"/>
<polygon fill="black" stroke="black" points="980.56,-539.35 971.69,-533.55 975,-543.61 980.56,-539.35"/>
</g>
<!-- create_token_data_id -->
<g id="node15" class="node">
<title>create_token_data_id</title>
<ellipse fill="none" stroke="black" cx="790" cy="-516" rx="85.59" ry="18"/>
<text text-anchor="middle" x="790" y="-512.3" font-family="Times,serif" font-size="14.00">create_token_data_id</text>
</g>
<!-- create_tokendata&#45;&gt;create_token_data_id -->
<g id="edge14" class="edge">
<title>create_tokendata&#45;&gt;create_token_data_id</title>
<path fill="none" stroke="black" d="M962.55,-578.59C953.38,-576.67 943.92,-574.74 935,-573 915.06,-569.11 909.33,-571.23 890,-565 869.01,-558.24 846.79,-547.92 828.63,-538.58"/>
<polygon fill="black" stroke="black" points="830.28,-535.49 819.8,-533.93 827.02,-541.68 830.28,-535.49"/>
</g>
<!-- mint_token&#45;&gt;table::contains -->
<g id="edge15" class="edge">
<title>mint_token&#45;&gt;table::contains</title>
<path fill="none" stroke="black" d="M1568.57,-572.64C1565.32,-533.08 1557.33,-435.92 1553.34,-387.46"/>
<polygon fill="black" stroke="black" points="1556.85,-387.44 1552.54,-377.76 1549.87,-388.01 1556.85,-387.44"/>
</g>
<!-- mint_token&#45;&gt;table::borrow_mut -->
<g id="edge16" class="edge">
<title>mint_token&#45;&gt;table::borrow_mut</title>
<path fill="none" stroke="black" d="M1568.14,-572.75C1565.48,-553.5 1559.36,-521.92 1546,-498 1519.59,-450.7 1473.24,-407.53 1442.83,-382.25"/>
<polygon fill="black" stroke="black" points="1445.08,-379.56 1435.12,-375.95 1440.65,-384.99 1445.08,-379.56"/>
</g>
<!-- mint_token&#45;&gt;signer::address_of -->
<g id="edge17" class="edge">
<title>mint_token&#45;&gt;signer::address_of</title>
<path fill="none" stroke="black" d="M1621.31,-589.74C1764.03,-588.76 2158.79,-584.33 2214,-565 2301,-534.54 2381,-534.18 2381,-442 2381,-442 2381,-442 2381,-357 2381,-307.42 2350.65,-256.46 2329.36,-226.81"/>
<polygon fill="black" stroke="black" points="2332.21,-224.78 2323.44,-218.82 2326.58,-228.94 2332.21,-224.78"/>
</g>
<!-- mint_token&#45;&gt;error::invalid_argument -->
<g id="edge18" class="edge">
<title>mint_token&#45;&gt;error::invalid_argument</title>
<path fill="none" stroke="black" d="M1525.87,-581.68C1508.16,-577.65 1487.78,-572.11 1470,-565 1414.01,-542.59 1410.03,-514.42 1352,-498 1303,-484.14 1171.17,-506.49 1123,-490 1069.08,-471.54 1065.57,-447.84 1019,-415 964.36,-376.47 900.23,-332.51 862.19,-306.57"/>
<polygon fill="black" stroke="black" points="864.59,-303.97 854.36,-301.23 860.65,-309.76 864.59,-303.97"/>
</g>
<!-- mint_token&#45;&gt;error::not_found -->
<g id="edge19" class="edge">
<title>mint_token&#45;&gt;error::not_found</title>
<path fill="none" stroke="black" d="M1558.08,-573.23C1541.32,-551.23 1508.48,-513.59 1470,-498 1438.68,-485.31 1195.01,-507.32 1166,-490 1133.01,-470.3 1153.73,-438.07 1123,-415 1110.93,-405.94 1099.33,-418.86 1090,-407 1071.59,-383.59 1079.39,-367.82 1090,-340 1094.66,-327.79 1103.34,-316.55 1112.18,-307.39"/>
<polygon fill="black" stroke="black" points="1114.39,-310.13 1119.14,-300.66 1109.52,-305.1 1114.39,-310.13"/>
</g>
<!-- mint_token&#45;&gt;event::emit_event -->
<g id="edge21" class="edge">
<title>mint_token&#45;&gt;event::emit_event</title>
<path fill="none" stroke="black" d="M1612.48,-580.59C1684.61,-561.96 1828.34,-512.7 1881,-407 1895.87,-377.15 1891.12,-337.97 1885.15,-311.94"/>
<polygon fill="black" stroke="black" points="1888.59,-311.29 1882.75,-302.45 1881.81,-313 1888.59,-311.29"/>
</g>
<!-- error::permission_denied -->
<g id="node16" class="node">
<title>error::permission_denied</title>
<ellipse fill="none" stroke="black" cx="998" cy="-283" rx="77.19" ry="18"/>
<text text-anchor="middle" x="998" y="-279.3" font-family="Times,serif" font-size="14.00">permission_denied</text>
</g>
<!-- mint_token&#45;&gt;error::permission_denied -->
<g id="edge20" class="edge">
<title>mint_token&#45;&gt;error::permission_denied</title>
<path fill="none" stroke="black" d="M1524.39,-582.45C1499.82,-578.04 1469.08,-571.98 1442,-565 1347.95,-540.76 1329.36,-516.39 1234,-498 1208.85,-493.15 1140.78,-503.49 1119,-490 1053.32,-449.31 1019.15,-358.76 1005.42,-312.46"/>
<polygon fill="black" stroke="black" points="1008.8,-311.56 1002.7,-302.89 1002.07,-313.47 1008.8,-311.56"/>
</g>
<!-- property_map::empty -->
<g id="node17" class="node">
<title>property_map::empty</title>
<ellipse fill="none" stroke="black" cx="972" cy="-441" rx="33.29" ry="18"/>
<text text-anchor="middle" x="972" y="-437.3" font-family="Times,serif" font-size="14.00">empty</text>
</g>
<!-- mint_token&#45;&gt;property_map::empty -->
<g id="edge22" class="edge">
<title>mint_token&#45;&gt;property_map::empty</title>
<path fill="none" stroke="black" d="M1523.05,-583.48C1489.76,-578.72 1444.06,-571.92 1404,-565 1232.21,-535.35 1172.47,-572.68 1019,-490 1008.48,-484.33 998.86,-475.52 991.1,-466.98"/>
<polygon fill="black" stroke="black" points="993.85,-464.82 984.7,-459.48 988.53,-469.36 993.85,-464.82"/>
</g>
<!-- create_token_id -->
<g id="node18" class="node">
<title>create_token_id</title>
<ellipse fill="none" stroke="black" cx="2138" cy="-516" rx="66.89" ry="18"/>
<text text-anchor="middle" x="2138" y="-512.3" font-family="Times,serif" font-size="14.00">create_token_id</text>
</g>
<!-- mint_token&#45;&gt;create_token_id -->
<g id="edge23" class="edge">
<title>mint_token&#45;&gt;create_token_id</title>
<path fill="none" stroke="black" d="M1621.48,-590.67C1730.48,-591.55 1981.19,-590.62 2062,-565 2078.76,-559.69 2095.49,-549.75 2108.96,-540.3"/>
<polygon fill="black" stroke="black" points="2110.93,-543.19 2116.94,-534.46 2106.8,-537.54 2110.93,-543.19"/>
</g>
<!-- deposit_token -->
<g id="node19" class="node">
<title>deposit_token</title>
<ellipse fill="none" stroke="black" cx="1993" cy="-516" rx="59.59" ry="18"/>
<text text-anchor="middle" x="1993" y="-512.3" font-family="Times,serif" font-size="14.00">deposit_token</text>
</g>
<!-- mint_token&#45;&gt;deposit_token -->
<g id="edge24" class="edge">
<title>mint_token&#45;&gt;deposit_token</title>
<path fill="none" stroke="black" d="M1621.33,-589.45C1704.61,-588.04 1865.29,-583.01 1919,-565 1935.36,-559.52 1951.65,-549.56 1964.76,-540.14"/>
<polygon fill="black" stroke="black" points="1966.59,-543.14 1972.5,-534.34 1962.39,-537.54 1966.59,-543.14"/>
</g>
<!-- table::contains_box -->
<g id="node20" class="node">
<title>table::contains_box</title>
<ellipse fill="none" stroke="black" cx="1577" cy="-283" rx="57.69" ry="18"/>
<text text-anchor="middle" x="1577" y="-279.3" font-family="Times,serif" font-size="14.00">contains_box</text>
</g>
<!-- table::contains&#45;&gt;table::contains_box -->
<g id="edge25" class="edge">
<title>table::contains&#45;&gt;table::contains_box</title>
<path fill="none" stroke="black" d="M1557.03,-340.07C1560.01,-331.71 1563.67,-321.42 1567.05,-311.94"/>
<polygon fill="black" stroke="black" points="1570.26,-313.37 1570.31,-302.77 1563.66,-311.02 1570.26,-313.37"/>
</g>
<!-- table::borrow_box_mut -->
<g id="node21" class="node">
<title>table::borrow_box_mut</title>
<ellipse fill="none" stroke="black" cx="1429" cy="-283" rx="72.29" ry="18"/>
<text text-anchor="middle" x="1429" y="-279.3" font-family="Times,serif" font-size="14.00">borrow_box_mut</text>
</g>
<!-- table::borrow_mut&#45;&gt;table::borrow_box_mut -->
<g id="edge26" class="edge">
<title>table::borrow_mut&#45;&gt;table::borrow_box_mut</title>
<path fill="none" stroke="black" d="M1416.79,-339.7C1418.57,-331.58 1420.74,-321.68 1422.75,-312.5"/>
<polygon fill="black" stroke="black" points="1426.13,-313.42 1424.86,-302.91 1419.3,-311.93 1426.13,-313.42"/>
</g>
<!-- table::add_box -->
<g id="node22" class="node">
<title>table::add_box</title>
<ellipse fill="none" stroke="black" cx="1298" cy="-283" rx="40.89" ry="18"/>
<text text-anchor="middle" x="1298" y="-279.3" font-family="Times,serif" font-size="14.00">add_box</text>
</g>
<!-- table::add&#45;&gt;table::add_box -->
<g id="edge27" class="edge">
<title>table::add&#45;&gt;table::add_box</title>
<path fill="none" stroke="black" d="M1298,-339.7C1298,-331.67 1298,-321.9 1298,-312.8"/>
<polygon fill="black" stroke="black" points="1301.5,-312.94 1298,-302.94 1294.5,-312.94 1301.5,-312.94"/>
</g>
<!-- signer::borrow_address -->
<g id="node23" class="node">
<title>signer::borrow_address</title>
<ellipse fill="none" stroke="black" cx="2314" cy="-117" rx="66.89" ry="18"/>
<text text-anchor="middle" x="2314" y="-113.3" font-family="Times,serif" font-size="14.00">borrow_address</text>
</g>
<!-- signer::address_of&#45;&gt;signer::borrow_address -->
<g id="edge28" class="edge">
<title>signer::address_of&#45;&gt;signer::borrow_address</title>
<path fill="none" stroke="black" d="M2310.06,-181.82C2310.69,-171.69 2311.49,-158.6 2312.21,-146.92"/>
<polygon fill="black" stroke="black" points="2315.71,-147.14 2312.83,-136.94 2308.72,-146.71 2315.71,-147.14"/>
</g>
<!-- error::canonical -->
<g id="node24" class="node">
<title>error::canonical</title>
<ellipse fill="none" stroke="black" cx="913" cy="-200" rx="44.39" ry="18"/>
<text text-anchor="middle" x="913" y="-196.3" font-family="Times,serif" font-size="14.00">canonical</text>
</g>
<!-- error::already_exists&#45;&gt;error::canonical -->
<g id="edge29" class="edge">
<title>error::already_exists&#45;&gt;error::canonical</title>
<path fill="none" stroke="black" d="M713.92,-268.54C724.61,-264.78 736.25,-260.71 747,-257 788.21,-242.8 835.29,-226.95 868.77,-215.74"/>
<polygon fill="black" stroke="black" points="869.76,-219.1 878.14,-212.61 867.54,-212.46 869.76,-219.1"/>
</g>
<!-- error::invalid_argument&#45;&gt;error::canonical -->
<g id="edge30" class="edge">
<title>error::invalid_argument&#45;&gt;error::canonical</title>
<path fill="none" stroke="black" d="M846.4,-265.22C858.58,-253.47 875.02,-237.62 888.52,-224.61"/>
<polygon fill="black" stroke="black" points="890.62,-227.45 895.39,-217.99 885.76,-222.41 890.62,-227.45"/>
</g>
<!-- error::not_found&#45;&gt;error::canonical -->
<g id="edge31" class="edge">
<title>error::not_found&#45;&gt;error::canonical</title>
<path fill="none" stroke="black" d="M1111.17,-268.45C1102.52,-264.56 1092.94,-260.45 1084,-257 1042.18,-240.87 993.53,-225.23 958.83,-214.6"/>
<polygon fill="black" stroke="black" points="960.12,-211.33 949.54,-211.77 958.08,-218.03 960.12,-211.33"/>
</g>
<!-- bcs::to_bytes -->
<g id="node25" class="node">
<title>bcs::to_bytes</title>
<ellipse fill="none" stroke="black" cx="934" cy="-117" rx="40.09" ry="18"/>
<text text-anchor="middle" x="934" y="-113.3" font-family="Times,serif" font-size="14.00">to_bytes</text>
</g>
<!-- event::emit_event&#45;&gt;bcs::to_bytes -->
<g id="edge32" class="edge">
<title>event::emit_event&#45;&gt;bcs::to_bytes</title>
<path fill="none" stroke="black" d="M1846.89,-268.26C1836.9,-264.14 1825.63,-259.94 1815,-257 1506.12,-171.55 1120.84,-133.42 984.58,-121.94"/>
<polygon fill="black" stroke="black" points="985.08,-118.47 974.82,-121.13 984.5,-125.45 985.08,-118.47"/>
</g>
<!-- event::write_to_event_store -->
<g id="node26" class="node">
<title>event::write_to_event_store</title>
<ellipse fill="none" stroke="black" cx="1912" cy="-200" rx="85.29" ry="18"/>
<text text-anchor="middle" x="1912" y="-196.3" font-family="Times,serif" font-size="14.00">write_to_event_store</text>
</g>
<!-- event::emit_event&#45;&gt;event::write_to_event_store -->
<g id="edge33" class="edge">
<title>event::emit_event&#45;&gt;event::write_to_event_store</title>
<path fill="none" stroke="black" d="M1884.42,-264.82C1888.97,-254.3 1894.89,-240.59 1900.09,-228.57"/>
<polygon fill="black" stroke="black" points="1903.23,-230.11 1903.99,-219.54 1896.81,-227.33 1903.23,-230.11"/>
</g>
<!-- property_map::new&#45;&gt;string::length -->
<g id="edge34" class="edge">
<title>property_map::new&#45;&gt;string::length</title>
<path fill="none" stroke="black" d="M937.24,-504.75C931.12,-502.21 924.4,-499.73 918,-498 892.45,-491.1 882.58,-502 859,-490 848.31,-484.56 838.72,-475.63 831.1,-466.94"/>
<polygon fill="black" stroke="black" points="833.9,-464.83 824.86,-459.29 828.47,-469.25 833.9,-464.83"/>
</g>
<!-- property_map::new&#45;&gt;error::invalid_argument -->
<g id="edge35" class="edge">
<title>property_map::new&#45;&gt;error::invalid_argument</title>
<path fill="none" stroke="black" d="M941.64,-502.03C937.5,-498.43 933.33,-494.31 930,-490 924.04,-482.28 868,-365.63 842.06,-311.37"/>
<polygon fill="black" stroke="black" points="845.28,-309.98 837.81,-302.47 838.96,-313 845.28,-309.98"/>
</g>
<!-- property_map::new&#45;&gt;property_map::empty -->
<g id="edge37" class="edge">
<title>property_map::new&#45;&gt;property_map::empty</title>
<path fill="none" stroke="black" d="M962.08,-497.7C963.54,-489.52 965.32,-479.54 966.96,-470.29"/>
<polygon fill="black" stroke="black" points="970.37,-471.12 968.68,-460.67 963.48,-469.9 970.37,-471.12"/>
</g>
<!-- simple_map::add -->
<g id="node27" class="node">
<title>simple_map::add</title>
<ellipse fill="none" stroke="black" cx="422" cy="-358" rx="27" ry="18"/>
<text text-anchor="middle" x="422" y="-354.3" font-family="Times,serif" font-size="14.00">add</text>
</g>
<!-- property_map::new&#45;&gt;simple_map::add -->
<g id="edge36" class="edge">
<title>property_map::new&#45;&gt;simple_map::add</title>
<path fill="none" stroke="black" d="M936.06,-506.17C919.07,-499.57 898.6,-491.44 897,-490 868.9,-464.75 889.2,-434.76 857,-415 838.1,-403.4 477.73,-417.11 458,-407 448.67,-402.22 441.12,-393.78 435.38,-385.3"/>
<polygon fill="black" stroke="black" points="438.43,-383.58 430.26,-376.83 432.44,-387.2 438.43,-383.58"/>
</g>
<!-- create_token_data_id&#45;&gt;string::length -->
<g id="edge38" class="edge">
<title>create_token_data_id&#45;&gt;string::length</title>
<path fill="none" stroke="black" d="M795.45,-497.7C798.06,-489.43 801.24,-479.31 804.18,-469.99"/>
<polygon fill="black" stroke="black" points="807.47,-471.21 807.13,-460.62 800.79,-469.11 807.47,-471.21"/>
</g>
<!-- create_token_data_id&#45;&gt;error::invalid_argument -->
<g id="edge39" class="edge">
<title>create_token_data_id&#45;&gt;error::invalid_argument</title>
<path fill="none" stroke="black" d="M773.17,-497.95C771.47,-495.45 770.01,-492.77 769,-490 757.59,-458.68 761.9,-447.57 769,-415 777.34,-376.76 797.89,-336.34 812.62,-310.68"/>
<polygon fill="black" stroke="black" points="815.52,-312.66 817.56,-302.26 809.48,-309.11 815.52,-312.66"/>
</g>
<!-- error::permission_denied&#45;&gt;error::canonical -->
<g id="edge40" class="edge">
<title>error::permission_denied&#45;&gt;error::canonical</title>
<path fill="none" stroke="black" d="M980.39,-265.22C968.07,-253.47 951.43,-237.62 937.78,-224.61"/>
<polygon fill="black" stroke="black" points="940.47,-222.34 930.82,-217.98 935.64,-227.41 940.47,-222.34"/>
</g>
<!-- simple_map::create -->
<g id="node28" class="node">
<title>simple_map::create</title>
<ellipse fill="none" stroke="black" cx="499" cy="-358" rx="31.7" ry="18"/>
<text text-anchor="middle" x="499" y="-354.3" font-family="Times,serif" font-size="14.00">create</text>
</g>
<!-- property_map::empty&#45;&gt;simple_map::create -->
<g id="edge41" class="edge">
<title>property_map::empty&#45;&gt;simple_map::create</title>
<path fill="none" stroke="black" d="M944.31,-430.77C927.82,-425.54 906.39,-419.23 887,-415 762.75,-387.91 613.18,-370.53 541.44,-363.12"/>
<polygon fill="black" stroke="black" points="542.01,-359.66 531.71,-362.13 541.3,-366.62 542.01,-359.66"/>
</g>
<!-- deposit_token&#45;&gt;signer::address_of -->
<g id="edge42" class="edge">
<title>deposit_token&#45;&gt;signer::address_of</title>
<path fill="none" stroke="black" d="M2035.82,-503.14C2044.43,-501.13 2053.46,-499.28 2062,-498 2093.7,-493.26 2175.86,-500.89 2206,-490 2264.27,-468.95 2286.18,-460.16 2318,-407 2352.33,-349.64 2340.41,-322.86 2329,-257 2327.36,-247.56 2324.29,-237.6 2321.03,-228.75"/>
<polygon fill="black" stroke="black" points="2324.36,-227.67 2317.45,-219.65 2317.85,-230.23 2324.36,-227.67"/>
</g>
<!-- direct_deposit -->
<g id="node29" class="node">
<title>direct_deposit</title>
<ellipse fill="none" stroke="black" cx="1235" cy="-441" rx="60.39" ry="18"/>
<text text-anchor="middle" x="1235" y="-437.3" font-family="Times,serif" font-size="14.00">direct_deposit</text>
</g>
<!-- deposit_token&#45;&gt;direct_deposit -->
<g id="edge43" class="edge">
<title>deposit_token&#45;&gt;direct_deposit</title>
<path fill="none" stroke="black" d="M1936.95,-509.6C1800.43,-496.45 1451.01,-462.8 1302.94,-448.54"/>
<polygon fill="black" stroke="black" points="1303.58,-445.09 1293.29,-447.61 1302.91,-452.06 1303.58,-445.09"/>
</g>
<!-- initialize_token_store -->
<g id="node30" class="node">
<title>initialize_token_store</title>
<ellipse fill="none" stroke="black" cx="2110" cy="-441" rx="87.18" ry="18"/>
<text text-anchor="middle" x="2110" y="-437.3" font-family="Times,serif" font-size="14.00">initialize_token_store</text>
</g>
<!-- deposit_token&#45;&gt;initialize_token_store -->
<g id="edge44" class="edge">
<title>deposit_token&#45;&gt;initialize_token_store</title>
<path fill="none" stroke="black" d="M2018.1,-499.34C2034.42,-489.16 2055.95,-475.73 2074.06,-464.42"/>
<polygon fill="black" stroke="black" points="2075.81,-467.46 2082.44,-459.2 2072.1,-461.52 2075.81,-467.46"/>
</g>
<!-- simple_map::add&#45;&gt;error::invalid_argument -->
<g id="edge47" class="edge">
<title>simple_map::add&#45;&gt;error::invalid_argument</title>
<path fill="none" stroke="black" d="M442.02,-345.76C447.09,-343.43 452.62,-341.28 458,-340 520.27,-325.12 684.4,-349.45 746,-332 764.52,-326.75 783.25,-316.45 798.22,-306.73"/>
<polygon fill="black" stroke="black" points="799.89,-309.83 806.22,-301.33 795.97,-304.02 799.89,-309.83"/>
</g>
<!-- option::extract -->
<g id="node31" class="node">
<title>option::extract</title>
<ellipse fill="none" stroke="black" cx="50" cy="-200" rx="34.39" ry="18"/>
<text text-anchor="middle" x="50" y="-196.3" font-family="Times,serif" font-size="14.00">extract</text>
</g>
<!-- simple_map::add&#45;&gt;option::extract -->
<g id="edge45" class="edge">
<title>simple_map::add&#45;&gt;option::extract</title>
<path fill="none" stroke="black" d="M394.71,-355.75C343.6,-353.12 235.52,-346.04 201,-332 145.11,-309.27 95.5,-257.01 69.41,-225.8"/>
<polygon fill="black" stroke="black" points="72.39,-223.91 63.34,-218.39 66.97,-228.34 72.39,-223.91"/>
</g>
<!-- option::is_none -->
<g id="node32" class="node">
<title>option::is_none</title>
<ellipse fill="none" stroke="black" cx="141" cy="-200" rx="38.19" ry="18"/>
<text text-anchor="middle" x="141" y="-196.3" font-family="Times,serif" font-size="14.00">is_none</text>
</g>
<!-- simple_map::add&#45;&gt;option::is_none -->
<g id="edge46" class="edge">
<title>simple_map::add&#45;&gt;option::is_none</title>
<path fill="none" stroke="black" d="M397.91,-349.17C353.72,-334.13 257.84,-298.25 188,-249 178.62,-242.39 169.51,-233.76 161.84,-225.66"/>
<polygon fill="black" stroke="black" points="164.48,-223.35 155.16,-218.3 159.29,-228.06 164.48,-223.35"/>
</g>
<!-- simple_map::find -->
<g id="node33" class="node">
<title>simple_map::find</title>
<ellipse fill="none" stroke="black" cx="422" cy="-283" rx="27" ry="18"/>
<text text-anchor="middle" x="422" y="-279.3" font-family="Times,serif" font-size="14.00">find</text>
</g>
<!-- simple_map::add&#45;&gt;simple_map::find -->
<g id="edge48" class="edge">
<title>simple_map::add&#45;&gt;simple_map::find</title>
<path fill="none" stroke="black" d="M422,-339.7C422,-331.67 422,-321.9 422,-312.8"/>
<polygon fill="black" stroke="black" points="425.5,-312.94 422,-302.94 418.5,-312.94 425.5,-312.94"/>
</g>
<!-- direct_deposit&#45;&gt;table::contains -->
<g id="edge49" class="edge">
<title>direct_deposit&#45;&gt;table::contains</title>
<path fill="none" stroke="black" d="M1285.2,-430.62C1314.27,-425.45 1351.61,-419.23 1385,-415 1425.72,-409.84 1438.19,-420.34 1477,-407 1493.78,-401.23 1510.53,-390.85 1523.84,-381.22"/>
<polygon fill="black" stroke="black" points="1525.79,-384.13 1531.67,-375.32 1521.57,-378.54 1525.79,-384.13"/>
</g>
<!-- direct_deposit&#45;&gt;table::borrow_mut -->
<g id="edge50" class="edge">
<title>direct_deposit&#45;&gt;table::borrow_mut</title>
<path fill="none" stroke="black" d="M1273.75,-426.78C1285.1,-422.94 1297.54,-418.77 1309,-415 1320.08,-411.36 1323.39,-411.84 1334,-407 1349.98,-399.71 1366.73,-389.88 1380.68,-381.02"/>
<polygon fill="black" stroke="black" points="1382.54,-383.99 1389.02,-375.61 1378.73,-378.12 1382.54,-383.99"/>
</g>
<!-- direct_deposit&#45;&gt;table::add -->
<g id="edge51" class="edge">
<title>direct_deposit&#45;&gt;table::add</title>
<path fill="none" stroke="black" d="M1248.05,-423.22C1257.04,-411.66 1269.13,-396.12 1279.16,-383.22"/>
<polygon fill="black" stroke="black" points="1281.72,-385.63 1285.1,-375.59 1276.2,-381.33 1281.72,-385.63"/>
</g>
<!-- direct_deposit&#45;&gt;error::invalid_argument -->
<g id="edge52" class="edge">
<title>direct_deposit&#45;&gt;error::invalid_argument</title>
<path fill="none" stroke="black" d="M1219.34,-423.16C1215.07,-418.16 1210.63,-412.53 1207,-407 1188.79,-379.25 1201.91,-357.96 1174,-340 1149.51,-324.24 940.01,-339.98 912,-332 893.48,-326.73 874.76,-316.42 859.79,-306.7"/>
<polygon fill="black" stroke="black" points="862.04,-304 851.79,-301.31 858.12,-309.8 862.04,-304"/>
</g>
<!-- direct_deposit&#45;&gt;error::not_found -->
<g id="edge53" class="edge">
<title>direct_deposit&#45;&gt;error::not_found</title>
<path fill="none" stroke="black" d="M1233.32,-422.81C1230.61,-401.81 1223.73,-365.89 1207,-340 1198.28,-326.51 1185.29,-314.59 1173.07,-305.25"/>
<polygon fill="black" stroke="black" points="1175.33,-302.57 1165.18,-299.52 1171.22,-308.23 1175.33,-302.57"/>
</g>
<!-- direct_deposit&#45;&gt;event::emit_event -->
<g id="edge54" class="edge">
<title>direct_deposit&#45;&gt;event::emit_event</title>
<path fill="none" stroke="black" d="M1294.67,-437.39C1440.55,-430.9 1804.22,-414.07 1815,-407 1823.73,-401.28 1849.39,-346.14 1864.83,-311.66"/>
<polygon fill="black" stroke="black" points="1867.97,-313.22 1868.83,-302.66 1861.57,-310.38 1867.97,-313.22"/>
</g>
<!-- merge -->
<g id="node34" class="node">
<title>merge</title>
<ellipse fill="none" stroke="black" cx="1132" cy="-358" rx="33.29" ry="18"/>
<text text-anchor="middle" x="1132" y="-354.3" font-family="Times,serif" font-size="14.00">merge</text>
</g>
<!-- direct_deposit&#45;&gt;merge -->
<g id="edge55" class="edge">
<title>direct_deposit&#45;&gt;merge</title>
<path fill="none" stroke="black" d="M1205.85,-424.77C1196.91,-419.59 1187.26,-413.47 1179,-407 1169.96,-399.93 1160.93,-391.2 1153.23,-383.13"/>
<polygon fill="black" stroke="black" points="1155.86,-380.82 1146.49,-375.86 1150.72,-385.57 1155.86,-380.82"/>
</g>
<!-- initialize_token_store&#45;&gt;signer::address_of -->
<g id="edge57" class="edge">
<title>initialize_token_store&#45;&gt;signer::address_of</title>
<path fill="none" stroke="black" d="M2191.67,-434.4C2232.31,-429.82 2275.59,-421.61 2289,-407 2333.63,-358.38 2324.51,-273.5 2315.8,-229.4"/>
<polygon fill="black" stroke="black" points="2319.27,-228.9 2313.77,-219.85 2312.43,-230.35 2319.27,-228.9"/>
</g>
<!-- table::new -->
<g id="node35" class="node">
<title>table::new</title>
<ellipse fill="none" stroke="black" cx="1751" cy="-358" rx="27" ry="18"/>
<text text-anchor="middle" x="1751" y="-354.3" font-family="Times,serif" font-size="14.00">new</text>
</g>
<!-- initialize_token_store&#45;&gt;table::new -->
<g id="edge56" class="edge">
<title>initialize_token_store&#45;&gt;table::new</title>
<path fill="none" stroke="black" d="M2052.72,-427.08C1977.99,-410.21 1849.43,-381.21 1787.05,-367.13"/>
<polygon fill="black" stroke="black" points="1788.2,-363.81 1777.68,-365.02 1786.66,-370.63 1788.2,-363.81"/>
</g>
<!-- account::new_event_handle -->
<g id="node36" class="node">
<title>account::new_event_handle</title>
<ellipse fill="none" stroke="black" cx="2200" cy="-358" rx="76.89" ry="18"/>
<text text-anchor="middle" x="2200" y="-354.3" font-family="Times,serif" font-size="14.00">new_event_handle</text>
</g>
<!-- initialize_token_store&#45;&gt;account::new_event_handle -->
<g id="edge58" class="edge">
<title>initialize_token_store&#45;&gt;account::new_event_handle</title>
<path fill="none" stroke="black" d="M2128.65,-423.22C2141.44,-411.7 2158.62,-396.24 2172.91,-383.38"/>
<polygon fill="black" stroke="black" points="2175.16,-386.07 2180.25,-376.77 2170.48,-380.86 2175.16,-386.07"/>
</g>
<!-- option::is_some -->
<g id="node37" class="node">
<title>option::is_some</title>
<ellipse fill="none" stroke="black" cx="61" cy="-117" rx="40.09" ry="18"/>
<text text-anchor="middle" x="61" y="-113.3" font-family="Times,serif" font-size="14.00">is_some</text>
</g>
<!-- option::extract&#45;&gt;option::is_some -->
<g id="edge59" class="edge">
<title>option::extract&#45;&gt;option::is_some</title>
<path fill="none" stroke="black" d="M52.33,-181.82C53.72,-171.58 55.52,-158.33 57.12,-146.55"/>
<polygon fill="black" stroke="black" points="60.55,-147.31 58.43,-136.93 53.62,-146.37 60.55,-147.31"/>
</g>
<!-- vector::is_empty -->
<g id="node38" class="node">
<title>vector::is_empty</title>
<ellipse fill="none" stroke="black" cx="123" cy="-34" rx="43.59" ry="18"/>
<text text-anchor="middle" x="123" y="-30.3" font-family="Times,serif" font-size="14.00">is_empty</text>
</g>
<!-- option::is_none&#45;&gt;vector::is_empty -->
<g id="edge60" class="edge">
<title>option::is_none&#45;&gt;vector::is_empty</title>
<path fill="none" stroke="black" d="M139.11,-181.76C136.01,-153.51 129.82,-97.11 126.08,-63.04"/>
<polygon fill="black" stroke="black" points="129.6,-63.07 125.03,-53.51 122.64,-63.84 129.6,-63.07"/>
</g>
<!-- option::none -->
<g id="node39" class="node">
<title>option::none</title>
<ellipse fill="none" stroke="black" cx="303" cy="-200" rx="27.9" ry="18"/>
<text text-anchor="middle" x="303" y="-196.3" font-family="Times,serif" font-size="14.00">none</text>
</g>
<!-- simple_map::find&#45;&gt;option::none -->
<g id="edge61" class="edge">
<title>simple_map::find&#45;&gt;option::none</title>
<path fill="none" stroke="black" d="M397.28,-275.08C380.86,-269.69 359.38,-261.09 343,-249 334.47,-242.7 326.62,-234.22 320.18,-226.13"/>
<polygon fill="black" stroke="black" points="323.02,-224.08 314.21,-218.19 317.42,-228.29 323.02,-224.08"/>
</g>
<!-- option::some -->
<g id="node40" class="node">
<title>option::some</title>
<ellipse fill="none" stroke="black" cx="227" cy="-200" rx="29.8" ry="18"/>
<text text-anchor="middle" x="227" y="-196.3" font-family="Times,serif" font-size="14.00">some</text>
</g>
<!-- simple_map::find&#45;&gt;option::some -->
<g id="edge62" class="edge">
<title>simple_map::find&#45;&gt;option::some</title>
<path fill="none" stroke="black" d="M396.94,-276.01C374.49,-270.73 340.63,-262.97 311,-257 291.09,-252.99 283.5,-259.31 266,-249 256.72,-243.54 248.73,-234.99 242.44,-226.61"/>
<polygon fill="black" stroke="black" points="245.5,-224.89 236.94,-218.65 239.74,-228.86 245.5,-224.89"/>
</g>
<!-- comparator::compare -->
<g id="node41" class="node">
<title>comparator::compare</title>
<ellipse fill="none" stroke="black" cx="549" cy="-200" rx="41.69" ry="18"/>
<text text-anchor="middle" x="549" y="-196.3" font-family="Times,serif" font-size="14.00">compare</text>
</g>
<!-- simple_map::find&#45;&gt;comparator::compare -->
<g id="edge63" class="edge">
<title>simple_map::find&#45;&gt;comparator::compare</title>
<path fill="none" stroke="black" d="M446.02,-274.01C461.53,-268.27 481.78,-259.68 498,-249 508.21,-242.28 518.26,-233.44 526.7,-225.18"/>
<polygon fill="black" stroke="black" points="528.97,-227.86 533.5,-218.29 523.99,-222.95 528.97,-227.86"/>
</g>
<!-- comparator::is_smaller_than -->
<g id="node42" class="node">
<title>comparator::is_smaller_than</title>
<ellipse fill="none" stroke="black" cx="422" cy="-200" rx="66.89" ry="18"/>
<text text-anchor="middle" x="422" y="-196.3" font-family="Times,serif" font-size="14.00">is_smaller_than</text>
</g>
<!-- simple_map::find&#45;&gt;comparator::is_smaller_than -->
<g id="edge64" class="edge">
<title>simple_map::find&#45;&gt;comparator::is_smaller_than</title>
<path fill="none" stroke="black" d="M422,-264.82C422,-254.69 422,-241.6 422,-229.92"/>
<polygon fill="black" stroke="black" points="425.5,-229.95 422,-219.95 418.5,-229.95 425.5,-229.95"/>
</g>
<!-- merge&#45;&gt;error::invalid_argument -->
<g id="edge65" class="edge">
<title>merge&#45;&gt;error::invalid_argument</title>
<path fill="none" stroke="black" d="M1100.2,-352.12C1075.4,-348.42 1040.07,-343.43 1009,-340 966,-335.26 953.28,-344.92 912,-332 893.89,-326.33 875.44,-316.19 860.56,-306.68"/>
<polygon fill="black" stroke="black" points="862.86,-304.01 852.59,-301.42 859,-309.85 862.86,-304.01"/>
</g>
<!-- table::new_table_handle -->
<g id="node43" class="node">
<title>table::new_table_handle</title>
<ellipse fill="none" stroke="black" cx="1728" cy="-283" rx="74.99" ry="18"/>
<text text-anchor="middle" x="1728" y="-279.3" font-family="Times,serif" font-size="14.00">new_table_handle</text>
</g>
<!-- table::new&#45;&gt;table::new_table_handle -->
<g id="edge66" class="edge">
<title>table::new&#45;&gt;table::new_table_handle</title>
<path fill="none" stroke="black" d="M1745.67,-340.07C1743.06,-331.8 1739.86,-321.64 1736.9,-312.24"/>
<polygon fill="black" stroke="black" points="1740.26,-311.28 1733.92,-302.79 1733.59,-313.38 1740.26,-311.28"/>
</g>
<!-- event::new_event_handle -->
<g id="node44" class="node">
<title>event::new_event_handle</title>
<ellipse fill="none" stroke="black" cx="2022" cy="-283" rx="76.89" ry="18"/>
<text text-anchor="middle" x="2022" y="-279.3" font-family="Times,serif" font-size="14.00">new_event_handle</text>
</g>
<!-- account::new_event_handle&#45;&gt;event::new_event_handle -->
<g id="edge67" class="edge">
<title>account::new_event_handle&#45;&gt;event::new_event_handle</title>
<path fill="none" stroke="black" d="M2148.05,-344.49C2135.73,-340.95 2122.75,-336.75 2111,-332 2093.11,-324.77 2074.17,-314.9 2058.39,-305.98"/>
<polygon fill="black" stroke="black" points="2060.24,-303.01 2049.83,-301.06 2056.75,-309.08 2060.24,-303.01"/>
</g>
<!-- account::create_guid -->
<g id="node45" class="node">
<title>account::create_guid</title>
<ellipse fill="none" stroke="black" cx="2200" cy="-283" rx="51.99" ry="18"/>
<text text-anchor="middle" x="2200" y="-279.3" font-family="Times,serif" font-size="14.00">create_guid</text>
</g>
<!-- account::new_event_handle&#45;&gt;account::create_guid -->
<g id="edge68" class="edge">
<title>account::new_event_handle&#45;&gt;account::create_guid</title>
<path fill="none" stroke="black" d="M2200,-339.7C2200,-331.67 2200,-321.9 2200,-312.8"/>
<polygon fill="black" stroke="black" points="2203.5,-312.94 2200,-302.94 2196.5,-312.94 2203.5,-312.94"/>
</g>
<!-- option::is_some&#45;&gt;vector::is_empty -->
<g id="edge69" class="edge">
<title>option::is_some&#45;&gt;vector::is_empty</title>
<path fill="none" stroke="black" d="M73.55,-99.61C82.15,-88.37 93.72,-73.25 103.51,-60.46"/>
<polygon fill="black" stroke="black" points="106.04,-62.92 109.34,-52.85 100.48,-58.66 106.04,-62.92"/>
</g>
<!-- vector::singleton -->
<g id="node46" class="node">
<title>vector::singleton</title>
<ellipse fill="none" stroke="black" cx="227" cy="-34" rx="42.79" ry="18"/>
<text text-anchor="middle" x="227" y="-30.3" font-family="Times,serif" font-size="14.00">singleton</text>
</g>
<!-- option::some&#45;&gt;vector::singleton -->
<g id="edge70" class="edge">
<title>option::some&#45;&gt;vector::singleton</title>
<path fill="none" stroke="black" d="M227,-181.76C227,-153.63 227,-97.6 227,-63.49"/>
<polygon fill="black" stroke="black" points="230.5,-63.52 227,-53.52 223.5,-63.52 230.5,-63.52"/>
</g>
<!-- comparator::compare&#45;&gt;bcs::to_bytes -->
<g id="edge71" class="edge">
<title>comparator::compare&#45;&gt;bcs::to_bytes</title>
<path fill="none" stroke="black" d="M574.54,-185.48C583.36,-181.27 593.43,-176.97 603,-174 699.76,-144.01 817.71,-128.93 883.48,-122.34"/>
<polygon fill="black" stroke="black" points="883.62,-125.84 893.24,-121.39 882.94,-118.87 883.62,-125.84"/>
</g>
<!-- comparator::compare_u8_vector -->
<g id="node47" class="node">
<title>comparator::compare_u8_vector</title>
<ellipse fill="none" stroke="black" cx="510" cy="-117" rx="81.49" ry="18"/>
<text text-anchor="middle" x="510" y="-113.3" font-family="Times,serif" font-size="14.00">compare_u8_vector</text>
</g>
<!-- comparator::compare&#45;&gt;comparator::compare_u8_vector -->
<g id="edge72" class="edge">
<title>comparator::compare&#45;&gt;comparator::compare_u8_vector</title>
<path fill="none" stroke="black" d="M540.92,-182.22C535.81,-171.61 529.09,-157.65 523.22,-145.45"/>
<polygon fill="black" stroke="black" points="526.49,-144.18 519,-136.68 520.18,-147.21 526.49,-144.18"/>
</g>
<!-- account::create_guid&#45;&gt;signer::address_of -->
<g id="edge73" class="edge">
<title>account::create_guid&#45;&gt;signer::address_of</title>
<path fill="none" stroke="black" d="M2221.28,-266.19C2237.74,-253.96 2260.74,-236.87 2279.05,-223.25"/>
<polygon fill="black" stroke="black" points="2281,-226.17 2286.93,-217.4 2276.82,-220.55 2281,-226.17"/>
</g>
<!-- guid::create -->
<g id="node48" class="node">
<title>guid::create</title>
<ellipse fill="none" stroke="black" cx="2191" cy="-200" rx="31.7" ry="18"/>
<text text-anchor="middle" x="2191" y="-196.3" font-family="Times,serif" font-size="14.00">create</text>
</g>
<!-- account::create_guid&#45;&gt;guid::create -->
<g id="edge74" class="edge">
<title>account::create_guid&#45;&gt;guid::create</title>
<path fill="none" stroke="black" d="M2198.09,-264.82C2196.95,-254.58 2195.48,-241.33 2194.17,-229.55"/>
<polygon fill="black" stroke="black" points="2197.69,-229.49 2193.1,-219.94 2190.73,-230.26 2197.69,-229.49"/>
</g>
</g>
</svg>
