<?xml version="1.0" encoding="UTF-8" standalone="no"?>
<!DOCTYPE svg PUBLIC "-//W3C//DTD SVG 1.1//EN"
 "http://www.w3.org/Graphics/SVG/1.1/DTD/svg11.dtd">
<!-- Generated by graphviz version 7.0.0 (20221023.0053)
 -->
<!-- Title: G Pages: 1 -->
<svg width="274pt" height="207pt"
 viewBox="0.00 0.00 274.00 207.00" xmlns="http://www.w3.org/2000/svg" xmlns:xlink="http://www.w3.org/1999/xlink">
<g id="graph0" class="graph" transform="scale(1 1) rotate(0) translate(4 203)">
<title>G</title>
<polygon fill="white" stroke="none" points="-4,4 -4,-203 270,-203 270,4 -4,4"/>
<g id="clust1" class="cluster">
<title>cluster_table</title>
<polygon fill="none" stroke="black" points="8,-8 8,-155 140,-155 140,-8 8,-8"/>
<text text-anchor="middle" x="74" y="-139.8" font-family="Times,serif" font-size="14.00">table</text>
</g>
<g id="clust2" class="cluster">
<title>cluster_error</title>
<polygon fill="none" stroke="black" points="148,-8 148,-155 258,-155 258,-8 148,-8"/>
<text text-anchor="middle" x="203" y="-139.8" font-family="Times,serif" font-size="14.00">error</text>
</g>
<!-- assert_collection_exists -->
<g id="node1" class="node">
<title>assert_collection_exists</title>
<ellipse fill="none" stroke="black" cx="147" cy="-181" rx="94.48" ry="18"/>
<text text-anchor="middle" x="147" y="-177.3" font-family="Times,serif" font-size="14.00">assert_collection_exists</text>
</g>
<!-- table::contains -->
<g id="node2" class="node">
<title>table::contains</title>
<ellipse fill="none" stroke="black" cx="83" cy="-106" rx="40.09" ry="18"/>
<text text-anchor="middle" x="83" y="-102.3" font-family="Times,serif" font-size="14.00">contains</text>
</g>
<!-- assert_collection_exists&#45;&gt;table::contains -->
<g id="edge1" class="edge">
<title>assert_collection_exists&#45;&gt;table::contains</title>
<path fill="none" stroke="black" d="M132.16,-163.07C123.99,-153.75 113.7,-142.02 104.65,-131.7"/>
<polygon fill="black" stroke="black" points="107.33,-129.44 98.1,-124.23 102.06,-134.05 107.33,-129.44"/>
</g>
<!-- error::not_found -->
<g id="node3" class="node">
<title>error::not_found</title>
<ellipse fill="none" stroke="black" cx="203" cy="-106" rx="46.59" ry="18"/>
<text text-anchor="middle" x="203" y="-102.3" font-family="Times,serif" font-size="14.00">not_found</text>
</g>
<!-- assert_collection_exists&#45;&gt;error::not_found -->
<g id="edge2" class="edge">
<title>assert_collection_exists&#45;&gt;error::not_found</title>
<path fill="none" stroke="black" d="M160.27,-162.7C167.13,-153.75 175.65,-142.66 183.26,-132.73"/>
<polygon fill="black" stroke="black" points="185.98,-134.94 189.29,-124.87 180.42,-130.68 185.98,-134.94"/>
</g>
<!-- table::contains_box -->
<g id="node4" class="node">
<title>table::contains_box</title>
<ellipse fill="none" stroke="black" cx="74" cy="-34" rx="57.69" ry="18"/>
<text text-anchor="middle" x="74" y="-30.3" font-family="Times,serif" font-size="14.00">contains_box</text>
</g>
<!-- table::contains&#45;&gt;table::contains_box -->
<g id="edge3" class="edge">
<title>table::contains&#45;&gt;table::contains_box</title>
<path fill="none" stroke="black" d="M80.78,-87.7C79.83,-80.32 78.7,-71.52 77.63,-63.25"/>
<polygon fill="black" stroke="black" points="81.14,-63.08 76.39,-53.61 74.2,-63.97 81.14,-63.08"/>
</g>
<!-- error::canonical -->
<g id="node5" class="node">
<title>error::canonical</title>
<ellipse fill="none" stroke="black" cx="203" cy="-34" rx="44.39" ry="18"/>
<text text-anchor="middle" x="203" y="-30.3" font-family="Times,serif" font-size="14.00">canonical</text>
</g>
<!-- error::not_found&#45;&gt;error::canonical -->
<g id="edge4" class="edge">
<title>error::not_found&#45;&gt;error::canonical</title>
<path fill="none" stroke="black" d="M203,-87.7C203,-80.41 203,-71.73 203,-63.54"/>
<polygon fill="black" stroke="black" points="206.5,-63.62 203,-53.62 199.5,-63.62 206.5,-63.62"/>
</g>
</g>
</svg>
