<?xml version="1.0" encoding="UTF-8" standalone="no"?>
<!DOCTYPE svg PUBLIC "-//W3C//DTD SVG 1.1//EN"
 "http://www.w3.org/Graphics/SVG/1.1/DTD/svg11.dtd">
<!-- Generated by graphviz version 7.0.0 (20221023.0053)
 -->
<!-- Title: G Pages: 1 -->
<svg width="558pt" height="218pt"
 viewBox="0.00 0.00 558.00 218.00" xmlns="http://www.w3.org/2000/svg" xmlns:xlink="http://www.w3.org/1999/xlink">
<g id="graph0" class="graph" transform="scale(1 1) rotate(0) translate(4 214)">
<title>G</title>
<polygon fill="white" stroke="none" points="-4,4 -4,-214 554,-214 554,4 -4,4"/>
<g id="clust1" class="cluster">
<title>cluster_option</title>
<polygon fill="none" stroke="black" points="392,-91 392,-166 542,-166 542,-91 392,-91"/>
<text text-anchor="middle" x="467" y="-150.8" font-family="Times,serif" font-size="14.00">option</text>
</g>
<g id="clust2" class="cluster">
<title>cluster_table</title>
<polygon fill="none" stroke="black" points="8,-8 8,-166 266,-166 266,-8 8,-8"/>
<text text-anchor="middle" x="137" y="-150.8" font-family="Times,serif" font-size="14.00">table</text>
</g>
<g id="clust3" class="cluster">
<title>cluster_error</title>
<polygon fill="none" stroke="black" points="274,-8 274,-166 384,-166 384,-8 274,-8"/>
<text text-anchor="middle" x="329" y="-150.8" font-family="Times,serif" font-size="14.00">error</text>
</g>
<g id="clust4" class="cluster">
<title>cluster_vector</title>
<polygon fill="none" stroke="black" points="392,-8 392,-83 494,-83 494,-8 392,-8"/>
<text text-anchor="middle" x="443" y="-67.8" font-family="Times,serif" font-size="14.00">vector</text>
</g>
<!-- get_token_supply -->
<g id="node1" class="node">
<title>get_token_supply</title>
<ellipse fill="none" stroke="black" cx="329" cy="-192" rx="73.39" ry="18"/>
<text text-anchor="middle" x="329" y="-188.3" font-family="Times,serif" font-size="14.00">get_token_supply</text>
</g>
<!-- option::none -->
<g id="node2" class="node">
<title>option::none</title>
<ellipse fill="none" stroke="black" cx="506" cy="-117" rx="27.9" ry="18"/>
<text text-anchor="middle" x="506" y="-113.3" font-family="Times,serif" font-size="14.00">none</text>
</g>
<!-- get_token_supply&#45;&gt;option::none -->
<g id="edge1" class="edge">
<title>get_token_supply&#45;&gt;option::none</title>
<path fill="none" stroke="black" d="M401.32,-188.27C424.24,-184.82 448.84,-178.23 469,-166 477.92,-160.59 485.48,-152.16 491.4,-143.87"/>
<polygon fill="black" stroke="black" points="494.23,-145.95 496.75,-135.66 488.36,-142.13 494.23,-145.95"/>
</g>
<!-- option::some -->
<g id="node3" class="node">
<title>option::some</title>
<ellipse fill="none" stroke="black" cx="430" cy="-117" rx="29.8" ry="18"/>
<text text-anchor="middle" x="430" y="-113.3" font-family="Times,serif" font-size="14.00">some</text>
</g>
<!-- get_token_supply&#45;&gt;option::some -->
<g id="edge2" class="edge">
<title>get_token_supply&#45;&gt;option::some</title>
<path fill="none" stroke="black" d="M369.67,-176.65C376.07,-173.59 382.41,-170.04 388,-166 396.86,-159.59 405.14,-150.97 411.97,-142.81"/>
<polygon fill="black" stroke="black" points="414.6,-145.13 418.07,-135.12 409.11,-140.78 414.6,-145.13"/>
</g>
<!-- table::contains -->
<g id="node4" class="node">
<title>table::contains</title>
<ellipse fill="none" stroke="black" cx="209" cy="-117" rx="40.09" ry="18"/>
<text text-anchor="middle" x="209" y="-113.3" font-family="Times,serif" font-size="14.00">contains</text>
</g>
<!-- get_token_supply&#45;&gt;table::contains -->
<g id="edge3" class="edge">
<title>get_token_supply&#45;&gt;table::contains</title>
<path fill="none" stroke="black" d="M290.19,-176.3C283.3,-173.21 276.32,-169.74 270,-166 257.8,-158.79 245.32,-149.4 234.86,-140.84"/>
<polygon fill="black" stroke="black" points="237.31,-138.33 227.4,-134.58 232.81,-143.69 237.31,-138.33"/>
</g>
<!-- table::borrow -->
<g id="node5" class="node">
<title>table::borrow</title>
<ellipse fill="none" stroke="black" cx="92" cy="-117" rx="36.29" ry="18"/>
<text text-anchor="middle" x="92" y="-113.3" font-family="Times,serif" font-size="14.00">borrow</text>
</g>
<!-- get_token_supply&#45;&gt;table::borrow -->
<g id="edge4" class="edge">
<title>get_token_supply&#45;&gt;table::borrow</title>
<path fill="none" stroke="black" d="M257.18,-187.8C226.4,-184.56 190.56,-178.23 160,-166 144.71,-159.88 129.56,-149.7 117.45,-140.28"/>
<polygon fill="black" stroke="black" points="119.99,-137.83 110.01,-134.26 115.59,-143.27 119.99,-137.83"/>
</g>
<!-- error::not_found -->
<g id="node6" class="node">
<title>error::not_found</title>
<ellipse fill="none" stroke="black" cx="329" cy="-117" rx="46.59" ry="18"/>
<text text-anchor="middle" x="329" y="-113.3" font-family="Times,serif" font-size="14.00">not_found</text>
</g>
<!-- get_token_supply&#45;&gt;error::not_found -->
<g id="edge5" class="edge">
<title>get_token_supply&#45;&gt;error::not_found</title>
<path fill="none" stroke="black" d="M329,-173.7C329,-165.67 329,-155.9 329,-146.8"/>
<polygon fill="black" stroke="black" points="332.5,-146.94 329,-136.94 325.5,-146.94 332.5,-146.94"/>
</g>
<!-- vector::singleton -->
<g id="node7" class="node">
<title>vector::singleton</title>
<ellipse fill="none" stroke="black" cx="443" cy="-34" rx="42.79" ry="18"/>
<text text-anchor="middle" x="443" y="-30.3" font-family="Times,serif" font-size="14.00">singleton</text>
</g>
<!-- option::some&#45;&gt;vector::singleton -->
<g id="edge6" class="edge">
<title>option::some&#45;&gt;vector::singleton</title>
<path fill="none" stroke="black" d="M432.76,-98.82C434.4,-88.58 436.53,-75.33 438.42,-63.55"/>
<polygon fill="black" stroke="black" points="441.83,-64.36 439.96,-53.93 434.92,-63.25 441.83,-64.36"/>
</g>
<!-- table::contains_box -->
<g id="node8" class="node">
<title>table::contains_box</title>
<ellipse fill="none" stroke="black" cx="200" cy="-34" rx="57.69" ry="18"/>
<text text-anchor="middle" x="200" y="-30.3" font-family="Times,serif" font-size="14.00">contains_box</text>
</g>
<!-- table::contains&#45;&gt;table::contains_box -->
<g id="edge7" class="edge">
<title>table::contains&#45;&gt;table::contains_box</title>
<path fill="none" stroke="black" d="M207.09,-98.82C205.95,-88.58 204.48,-75.33 203.17,-63.55"/>
<polygon fill="black" stroke="black" points="206.69,-63.49 202.1,-53.94 199.73,-64.26 206.69,-63.49"/>
</g>
<!-- table::borrow_box -->
<g id="node9" class="node">
<title>table::borrow_box</title>
<ellipse fill="none" stroke="black" cx="70" cy="-34" rx="53.89" ry="18"/>
<text text-anchor="middle" x="70" y="-30.3" font-family="Times,serif" font-size="14.00">borrow_box</text>
</g>
<!-- table::borrow&#45;&gt;table::borrow_box -->
<g id="edge8" class="edge">
<title>table::borrow&#45;&gt;table::borrow_box</title>
<path fill="none" stroke="black" d="M87.33,-98.82C84.51,-88.41 80.83,-74.87 77.59,-62.94"/>
<polygon fill="black" stroke="black" points="81.05,-62.35 75.06,-53.61 74.3,-64.18 81.05,-62.35"/>
</g>
<!-- error::canonical -->
<g id="node10" class="node">
<title>error::canonical</title>
<ellipse fill="none" stroke="black" cx="329" cy="-34" rx="44.39" ry="18"/>
<text text-anchor="middle" x="329" y="-30.3" font-family="Times,serif" font-size="14.00">canonical</text>
</g>
<!-- error::not_found&#45;&gt;error::canonical -->
<g id="edge9" class="edge">
<title>error::not_found&#45;&gt;error::canonical</title>
<path fill="none" stroke="black" d="M329,-98.82C329,-88.69 329,-75.6 329,-63.92"/>
<polygon fill="black" stroke="black" points="332.5,-63.95 329,-53.95 325.5,-63.95 332.5,-63.95"/>
</g>
</g>
</svg>
