<?xml version="1.0" encoding="UTF-8" standalone="no"?>
<!DOCTYPE svg PUBLIC "-//W3C//DTD SVG 1.1//EN"
 "http://www.w3.org/Graphics/SVG/1.1/DTD/svg11.dtd">
<!-- Generated by graphviz version 7.0.0 (20221023.0053)
 -->
<!-- Title: G Pages: 1 -->
<svg width="1663pt" height="622pt"
 viewBox="0.00 0.00 1663.00 622.00" xmlns="http://www.w3.org/2000/svg" xmlns:xlink="http://www.w3.org/1999/xlink">
<g id="graph0" class="graph" transform="scale(1 1) rotate(0) translate(4 618)">
<title>G</title>
<polygon fill="white" stroke="none" points="-4,4 -4,-618 1659,-618 1659,4 -4,4"/>
<g id="clust1" class="cluster">
<title>cluster_table</title>
<polygon fill="none" stroke="black" points="8,-423 8,-570 302,-570 302,-423 8,-423"/>
<text text-anchor="middle" x="155" y="-554.8" font-family="Times,serif" font-size="14.00">table</text>
</g>
<g id="clust2" class="cluster">
<title>cluster_error</title>
<polygon fill="none" stroke="black" points="324,-174 324,-332 868,-332 868,-174 324,-174"/>
<text text-anchor="middle" x="596" y="-316.8" font-family="Times,serif" font-size="14.00">error</text>
</g>
<g id="clust3" class="cluster">
<title>cluster_property_map</title>
<polygon fill="none" stroke="black" points="380,-340 380,-570 672,-570 672,-340 380,-340"/>
<text text-anchor="middle" x="526" y="-554.8" font-family="Times,serif" font-size="14.00">property_map</text>
</g>
<g id="clust4" class="cluster">
<title>cluster_string</title>
<polygon fill="none" stroke="black" points="680,-340 680,-415 760,-415 760,-340 680,-340"/>
<text text-anchor="middle" x="720" y="-399.8" font-family="Times,serif" font-size="14.00">string</text>
</g>
<g id="clust5" class="cluster">
<title>cluster_simple_map</title>
<polygon fill="none" stroke="black" points="876,-257 876,-415 1289,-415 1289,-257 876,-257"/>
<text text-anchor="middle" x="1082.5" y="-399.8" font-family="Times,serif" font-size="14.00">simple_map</text>
</g>
<g id="clust6" class="cluster">
<title>cluster_option</title>
<polygon fill="none" stroke="black" points="952,-91 952,-249 1283,-249 1283,-91 952,-91"/>
<text text-anchor="middle" x="1117.5" y="-233.8" font-family="Times,serif" font-size="14.00">option</text>
</g>
<g id="clust7" class="cluster">
<title>cluster_vector</title>
<polygon fill="none" stroke="black" points="1033,-8 1033,-83 1240,-83 1240,-8 1033,-8"/>
<text text-anchor="middle" x="1136.5" y="-67.8" font-family="Times,serif" font-size="14.00">vector</text>
</g>
<g id="clust8" class="cluster">
<title>cluster_comparator</title>
<polygon fill="none" stroke="black" points="1395,-91 1395,-249 1647,-249 1647,-91 1395,-91"/>
<text text-anchor="middle" x="1521" y="-233.8" font-family="Times,serif" font-size="14.00">comparator</text>
</g>
<g id="clust9" class="cluster">
<title>cluster_bcs</title>
<polygon fill="none" stroke="black" points="1291,-91 1291,-166 1387,-166 1387,-91 1291,-91"/>
<text text-anchor="middle" x="1339" y="-150.8" font-family="Times,serif" font-size="14.00">bcs</text>
</g>
<!-- update_token_property_internal -->
<g id="node1" class="node">
<title>update_token_property_internal</title>
<ellipse fill="none" stroke="black" cx="288" cy="-596" rx="123.48" ry="18"/>
<text text-anchor="middle" x="288" y="-592.3" font-family="Times,serif" font-size="14.00">update_token_property_internal</text>
</g>
<!-- table::contains -->
<g id="node2" class="node">
<title>table::contains</title>
<ellipse fill="none" stroke="black" cx="245" cy="-521" rx="40.09" ry="18"/>
<text text-anchor="middle" x="245" y="-517.3" font-family="Times,serif" font-size="14.00">contains</text>
</g>
<!-- update_token_property_internal&#45;&gt;table::contains -->
<g id="edge1" class="edge">
<title>update_token_property_internal&#45;&gt;table::contains</title>
<path fill="none" stroke="black" d="M277.81,-577.7C272.69,-569 266.36,-558.27 260.64,-548.55"/>
<polygon fill="black" stroke="black" points="263.83,-547.07 255.74,-540.23 257.8,-550.62 263.83,-547.07"/>
</g>
<!-- table::borrow_mut -->
<g id="node3" class="node">
<title>table::borrow_mut</title>
<ellipse fill="none" stroke="black" cx="110" cy="-521" rx="54.69" ry="18"/>
<text text-anchor="middle" x="110" y="-517.3" font-family="Times,serif" font-size="14.00">borrow_mut</text>
</g>
<!-- update_token_property_internal&#45;&gt;table::borrow_mut -->
<g id="edge2" class="edge">
<title>update_token_property_internal&#45;&gt;table::borrow_mut</title>
<path fill="none" stroke="black" d="M224.96,-580.07C215.13,-577.12 205.2,-573.75 196,-570 178.08,-562.69 159.19,-552.46 143.69,-543.32"/>
<polygon fill="black" stroke="black" points="145.71,-540.45 135.34,-538.29 142.1,-546.45 145.71,-540.45"/>
</g>
<!-- error::not_found -->
<g id="node4" class="node">
<title>error::not_found</title>
<ellipse fill="none" stroke="black" cx="519" cy="-283" rx="46.59" ry="18"/>
<text text-anchor="middle" x="519" y="-279.3" font-family="Times,serif" font-size="14.00">not_found</text>
</g>
<!-- update_token_property_internal&#45;&gt;error::not_found -->
<g id="edge3" class="edge">
<title>update_token_property_internal&#45;&gt;error::not_found</title>
<path fill="none" stroke="black" d="M301.54,-577.7C303.18,-575.2 304.72,-572.59 306,-570 353.41,-474.24 293.15,-407.48 376,-340 391.05,-327.74 445.12,-339.56 463,-332 475.64,-326.65 487.51,-317.37 497.05,-308.38"/>
<polygon fill="black" stroke="black" points="499.43,-310.95 504.03,-301.4 494.48,-306 499.43,-310.95"/>
</g>
<!-- property_map::update_property_map -->
<g id="node5" class="node">
<title>property_map::update_property_map</title>
<ellipse fill="none" stroke="black" cx="476" cy="-521" rx="88.28" ry="18"/>
<text text-anchor="middle" x="476" y="-517.3" font-family="Times,serif" font-size="14.00">update_property_map</text>
</g>
<!-- update_token_property_internal&#45;&gt;property_map::update_property_map -->
<g id="edge4" class="edge">
<title>update_token_property_internal&#45;&gt;property_map::update_property_map</title>
<path fill="none" stroke="black" d="M330.19,-578.62C358.44,-567.65 395.77,-553.15 425.59,-541.58"/>
<polygon fill="black" stroke="black" points="426.74,-544.88 434.79,-538 424.2,-538.36 426.74,-544.88"/>
</g>
<!-- table::contains_box -->
<g id="node6" class="node">
<title>table::contains_box</title>
<ellipse fill="none" stroke="black" cx="236" cy="-449" rx="57.69" ry="18"/>
<text text-anchor="middle" x="236" y="-445.3" font-family="Times,serif" font-size="14.00">contains_box</text>
</g>
<!-- table::contains&#45;&gt;table::contains_box -->
<g id="edge5" class="edge">
<title>table::contains&#45;&gt;table::contains_box</title>
<path fill="none" stroke="black" d="M242.78,-502.7C241.83,-495.32 240.7,-486.52 239.63,-478.25"/>
<polygon fill="black" stroke="black" points="243.14,-478.08 238.39,-468.61 236.2,-478.97 243.14,-478.08"/>
</g>
<!-- table::borrow_box_mut -->
<g id="node7" class="node">
<title>table::borrow_box_mut</title>
<ellipse fill="none" stroke="black" cx="88" cy="-449" rx="72.29" ry="18"/>
<text text-anchor="middle" x="88" y="-445.3" font-family="Times,serif" font-size="14.00">borrow_box_mut</text>
</g>
<!-- table::borrow_mut&#45;&gt;table::borrow_box_mut -->
<g id="edge6" class="edge">
<title>table::borrow_mut&#45;&gt;table::borrow_box_mut</title>
<path fill="none" stroke="black" d="M104.56,-502.7C102.22,-495.24 99.42,-486.32 96.79,-477.97"/>
<polygon fill="black" stroke="black" points="100.17,-477.04 93.83,-468.55 93.49,-479.14 100.17,-477.04"/>
</g>
<!-- error::canonical -->
<g id="node8" class="node">
<title>error::canonical</title>
<ellipse fill="none" stroke="black" cx="579" cy="-200" rx="44.39" ry="18"/>
<text text-anchor="middle" x="579" y="-196.3" font-family="Times,serif" font-size="14.00">canonical</text>
</g>
<!-- error::not_found&#45;&gt;error::canonical -->
<g id="edge7" class="edge">
<title>error::not_found&#45;&gt;error::canonical</title>
<path fill="none" stroke="black" d="M531.43,-265.22C539.64,-254.14 550.55,-239.41 559.85,-226.85"/>
<polygon fill="black" stroke="black" points="562.54,-229.1 565.68,-218.98 556.92,-224.93 562.54,-229.1"/>
</g>
<!-- error::invalid_state -->
<g id="node9" class="node">
<title>error::invalid_state</title>
<ellipse fill="none" stroke="black" cx="640" cy="-283" rx="55.79" ry="18"/>
<text text-anchor="middle" x="640" y="-279.3" font-family="Times,serif" font-size="14.00">invalid_state</text>
</g>
<!-- property_map::update_property_map&#45;&gt;error::invalid_state -->
<g id="edge8" class="edge">
<title>property_map::update_property_map&#45;&gt;error::invalid_state</title>
<path fill="none" stroke="black" d="M433.12,-505.06C415.9,-496.71 397.83,-484.39 388,-467 358.47,-414.73 383.16,-371.92 434,-340 460.58,-323.31 545.48,-342.65 575,-332 589.58,-326.74 603.68,-317.08 615,-307.8"/>
<polygon fill="black" stroke="black" points="617,-310.69 622.29,-301.52 612.43,-305.39 617,-310.69"/>
</g>
<!-- property_map::add -->
<g id="node10" class="node">
<title>property_map::add</title>
<ellipse fill="none" stroke="black" cx="637" cy="-449" rx="27" ry="18"/>
<text text-anchor="middle" x="637" y="-445.3" font-family="Times,serif" font-size="14.00">add</text>
</g>
<!-- property_map::update_property_map&#45;&gt;property_map::add -->
<g id="edge9" class="edge">
<title>property_map::update_property_map&#45;&gt;property_map::add</title>
<path fill="none" stroke="black" d="M513.91,-504.39C538.79,-494.04 571.96,-480.01 601,-467 602.31,-466.41 603.65,-465.81 605,-465.19"/>
<polygon fill="black" stroke="black" points="606.39,-468.41 613.99,-461.03 603.45,-462.06 606.39,-468.41"/>
</g>
<!-- property_map::contains_key -->
<g id="node11" class="node">
<title>property_map::contains_key</title>
<ellipse fill="none" stroke="black" cx="500" cy="-366" rx="57.39" ry="18"/>
<text text-anchor="middle" x="500" y="-362.3" font-family="Times,serif" font-size="14.00">contains_key</text>
</g>
<!-- property_map::update_property_map&#45;&gt;property_map::contains_key -->
<g id="edge10" class="edge">
<title>property_map::update_property_map&#45;&gt;property_map::contains_key</title>
<path fill="none" stroke="black" d="M439.15,-504.29C423.82,-495.68 407.61,-483.38 399,-467 389.9,-449.69 389.08,-439.85 399,-423 409.86,-404.56 429.22,-391.76 448.11,-383.11"/>
<polygon fill="black" stroke="black" points="449.25,-386.42 457.1,-379.3 446.53,-379.98 449.25,-386.42"/>
</g>
<!-- property_map::update_property_value -->
<g id="node12" class="node">
<title>property_map::update_property_value</title>
<ellipse fill="none" stroke="black" cx="500" cy="-449" rx="91.78" ry="18"/>
<text text-anchor="middle" x="500" y="-445.3" font-family="Times,serif" font-size="14.00">update_property_value</text>
</g>
<!-- property_map::update_property_map&#45;&gt;property_map::update_property_value -->
<g id="edge11" class="edge">
<title>property_map::update_property_map&#45;&gt;property_map::update_property_value</title>
<path fill="none" stroke="black" d="M481.93,-502.7C484.49,-495.24 487.55,-486.32 490.41,-477.97"/>
<polygon fill="black" stroke="black" points="493.71,-479.13 493.64,-468.54 487.09,-476.86 493.71,-479.13"/>
</g>
<!-- error::invalid_state&#45;&gt;error::canonical -->
<g id="edge12" class="edge">
<title>error::invalid_state&#45;&gt;error::canonical</title>
<path fill="none" stroke="black" d="M627.36,-265.22C618.96,-254.07 607.77,-239.21 598.28,-226.6"/>
<polygon fill="black" stroke="black" points="601.14,-224.58 592.32,-218.69 595.54,-228.79 601.14,-224.58"/>
</g>
<!-- property_map::add&#45;&gt;error::invalid_state -->
<g id="edge16" class="edge">
<title>property_map::add&#45;&gt;error::invalid_state</title>
<path fill="none" stroke="black" d="M664.1,-446.31C704.61,-443.15 777.94,-434.79 794,-415 815.01,-389.12 816.49,-364.6 794,-340 780.6,-325.34 723.56,-339.05 705,-332 690.62,-326.54 676.63,-316.95 665.33,-307.77"/>
<polygon fill="black" stroke="black" points="667.93,-305.38 658.05,-301.56 663.39,-310.71 667.93,-305.38"/>
</g>
<!-- string::length -->
<g id="node13" class="node">
<title>string::length</title>
<ellipse fill="none" stroke="black" cx="720" cy="-366" rx="32.49" ry="18"/>
<text text-anchor="middle" x="720" y="-362.3" font-family="Times,serif" font-size="14.00">length</text>
</g>
<!-- property_map::add&#45;&gt;string::length -->
<g id="edge13" class="edge">
<title>property_map::add&#45;&gt;string::length</title>
<path fill="none" stroke="black" d="M653.72,-434.64C660.78,-428.8 668.97,-421.76 676,-415 683.82,-407.49 691.95,-398.87 699.07,-391.02"/>
<polygon fill="black" stroke="black" points="701.54,-393.51 705.59,-383.73 696.32,-388.85 701.54,-393.51"/>
</g>
<!-- error::already_exists -->
<g id="node14" class="node">
<title>error::already_exists</title>
<ellipse fill="none" stroke="black" cx="393" cy="-283" rx="61.19" ry="18"/>
<text text-anchor="middle" x="393" y="-279.3" font-family="Times,serif" font-size="14.00">already_exists</text>
</g>
<!-- property_map::add&#45;&gt;error::already_exists -->
<g id="edge14" class="edge">
<title>property_map::add&#45;&gt;error::already_exists</title>
<path fill="none" stroke="black" d="M621.21,-434.19C615.27,-429.8 608.2,-425.45 601,-423 583.41,-417.03 448.7,-426.36 434,-415 402.86,-390.95 394.84,-343.44 393.06,-312.73"/>
<polygon fill="black" stroke="black" points="396.57,-312.86 392.7,-303 389.57,-313.12 396.57,-312.86"/>
</g>
<!-- error::invalid_argument -->
<g id="node15" class="node">
<title>error::invalid_argument</title>
<ellipse fill="none" stroke="black" cx="787" cy="-283" rx="73.39" ry="18"/>
<text text-anchor="middle" x="787" y="-279.3" font-family="Times,serif" font-size="14.00">invalid_argument</text>
</g>
<!-- property_map::add&#45;&gt;error::invalid_argument -->
<g id="edge15" class="edge">
<title>property_map::add&#45;&gt;error::invalid_argument</title>
<path fill="none" stroke="black" d="M664.16,-447.08C709.37,-444.92 797,-437.83 816,-415 840.56,-385.5 821.49,-339.71 804.78,-310.82"/>
<polygon fill="black" stroke="black" points="807.79,-309.02 799.6,-302.29 801.8,-312.66 807.79,-309.02"/>
</g>
<!-- simple_map::length -->
<g id="node16" class="node">
<title>simple_map::length</title>
<ellipse fill="none" stroke="black" cx="1249" cy="-366" rx="32.49" ry="18"/>
<text text-anchor="middle" x="1249" y="-362.3" font-family="Times,serif" font-size="14.00">length</text>
</g>
<!-- property_map::add&#45;&gt;simple_map::length -->
<g id="edge17" class="edge">
<title>property_map::add&#45;&gt;simple_map::length</title>
<path fill="none" stroke="black" d="M664.37,-447.65C771.39,-446.12 1157.97,-438.98 1207,-415 1217.23,-410 1226.01,-401.27 1232.87,-392.62"/>
<polygon fill="black" stroke="black" points="1235.6,-394.82 1238.63,-384.66 1229.93,-390.71 1235.6,-394.82"/>
</g>
<!-- simple_map::add -->
<g id="node17" class="node">
<title>simple_map::add</title>
<ellipse fill="none" stroke="black" cx="1039" cy="-366" rx="27" ry="18"/>
<text text-anchor="middle" x="1039" y="-362.3" font-family="Times,serif" font-size="14.00">add</text>
</g>
<!-- property_map::add&#45;&gt;simple_map::add -->
<g id="edge18" class="edge">
<title>property_map::add&#45;&gt;simple_map::add</title>
<path fill="none" stroke="black" d="M664.39,-448.36C739.16,-448.91 944.98,-447.35 1003,-415 1012.16,-409.9 1019.68,-401.39 1025.43,-392.94"/>
<polygon fill="black" stroke="black" points="1028.33,-394.9 1030.58,-384.55 1022.37,-391.24 1028.33,-394.9"/>
</g>
<!-- simple_map::contains_key -->
<g id="node18" class="node">
<title>simple_map::contains_key</title>
<ellipse fill="none" stroke="black" cx="1141" cy="-366" rx="57.39" ry="18"/>
<text text-anchor="middle" x="1141" y="-362.3" font-family="Times,serif" font-size="14.00">contains_key</text>
</g>
<!-- property_map::add&#45;&gt;simple_map::contains_key -->
<g id="edge19" class="edge">
<title>property_map::add&#45;&gt;simple_map::contains_key</title>
<path fill="none" stroke="black" d="M664.35,-447.88C747.95,-447.22 999.03,-442.9 1075,-415 1089.59,-409.64 1103.79,-400.06 1115.26,-390.87"/>
<polygon fill="black" stroke="black" points="1117.27,-393.75 1122.67,-384.63 1112.76,-388.39 1117.27,-393.75"/>
</g>
<!-- property_map::contains_key&#45;&gt;simple_map::contains_key -->
<g id="edge20" class="edge">
<title>property_map::contains_key&#45;&gt;simple_map::contains_key</title>
<path fill="none" stroke="black" d="M537.24,-380C574.14,-393.07 632.56,-411.64 685,-419 705.96,-421.94 1045.29,-423.39 1066,-419 1084.94,-414.98 1102.78,-402.85 1116.31,-391.21"/>
<polygon fill="black" stroke="black" points="1118.38,-394.06 1123.42,-384.74 1113.67,-388.88 1118.38,-394.06"/>
</g>
<!-- property_map::update_property_value&#45;&gt;error::not_found -->
<g id="edge21" class="edge">
<title>property_map::update_property_value&#45;&gt;error::not_found</title>
<path fill="none" stroke="black" d="M550.22,-433.54C566.31,-429.45 584.29,-425.45 601,-423 618.94,-420.36 751.5,-428.13 764,-415 786.99,-390.86 787.07,-364.06 764,-340 749.46,-324.83 594.55,-339.71 575,-332 562.23,-326.97 550.34,-317.73 540.82,-308.7"/>
<polygon fill="black" stroke="black" points="543.39,-306.31 533.87,-301.66 538.41,-311.23 543.39,-306.31"/>
</g>
<!-- property_map::update_property_value&#45;&gt;property_map::contains_key -->
<g id="edge23" class="edge">
<title>property_map::update_property_value&#45;&gt;property_map::contains_key</title>
<path fill="none" stroke="black" d="M500,-430.82C500,-420.69 500,-407.6 500,-395.92"/>
<polygon fill="black" stroke="black" points="503.5,-395.95 500,-385.95 496.5,-395.95 503.5,-395.95"/>
</g>
<!-- simple_map::borrow_mut -->
<g id="node19" class="node">
<title>simple_map::borrow_mut</title>
<ellipse fill="none" stroke="black" cx="939" cy="-366" rx="54.69" ry="18"/>
<text text-anchor="middle" x="939" y="-362.3" font-family="Times,serif" font-size="14.00">borrow_mut</text>
</g>
<!-- property_map::update_property_value&#45;&gt;simple_map::borrow_mut -->
<g id="edge22" class="edge">
<title>property_map::update_property_value&#45;&gt;simple_map::borrow_mut</title>
<path fill="none" stroke="black" d="M549.95,-433.52C566.11,-429.41 584.19,-425.4 601,-423 685.99,-410.85 709.54,-430.42 794,-415 829.16,-408.58 867.49,-395.62 895.91,-384.78"/>
<polygon fill="black" stroke="black" points="896.82,-388.18 904.87,-381.29 894.28,-381.65 896.82,-388.18"/>
</g>
<!-- error::already_exists&#45;&gt;error::canonical -->
<g id="edge24" class="edge">
<title>error::already_exists&#45;&gt;error::canonical</title>
<path fill="none" stroke="black" d="M426.25,-267.52C457.84,-253.76 505.37,-233.06 539.01,-218.41"/>
<polygon fill="black" stroke="black" points="540.25,-221.69 548.02,-214.49 537.45,-215.28 540.25,-221.69"/>
</g>
<!-- error::invalid_argument&#45;&gt;error::canonical -->
<g id="edge25" class="edge">
<title>error::invalid_argument&#45;&gt;error::canonical</title>
<path fill="none" stroke="black" d="M749.33,-267.33C713.11,-253.22 658.45,-231.94 620.87,-217.31"/>
<polygon fill="black" stroke="black" points="622.28,-214.1 611.69,-213.73 619.74,-220.62 622.28,-214.1"/>
</g>
<!-- simple_map::add&#45;&gt;error::invalid_argument -->
<g id="edge28" class="edge">
<title>simple_map::add&#45;&gt;error::invalid_argument</title>
<path fill="none" stroke="black" d="M1023.2,-351.24C1017.25,-346.85 1010.19,-342.49 1003,-340 947.89,-320.88 927.94,-348.54 872,-332 853.34,-326.48 834.31,-316.25 819.01,-306.65"/>
<polygon fill="black" stroke="black" points="821.09,-303.83 810.8,-301.32 817.27,-309.7 821.09,-303.83"/>
</g>
<!-- option::extract -->
<g id="node20" class="node">
<title>option::extract</title>
<ellipse fill="none" stroke="black" cx="994" cy="-200" rx="34.39" ry="18"/>
<text text-anchor="middle" x="994" y="-196.3" font-family="Times,serif" font-size="14.00">extract</text>
</g>
<!-- simple_map::add&#45;&gt;option::extract -->
<g id="edge26" class="edge">
<title>simple_map::add&#45;&gt;option::extract</title>
<path fill="none" stroke="black" d="M1027.44,-349.55C1023.93,-344.23 1020.38,-338.07 1018,-332 1004.74,-298.22 998.72,-256.61 996.04,-229.48"/>
<polygon fill="black" stroke="black" points="999.54,-229.27 995.17,-219.62 992.57,-229.89 999.54,-229.27"/>
</g>
<!-- option::is_none -->
<g id="node21" class="node">
<title>option::is_none</title>
<ellipse fill="none" stroke="black" cx="1085" cy="-200" rx="38.19" ry="18"/>
<text text-anchor="middle" x="1085" y="-196.3" font-family="Times,serif" font-size="14.00">is_none</text>
</g>
<!-- simple_map::add&#45;&gt;option::is_none -->
<g id="edge27" class="edge">
<title>simple_map::add&#45;&gt;option::is_none</title>
<path fill="none" stroke="black" d="M1043.75,-348.07C1051.65,-319.91 1067.56,-263.17 1077.15,-228.99"/>
<polygon fill="black" stroke="black" points="1080.4,-230.36 1079.73,-219.79 1073.66,-228.47 1080.4,-230.36"/>
</g>
<!-- simple_map::find -->
<g id="node22" class="node">
<title>simple_map::find</title>
<ellipse fill="none" stroke="black" cx="1169" cy="-283" rx="27" ry="18"/>
<text text-anchor="middle" x="1169" y="-279.3" font-family="Times,serif" font-size="14.00">find</text>
</g>
<!-- simple_map::add&#45;&gt;simple_map::find -->
<g id="edge29" class="edge">
<title>simple_map::add&#45;&gt;simple_map::find</title>
<path fill="none" stroke="black" d="M1056.78,-352.29C1062.54,-348.27 1068.99,-343.87 1075,-340 1096.16,-326.38 1120.59,-311.86 1139.24,-301.02"/>
<polygon fill="black" stroke="black" points="1140.73,-304.2 1147.64,-296.16 1137.23,-298.14 1140.73,-304.2"/>
</g>
<!-- simple_map::contains_key&#45;&gt;simple_map::find -->
<g id="edge31" class="edge">
<title>simple_map::contains_key&#45;&gt;simple_map::find</title>
<path fill="none" stroke="black" d="M1146.94,-347.82C1150.56,-337.33 1155.28,-323.68 1159.43,-311.7"/>
<polygon fill="black" stroke="black" points="1162.71,-312.9 1162.67,-302.31 1156.1,-310.61 1162.71,-312.9"/>
</g>
<!-- option::is_some -->
<g id="node23" class="node">
<title>option::is_some</title>
<ellipse fill="none" stroke="black" cx="1000" cy="-117" rx="40.09" ry="18"/>
<text text-anchor="middle" x="1000" y="-113.3" font-family="Times,serif" font-size="14.00">is_some</text>
</g>
<!-- simple_map::contains_key&#45;&gt;option::is_some -->
<g id="edge30" class="edge">
<title>simple_map::contains_key&#45;&gt;option::is_some</title>
<path fill="none" stroke="black" d="M1109.7,-350.57C1060.42,-327.12 968.54,-280.26 951,-249 934.69,-219.93 939.28,-205.2 951,-174 955.63,-161.69 964.33,-150.31 973.12,-141.07"/>
<polygon fill="black" stroke="black" points="975.36,-143.78 980.04,-134.28 970.45,-138.79 975.36,-143.78"/>
</g>
<!-- simple_map::borrow_mut&#45;&gt;error::invalid_argument -->
<g id="edge34" class="edge">
<title>simple_map::borrow_mut&#45;&gt;error::invalid_argument</title>
<path fill="none" stroke="black" d="M908.8,-350.57C897.22,-344.92 883.92,-338.3 872,-332 856.17,-323.64 838.93,-314.01 824.15,-305.58"/>
<polygon fill="black" stroke="black" points="826.08,-302.65 815.66,-300.71 822.6,-308.72 826.08,-302.65"/>
</g>
<!-- simple_map::borrow_mut&#45;&gt;option::extract -->
<g id="edge32" class="edge">
<title>simple_map::borrow_mut&#45;&gt;option::extract</title>
<path fill="none" stroke="black" d="M944.78,-347.76C954.3,-319.39 973.34,-262.62 984.74,-228.6"/>
<polygon fill="black" stroke="black" points="987.95,-230.04 987.81,-219.44 981.32,-227.81 987.95,-230.04"/>
</g>
<!-- simple_map::borrow_mut&#45;&gt;simple_map::find -->
<g id="edge35" class="edge">
<title>simple_map::borrow_mut&#45;&gt;simple_map::find</title>
<path fill="none" stroke="black" d="M972.77,-351.47C982.49,-347.66 993.14,-343.59 1003,-340 1048.07,-323.61 1100.59,-306.16 1134.29,-295.18"/>
<polygon fill="black" stroke="black" points="1135.09,-298.6 1143.52,-292.18 1132.93,-291.94 1135.09,-298.6"/>
</g>
<!-- simple_map::borrow_mut&#45;&gt;option::is_some -->
<g id="edge33" class="edge">
<title>simple_map::borrow_mut&#45;&gt;option::is_some</title>
<path fill="none" stroke="black" d="M930.93,-347.7C915.85,-312.65 887.55,-231.67 918,-174 927.13,-156.7 944.28,-143.74 960.54,-134.67"/>
<polygon fill="black" stroke="black" points="961.86,-137.92 969.12,-130.21 958.63,-131.71 961.86,-137.92"/>
</g>
<!-- option::extract&#45;&gt;option::is_some -->
<g id="edge36" class="edge">
<title>option::extract&#45;&gt;option::is_some</title>
<path fill="none" stroke="black" d="M995.27,-181.82C996.03,-171.58 997.01,-158.33 997.89,-146.55"/>
<polygon fill="black" stroke="black" points="1001.35,-147.17 998.6,-136.94 994.37,-146.66 1001.35,-147.17"/>
</g>
<!-- vector::is_empty -->
<g id="node24" class="node">
<title>vector::is_empty</title>
<ellipse fill="none" stroke="black" cx="1085" cy="-34" rx="43.59" ry="18"/>
<text text-anchor="middle" x="1085" y="-30.3" font-family="Times,serif" font-size="14.00">is_empty</text>
</g>
<!-- option::is_none&#45;&gt;vector::is_empty -->
<g id="edge37" class="edge">
<title>option::is_none&#45;&gt;vector::is_empty</title>
<path fill="none" stroke="black" d="M1085,-181.76C1085,-153.63 1085,-97.6 1085,-63.49"/>
<polygon fill="black" stroke="black" points="1088.5,-63.52 1085,-53.52 1081.5,-63.52 1088.5,-63.52"/>
</g>
<!-- option::none -->
<g id="node25" class="node">
<title>option::none</title>
<ellipse fill="none" stroke="black" cx="1169" cy="-200" rx="27.9" ry="18"/>
<text text-anchor="middle" x="1169" y="-196.3" font-family="Times,serif" font-size="14.00">none</text>
</g>
<!-- simple_map::find&#45;&gt;option::none -->
<g id="edge38" class="edge">
<title>simple_map::find&#45;&gt;option::none</title>
<path fill="none" stroke="black" d="M1169,-264.82C1169,-254.69 1169,-241.6 1169,-229.92"/>
<polygon fill="black" stroke="black" points="1172.5,-229.95 1169,-219.95 1165.5,-229.95 1172.5,-229.95"/>
</g>
<!-- option::some -->
<g id="node26" class="node">
<title>option::some</title>
<ellipse fill="none" stroke="black" cx="1245" cy="-200" rx="29.8" ry="18"/>
<text text-anchor="middle" x="1245" y="-196.3" font-family="Times,serif" font-size="14.00">some</text>
</g>
<!-- simple_map::find&#45;&gt;option::some -->
<g id="edge39" class="edge">
<title>simple_map::find&#45;&gt;option::some</title>
<path fill="none" stroke="black" d="M1185.36,-268.4C1191.99,-262.65 1199.58,-255.72 1206,-249 1212.96,-241.71 1220.06,-233.32 1226.26,-225.61"/>
<polygon fill="black" stroke="black" points="1228.93,-227.87 1232.37,-217.85 1223.43,-223.54 1228.93,-227.87"/>
</g>
<!-- comparator::compare -->
<g id="node27" class="node">
<title>comparator::compare</title>
<ellipse fill="none" stroke="black" cx="1445" cy="-200" rx="41.69" ry="18"/>
<text text-anchor="middle" x="1445" y="-196.3" font-family="Times,serif" font-size="14.00">compare</text>
</g>
<!-- simple_map::find&#45;&gt;comparator::compare -->
<g id="edge40" class="edge">
<title>simple_map::find&#45;&gt;comparator::compare</title>
<path fill="none" stroke="black" d="M1193.91,-275.21C1217.82,-268.64 1254.94,-258.35 1287,-249 1325.65,-237.73 1369.45,-224.38 1401.11,-214.62"/>
<polygon fill="black" stroke="black" points="1401.8,-218.07 1410.33,-211.77 1399.74,-211.38 1401.8,-218.07"/>
</g>
<!-- comparator::is_smaller_than -->
<g id="node28" class="node">
<title>comparator::is_smaller_than</title>
<ellipse fill="none" stroke="black" cx="1572" cy="-200" rx="66.89" ry="18"/>
<text text-anchor="middle" x="1572" y="-196.3" font-family="Times,serif" font-size="14.00">is_smaller_than</text>
</g>
<!-- simple_map::find&#45;&gt;comparator::is_smaller_than -->
<g id="edge41" class="edge">
<title>simple_map::find&#45;&gt;comparator::is_smaller_than</title>
<path fill="none" stroke="black" d="M1196.18,-280.86C1264.28,-277.76 1440.71,-268.06 1496,-249 1512.5,-243.31 1529.09,-233.43 1542.54,-224.11"/>
<polygon fill="black" stroke="black" points="1544.44,-227.05 1550.51,-218.37 1540.35,-221.37 1544.44,-227.05"/>
</g>
<!-- option::is_some&#45;&gt;vector::is_empty -->
<g id="edge42" class="edge">
<title>option::is_some&#45;&gt;vector::is_empty</title>
<path fill="none" stroke="black" d="M1016.39,-100.38C1028.77,-88.58 1045.99,-72.18 1060.08,-58.75"/>
<polygon fill="black" stroke="black" points="1062.45,-61.32 1067.28,-51.89 1057.62,-56.26 1062.45,-61.32"/>
</g>
<!-- vector::singleton -->
<g id="node29" class="node">
<title>vector::singleton</title>
<ellipse fill="none" stroke="black" cx="1189" cy="-34" rx="42.79" ry="18"/>
<text text-anchor="middle" x="1189" y="-30.3" font-family="Times,serif" font-size="14.00">singleton</text>
</g>
<!-- option::some&#45;&gt;vector::singleton -->
<g id="edge43" class="edge">
<title>option::some&#45;&gt;vector::singleton</title>
<path fill="none" stroke="black" d="M1239.22,-182.07C1229.58,-153.83 1210.13,-96.87 1198.47,-62.72"/>
<polygon fill="black" stroke="black" points="1201.87,-61.85 1195.32,-53.52 1195.24,-64.11 1201.87,-61.85"/>
</g>
<!-- bcs::to_bytes -->
<g id="node30" class="node">
<title>bcs::to_bytes</title>
<ellipse fill="none" stroke="black" cx="1339" cy="-117" rx="40.09" ry="18"/>
<text text-anchor="middle" x="1339" y="-113.3" font-family="Times,serif" font-size="14.00">to_bytes</text>
</g>
<!-- comparator::compare&#45;&gt;bcs::to_bytes -->
<g id="edge44" class="edge">
<title>comparator::compare&#45;&gt;bcs::to_bytes</title>
<path fill="none" stroke="black" d="M1420.14,-185.2C1410.74,-179.63 1400.12,-172.89 1391,-166 1381.29,-158.67 1371.32,-149.83 1362.73,-141.74"/>
<polygon fill="black" stroke="black" points="1365.4,-139.45 1355.76,-135.04 1360.55,-144.5 1365.4,-139.45"/>
</g>
<!-- comparator::compare_u8_vector -->
<g id="node31" class="node">
<title>comparator::compare_u8_vector</title>
<ellipse fill="none" stroke="black" cx="1484" cy="-117" rx="81.49" ry="18"/>
<text text-anchor="middle" x="1484" y="-113.3" font-family="Times,serif" font-size="14.00">compare_u8_vector</text>
</g>
<!-- comparator::compare&#45;&gt;comparator::compare_u8_vector -->
<g id="edge45" class="edge">
<title>comparator::compare&#45;&gt;comparator::compare_u8_vector</title>
<path fill="none" stroke="black" d="M1453.08,-182.22C1458.19,-171.61 1464.91,-157.65 1470.78,-145.45"/>
<polygon fill="black" stroke="black" points="1473.82,-147.21 1475,-136.68 1467.51,-144.18 1473.82,-147.21"/>
</g>
</g>
</svg>
