<?xml version="1.0" encoding="UTF-8" standalone="no"?>
<!DOCTYPE svg PUBLIC "-//W3C//DTD SVG 1.1//EN"
 "http://www.w3.org/Graphics/SVG/1.1/DTD/svg11.dtd">
<!-- Generated by graphviz version 7.0.0 (20221023.0053)
 -->
<!-- Title: G Pages: 1 -->
<svg width="604pt" height="207pt"
 viewBox="0.00 0.00 604.00 207.00" xmlns="http://www.w3.org/2000/svg" xmlns:xlink="http://www.w3.org/1999/xlink">
<g id="graph0" class="graph" transform="scale(1 1) rotate(0) translate(4 203)">
<title>G</title>
<polygon fill="white" stroke="none" points="-4,4 -4,-203 600,-203 600,4 -4,4"/>
<g id="clust1" class="cluster">
<title>cluster_table</title>
<polygon fill="none" stroke="black" points="8,-8 8,-155 140,-155 140,-8 8,-8"/>
<text text-anchor="middle" x="74" y="-139.8" font-family="Times,serif" font-size="14.00">table</text>
</g>
<g id="clust2" class="cluster">
<title>cluster_signer</title>
<polygon fill="none" stroke="black" points="148,-8 148,-155 298,-155 298,-8 148,-8"/>
<text text-anchor="middle" x="223" y="-139.8" font-family="Times,serif" font-size="14.00">signer</text>
</g>
<g id="clust3" class="cluster">
<title>cluster_error</title>
<polygon fill="none" stroke="black" points="306,-8 306,-155 588,-155 588,-8 306,-8"/>
<text text-anchor="middle" x="447" y="-139.8" font-family="Times,serif" font-size="14.00">error</text>
</g>
<!-- assert_tokendata_exists -->
<g id="node1" class="node">
<title>assert_tokendata_exists</title>
<ellipse fill="none" stroke="black" cx="316" cy="-181" rx="93.68" ry="18"/>
<text text-anchor="middle" x="316" y="-177.3" font-family="Times,serif" font-size="14.00">assert_tokendata_exists</text>
</g>
<!-- table::contains -->
<g id="node2" class="node">
<title>table::contains</title>
<ellipse fill="none" stroke="black" cx="83" cy="-106" rx="40.09" ry="18"/>
<text text-anchor="middle" x="83" y="-102.3" font-family="Times,serif" font-size="14.00">contains</text>
</g>
<!-- assert_tokendata_exists&#45;&gt;table::contains -->
<g id="edge1" class="edge">
<title>assert_tokendata_exists&#45;&gt;table::contains</title>
<path fill="none" stroke="black" d="M225.64,-175.79C198.58,-172.19 169.37,-165.89 144,-155 130.59,-149.24 117.61,-139.77 107.1,-130.75"/>
<polygon fill="black" stroke="black" points="109.44,-128.15 99.67,-124.06 104.76,-133.36 109.44,-128.15"/>
</g>
<!-- signer::address_of -->
<g id="node3" class="node">
<title>signer::address_of</title>
<ellipse fill="none" stroke="black" cx="232" cy="-106" rx="48.99" ry="18"/>
<text text-anchor="middle" x="232" y="-102.3" font-family="Times,serif" font-size="14.00">address_of</text>
</g>
<!-- assert_tokendata_exists&#45;&gt;signer::address_of -->
<g id="edge2" class="edge">
<title>assert_tokendata_exists&#45;&gt;signer::address_of</title>
<path fill="none" stroke="black" d="M296.52,-163.07C285.36,-153.38 271.2,-141.07 258.99,-130.45"/>
<polygon fill="black" stroke="black" points="261.5,-128 251.65,-124.08 256.91,-133.28 261.5,-128"/>
</g>
<!-- error::not_found -->
<g id="node4" class="node">
<title>error::not_found</title>
<ellipse fill="none" stroke="black" cx="533" cy="-106" rx="46.59" ry="18"/>
<text text-anchor="middle" x="533" y="-102.3" font-family="Times,serif" font-size="14.00">not_found</text>
</g>
<!-- assert_tokendata_exists&#45;&gt;error::not_found -->
<g id="edge3" class="edge">
<title>assert_tokendata_exists&#45;&gt;error::not_found</title>
<path fill="none" stroke="black" d="M405.05,-175.09C429.19,-171.4 454.77,-165.23 477,-155 489.29,-149.34 500.97,-140.18 510.46,-131.37"/>
<polygon fill="black" stroke="black" points="512.73,-134.04 517.42,-124.54 507.83,-129.04 512.73,-134.04"/>
</g>
<!-- error::permission_denied -->
<g id="node5" class="node">
<title>error::permission_denied</title>
<ellipse fill="none" stroke="black" cx="391" cy="-106" rx="77.19" ry="18"/>
<text text-anchor="middle" x="391" y="-102.3" font-family="Times,serif" font-size="14.00">permission_denied</text>
</g>
<!-- assert_tokendata_exists&#45;&gt;error::permission_denied -->
<g id="edge4" class="edge">
<title>assert_tokendata_exists&#45;&gt;error::permission_denied</title>
<path fill="none" stroke="black" d="M333.4,-163.07C342.96,-153.76 354.99,-142.05 365.59,-131.74"/>
<polygon fill="black" stroke="black" points="367.89,-134.38 372.61,-124.9 363.01,-129.36 367.89,-134.38"/>
</g>
<!-- table::contains_box -->
<g id="node6" class="node">
<title>table::contains_box</title>
<ellipse fill="none" stroke="black" cx="74" cy="-34" rx="57.69" ry="18"/>
<text text-anchor="middle" x="74" y="-30.3" font-family="Times,serif" font-size="14.00">contains_box</text>
</g>
<!-- table::contains&#45;&gt;table::contains_box -->
<g id="edge5" class="edge">
<title>table::contains&#45;&gt;table::contains_box</title>
<path fill="none" stroke="black" d="M80.78,-87.7C79.83,-80.32 78.7,-71.52 77.63,-63.25"/>
<polygon fill="black" stroke="black" points="81.14,-63.08 76.39,-53.61 74.2,-63.97 81.14,-63.08"/>
</g>
<!-- signer::borrow_address -->
<g id="node7" class="node">
<title>signer::borrow_address</title>
<ellipse fill="none" stroke="black" cx="223" cy="-34" rx="66.89" ry="18"/>
<text text-anchor="middle" x="223" y="-30.3" font-family="Times,serif" font-size="14.00">borrow_address</text>
</g>
<!-- signer::address_of&#45;&gt;signer::borrow_address -->
<g id="edge6" class="edge">
<title>signer::address_of&#45;&gt;signer::borrow_address</title>
<path fill="none" stroke="black" d="M229.78,-87.7C228.83,-80.32 227.7,-71.52 226.63,-63.25"/>
<polygon fill="black" stroke="black" points="230.14,-63.08 225.39,-53.61 223.2,-63.97 230.14,-63.08"/>
</g>
<!-- error::canonical -->
<g id="node8" class="node">
<title>error::canonical</title>
<ellipse fill="none" stroke="black" cx="462" cy="-34" rx="44.39" ry="18"/>
<text text-anchor="middle" x="462" y="-30.3" font-family="Times,serif" font-size="14.00">canonical</text>
</g>
<!-- error::not_found&#45;&gt;error::canonical -->
<g id="edge7" class="edge">
<title>error::not_found&#45;&gt;error::canonical</title>
<path fill="none" stroke="black" d="M516.53,-88.76C507.57,-79.93 496.31,-68.83 486.36,-59.01"/>
<polygon fill="black" stroke="black" points="489.03,-56.74 479.46,-52.21 484.12,-61.72 489.03,-56.74"/>
</g>
<!-- error::permission_denied&#45;&gt;error::canonical -->
<g id="edge8" class="edge">
<title>error::permission_denied&#45;&gt;error::canonical</title>
<path fill="none" stroke="black" d="M408.19,-88.05C417.07,-79.29 428.07,-68.45 437.8,-58.86"/>
<polygon fill="black" stroke="black" points="440.2,-61.41 444.87,-51.89 435.29,-56.42 440.2,-61.41"/>
</g>
</g>
</svg>
