<?xml version="1.0" encoding="UTF-8" standalone="no"?>
<!DOCTYPE svg PUBLIC "-//W3C//DTD SVG 1.1//EN"
 "http://www.w3.org/Graphics/SVG/1.1/DTD/svg11.dtd">
<!-- Generated by graphviz version 7.0.0 (20221023.0053)
 -->
<!-- Title: G Pages: 1 -->
<svg width="931pt" height="279pt"
 viewBox="0.00 0.00 931.00 279.00" xmlns="http://www.w3.org/2000/svg" xmlns:xlink="http://www.w3.org/1999/xlink">
<g id="graph0" class="graph" transform="scale(1 1) rotate(0) translate(4 275)">
<title>G</title>
<polygon fill="white" stroke="none" points="-4,4 -4,-275 927,-275 927,4 -4,4"/>
<g id="clust1" class="cluster">
<title>cluster_table</title>
<polygon fill="none" stroke="black" points="8,-8 8,-155 302,-155 302,-8 8,-8"/>
<text text-anchor="middle" x="155" y="-139.8" font-family="Times,serif" font-size="14.00">table</text>
</g>
<g id="clust2" class="cluster">
<title>cluster_error</title>
<polygon fill="none" stroke="black" points="468,-8 468,-155 915,-155 915,-8 468,-8"/>
<text text-anchor="middle" x="691.5" y="-139.8" font-family="Times,serif" font-size="14.00">error</text>
</g>
<g id="clust3" class="cluster">
<title>cluster_signer</title>
<polygon fill="none" stroke="black" points="310,-8 310,-155 460,-155 460,-8 310,-8"/>
<text text-anchor="middle" x="385" y="-139.8" font-family="Times,serif" font-size="14.00">signer</text>
</g>
<!-- mutate_tokendata_maximum -->
<g id="node1" class="node">
<title>mutate_tokendata_maximum</title>
<ellipse fill="none" stroke="black" cx="584" cy="-253" rx="115.08" ry="18"/>
<text text-anchor="middle" x="584" y="-249.3" font-family="Times,serif" font-size="14.00">mutate_tokendata_maximum</text>
</g>
<!-- table::borrow_mut -->
<g id="node2" class="node">
<title>table::borrow_mut</title>
<ellipse fill="none" stroke="black" cx="115" cy="-106" rx="54.69" ry="18"/>
<text text-anchor="middle" x="115" y="-102.3" font-family="Times,serif" font-size="14.00">borrow_mut</text>
</g>
<!-- mutate_tokendata_maximum&#45;&gt;table::borrow_mut -->
<g id="edge1" class="edge">
<title>mutate_tokendata_maximum&#45;&gt;table::borrow_mut</title>
<path fill="none" stroke="black" d="M506.08,-239.4C426.2,-224.91 299.4,-197.5 196,-155 179.05,-148.03 161.41,-137.96 146.93,-128.84"/>
<polygon fill="black" stroke="black" points="149.04,-126.03 138.74,-123.55 145.24,-131.91 149.04,-126.03"/>
</g>
<!-- error::invalid_argument -->
<g id="node3" class="node">
<title>error::invalid_argument</title>
<ellipse fill="none" stroke="black" cx="834" cy="-106" rx="73.39" ry="18"/>
<text text-anchor="middle" x="834" y="-102.3" font-family="Times,serif" font-size="14.00">invalid_argument</text>
</g>
<!-- mutate_tokendata_maximum&#45;&gt;error::invalid_argument -->
<g id="edge2" class="edge">
<title>mutate_tokendata_maximum&#45;&gt;error::invalid_argument</title>
<path fill="none" stroke="black" d="M612.68,-235.37C658.03,-209.06 746.32,-157.85 796.59,-128.69"/>
<polygon fill="black" stroke="black" points="798.21,-131.8 805.11,-123.76 794.7,-125.75 798.21,-131.8"/>
</g>
<!-- error::permission_denied -->
<g id="node4" class="node">
<title>error::permission_denied</title>
<ellipse fill="none" stroke="black" cx="665" cy="-106" rx="77.19" ry="18"/>
<text text-anchor="middle" x="665" y="-102.3" font-family="Times,serif" font-size="14.00">permission_denied</text>
</g>
<!-- mutate_tokendata_maximum&#45;&gt;error::permission_denied -->
<g id="edge3" class="edge">
<title>mutate_tokendata_maximum&#45;&gt;error::permission_denied</title>
<path fill="none" stroke="black" d="M599.65,-234.72C608.16,-224.76 618.45,-211.72 626,-199 638.1,-178.61 648.39,-153.78 655.36,-135.05"/>
<polygon fill="black" stroke="black" points="658.63,-136.3 658.74,-125.7 652.05,-133.92 658.63,-136.3"/>
</g>
<!-- assert_tokendata_exists -->
<g id="node5" class="node">
<title>assert_tokendata_exists</title>
<ellipse fill="none" stroke="black" cx="523" cy="-181" rx="93.68" ry="18"/>
<text text-anchor="middle" x="523" y="-177.3" font-family="Times,serif" font-size="14.00">assert_tokendata_exists</text>
</g>
<!-- mutate_tokendata_maximum&#45;&gt;assert_tokendata_exists -->
<g id="edge4" class="edge">
<title>mutate_tokendata_maximum&#45;&gt;assert_tokendata_exists</title>
<path fill="none" stroke="black" d="M568.92,-234.7C561.83,-226.56 553.23,-216.69 545.4,-207.7"/>
<polygon fill="black" stroke="black" points="548.11,-205.49 538.9,-200.25 542.83,-210.08 548.11,-205.49"/>
</g>
<!-- table::borrow_box_mut -->
<g id="node6" class="node">
<title>table::borrow_box_mut</title>
<ellipse fill="none" stroke="black" cx="88" cy="-34" rx="72.29" ry="18"/>
<text text-anchor="middle" x="88" y="-30.3" font-family="Times,serif" font-size="14.00">borrow_box_mut</text>
</g>
<!-- table::borrow_mut&#45;&gt;table::borrow_box_mut -->
<g id="edge5" class="edge">
<title>table::borrow_mut&#45;&gt;table::borrow_box_mut</title>
<path fill="none" stroke="black" d="M108.33,-87.7C105.42,-80.15 101.93,-71.12 98.68,-62.68"/>
<polygon fill="black" stroke="black" points="102.01,-61.59 95.14,-53.52 95.48,-64.11 102.01,-61.59"/>
</g>
<!-- error::canonical -->
<g id="node7" class="node">
<title>error::canonical</title>
<ellipse fill="none" stroke="black" cx="665" cy="-34" rx="44.39" ry="18"/>
<text text-anchor="middle" x="665" y="-30.3" font-family="Times,serif" font-size="14.00">canonical</text>
</g>
<!-- error::invalid_argument&#45;&gt;error::canonical -->
<g id="edge6" class="edge">
<title>error::invalid_argument&#45;&gt;error::canonical</title>
<path fill="none" stroke="black" d="M797.75,-89.98C770.65,-78.76 733.62,-63.42 705.54,-51.79"/>
<polygon fill="black" stroke="black" points="707.24,-48.71 696.66,-48.11 704.56,-55.18 707.24,-48.71"/>
</g>
<!-- error::permission_denied&#45;&gt;error::canonical -->
<g id="edge7" class="edge">
<title>error::permission_denied&#45;&gt;error::canonical</title>
<path fill="none" stroke="black" d="M665,-87.7C665,-80.41 665,-71.73 665,-63.54"/>
<polygon fill="black" stroke="black" points="668.5,-63.62 665,-53.62 661.5,-63.62 668.5,-63.62"/>
</g>
<!-- assert_tokendata_exists&#45;&gt;error::permission_denied -->
<g id="edge11" class="edge">
<title>assert_tokendata_exists&#45;&gt;error::permission_denied</title>
<path fill="none" stroke="black" d="M559.97,-164.06C566.36,-161.14 572.91,-158.05 579,-155 595.15,-146.91 612.61,-137.32 627.55,-128.85"/>
<polygon fill="black" stroke="black" points="629.19,-131.95 636.14,-123.95 625.72,-125.87 629.19,-131.95"/>
</g>
<!-- table::contains -->
<g id="node8" class="node">
<title>table::contains</title>
<ellipse fill="none" stroke="black" cx="245" cy="-106" rx="40.09" ry="18"/>
<text text-anchor="middle" x="245" y="-102.3" font-family="Times,serif" font-size="14.00">contains</text>
</g>
<!-- assert_tokendata_exists&#45;&gt;table::contains -->
<g id="edge8" class="edge">
<title>assert_tokendata_exists&#45;&gt;table::contains</title>
<path fill="none" stroke="black" d="M434.74,-174.71C385.25,-170.78 328.97,-164.46 306,-155 292.18,-149.31 278.88,-139.53 268.25,-130.29"/>
<polygon fill="black" stroke="black" points="270.85,-127.92 261.11,-123.76 266.13,-133.09 270.85,-127.92"/>
</g>
<!-- signer::address_of -->
<g id="node9" class="node">
<title>signer::address_of</title>
<ellipse fill="none" stroke="black" cx="394" cy="-106" rx="48.99" ry="18"/>
<text text-anchor="middle" x="394" y="-102.3" font-family="Times,serif" font-size="14.00">address_of</text>
</g>
<!-- assert_tokendata_exists&#45;&gt;signer::address_of -->
<g id="edge9" class="edge">
<title>assert_tokendata_exists&#45;&gt;signer::address_of</title>
<path fill="none" stroke="black" d="M483.13,-164.4C476.63,-161.49 470.05,-158.31 464,-155 450.23,-147.46 435.8,-137.89 423.64,-129.27"/>
<polygon fill="black" stroke="black" points="425.82,-126.53 415.66,-123.52 421.73,-132.21 425.82,-126.53"/>
</g>
<!-- error::not_found -->
<g id="node10" class="node">
<title>error::not_found</title>
<ellipse fill="none" stroke="black" cx="523" cy="-106" rx="46.59" ry="18"/>
<text text-anchor="middle" x="523" y="-102.3" font-family="Times,serif" font-size="14.00">not_found</text>
</g>
<!-- assert_tokendata_exists&#45;&gt;error::not_found -->
<g id="edge10" class="edge">
<title>assert_tokendata_exists&#45;&gt;error::not_found</title>
<path fill="none" stroke="black" d="M523,-162.7C523,-154.67 523,-144.9 523,-135.8"/>
<polygon fill="black" stroke="black" points="526.5,-135.94 523,-125.94 519.5,-135.94 526.5,-135.94"/>
</g>
<!-- table::contains_box -->
<g id="node11" class="node">
<title>table::contains_box</title>
<ellipse fill="none" stroke="black" cx="236" cy="-34" rx="57.69" ry="18"/>
<text text-anchor="middle" x="236" y="-30.3" font-family="Times,serif" font-size="14.00">contains_box</text>
</g>
<!-- table::contains&#45;&gt;table::contains_box -->
<g id="edge12" class="edge">
<title>table::contains&#45;&gt;table::contains_box</title>
<path fill="none" stroke="black" d="M242.78,-87.7C241.83,-80.32 240.7,-71.52 239.63,-63.25"/>
<polygon fill="black" stroke="black" points="243.14,-63.08 238.39,-53.61 236.2,-63.97 243.14,-63.08"/>
</g>
<!-- signer::borrow_address -->
<g id="node12" class="node">
<title>signer::borrow_address</title>
<ellipse fill="none" stroke="black" cx="385" cy="-34" rx="66.89" ry="18"/>
<text text-anchor="middle" x="385" y="-30.3" font-family="Times,serif" font-size="14.00">borrow_address</text>
</g>
<!-- signer::address_of&#45;&gt;signer::borrow_address -->
<g id="edge13" class="edge">
<title>signer::address_of&#45;&gt;signer::borrow_address</title>
<path fill="none" stroke="black" d="M391.78,-87.7C390.83,-80.32 389.7,-71.52 388.63,-63.25"/>
<polygon fill="black" stroke="black" points="392.14,-63.08 387.39,-53.61 385.2,-63.97 392.14,-63.08"/>
</g>
<!-- error::not_found&#45;&gt;error::canonical -->
<g id="edge14" class="edge">
<title>error::not_found&#45;&gt;error::canonical</title>
<path fill="none" stroke="black" d="M551.05,-91.17C572.88,-80.41 603.38,-65.38 627.33,-53.57"/>
<polygon fill="black" stroke="black" points="628.71,-56.79 636.13,-49.23 625.61,-50.51 628.71,-56.79"/>
</g>
</g>
</svg>
