<?xml version="1.0" encoding="UTF-8" standalone="no"?>
<!DOCTYPE svg PUBLIC "-//W3C//DTD SVG 1.1//EN"
 "http://www.w3.org/Graphics/SVG/1.1/DTD/svg11.dtd">
<!-- Generated by graphviz version 7.0.0 (20221023.0053)
 -->
<!-- Title: G Pages: 1 -->
<svg width="931pt" height="282pt"
 viewBox="0.00 0.00 931.00 282.00" xmlns="http://www.w3.org/2000/svg" xmlns:xlink="http://www.w3.org/1999/xlink">
<g id="graph0" class="graph" transform="scale(1 1) rotate(0) translate(4 278)">
<title>G</title>
<polygon fill="white" stroke="none" points="-4,4 -4,-278 927,-278 927,4 -4,4"/>
<g id="clust1" class="cluster">
<title>cluster_table</title>
<polygon fill="none" stroke="black" points="166,-8 166,-155 460,-155 460,-8 166,-8"/>
<text text-anchor="middle" x="313" y="-139.8" font-family="Times,serif" font-size="14.00">table</text>
</g>
<g id="clust2" class="cluster">
<title>cluster_signer</title>
<polygon fill="none" stroke="black" points="8,-80 8,-230 158,-230 158,-80 8,-80"/>
<text text-anchor="middle" x="83" y="-214.8" font-family="Times,serif" font-size="14.00">signer</text>
</g>
<g id="clust3" class="cluster">
<title>cluster_error</title>
<polygon fill="none" stroke="black" points="468,-8 468,-155 915,-155 915,-8 468,-8"/>
<text text-anchor="middle" x="691.5" y="-139.8" font-family="Times,serif" font-size="14.00">error</text>
</g>
<!-- mutate_collection_maximum -->
<g id="node1" class="node">
<title>mutate_collection_maximum</title>
<ellipse fill="none" stroke="black" cx="419" cy="-256" rx="115.88" ry="18"/>
<text text-anchor="middle" x="419" y="-252.3" font-family="Times,serif" font-size="14.00">mutate_collection_maximum</text>
</g>
<!-- table::borrow_mut -->
<g id="node2" class="node">
<title>table::borrow_mut</title>
<ellipse fill="none" stroke="black" cx="273" cy="-106" rx="54.69" ry="18"/>
<text text-anchor="middle" x="273" y="-102.3" font-family="Times,serif" font-size="14.00">borrow_mut</text>
</g>
<!-- mutate_collection_maximum&#45;&gt;table::borrow_mut -->
<g id="edge1" class="edge">
<title>mutate_collection_maximum&#45;&gt;table::borrow_mut</title>
<path fill="none" stroke="black" d="M336.17,-243.03C328.82,-239.65 321.93,-235.38 316,-230 289.13,-205.65 279.05,-163.58 275.27,-135.52"/>
<polygon fill="black" stroke="black" points="278.75,-135.13 274.14,-125.59 271.79,-135.92 278.75,-135.13"/>
</g>
<!-- signer::address_of -->
<g id="node3" class="node">
<title>signer::address_of</title>
<ellipse fill="none" stroke="black" cx="92" cy="-181" rx="48.99" ry="18"/>
<text text-anchor="middle" x="92" y="-177.3" font-family="Times,serif" font-size="14.00">address_of</text>
</g>
<!-- mutate_collection_maximum&#45;&gt;signer::address_of -->
<g id="edge2" class="edge">
<title>mutate_collection_maximum&#45;&gt;signer::address_of</title>
<path fill="none" stroke="black" d="M337.53,-242.8C315.53,-239.11 291.78,-234.75 270,-230 225.7,-220.33 175.92,-206.67 140.29,-196.39"/>
<polygon fill="black" stroke="black" points="141.28,-193.03 130.7,-193.6 139.32,-199.75 141.28,-193.03"/>
</g>
<!-- error::invalid_argument -->
<g id="node4" class="node">
<title>error::invalid_argument</title>
<ellipse fill="none" stroke="black" cx="661" cy="-106" rx="73.39" ry="18"/>
<text text-anchor="middle" x="661" y="-102.3" font-family="Times,serif" font-size="14.00">invalid_argument</text>
</g>
<!-- mutate_collection_maximum&#45;&gt;error::invalid_argument -->
<g id="edge3" class="edge">
<title>mutate_collection_maximum&#45;&gt;error::invalid_argument</title>
<path fill="none" stroke="black" d="M492.92,-241.72C502.98,-238.58 512.95,-234.73 522,-230 569.68,-205.1 614.28,-160.37 639.55,-132.26"/>
<polygon fill="black" stroke="black" points="642.05,-134.71 646.05,-124.9 636.8,-130.08 642.05,-134.71"/>
</g>
<!-- error::permission_denied -->
<g id="node5" class="node">
<title>error::permission_denied</title>
<ellipse fill="none" stroke="black" cx="830" cy="-106" rx="77.19" ry="18"/>
<text text-anchor="middle" x="830" y="-102.3" font-family="Times,serif" font-size="14.00">permission_denied</text>
</g>
<!-- mutate_collection_maximum&#45;&gt;error::permission_denied -->
<g id="edge4" class="edge">
<title>mutate_collection_maximum&#45;&gt;error::permission_denied</title>
<path fill="none" stroke="black" d="M511.77,-244.91C534.05,-241.28 557.59,-236.43 579,-230 655.76,-206.93 671.42,-191.05 743,-155 759.27,-146.8 776.93,-137.2 792.06,-128.75"/>
<polygon fill="black" stroke="black" points="793.76,-131.8 800.76,-123.85 790.32,-125.7 793.76,-131.8"/>
</g>
<!-- assert_collection_exists -->
<g id="node6" class="node">
<title>assert_collection_exists</title>
<ellipse fill="none" stroke="black" cx="419" cy="-181" rx="94.48" ry="18"/>
<text text-anchor="middle" x="419" y="-177.3" font-family="Times,serif" font-size="14.00">assert_collection_exists</text>
</g>
<!-- mutate_collection_maximum&#45;&gt;assert_collection_exists -->
<g id="edge5" class="edge">
<title>mutate_collection_maximum&#45;&gt;assert_collection_exists</title>
<path fill="none" stroke="black" d="M419,-237.7C419,-229.67 419,-219.9 419,-210.8"/>
<polygon fill="black" stroke="black" points="422.5,-210.94 419,-200.94 415.5,-210.94 422.5,-210.94"/>
</g>
<!-- table::borrow_box_mut -->
<g id="node7" class="node">
<title>table::borrow_box_mut</title>
<ellipse fill="none" stroke="black" cx="246" cy="-34" rx="72.29" ry="18"/>
<text text-anchor="middle" x="246" y="-30.3" font-family="Times,serif" font-size="14.00">borrow_box_mut</text>
</g>
<!-- table::borrow_mut&#45;&gt;table::borrow_box_mut -->
<g id="edge6" class="edge">
<title>table::borrow_mut&#45;&gt;table::borrow_box_mut</title>
<path fill="none" stroke="black" d="M266.33,-87.7C263.42,-80.15 259.93,-71.12 256.68,-62.68"/>
<polygon fill="black" stroke="black" points="260.01,-61.59 253.14,-53.52 253.48,-64.11 260.01,-61.59"/>
</g>
<!-- signer::borrow_address -->
<g id="node8" class="node">
<title>signer::borrow_address</title>
<ellipse fill="none" stroke="black" cx="83" cy="-106" rx="66.89" ry="18"/>
<text text-anchor="middle" x="83" y="-102.3" font-family="Times,serif" font-size="14.00">borrow_address</text>
</g>
<!-- signer::address_of&#45;&gt;signer::borrow_address -->
<g id="edge7" class="edge">
<title>signer::address_of&#45;&gt;signer::borrow_address</title>
<path fill="none" stroke="black" d="M89.87,-162.7C88.88,-154.67 87.67,-144.9 86.55,-135.8"/>
<polygon fill="black" stroke="black" points="90.03,-135.43 85.33,-125.93 83.08,-136.28 90.03,-135.43"/>
</g>
<!-- error::canonical -->
<g id="node9" class="node">
<title>error::canonical</title>
<ellipse fill="none" stroke="black" cx="661" cy="-34" rx="44.39" ry="18"/>
<text text-anchor="middle" x="661" y="-30.3" font-family="Times,serif" font-size="14.00">canonical</text>
</g>
<!-- error::invalid_argument&#45;&gt;error::canonical -->
<g id="edge8" class="edge">
<title>error::invalid_argument&#45;&gt;error::canonical</title>
<path fill="none" stroke="black" d="M661,-87.7C661,-80.41 661,-71.73 661,-63.54"/>
<polygon fill="black" stroke="black" points="664.5,-63.62 661,-53.62 657.5,-63.62 664.5,-63.62"/>
</g>
<!-- error::permission_denied&#45;&gt;error::canonical -->
<g id="edge9" class="edge">
<title>error::permission_denied&#45;&gt;error::canonical</title>
<path fill="none" stroke="black" d="M793.33,-89.81C766.42,-78.66 729.86,-63.52 701.99,-51.98"/>
<polygon fill="black" stroke="black" points="703.36,-48.76 692.79,-48.17 700.69,-55.23 703.36,-48.76"/>
</g>
<!-- table::contains -->
<g id="node10" class="node">
<title>table::contains</title>
<ellipse fill="none" stroke="black" cx="403" cy="-106" rx="40.09" ry="18"/>
<text text-anchor="middle" x="403" y="-102.3" font-family="Times,serif" font-size="14.00">contains</text>
</g>
<!-- assert_collection_exists&#45;&gt;table::contains -->
<g id="edge10" class="edge">
<title>assert_collection_exists&#45;&gt;table::contains</title>
<path fill="none" stroke="black" d="M415.21,-162.7C413.41,-154.52 411.23,-144.54 409.2,-135.29"/>
<polygon fill="black" stroke="black" points="412.65,-134.67 407.09,-125.65 405.81,-136.17 412.65,-134.67"/>
</g>
<!-- error::not_found -->
<g id="node11" class="node">
<title>error::not_found</title>
<ellipse fill="none" stroke="black" cx="523" cy="-106" rx="46.59" ry="18"/>
<text text-anchor="middle" x="523" y="-102.3" font-family="Times,serif" font-size="14.00">not_found</text>
</g>
<!-- assert_collection_exists&#45;&gt;error::not_found -->
<g id="edge11" class="edge">
<title>assert_collection_exists&#45;&gt;error::not_found</title>
<path fill="none" stroke="black" d="M449.93,-163.76C454.73,-160.98 459.56,-158.01 464,-155 475.05,-147.52 486.57,-138.46 496.47,-130.24"/>
<polygon fill="black" stroke="black" points="498.51,-133.1 503.89,-123.98 493.99,-127.76 498.51,-133.1"/>
</g>
<!-- table::contains_box -->
<g id="node12" class="node">
<title>table::contains_box</title>
<ellipse fill="none" stroke="black" cx="394" cy="-34" rx="57.69" ry="18"/>
<text text-anchor="middle" x="394" y="-30.3" font-family="Times,serif" font-size="14.00">contains_box</text>
</g>
<!-- table::contains&#45;&gt;table::contains_box -->
<g id="edge12" class="edge">
<title>table::contains&#45;&gt;table::contains_box</title>
<path fill="none" stroke="black" d="M400.78,-87.7C399.83,-80.32 398.7,-71.52 397.63,-63.25"/>
<polygon fill="black" stroke="black" points="401.14,-63.08 396.39,-53.61 394.2,-63.97 401.14,-63.08"/>
</g>
<!-- error::not_found&#45;&gt;error::canonical -->
<g id="edge13" class="edge">
<title>error::not_found&#45;&gt;error::canonical</title>
<path fill="none" stroke="black" d="M550.26,-91.17C571.38,-80.46 600.85,-65.51 624.08,-53.73"/>
<polygon fill="black" stroke="black" points="625.58,-56.89 632.91,-49.25 622.41,-50.65 625.58,-56.89"/>
</g>
</g>
</svg>
