<?xml version="1.0" encoding="UTF-8" standalone="no"?>
<!DOCTYPE svg PUBLIC "-//W3C//DTD SVG 1.1//EN"
 "http://www.w3.org/Graphics/SVG/1.1/DTD/svg11.dtd">
<!-- Generated by graphviz version 7.0.0 (20221023.0053)
 -->
<!-- Title: G Pages: 1 -->
<svg width="1775pt" height="520pt"
 viewBox="0.00 0.00 1775.00 520.00" xmlns="http://www.w3.org/2000/svg" xmlns:xlink="http://www.w3.org/1999/xlink">
<g id="graph0" class="graph" transform="scale(1 1) rotate(0) translate(4 516)">
<title>G</title>
<polygon fill="white" stroke="none" points="-4,4 -4,-516 1771,-516 1771,4 -4,4"/>
<g id="clust1" class="cluster">
<title>cluster_table</title>
<polygon fill="none" stroke="black" points="8,-163 8,-321 698,-321 698,-163 8,-163"/>
<text text-anchor="middle" x="353" y="-305.8" font-family="Times,serif" font-size="14.00">table</text>
</g>
<g id="clust2" class="cluster">
<title>cluster_signer</title>
<polygon fill="none" stroke="black" points="1202,-8 1202,-155 1352,-155 1352,-8 1202,-8"/>
<text text-anchor="middle" x="1277" y="-139.8" font-family="Times,serif" font-size="14.00">signer</text>
</g>
<g id="clust3" class="cluster">
<title>cluster_event</title>
<polygon fill="none" stroke="black" points="1367,-80 1367,-238 1655,-238 1655,-80 1367,-80"/>
<text text-anchor="middle" x="1511" y="-222.8" font-family="Times,serif" font-size="14.00">event</text>
</g>
<g id="clust4" class="cluster">
<title>cluster_token</title>
<polygon fill="none" stroke="black" points="706,-246 706,-468 1035,-468 1035,-246 706,-246"/>
<text text-anchor="middle" x="870.5" y="-452.8" font-family="Times,serif" font-size="14.00">token</text>
</g>
<g id="clust5" class="cluster">
<title>cluster_bcs</title>
<polygon fill="none" stroke="black" points="1663,-80 1663,-155 1759,-155 1759,-80 1663,-80"/>
<text text-anchor="middle" x="1711" y="-139.8" font-family="Times,serif" font-size="14.00">bcs</text>
</g>
<g id="clust6" class="cluster">
<title>cluster_error</title>
<polygon fill="none" stroke="black" points="706,-80 706,-238 980,-238 980,-80 706,-80"/>
<text text-anchor="middle" x="843" y="-222.8" font-family="Times,serif" font-size="14.00">error</text>
</g>
<g id="clust7" class="cluster">
<title>cluster_account</title>
<polygon fill="none" stroke="black" points="1043,-163 1043,-321 1213,-321 1213,-163 1043,-163"/>
<text text-anchor="middle" x="1128" y="-305.8" font-family="Times,serif" font-size="14.00">account</text>
</g>
<g id="clust8" class="cluster">
<title>cluster_guid</title>
<polygon fill="none" stroke="black" points="1098,-80 1098,-155 1178,-155 1178,-80 1098,-80"/>
<text text-anchor="middle" x="1138" y="-139.8" font-family="Times,serif" font-size="14.00">guid</text>
</g>
<!-- cancel_offer -->
<g id="node1" class="node">
<title>cancel_offer</title>
<ellipse fill="none" stroke="black" cx="1157" cy="-494" rx="54.69" ry="18"/>
<text text-anchor="middle" x="1157" y="-490.3" font-family="Times,serif" font-size="14.00">cancel_offer</text>
</g>
<!-- table::remove -->
<g id="node2" class="node">
<title>table::remove</title>
<ellipse fill="none" stroke="black" cx="106" cy="-272" rx="37.89" ry="18"/>
<text text-anchor="middle" x="106" y="-268.3" font-family="Times,serif" font-size="14.00">remove</text>
</g>
<!-- cancel_offer&#45;&gt;table::remove -->
<g id="edge1" class="edge">
<title>cancel_offer&#45;&gt;table::remove</title>
<path fill="none" stroke="black" d="M1102.35,-491.7C998.72,-488.96 777.31,-481.67 702,-468 487.49,-429.05 440.15,-391.97 234,-321 203.99,-310.67 170.41,-298.04 145.18,-288.32"/>
<polygon fill="black" stroke="black" points="146.56,-285.11 135.97,-284.77 144.04,-291.64 146.56,-285.11"/>
</g>
<!-- signer::address_of -->
<g id="node3" class="node">
<title>signer::address_of</title>
<ellipse fill="none" stroke="black" cx="1277" cy="-106" rx="48.99" ry="18"/>
<text text-anchor="middle" x="1277" y="-102.3" font-family="Times,serif" font-size="14.00">address_of</text>
</g>
<!-- cancel_offer&#45;&gt;signer::address_of -->
<g id="edge2" class="edge">
<title>cancel_offer&#45;&gt;signer::address_of</title>
<path fill="none" stroke="black" d="M1197.76,-481.85C1253.59,-463.8 1347,-422.48 1347,-348 1347,-348 1347,-348 1347,-271 1347,-218.76 1316.59,-164.14 1295.86,-132.97"/>
<polygon fill="black" stroke="black" points="1298.91,-131.23 1290.37,-124.95 1293.13,-135.18 1298.91,-131.23"/>
</g>
<!-- event::emit_event -->
<g id="node4" class="node">
<title>event::emit_event</title>
<ellipse fill="none" stroke="black" cx="1597" cy="-189" rx="50.09" ry="18"/>
<text text-anchor="middle" x="1597" y="-185.3" font-family="Times,serif" font-size="14.00">emit_event</text>
</g>
<!-- cancel_offer&#45;&gt;event::emit_event -->
<g id="edge3" class="edge">
<title>cancel_offer&#45;&gt;event::emit_event</title>
<path fill="none" stroke="black" d="M1211.35,-491.5C1263.19,-489.16 1336.83,-483.19 1361,-468 1390.96,-449.17 1382.43,-429.04 1404,-401 1459.3,-329.12 1533.96,-252.38 1572.18,-214.32"/>
<polygon fill="black" stroke="black" points="1574.49,-216.96 1579.13,-207.43 1569.57,-211.98 1574.49,-216.96"/>
</g>
<!-- token::deposit_token -->
<g id="node5" class="node">
<title>token::deposit_token</title>
<ellipse fill="none" stroke="black" cx="967" cy="-419" rx="59.59" ry="18"/>
<text text-anchor="middle" x="967" y="-415.3" font-family="Times,serif" font-size="14.00">deposit_token</text>
</g>
<!-- cancel_offer&#45;&gt;token::deposit_token -->
<g id="edge4" class="edge">
<title>cancel_offer&#45;&gt;token::deposit_token</title>
<path fill="none" stroke="black" d="M1122.59,-479.78C1092,-468.03 1047.03,-450.75 1013.29,-437.79"/>
<polygon fill="black" stroke="black" points="1014.77,-434.6 1004.18,-434.28 1012.26,-441.14 1014.77,-434.6"/>
</g>
<!-- token::get_token_amount -->
<g id="node6" class="node">
<title>token::get_token_amount</title>
<ellipse fill="none" stroke="black" cx="813" cy="-419" rx="76.89" ry="18"/>
<text text-anchor="middle" x="813" y="-415.3" font-family="Times,serif" font-size="14.00">get_token_amount</text>
</g>
<!-- cancel_offer&#45;&gt;token::get_token_amount -->
<g id="edge5" class="edge">
<title>cancel_offer&#45;&gt;token::get_token_amount</title>
<path fill="none" stroke="black" d="M1103.05,-490.43C1038.63,-486.9 934.95,-479.64 898,-468 879.57,-462.19 860.69,-452.04 845.43,-442.56"/>
<polygon fill="black" stroke="black" points="847.54,-439.75 837.23,-437.3 843.75,-445.64 847.54,-439.75"/>
</g>
<!-- create_token_offer_id -->
<g id="node7" class="node">
<title>create_token_offer_id</title>
<ellipse fill="none" stroke="black" cx="1501" cy="-419" rx="88.28" ry="18"/>
<text text-anchor="middle" x="1501" y="-415.3" font-family="Times,serif" font-size="14.00">create_token_offer_id</text>
</g>
<!-- cancel_offer&#45;&gt;create_token_offer_id -->
<g id="edge6" class="edge">
<title>cancel_offer&#45;&gt;create_token_offer_id</title>
<path fill="none" stroke="black" d="M1211.8,-492.56C1261.49,-490.94 1336.34,-485.44 1399,-468 1421.01,-461.88 1444.16,-451.36 1462.83,-441.72"/>
<polygon fill="black" stroke="black" points="1464.44,-444.83 1471.64,-437.05 1461.17,-438.64 1464.44,-444.83"/>
</g>
<!-- table::remove_box -->
<g id="node8" class="node">
<title>table::remove_box</title>
<ellipse fill="none" stroke="black" cx="71" cy="-189" rx="55.49" ry="18"/>
<text text-anchor="middle" x="71" y="-185.3" font-family="Times,serif" font-size="14.00">remove_box</text>
</g>
<!-- table::remove&#45;&gt;table::remove_box -->
<g id="edge7" class="edge">
<title>table::remove&#45;&gt;table::remove_box</title>
<path fill="none" stroke="black" d="M98.75,-254.22C94.21,-243.72 88.25,-229.93 83.02,-217.82"/>
<polygon fill="black" stroke="black" points="86.26,-216.5 79.08,-208.71 79.84,-219.28 86.26,-216.5"/>
</g>
<!-- signer::borrow_address -->
<g id="node9" class="node">
<title>signer::borrow_address</title>
<ellipse fill="none" stroke="black" cx="1277" cy="-34" rx="66.89" ry="18"/>
<text text-anchor="middle" x="1277" y="-30.3" font-family="Times,serif" font-size="14.00">borrow_address</text>
</g>
<!-- signer::address_of&#45;&gt;signer::borrow_address -->
<g id="edge8" class="edge">
<title>signer::address_of&#45;&gt;signer::borrow_address</title>
<path fill="none" stroke="black" d="M1277,-87.7C1277,-80.41 1277,-71.73 1277,-63.54"/>
<polygon fill="black" stroke="black" points="1280.5,-63.62 1277,-53.62 1273.5,-63.62 1280.5,-63.62"/>
</g>
<!-- bcs::to_bytes -->
<g id="node10" class="node">
<title>bcs::to_bytes</title>
<ellipse fill="none" stroke="black" cx="1711" cy="-106" rx="40.09" ry="18"/>
<text text-anchor="middle" x="1711" y="-102.3" font-family="Times,serif" font-size="14.00">to_bytes</text>
</g>
<!-- event::emit_event&#45;&gt;bcs::to_bytes -->
<g id="edge9" class="edge">
<title>event::emit_event&#45;&gt;bcs::to_bytes</title>
<path fill="none" stroke="black" d="M1626.62,-174.2C1637.19,-168.77 1648.96,-162.13 1659,-155 1669.07,-147.85 1679.25,-138.92 1687.9,-130.7"/>
<polygon fill="black" stroke="black" points="1690.18,-133.37 1694.89,-123.88 1685.29,-128.36 1690.18,-133.37"/>
</g>
<!-- event::write_to_event_store -->
<g id="node11" class="node">
<title>event::write_to_event_store</title>
<ellipse fill="none" stroke="black" cx="1562" cy="-106" rx="85.29" ry="18"/>
<text text-anchor="middle" x="1562" y="-102.3" font-family="Times,serif" font-size="14.00">write_to_event_store</text>
</g>
<!-- event::emit_event&#45;&gt;event::write_to_event_store -->
<g id="edge10" class="edge">
<title>event::emit_event&#45;&gt;event::write_to_event_store</title>
<path fill="none" stroke="black" d="M1589.58,-170.82C1585.03,-160.3 1579.11,-146.59 1573.91,-134.57"/>
<polygon fill="black" stroke="black" points="1577.19,-133.33 1570.01,-125.54 1570.77,-136.11 1577.19,-133.33"/>
</g>
<!-- token::deposit_token&#45;&gt;signer::address_of -->
<g id="edge11" class="edge">
<title>token::deposit_token&#45;&gt;signer::address_of</title>
<path fill="none" stroke="black" d="M1023.98,-413.24C1088.11,-404.95 1191.6,-382.37 1255,-321 1304.99,-272.61 1293.88,-181.33 1284.12,-135.2"/>
<polygon fill="black" stroke="black" points="1287.59,-134.7 1281.97,-125.72 1280.76,-136.24 1287.59,-134.7"/>
</g>
<!-- token::direct_deposit -->
<g id="node12" class="node">
<title>token::direct_deposit</title>
<ellipse fill="none" stroke="black" cx="774" cy="-347" rx="60.39" ry="18"/>
<text text-anchor="middle" x="774" y="-343.3" font-family="Times,serif" font-size="14.00">direct_deposit</text>
</g>
<!-- token::deposit_token&#45;&gt;token::direct_deposit -->
<g id="edge12" class="edge">
<title>token::deposit_token&#45;&gt;token::direct_deposit</title>
<path fill="none" stroke="black" d="M929.79,-404.5C899.05,-393.35 855.2,-377.45 821.86,-365.36"/>
<polygon fill="black" stroke="black" points="823.44,-362.21 812.85,-362.09 821.06,-368.79 823.44,-362.21"/>
</g>
<!-- token::initialize_token_store -->
<g id="node13" class="node">
<title>token::initialize_token_store</title>
<ellipse fill="none" stroke="black" cx="940" cy="-347" rx="87.18" ry="18"/>
<text text-anchor="middle" x="940" y="-343.3" font-family="Times,serif" font-size="14.00">initialize_token_store</text>
</g>
<!-- token::deposit_token&#45;&gt;token::initialize_token_store -->
<g id="edge13" class="edge">
<title>token::deposit_token&#45;&gt;token::initialize_token_store</title>
<path fill="none" stroke="black" d="M960.33,-400.7C957.42,-393.15 953.93,-384.12 950.68,-375.68"/>
<polygon fill="black" stroke="black" points="954.01,-374.59 947.14,-366.52 947.48,-377.11 954.01,-374.59"/>
</g>
<!-- token::direct_deposit&#45;&gt;event::emit_event -->
<g id="edge19" class="edge">
<title>token::direct_deposit&#45;&gt;event::emit_event</title>
<path fill="none" stroke="black" d="M817.04,-334C825.89,-331.97 835.2,-330.15 844,-329 885.11,-323.63 1176.71,-330.75 1217,-321 1291,-303.1 1297.25,-264.87 1371,-246 1406.99,-236.79 1503.3,-251.28 1538,-238 1551.35,-232.89 1563.97,-223.52 1574.08,-214.4"/>
<polygon fill="black" stroke="black" points="1576.37,-217.05 1581.18,-207.61 1571.53,-211.99 1576.37,-217.05"/>
</g>
<!-- table::contains -->
<g id="node14" class="node">
<title>table::contains</title>
<ellipse fill="none" stroke="black" cx="452" cy="-272" rx="40.09" ry="18"/>
<text text-anchor="middle" x="452" y="-268.3" font-family="Times,serif" font-size="14.00">contains</text>
</g>
<!-- token::direct_deposit&#45;&gt;table::contains -->
<g id="edge14" class="edge">
<title>token::direct_deposit&#45;&gt;table::contains</title>
<path fill="none" stroke="black" d="M714.35,-343.57C650.97,-340.38 555.27,-333.63 521,-321 505.4,-315.25 490.01,-305.11 477.75,-295.62"/>
<polygon fill="black" stroke="black" points="480.18,-293.09 470.2,-289.53 475.78,-298.54 480.18,-293.09"/>
</g>
<!-- table::borrow_mut -->
<g id="node15" class="node">
<title>table::borrow_mut</title>
<ellipse fill="none" stroke="black" cx="298" cy="-272" rx="54.69" ry="18"/>
<text text-anchor="middle" x="298" y="-268.3" font-family="Times,serif" font-size="14.00">borrow_mut</text>
</g>
<!-- token::direct_deposit&#45;&gt;table::borrow_mut -->
<g id="edge15" class="edge">
<title>token::direct_deposit&#45;&gt;table::borrow_mut</title>
<path fill="none" stroke="black" d="M713.94,-344.58C624.34,-342.01 460.1,-335.46 403,-321 379.12,-314.95 353.96,-303.65 334.27,-293.53"/>
<polygon fill="black" stroke="black" points="336.03,-290.5 325.55,-288.93 332.76,-296.69 336.03,-290.5"/>
</g>
<!-- table::add -->
<g id="node16" class="node">
<title>table::add</title>
<ellipse fill="none" stroke="black" cx="557" cy="-272" rx="27" ry="18"/>
<text text-anchor="middle" x="557" y="-268.3" font-family="Times,serif" font-size="14.00">add</text>
</g>
<!-- token::direct_deposit&#45;&gt;table::add -->
<g id="edge16" class="edge">
<title>token::direct_deposit&#45;&gt;table::add</title>
<path fill="none" stroke="black" d="M715.91,-341.56C674.27,-337.62 622.27,-330.93 603,-321 592.19,-315.43 582.48,-306.31 574.8,-297.51"/>
<polygon fill="black" stroke="black" points="577.55,-295.34 568.53,-289.79 572.12,-299.75 577.55,-295.34"/>
</g>
<!-- error::invalid_argument -->
<g id="node17" class="node">
<title>error::invalid_argument</title>
<ellipse fill="none" stroke="black" cx="899" cy="-189" rx="73.39" ry="18"/>
<text text-anchor="middle" x="899" y="-185.3" font-family="Times,serif" font-size="14.00">invalid_argument</text>
</g>
<!-- token::direct_deposit&#45;&gt;error::invalid_argument -->
<g id="edge17" class="edge">
<title>token::direct_deposit&#45;&gt;error::invalid_argument</title>
<path fill="none" stroke="black" d="M819.55,-334.89C845.7,-328.47 873.48,-321.55 874,-321 899.86,-293.64 902.95,-248.19 901.77,-218.66"/>
<polygon fill="black" stroke="black" points="905.28,-218.74 901.18,-208.97 898.3,-219.16 905.28,-218.74"/>
</g>
<!-- error::not_found -->
<g id="node18" class="node">
<title>error::not_found</title>
<ellipse fill="none" stroke="black" cx="761" cy="-189" rx="46.59" ry="18"/>
<text text-anchor="middle" x="761" y="-185.3" font-family="Times,serif" font-size="14.00">not_found</text>
</g>
<!-- token::direct_deposit&#45;&gt;error::not_found -->
<g id="edge18" class="edge">
<title>token::direct_deposit&#45;&gt;error::not_found</title>
<path fill="none" stroke="black" d="M772.56,-328.71C770.34,-302.12 766.07,-250.9 763.39,-218.69"/>
<polygon fill="black" stroke="black" points="766.89,-218.55 762.57,-208.88 759.92,-219.13 766.89,-218.55"/>
</g>
<!-- token::merge -->
<g id="node19" class="node">
<title>token::merge</title>
<ellipse fill="none" stroke="black" cx="832" cy="-272" rx="33.29" ry="18"/>
<text text-anchor="middle" x="832" y="-268.3" font-family="Times,serif" font-size="14.00">merge</text>
</g>
<!-- token::direct_deposit&#45;&gt;token::merge -->
<g id="edge20" class="edge">
<title>token::direct_deposit&#45;&gt;token::merge</title>
<path fill="none" stroke="black" d="M787.45,-329.07C794.78,-319.85 803.99,-308.26 812.13,-298.01"/>
<polygon fill="black" stroke="black" points="814.8,-300.28 818.28,-290.27 809.32,-295.93 814.8,-300.28"/>
</g>
<!-- token::initialize_token_store&#45;&gt;signer::address_of -->
<g id="edge22" class="edge">
<title>token::initialize_token_store&#45;&gt;signer::address_of</title>
<path fill="none" stroke="black" d="M1025.7,-343.11C1101.55,-339.78 1202.43,-333.12 1217,-321 1272.28,-275.02 1278.88,-182.59 1278.37,-135.69"/>
<polygon fill="black" stroke="black" points="1281.87,-135.7 1278.13,-125.79 1274.87,-135.87 1281.87,-135.7"/>
</g>
<!-- table::new -->
<g id="node20" class="node">
<title>table::new</title>
<ellipse fill="none" stroke="black" cx="639" cy="-272" rx="27" ry="18"/>
<text text-anchor="middle" x="639" y="-268.3" font-family="Times,serif" font-size="14.00">new</text>
</g>
<!-- token::initialize_token_store&#45;&gt;table::new -->
<g id="edge21" class="edge">
<title>token::initialize_token_store&#45;&gt;table::new</title>
<path fill="none" stroke="black" d="M877.8,-333.99C866.27,-332.08 854.29,-330.31 843,-329 811.82,-325.4 731.44,-331.88 702,-321 686.94,-315.44 672.51,-304.96 661.27,-295.21"/>
<polygon fill="black" stroke="black" points="663.85,-292.83 654.1,-288.68 659.13,-298 663.85,-292.83"/>
</g>
<!-- account::new_event_handle -->
<g id="node21" class="node">
<title>account::new_event_handle</title>
<ellipse fill="none" stroke="black" cx="1128" cy="-272" rx="76.89" ry="18"/>
<text text-anchor="middle" x="1128" y="-268.3" font-family="Times,serif" font-size="14.00">new_event_handle</text>
</g>
<!-- token::initialize_token_store&#45;&gt;account::new_event_handle -->
<g id="edge23" class="edge">
<title>token::initialize_token_store&#45;&gt;account::new_event_handle</title>
<path fill="none" stroke="black" d="M999.64,-333.48C1012.8,-330.02 1026.53,-325.85 1039,-321 1057.12,-313.95 1076.22,-304.02 1092.06,-295.02"/>
<polygon fill="black" stroke="black" points="1093.75,-298.08 1100.64,-290.03 1090.24,-292.03 1093.75,-298.08"/>
</g>
<!-- table::contains_box -->
<g id="node22" class="node">
<title>table::contains_box</title>
<ellipse fill="none" stroke="black" cx="364" cy="-189" rx="57.69" ry="18"/>
<text text-anchor="middle" x="364" y="-185.3" font-family="Times,serif" font-size="14.00">contains_box</text>
</g>
<!-- table::contains&#45;&gt;table::contains_box -->
<g id="edge24" class="edge">
<title>table::contains&#45;&gt;table::contains_box</title>
<path fill="none" stroke="black" d="M435.03,-255.38C422.26,-243.62 404.52,-227.29 389.96,-213.9"/>
<polygon fill="black" stroke="black" points="392.66,-211.63 382.93,-207.43 387.92,-216.78 392.66,-211.63"/>
</g>
<!-- table::borrow_box_mut -->
<g id="node23" class="node">
<title>table::borrow_box_mut</title>
<ellipse fill="none" stroke="black" cx="216" cy="-189" rx="72.29" ry="18"/>
<text text-anchor="middle" x="216" y="-185.3" font-family="Times,serif" font-size="14.00">borrow_box_mut</text>
</g>
<!-- table::borrow_mut&#45;&gt;table::borrow_box_mut -->
<g id="edge25" class="edge">
<title>table::borrow_mut&#45;&gt;table::borrow_box_mut</title>
<path fill="none" stroke="black" d="M281.41,-254.61C269.89,-243.23 254.33,-227.87 241.28,-214.97"/>
<polygon fill="black" stroke="black" points="243.78,-212.53 234.21,-207.99 238.87,-217.51 243.78,-212.53"/>
</g>
<!-- table::add_box -->
<g id="node24" class="node">
<title>table::add_box</title>
<ellipse fill="none" stroke="black" cx="481" cy="-189" rx="40.89" ry="18"/>
<text text-anchor="middle" x="481" y="-185.3" font-family="Times,serif" font-size="14.00">add_box</text>
</g>
<!-- table::add&#45;&gt;table::add_box -->
<g id="edge26" class="edge">
<title>table::add&#45;&gt;table::add_box</title>
<path fill="none" stroke="black" d="M543.06,-256.14C532.06,-244.42 516.49,-227.82 503.69,-214.19"/>
<polygon fill="black" stroke="black" points="506.58,-212.15 497.19,-207.26 501.48,-216.94 506.58,-212.15"/>
</g>
<!-- error::canonical -->
<g id="node25" class="node">
<title>error::canonical</title>
<ellipse fill="none" stroke="black" cx="830" cy="-106" rx="44.39" ry="18"/>
<text text-anchor="middle" x="830" y="-102.3" font-family="Times,serif" font-size="14.00">canonical</text>
</g>
<!-- error::invalid_argument&#45;&gt;error::canonical -->
<g id="edge27" class="edge">
<title>error::invalid_argument&#45;&gt;error::canonical</title>
<path fill="none" stroke="black" d="M884.7,-171.22C875.11,-159.96 862.3,-144.92 851.49,-132.22"/>
<polygon fill="black" stroke="black" points="854.17,-129.98 845.02,-124.64 848.84,-134.52 854.17,-129.98"/>
</g>
<!-- error::not_found&#45;&gt;error::canonical -->
<g id="edge28" class="edge">
<title>error::not_found&#45;&gt;error::canonical</title>
<path fill="none" stroke="black" d="M774.96,-171.61C784.69,-160.19 797.84,-144.75 808.85,-131.83"/>
<polygon fill="black" stroke="black" points="811.26,-134.4 815.08,-124.52 805.93,-129.86 811.26,-134.4"/>
</g>
<!-- token::merge&#45;&gt;error::invalid_argument -->
<g id="edge29" class="edge">
<title>token::merge&#45;&gt;error::invalid_argument</title>
<path fill="none" stroke="black" d="M845.24,-255C854.44,-243.87 866.92,-228.78 877.54,-215.95"/>
<polygon fill="black" stroke="black" points="880.22,-218.19 883.9,-208.25 874.83,-213.73 880.22,-218.19"/>
</g>
<!-- table::new_table_handle -->
<g id="node26" class="node">
<title>table::new_table_handle</title>
<ellipse fill="none" stroke="black" cx="615" cy="-189" rx="74.99" ry="18"/>
<text text-anchor="middle" x="615" y="-185.3" font-family="Times,serif" font-size="14.00">new_table_handle</text>
</g>
<!-- table::new&#45;&gt;table::new_table_handle -->
<g id="edge30" class="edge">
<title>table::new&#45;&gt;table::new_table_handle</title>
<path fill="none" stroke="black" d="M633.91,-253.82C630.84,-243.48 626.87,-230.05 623.35,-218.18"/>
<polygon fill="black" stroke="black" points="626.79,-217.48 620.6,-208.88 620.08,-219.47 626.79,-217.48"/>
</g>
<!-- event::new_event_handle -->
<g id="node27" class="node">
<title>event::new_event_handle</title>
<ellipse fill="none" stroke="black" cx="1452" cy="-189" rx="76.89" ry="18"/>
<text text-anchor="middle" x="1452" y="-185.3" font-family="Times,serif" font-size="14.00">new_event_handle</text>
</g>
<!-- account::new_event_handle&#45;&gt;event::new_event_handle -->
<g id="edge31" class="edge">
<title>account::new_event_handle&#45;&gt;event::new_event_handle</title>
<path fill="none" stroke="black" d="M1175.62,-257.61C1189.58,-253.77 1204.88,-249.64 1219,-246 1275.76,-231.39 1340.61,-215.9 1387.46,-204.92"/>
<polygon fill="black" stroke="black" points="1388.25,-208.33 1397.19,-202.65 1386.66,-201.51 1388.25,-208.33"/>
</g>
<!-- account::create_guid -->
<g id="node28" class="node">
<title>account::create_guid</title>
<ellipse fill="none" stroke="black" cx="1138" cy="-189" rx="51.99" ry="18"/>
<text text-anchor="middle" x="1138" y="-185.3" font-family="Times,serif" font-size="14.00">create_guid</text>
</g>
<!-- account::new_event_handle&#45;&gt;account::create_guid -->
<g id="edge32" class="edge">
<title>account::new_event_handle&#45;&gt;account::create_guid</title>
<path fill="none" stroke="black" d="M1130.12,-253.82C1131.38,-243.58 1133.02,-230.33 1134.48,-218.55"/>
<polygon fill="black" stroke="black" points="1137.91,-219.29 1135.66,-208.93 1130.96,-218.43 1137.91,-219.29"/>
</g>
<!-- account::create_guid&#45;&gt;signer::address_of -->
<g id="edge33" class="edge">
<title>account::create_guid&#45;&gt;signer::address_of</title>
<path fill="none" stroke="black" d="M1163.82,-172.95C1185.8,-160.14 1217.59,-141.62 1241.89,-127.46"/>
<polygon fill="black" stroke="black" points="1243.6,-130.51 1250.48,-122.45 1240.08,-124.46 1243.6,-130.51"/>
</g>
<!-- guid::create -->
<g id="node29" class="node">
<title>guid::create</title>
<ellipse fill="none" stroke="black" cx="1138" cy="-106" rx="31.7" ry="18"/>
<text text-anchor="middle" x="1138" y="-102.3" font-family="Times,serif" font-size="14.00">create</text>
</g>
<!-- account::create_guid&#45;&gt;guid::create -->
<g id="edge34" class="edge">
<title>account::create_guid&#45;&gt;guid::create</title>
<path fill="none" stroke="black" d="M1138,-170.82C1138,-160.69 1138,-147.6 1138,-135.92"/>
<polygon fill="black" stroke="black" points="1141.5,-135.95 1138,-125.95 1134.5,-135.95 1141.5,-135.95"/>
</g>
</g>
</svg>
