<?xml version="1.0" encoding="UTF-8" standalone="no"?>
<!DOCTYPE svg PUBLIC "-//W3C//DTD SVG 1.1//EN"
 "http://www.w3.org/Graphics/SVG/1.1/DTD/svg11.dtd">
<!-- Generated by graphviz version 7.0.0 (20221023.0053)
 -->
<!-- Title: G Pages: 1 -->
<svg width="1019pt" height="290pt"
 viewBox="0.00 0.00 1019.00 290.00" xmlns="http://www.w3.org/2000/svg" xmlns:xlink="http://www.w3.org/1999/xlink">
<g id="graph0" class="graph" transform="scale(1 1) rotate(0) translate(4 286)">
<title>G</title>
<polygon fill="white" stroke="none" points="-4,4 -4,-286 1015,-286 1015,4 -4,4"/>
<g id="clust1" class="cluster">
<title>cluster_string</title>
<polygon fill="none" stroke="black" points="8,-163 8,-238 88,-238 88,-163 8,-163"/>
<text text-anchor="middle" x="48" y="-222.8" font-family="Times,serif" font-size="14.00">string</text>
</g>
<g id="clust2" class="cluster">
<title>cluster_table</title>
<polygon fill="none" stroke="black" points="254,-8 254,-155 548,-155 548,-8 254,-8"/>
<text text-anchor="middle" x="401" y="-139.8" font-family="Times,serif" font-size="14.00">table</text>
</g>
<g id="clust3" class="cluster">
<title>cluster_signer</title>
<polygon fill="none" stroke="black" points="96,-80 96,-238 246,-238 246,-80 96,-80"/>
<text text-anchor="middle" x="171" y="-222.8" font-family="Times,serif" font-size="14.00">signer</text>
</g>
<g id="clust4" class="cluster">
<title>cluster_error</title>
<polygon fill="none" stroke="black" points="556,-8 556,-155 1003,-155 1003,-8 556,-8"/>
<text text-anchor="middle" x="779.5" y="-139.8" font-family="Times,serif" font-size="14.00">error</text>
</g>
<!-- mutate_collection_uri -->
<g id="node1" class="node">
<title>mutate_collection_uri</title>
<ellipse fill="none" stroke="black" cx="427" cy="-264" rx="88.28" ry="18"/>
<text text-anchor="middle" x="427" y="-260.3" font-family="Times,serif" font-size="14.00">mutate_collection_uri</text>
</g>
<!-- string::length -->
<g id="node2" class="node">
<title>string::length</title>
<ellipse fill="none" stroke="black" cx="48" cy="-189" rx="32.49" ry="18"/>
<text text-anchor="middle" x="48" y="-185.3" font-family="Times,serif" font-size="14.00">length</text>
</g>
<!-- mutate_collection_uri&#45;&gt;string::length -->
<g id="edge1" class="edge">
<title>mutate_collection_uri&#45;&gt;string::length</title>
<path fill="none" stroke="black" d="M338.32,-263.68C253.97,-263.02 133.91,-258.33 92,-238 81.43,-232.87 72.19,-224 64.95,-215.27"/>
<polygon fill="black" stroke="black" points="67.92,-213.4 59.06,-207.58 62.36,-217.65 67.92,-213.4"/>
</g>
<!-- table::borrow_mut -->
<g id="node3" class="node">
<title>table::borrow_mut</title>
<ellipse fill="none" stroke="black" cx="347" cy="-106" rx="54.69" ry="18"/>
<text text-anchor="middle" x="347" y="-102.3" font-family="Times,serif" font-size="14.00">borrow_mut</text>
</g>
<!-- mutate_collection_uri&#45;&gt;table::borrow_mut -->
<g id="edge2" class="edge">
<title>mutate_collection_uri&#45;&gt;table::borrow_mut</title>
<path fill="none" stroke="black" d="M388.94,-247.34C385.21,-244.65 381.78,-241.55 379,-238 355.74,-208.34 349.08,-164.17 347.34,-135.48"/>
<polygon fill="black" stroke="black" points="350.85,-135.57 346.93,-125.73 343.85,-135.87 350.85,-135.57"/>
</g>
<!-- signer::address_of -->
<g id="node4" class="node">
<title>signer::address_of</title>
<ellipse fill="none" stroke="black" cx="180" cy="-189" rx="48.99" ry="18"/>
<text text-anchor="middle" x="180" y="-185.3" font-family="Times,serif" font-size="14.00">address_of</text>
</g>
<!-- mutate_collection_uri&#45;&gt;signer::address_of -->
<g id="edge3" class="edge">
<title>mutate_collection_uri&#45;&gt;signer::address_of</title>
<path fill="none" stroke="black" d="M376.7,-248.86C364.36,-245.35 351.19,-241.57 339,-238 301.5,-227.01 259.14,-214.21 227.58,-204.59"/>
<polygon fill="black" stroke="black" points="228.93,-201.34 218.34,-201.77 226.89,-208.03 228.93,-201.34"/>
</g>
<!-- error::invalid_argument -->
<g id="node5" class="node">
<title>error::invalid_argument</title>
<ellipse fill="none" stroke="black" cx="749" cy="-106" rx="73.39" ry="18"/>
<text text-anchor="middle" x="749" y="-102.3" font-family="Times,serif" font-size="14.00">invalid_argument</text>
</g>
<!-- mutate_collection_uri&#45;&gt;error::invalid_argument -->
<g id="edge4" class="edge">
<title>mutate_collection_uri&#45;&gt;error::invalid_argument</title>
<path fill="none" stroke="black" d="M510.48,-257.94C535.23,-254.31 561.88,-248.2 585,-238 642.29,-212.73 696.57,-162.35 726.06,-131.97"/>
<polygon fill="black" stroke="black" points="728.28,-134.71 732.66,-125.06 723.22,-129.87 728.28,-134.71"/>
</g>
<!-- error::permission_denied -->
<g id="node6" class="node">
<title>error::permission_denied</title>
<ellipse fill="none" stroke="black" cx="918" cy="-106" rx="77.19" ry="18"/>
<text text-anchor="middle" x="918" y="-102.3" font-family="Times,serif" font-size="14.00">permission_denied</text>
</g>
<!-- mutate_collection_uri&#45;&gt;error::permission_denied -->
<g id="edge5" class="edge">
<title>mutate_collection_uri&#45;&gt;error::permission_denied</title>
<path fill="none" stroke="black" d="M513.45,-259.94C555.82,-256.79 607.24,-250.5 652,-238 736.46,-214.41 752.78,-194.65 831,-155 847.25,-146.76 864.9,-137.15 880.03,-128.7"/>
<polygon fill="black" stroke="black" points="881.73,-131.76 888.74,-123.81 878.3,-125.66 881.73,-131.76"/>
</g>
<!-- assert_collection_exists -->
<g id="node7" class="node">
<title>assert_collection_exists</title>
<ellipse fill="none" stroke="black" cx="482" cy="-189" rx="94.48" ry="18"/>
<text text-anchor="middle" x="482" y="-185.3" font-family="Times,serif" font-size="14.00">assert_collection_exists</text>
</g>
<!-- mutate_collection_uri&#45;&gt;assert_collection_exists -->
<g id="edge6" class="edge">
<title>mutate_collection_uri&#45;&gt;assert_collection_exists</title>
<path fill="none" stroke="black" d="M439.76,-246.07C446.44,-237.2 454.78,-226.13 462.27,-216.18"/>
<polygon fill="black" stroke="black" points="464.99,-218.39 468.21,-208.3 459.4,-214.18 464.99,-218.39"/>
</g>
<!-- table::borrow_box_mut -->
<g id="node8" class="node">
<title>table::borrow_box_mut</title>
<ellipse fill="none" stroke="black" cx="334" cy="-34" rx="72.29" ry="18"/>
<text text-anchor="middle" x="334" y="-30.3" font-family="Times,serif" font-size="14.00">borrow_box_mut</text>
</g>
<!-- table::borrow_mut&#45;&gt;table::borrow_box_mut -->
<g id="edge7" class="edge">
<title>table::borrow_mut&#45;&gt;table::borrow_box_mut</title>
<path fill="none" stroke="black" d="M343.79,-87.7C342.42,-80.32 340.78,-71.52 339.25,-63.25"/>
<polygon fill="black" stroke="black" points="342.72,-62.79 337.45,-53.59 335.84,-64.06 342.72,-62.79"/>
</g>
<!-- signer::borrow_address -->
<g id="node9" class="node">
<title>signer::borrow_address</title>
<ellipse fill="none" stroke="black" cx="171" cy="-106" rx="66.89" ry="18"/>
<text text-anchor="middle" x="171" y="-102.3" font-family="Times,serif" font-size="14.00">borrow_address</text>
</g>
<!-- signer::address_of&#45;&gt;signer::borrow_address -->
<g id="edge8" class="edge">
<title>signer::address_of&#45;&gt;signer::borrow_address</title>
<path fill="none" stroke="black" d="M178.09,-170.82C176.95,-160.58 175.48,-147.33 174.17,-135.55"/>
<polygon fill="black" stroke="black" points="177.69,-135.49 173.1,-125.94 170.73,-136.26 177.69,-135.49"/>
</g>
<!-- error::canonical -->
<g id="node10" class="node">
<title>error::canonical</title>
<ellipse fill="none" stroke="black" cx="749" cy="-34" rx="44.39" ry="18"/>
<text text-anchor="middle" x="749" y="-30.3" font-family="Times,serif" font-size="14.00">canonical</text>
</g>
<!-- error::invalid_argument&#45;&gt;error::canonical -->
<g id="edge9" class="edge">
<title>error::invalid_argument&#45;&gt;error::canonical</title>
<path fill="none" stroke="black" d="M749,-87.7C749,-80.41 749,-71.73 749,-63.54"/>
<polygon fill="black" stroke="black" points="752.5,-63.62 749,-53.62 745.5,-63.62 752.5,-63.62"/>
</g>
<!-- error::permission_denied&#45;&gt;error::canonical -->
<g id="edge10" class="edge">
<title>error::permission_denied&#45;&gt;error::canonical</title>
<path fill="none" stroke="black" d="M881.33,-89.81C854.42,-78.66 817.86,-63.52 789.99,-51.98"/>
<polygon fill="black" stroke="black" points="791.36,-48.76 780.79,-48.17 788.69,-55.23 791.36,-48.76"/>
</g>
<!-- table::contains -->
<g id="node11" class="node">
<title>table::contains</title>
<ellipse fill="none" stroke="black" cx="482" cy="-106" rx="40.09" ry="18"/>
<text text-anchor="middle" x="482" y="-102.3" font-family="Times,serif" font-size="14.00">contains</text>
</g>
<!-- assert_collection_exists&#45;&gt;table::contains -->
<g id="edge11" class="edge">
<title>assert_collection_exists&#45;&gt;table::contains</title>
<path fill="none" stroke="black" d="M482,-170.82C482,-160.69 482,-147.6 482,-135.92"/>
<polygon fill="black" stroke="black" points="485.5,-135.95 482,-125.95 478.5,-135.95 485.5,-135.95"/>
</g>
<!-- error::not_found -->
<g id="node12" class="node">
<title>error::not_found</title>
<ellipse fill="none" stroke="black" cx="611" cy="-106" rx="46.59" ry="18"/>
<text text-anchor="middle" x="611" y="-102.3" font-family="Times,serif" font-size="14.00">not_found</text>
</g>
<!-- assert_collection_exists&#45;&gt;error::not_found -->
<g id="edge12" class="edge">
<title>assert_collection_exists&#45;&gt;error::not_found</title>
<path fill="none" stroke="black" d="M519.94,-172.15C530.6,-167.17 541.99,-161.3 552,-155 563.38,-147.84 575.04,-138.78 584.96,-130.47"/>
<polygon fill="black" stroke="black" points="587.07,-133.27 592.37,-124.1 582.51,-127.96 587.07,-133.27"/>
</g>
<!-- table::contains_box -->
<g id="node13" class="node">
<title>table::contains_box</title>
<ellipse fill="none" stroke="black" cx="482" cy="-34" rx="57.69" ry="18"/>
<text text-anchor="middle" x="482" y="-30.3" font-family="Times,serif" font-size="14.00">contains_box</text>
</g>
<!-- table::contains&#45;&gt;table::contains_box -->
<g id="edge13" class="edge">
<title>table::contains&#45;&gt;table::contains_box</title>
<path fill="none" stroke="black" d="M482,-87.7C482,-80.41 482,-71.73 482,-63.54"/>
<polygon fill="black" stroke="black" points="485.5,-63.62 482,-53.62 478.5,-63.62 485.5,-63.62"/>
</g>
<!-- error::not_found&#45;&gt;error::canonical -->
<g id="edge14" class="edge">
<title>error::not_found&#45;&gt;error::canonical</title>
<path fill="none" stroke="black" d="M638.26,-91.17C659.38,-80.46 688.85,-65.51 712.08,-53.73"/>
<polygon fill="black" stroke="black" points="713.58,-56.89 720.91,-49.25 710.41,-50.65 713.58,-56.89"/>
</g>
</g>
</svg>
