<?xml version="1.0" encoding="UTF-8" standalone="no"?>
<!DOCTYPE svg PUBLIC "-//W3C//DTD SVG 1.1//EN"
 "http://www.w3.org/Graphics/SVG/1.1/DTD/svg11.dtd">
<!-- Generated by graphviz version 7.0.0 (20221023.0053)
 -->
<!-- Title: G Pages: 1 -->
<svg width="1427pt" height="620pt"
 viewBox="0.00 0.00 1426.89 620.00" xmlns="http://www.w3.org/2000/svg" xmlns:xlink="http://www.w3.org/1999/xlink">
<g id="graph0" class="graph" transform="scale(1 1) rotate(0) translate(4 616)">
<title>G</title>
<polygon fill="white" stroke="none" points="-4,4 -4,-616 1422.89,-616 1422.89,4 -4,4"/>
<!-- token_coin_swap -->
<g id="node1" class="node">
<title>token_coin_swap</title>
<ellipse fill="none" stroke="black" cx="825.89" cy="-594" rx="72.29" ry="18"/>
<text text-anchor="middle" x="825.89" y="-590.3" font-family="Times,serif" font-size="14.00">token_coin_swap</text>
</g>
<!-- string -->
<g id="node2" class="node">
<title>string</title>
<ellipse fill="none" stroke="black" cx="1232.89" cy="-162" rx="30.59" ry="18"/>
<text text-anchor="middle" x="1232.89" y="-158.3" font-family="Times,serif" font-size="14.00">string</text>
</g>
<!-- token_coin_swap&#45;&gt;string -->
<g id="edge1" class="edge">
<title>token_coin_swap&#45;&gt;string</title>
<path fill="none" stroke="black" d="M896.7,-590.23C1012.77,-584.87 1237.92,-570.77 1310.89,-540 1368.21,-515.83 1418.89,-513.2 1418.89,-451 1418.89,-451 1418.89,-451 1418.89,-305 1418.89,-231.45 1325.89,-190.92 1271.41,-173.48"/>
<polygon fill="black" stroke="black" points="1272.77,-170.24 1262.19,-170.65 1270.72,-176.93 1272.77,-170.24"/>
</g>
<!-- type_info -->
<g id="node3" class="node">
<title>type_info</title>
<ellipse fill="none" stroke="black" cx="1232.89" cy="-234" rx="44.39" ry="18"/>
<text text-anchor="middle" x="1232.89" y="-230.3" font-family="Times,serif" font-size="14.00">type_info</text>
</g>
<!-- token_coin_swap&#45;&gt;type_info -->
<g id="edge2" class="edge">
<title>token_coin_swap&#45;&gt;type_info</title>
<path fill="none" stroke="black" d="M896.47,-589.72C1045.95,-580.83 1380.89,-549.9 1380.89,-451 1380.89,-451 1380.89,-451 1380.89,-377 1380.89,-317 1316.78,-274.47 1272.95,-252.4"/>
<polygon fill="black" stroke="black" points="1274.73,-249.37 1264.21,-248.15 1271.67,-255.67 1274.73,-249.37"/>
</g>
<!-- table -->
<g id="node4" class="node">
<title>table</title>
<ellipse fill="none" stroke="black" cx="56.89" cy="-378" rx="27.9" ry="18"/>
<text text-anchor="middle" x="56.89" y="-374.3" font-family="Times,serif" font-size="14.00">table</text>
</g>
<!-- token_coin_swap&#45;&gt;table -->
<g id="edge3" class="edge">
<title>token_coin_swap&#45;&gt;table</title>
<path fill="none" stroke="black" d="M763.52,-584.7C655.11,-569.18 425.82,-531.45 240.89,-468 184.38,-448.61 122.61,-416.22 86.94,-396.33"/>
<polygon fill="black" stroke="black" points="88.92,-393.43 78.49,-391.57 85.49,-399.52 88.92,-393.43"/>
</g>
<!-- error -->
<g id="node5" class="node">
<title>error</title>
<ellipse fill="none" stroke="black" cx="530.89" cy="-234" rx="27.9" ry="18"/>
<text text-anchor="middle" x="530.89" y="-230.3" font-family="Times,serif" font-size="14.00">error</text>
</g>
<!-- token_coin_swap&#45;&gt;error -->
<g id="edge4" class="edge">
<title>token_coin_swap&#45;&gt;error</title>
<path fill="none" stroke="black" d="M755.22,-589.8C663.21,-584.54 497.86,-571.32 359.89,-540 264.5,-518.34 241.37,-507.56 151.89,-468 90.78,-440.98 54.01,-453.46 19.89,-396 11.73,-382.24 10.29,-372.79 19.89,-360 77.31,-283.55 382.61,-248.54 491.93,-238.32"/>
<polygon fill="black" stroke="black" points="491.93,-241.84 501.57,-237.44 491.29,-234.86 491.93,-241.84"/>
</g>
<!-- event -->
<g id="node6" class="node">
<title>event</title>
<ellipse fill="none" stroke="black" cx="860.89" cy="-378" rx="29.8" ry="18"/>
<text text-anchor="middle" x="860.89" y="-374.3" font-family="Times,serif" font-size="14.00">event</text>
</g>
<!-- token_coin_swap&#45;&gt;event -->
<g id="edge5" class="edge">
<title>token_coin_swap&#45;&gt;event</title>
<path fill="none" stroke="black" d="M828.7,-575.85C834.7,-539.14 848.85,-452.66 856.23,-407.53"/>
<polygon fill="black" stroke="black" points="859.67,-408.16 857.83,-397.73 852.76,-407.03 859.67,-408.16"/>
</g>
<!-- token -->
<g id="node7" class="node">
<title>token</title>
<ellipse fill="none" stroke="black" cx="777.89" cy="-522" rx="30.59" ry="18"/>
<text text-anchor="middle" x="777.89" y="-518.3" font-family="Times,serif" font-size="14.00">token</text>
</g>
<!-- token_coin_swap&#45;&gt;token -->
<g id="edge6" class="edge">
<title>token_coin_swap&#45;&gt;token</title>
<path fill="none" stroke="black" d="M814.28,-576.05C808.57,-567.73 801.58,-557.54 795.26,-548.32"/>
<polygon fill="black" stroke="black" points="798.15,-546.35 789.61,-540.08 792.37,-550.3 798.15,-546.35"/>
</g>
<!-- vector -->
<g id="node8" class="node">
<title>vector</title>
<ellipse fill="none" stroke="black" cx="342.89" cy="-18" rx="32.49" ry="18"/>
<text text-anchor="middle" x="342.89" y="-14.3" font-family="Times,serif" font-size="14.00">vector</text>
</g>
<!-- string&#45;&gt;vector -->
<g id="edge7" class="edge">
<title>string&#45;&gt;vector</title>
<path fill="none" stroke="black" d="M1203.93,-155.72C1184.9,-152.29 1159.43,-147.77 1136.89,-144 849.85,-95.99 503.53,-43.25 385.02,-25.34"/>
<polygon fill="black" stroke="black" points="385.86,-21.93 375.45,-23.9 384.82,-28.85 385.86,-21.93"/>
</g>
<!-- option -->
<g id="node9" class="node">
<title>option</title>
<ellipse fill="none" stroke="black" cx="342.89" cy="-90" rx="33.29" ry="18"/>
<text text-anchor="middle" x="342.89" y="-86.3" font-family="Times,serif" font-size="14.00">option</text>
</g>
<!-- string&#45;&gt;option -->
<g id="edge8" class="edge">
<title>string&#45;&gt;option</title>
<path fill="none" stroke="black" d="M1204.45,-155.13C1185.41,-151.4 1159.75,-146.78 1136.89,-144 852.86,-109.48 508.74,-96.12 387.64,-92.28"/>
<polygon fill="black" stroke="black" points="387.91,-88.79 377.81,-91.98 387.7,-95.79 387.91,-88.79"/>
</g>
<!-- type_info&#45;&gt;string -->
<g id="edge9" class="edge">
<title>type_info&#45;&gt;string</title>
<path fill="none" stroke="black" d="M1232.89,-215.7C1232.89,-208.41 1232.89,-199.73 1232.89,-191.54"/>
<polygon fill="black" stroke="black" points="1236.39,-191.62 1232.89,-181.62 1229.39,-191.62 1236.39,-191.62"/>
</g>
<!-- bcs -->
<g id="node10" class="node">
<title>bcs</title>
<ellipse fill="none" stroke="black" cx="769.89" cy="-234" rx="27" ry="18"/>
<text text-anchor="middle" x="769.89" y="-230.3" font-family="Times,serif" font-size="14.00">bcs</text>
</g>
<!-- event&#45;&gt;bcs -->
<g id="edge10" class="edge">
<title>event&#45;&gt;bcs</title>
<path fill="none" stroke="black" d="M858.16,-359.71C854.54,-340.82 846.8,-310.29 831.89,-288 823.01,-274.72 809.92,-262.85 798.05,-253.72"/>
<polygon fill="black" stroke="black" points="800.25,-251 790.11,-247.92 796.12,-256.65 800.25,-251"/>
</g>
<!-- guid -->
<g id="node11" class="node">
<title>guid</title>
<ellipse fill="none" stroke="black" cx="795.89" cy="-306" rx="27" ry="18"/>
<text text-anchor="middle" x="795.89" y="-302.3" font-family="Times,serif" font-size="14.00">guid</text>
</g>
<!-- event&#45;&gt;guid -->
<g id="edge11" class="edge">
<title>event&#45;&gt;guid</title>
<path fill="none" stroke="black" d="M846.79,-361.81C838.16,-352.51 826.94,-340.43 817.23,-329.98"/>
<polygon fill="black" stroke="black" points="819.93,-327.74 810.56,-322.79 814.8,-332.5 819.93,-327.74"/>
</g>
<!-- token&#45;&gt;string -->
<g id="edge13" class="edge">
<title>token&#45;&gt;string</title>
<path fill="none" stroke="black" d="M808.39,-519.48C896.43,-514.77 1149.56,-498.85 1225.89,-468 1286.47,-443.52 1342.89,-444.33 1342.89,-379 1342.89,-379 1342.89,-379 1342.89,-305 1342.89,-262.16 1332.44,-249.62 1305.89,-216 1294.7,-201.82 1278.76,-189.65 1264.64,-180.57"/>
<polygon fill="black" stroke="black" points="1266.87,-177.83 1256.52,-175.58 1263.21,-183.8 1266.87,-177.83"/>
</g>
<!-- token&#45;&gt;table -->
<g id="edge14" class="edge">
<title>token&#45;&gt;table</title>
<path fill="none" stroke="black" d="M747.89,-517.87C651.8,-507.34 343.66,-469.67 98.89,-396 95.96,-395.12 92.94,-394.11 89.94,-393.03"/>
<polygon fill="black" stroke="black" points="91.29,-389.8 80.7,-389.5 88.79,-396.34 91.29,-389.8"/>
</g>
<!-- token&#45;&gt;error -->
<g id="edge16" class="edge">
<title>token&#45;&gt;error</title>
<path fill="none" stroke="black" d="M799.36,-508.95C840.72,-484.01 925.22,-423.71 899.89,-360 883.63,-319.1 870.65,-308.88 831.89,-288 746.71,-242.11 630.17,-234.71 570.15,-234.24"/>
<polygon fill="black" stroke="black" points="570.45,-230.74 560.45,-234.23 570.44,-237.74 570.45,-230.74"/>
</g>
<!-- token&#45;&gt;event -->
<g id="edge17" class="edge">
<title>token&#45;&gt;event</title>
<path fill="none" stroke="black" d="M787.58,-504.43C801.82,-480.06 828.56,-434.31 845.51,-405.32"/>
<polygon fill="black" stroke="black" points="848.48,-407.17 850.51,-396.77 842.44,-403.64 848.48,-407.17"/>
</g>
<!-- token&#45;&gt;option -->
<g id="edge12" class="edge">
<title>token&#45;&gt;option</title>
<path fill="none" stroke="black" d="M746.83,-521.31C615.31,-521.85 107.06,-516.08 19.89,-396 -74.86,-265.47 200.75,-144.66 304.85,-104.8"/>
<polygon fill="black" stroke="black" points="305.99,-108.11 314.1,-101.31 303.51,-101.57 305.99,-108.11"/>
</g>
<!-- signer -->
<g id="node12" class="node">
<title>signer</title>
<ellipse fill="none" stroke="black" cx="590.89" cy="-306" rx="32.49" ry="18"/>
<text text-anchor="middle" x="590.89" y="-302.3" font-family="Times,serif" font-size="14.00">signer</text>
</g>
<!-- token&#45;&gt;signer -->
<g id="edge15" class="edge">
<title>token&#45;&gt;signer</title>
<path fill="none" stroke="black" d="M764.45,-505.61C732.25,-468.76 650.53,-375.24 611.83,-330.96"/>
<polygon fill="black" stroke="black" points="614.68,-328.91 605.47,-323.68 609.41,-333.51 614.68,-328.91"/>
</g>
<!-- account -->
<g id="node13" class="node">
<title>account</title>
<ellipse fill="none" stroke="black" cx="614.89" cy="-450" rx="38.19" ry="18"/>
<text text-anchor="middle" x="614.89" y="-446.3" font-family="Times,serif" font-size="14.00">account</text>
</g>
<!-- token&#45;&gt;account -->
<g id="edge18" class="edge">
<title>token&#45;&gt;account</title>
<path fill="none" stroke="black" d="M753.84,-510.67C727.31,-499.27 684.23,-480.78 653.07,-467.4"/>
<polygon fill="black" stroke="black" points="654.55,-464.22 643.99,-463.49 651.79,-470.65 654.55,-464.22"/>
</g>
<!-- timestamp -->
<g id="node14" class="node">
<title>timestamp</title>
<ellipse fill="none" stroke="black" cx="510.89" cy="-450" rx="48.19" ry="18"/>
<text text-anchor="middle" x="510.89" y="-446.3" font-family="Times,serif" font-size="14.00">timestamp</text>
</g>
<!-- token&#45;&gt;timestamp -->
<g id="edge19" class="edge">
<title>token&#45;&gt;timestamp</title>
<path fill="none" stroke="black" d="M749.94,-514.35C709.6,-504.65 632.79,-485.86 567.89,-468 564.77,-467.14 561.55,-466.23 558.31,-465.31"/>
<polygon fill="black" stroke="black" points="559.35,-461.97 548.77,-462.54 557.4,-468.69 559.35,-461.97"/>
</g>
<!-- property_map -->
<g id="node15" class="node">
<title>property_map</title>
<ellipse fill="none" stroke="black" cx="1156.89" cy="-450" rx="60.39" ry="18"/>
<text text-anchor="middle" x="1156.89" y="-446.3" font-family="Times,serif" font-size="14.00">property_map</text>
</g>
<!-- token&#45;&gt;property_map -->
<g id="edge20" class="edge">
<title>token&#45;&gt;property_map</title>
<path fill="none" stroke="black" d="M807,-515.62C868.42,-504.28 1012.41,-477.69 1095.26,-462.38"/>
<polygon fill="black" stroke="black" points="1095.85,-465.83 1105.05,-460.58 1094.58,-458.95 1095.85,-465.83"/>
</g>
<!-- option&#45;&gt;vector -->
<g id="edge21" class="edge">
<title>option&#45;&gt;vector</title>
<path fill="none" stroke="black" d="M342.89,-71.7C342.89,-64.41 342.89,-55.73 342.89,-47.54"/>
<polygon fill="black" stroke="black" points="346.39,-47.62 342.89,-37.62 339.39,-47.62 346.39,-47.62"/>
</g>
<!-- account&#45;&gt;type_info -->
<g id="edge24" class="edge">
<title>account&#45;&gt;type_info</title>
<path fill="none" stroke="black" d="M634.25,-434.19C646.97,-424.05 663.64,-409.97 676.89,-396 718.57,-352.09 707.17,-317.74 759.89,-288 830.03,-248.44 1067.53,-238.4 1176.91,-235.86"/>
<polygon fill="black" stroke="black" points="1176.9,-239.36 1186.83,-235.64 1176.75,-232.36 1176.9,-239.36"/>
</g>
<!-- account&#45;&gt;table -->
<g id="edge25" class="edge">
<title>account&#45;&gt;table</title>
<path fill="none" stroke="black" d="M586.92,-437.52C580.74,-435.37 574.17,-433.37 567.89,-432 380.11,-390.95 327.06,-424.03 136.89,-396 122.63,-393.9 107.09,-390.79 93.53,-387.8"/>
<polygon fill="black" stroke="black" points="94.69,-384.47 84.16,-385.68 93.14,-391.3 94.69,-384.47"/>
</g>
<!-- account&#45;&gt;error -->
<g id="edge27" class="edge">
<title>account&#45;&gt;error</title>
<path fill="none" stroke="black" d="M623,-432.02C636.54,-400.95 659.67,-333.94 631.89,-288 618.07,-265.14 590.76,-251.65 568.03,-244.01"/>
<polygon fill="black" stroke="black" points="569.34,-240.75 558.76,-241.16 567.28,-247.44 569.34,-240.75"/>
</g>
<!-- account&#45;&gt;event -->
<g id="edge35" class="edge">
<title>account&#45;&gt;event</title>
<path fill="none" stroke="black" d="M648.83,-441.33C689.23,-431.91 758.59,-414.85 816.89,-396 819.96,-395.01 823.13,-393.92 826.29,-392.79"/>
<polygon fill="black" stroke="black" points="827.3,-396.15 835.44,-389.37 824.85,-389.59 827.3,-396.15"/>
</g>
<!-- account&#45;&gt;vector -->
<g id="edge22" class="edge">
<title>account&#45;&gt;vector</title>
<path fill="none" stroke="black" d="M586.9,-437.59C580.73,-435.44 574.16,-433.42 567.89,-432 488.62,-414.04 260.52,-454.31 203.89,-396 102.5,-291.59 258.69,-106.97 319.97,-42.22"/>
<polygon fill="black" stroke="black" points="322.17,-44.98 326.57,-35.34 317.12,-40.13 322.17,-44.98"/>
</g>
<!-- account&#45;&gt;option -->
<g id="edge23" class="edge">
<title>account&#45;&gt;option</title>
<path fill="none" stroke="black" d="M586.89,-437.63C580.72,-435.47 574.15,-433.44 567.89,-432 494.07,-414.99 279.56,-452.33 228.89,-396 152.46,-311.02 267.87,-170.03 319.77,-114.5"/>
<polygon fill="black" stroke="black" points="322.12,-117.11 326.47,-107.44 317.04,-112.29 322.12,-117.11"/>
</g>
<!-- account&#45;&gt;bcs -->
<g id="edge30" class="edge">
<title>account&#45;&gt;bcs</title>
<path fill="none" stroke="black" d="M627.78,-432.69C635.68,-422.41 645.79,-408.72 653.89,-396 683.28,-349.87 679.32,-331.18 712.89,-288 721.94,-276.37 733.62,-265.03 744.05,-255.84"/>
<polygon fill="black" stroke="black" points="746.32,-258.51 751.65,-249.35 741.77,-253.19 746.32,-258.51"/>
</g>
<!-- account&#45;&gt;guid -->
<g id="edge33" class="edge">
<title>account&#45;&gt;guid</title>
<path fill="none" stroke="black" d="M648.45,-441.01C675.75,-433.17 714.03,-418.99 740.89,-396 760.48,-379.24 775.26,-353.71 784.53,-334.28"/>
<polygon fill="black" stroke="black" points="787.66,-335.87 788.61,-325.31 781.29,-332.97 787.66,-335.87"/>
</g>
<!-- account&#45;&gt;signer -->
<g id="edge26" class="edge">
<title>account&#45;&gt;signer</title>
<path fill="none" stroke="black" d="M611.95,-431.59C607.9,-407.61 600.55,-364.14 595.7,-335.42"/>
<polygon fill="black" stroke="black" points="599.16,-334.88 594.04,-325.6 592.25,-336.05 599.16,-334.88"/>
</g>
<!-- system_addresses -->
<g id="node16" class="node">
<title>system_addresses</title>
<ellipse fill="none" stroke="black" cx="511.89" cy="-378" rx="73.39" ry="18"/>
<text text-anchor="middle" x="511.89" y="-374.3" font-family="Times,serif" font-size="14.00">system_addresses</text>
</g>
<!-- account&#45;&gt;system_addresses -->
<g id="edge28" class="edge">
<title>account&#45;&gt;system_addresses</title>
<path fill="none" stroke="black" d="M594.05,-434.83C580,-425.28 561.15,-412.48 545.06,-401.54"/>
<polygon fill="black" stroke="black" points="547.45,-398.93 537.21,-396.2 543.51,-404.72 547.45,-398.93"/>
</g>
<!-- hash -->
<g id="node17" class="node">
<title>hash</title>
<ellipse fill="none" stroke="black" cx="333.89" cy="-234" rx="27" ry="18"/>
<text text-anchor="middle" x="333.89" y="-230.3" font-family="Times,serif" font-size="14.00">hash</text>
</g>
<!-- account&#45;&gt;hash -->
<g id="edge29" class="edge">
<title>account&#45;&gt;hash</title>
<path fill="none" stroke="black" d="M586.89,-437.65C580.71,-435.49 574.15,-433.46 567.89,-432 497.78,-415.64 293.9,-449.67 245.89,-396 206.67,-352.15 269.85,-287.77 308.09,-255.31"/>
<polygon fill="black" stroke="black" points="310.1,-258.18 315.57,-249.11 305.64,-252.79 310.1,-258.18"/>
</g>
<!-- ed25519 -->
<g id="node18" class="node">
<title>ed25519</title>
<ellipse fill="none" stroke="black" cx="423.89" cy="-306" rx="40.89" ry="18"/>
<text text-anchor="middle" x="423.89" y="-302.3" font-family="Times,serif" font-size="14.00">ed25519</text>
</g>
<!-- account&#45;&gt;ed25519 -->
<g id="edge31" class="edge">
<title>account&#45;&gt;ed25519</title>
<path fill="none" stroke="black" d="M585.7,-437.97C579.84,-435.89 573.7,-433.8 567.89,-432 507.36,-413.2 470.31,-444.83 429.89,-396 416.16,-379.4 415.58,-354.56 417.91,-335.34"/>
<polygon fill="black" stroke="black" points="421.33,-336.13 419.42,-325.71 414.42,-335.05 421.33,-336.13"/>
</g>
<!-- multi_ed25519 -->
<g id="node19" class="node">
<title>multi_ed25519</title>
<ellipse fill="none" stroke="black" cx="318.89" cy="-378" rx="64.19" ry="18"/>
<text text-anchor="middle" x="318.89" y="-374.3" font-family="Times,serif" font-size="14.00">multi_ed25519</text>
</g>
<!-- account&#45;&gt;multi_ed25519 -->
<g id="edge32" class="edge">
<title>account&#45;&gt;multi_ed25519</title>
<path fill="none" stroke="black" d="M586.02,-437.84C580.07,-435.75 573.82,-433.69 567.89,-432 493.2,-410.74 472.84,-412.27 396.89,-396 391.28,-394.8 385.44,-393.54 379.59,-392.27"/>
<polygon fill="black" stroke="black" points="380.39,-388.87 369.88,-390.17 378.91,-395.71 380.39,-388.87"/>
</g>
<!-- from_bcs -->
<g id="node20" class="node">
<title>from_bcs</title>
<ellipse fill="none" stroke="black" cx="1156.89" cy="-378" rx="44.39" ry="18"/>
<text text-anchor="middle" x="1156.89" y="-374.3" font-family="Times,serif" font-size="14.00">from_bcs</text>
</g>
<!-- account&#45;&gt;from_bcs -->
<g id="edge34" class="edge">
<title>account&#45;&gt;from_bcs</title>
<path fill="none" stroke="black" d="M653.04,-447.49C735.92,-443.65 938.29,-431.15 1103.89,-396 1107.04,-395.33 1110.26,-394.55 1113.49,-393.7"/>
<polygon fill="black" stroke="black" points="1114.28,-397.11 1122.92,-390.99 1112.35,-390.38 1114.28,-397.11"/>
</g>
<!-- timestamp&#45;&gt;error -->
<g id="edge36" class="edge">
<title>timestamp&#45;&gt;error</title>
<path fill="none" stroke="black" d="M463.2,-446.49C394.48,-441.77 272.85,-428.88 245.89,-396 235.75,-383.63 238.81,-374.35 245.89,-360 291.02,-268.59 424.43,-244.02 491.49,-237.42"/>
<polygon fill="black" stroke="black" points="491.66,-240.92 501.31,-236.55 491.04,-233.95 491.66,-240.92"/>
</g>
<!-- timestamp&#45;&gt;system_addresses -->
<g id="edge37" class="edge">
<title>timestamp&#45;&gt;system_addresses</title>
<path fill="none" stroke="black" d="M511.14,-431.7C511.25,-424.41 511.37,-415.73 511.49,-407.54"/>
<polygon fill="black" stroke="black" points="514.99,-407.67 511.63,-397.62 507.99,-407.57 514.99,-407.67"/>
</g>
<!-- property_map&#45;&gt;string -->
<g id="edge38" class="edge">
<title>property_map&#45;&gt;string</title>
<path fill="none" stroke="black" d="M1200.68,-437.23C1222.39,-429.15 1247.07,-416.15 1261.89,-396 1309.72,-330.99 1316.78,-290.56 1285.89,-216 1280.71,-203.48 1270.97,-192.38 1261.25,-183.61"/>
<polygon fill="black" stroke="black" points="1263.52,-180.95 1253.61,-177.21 1259.03,-186.32 1263.52,-180.95"/>
</g>
<!-- property_map&#45;&gt;type_info -->
<g id="edge39" class="edge">
<title>property_map&#45;&gt;type_info</title>
<path fill="none" stroke="black" d="M1194.79,-435.79C1212.77,-427.38 1232.55,-414.53 1242.89,-396 1266.22,-354.22 1253.96,-296.5 1243.22,-262.72"/>
<polygon fill="black" stroke="black" points="1246.54,-261.62 1240.03,-253.27 1239.91,-263.86 1246.54,-261.62"/>
</g>
<!-- property_map&#45;&gt;error -->
<g id="edge40" class="edge">
<title>property_map&#45;&gt;error</title>
<path fill="none" stroke="black" d="M1101.07,-442.72C1062.86,-436.16 1012.65,-422.84 975.89,-396 929.1,-361.84 952.01,-318.72 902.89,-288 874.97,-270.54 659.64,-247.65 569.93,-238.76"/>
<polygon fill="black" stroke="black" points="570.43,-235.29 560.14,-237.79 569.75,-242.26 570.43,-235.29"/>
</g>
<!-- property_map&#45;&gt;bcs -->
<g id="edge41" class="edge">
<title>property_map&#45;&gt;bcs</title>
<path fill="none" stroke="black" d="M1179.99,-432.92C1191.3,-423.6 1203.77,-410.79 1209.89,-396 1216.02,-381.22 1217.38,-374.14 1209.89,-360 1183.24,-309.67 1156.85,-308.97 1103.89,-288 1002.35,-247.79 872.04,-238.03 808.37,-235.7"/>
<polygon fill="black" stroke="black" points="808.53,-232.21 798.43,-235.39 808.31,-239.2 808.53,-232.21"/>
</g>
<!-- property_map&#45;&gt;from_bcs -->
<g id="edge42" class="edge">
<title>property_map&#45;&gt;from_bcs</title>
<path fill="none" stroke="black" d="M1156.89,-431.7C1156.89,-424.41 1156.89,-415.73 1156.89,-407.54"/>
<polygon fill="black" stroke="black" points="1160.39,-407.62 1156.89,-397.62 1153.39,-407.62 1160.39,-407.62"/>
</g>
<!-- simple_map -->
<g id="node21" class="node">
<title>simple_map</title>
<ellipse fill="none" stroke="black" cx="1039.89" cy="-378" rx="54.69" ry="18"/>
<text text-anchor="middle" x="1039.89" y="-374.3" font-family="Times,serif" font-size="14.00">simple_map</text>
</g>
<!-- property_map&#45;&gt;simple_map -->
<g id="edge43" class="edge">
<title>property_map&#45;&gt;simple_map</title>
<path fill="none" stroke="black" d="M1130.93,-433.46C1114.53,-423.65 1093.14,-410.85 1075.21,-400.13"/>
<polygon fill="black" stroke="black" points="1077.06,-397.16 1066.68,-395.03 1073.47,-403.17 1077.06,-397.16"/>
</g>
<!-- system_addresses&#45;&gt;error -->
<g id="edge45" class="edge">
<title>system_addresses&#45;&gt;error</title>
<path fill="none" stroke="black" d="M514.22,-359.59C517.43,-335.61 523.25,-292.14 527.09,-263.42"/>
<polygon fill="black" stroke="black" points="530.55,-263.99 528.4,-253.61 523.61,-263.06 530.55,-263.99"/>
</g>
<!-- system_addresses&#45;&gt;signer -->
<g id="edge44" class="edge">
<title>system_addresses&#45;&gt;signer</title>
<path fill="none" stroke="black" d="M530.62,-360.41C541.16,-351.07 554.47,-339.28 565.89,-329.15"/>
<polygon fill="black" stroke="black" points="567.89,-332.06 573.05,-322.81 563.25,-326.82 567.89,-332.06"/>
</g>
<!-- ed25519&#45;&gt;type_info -->
<g id="edge47" class="edge">
<title>ed25519&#45;&gt;type_info</title>
<path fill="none" stroke="black" d="M462.15,-299.27C487.09,-295.67 520.37,-291.13 549.89,-288 782.58,-263.3 1061.02,-245.26 1177.45,-238.23"/>
<polygon fill="black" stroke="black" points="1177.58,-241.73 1187.36,-237.64 1177.17,-234.74 1177.58,-241.73"/>
</g>
<!-- ed25519&#45;&gt;error -->
<g id="edge48" class="edge">
<title>ed25519&#45;&gt;error</title>
<path fill="none" stroke="black" d="M446.07,-290.5C462.49,-279.75 485,-265.03 502.7,-253.45"/>
<polygon fill="black" stroke="black" points="504.25,-256.61 510.7,-248.21 500.42,-250.75 504.25,-256.61"/>
</g>
<!-- ed25519&#45;&gt;option -->
<g id="edge46" class="edge">
<title>ed25519&#45;&gt;option</title>
<path fill="none" stroke="black" d="M417.4,-287.85C403.42,-250.9 370.33,-163.49 353.35,-118.62"/>
<polygon fill="black" stroke="black" points="356.65,-117.46 349.84,-109.35 350.11,-119.94 356.65,-117.46"/>
</g>
<!-- ed25519&#45;&gt;bcs -->
<g id="edge50" class="edge">
<title>ed25519&#45;&gt;bcs</title>
<path fill="none" stroke="black" d="M456,-294.37C463.47,-292.1 471.42,-289.83 478.89,-288 569,-265.95 676.85,-248.63 732.52,-240.34"/>
<polygon fill="black" stroke="black" points="732.71,-243.85 742.09,-238.93 731.69,-236.93 732.71,-243.85"/>
</g>
<!-- ed25519&#45;&gt;hash -->
<g id="edge49" class="edge">
<title>ed25519&#45;&gt;hash</title>
<path fill="none" stroke="black" d="M404.37,-289.81C391.3,-279.65 373.97,-266.17 359.77,-255.12"/>
<polygon fill="black" stroke="black" points="362.2,-252.58 352.15,-249.2 357.9,-258.1 362.2,-252.58"/>
</g>
<!-- multi_ed25519&#45;&gt;error -->
<g id="edge52" class="edge">
<title>multi_ed25519&#45;&gt;error</title>
<path fill="none" stroke="black" d="M325.31,-359.77C333.59,-339.77 349.86,-307.1 373.89,-288 408.6,-260.42 458.4,-246.84 492.56,-240.4"/>
<polygon fill="black" stroke="black" points="492.76,-243.92 502.01,-238.74 491.55,-237.02 492.76,-243.92"/>
</g>
<!-- multi_ed25519&#45;&gt;option -->
<g id="edge51" class="edge">
<title>multi_ed25519&#45;&gt;option</title>
<path fill="none" stroke="black" d="M313.31,-360.01C304.38,-330.56 288.78,-268.2 297.89,-216 303.98,-181.12 318.95,-143.13 329.96,-118.3"/>
<polygon fill="black" stroke="black" points="333.12,-119.81 334.06,-109.25 326.74,-116.91 333.12,-119.81"/>
</g>
<!-- multi_ed25519&#45;&gt;bcs -->
<g id="edge54" class="edge">
<title>multi_ed25519&#45;&gt;bcs</title>
<path fill="none" stroke="black" d="M360.81,-364.08C392.27,-354.05 436.22,-339.31 473.89,-324 508.52,-309.93 514.65,-300.44 549.89,-288 612.47,-265.91 688.24,-249.9 732.56,-241.56"/>
<polygon fill="black" stroke="black" points="732.97,-245.04 742.16,-239.78 731.69,-238.16 732.97,-245.04"/>
</g>
<!-- multi_ed25519&#45;&gt;hash -->
<g id="edge53" class="edge">
<title>multi_ed25519&#45;&gt;hash</title>
<path fill="none" stroke="black" d="M320.73,-359.59C323.27,-335.61 327.86,-292.14 330.89,-263.42"/>
<polygon fill="black" stroke="black" points="334.36,-263.93 331.93,-253.62 327.4,-263.19 334.36,-263.93"/>
</g>
<!-- multi_ed25519&#45;&gt;ed25519 -->
<g id="edge55" class="edge">
<title>multi_ed25519&#45;&gt;ed25519</title>
<path fill="none" stroke="black" d="M342.98,-360.94C357.72,-351.11 376.74,-338.43 392.64,-327.84"/>
<polygon fill="black" stroke="black" points="394.42,-330.85 400.8,-322.39 390.54,-325.03 394.42,-330.85"/>
</g>
<!-- from_bcs&#45;&gt;string -->
<g id="edge56" class="edge">
<title>from_bcs&#45;&gt;string</title>
<path fill="none" stroke="black" d="M1155.91,-359.98C1154.85,-329.43 1155.9,-263.98 1179.89,-216 1185.95,-203.88 1195.85,-192.85 1205.46,-184.03"/>
<polygon fill="black" stroke="black" points="1207.66,-186.76 1212.95,-177.57 1203.09,-181.46 1207.66,-186.76"/>
</g>
<!-- simple_map&#45;&gt;error -->
<g id="edge58" class="edge">
<title>simple_map&#45;&gt;error</title>
<path fill="none" stroke="black" d="M1022.68,-360.49C996.96,-336 950.5,-292.41 940.89,-288 907.51,-272.67 665.35,-247.97 569.65,-238.68"/>
<polygon fill="black" stroke="black" points="570.26,-235.23 559.97,-237.75 569.59,-242.19 570.26,-235.23"/>
</g>
<!-- simple_map&#45;&gt;option -->
<g id="edge57" class="edge">
<title>simple_map&#45;&gt;option</title>
<path fill="none" stroke="black" d="M1067.32,-362.17C1081.03,-353.13 1096.28,-340.19 1103.89,-324 1110.7,-309.52 1113.69,-300.65 1103.89,-288 1013.82,-171.63 535.44,-111.52 386.92,-95.46"/>
<polygon fill="black" stroke="black" points="387.41,-92 377.1,-94.42 386.67,-98.96 387.41,-92"/>
</g>
<!-- comparator -->
<g id="node22" class="node">
<title>comparator</title>
<ellipse fill="none" stroke="black" cx="1043.89" cy="-306" rx="51.19" ry="18"/>
<text text-anchor="middle" x="1043.89" y="-302.3" font-family="Times,serif" font-size="14.00">comparator</text>
</g>
<!-- simple_map&#45;&gt;comparator -->
<g id="edge59" class="edge">
<title>simple_map&#45;&gt;comparator</title>
<path fill="none" stroke="black" d="M1040.88,-359.7C1041.3,-352.41 1041.8,-343.73 1042.26,-335.54"/>
<polygon fill="black" stroke="black" points="1045.75,-335.8 1042.83,-325.62 1038.77,-335.4 1045.75,-335.8"/>
</g>
<!-- comparator&#45;&gt;bcs -->
<g id="edge60" class="edge">
<title>comparator&#45;&gt;bcs</title>
<path fill="none" stroke="black" d="M1003.69,-294.43C995.49,-292.29 986.91,-290.07 978.89,-288 918.26,-272.38 847.63,-254.55 805.96,-244.06"/>
<polygon fill="black" stroke="black" points="807.02,-240.72 796.47,-241.67 805.32,-247.51 807.02,-240.72"/>
</g>
</g>
</svg>
