<?xml version="1.0" encoding="UTF-8" standalone="no"?>
<!DOCTYPE svg PUBLIC "-//W3C//DTD SVG 1.1//EN"
 "http://www.w3.org/Graphics/SVG/1.1/DTD/svg11.dtd">
<!-- Generated by graphviz version 7.0.0 (20221023.0053)
 -->
<!-- Title: G Pages: 1 -->
<svg width="1824pt" height="592pt"
 viewBox="0.00 0.00 1824.00 592.00" xmlns="http://www.w3.org/2000/svg" xmlns:xlink="http://www.w3.org/1999/xlink">
<g id="graph0" class="graph" transform="scale(1 1) rotate(0) translate(4 588)">
<title>G</title>
<polygon fill="white" stroke="none" points="-4,4 -4,-588 1820,-588 1820,4 -4,4"/>
<g id="clust1" class="cluster">
<title>cluster_token</title>
<polygon fill="none" stroke="black" points="734,-246 734,-468 1253,-468 1253,-246 734,-246"/>
<text text-anchor="middle" x="993.5" y="-452.8" font-family="Times,serif" font-size="14.00">token</text>
</g>
<g id="clust2" class="cluster">
<title>cluster_table</title>
<polygon fill="none" stroke="black" points="8,-163 8,-321 698,-321 698,-163 8,-163"/>
<text text-anchor="middle" x="353" y="-305.8" font-family="Times,serif" font-size="14.00">table</text>
</g>
<g id="clust3" class="cluster">
<title>cluster_signer</title>
<polygon fill="none" stroke="black" points="1170,-8 1170,-155 1320,-155 1320,-8 1170,-8"/>
<text text-anchor="middle" x="1245" y="-139.8" font-family="Times,serif" font-size="14.00">signer</text>
</g>
<g id="clust4" class="cluster">
<title>cluster_error</title>
<polygon fill="none" stroke="black" points="706,-80 706,-238 980,-238 980,-80 706,-80"/>
<text text-anchor="middle" x="843" y="-222.8" font-family="Times,serif" font-size="14.00">error</text>
</g>
<g id="clust5" class="cluster">
<title>cluster_event</title>
<polygon fill="none" stroke="black" points="1520,-80 1520,-238 1808,-238 1808,-80 1520,-80"/>
<text text-anchor="middle" x="1664" y="-222.8" font-family="Times,serif" font-size="14.00">event</text>
</g>
<g id="clust6" class="cluster">
<title>cluster_string</title>
<polygon fill="none" stroke="black" points="1509,-246 1509,-321 1589,-321 1589,-246 1509,-246"/>
<text text-anchor="middle" x="1549" y="-305.8" font-family="Times,serif" font-size="14.00">string</text>
</g>
<g id="clust7" class="cluster">
<title>cluster_bcs</title>
<polygon fill="none" stroke="black" points="1416,-80 1416,-155 1512,-155 1512,-80 1416,-80"/>
<text text-anchor="middle" x="1464" y="-139.8" font-family="Times,serif" font-size="14.00">bcs</text>
</g>
<g id="clust8" class="cluster">
<title>cluster_account</title>
<polygon fill="none" stroke="black" points="1331,-163 1331,-321 1501,-321 1501,-163 1331,-163"/>
<text text-anchor="middle" x="1416" y="-305.8" font-family="Times,serif" font-size="14.00">account</text>
</g>
<g id="clust9" class="cluster">
<title>cluster_guid</title>
<polygon fill="none" stroke="black" points="1328,-80 1328,-155 1408,-155 1408,-80 1328,-80"/>
<text text-anchor="middle" x="1368" y="-139.8" font-family="Times,serif" font-size="14.00">guid</text>
</g>
<!-- claim_script -->
<g id="node1" class="node">
<title>claim_script</title>
<ellipse fill="none" stroke="black" cx="850" cy="-566" rx="54.69" ry="18"/>
<text text-anchor="middle" x="850" y="-562.3" font-family="Times,serif" font-size="14.00">claim_script</text>
</g>
<!-- token::create_token_id_raw -->
<g id="node2" class="node">
<title>token::create_token_id_raw</title>
<ellipse fill="none" stroke="black" cx="1148" cy="-419" rx="84.49" ry="18"/>
<text text-anchor="middle" x="1148" y="-415.3" font-family="Times,serif" font-size="14.00">create_token_id_raw</text>
</g>
<!-- claim_script&#45;&gt;token::create_token_id_raw -->
<g id="edge1" class="edge">
<title>claim_script&#45;&gt;token::create_token_id_raw</title>
<path fill="none" stroke="black" d="M879.66,-550.57C932.69,-524.77 1043.89,-470.66 1105.19,-440.83"/>
<polygon fill="black" stroke="black" points="1106.48,-444.09 1113.94,-436.57 1103.42,-437.8 1106.48,-444.09"/>
</g>
<!-- claim -->
<g id="node3" class="node">
<title>claim</title>
<ellipse fill="none" stroke="black" cx="821" cy="-494" rx="30.59" ry="18"/>
<text text-anchor="middle" x="821" y="-490.3" font-family="Times,serif" font-size="14.00">claim</text>
</g>
<!-- claim_script&#45;&gt;claim -->
<g id="edge2" class="edge">
<title>claim_script&#45;&gt;claim</title>
<path fill="none" stroke="black" d="M842.83,-547.7C839.62,-539.95 835.77,-530.64 832.19,-522.02"/>
<polygon fill="black" stroke="black" points="835.53,-520.92 828.47,-513.02 829.06,-523.6 835.53,-520.92"/>
</g>
<!-- token::create_token_data_id -->
<g id="node4" class="node">
<title>token::create_token_data_id</title>
<ellipse fill="none" stroke="black" cx="1159" cy="-347" rx="85.59" ry="18"/>
<text text-anchor="middle" x="1159" y="-343.3" font-family="Times,serif" font-size="14.00">create_token_data_id</text>
</g>
<!-- token::create_token_id_raw&#45;&gt;token::create_token_data_id -->
<g id="edge3" class="edge">
<title>token::create_token_id_raw&#45;&gt;token::create_token_data_id</title>
<path fill="none" stroke="black" d="M1150.72,-400.7C1151.88,-393.32 1153.26,-384.52 1154.56,-376.25"/>
<polygon fill="black" stroke="black" points="1157.98,-377.02 1156.08,-366.6 1151.07,-375.93 1157.98,-377.02"/>
</g>
<!-- table::contains -->
<g id="node5" class="node">
<title>table::contains</title>
<ellipse fill="none" stroke="black" cx="376" cy="-272" rx="40.09" ry="18"/>
<text text-anchor="middle" x="376" y="-268.3" font-family="Times,serif" font-size="14.00">contains</text>
</g>
<!-- claim&#45;&gt;table::contains -->
<g id="edge4" class="edge">
<title>claim&#45;&gt;table::contains</title>
<path fill="none" stroke="black" d="M790.2,-492.05C716.06,-489.54 531.99,-481.98 508,-468 442.53,-429.84 402.66,-344.71 385.65,-300.63"/>
<polygon fill="black" stroke="black" points="389.03,-299.67 382.25,-291.53 382.47,-302.12 389.03,-299.67"/>
</g>
<!-- table::remove -->
<g id="node6" class="node">
<title>table::remove</title>
<ellipse fill="none" stroke="black" cx="176" cy="-272" rx="37.89" ry="18"/>
<text text-anchor="middle" x="176" y="-268.3" font-family="Times,serif" font-size="14.00">remove</text>
</g>
<!-- claim&#45;&gt;table::remove -->
<g id="edge5" class="edge">
<title>claim&#45;&gt;table::remove</title>
<path fill="none" stroke="black" d="M790.08,-493.25C710.57,-493.53 500.71,-491.93 436,-468 335,-430.65 240.09,-340.61 198.32,-297.2"/>
<polygon fill="black" stroke="black" points="200.93,-294.86 191.5,-290.02 195.85,-299.69 200.93,-294.86"/>
</g>
<!-- signer::address_of -->
<g id="node7" class="node">
<title>signer::address_of</title>
<ellipse fill="none" stroke="black" cx="1263" cy="-106" rx="48.99" ry="18"/>
<text text-anchor="middle" x="1263" y="-102.3" font-family="Times,serif" font-size="14.00">address_of</text>
</g>
<!-- claim&#45;&gt;signer::address_of -->
<g id="edge6" class="edge">
<title>claim&#45;&gt;signer::address_of</title>
<path fill="none" stroke="black" d="M851.95,-493.06C945.96,-492.98 1223.86,-490.8 1257,-468 1305.18,-434.85 1311,-406.48 1311,-348 1311,-348 1311,-348 1311,-271 1311,-222.6 1313.02,-208.67 1297,-163 1293.39,-152.71 1287.71,-142.27 1282.02,-133.23"/>
<polygon fill="black" stroke="black" points="1284.99,-131.37 1276.54,-124.98 1279.16,-135.24 1284.99,-131.37"/>
</g>
<!-- error::not_found -->
<g id="node8" class="node">
<title>error::not_found</title>
<ellipse fill="none" stroke="black" cx="761" cy="-189" rx="46.59" ry="18"/>
<text text-anchor="middle" x="761" y="-185.3" font-family="Times,serif" font-size="14.00">not_found</text>
</g>
<!-- claim&#45;&gt;error::not_found -->
<g id="edge7" class="edge">
<title>claim&#45;&gt;error::not_found</title>
<path fill="none" stroke="black" d="M790.07,-492.54C720.72,-491.19 557.55,-486.1 541,-468 439.16,-356.66 670.07,-356.44 702,-321 725.82,-294.57 715.12,-278.32 730,-246 734.52,-236.17 740.09,-225.72 745.25,-216.54"/>
<polygon fill="black" stroke="black" points="748.14,-218.55 750.08,-208.13 742.07,-215.06 748.14,-218.55"/>
</g>
<!-- event::emit_event -->
<g id="node9" class="node">
<title>event::emit_event</title>
<ellipse fill="none" stroke="black" cx="1750" cy="-189" rx="50.09" ry="18"/>
<text text-anchor="middle" x="1750" y="-185.3" font-family="Times,serif" font-size="14.00">emit_event</text>
</g>
<!-- claim&#45;&gt;event::emit_event -->
<g id="edge8" class="edge">
<title>claim&#45;&gt;event::emit_event</title>
<path fill="none" stroke="black" d="M851.86,-492.93C946.94,-492.48 1234.4,-489.36 1325,-468 1483.25,-430.69 1534.72,-424.64 1660,-321 1694.88,-292.15 1722.01,-246.48 1737.01,-217.4"/>
<polygon fill="black" stroke="black" points="1740.12,-218.99 1741.47,-208.48 1733.86,-215.86 1740.12,-218.99"/>
</g>
<!-- token::deposit_token -->
<g id="node10" class="node">
<title>token::deposit_token</title>
<ellipse fill="none" stroke="black" cx="975" cy="-419" rx="59.59" ry="18"/>
<text text-anchor="middle" x="975" y="-415.3" font-family="Times,serif" font-size="14.00">deposit_token</text>
</g>
<!-- claim&#45;&gt;token::deposit_token -->
<g id="edge9" class="edge">
<title>claim&#45;&gt;token::deposit_token</title>
<path fill="none" stroke="black" d="M849.76,-487.17C866.9,-483.08 888.79,-476.77 907,-468 920.87,-461.32 934.97,-451.89 946.71,-443.15"/>
<polygon fill="black" stroke="black" points="948.56,-446.14 954.37,-437.28 944.3,-440.59 948.56,-446.14"/>
</g>
<!-- token::get_token_amount -->
<g id="node11" class="node">
<title>token::get_token_amount</title>
<ellipse fill="none" stroke="black" cx="821" cy="-419" rx="76.89" ry="18"/>
<text text-anchor="middle" x="821" y="-415.3" font-family="Times,serif" font-size="14.00">get_token_amount</text>
</g>
<!-- claim&#45;&gt;token::get_token_amount -->
<g id="edge10" class="edge">
<title>claim&#45;&gt;token::get_token_amount</title>
<path fill="none" stroke="black" d="M821,-475.7C821,-467.67 821,-457.9 821,-448.8"/>
<polygon fill="black" stroke="black" points="824.5,-448.94 821,-438.94 817.5,-448.94 824.5,-448.94"/>
</g>
<!-- create_token_offer_id -->
<g id="node12" class="node">
<title>create_token_offer_id</title>
<ellipse fill="none" stroke="black" cx="638" cy="-419" rx="88.28" ry="18"/>
<text text-anchor="middle" x="638" y="-415.3" font-family="Times,serif" font-size="14.00">create_token_offer_id</text>
</g>
<!-- claim&#45;&gt;create_token_offer_id -->
<g id="edge11" class="edge">
<title>claim&#45;&gt;create_token_offer_id</title>
<path fill="none" stroke="black" d="M792.62,-486.85C774.41,-482.5 750.43,-476.03 730,-468 711.53,-460.74 691.93,-450.84 675.58,-441.92"/>
<polygon fill="black" stroke="black" points="677.63,-439.05 667.19,-437.26 674.23,-445.17 677.63,-439.05"/>
</g>
<!-- string::length -->
<g id="node13" class="node">
<title>string::length</title>
<ellipse fill="none" stroke="black" cx="1549" cy="-272" rx="32.49" ry="18"/>
<text text-anchor="middle" x="1549" y="-268.3" font-family="Times,serif" font-size="14.00">length</text>
</g>
<!-- token::create_token_data_id&#45;&gt;string::length -->
<g id="edge12" class="edge">
<title>token::create_token_data_id&#45;&gt;string::length</title>
<path fill="none" stroke="black" d="M1244.92,-346.96C1332.23,-346.68 1460.74,-342.4 1505,-321 1515.57,-315.89 1524.81,-307.02 1532.06,-298.28"/>
<polygon fill="black" stroke="black" points="1534.64,-300.66 1537.94,-290.59 1529.09,-296.41 1534.64,-300.66"/>
</g>
<!-- error::invalid_argument -->
<g id="node14" class="node">
<title>error::invalid_argument</title>
<ellipse fill="none" stroke="black" cx="899" cy="-189" rx="73.39" ry="18"/>
<text text-anchor="middle" x="899" y="-185.3" font-family="Times,serif" font-size="14.00">invalid_argument</text>
</g>
<!-- token::create_token_data_id&#45;&gt;error::invalid_argument -->
<g id="edge13" class="edge">
<title>token::create_token_data_id&#45;&gt;error::invalid_argument</title>
<path fill="none" stroke="black" d="M1131.67,-329.6C1084.63,-301.38 988.37,-243.62 935.6,-211.96"/>
<polygon fill="black" stroke="black" points="937.64,-209.1 927.26,-206.96 934.04,-215.11 937.64,-209.1"/>
</g>
<!-- table::contains_box -->
<g id="node15" class="node">
<title>table::contains_box</title>
<ellipse fill="none" stroke="black" cx="202" cy="-189" rx="57.69" ry="18"/>
<text text-anchor="middle" x="202" y="-185.3" font-family="Times,serif" font-size="14.00">contains_box</text>
</g>
<!-- table::contains&#45;&gt;table::contains_box -->
<g id="edge14" class="edge">
<title>table::contains&#45;&gt;table::contains_box</title>
<path fill="none" stroke="black" d="M340.7,-263.17C319.3,-257.69 291.81,-249.31 269,-238 255.48,-231.29 241.73,-221.97 230.23,-213.32"/>
<polygon fill="black" stroke="black" points="232.4,-210.57 222.35,-207.21 228.11,-216.1 232.4,-210.57"/>
</g>
<!-- table::remove_box -->
<g id="node16" class="node">
<title>table::remove_box</title>
<ellipse fill="none" stroke="black" cx="71" cy="-189" rx="55.49" ry="18"/>
<text text-anchor="middle" x="71" y="-185.3" font-family="Times,serif" font-size="14.00">remove_box</text>
</g>
<!-- table::remove&#45;&gt;table::remove_box -->
<g id="edge15" class="edge">
<title>table::remove&#45;&gt;table::remove_box</title>
<path fill="none" stroke="black" d="M156.74,-256.14C141.11,-244.09 118.81,-226.88 100.86,-213.04"/>
<polygon fill="black" stroke="black" points="103.19,-210.41 93.14,-207.08 98.92,-215.96 103.19,-210.41"/>
</g>
<!-- signer::borrow_address -->
<g id="node17" class="node">
<title>signer::borrow_address</title>
<ellipse fill="none" stroke="black" cx="1245" cy="-34" rx="66.89" ry="18"/>
<text text-anchor="middle" x="1245" y="-30.3" font-family="Times,serif" font-size="14.00">borrow_address</text>
</g>
<!-- signer::address_of&#45;&gt;signer::borrow_address -->
<g id="edge16" class="edge">
<title>signer::address_of&#45;&gt;signer::borrow_address</title>
<path fill="none" stroke="black" d="M1258.55,-87.7C1256.65,-80.32 1254.39,-71.52 1252.26,-63.25"/>
<polygon fill="black" stroke="black" points="1255.66,-62.38 1249.78,-53.57 1248.88,-64.13 1255.66,-62.38"/>
</g>
<!-- error::canonical -->
<g id="node18" class="node">
<title>error::canonical</title>
<ellipse fill="none" stroke="black" cx="830" cy="-106" rx="44.39" ry="18"/>
<text text-anchor="middle" x="830" y="-102.3" font-family="Times,serif" font-size="14.00">canonical</text>
</g>
<!-- error::not_found&#45;&gt;error::canonical -->
<g id="edge17" class="edge">
<title>error::not_found&#45;&gt;error::canonical</title>
<path fill="none" stroke="black" d="M774.96,-171.61C784.69,-160.19 797.84,-144.75 808.85,-131.83"/>
<polygon fill="black" stroke="black" points="811.26,-134.4 815.08,-124.52 805.93,-129.86 811.26,-134.4"/>
</g>
<!-- bcs::to_bytes -->
<g id="node19" class="node">
<title>bcs::to_bytes</title>
<ellipse fill="none" stroke="black" cx="1464" cy="-106" rx="40.09" ry="18"/>
<text text-anchor="middle" x="1464" y="-102.3" font-family="Times,serif" font-size="14.00">to_bytes</text>
</g>
<!-- event::emit_event&#45;&gt;bcs::to_bytes -->
<g id="edge18" class="edge">
<title>event::emit_event&#45;&gt;bcs::to_bytes</title>
<path fill="none" stroke="black" d="M1721.87,-173.68C1712.32,-169.47 1701.41,-165.36 1691,-163 1653.04,-154.38 1551.92,-170 1516,-155 1503.97,-149.98 1492.98,-140.87 1484.24,-131.93"/>
<polygon fill="black" stroke="black" points="1486.93,-129.69 1477.6,-124.67 1481.76,-134.41 1486.93,-129.69"/>
</g>
<!-- event::write_to_event_store -->
<g id="node20" class="node">
<title>event::write_to_event_store</title>
<ellipse fill="none" stroke="black" cx="1715" cy="-106" rx="85.29" ry="18"/>
<text text-anchor="middle" x="1715" y="-102.3" font-family="Times,serif" font-size="14.00">write_to_event_store</text>
</g>
<!-- event::emit_event&#45;&gt;event::write_to_event_store -->
<g id="edge19" class="edge">
<title>event::emit_event&#45;&gt;event::write_to_event_store</title>
<path fill="none" stroke="black" d="M1742.58,-170.82C1738.03,-160.3 1732.11,-146.59 1726.91,-134.57"/>
<polygon fill="black" stroke="black" points="1730.19,-133.33 1723.01,-125.54 1723.77,-136.11 1730.19,-133.33"/>
</g>
<!-- token::deposit_token&#45;&gt;signer::address_of -->
<g id="edge20" class="edge">
<title>token::deposit_token&#45;&gt;signer::address_of</title>
<path fill="none" stroke="black" d="M1022.33,-407.69C1033.06,-405.43 1044.41,-403.08 1055,-401 1099.1,-392.33 1224.59,-398.98 1254,-365 1310.3,-299.94 1287.22,-187.36 1272.16,-135.13"/>
<polygon fill="black" stroke="black" points="1275.58,-134.37 1269.35,-125.81 1268.88,-136.39 1275.58,-134.37"/>
</g>
<!-- token::direct_deposit -->
<g id="node21" class="node">
<title>token::direct_deposit</title>
<ellipse fill="none" stroke="black" cx="802" cy="-347" rx="60.39" ry="18"/>
<text text-anchor="middle" x="802" y="-343.3" font-family="Times,serif" font-size="14.00">direct_deposit</text>
</g>
<!-- token::deposit_token&#45;&gt;token::direct_deposit -->
<g id="edge21" class="edge">
<title>token::deposit_token&#45;&gt;token::direct_deposit</title>
<path fill="none" stroke="black" d="M940.41,-404C913.62,-393.16 876.3,-378.06 847.16,-366.27"/>
<polygon fill="black" stroke="black" points="848.82,-363.17 838.23,-362.66 846.19,-369.66 848.82,-363.17"/>
</g>
<!-- token::initialize_token_store -->
<g id="node22" class="node">
<title>token::initialize_token_store</title>
<ellipse fill="none" stroke="black" cx="968" cy="-347" rx="87.18" ry="18"/>
<text text-anchor="middle" x="968" y="-343.3" font-family="Times,serif" font-size="14.00">initialize_token_store</text>
</g>
<!-- token::deposit_token&#45;&gt;token::initialize_token_store -->
<g id="edge22" class="edge">
<title>token::deposit_token&#45;&gt;token::initialize_token_store</title>
<path fill="none" stroke="black" d="M973.27,-400.7C972.54,-393.41 971.67,-384.73 970.85,-376.54"/>
<polygon fill="black" stroke="black" points="974.34,-376.21 969.86,-366.61 967.37,-376.91 974.34,-376.21"/>
</g>
<!-- error::invalid_argument&#45;&gt;error::canonical -->
<g id="edge23" class="edge">
<title>error::invalid_argument&#45;&gt;error::canonical</title>
<path fill="none" stroke="black" d="M884.7,-171.22C875.11,-159.96 862.3,-144.92 851.49,-132.22"/>
<polygon fill="black" stroke="black" points="854.17,-129.98 845.02,-124.64 848.84,-134.52 854.17,-129.98"/>
</g>
<!-- token::direct_deposit&#45;&gt;table::contains -->
<g id="edge24" class="edge">
<title>token::direct_deposit&#45;&gt;table::contains</title>
<path fill="none" stroke="black" d="M741.89,-344.3C642.76,-341.15 453.1,-333.57 425,-321 413.59,-315.89 403.29,-306.9 395.12,-298.07"/>
<polygon fill="black" stroke="black" points="397.86,-295.88 388.68,-290.59 392.55,-300.45 397.86,-295.88"/>
</g>
<!-- token::direct_deposit&#45;&gt;error::not_found -->
<g id="edge28" class="edge">
<title>token::direct_deposit&#45;&gt;error::not_found</title>
<path fill="none" stroke="black" d="M820.2,-329.41C822.15,-326.79 823.84,-323.97 825,-321 837.11,-289.95 838.77,-276.35 825,-246 823.94,-243.67 805.22,-227.4 788.29,-213"/>
<polygon fill="black" stroke="black" points="790.75,-210.5 780.86,-206.7 786.23,-215.83 790.75,-210.5"/>
</g>
<!-- token::direct_deposit&#45;&gt;event::emit_event -->
<g id="edge29" class="edge">
<title>token::direct_deposit&#45;&gt;event::emit_event</title>
<path fill="none" stroke="black" d="M845.03,-333.93C853.88,-331.9 863.19,-330.1 872,-329 911.75,-324.02 1555.42,-334.86 1593,-321 1650.9,-299.65 1702.56,-246.89 1729.76,-215.22"/>
<polygon fill="black" stroke="black" points="1732.35,-217.58 1736.11,-207.67 1726.99,-213.07 1732.35,-217.58"/>
</g>
<!-- token::direct_deposit&#45;&gt;error::invalid_argument -->
<g id="edge27" class="edge">
<title>token::direct_deposit&#45;&gt;error::invalid_argument</title>
<path fill="none" stroke="black" d="M832.29,-331.23C836.58,-328.26 840.66,-324.84 844,-321 870.17,-290.9 885.23,-246.55 892.77,-217.97"/>
<polygon fill="black" stroke="black" points="896.08,-219.15 895.1,-208.6 889.29,-217.46 896.08,-219.15"/>
</g>
<!-- table::borrow_mut -->
<g id="node23" class="node">
<title>table::borrow_mut</title>
<ellipse fill="none" stroke="black" cx="561" cy="-272" rx="54.69" ry="18"/>
<text text-anchor="middle" x="561" y="-268.3" font-family="Times,serif" font-size="14.00">borrow_mut</text>
</g>
<!-- token::direct_deposit&#45;&gt;table::borrow_mut -->
<g id="edge25" class="edge">
<title>token::direct_deposit&#45;&gt;table::borrow_mut</title>
<path fill="none" stroke="black" d="M741.85,-344.94C706.65,-342.52 662,-336.29 625,-321 611.16,-315.28 597.63,-305.87 586.6,-296.88"/>
<polygon fill="black" stroke="black" points="589,-294.33 579.12,-290.51 584.46,-299.66 589,-294.33"/>
</g>
<!-- table::add -->
<g id="node24" class="node">
<title>table::add</title>
<ellipse fill="none" stroke="black" cx="461" cy="-272" rx="27" ry="18"/>
<text text-anchor="middle" x="461" y="-268.3" font-family="Times,serif" font-size="14.00">add</text>
</g>
<!-- token::direct_deposit&#45;&gt;table::add -->
<g id="edge26" class="edge">
<title>token::direct_deposit&#45;&gt;table::add</title>
<path fill="none" stroke="black" d="M741.28,-346.83C664.55,-346.88 537.58,-343.41 497,-321 487.82,-315.93 480.3,-307.43 474.55,-298.98"/>
<polygon fill="black" stroke="black" points="477.61,-297.28 469.4,-290.58 471.64,-300.94 477.61,-297.28"/>
</g>
<!-- token::merge -->
<g id="node25" class="node">
<title>token::merge</title>
<ellipse fill="none" stroke="black" cx="783" cy="-272" rx="33.29" ry="18"/>
<text text-anchor="middle" x="783" y="-268.3" font-family="Times,serif" font-size="14.00">merge</text>
</g>
<!-- token::direct_deposit&#45;&gt;token::merge -->
<g id="edge30" class="edge">
<title>token::direct_deposit&#45;&gt;token::merge</title>
<path fill="none" stroke="black" d="M797.5,-328.7C795.37,-320.52 792.77,-310.54 790.36,-301.29"/>
<polygon fill="black" stroke="black" points="793.76,-300.44 787.85,-291.64 786.98,-302.2 793.76,-300.44"/>
</g>
<!-- token::initialize_token_store&#45;&gt;signer::address_of -->
<g id="edge32" class="edge">
<title>token::initialize_token_store&#45;&gt;signer::address_of</title>
<path fill="none" stroke="black" d="M988.74,-329.19C1040.53,-287.24 1175.57,-177.83 1234.64,-129.98"/>
<polygon fill="black" stroke="black" points="1236.7,-132.81 1242.27,-123.8 1232.3,-127.37 1236.7,-132.81"/>
</g>
<!-- table::new -->
<g id="node26" class="node">
<title>table::new</title>
<ellipse fill="none" stroke="black" cx="661" cy="-272" rx="27" ry="18"/>
<text text-anchor="middle" x="661" y="-268.3" font-family="Times,serif" font-size="14.00">new</text>
</g>
<!-- token::initialize_token_store&#45;&gt;table::new -->
<g id="edge31" class="edge">
<title>token::initialize_token_store&#45;&gt;table::new</title>
<path fill="none" stroke="black" d="M905.8,-333.99C894.27,-332.08 882.29,-330.31 871,-329 839.82,-325.4 759.67,-331.24 730,-321 713.51,-315.31 697.38,-304.47 684.86,-294.53"/>
<polygon fill="black" stroke="black" points="687.14,-291.87 677.21,-288.17 682.67,-297.25 687.14,-291.87"/>
</g>
<!-- account::new_event_handle -->
<g id="node27" class="node">
<title>account::new_event_handle</title>
<ellipse fill="none" stroke="black" cx="1416" cy="-272" rx="76.89" ry="18"/>
<text text-anchor="middle" x="1416" y="-268.3" font-family="Times,serif" font-size="14.00">new_event_handle</text>
</g>
<!-- token::initialize_token_store&#45;&gt;account::new_event_handle -->
<g id="edge33" class="edge">
<title>token::initialize_token_store&#45;&gt;account::new_event_handle</title>
<path fill="none" stroke="black" d="M1029.54,-333.85C1040.96,-331.95 1052.81,-330.22 1064,-329 1149.35,-319.72 1172.35,-335.3 1257,-321 1294.39,-314.69 1335.32,-302.19 1366.29,-291.54"/>
<polygon fill="black" stroke="black" points="1367.09,-294.96 1375.37,-288.36 1364.78,-288.36 1367.09,-294.96"/>
</g>
<!-- table::borrow_box_mut -->
<g id="node28" class="node">
<title>table::borrow_box_mut</title>
<ellipse fill="none" stroke="black" cx="450" cy="-189" rx="72.29" ry="18"/>
<text text-anchor="middle" x="450" y="-185.3" font-family="Times,serif" font-size="14.00">borrow_box_mut</text>
</g>
<!-- table::borrow_mut&#45;&gt;table::borrow_box_mut -->
<g id="edge34" class="edge">
<title>table::borrow_mut&#45;&gt;table::borrow_box_mut</title>
<path fill="none" stroke="black" d="M539.33,-255.19C522.89,-243.19 500.05,-226.52 481.58,-213.04"/>
<polygon fill="black" stroke="black" points="483.74,-210.28 473.59,-207.22 479.61,-215.94 483.74,-210.28"/>
</g>
<!-- table::add_box -->
<g id="node29" class="node">
<title>table::add_box</title>
<ellipse fill="none" stroke="black" cx="319" cy="-189" rx="40.89" ry="18"/>
<text text-anchor="middle" x="319" y="-185.3" font-family="Times,serif" font-size="14.00">add_box</text>
</g>
<!-- table::add&#45;&gt;table::add_box -->
<g id="edge35" class="edge">
<title>table::add&#45;&gt;table::add_box</title>
<path fill="none" stroke="black" d="M444.72,-257.3C438.84,-253.03 431.94,-248.73 425,-246 401.6,-236.8 391.6,-249.01 369,-238 357.8,-232.54 347.49,-223.65 339.17,-215"/>
<polygon fill="black" stroke="black" points="341.87,-212.76 332.57,-207.68 336.67,-217.45 341.87,-212.76"/>
</g>
<!-- token::merge&#45;&gt;error::invalid_argument -->
<g id="edge36" class="edge">
<title>token::merge&#45;&gt;error::invalid_argument</title>
<path fill="none" stroke="black" d="M802.94,-257.08C820.39,-244.89 846.06,-226.96 866.48,-212.71"/>
<polygon fill="black" stroke="black" points="868.29,-215.71 874.49,-207.12 864.29,-209.97 868.29,-215.71"/>
</g>
<!-- table::new_table_handle -->
<g id="node30" class="node">
<title>table::new_table_handle</title>
<ellipse fill="none" stroke="black" cx="615" cy="-189" rx="74.99" ry="18"/>
<text text-anchor="middle" x="615" y="-185.3" font-family="Times,serif" font-size="14.00">new_table_handle</text>
</g>
<!-- table::new&#45;&gt;table::new_table_handle -->
<g id="edge37" class="edge">
<title>table::new&#45;&gt;table::new_table_handle</title>
<path fill="none" stroke="black" d="M651.69,-254.61C645.58,-243.85 637.44,-229.51 630.38,-217.08"/>
<polygon fill="black" stroke="black" points="633.5,-215.49 625.52,-208.52 627.41,-218.95 633.5,-215.49"/>
</g>
<!-- event::new_event_handle -->
<g id="node31" class="node">
<title>event::new_event_handle</title>
<ellipse fill="none" stroke="black" cx="1605" cy="-189" rx="76.89" ry="18"/>
<text text-anchor="middle" x="1605" y="-185.3" font-family="Times,serif" font-size="14.00">new_event_handle</text>
</g>
<!-- account::new_event_handle&#45;&gt;event::new_event_handle -->
<g id="edge38" class="edge">
<title>account::new_event_handle&#45;&gt;event::new_event_handle</title>
<path fill="none" stroke="black" d="M1457.52,-256.51C1472.59,-251.01 1489.68,-244.5 1505,-238 1524.56,-229.7 1545.84,-219.64 1563.72,-210.87"/>
<polygon fill="black" stroke="black" points="1565.04,-214.12 1572.46,-206.56 1561.94,-207.85 1565.04,-214.12"/>
</g>
<!-- account::create_guid -->
<g id="node32" class="node">
<title>account::create_guid</title>
<ellipse fill="none" stroke="black" cx="1391" cy="-189" rx="51.99" ry="18"/>
<text text-anchor="middle" x="1391" y="-185.3" font-family="Times,serif" font-size="14.00">create_guid</text>
</g>
<!-- account::new_event_handle&#45;&gt;account::create_guid -->
<g id="edge39" class="edge">
<title>account::new_event_handle&#45;&gt;account::create_guid</title>
<path fill="none" stroke="black" d="M1410.7,-253.82C1407.48,-243.41 1403.3,-229.87 1399.62,-217.94"/>
<polygon fill="black" stroke="black" points="1403.03,-217.12 1396.74,-208.6 1396.35,-219.19 1403.03,-217.12"/>
</g>
<!-- account::create_guid&#45;&gt;signer::address_of -->
<g id="edge40" class="edge">
<title>account::create_guid&#45;&gt;signer::address_of</title>
<path fill="none" stroke="black" d="M1359.58,-174.2C1348.1,-168.72 1335.19,-162.05 1324,-155 1312.39,-147.69 1300.36,-138.6 1290.09,-130.3"/>
<polygon fill="black" stroke="black" points="1292.32,-127.6 1282.38,-123.94 1287.87,-133 1292.32,-127.6"/>
</g>
<!-- guid::create -->
<g id="node33" class="node">
<title>guid::create</title>
<ellipse fill="none" stroke="black" cx="1368" cy="-106" rx="31.7" ry="18"/>
<text text-anchor="middle" x="1368" y="-102.3" font-family="Times,serif" font-size="14.00">create</text>
</g>
<!-- account::create_guid&#45;&gt;guid::create -->
<g id="edge41" class="edge">
<title>account::create_guid&#45;&gt;guid::create</title>
<path fill="none" stroke="black" d="M1386.12,-170.82C1383.16,-160.41 1379.32,-146.87 1375.93,-134.94"/>
<polygon fill="black" stroke="black" points="1379.38,-134.27 1373.28,-125.61 1372.65,-136.19 1379.38,-134.27"/>
</g>
</g>
</svg>
