<?xml version="1.0" encoding="UTF-8" standalone="no"?>
<!DOCTYPE svg PUBLIC "-//W3C//DTD SVG 1.1//EN"
 "http://www.w3.org/Graphics/SVG/1.1/DTD/svg11.dtd">
<!-- Generated by graphviz version 7.0.0 (20221023.0053)
 -->
<!-- Title: G Pages: 1 -->
<svg width="400pt" height="279pt"
 viewBox="0.00 0.00 400.00 279.00" xmlns="http://www.w3.org/2000/svg" xmlns:xlink="http://www.w3.org/1999/xlink">
<g id="graph0" class="graph" transform="scale(1 1) rotate(0) translate(4 275)">
<title>G</title>
<polygon fill="white" stroke="none" points="-4,4 -4,-275 396,-275 396,4 -4,4"/>
<g id="clust1" class="cluster">
<title>cluster_table</title>
<polygon fill="none" stroke="black" points="8,-8 8,-155 266,-155 266,-8 8,-8"/>
<text text-anchor="middle" x="137" y="-139.8" font-family="Times,serif" font-size="14.00">table</text>
</g>
<g id="clust2" class="cluster">
<title>cluster_error</title>
<polygon fill="none" stroke="black" points="274,-8 274,-155 384,-155 384,-8 274,-8"/>
<text text-anchor="middle" x="329" y="-139.8" font-family="Times,serif" font-size="14.00">error</text>
</g>
<!-- get_royalty -->
<g id="node1" class="node">
<title>get_royalty</title>
<ellipse fill="none" stroke="black" cx="200" cy="-253" rx="50.89" ry="18"/>
<text text-anchor="middle" x="200" y="-249.3" font-family="Times,serif" font-size="14.00">get_royalty</text>
</g>
<!-- get_tokendata_royalty -->
<g id="node2" class="node">
<title>get_tokendata_royalty</title>
<ellipse fill="none" stroke="black" cx="200" cy="-181" rx="89.08" ry="18"/>
<text text-anchor="middle" x="200" y="-177.3" font-family="Times,serif" font-size="14.00">get_tokendata_royalty</text>
</g>
<!-- get_royalty&#45;&gt;get_tokendata_royalty -->
<g id="edge1" class="edge">
<title>get_royalty&#45;&gt;get_tokendata_royalty</title>
<path fill="none" stroke="black" d="M200,-234.7C200,-227.41 200,-218.73 200,-210.54"/>
<polygon fill="black" stroke="black" points="203.5,-210.62 200,-200.62 196.5,-210.62 203.5,-210.62"/>
</g>
<!-- table::contains -->
<g id="node3" class="node">
<title>table::contains</title>
<ellipse fill="none" stroke="black" cx="200" cy="-106" rx="40.09" ry="18"/>
<text text-anchor="middle" x="200" y="-102.3" font-family="Times,serif" font-size="14.00">contains</text>
</g>
<!-- get_tokendata_royalty&#45;&gt;table::contains -->
<g id="edge2" class="edge">
<title>get_tokendata_royalty&#45;&gt;table::contains</title>
<path fill="none" stroke="black" d="M200,-162.7C200,-154.67 200,-144.9 200,-135.8"/>
<polygon fill="black" stroke="black" points="203.5,-135.94 200,-125.94 196.5,-135.94 203.5,-135.94"/>
</g>
<!-- table::borrow -->
<g id="node4" class="node">
<title>table::borrow</title>
<ellipse fill="none" stroke="black" cx="87" cy="-106" rx="36.29" ry="18"/>
<text text-anchor="middle" x="87" y="-102.3" font-family="Times,serif" font-size="14.00">borrow</text>
</g>
<!-- get_tokendata_royalty&#45;&gt;table::borrow -->
<g id="edge3" class="edge">
<title>get_tokendata_royalty&#45;&gt;table::borrow</title>
<path fill="none" stroke="black" d="M166.62,-163.95C161.31,-161.12 155.94,-158.08 151,-155 138.39,-147.13 125.13,-137.45 113.98,-128.85"/>
<polygon fill="black" stroke="black" points="116.39,-126.29 106.36,-122.88 112.07,-131.8 116.39,-126.29"/>
</g>
<!-- error::not_found -->
<g id="node5" class="node">
<title>error::not_found</title>
<ellipse fill="none" stroke="black" cx="329" cy="-106" rx="46.59" ry="18"/>
<text text-anchor="middle" x="329" y="-102.3" font-family="Times,serif" font-size="14.00">not_found</text>
</g>
<!-- get_tokendata_royalty&#45;&gt;error::not_found -->
<g id="edge4" class="edge">
<title>get_tokendata_royalty&#45;&gt;error::not_found</title>
<path fill="none" stroke="black" d="M247.66,-165.45C255.33,-162.42 263.03,-158.93 270,-155 281.89,-148.3 293.8,-139.19 303.77,-130.7"/>
<polygon fill="black" stroke="black" points="306,-133.4 311.19,-124.17 301.37,-128.15 306,-133.4"/>
</g>
<!-- table::contains_box -->
<g id="node6" class="node">
<title>table::contains_box</title>
<ellipse fill="none" stroke="black" cx="200" cy="-34" rx="57.69" ry="18"/>
<text text-anchor="middle" x="200" y="-30.3" font-family="Times,serif" font-size="14.00">contains_box</text>
</g>
<!-- table::contains&#45;&gt;table::contains_box -->
<g id="edge5" class="edge">
<title>table::contains&#45;&gt;table::contains_box</title>
<path fill="none" stroke="black" d="M200,-87.7C200,-80.41 200,-71.73 200,-63.54"/>
<polygon fill="black" stroke="black" points="203.5,-63.62 200,-53.62 196.5,-63.62 203.5,-63.62"/>
</g>
<!-- table::borrow_box -->
<g id="node7" class="node">
<title>table::borrow_box</title>
<ellipse fill="none" stroke="black" cx="70" cy="-34" rx="53.89" ry="18"/>
<text text-anchor="middle" x="70" y="-30.3" font-family="Times,serif" font-size="14.00">borrow_box</text>
</g>
<!-- table::borrow&#45;&gt;table::borrow_box -->
<g id="edge6" class="edge">
<title>table::borrow&#45;&gt;table::borrow_box</title>
<path fill="none" stroke="black" d="M82.8,-87.7C81.01,-80.32 78.87,-71.52 76.86,-63.25"/>
<polygon fill="black" stroke="black" points="80.27,-62.47 74.51,-53.58 73.47,-64.12 80.27,-62.47"/>
</g>
<!-- error::canonical -->
<g id="node8" class="node">
<title>error::canonical</title>
<ellipse fill="none" stroke="black" cx="329" cy="-34" rx="44.39" ry="18"/>
<text text-anchor="middle" x="329" y="-30.3" font-family="Times,serif" font-size="14.00">canonical</text>
</g>
<!-- error::not_found&#45;&gt;error::canonical -->
<g id="edge7" class="edge">
<title>error::not_found&#45;&gt;error::canonical</title>
<path fill="none" stroke="black" d="M329,-87.7C329,-80.41 329,-71.73 329,-63.54"/>
<polygon fill="black" stroke="black" points="332.5,-63.62 329,-53.62 325.5,-63.62 332.5,-63.62"/>
</g>
</g>
</svg>
