<?xml version="1.0" encoding="UTF-8" standalone="no"?>
<!DOCTYPE svg PUBLIC "-//W3C//DTD SVG 1.1//EN"
 "http://www.w3.org/Graphics/SVG/1.1/DTD/svg11.dtd">
<!-- Generated by graphviz version 7.0.0 (20221023.0053)
 -->
<!-- Title: G Pages: 1 -->
<svg width="1716pt" height="603pt"
 viewBox="0.00 0.00 1715.79 603.00" xmlns="http://www.w3.org/2000/svg" xmlns:xlink="http://www.w3.org/1999/xlink">
<g id="graph0" class="graph" transform="scale(1 1) rotate(0) translate(4 599)">
<title>G</title>
<polygon fill="white" stroke="none" points="-4,4 -4,-599 1711.79,-599 1711.79,4 -4,4"/>
<g id="clust1" class="cluster">
<title>cluster_signer</title>
<polygon fill="none" stroke="black" points="1549.79,-8 1549.79,-155 1699.79,-155 1699.79,-8 1549.79,-8"/>
<text text-anchor="middle" x="1624.79" y="-139.8" font-family="Times,serif" font-size="14.00">signer</text>
</g>
<g id="clust2" class="cluster">
<title>cluster_error</title>
<polygon fill="none" stroke="black" points="36.79,-80 36.79,-238 483.79,-238 483.79,-80 36.79,-80"/>
<text text-anchor="middle" x="260.29" y="-222.8" font-family="Times,serif" font-size="14.00">error</text>
</g>
<g id="clust3" class="cluster">
<title>cluster_string</title>
<polygon fill="none" stroke="black" points="99.79,-404 99.79,-479 179.79,-479 179.79,-404 99.79,-404"/>
<text text-anchor="middle" x="139.79" y="-463.8" font-family="Times,serif" font-size="14.00">string</text>
</g>
<g id="clust4" class="cluster">
<title>cluster_table</title>
<polygon fill="none" stroke="black" points="491.79,-163 491.79,-313 1053.79,-313 1053.79,-163 491.79,-163"/>
<text text-anchor="middle" x="772.79" y="-297.8" font-family="Times,serif" font-size="14.00">table</text>
</g>
<g id="clust5" class="cluster">
<title>cluster_event</title>
<polygon fill="none" stroke="black" points="1061.79,-80 1061.79,-238 1349.79,-238 1349.79,-80 1061.79,-80"/>
<text text-anchor="middle" x="1205.79" y="-222.8" font-family="Times,serif" font-size="14.00">event</text>
</g>
<g id="clust6" class="cluster">
<title>cluster_property_map</title>
<polygon fill="none" stroke="black" points="460.79,-404 460.79,-479 553.79,-479 553.79,-404 460.79,-404"/>
<text text-anchor="middle" x="507.29" y="-463.8" font-family="Times,serif" font-size="14.00">property_map</text>
</g>
<g id="clust7" class="cluster">
<title>cluster_bcs</title>
<polygon fill="none" stroke="black" points="1357.79,-80 1357.79,-155 1453.79,-155 1453.79,-80 1357.79,-80"/>
<text text-anchor="middle" x="1405.79" y="-139.8" font-family="Times,serif" font-size="14.00">bcs</text>
</g>
<g id="clust8" class="cluster">
<title>cluster_simple_map</title>
<polygon fill="none" stroke="black" points="468.79,-321 468.79,-396 552.79,-396 552.79,-321 468.79,-321"/>
<text text-anchor="middle" x="510.79" y="-380.8" font-family="Times,serif" font-size="14.00">simple_map</text>
</g>
<g id="clust9" class="cluster">
<title>cluster_account</title>
<polygon fill="none" stroke="black" points="1357.79,-163 1357.79,-313 1527.79,-313 1527.79,-163 1357.79,-163"/>
<text text-anchor="middle" x="1442.79" y="-297.8" font-family="Times,serif" font-size="14.00">account</text>
</g>
<g id="clust10" class="cluster">
<title>cluster_guid</title>
<polygon fill="none" stroke="black" points="1461.79,-80 1461.79,-155 1541.79,-155 1541.79,-80 1461.79,-80"/>
<text text-anchor="middle" x="1501.79" y="-139.8" font-family="Times,serif" font-size="14.00">guid</text>
</g>
<!-- mint_script -->
<g id="node1" class="node">
<title>mint_script</title>
<ellipse fill="none" stroke="black" cx="392.79" cy="-577" rx="51.19" ry="18"/>
<text text-anchor="middle" x="392.79" y="-573.3" font-family="Times,serif" font-size="14.00">mint_script</text>
</g>
<!-- signer::address_of -->
<g id="node2" class="node">
<title>signer::address_of</title>
<ellipse fill="none" stroke="black" cx="1614.79" cy="-106" rx="48.99" ry="18"/>
<text text-anchor="middle" x="1614.79" y="-102.3" font-family="Times,serif" font-size="14.00">address_of</text>
</g>
<!-- mint_script&#45;&gt;signer::address_of -->
<g id="edge1" class="edge">
<title>mint_script&#45;&gt;signer::address_of</title>
<path fill="none" stroke="black" d="M444.18,-575.28C670.48,-571.69 1571.55,-552.83 1671.79,-479 1690.27,-465.39 1690.79,-453.94 1690.79,-431 1690.79,-431 1690.79,-431 1690.79,-263 1690.79,-212.71 1658.48,-161.67 1635.99,-132.25"/>
<polygon fill="black" stroke="black" points="1638.96,-130.36 1630.02,-124.67 1633.46,-134.69 1638.96,-130.36"/>
</g>
<!-- error::permission_denied -->
<g id="node3" class="node">
<title>error::permission_denied</title>
<ellipse fill="none" stroke="black" cx="121.79" cy="-189" rx="77.19" ry="18"/>
<text text-anchor="middle" x="121.79" y="-185.3" font-family="Times,serif" font-size="14.00">permission_denied</text>
</g>
<!-- mint_script&#45;&gt;error::permission_denied -->
<g id="edge2" class="edge">
<title>mint_script&#45;&gt;error::permission_denied</title>
<path fill="none" stroke="black" d="M368,-560.86C340.43,-543.29 295.46,-512.43 262.79,-479 201.45,-416.22 189.73,-393.95 155.79,-313 142.63,-281.6 133.02,-243.58 127.44,-218.2"/>
<polygon fill="black" stroke="black" points="130.91,-217.7 125.41,-208.65 124.06,-219.16 130.91,-217.7"/>
</g>
<!-- create_token_data_id -->
<g id="node4" class="node">
<title>create_token_data_id</title>
<ellipse fill="none" stroke="black" cx="85.79" cy="-505" rx="85.59" ry="18"/>
<text text-anchor="middle" x="85.79" y="-501.3" font-family="Times,serif" font-size="14.00">create_token_data_id</text>
</g>
<!-- mint_script&#45;&gt;create_token_data_id -->
<g id="edge3" class="edge">
<title>mint_script&#45;&gt;create_token_data_id</title>
<path fill="none" stroke="black" d="M350.75,-566.41C299.89,-554.82 213.6,-535.14 153.37,-521.41"/>
<polygon fill="black" stroke="black" points="154.44,-518.06 143.91,-519.25 152.88,-524.89 154.44,-518.06"/>
</g>
<!-- mint_token -->
<g id="node5" class="node">
<title>mint_token</title>
<ellipse fill="none" stroke="black" cx="572.79" cy="-505" rx="51.19" ry="18"/>
<text text-anchor="middle" x="572.79" y="-501.3" font-family="Times,serif" font-size="14.00">mint_token</text>
</g>
<!-- mint_script&#45;&gt;mint_token -->
<g id="edge4" class="edge">
<title>mint_script&#45;&gt;mint_token</title>
<path fill="none" stroke="black" d="M426.23,-563C455.06,-551.79 496.91,-535.51 528.52,-523.22"/>
<polygon fill="black" stroke="black" points="529.77,-526.49 537.82,-519.6 527.23,-519.96 529.77,-526.49"/>
</g>
<!-- signer::borrow_address -->
<g id="node6" class="node">
<title>signer::borrow_address</title>
<ellipse fill="none" stroke="black" cx="1624.79" cy="-34" rx="66.89" ry="18"/>
<text text-anchor="middle" x="1624.79" y="-30.3" font-family="Times,serif" font-size="14.00">borrow_address</text>
</g>
<!-- signer::address_of&#45;&gt;signer::borrow_address -->
<g id="edge5" class="edge">
<title>signer::address_of&#45;&gt;signer::borrow_address</title>
<path fill="none" stroke="black" d="M1617.26,-87.7C1618.32,-80.32 1619.57,-71.52 1620.76,-63.25"/>
<polygon fill="black" stroke="black" points="1624.19,-64 1622.13,-53.6 1617.26,-63.01 1624.19,-64"/>
</g>
<!-- error::canonical -->
<g id="node7" class="node">
<title>error::canonical</title>
<ellipse fill="none" stroke="black" cx="290.79" cy="-106" rx="44.39" ry="18"/>
<text text-anchor="middle" x="290.79" y="-102.3" font-family="Times,serif" font-size="14.00">canonical</text>
</g>
<!-- error::permission_denied&#45;&gt;error::canonical -->
<g id="edge6" class="edge">
<title>error::permission_denied&#45;&gt;error::canonical</title>
<path fill="none" stroke="black" d="M154.38,-172.38C182.4,-158.95 222.85,-139.56 252.43,-125.39"/>
<polygon fill="black" stroke="black" points="253.92,-128.55 261.43,-121.08 250.9,-122.24 253.92,-128.55"/>
</g>
<!-- string::length -->
<g id="node8" class="node">
<title>string::length</title>
<ellipse fill="none" stroke="black" cx="139.79" cy="-430" rx="32.49" ry="18"/>
<text text-anchor="middle" x="139.79" y="-426.3" font-family="Times,serif" font-size="14.00">length</text>
</g>
<!-- create_token_data_id&#45;&gt;string::length -->
<g id="edge7" class="edge">
<title>create_token_data_id&#45;&gt;string::length</title>
<path fill="none" stroke="black" d="M98.32,-487.07C105.07,-477.94 113.54,-466.49 121.06,-456.33"/>
<polygon fill="black" stroke="black" points="123.86,-458.43 126.99,-448.3 118.23,-454.26 123.86,-458.43"/>
</g>
<!-- error::invalid_argument -->
<g id="node9" class="node">
<title>error::invalid_argument</title>
<ellipse fill="none" stroke="black" cx="290.79" cy="-189" rx="73.39" ry="18"/>
<text text-anchor="middle" x="290.79" y="-185.3" font-family="Times,serif" font-size="14.00">invalid_argument</text>
</g>
<!-- create_token_data_id&#45;&gt;error::invalid_argument -->
<g id="edge8" class="edge">
<title>create_token_data_id&#45;&gt;error::invalid_argument</title>
<path fill="none" stroke="black" d="M84.31,-486.53C83.27,-465.89 83.79,-430.93 95.79,-404 132.67,-321.28 214.23,-248.99 259.32,-213.43"/>
<polygon fill="black" stroke="black" points="261.41,-216.23 267.16,-207.33 257.11,-210.7 261.41,-216.23"/>
</g>
<!-- mint_token&#45;&gt;signer::address_of -->
<g id="edge11" class="edge">
<title>mint_token&#45;&gt;signer::address_of</title>
<path fill="none" stroke="black" d="M624.2,-503.74C790.05,-502.71 1304.45,-498.02 1376.79,-479 1446.2,-460.75 1452.26,-428.29 1519.79,-404 1536.03,-398.16 1544.59,-407.12 1557.79,-396 1635.01,-330.97 1627.03,-194.39 1619.34,-135.27"/>
<polygon fill="black" stroke="black" points="1622.85,-135.12 1617.99,-125.71 1615.92,-136.1 1622.85,-135.12"/>
</g>
<!-- mint_token&#45;&gt;error::permission_denied -->
<g id="edge14" class="edge">
<title>mint_token&#45;&gt;error::permission_denied</title>
<path fill="none" stroke="black" d="M521.29,-503.7C459.07,-502.5 358.74,-497.61 326.79,-479 299.37,-463.02 182.9,-284.94 138.81,-216.54"/>
<polygon fill="black" stroke="black" points="141.78,-214.7 133.43,-208.18 135.9,-218.48 141.78,-214.7"/>
</g>
<!-- mint_token&#45;&gt;error::invalid_argument -->
<g id="edge12" class="edge">
<title>mint_token&#45;&gt;error::invalid_argument</title>
<path fill="none" stroke="black" d="M521.73,-502.29C475.34,-499.8 411.14,-493.73 390.79,-479 305.7,-417.39 292.41,-278.37 290.76,-218.41"/>
<polygon fill="black" stroke="black" points="294.26,-218.64 290.59,-208.71 287.26,-218.76 294.26,-218.64"/>
</g>
<!-- table::contains -->
<g id="node10" class="node">
<title>table::contains</title>
<ellipse fill="none" stroke="black" cx="572.79" cy="-264" rx="40.09" ry="18"/>
<text text-anchor="middle" x="572.79" y="-260.3" font-family="Times,serif" font-size="14.00">contains</text>
</g>
<!-- mint_token&#45;&gt;table::contains -->
<g id="edge9" class="edge">
<title>mint_token&#45;&gt;table::contains</title>
<path fill="none" stroke="black" d="M572.79,-486.81C572.79,-446.17 572.79,-343.82 572.79,-293.64"/>
<polygon fill="black" stroke="black" points="576.29,-293.87 572.79,-283.87 569.29,-293.87 576.29,-293.87"/>
</g>
<!-- table::borrow_mut -->
<g id="node11" class="node">
<title>table::borrow_mut</title>
<ellipse fill="none" stroke="black" cx="760.79" cy="-264" rx="54.69" ry="18"/>
<text text-anchor="middle" x="760.79" y="-260.3" font-family="Times,serif" font-size="14.00">borrow_mut</text>
</g>
<!-- mint_token&#45;&gt;table::borrow_mut -->
<g id="edge10" class="edge">
<title>mint_token&#45;&gt;table::borrow_mut</title>
<path fill="none" stroke="black" d="M604.89,-490.6C640.94,-473.85 698.49,-441.73 729.79,-396 750.84,-365.26 757.69,-322.01 759.87,-293.74"/>
<polygon fill="black" stroke="black" points="763.36,-293.98 760.47,-283.78 756.38,-293.55 763.36,-293.98"/>
</g>
<!-- error::not_found -->
<g id="node12" class="node">
<title>error::not_found</title>
<ellipse fill="none" stroke="black" cx="428.79" cy="-189" rx="46.59" ry="18"/>
<text text-anchor="middle" x="428.79" y="-185.3" font-family="Times,serif" font-size="14.00">not_found</text>
</g>
<!-- mint_token&#45;&gt;error::not_found -->
<g id="edge13" class="edge">
<title>mint_token&#45;&gt;error::not_found</title>
<path fill="none" stroke="black" d="M521.67,-502.51C499.84,-499.6 475.21,-493.07 456.79,-479 390.77,-428.55 390.46,-393.73 370.79,-313 363.74,-284.07 359.16,-273.41 370.79,-246 376.39,-232.81 386.78,-221.22 397.24,-212.05"/>
<polygon fill="black" stroke="black" points="399.24,-214.94 404.76,-205.9 394.81,-209.52 399.24,-214.94"/>
</g>
<!-- event::emit_event -->
<g id="node13" class="node">
<title>event::emit_event</title>
<ellipse fill="none" stroke="black" cx="1119.79" cy="-189" rx="50.09" ry="18"/>
<text text-anchor="middle" x="1119.79" y="-185.3" font-family="Times,serif" font-size="14.00">emit_event</text>
</g>
<!-- mint_token&#45;&gt;event::emit_event -->
<g id="edge15" class="edge">
<title>mint_token&#45;&gt;event::emit_event</title>
<path fill="none" stroke="black" d="M623.17,-501.17C727.68,-492.42 968.5,-456.87 1090.79,-313 1113.22,-286.62 1119.01,-246.01 1120.16,-218.75"/>
<polygon fill="black" stroke="black" points="1123.66,-218.85 1120.37,-208.78 1116.66,-218.7 1123.66,-218.85"/>
</g>
<!-- property_map::empty -->
<g id="node14" class="node">
<title>property_map::empty</title>
<ellipse fill="none" stroke="black" cx="511.79" cy="-430" rx="33.29" ry="18"/>
<text text-anchor="middle" x="511.79" y="-426.3" font-family="Times,serif" font-size="14.00">empty</text>
</g>
<!-- mint_token&#45;&gt;property_map::empty -->
<g id="edge16" class="edge">
<title>mint_token&#45;&gt;property_map::empty</title>
<path fill="none" stroke="black" d="M558.95,-487.44C551.01,-477.93 540.9,-465.83 532.08,-455.28"/>
<polygon fill="black" stroke="black" points="534.81,-453.09 525.72,-447.66 529.44,-457.58 534.81,-453.09"/>
</g>
<!-- create_token_id -->
<g id="node15" class="node">
<title>create_token_id</title>
<ellipse fill="none" stroke="black" cx="1595.79" cy="-430" rx="66.89" ry="18"/>
<text text-anchor="middle" x="1595.79" y="-426.3" font-family="Times,serif" font-size="14.00">create_token_id</text>
</g>
<!-- mint_token&#45;&gt;create_token_id -->
<g id="edge17" class="edge">
<title>mint_token&#45;&gt;create_token_id</title>
<path fill="none" stroke="black" d="M624.18,-504.15C808.4,-504.46 1429.27,-503.66 1514.79,-479 1532.79,-473.81 1550.9,-463.65 1565.42,-454.01"/>
<polygon fill="black" stroke="black" points="1567.37,-456.92 1573.6,-448.35 1563.39,-451.16 1567.37,-456.92"/>
</g>
<!-- deposit_token -->
<g id="node16" class="node">
<title>deposit_token</title>
<ellipse fill="none" stroke="black" cx="1307.79" cy="-430" rx="59.59" ry="18"/>
<text text-anchor="middle" x="1307.79" y="-426.3" font-family="Times,serif" font-size="14.00">deposit_token</text>
</g>
<!-- mint_token&#45;&gt;deposit_token -->
<g id="edge18" class="edge">
<title>mint_token&#45;&gt;deposit_token</title>
<path fill="none" stroke="black" d="M624.14,-503.12C742.65,-500.84 1032.47,-493.9 1128.79,-479 1173.31,-472.11 1222.68,-458.4 1258.27,-447.39"/>
<polygon fill="black" stroke="black" points="1258.92,-450.86 1267.41,-444.52 1256.82,-444.18 1258.92,-450.86"/>
</g>
<!-- error::invalid_argument&#45;&gt;error::canonical -->
<g id="edge19" class="edge">
<title>error::invalid_argument&#45;&gt;error::canonical</title>
<path fill="none" stroke="black" d="M290.79,-170.82C290.79,-160.69 290.79,-147.6 290.79,-135.92"/>
<polygon fill="black" stroke="black" points="294.29,-135.95 290.79,-125.95 287.29,-135.95 294.29,-135.95"/>
</g>
<!-- table::contains_box -->
<g id="node17" class="node">
<title>table::contains_box</title>
<ellipse fill="none" stroke="black" cx="557.79" cy="-189" rx="57.69" ry="18"/>
<text text-anchor="middle" x="557.79" y="-185.3" font-family="Times,serif" font-size="14.00">contains_box</text>
</g>
<!-- table::contains&#45;&gt;table::contains_box -->
<g id="edge20" class="edge">
<title>table::contains&#45;&gt;table::contains_box</title>
<path fill="none" stroke="black" d="M569.24,-245.7C567.57,-237.58 565.54,-227.68 563.65,-218.5"/>
<polygon fill="black" stroke="black" points="567.12,-218 561.68,-208.91 560.26,-219.41 567.12,-218"/>
</g>
<!-- table::borrow_box_mut -->
<g id="node18" class="node">
<title>table::borrow_box_mut</title>
<ellipse fill="none" stroke="black" cx="805.79" cy="-189" rx="72.29" ry="18"/>
<text text-anchor="middle" x="805.79" y="-185.3" font-family="Times,serif" font-size="14.00">borrow_box_mut</text>
</g>
<!-- table::borrow_mut&#45;&gt;table::borrow_box_mut -->
<g id="edge21" class="edge">
<title>table::borrow_mut&#45;&gt;table::borrow_box_mut</title>
<path fill="none" stroke="black" d="M771.23,-246.07C776.59,-237.38 783.24,-226.59 789.27,-216.8"/>
<polygon fill="black" stroke="black" points="792.19,-218.73 794.46,-208.38 786.23,-215.06 792.19,-218.73"/>
</g>
<!-- error::not_found&#45;&gt;error::canonical -->
<g id="edge22" class="edge">
<title>error::not_found&#45;&gt;error::canonical</title>
<path fill="none" stroke="black" d="M403.8,-173.33C381.68,-160.35 349.21,-141.29 324.74,-126.93"/>
<polygon fill="black" stroke="black" points="326.84,-124.1 316.44,-122.05 323.29,-130.13 326.84,-124.1"/>
</g>
<!-- bcs::to_bytes -->
<g id="node19" class="node">
<title>bcs::to_bytes</title>
<ellipse fill="none" stroke="black" cx="1405.79" cy="-106" rx="40.09" ry="18"/>
<text text-anchor="middle" x="1405.79" y="-102.3" font-family="Times,serif" font-size="14.00">to_bytes</text>
</g>
<!-- event::emit_event&#45;&gt;bcs::to_bytes -->
<g id="edge23" class="edge">
<title>event::emit_event&#45;&gt;bcs::to_bytes</title>
<path fill="none" stroke="black" d="M1147.92,-173.68C1157.48,-169.47 1168.38,-165.36 1178.79,-163 1216.76,-154.38 1317.87,-170 1353.79,-155 1365.82,-149.98 1376.81,-140.87 1385.56,-131.93"/>
<polygon fill="black" stroke="black" points="1388.03,-134.41 1392.19,-124.67 1382.86,-129.69 1388.03,-134.41"/>
</g>
<!-- event::write_to_event_store -->
<g id="node20" class="node">
<title>event::write_to_event_store</title>
<ellipse fill="none" stroke="black" cx="1154.79" cy="-106" rx="85.29" ry="18"/>
<text text-anchor="middle" x="1154.79" y="-102.3" font-family="Times,serif" font-size="14.00">write_to_event_store</text>
</g>
<!-- event::emit_event&#45;&gt;event::write_to_event_store -->
<g id="edge24" class="edge">
<title>event::emit_event&#45;&gt;event::write_to_event_store</title>
<path fill="none" stroke="black" d="M1127.21,-170.82C1131.76,-160.3 1137.69,-146.59 1142.88,-134.57"/>
<polygon fill="black" stroke="black" points="1146.03,-136.11 1146.78,-125.54 1139.6,-133.33 1146.03,-136.11"/>
</g>
<!-- simple_map::create -->
<g id="node21" class="node">
<title>simple_map::create</title>
<ellipse fill="none" stroke="black" cx="511.79" cy="-347" rx="31.7" ry="18"/>
<text text-anchor="middle" x="511.79" y="-343.3" font-family="Times,serif" font-size="14.00">create</text>
</g>
<!-- property_map::empty&#45;&gt;simple_map::create -->
<g id="edge25" class="edge">
<title>property_map::empty&#45;&gt;simple_map::create</title>
<path fill="none" stroke="black" d="M511.79,-411.82C511.79,-401.69 511.79,-388.6 511.79,-376.92"/>
<polygon fill="black" stroke="black" points="515.29,-376.95 511.79,-366.95 508.29,-376.95 515.29,-376.95"/>
</g>
<!-- deposit_token&#45;&gt;signer::address_of -->
<g id="edge26" class="edge">
<title>deposit_token&#45;&gt;signer::address_of</title>
<path fill="none" stroke="black" d="M1360.98,-421.52C1423.89,-412.58 1520.57,-398.51 1523.79,-396 1565.79,-363.29 1598.26,-201.65 1610.02,-135.4"/>
<polygon fill="black" stroke="black" points="1613.44,-136.13 1611.71,-125.68 1606.55,-134.93 1613.44,-136.13"/>
</g>
<!-- direct_deposit -->
<g id="node22" class="node">
<title>direct_deposit</title>
<ellipse fill="none" stroke="black" cx="660.79" cy="-347" rx="60.39" ry="18"/>
<text text-anchor="middle" x="660.79" y="-343.3" font-family="Times,serif" font-size="14.00">direct_deposit</text>
</g>
<!-- deposit_token&#45;&gt;direct_deposit -->
<g id="edge27" class="edge">
<title>deposit_token&#45;&gt;direct_deposit</title>
<path fill="none" stroke="black" d="M1253.47,-422.2C1135.21,-407.39 854.83,-372.29 726.72,-356.25"/>
<polygon fill="black" stroke="black" points="727.4,-352.81 717.04,-355.04 726.53,-359.76 727.4,-352.81"/>
</g>
<!-- initialize_token_store -->
<g id="node23" class="node">
<title>initialize_token_store</title>
<ellipse fill="none" stroke="black" cx="1427.79" cy="-347" rx="87.18" ry="18"/>
<text text-anchor="middle" x="1427.79" y="-343.3" font-family="Times,serif" font-size="14.00">initialize_token_store</text>
</g>
<!-- deposit_token&#45;&gt;initialize_token_store -->
<g id="edge28" class="edge">
<title>deposit_token&#45;&gt;initialize_token_store</title>
<path fill="none" stroke="black" d="M1331.21,-413.19C1349.03,-401.16 1373.81,-384.44 1393.81,-370.94"/>
<polygon fill="black" stroke="black" points="1395.61,-373.95 1401.94,-365.45 1391.69,-368.15 1395.61,-373.95"/>
</g>
<!-- direct_deposit&#45;&gt;error::invalid_argument -->
<g id="edge32" class="edge">
<title>direct_deposit&#45;&gt;error::invalid_argument</title>
<path fill="none" stroke="black" d="M618.39,-333.85C599.67,-328.99 577.3,-323.88 556.79,-321 536.31,-318.12 388.76,-323.25 370.79,-313 334.3,-292.18 311.62,-247.13 300.11,-217.72"/>
<polygon fill="black" stroke="black" points="303.53,-216.87 296.76,-208.71 296.96,-219.3 303.53,-216.87"/>
</g>
<!-- direct_deposit&#45;&gt;table::contains -->
<g id="edge29" class="edge">
<title>direct_deposit&#45;&gt;table::contains</title>
<path fill="none" stroke="black" d="M642.84,-329.56C637.07,-324.28 630.66,-318.4 624.79,-313 616.07,-304.97 606.53,-296.18 598.04,-288.34"/>
<polygon fill="black" stroke="black" points="600.47,-285.82 590.75,-281.61 595.72,-290.96 600.47,-285.82"/>
</g>
<!-- direct_deposit&#45;&gt;table::borrow_mut -->
<g id="edge30" class="edge">
<title>direct_deposit&#45;&gt;table::borrow_mut</title>
<path fill="none" stroke="black" d="M681.03,-329.61C695.76,-317.67 715.92,-301.35 732.28,-288.09"/>
<polygon fill="black" stroke="black" points="734.18,-291.06 739.75,-282.04 729.78,-285.62 734.18,-291.06"/>
</g>
<!-- direct_deposit&#45;&gt;error::not_found -->
<g id="edge33" class="edge">
<title>direct_deposit&#45;&gt;error::not_found</title>
<path fill="none" stroke="black" d="M617.01,-334.24C598.53,-329.59 576.72,-324.54 556.79,-321 541.59,-318.3 500.36,-321.96 487.79,-313 485.66,-311.48 458.22,-253.15 441.52,-217.37"/>
<polygon fill="black" stroke="black" points="444.76,-216.04 437.37,-208.45 438.42,-218.99 444.76,-216.04"/>
</g>
<!-- direct_deposit&#45;&gt;event::emit_event -->
<g id="edge34" class="edge">
<title>direct_deposit&#45;&gt;event::emit_event</title>
<path fill="none" stroke="black" d="M720.92,-344.21C825.06,-340.65 1030.56,-331.37 1057.79,-313 1074.73,-301.58 1096.67,-250.61 1109.4,-217.98"/>
<polygon fill="black" stroke="black" points="1112.64,-219.3 1112.95,-208.71 1106.11,-216.79 1112.64,-219.3"/>
</g>
<!-- table::add -->
<g id="node24" class="node">
<title>table::add</title>
<ellipse fill="none" stroke="black" cx="660.79" cy="-264" rx="27" ry="18"/>
<text text-anchor="middle" x="660.79" y="-260.3" font-family="Times,serif" font-size="14.00">add</text>
</g>
<!-- direct_deposit&#45;&gt;table::add -->
<g id="edge31" class="edge">
<title>direct_deposit&#45;&gt;table::add</title>
<path fill="none" stroke="black" d="M660.79,-328.82C660.79,-318.69 660.79,-305.6 660.79,-293.92"/>
<polygon fill="black" stroke="black" points="664.29,-293.95 660.79,-283.95 657.29,-293.95 664.29,-293.95"/>
</g>
<!-- merge -->
<g id="node25" class="node">
<title>merge</title>
<ellipse fill="none" stroke="black" cx="412.79" cy="-264" rx="33.29" ry="18"/>
<text text-anchor="middle" x="412.79" y="-260.3" font-family="Times,serif" font-size="14.00">merge</text>
</g>
<!-- direct_deposit&#45;&gt;merge -->
<g id="edge35" class="edge">
<title>direct_deposit&#45;&gt;merge</title>
<path fill="none" stroke="black" d="M617.58,-334.04C599,-329.31 576.96,-324.24 556.79,-321 535.44,-317.57 479.37,-322.2 459.79,-313 448.71,-307.79 438.81,-298.78 430.99,-289.97"/>
<polygon fill="black" stroke="black" points="433.92,-288.02 424.86,-282.53 428.52,-292.47 433.92,-288.02"/>
</g>
<!-- initialize_token_store&#45;&gt;signer::address_of -->
<g id="edge37" class="edge">
<title>initialize_token_store&#45;&gt;signer::address_of</title>
<path fill="none" stroke="black" d="M1495.26,-335.35C1508.82,-330.46 1521.92,-323.35 1531.79,-313 1579.43,-263.09 1541.3,-224.89 1571.79,-163 1577.15,-152.11 1584.8,-141.27 1592.16,-132.07"/>
<polygon fill="black" stroke="black" points="1594.65,-134.56 1598.36,-124.63 1589.27,-130.07 1594.65,-134.56"/>
</g>
<!-- table::new -->
<g id="node26" class="node">
<title>table::new</title>
<ellipse fill="none" stroke="black" cx="994.79" cy="-264" rx="27" ry="18"/>
<text text-anchor="middle" x="994.79" y="-260.3" font-family="Times,serif" font-size="14.00">new</text>
</g>
<!-- initialize_token_store&#45;&gt;table::new -->
<g id="edge36" class="edge">
<title>initialize_token_store&#45;&gt;table::new</title>
<path fill="none" stroke="black" d="M1364.83,-334.22C1273.1,-317.06 1105.61,-285.73 1031.61,-271.89"/>
<polygon fill="black" stroke="black" points="1032.53,-268.5 1022.05,-270.1 1031.24,-275.38 1032.53,-268.5"/>
</g>
<!-- account::new_event_handle -->
<g id="node27" class="node">
<title>account::new_event_handle</title>
<ellipse fill="none" stroke="black" cx="1442.79" cy="-264" rx="76.89" ry="18"/>
<text text-anchor="middle" x="1442.79" y="-260.3" font-family="Times,serif" font-size="14.00">new_event_handle</text>
</g>
<!-- initialize_token_store&#45;&gt;account::new_event_handle -->
<g id="edge38" class="edge">
<title>initialize_token_store&#45;&gt;account::new_event_handle</title>
<path fill="none" stroke="black" d="M1430.97,-328.82C1432.87,-318.58 1435.32,-305.33 1437.51,-293.55"/>
<polygon fill="black" stroke="black" points="1440.91,-294.39 1439.29,-283.92 1434.03,-293.12 1440.91,-294.39"/>
</g>
<!-- table::add_box -->
<g id="node28" class="node">
<title>table::add_box</title>
<ellipse fill="none" stroke="black" cx="674.79" cy="-189" rx="40.89" ry="18"/>
<text text-anchor="middle" x="674.79" y="-185.3" font-family="Times,serif" font-size="14.00">add_box</text>
</g>
<!-- table::add&#45;&gt;table::add_box -->
<g id="edge39" class="edge">
<title>table::add&#45;&gt;table::add_box</title>
<path fill="none" stroke="black" d="M664.11,-245.7C665.67,-237.58 667.57,-227.68 669.33,-218.5"/>
<polygon fill="black" stroke="black" points="672.72,-219.4 671.16,-208.92 665.84,-218.08 672.72,-219.4"/>
</g>
<!-- merge&#45;&gt;error::invalid_argument -->
<g id="edge40" class="edge">
<title>merge&#45;&gt;error::invalid_argument</title>
<path fill="none" stroke="black" d="M390.98,-249.95C373.31,-239.38 348.03,-224.25 327.29,-211.84"/>
<polygon fill="black" stroke="black" points="329.2,-208.9 318.82,-206.77 325.61,-214.91 329.2,-208.9"/>
</g>
<!-- table::new_table_handle -->
<g id="node29" class="node">
<title>table::new_table_handle</title>
<ellipse fill="none" stroke="black" cx="970.79" cy="-189" rx="74.99" ry="18"/>
<text text-anchor="middle" x="970.79" y="-185.3" font-family="Times,serif" font-size="14.00">new_table_handle</text>
</g>
<!-- table::new&#45;&gt;table::new_table_handle -->
<g id="edge41" class="edge">
<title>table::new&#45;&gt;table::new_table_handle</title>
<path fill="none" stroke="black" d="M989.23,-246.07C986.51,-237.8 983.17,-227.64 980.08,-218.24"/>
<polygon fill="black" stroke="black" points="983.42,-217.19 976.97,-208.78 976.77,-219.38 983.42,-217.19"/>
</g>
<!-- event::new_event_handle -->
<g id="node30" class="node">
<title>event::new_event_handle</title>
<ellipse fill="none" stroke="black" cx="1264.79" cy="-189" rx="76.89" ry="18"/>
<text text-anchor="middle" x="1264.79" y="-185.3" font-family="Times,serif" font-size="14.00">new_event_handle</text>
</g>
<!-- account::new_event_handle&#45;&gt;event::new_event_handle -->
<g id="edge42" class="edge">
<title>account::new_event_handle&#45;&gt;event::new_event_handle</title>
<path fill="none" stroke="black" d="M1390.85,-250.49C1378.52,-246.95 1365.55,-242.75 1353.79,-238 1335.9,-230.77 1316.97,-220.9 1301.18,-211.98"/>
<polygon fill="black" stroke="black" points="1303.03,-209.01 1292.62,-207.06 1299.54,-215.08 1303.03,-209.01"/>
</g>
<!-- account::create_guid -->
<g id="node31" class="node">
<title>account::create_guid</title>
<ellipse fill="none" stroke="black" cx="1467.79" cy="-189" rx="51.99" ry="18"/>
<text text-anchor="middle" x="1467.79" y="-185.3" font-family="Times,serif" font-size="14.00">create_guid</text>
</g>
<!-- account::new_event_handle&#45;&gt;account::create_guid -->
<g id="edge43" class="edge">
<title>account::new_event_handle&#45;&gt;account::create_guid</title>
<path fill="none" stroke="black" d="M1448.72,-245.7C1451.55,-237.43 1455.01,-227.31 1458.21,-217.99"/>
<polygon fill="black" stroke="black" points="1461.49,-219.2 1461.42,-208.61 1454.87,-216.93 1461.49,-219.2"/>
</g>
<!-- account::create_guid&#45;&gt;signer::address_of -->
<g id="edge44" class="edge">
<title>account::create_guid&#45;&gt;signer::address_of</title>
<path fill="none" stroke="black" d="M1502.3,-175.2C1516.13,-169.61 1532.02,-162.6 1545.79,-155 1559.4,-147.49 1573.63,-137.92 1585.61,-129.31"/>
<polygon fill="black" stroke="black" points="1587.47,-132.29 1593.46,-123.55 1583.33,-126.64 1587.47,-132.29"/>
</g>
<!-- guid::create -->
<g id="node32" class="node">
<title>guid::create</title>
<ellipse fill="none" stroke="black" cx="1501.79" cy="-106" rx="31.7" ry="18"/>
<text text-anchor="middle" x="1501.79" y="-102.3" font-family="Times,serif" font-size="14.00">create</text>
</g>
<!-- account::create_guid&#45;&gt;guid::create -->
<g id="edge45" class="edge">
<title>account::create_guid&#45;&gt;guid::create</title>
<path fill="none" stroke="black" d="M1475,-170.82C1479.45,-160.23 1485.25,-146.4 1490.32,-134.33"/>
<polygon fill="black" stroke="black" points="1493.48,-135.85 1494.12,-125.27 1487.03,-133.14 1493.48,-135.85"/>
</g>
</g>
</svg>
