<?xml version="1.0" encoding="UTF-8" standalone="no"?>
<!DOCTYPE svg PUBLIC "-//W3C//DTD SVG 1.1//EN"
 "http://www.w3.org/Graphics/SVG/1.1/DTD/svg11.dtd">
<!-- Generated by graphviz version 7.0.0 (20221023.0053)
 -->
<!-- Title: G Pages: 1 -->
<svg width="2201pt" height="708pt"
 viewBox="0.00 0.00 2201.02 708.00" xmlns="http://www.w3.org/2000/svg" xmlns:xlink="http://www.w3.org/1999/xlink">
<g id="graph0" class="graph" transform="scale(1 1) rotate(0) translate(4 704)">
<title>G</title>
<polygon fill="white" stroke="none" points="-4,4 -4,-704 2197.02,-704 2197.02,4 -4,4"/>
<g id="clust1" class="cluster">
<title>cluster_string</title>
<polygon fill="none" stroke="black" points="36.13,-340 36.13,-498 214.13,-498 214.13,-340 36.13,-340"/>
<text text-anchor="middle" x="125.13" y="-482.8" font-family="Times,serif" font-size="14.00">string</text>
</g>
<g id="clust2" class="cluster">
<title>cluster_table</title>
<polygon fill="none" stroke="black" points="929.13,-340 929.13,-498 1477.13,-498 1477.13,-340 929.13,-340"/>
<text text-anchor="middle" x="1203.13" y="-482.8" font-family="Times,serif" font-size="14.00">table</text>
</g>
<g id="clust3" class="cluster">
<title>cluster_signer</title>
<polygon fill="none" stroke="black" points="1669.13,-506 1669.13,-656 1819.13,-656 1819.13,-506 1669.13,-506"/>
<text text-anchor="middle" x="1744.13" y="-640.8" font-family="Times,serif" font-size="14.00">signer</text>
</g>
<g id="clust4" class="cluster">
<title>cluster_error</title>
<polygon fill="none" stroke="black" points="1191.13,-174 1191.13,-332 1767.13,-332 1767.13,-174 1191.13,-174"/>
<text text-anchor="middle" x="1479.13" y="-316.8" font-family="Times,serif" font-size="14.00">error</text>
</g>
<g id="clust5" class="cluster">
<title>cluster_event</title>
<polygon fill="none" stroke="black" points="705.13,-423 705.13,-581 891.13,-581 891.13,-423 705.13,-423"/>
<text text-anchor="middle" x="798.13" y="-565.8" font-family="Times,serif" font-size="14.00">event</text>
</g>
<g id="clust6" class="cluster">
<title>cluster_property_map</title>
<polygon fill="none" stroke="black" points="348.13,-340 348.13,-581 540.13,-581 540.13,-340 348.13,-340"/>
<text text-anchor="middle" x="444.13" y="-565.8" font-family="Times,serif" font-size="14.00">property_map</text>
</g>
<g id="clust7" class="cluster">
<title>cluster_bcs</title>
<polygon fill="none" stroke="black" points="859.13,-91 859.13,-166 955.13,-166 955.13,-91 859.13,-91"/>
<text text-anchor="middle" x="907.13" y="-150.8" font-family="Times,serif" font-size="14.00">bcs</text>
</g>
<g id="clust8" class="cluster">
<title>cluster_simple_map</title>
<polygon fill="none" stroke="black" points="548.13,-257 548.13,-415 851.13,-415 851.13,-257 548.13,-257"/>
<text text-anchor="middle" x="699.63" y="-399.8" font-family="Times,serif" font-size="14.00">simple_map</text>
</g>
<g id="clust9" class="cluster">
<title>cluster_from_bcs</title>
<polygon fill="none" stroke="black" points="222.13,-340 222.13,-498 340.13,-498 340.13,-340 222.13,-340"/>
<text text-anchor="middle" x="281.13" y="-482.8" font-family="Times,serif" font-size="14.00">from_bcs</text>
</g>
<g id="clust10" class="cluster">
<title>cluster_option</title>
<polygon fill="none" stroke="black" points="355.13,-91 355.13,-249 591.13,-249 591.13,-91 355.13,-91"/>
<text text-anchor="middle" x="473.13" y="-233.8" font-family="Times,serif" font-size="14.00">option</text>
</g>
<g id="clust11" class="cluster">
<title>cluster_vector</title>
<polygon fill="none" stroke="black" points="374.13,-8 374.13,-83 581.13,-83 581.13,-8 374.13,-8"/>
<text text-anchor="middle" x="477.63" y="-67.8" font-family="Times,serif" font-size="14.00">vector</text>
</g>
<g id="clust12" class="cluster">
<title>cluster_comparator</title>
<polygon fill="none" stroke="black" points="599.13,-91 599.13,-249 851.13,-249 851.13,-91 599.13,-91"/>
<text text-anchor="middle" x="725.13" y="-233.8" font-family="Times,serif" font-size="14.00">comparator</text>
</g>
<!-- burn_by_creator -->
<g id="node1" class="node">
<title>burn_by_creator</title>
<ellipse fill="none" stroke="black" cx="1455.13" cy="-682" rx="68.79" ry="18"/>
<text text-anchor="middle" x="1455.13" y="-678.3" font-family="Times,serif" font-size="14.00">burn_by_creator</text>
</g>
<!-- string::utf8 -->
<g id="node2" class="node">
<title>string::utf8</title>
<ellipse fill="none" stroke="black" cx="179.13" cy="-449" rx="27" ry="18"/>
<text text-anchor="middle" x="179.13" y="-445.3" font-family="Times,serif" font-size="14.00">utf8</text>
</g>
<!-- burn_by_creator&#45;&gt;string::utf8 -->
<g id="edge1" class="edge">
<title>burn_by_creator&#45;&gt;string::utf8</title>
<path fill="none" stroke="black" d="M1386.2,-681.25C1146.47,-681.9 361.08,-682.03 314.13,-656 243.98,-617.1 204.15,-524.59 187.87,-477.93"/>
<polygon fill="black" stroke="black" points="191.22,-476.91 184.72,-468.55 184.58,-479.14 191.22,-476.91"/>
</g>
<!-- table::contains -->
<g id="node3" class="node">
<title>table::contains</title>
<ellipse fill="none" stroke="black" cx="1102.13" cy="-449" rx="40.09" ry="18"/>
<text text-anchor="middle" x="1102.13" y="-445.3" font-family="Times,serif" font-size="14.00">contains</text>
</g>
<!-- burn_by_creator&#45;&gt;table::contains -->
<g id="edge2" class="edge">
<title>burn_by_creator&#45;&gt;table::contains</title>
<path fill="none" stroke="black" d="M1386.05,-680.74C1316.23,-679.42 1213.82,-674.29 1179.13,-656 1140.87,-635.83 1134.07,-620.79 1117.13,-581 1103.06,-547.94 1100.6,-506.17 1100.81,-478.8"/>
<polygon fill="black" stroke="black" points="1104.31,-478.91 1101.03,-468.84 1097.31,-478.76 1104.31,-478.91"/>
</g>
<!-- table::borrow_mut -->
<g id="node4" class="node">
<title>table::borrow_mut</title>
<ellipse fill="none" stroke="black" cx="1306.13" cy="-449" rx="54.69" ry="18"/>
<text text-anchor="middle" x="1306.13" y="-445.3" font-family="Times,serif" font-size="14.00">borrow_mut</text>
</g>
<!-- burn_by_creator&#45;&gt;table::borrow_mut -->
<g id="edge3" class="edge">
<title>burn_by_creator&#45;&gt;table::borrow_mut</title>
<path fill="none" stroke="black" d="M1453.62,-663.81C1451.36,-644.62 1445.9,-613.09 1433.13,-589 1408.29,-542.15 1363.94,-498.86 1334.77,-473.43"/>
<polygon fill="black" stroke="black" points="1337.27,-470.96 1327.4,-467.12 1332.72,-476.28 1337.27,-470.96"/>
</g>
<!-- table::remove -->
<g id="node5" class="node">
<title>table::remove</title>
<ellipse fill="none" stroke="black" cx="1416.13" cy="-449" rx="37.89" ry="18"/>
<text text-anchor="middle" x="1416.13" y="-445.3" font-family="Times,serif" font-size="14.00">remove</text>
</g>
<!-- burn_by_creator&#45;&gt;table::remove -->
<g id="edge4" class="edge">
<title>burn_by_creator&#45;&gt;table::remove</title>
<path fill="none" stroke="black" d="M1466.13,-664C1467.36,-661.41 1468.43,-658.7 1469.13,-656 1485.96,-591.49 1493.79,-567.94 1469.13,-506 1464,-493.11 1454.34,-481.48 1444.65,-472.2"/>
<polygon fill="black" stroke="black" points="1447.16,-469.75 1437.38,-465.69 1442.49,-474.97 1447.16,-469.75"/>
</g>
<!-- signer::address_of -->
<g id="node6" class="node">
<title>signer::address_of</title>
<ellipse fill="none" stroke="black" cx="1735.13" cy="-607" rx="48.99" ry="18"/>
<text text-anchor="middle" x="1735.13" y="-603.3" font-family="Times,serif" font-size="14.00">address_of</text>
</g>
<!-- burn_by_creator&#45;&gt;signer::address_of -->
<g id="edge5" class="edge">
<title>burn_by_creator&#45;&gt;signer::address_of</title>
<path fill="none" stroke="black" d="M1523.98,-680.72C1565.43,-678.62 1618.61,-672.45 1663.13,-656 1678.97,-650.15 1694.77,-640.19 1707.52,-630.85"/>
<polygon fill="black" stroke="black" points="1709.59,-633.68 1715.42,-624.83 1705.35,-628.11 1709.59,-633.68"/>
</g>
<!-- error::invalid_argument -->
<g id="node7" class="node">
<title>error::invalid_argument</title>
<ellipse fill="none" stroke="black" cx="1272.13" cy="-283" rx="73.39" ry="18"/>
<text text-anchor="middle" x="1272.13" y="-279.3" font-family="Times,serif" font-size="14.00">invalid_argument</text>
</g>
<!-- burn_by_creator&#45;&gt;error::invalid_argument -->
<g id="edge6" class="edge">
<title>burn_by_creator&#45;&gt;error::invalid_argument</title>
<path fill="none" stroke="black" d="M1482.61,-665.04C1485.53,-662.35 1488.15,-659.34 1490.13,-656 1561.89,-534.95 1607.06,-442.02 1510.13,-340 1498.18,-327.42 1370.76,-336.97 1354.13,-332 1335.98,-326.58 1317.61,-316.36 1302.87,-306.74"/>
<polygon fill="black" stroke="black" points="1305.25,-304.12 1295.01,-301.41 1301.32,-309.92 1305.25,-304.12"/>
</g>
<!-- error::not_found -->
<g id="node8" class="node">
<title>error::not_found</title>
<ellipse fill="none" stroke="black" cx="1540.13" cy="-283" rx="46.59" ry="18"/>
<text text-anchor="middle" x="1540.13" y="-279.3" font-family="Times,serif" font-size="14.00">not_found</text>
</g>
<!-- burn_by_creator&#45;&gt;error::not_found -->
<g id="edge7" class="edge">
<title>burn_by_creator&#45;&gt;error::not_found</title>
<path fill="none" stroke="black" d="M1519.65,-675.27C1547.32,-671.5 1575.5,-665.46 1585.13,-656 1625,-616.85 1611.13,-588.87 1611.13,-533 1611.13,-533 1611.13,-533 1611.13,-448 1611.13,-395.65 1580.28,-341.06 1559.26,-309.93"/>
<polygon fill="black" stroke="black" points="1562.27,-308.13 1553.69,-301.92 1556.52,-312.13 1562.27,-308.13"/>
</g>
<!-- error::permission_denied -->
<g id="node9" class="node">
<title>error::permission_denied</title>
<ellipse fill="none" stroke="black" cx="1682.13" cy="-283" rx="77.19" ry="18"/>
<text text-anchor="middle" x="1682.13" y="-279.3" font-family="Times,serif" font-size="14.00">permission_denied</text>
</g>
<!-- burn_by_creator&#45;&gt;error::permission_denied -->
<g id="edge8" class="edge">
<title>burn_by_creator&#45;&gt;error::permission_denied</title>
<path fill="none" stroke="black" d="M1522.01,-677.5C1558.73,-674.23 1599.53,-667.97 1613.13,-656 1655.9,-618.38 1649.13,-589.96 1649.13,-533 1649.13,-533 1649.13,-533 1649.13,-448 1649.13,-399.37 1663.25,-344.2 1673.02,-311.84"/>
<polygon fill="black" stroke="black" points="1676.31,-313.04 1675.93,-302.45 1669.62,-310.96 1676.31,-313.04"/>
</g>
<!-- event::emit_event -->
<g id="node10" class="node">
<title>event::emit_event</title>
<ellipse fill="none" stroke="black" cx="833.13" cy="-532" rx="50.09" ry="18"/>
<text text-anchor="middle" x="833.13" y="-528.3" font-family="Times,serif" font-size="14.00">emit_event</text>
</g>
<!-- burn_by_creator&#45;&gt;event::emit_event -->
<g id="edge9" class="edge">
<title>burn_by_creator&#45;&gt;event::emit_event</title>
<path fill="none" stroke="black" d="M1386.7,-679.44C1296.42,-676.84 1142.61,-670.42 1088.13,-656 1003.8,-633.68 913.84,-583.19 866.58,-554.32"/>
<polygon fill="black" stroke="black" points="868.53,-551.4 858.18,-549.13 864.85,-557.36 868.53,-551.4"/>
</g>
<!-- property_map::contains_key -->
<g id="node11" class="node">
<title>property_map::contains_key</title>
<ellipse fill="none" stroke="black" cx="448.13" cy="-366" rx="57.39" ry="18"/>
<text text-anchor="middle" x="448.13" y="-362.3" font-family="Times,serif" font-size="14.00">contains_key</text>
</g>
<!-- burn_by_creator&#45;&gt;property_map::contains_key -->
<g id="edge10" class="edge">
<title>burn_by_creator&#45;&gt;property_map::contains_key</title>
<path fill="none" stroke="black" d="M1386.22,-681.17C1178.22,-681.42 565.68,-680.06 479.13,-656 414.12,-637.93 381.07,-639.32 347.13,-581 308.56,-514.73 379.92,-431.34 421.41,-391.02"/>
<polygon fill="black" stroke="black" points="423.58,-393.79 428.42,-384.36 418.76,-388.71 423.58,-393.79"/>
</g>
<!-- property_map::read_bool -->
<g id="node12" class="node">
<title>property_map::read_bool</title>
<ellipse fill="none" stroke="black" cx="402.13" cy="-532" rx="46.29" ry="18"/>
<text text-anchor="middle" x="402.13" y="-528.3" font-family="Times,serif" font-size="14.00">read_bool</text>
</g>
<!-- burn_by_creator&#45;&gt;property_map::read_bool -->
<g id="edge11" class="edge">
<title>burn_by_creator&#45;&gt;property_map::read_bool</title>
<path fill="none" stroke="black" d="M1386.44,-679.99C1188.88,-676.16 622.83,-658.55 457.13,-581 445,-575.32 433.52,-566.16 424.21,-557.35"/>
<polygon fill="black" stroke="black" points="426.94,-555.13 417.39,-550.54 421.99,-560.08 426.94,-555.13"/>
</g>
<!-- create_token_id_raw -->
<g id="node13" class="node">
<title>create_token_id_raw</title>
<ellipse fill="none" stroke="black" cx="102.13" cy="-607" rx="84.49" ry="18"/>
<text text-anchor="middle" x="102.13" y="-603.3" font-family="Times,serif" font-size="14.00">create_token_id_raw</text>
</g>
<!-- burn_by_creator&#45;&gt;create_token_id_raw -->
<g id="edge12" class="edge">
<title>burn_by_creator&#45;&gt;create_token_id_raw</title>
<path fill="none" stroke="black" d="M1386.37,-680.74C1147.59,-679.66 362.8,-674.73 251.13,-656 216.55,-650.2 178.98,-638.05 150.22,-627.43"/>
<polygon fill="black" stroke="black" points="151.66,-624.23 141.07,-623.99 149.19,-630.79 151.66,-624.23"/>
</g>
<!-- destroy_collection_data -->
<g id="node14" class="node">
<title>destroy_collection_data</title>
<ellipse fill="none" stroke="black" cx="2098.13" cy="-607" rx="94.78" ry="18"/>
<text text-anchor="middle" x="2098.13" y="-603.3" font-family="Times,serif" font-size="14.00">destroy_collection_data</text>
</g>
<!-- burn_by_creator&#45;&gt;destroy_collection_data -->
<g id="edge13" class="edge">
<title>burn_by_creator&#45;&gt;destroy_collection_data</title>
<path fill="none" stroke="black" d="M1523.94,-681.09C1648.61,-680.71 1906.99,-677.27 1994.13,-656 2016.95,-650.43 2040.85,-639.78 2059.98,-629.93"/>
<polygon fill="black" stroke="black" points="2061.55,-633.06 2068.74,-625.28 2058.27,-626.87 2061.55,-633.06"/>
</g>
<!-- destroy_token_data -->
<g id="node15" class="node">
<title>destroy_token_data</title>
<ellipse fill="none" stroke="black" cx="1906.13" cy="-607" rx="79.09" ry="18"/>
<text text-anchor="middle" x="1906.13" y="-603.3" font-family="Times,serif" font-size="14.00">destroy_token_data</text>
</g>
<!-- burn_by_creator&#45;&gt;destroy_token_data -->
<g id="edge14" class="edge">
<title>burn_by_creator&#45;&gt;destroy_token_data</title>
<path fill="none" stroke="black" d="M1523.92,-680.03C1614.63,-678.12 1769.08,-672.49 1823.13,-656 1841.29,-650.46 1859.73,-640.34 1874.61,-630.81"/>
<polygon fill="black" stroke="black" points="1876.18,-633.97 1882.57,-625.52 1872.31,-628.13 1876.18,-633.97"/>
</g>
<!-- withdraw_with_event_internal -->
<g id="node16" class="node">
<title>withdraw_with_event_internal</title>
<ellipse fill="none" stroke="black" cx="1306.13" cy="-607" rx="118.08" ry="18"/>
<text text-anchor="middle" x="1306.13" y="-603.3" font-family="Times,serif" font-size="14.00">withdraw_with_event_internal</text>
</g>
<!-- burn_by_creator&#45;&gt;withdraw_with_event_internal -->
<g id="edge15" class="edge">
<title>burn_by_creator&#45;&gt;withdraw_with_event_internal</title>
<path fill="none" stroke="black" d="M1423.9,-665.7C1402.56,-655.24 1373.98,-641.24 1350.32,-629.65"/>
<polygon fill="black" stroke="black" points="1352.06,-626.6 1341.54,-625.35 1348.98,-632.89 1352.06,-626.6"/>
</g>
<!-- string::internal_check_utf8 -->
<g id="node17" class="node">
<title>string::internal_check_utf8</title>
<ellipse fill="none" stroke="black" cx="125.13" cy="-366" rx="81.49" ry="18"/>
<text text-anchor="middle" x="125.13" y="-362.3" font-family="Times,serif" font-size="14.00">internal_check_utf8</text>
</g>
<!-- string::utf8&#45;&gt;string::internal_check_utf8 -->
<g id="edge16" class="edge">
<title>string::utf8&#45;&gt;string::internal_check_utf8</title>
<path fill="none" stroke="black" d="M168.46,-432C161.11,-420.97 151.18,-406.08 142.68,-393.32"/>
<polygon fill="black" stroke="black" points="145.82,-391.73 137.36,-385.35 140,-395.61 145.82,-391.73"/>
</g>
<!-- table::contains_box -->
<g id="node18" class="node">
<title>table::contains_box</title>
<ellipse fill="none" stroke="black" cx="995.13" cy="-366" rx="57.69" ry="18"/>
<text text-anchor="middle" x="995.13" y="-362.3" font-family="Times,serif" font-size="14.00">contains_box</text>
</g>
<!-- table::contains&#45;&gt;table::contains_box -->
<g id="edge17" class="edge">
<title>table::contains&#45;&gt;table::contains_box</title>
<path fill="none" stroke="black" d="M1082.26,-432.95C1066.3,-420.88 1043.64,-403.72 1025.42,-389.93"/>
<polygon fill="black" stroke="black" points="1027.66,-387.23 1017.57,-383.99 1023.43,-392.81 1027.66,-387.23"/>
</g>
<!-- table::borrow_box_mut -->
<g id="node19" class="node">
<title>table::borrow_box_mut</title>
<ellipse fill="none" stroke="black" cx="1269.13" cy="-366" rx="72.29" ry="18"/>
<text text-anchor="middle" x="1269.13" y="-362.3" font-family="Times,serif" font-size="14.00">borrow_box_mut</text>
</g>
<!-- table::borrow_mut&#45;&gt;table::borrow_box_mut -->
<g id="edge18" class="edge">
<title>table::borrow_mut&#45;&gt;table::borrow_box_mut</title>
<path fill="none" stroke="black" d="M1298.28,-430.82C1293.48,-420.3 1287.21,-406.59 1281.72,-394.57"/>
<polygon fill="black" stroke="black" points="1284.93,-393.17 1277.6,-385.53 1278.57,-396.08 1284.93,-393.17"/>
</g>
<!-- table::remove_box -->
<g id="node20" class="node">
<title>table::remove_box</title>
<ellipse fill="none" stroke="black" cx="1414.13" cy="-366" rx="55.49" ry="18"/>
<text text-anchor="middle" x="1414.13" y="-362.3" font-family="Times,serif" font-size="14.00">remove_box</text>
</g>
<!-- table::remove&#45;&gt;table::remove_box -->
<g id="edge19" class="edge">
<title>table::remove&#45;&gt;table::remove_box</title>
<path fill="none" stroke="black" d="M1415.71,-430.82C1415.46,-420.69 1415.13,-407.6 1414.84,-395.92"/>
<polygon fill="black" stroke="black" points="1418.34,-395.86 1414.6,-385.95 1411.35,-396.03 1418.34,-395.86"/>
</g>
<!-- signer::borrow_address -->
<g id="node21" class="node">
<title>signer::borrow_address</title>
<ellipse fill="none" stroke="black" cx="1744.13" cy="-532" rx="66.89" ry="18"/>
<text text-anchor="middle" x="1744.13" y="-528.3" font-family="Times,serif" font-size="14.00">borrow_address</text>
</g>
<!-- signer::address_of&#45;&gt;signer::borrow_address -->
<g id="edge20" class="edge">
<title>signer::address_of&#45;&gt;signer::borrow_address</title>
<path fill="none" stroke="black" d="M1737.26,-588.7C1738.25,-580.67 1739.46,-570.9 1740.58,-561.8"/>
<polygon fill="black" stroke="black" points="1744.05,-562.28 1741.8,-551.93 1737.1,-561.43 1744.05,-562.28"/>
</g>
<!-- error::canonical -->
<g id="node22" class="node">
<title>error::canonical</title>
<ellipse fill="none" stroke="black" cx="1479.13" cy="-200" rx="44.39" ry="18"/>
<text text-anchor="middle" x="1479.13" y="-196.3" font-family="Times,serif" font-size="14.00">canonical</text>
</g>
<!-- error::invalid_argument&#45;&gt;error::canonical -->
<g id="edge21" class="edge">
<title>error::invalid_argument&#45;&gt;error::canonical</title>
<path fill="none" stroke="black" d="M1310.1,-267.14C1346.11,-253.05 1400.1,-231.92 1437.33,-217.36"/>
<polygon fill="black" stroke="black" points="1438.38,-220.7 1446.42,-213.8 1435.83,-214.18 1438.38,-220.7"/>
</g>
<!-- error::not_found&#45;&gt;error::canonical -->
<g id="edge22" class="edge">
<title>error::not_found&#45;&gt;error::canonical</title>
<path fill="none" stroke="black" d="M1527.49,-265.22C1519.09,-254.07 1507.91,-239.21 1498.41,-226.6"/>
<polygon fill="black" stroke="black" points="1501.27,-224.58 1492.46,-218.69 1495.68,-228.79 1501.27,-224.58"/>
</g>
<!-- error::permission_denied&#45;&gt;error::canonical -->
<g id="edge23" class="edge">
<title>error::permission_denied&#45;&gt;error::canonical</title>
<path fill="none" stroke="black" d="M1644.42,-266.95C1609.15,-252.88 1556.59,-231.91 1520.25,-217.41"/>
<polygon fill="black" stroke="black" points="1521.99,-214.33 1511.4,-213.88 1519.39,-220.83 1521.99,-214.33"/>
</g>
<!-- bcs::to_bytes -->
<g id="node23" class="node">
<title>bcs::to_bytes</title>
<ellipse fill="none" stroke="black" cx="907.13" cy="-117" rx="40.09" ry="18"/>
<text text-anchor="middle" x="907.13" y="-113.3" font-family="Times,serif" font-size="14.00">to_bytes</text>
</g>
<!-- event::emit_event&#45;&gt;bcs::to_bytes -->
<g id="edge24" class="edge">
<title>event::emit_event&#45;&gt;bcs::to_bytes</title>
<path fill="none" stroke="black" d="M868.11,-518.89C877.48,-513.91 886.55,-507.1 892.13,-498 928.09,-439.37 915.45,-224.46 909.5,-146.5"/>
<polygon fill="black" stroke="black" points="913.01,-146.41 908.73,-136.71 906.03,-146.96 913.01,-146.41"/>
</g>
<!-- event::write_to_event_store -->
<g id="node24" class="node">
<title>event::write_to_event_store</title>
<ellipse fill="none" stroke="black" cx="798.13" cy="-449" rx="85.29" ry="18"/>
<text text-anchor="middle" x="798.13" y="-445.3" font-family="Times,serif" font-size="14.00">write_to_event_store</text>
</g>
<!-- event::emit_event&#45;&gt;event::write_to_event_store -->
<g id="edge25" class="edge">
<title>event::emit_event&#45;&gt;event::write_to_event_store</title>
<path fill="none" stroke="black" d="M825.71,-513.82C821.16,-503.3 815.24,-489.59 810.04,-477.57"/>
<polygon fill="black" stroke="black" points="813.32,-476.33 806.14,-468.54 806.9,-479.11 813.32,-476.33"/>
</g>
<!-- simple_map::contains_key -->
<g id="node25" class="node">
<title>simple_map::contains_key</title>
<ellipse fill="none" stroke="black" cx="613.13" cy="-366" rx="57.39" ry="18"/>
<text text-anchor="middle" x="613.13" y="-362.3" font-family="Times,serif" font-size="14.00">contains_key</text>
</g>
<!-- property_map::contains_key&#45;&gt;simple_map::contains_key -->
<g id="edge26" class="edge">
<title>property_map::contains_key&#45;&gt;simple_map::contains_key</title>
<path fill="none" stroke="black" d="M505.82,-366C518.57,-366 531.32,-366 544.07,-366"/>
<polygon fill="black" stroke="black" points="543.77,-369.5 553.77,-366 543.77,-362.5 543.77,-369.5"/>
</g>
<!-- property_map::read_bool&#45;&gt;string::utf8 -->
<g id="edge27" class="edge">
<title>property_map::read_bool&#45;&gt;string::utf8</title>
<path fill="none" stroke="black" d="M362.66,-522.24C338.59,-517.09 307.18,-510.68 279.13,-506 252.16,-501.5 242,-511.34 218.13,-498 208.6,-492.67 200.48,-484 194.16,-475.48"/>
<polygon fill="black" stroke="black" points="197.17,-473.68 188.66,-467.37 191.38,-477.61 197.17,-473.68"/>
</g>
<!-- error::invalid_state -->
<g id="node26" class="node">
<title>error::invalid_state</title>
<ellipse fill="none" stroke="black" cx="1419.13" cy="-283" rx="55.79" ry="18"/>
<text text-anchor="middle" x="1419.13" y="-279.3" font-family="Times,serif" font-size="14.00">invalid_state</text>
</g>
<!-- property_map::read_bool&#45;&gt;error::invalid_state -->
<g id="edge28" class="edge">
<title>property_map::read_bool&#45;&gt;error::invalid_state</title>
<path fill="none" stroke="black" d="M429.66,-517.13C438.3,-513.15 447.98,-509.06 457.13,-506 472.68,-500.8 477.39,-502.57 493.13,-498 587.51,-470.62 604.8,-442.43 701.13,-423 734.72,-416.23 824.07,-429.47 855.13,-415 896.46,-395.75 883.48,-358.56 925.13,-340 968.68,-320.59 1308.99,-347.33 1354.13,-332 1368.91,-326.98 1383.12,-317.26 1394.46,-307.87"/>
<polygon fill="black" stroke="black" points="1396.53,-310.71 1401.76,-301.5 1391.93,-305.44 1396.53,-310.71"/>
</g>
<!-- from_bcs::to_bool -->
<g id="node27" class="node">
<title>from_bcs::to_bool</title>
<ellipse fill="none" stroke="black" cx="286.13" cy="-449" rx="37.89" ry="18"/>
<text text-anchor="middle" x="286.13" y="-445.3" font-family="Times,serif" font-size="14.00">to_bool</text>
</g>
<!-- property_map::read_bool&#45;&gt;from_bcs::to_bool -->
<g id="edge29" class="edge">
<title>property_map::read_bool&#45;&gt;from_bcs::to_bool</title>
<path fill="none" stroke="black" d="M375.27,-516.99C365.26,-511.45 353.95,-504.78 344.13,-498 333.1,-490.38 321.59,-481.16 311.76,-472.84"/>
<polygon fill="black" stroke="black" points="314.28,-470.39 304.42,-466.52 309.72,-475.7 314.28,-470.39"/>
</g>
<!-- property_map::borrow -->
<g id="node28" class="node">
<title>property_map::borrow</title>
<ellipse fill="none" stroke="black" cx="448.13" cy="-449" rx="36.29" ry="18"/>
<text text-anchor="middle" x="448.13" y="-445.3" font-family="Times,serif" font-size="14.00">borrow</text>
</g>
<!-- property_map::read_bool&#45;&gt;property_map::borrow -->
<g id="edge30" class="edge">
<title>property_map::read_bool&#45;&gt;property_map::borrow</title>
<path fill="none" stroke="black" d="M411.66,-514.22C417.83,-503.36 425.99,-488.98 433.03,-476.59"/>
<polygon fill="black" stroke="black" points="435.97,-478.5 437.86,-468.08 429.88,-475.05 435.97,-478.5"/>
</g>
<!-- create_token_data_id -->
<g id="node29" class="node">
<title>create_token_data_id</title>
<ellipse fill="none" stroke="black" cx="89.13" cy="-532" rx="85.59" ry="18"/>
<text text-anchor="middle" x="89.13" y="-528.3" font-family="Times,serif" font-size="14.00">create_token_data_id</text>
</g>
<!-- create_token_id_raw&#45;&gt;create_token_data_id -->
<g id="edge31" class="edge">
<title>create_token_id_raw&#45;&gt;create_token_data_id</title>
<path fill="none" stroke="black" d="M99.05,-588.7C97.6,-580.58 95.84,-570.68 94.21,-561.5"/>
<polygon fill="black" stroke="black" points="97.7,-561.15 92.5,-551.92 90.81,-562.38 97.7,-561.15"/>
</g>
<!-- withdraw_with_event_internal&#45;&gt;table::contains -->
<g id="edge32" class="edge">
<title>withdraw_with_event_internal&#45;&gt;table::contains</title>
<path fill="none" stroke="black" d="M1208.58,-596.52C1186.91,-592.82 1167.79,-587.78 1159.13,-581 1142.2,-567.74 1122.06,-512.34 1110.82,-477.97"/>
<polygon fill="black" stroke="black" points="1114.22,-477.11 1107.83,-468.66 1107.55,-479.25 1114.22,-477.11"/>
</g>
<!-- withdraw_with_event_internal&#45;&gt;table::borrow_mut -->
<g id="edge33" class="edge">
<title>withdraw_with_event_internal&#45;&gt;table::borrow_mut</title>
<path fill="none" stroke="black" d="M1306.13,-588.71C1306.13,-562.12 1306.13,-510.9 1306.13,-478.69"/>
<polygon fill="black" stroke="black" points="1309.63,-478.88 1306.13,-468.88 1302.63,-478.88 1309.63,-478.88"/>
</g>
<!-- withdraw_with_event_internal&#45;&gt;table::remove -->
<g id="edge34" class="edge">
<title>withdraw_with_event_internal&#45;&gt;table::remove</title>
<path fill="none" stroke="black" d="M1318.32,-588.71C1337.69,-561.25 1375.58,-507.51 1398.09,-475.58"/>
<polygon fill="black" stroke="black" points="1400.77,-477.85 1403.68,-467.66 1395.05,-473.82 1400.77,-477.85"/>
</g>
<!-- withdraw_with_event_internal&#45;&gt;error::invalid_argument -->
<g id="edge35" class="edge">
<title>withdraw_with_event_internal&#45;&gt;error::invalid_argument</title>
<path fill="none" stroke="black" d="M1358.18,-590.39C1400.24,-574.63 1456.37,-545.69 1481.13,-498 1513.49,-435.68 1529.2,-391.19 1481.13,-340 1471.45,-329.69 1367.65,-336.13 1354.13,-332 1336.01,-326.47 1317.65,-316.24 1302.9,-306.64"/>
<polygon fill="black" stroke="black" points="1305.28,-304.02 1295.03,-301.33 1301.36,-309.82 1305.28,-304.02"/>
</g>
<!-- withdraw_with_event_internal&#45;&gt;error::not_found -->
<g id="edge36" class="edge">
<title>withdraw_with_event_internal&#45;&gt;error::not_found</title>
<path fill="none" stroke="black" d="M1351.48,-589.96C1391.84,-573.3 1449.28,-543.25 1481.13,-498 1521.5,-440.66 1534.29,-356.71 1538.31,-312.95"/>
<polygon fill="black" stroke="black" points="1541.8,-313.24 1539.12,-302.99 1534.82,-312.67 1541.8,-313.24"/>
</g>
<!-- withdraw_with_event_internal&#45;&gt;event::emit_event -->
<g id="edge37" class="edge">
<title>withdraw_with_event_internal&#45;&gt;event::emit_event</title>
<path fill="none" stroke="black" d="M1219.55,-594.41C1189.9,-590.33 1156.55,-585.6 1126.13,-581 1043.47,-568.49 947.94,-552.57 889.03,-542.57"/>
<polygon fill="black" stroke="black" points="889.69,-539.14 879.24,-540.91 888.52,-546.04 889.69,-539.14"/>
</g>
<!-- property_map::empty -->
<g id="node30" class="node">
<title>property_map::empty</title>
<ellipse fill="none" stroke="black" cx="499.13" cy="-532" rx="33.29" ry="18"/>
<text text-anchor="middle" x="499.13" y="-528.3" font-family="Times,serif" font-size="14.00">empty</text>
</g>
<!-- withdraw_with_event_internal&#45;&gt;property_map::empty -->
<g id="edge38" class="edge">
<title>withdraw_with_event_internal&#45;&gt;property_map::empty</title>
<path fill="none" stroke="black" d="M1189.48,-603.84C1040.8,-600.63 792.12,-593.57 701.13,-581 643.97,-573.1 579.32,-556.31 538.89,-544.84"/>
<polygon fill="black" stroke="black" points="539.93,-541.5 529.36,-542.1 538,-548.23 539.93,-541.5"/>
</g>
<!-- balance_of -->
<g id="node31" class="node">
<title>balance_of</title>
<ellipse fill="none" stroke="black" cx="1217.13" cy="-532" rx="49.29" ry="18"/>
<text text-anchor="middle" x="1217.13" y="-528.3" font-family="Times,serif" font-size="14.00">balance_of</text>
</g>
<!-- withdraw_with_event_internal&#45;&gt;balance_of -->
<g id="edge39" class="edge">
<title>withdraw_with_event_internal&#45;&gt;balance_of</title>
<path fill="none" stroke="black" d="M1285.49,-589.07C1273.47,-579.21 1258.16,-566.65 1245.08,-555.92"/>
<polygon fill="black" stroke="black" points="1247.56,-553.44 1237.61,-549.8 1243.12,-558.85 1247.56,-553.44"/>
</g>
<!-- option::is_some -->
<g id="node32" class="node">
<title>option::is_some</title>
<ellipse fill="none" stroke="black" cx="403.13" cy="-117" rx="40.09" ry="18"/>
<text text-anchor="middle" x="403.13" y="-113.3" font-family="Times,serif" font-size="14.00">is_some</text>
</g>
<!-- simple_map::contains_key&#45;&gt;option::is_some -->
<g id="edge40" class="edge">
<title>simple_map::contains_key&#45;&gt;option::is_some</title>
<path fill="none" stroke="black" d="M580.38,-350.77C569.11,-346.51 556.26,-342.36 544.13,-340 531.96,-337.64 329.74,-340.92 321.13,-332 272.37,-281.46 288.34,-236.1 321.13,-174 330.26,-156.7 347.41,-143.74 363.67,-134.67"/>
<polygon fill="black" stroke="black" points="364.99,-137.92 372.25,-130.21 361.76,-131.71 364.99,-137.92"/>
</g>
<!-- simple_map::find -->
<g id="node33" class="node">
<title>simple_map::find</title>
<ellipse fill="none" stroke="black" cx="631.13" cy="-283" rx="27" ry="18"/>
<text text-anchor="middle" x="631.13" y="-279.3" font-family="Times,serif" font-size="14.00">find</text>
</g>
<!-- simple_map::contains_key&#45;&gt;simple_map::find -->
<g id="edge41" class="edge">
<title>simple_map::contains_key&#45;&gt;simple_map::find</title>
<path fill="none" stroke="black" d="M616.95,-347.82C619.24,-337.51 622.21,-324.14 624.84,-312.31"/>
<polygon fill="black" stroke="black" points="628.24,-313.15 626.99,-302.63 621.4,-311.63 628.24,-313.15"/>
</g>
<!-- error::invalid_state&#45;&gt;error::canonical -->
<g id="edge42" class="edge">
<title>error::invalid_state&#45;&gt;error::canonical</title>
<path fill="none" stroke="black" d="M1431.56,-265.22C1439.77,-254.14 1450.68,-239.41 1459.99,-226.85"/>
<polygon fill="black" stroke="black" points="1462.67,-229.1 1465.81,-218.98 1457.05,-224.93 1462.67,-229.1"/>
</g>
<!-- from_bcs::from_bytes -->
<g id="node34" class="node">
<title>from_bcs::from_bytes</title>
<ellipse fill="none" stroke="black" cx="281.13" cy="-366" rx="51.19" ry="18"/>
<text text-anchor="middle" x="281.13" y="-362.3" font-family="Times,serif" font-size="14.00">from_bytes</text>
</g>
<!-- from_bcs::to_bool&#45;&gt;from_bcs::from_bytes -->
<g id="edge43" class="edge">
<title>from_bcs::to_bool&#45;&gt;from_bcs::from_bytes</title>
<path fill="none" stroke="black" d="M285.07,-430.82C284.44,-420.69 283.64,-407.6 282.92,-395.92"/>
<polygon fill="black" stroke="black" points="286.41,-395.71 282.3,-385.94 279.42,-396.14 286.41,-395.71"/>
</g>
<!-- property_map::borrow&#45;&gt;property_map::contains_key -->
<g id="edge45" class="edge">
<title>property_map::borrow&#45;&gt;property_map::contains_key</title>
<path fill="none" stroke="black" d="M448.13,-430.82C448.13,-420.69 448.13,-407.6 448.13,-395.92"/>
<polygon fill="black" stroke="black" points="451.63,-395.95 448.13,-385.95 444.63,-395.95 451.63,-395.95"/>
</g>
<!-- simple_map::borrow -->
<g id="node35" class="node">
<title>simple_map::borrow</title>
<ellipse fill="none" stroke="black" cx="725.13" cy="-366" rx="36.29" ry="18"/>
<text text-anchor="middle" x="725.13" y="-362.3" font-family="Times,serif" font-size="14.00">borrow</text>
</g>
<!-- property_map::borrow&#45;&gt;simple_map::borrow -->
<g id="edge44" class="edge">
<title>property_map::borrow&#45;&gt;simple_map::borrow</title>
<path fill="none" stroke="black" d="M479.97,-440.01C503.6,-434.38 536.68,-427.14 566.13,-423 591.06,-419.49 656.34,-425.69 679.13,-415 689.99,-409.91 699.61,-401.04 707.21,-392.3"/>
<polygon fill="black" stroke="black" points="709.88,-394.57 713.42,-384.59 704.42,-390.18 709.88,-394.57"/>
</g>
<!-- create_token_data_id&#45;&gt;error::invalid_argument -->
<g id="edge47" class="edge">
<title>create_token_data_id&#45;&gt;error::invalid_argument</title>
<path fill="none" stroke="black" d="M49.78,-515.61C42.73,-511.02 36.3,-505.23 32.13,-498 -2.94,-437.16 -17.28,-389.9 32.13,-340 40.17,-331.88 843.72,-332.71 855.13,-332 976.18,-324.47 1116.07,-306.44 1199.15,-294.75"/>
<polygon fill="black" stroke="black" points="1199.58,-298.23 1208.99,-293.36 1198.6,-291.29 1199.58,-298.23"/>
</g>
<!-- string::length -->
<g id="node36" class="node">
<title>string::length</title>
<ellipse fill="none" stroke="black" cx="89.13" cy="-449" rx="32.49" ry="18"/>
<text text-anchor="middle" x="89.13" y="-445.3" font-family="Times,serif" font-size="14.00">length</text>
</g>
<!-- create_token_data_id&#45;&gt;string::length -->
<g id="edge46" class="edge">
<title>create_token_data_id&#45;&gt;string::length</title>
<path fill="none" stroke="black" d="M89.13,-513.82C89.13,-503.69 89.13,-490.6 89.13,-478.92"/>
<polygon fill="black" stroke="black" points="92.63,-478.95 89.13,-468.95 85.63,-478.95 92.63,-478.95"/>
</g>
<!-- simple_map::create -->
<g id="node37" class="node">
<title>simple_map::create</title>
<ellipse fill="none" stroke="black" cx="811.13" cy="-366" rx="31.7" ry="18"/>
<text text-anchor="middle" x="811.13" y="-362.3" font-family="Times,serif" font-size="14.00">create</text>
</g>
<!-- property_map::empty&#45;&gt;simple_map::create -->
<g id="edge48" class="edge">
<title>property_map::empty&#45;&gt;simple_map::create</title>
<path fill="none" stroke="black" d="M518.93,-517.1C553.88,-493.36 629.59,-445.38 701.13,-423 730.59,-413.78 742.89,-429.52 770.13,-415 780.07,-409.7 788.64,-400.92 795.34,-392.3"/>
<polygon fill="black" stroke="black" points="798,-394.59 800.97,-384.42 792.31,-390.53 798,-394.59"/>
</g>
<!-- balance_of&#45;&gt;table::contains -->
<g id="edge49" class="edge">
<title>balance_of&#45;&gt;table::contains</title>
<path fill="none" stroke="black" d="M1186.29,-517.65C1175.11,-512.23 1162.66,-505.47 1152.13,-498 1142.37,-491.07 1132.65,-482.28 1124.41,-474.12"/>
<polygon fill="black" stroke="black" points="1126.97,-471.74 1117.47,-467.04 1121.97,-476.63 1126.97,-471.74"/>
</g>
<!-- table::borrow -->
<g id="node38" class="node">
<title>table::borrow</title>
<ellipse fill="none" stroke="black" cx="1197.13" cy="-449" rx="36.29" ry="18"/>
<text text-anchor="middle" x="1197.13" y="-445.3" font-family="Times,serif" font-size="14.00">borrow</text>
</g>
<!-- balance_of&#45;&gt;table::borrow -->
<g id="edge50" class="edge">
<title>balance_of&#45;&gt;table::borrow</title>
<path fill="none" stroke="black" d="M1212.89,-513.82C1210.34,-503.51 1207.04,-490.14 1204.12,-478.31"/>
<polygon fill="black" stroke="black" points="1207.52,-477.49 1201.73,-468.62 1200.73,-479.17 1207.52,-477.49"/>
</g>
<!-- vector::is_empty -->
<g id="node39" class="node">
<title>vector::is_empty</title>
<ellipse fill="none" stroke="black" cx="426.13" cy="-34" rx="43.59" ry="18"/>
<text text-anchor="middle" x="426.13" y="-30.3" font-family="Times,serif" font-size="14.00">is_empty</text>
</g>
<!-- option::is_some&#45;&gt;vector::is_empty -->
<g id="edge51" class="edge">
<title>option::is_some&#45;&gt;vector::is_empty</title>
<path fill="none" stroke="black" d="M408.01,-98.82C410.97,-88.41 414.81,-74.87 418.2,-62.94"/>
<polygon fill="black" stroke="black" points="421.48,-64.19 420.85,-53.61 414.75,-62.27 421.48,-64.19"/>
</g>
<!-- option::none -->
<g id="node40" class="node">
<title>option::none</title>
<ellipse fill="none" stroke="black" cx="477.13" cy="-200" rx="27.9" ry="18"/>
<text text-anchor="middle" x="477.13" y="-196.3" font-family="Times,serif" font-size="14.00">none</text>
</g>
<!-- simple_map::find&#45;&gt;option::none -->
<g id="edge52" class="edge">
<title>simple_map::find&#45;&gt;option::none</title>
<path fill="none" stroke="black" d="M604.49,-279.34C579.37,-275.77 541.58,-267.56 514.13,-249 505.7,-243.3 498.36,-235.06 492.49,-227.01"/>
<polygon fill="black" stroke="black" points="495.41,-225.08 486.93,-218.73 489.6,-228.98 495.41,-225.08"/>
</g>
<!-- option::some -->
<g id="node41" class="node">
<title>option::some</title>
<ellipse fill="none" stroke="black" cx="553.13" cy="-200" rx="29.8" ry="18"/>
<text text-anchor="middle" x="553.13" y="-196.3" font-family="Times,serif" font-size="14.00">some</text>
</g>
<!-- simple_map::find&#45;&gt;option::some -->
<g id="edge53" class="edge">
<title>simple_map::find&#45;&gt;option::some</title>
<path fill="none" stroke="black" d="M615.36,-268.23C608.94,-262.45 601.53,-255.55 595.13,-249 587.79,-241.49 580.12,-232.95 573.38,-225.18"/>
<polygon fill="black" stroke="black" points="576.1,-222.99 566.94,-217.67 570.79,-227.54 576.1,-222.99"/>
</g>
<!-- comparator::compare -->
<g id="node42" class="node">
<title>comparator::compare</title>
<ellipse fill="none" stroke="black" cx="649.13" cy="-200" rx="41.69" ry="18"/>
<text text-anchor="middle" x="649.13" y="-196.3" font-family="Times,serif" font-size="14.00">compare</text>
</g>
<!-- simple_map::find&#45;&gt;comparator::compare -->
<g id="edge54" class="edge">
<title>simple_map::find&#45;&gt;comparator::compare</title>
<path fill="none" stroke="black" d="M634.95,-264.82C637.24,-254.51 640.21,-241.14 642.84,-229.31"/>
<polygon fill="black" stroke="black" points="646.24,-230.15 644.99,-219.63 639.4,-228.63 646.24,-230.15"/>
</g>
<!-- comparator::is_smaller_than -->
<g id="node43" class="node">
<title>comparator::is_smaller_than</title>
<ellipse fill="none" stroke="black" cx="776.13" cy="-200" rx="66.89" ry="18"/>
<text text-anchor="middle" x="776.13" y="-196.3" font-family="Times,serif" font-size="14.00">is_smaller_than</text>
</g>
<!-- simple_map::find&#45;&gt;comparator::is_smaller_than -->
<g id="edge55" class="edge">
<title>simple_map::find&#45;&gt;comparator::is_smaller_than</title>
<path fill="none" stroke="black" d="M653.22,-272.24C666.92,-265.98 684.79,-257.48 700.13,-249 714.39,-241.12 729.66,-231.69 742.74,-223.28"/>
<polygon fill="black" stroke="black" points="744.52,-226.29 751,-217.91 740.7,-220.43 744.52,-226.29"/>
</g>
<!-- simple_map::borrow&#45;&gt;error::invalid_argument -->
<g id="edge58" class="edge">
<title>simple_map::borrow&#45;&gt;error::invalid_argument</title>
<path fill="none" stroke="black" d="M746.29,-350.89C753.56,-346.69 761.94,-342.54 770.13,-340 806.38,-328.77 817.39,-335.95 855.13,-332 974.37,-319.53 1112.56,-303.26 1196.11,-293.23"/>
<polygon fill="black" stroke="black" points="1196.51,-296.71 1206.02,-292.04 1195.68,-289.76 1196.51,-296.71"/>
</g>
<!-- simple_map::borrow&#45;&gt;option::is_some -->
<g id="edge57" class="edge">
<title>simple_map::borrow&#45;&gt;option::is_some</title>
<path fill="none" stroke="black" d="M704.01,-350.86C696.48,-346.55 687.72,-342.34 679.13,-340 629.15,-326.38 494.16,-351.42 446.13,-332 395.07,-311.36 376.51,-299.32 354.13,-249 340.59,-218.54 342.41,-205.2 354.13,-174 358.76,-161.69 367.46,-150.31 376.26,-141.07"/>
<polygon fill="black" stroke="black" points="378.49,-143.78 383.17,-134.28 373.58,-138.79 378.49,-143.78"/>
</g>
<!-- simple_map::borrow&#45;&gt;simple_map::find -->
<g id="edge59" class="edge">
<title>simple_map::borrow&#45;&gt;simple_map::find</title>
<path fill="none" stroke="black" d="M707.89,-350.14C693.31,-337.58 672.24,-319.43 655.87,-305.31"/>
<polygon fill="black" stroke="black" points="658.33,-302.81 648.47,-298.94 653.76,-308.12 658.33,-302.81"/>
</g>
<!-- option::extract -->
<g id="node44" class="node">
<title>option::extract</title>
<ellipse fill="none" stroke="black" cx="397.13" cy="-200" rx="34.39" ry="18"/>
<text text-anchor="middle" x="397.13" y="-196.3" font-family="Times,serif" font-size="14.00">extract</text>
</g>
<!-- simple_map::borrow&#45;&gt;option::extract -->
<g id="edge56" class="edge">
<title>simple_map::borrow&#45;&gt;option::extract</title>
<path fill="none" stroke="black" d="M703.93,-351.16C696.39,-346.87 687.65,-342.6 679.13,-340 643.26,-329.05 631.03,-342.84 595.13,-332 520.32,-309.41 501.58,-297.28 440.13,-249 431.57,-242.27 423.3,-233.72 416.34,-225.7"/>
<polygon fill="black" stroke="black" points="419.15,-223.61 410.06,-218.17 413.77,-228.09 419.15,-223.61"/>
</g>
<!-- table::borrow_box -->
<g id="node45" class="node">
<title>table::borrow_box</title>
<ellipse fill="none" stroke="black" cx="1125.13" cy="-366" rx="53.89" ry="18"/>
<text text-anchor="middle" x="1125.13" y="-362.3" font-family="Times,serif" font-size="14.00">borrow_box</text>
</g>
<!-- table::borrow&#45;&gt;table::borrow_box -->
<g id="edge60" class="edge">
<title>table::borrow&#45;&gt;table::borrow_box</title>
<path fill="none" stroke="black" d="M1182.91,-432C1172.78,-420.61 1158.98,-405.08 1147.41,-392.06"/>
<polygon fill="black" stroke="black" points="1150.09,-389.81 1140.83,-384.66 1144.85,-394.46 1150.09,-389.81"/>
</g>
<!-- vector::singleton -->
<g id="node46" class="node">
<title>vector::singleton</title>
<ellipse fill="none" stroke="black" cx="530.13" cy="-34" rx="42.79" ry="18"/>
<text text-anchor="middle" x="530.13" y="-30.3" font-family="Times,serif" font-size="14.00">singleton</text>
</g>
<!-- option::some&#45;&gt;vector::singleton -->
<g id="edge61" class="edge">
<title>option::some&#45;&gt;vector::singleton</title>
<path fill="none" stroke="black" d="M550.71,-181.76C546.75,-153.51 538.84,-97.11 534.06,-63.04"/>
<polygon fill="black" stroke="black" points="537.58,-62.93 532.73,-53.51 530.65,-63.9 537.58,-62.93"/>
</g>
<!-- comparator::compare&#45;&gt;bcs::to_bytes -->
<g id="edge62" class="edge">
<title>comparator::compare&#45;&gt;bcs::to_bytes</title>
<path fill="none" stroke="black" d="M673,-184.83C681.31,-180.57 690.87,-176.4 700.13,-174 733.52,-165.34 823.34,-179.38 855.13,-166 867.14,-160.94 878.13,-151.83 886.88,-142.9"/>
<polygon fill="black" stroke="black" points="889.35,-145.38 893.52,-135.64 884.19,-140.66 889.35,-145.38"/>
</g>
<!-- comparator::compare_u8_vector -->
<g id="node47" class="node">
<title>comparator::compare_u8_vector</title>
<ellipse fill="none" stroke="black" cx="688.13" cy="-117" rx="81.49" ry="18"/>
<text text-anchor="middle" x="688.13" y="-113.3" font-family="Times,serif" font-size="14.00">compare_u8_vector</text>
</g>
<!-- comparator::compare&#45;&gt;comparator::compare_u8_vector -->
<g id="edge63" class="edge">
<title>comparator::compare&#45;&gt;comparator::compare_u8_vector</title>
<path fill="none" stroke="black" d="M657.21,-182.22C662.32,-171.61 669.04,-157.65 674.91,-145.45"/>
<polygon fill="black" stroke="black" points="677.95,-147.21 679.13,-136.68 671.64,-144.18 677.95,-147.21"/>
</g>
<!-- option::extract&#45;&gt;option::is_some -->
<g id="edge64" class="edge">
<title>option::extract&#45;&gt;option::is_some</title>
<path fill="none" stroke="black" d="M398.4,-181.82C399.16,-171.58 400.14,-158.33 401.02,-146.55"/>
<polygon fill="black" stroke="black" points="404.48,-147.17 401.73,-136.94 397.5,-146.66 404.48,-147.17"/>
</g>
</g>
</svg>
