<?xml version="1.0" encoding="UTF-8" standalone="no"?>
<!DOCTYPE svg PUBLIC "-//W3C//DTD SVG 1.1//EN"
 "http://www.w3.org/Graphics/SVG/1.1/DTD/svg11.dtd">
<!-- Generated by graphviz version 7.0.0 (20221023.0053)
 -->
<!-- Title: G Pages: 1 -->
<svg width="1459pt" height="373pt"
 viewBox="0.00 0.00 1458.94 373.00" xmlns="http://www.w3.org/2000/svg" xmlns:xlink="http://www.w3.org/1999/xlink">
<g id="graph0" class="graph" transform="scale(1 1) rotate(0) translate(4 369)">
<title>G</title>
<polygon fill="white" stroke="none" points="-4,4 -4,-369 1454.94,-369 1454.94,4 -4,4"/>
<g id="clust1" class="cluster">
<title>cluster_table</title>
<polygon fill="none" stroke="black" points="8,-80 8,-238 402,-238 402,-80 8,-80"/>
<text text-anchor="middle" x="205" y="-222.8" font-family="Times,serif" font-size="14.00">table</text>
</g>
<g id="clust2" class="cluster">
<title>cluster_signer</title>
<polygon fill="none" stroke="black" points="1058,-163 1058,-321 1208,-321 1208,-163 1058,-163"/>
<text text-anchor="middle" x="1133" y="-305.8" font-family="Times,serif" font-size="14.00">signer</text>
</g>
<g id="clust3" class="cluster">
<title>cluster_error</title>
<polygon fill="none" stroke="black" points="410,-8 410,-155 856,-155 856,-8 410,-8"/>
<text text-anchor="middle" x="633" y="-139.8" font-family="Times,serif" font-size="14.00">error</text>
</g>
<g id="clust4" class="cluster">
<title>cluster_event</title>
<polygon fill="none" stroke="black" points="864,-80 864,-238 1050,-238 1050,-80 864,-80"/>
<text text-anchor="middle" x="957" y="-222.8" font-family="Times,serif" font-size="14.00">event</text>
</g>
<g id="clust5" class="cluster">
<title>cluster_property_map</title>
<polygon fill="none" stroke="black" points="1216,-246 1216,-321 1309,-321 1309,-246 1216,-246"/>
<text text-anchor="middle" x="1262.5" y="-305.8" font-family="Times,serif" font-size="14.00">property_map</text>
</g>
<g id="clust6" class="cluster">
<title>cluster_bcs</title>
<polygon fill="none" stroke="black" points="1058,-80 1058,-155 1154,-155 1154,-80 1058,-80"/>
<text text-anchor="middle" x="1106" y="-139.8" font-family="Times,serif" font-size="14.00">bcs</text>
</g>
<g id="clust7" class="cluster">
<title>cluster_simple_map</title>
<polygon fill="none" stroke="black" points="1217,-163 1217,-238 1301,-238 1301,-163 1217,-163"/>
<text text-anchor="middle" x="1259" y="-222.8" font-family="Times,serif" font-size="14.00">simple_map</text>
</g>
<!-- mint_token_to -->
<g id="node1" class="node">
<title>mint_token_to</title>
<ellipse fill="none" stroke="black" cx="674" cy="-347" rx="62.29" ry="18"/>
<text text-anchor="middle" x="674" y="-343.3" font-family="Times,serif" font-size="14.00">mint_token_to</text>
</g>
<!-- table::contains -->
<g id="node2" class="node">
<title>table::contains</title>
<ellipse fill="none" stroke="black" cx="154" cy="-189" rx="40.09" ry="18"/>
<text text-anchor="middle" x="154" y="-185.3" font-family="Times,serif" font-size="14.00">contains</text>
</g>
<!-- mint_token_to&#45;&gt;table::contains -->
<g id="edge1" class="edge">
<title>mint_token_to&#45;&gt;table::contains</title>
<path fill="none" stroke="black" d="M611.45,-346.02C522.47,-345.33 364.24,-341.16 311,-321 253.29,-299.14 201.56,-246.56 174.3,-215.07"/>
<polygon fill="black" stroke="black" points="177.07,-212.92 167.94,-207.56 171.73,-217.45 177.07,-212.92"/>
</g>
<!-- table::borrow_mut -->
<g id="node3" class="node">
<title>table::borrow_mut</title>
<ellipse fill="none" stroke="black" cx="267" cy="-189" rx="54.69" ry="18"/>
<text text-anchor="middle" x="267" y="-185.3" font-family="Times,serif" font-size="14.00">borrow_mut</text>
</g>
<!-- mint_token_to&#45;&gt;table::borrow_mut -->
<g id="edge2" class="edge">
<title>mint_token_to&#45;&gt;table::borrow_mut</title>
<path fill="none" stroke="black" d="M611.76,-344.7C545.05,-342.5 444.03,-336.63 409,-321 356.53,-297.6 310.71,-246.87 286.12,-215.85"/>
<polygon fill="black" stroke="black" points="289.01,-213.87 280.12,-208.11 283.48,-218.16 289.01,-213.87"/>
</g>
<!-- signer::address_of -->
<g id="node4" class="node">
<title>signer::address_of</title>
<ellipse fill="none" stroke="black" cx="1124" cy="-272" rx="48.99" ry="18"/>
<text text-anchor="middle" x="1124" y="-268.3" font-family="Times,serif" font-size="14.00">address_of</text>
</g>
<!-- mint_token_to&#45;&gt;signer::address_of -->
<g id="edge3" class="edge">
<title>mint_token_to&#45;&gt;signer::address_of</title>
<path fill="none" stroke="black" d="M732.31,-340.53C775.44,-336.16 835.55,-329.38 888,-321 951.83,-310.8 1024.64,-295.41 1072.3,-284.82"/>
<polygon fill="black" stroke="black" points="1072.79,-288.3 1081.78,-282.71 1071.26,-281.47 1072.79,-288.3"/>
</g>
<!-- error::invalid_argument -->
<g id="node5" class="node">
<title>error::invalid_argument</title>
<ellipse fill="none" stroke="black" cx="491" cy="-106" rx="73.39" ry="18"/>
<text text-anchor="middle" x="491" y="-102.3" font-family="Times,serif" font-size="14.00">invalid_argument</text>
</g>
<!-- mint_token_to&#45;&gt;error::invalid_argument -->
<g id="edge4" class="edge">
<title>mint_token_to&#45;&gt;error::invalid_argument</title>
<path fill="none" stroke="black" d="M658.04,-329.37C655.61,-326.64 653.18,-323.78 651,-321 598.96,-254.66 599.11,-228.48 546,-163 537.24,-152.19 526.71,-141.1 517.23,-131.67"/>
<polygon fill="black" stroke="black" points="519.92,-129.4 510.32,-124.91 515.02,-134.4 519.92,-129.4"/>
</g>
<!-- error::not_found -->
<g id="node6" class="node">
<title>error::not_found</title>
<ellipse fill="none" stroke="black" cx="629" cy="-106" rx="46.59" ry="18"/>
<text text-anchor="middle" x="629" y="-102.3" font-family="Times,serif" font-size="14.00">not_found</text>
</g>
<!-- mint_token_to&#45;&gt;error::not_found -->
<g id="edge5" class="edge">
<title>mint_token_to&#45;&gt;error::not_found</title>
<path fill="none" stroke="black" d="M670.76,-328.81C663.11,-288.17 643.84,-185.82 634.39,-135.64"/>
<polygon fill="black" stroke="black" points="637.84,-135.02 632.55,-125.84 630.96,-136.32 637.84,-135.02"/>
</g>
<!-- error::permission_denied -->
<g id="node7" class="node">
<title>error::permission_denied</title>
<ellipse fill="none" stroke="black" cx="771" cy="-106" rx="77.19" ry="18"/>
<text text-anchor="middle" x="771" y="-102.3" font-family="Times,serif" font-size="14.00">permission_denied</text>
</g>
<!-- mint_token_to&#45;&gt;error::permission_denied -->
<g id="edge6" class="edge">
<title>mint_token_to&#45;&gt;error::permission_denied</title>
<path fill="none" stroke="black" d="M680.98,-328.81C697.54,-288 739.36,-184.96 759.63,-135.01"/>
<polygon fill="black" stroke="black" points="762.87,-136.34 763.39,-125.76 756.38,-133.71 762.87,-136.34"/>
</g>
<!-- event::emit_event -->
<g id="node8" class="node">
<title>event::emit_event</title>
<ellipse fill="none" stroke="black" cx="939" cy="-189" rx="50.09" ry="18"/>
<text text-anchor="middle" x="939" y="-185.3" font-family="Times,serif" font-size="14.00">emit_event</text>
</g>
<!-- mint_token_to&#45;&gt;event::emit_event -->
<g id="edge7" class="edge">
<title>mint_token_to&#45;&gt;event::emit_event</title>
<path fill="none" stroke="black" d="M721.85,-335.04C734.27,-331.36 747.41,-326.71 759,-321 818.84,-291.53 879.8,-242.26 913.18,-213.28"/>
<polygon fill="black" stroke="black" points="915.1,-216.25 920.31,-207.02 910.48,-210.99 915.1,-216.25"/>
</g>
<!-- property_map::empty -->
<g id="node9" class="node">
<title>property_map::empty</title>
<ellipse fill="none" stroke="black" cx="1257" cy="-272" rx="33.29" ry="18"/>
<text text-anchor="middle" x="1257" y="-268.3" font-family="Times,serif" font-size="14.00">empty</text>
</g>
<!-- mint_token_to&#45;&gt;property_map::empty -->
<g id="edge8" class="edge">
<title>mint_token_to&#45;&gt;property_map::empty</title>
<path fill="none" stroke="black" d="M736.6,-345.73C869.23,-344.76 1169.84,-340.44 1212,-321 1222.78,-316.03 1232.22,-307.19 1239.64,-298.43"/>
<polygon fill="black" stroke="black" points="1242.28,-300.74 1245.67,-290.7 1236.76,-296.43 1242.28,-300.74"/>
</g>
<!-- create_token_id -->
<g id="node10" class="node">
<title>create_token_id</title>
<ellipse fill="none" stroke="black" cx="1384" cy="-272" rx="66.89" ry="18"/>
<text text-anchor="middle" x="1384" y="-268.3" font-family="Times,serif" font-size="14.00">create_token_id</text>
</g>
<!-- mint_token_to&#45;&gt;create_token_id -->
<g id="edge9" class="edge">
<title>mint_token_to&#45;&gt;create_token_id</title>
<path fill="none" stroke="black" d="M736.55,-345.5C886.74,-344.02 1259.29,-338.61 1313,-321 1328.77,-315.83 1344.28,-306.05 1356.76,-296.66"/>
<polygon fill="black" stroke="black" points="1358.79,-299.51 1364.48,-290.57 1354.46,-294.02 1358.79,-299.51"/>
</g>
<!-- direct_deposit -->
<g id="node11" class="node">
<title>direct_deposit</title>
<ellipse fill="none" stroke="black" cx="478" cy="-272" rx="60.39" ry="18"/>
<text text-anchor="middle" x="478" y="-268.3" font-family="Times,serif" font-size="14.00">direct_deposit</text>
</g>
<!-- mint_token_to&#45;&gt;direct_deposit -->
<g id="edge10" class="edge">
<title>mint_token_to&#45;&gt;direct_deposit</title>
<path fill="none" stroke="black" d="M629.55,-334.04C616.39,-330.2 602.02,-325.71 589,-321 565.63,-312.55 540.14,-301.65 519.49,-292.37"/>
<polygon fill="black" stroke="black" points="521.1,-289.26 510.54,-288.32 518.21,-295.64 521.1,-289.26"/>
</g>
<!-- table::contains_box -->
<g id="node12" class="node">
<title>table::contains_box</title>
<ellipse fill="none" stroke="black" cx="74" cy="-106" rx="57.69" ry="18"/>
<text text-anchor="middle" x="74" y="-102.3" font-family="Times,serif" font-size="14.00">contains_box</text>
</g>
<!-- table::contains&#45;&gt;table::contains_box -->
<g id="edge11" class="edge">
<title>table::contains&#45;&gt;table::contains_box</title>
<path fill="none" stroke="black" d="M138.19,-172C126.84,-160.5 111.32,-144.78 98.38,-131.68"/>
<polygon fill="black" stroke="black" points="100.9,-129.26 91.39,-124.6 95.92,-134.18 100.9,-129.26"/>
</g>
<!-- table::borrow_box_mut -->
<g id="node13" class="node">
<title>table::borrow_box_mut</title>
<ellipse fill="none" stroke="black" cx="222" cy="-106" rx="72.29" ry="18"/>
<text text-anchor="middle" x="222" y="-102.3" font-family="Times,serif" font-size="14.00">borrow_box_mut</text>
</g>
<!-- table::borrow_mut&#45;&gt;table::borrow_box_mut -->
<g id="edge12" class="edge">
<title>table::borrow_mut&#45;&gt;table::borrow_box_mut</title>
<path fill="none" stroke="black" d="M257.46,-170.82C251.55,-160.19 243.84,-146.31 237.11,-134.2"/>
<polygon fill="black" stroke="black" points="240.18,-132.52 232.26,-125.48 234.06,-135.92 240.18,-132.52"/>
</g>
<!-- signer::borrow_address -->
<g id="node14" class="node">
<title>signer::borrow_address</title>
<ellipse fill="none" stroke="black" cx="1133" cy="-189" rx="66.89" ry="18"/>
<text text-anchor="middle" x="1133" y="-185.3" font-family="Times,serif" font-size="14.00">borrow_address</text>
</g>
<!-- signer::address_of&#45;&gt;signer::borrow_address -->
<g id="edge13" class="edge">
<title>signer::address_of&#45;&gt;signer::borrow_address</title>
<path fill="none" stroke="black" d="M1125.91,-253.82C1127.05,-243.58 1128.52,-230.33 1129.83,-218.55"/>
<polygon fill="black" stroke="black" points="1133.27,-219.26 1130.9,-208.94 1126.31,-218.49 1133.27,-219.26"/>
</g>
<!-- error::canonical -->
<g id="node15" class="node">
<title>error::canonical</title>
<ellipse fill="none" stroke="black" cx="629" cy="-34" rx="44.39" ry="18"/>
<text text-anchor="middle" x="629" y="-30.3" font-family="Times,serif" font-size="14.00">canonical</text>
</g>
<!-- error::invalid_argument&#45;&gt;error::canonical -->
<g id="edge14" class="edge">
<title>error::invalid_argument&#45;&gt;error::canonical</title>
<path fill="none" stroke="black" d="M521.97,-89.29C542.73,-78.76 570.17,-64.84 592.07,-53.73"/>
<polygon fill="black" stroke="black" points="593.64,-56.86 600.97,-49.22 590.47,-50.62 593.64,-56.86"/>
</g>
<!-- error::not_found&#45;&gt;error::canonical -->
<g id="edge15" class="edge">
<title>error::not_found&#45;&gt;error::canonical</title>
<path fill="none" stroke="black" d="M629,-87.7C629,-80.41 629,-71.73 629,-63.54"/>
<polygon fill="black" stroke="black" points="632.5,-63.62 629,-53.62 625.5,-63.62 632.5,-63.62"/>
</g>
<!-- error::permission_denied&#45;&gt;error::canonical -->
<g id="edge16" class="edge">
<title>error::permission_denied&#45;&gt;error::canonical</title>
<path fill="none" stroke="black" d="M739.13,-89.29C717.67,-78.71 689.28,-64.71 666.69,-53.58"/>
<polygon fill="black" stroke="black" points="668.33,-50.48 657.81,-49.2 665.23,-56.76 668.33,-50.48"/>
</g>
<!-- bcs::to_bytes -->
<g id="node16" class="node">
<title>bcs::to_bytes</title>
<ellipse fill="none" stroke="black" cx="1106" cy="-106" rx="40.09" ry="18"/>
<text text-anchor="middle" x="1106" y="-102.3" font-family="Times,serif" font-size="14.00">to_bytes</text>
</g>
<!-- event::emit_event&#45;&gt;bcs::to_bytes -->
<g id="edge17" class="edge">
<title>event::emit_event&#45;&gt;bcs::to_bytes</title>
<path fill="none" stroke="black" d="M983.49,-180.3C1005.65,-175.24 1032.28,-167.22 1054,-155 1064.92,-148.86 1075.4,-139.99 1084.04,-131.54"/>
<polygon fill="black" stroke="black" points="1086.5,-134.04 1090.98,-124.44 1081.49,-129.15 1086.5,-134.04"/>
</g>
<!-- event::write_to_event_store -->
<g id="node17" class="node">
<title>event::write_to_event_store</title>
<ellipse fill="none" stroke="black" cx="957" cy="-106" rx="85.29" ry="18"/>
<text text-anchor="middle" x="957" y="-102.3" font-family="Times,serif" font-size="14.00">write_to_event_store</text>
</g>
<!-- event::emit_event&#45;&gt;event::write_to_event_store -->
<g id="edge18" class="edge">
<title>event::emit_event&#45;&gt;event::write_to_event_store</title>
<path fill="none" stroke="black" d="M942.82,-170.82C945.09,-160.58 948.04,-147.33 950.66,-135.55"/>
<polygon fill="black" stroke="black" points="954.05,-136.43 952.8,-125.91 947.21,-134.91 954.05,-136.43"/>
</g>
<!-- simple_map::create -->
<g id="node18" class="node">
<title>simple_map::create</title>
<ellipse fill="none" stroke="black" cx="1257" cy="-189" rx="31.7" ry="18"/>
<text text-anchor="middle" x="1257" y="-185.3" font-family="Times,serif" font-size="14.00">create</text>
</g>
<!-- property_map::empty&#45;&gt;simple_map::create -->
<g id="edge19" class="edge">
<title>property_map::empty&#45;&gt;simple_map::create</title>
<path fill="none" stroke="black" d="M1257,-253.82C1257,-243.69 1257,-230.6 1257,-218.92"/>
<polygon fill="black" stroke="black" points="1260.5,-218.95 1257,-208.95 1253.5,-218.95 1260.5,-218.95"/>
</g>
<!-- direct_deposit&#45;&gt;table::contains -->
<g id="edge20" class="edge">
<title>direct_deposit&#45;&gt;table::contains</title>
<path fill="none" stroke="black" d="M418.53,-268.33C349.35,-264.45 239.91,-255.7 203,-238 191.73,-232.59 181.46,-223.55 173.27,-214.75"/>
<polygon fill="black" stroke="black" points="176.01,-212.57 166.8,-207.33 170.73,-217.17 176.01,-212.57"/>
</g>
<!-- direct_deposit&#45;&gt;table::borrow_mut -->
<g id="edge21" class="edge">
<title>direct_deposit&#45;&gt;table::borrow_mut</title>
<path fill="none" stroke="black" d="M427.29,-261.97C391.86,-255.21 347.98,-245.83 331,-238 317.5,-231.77 304.1,-222.36 293.08,-213.52"/>
<polygon fill="black" stroke="black" points="295.51,-210.99 285.59,-207.28 291.03,-216.37 295.51,-210.99"/>
</g>
<!-- direct_deposit&#45;&gt;error::invalid_argument -->
<g id="edge23" class="edge">
<title>direct_deposit&#45;&gt;error::invalid_argument</title>
<path fill="none" stroke="black" d="M467.99,-254.07C465.54,-249.07 463.25,-243.46 462,-238 454.54,-205.51 454.11,-195.39 462,-163 464.46,-152.91 469.08,-142.6 473.92,-133.63"/>
<polygon fill="black" stroke="black" points="476.87,-135.53 478.83,-125.12 470.8,-132.03 476.87,-135.53"/>
</g>
<!-- direct_deposit&#45;&gt;error::not_found -->
<g id="edge24" class="edge">
<title>direct_deposit&#45;&gt;error::not_found</title>
<path fill="none" stroke="black" d="M515.23,-257.46C525.93,-252.42 537.09,-245.95 546,-238 578.94,-208.58 603.75,-163.08 617.32,-134.18"/>
<polygon fill="black" stroke="black" points="620.37,-135.91 621.33,-125.36 614,-133.01 620.37,-135.91"/>
</g>
<!-- direct_deposit&#45;&gt;event::emit_event -->
<g id="edge25" class="edge">
<title>direct_deposit&#45;&gt;event::emit_event</title>
<path fill="none" stroke="black" d="M529.1,-262.02C616.32,-246.7 793.25,-215.61 883.44,-199.76"/>
<polygon fill="black" stroke="black" points="883.79,-203.25 893.03,-198.08 882.58,-196.36 883.79,-203.25"/>
</g>
<!-- table::add -->
<g id="node19" class="node">
<title>table::add</title>
<ellipse fill="none" stroke="black" cx="367" cy="-189" rx="27" ry="18"/>
<text text-anchor="middle" x="367" y="-185.3" font-family="Times,serif" font-size="14.00">add</text>
</g>
<!-- direct_deposit&#45;&gt;table::add -->
<g id="edge22" class="edge">
<title>direct_deposit&#45;&gt;table::add</title>
<path fill="none" stroke="black" d="M453.86,-255.2C445.87,-249.85 436.98,-243.77 429,-238 416.85,-229.22 403.67,-219.11 392.61,-210.43"/>
<polygon fill="black" stroke="black" points="395.08,-207.93 385.06,-204.49 390.75,-213.43 395.08,-207.93"/>
</g>
<!-- merge -->
<g id="node20" class="node">
<title>merge</title>
<ellipse fill="none" stroke="black" cx="504" cy="-189" rx="33.29" ry="18"/>
<text text-anchor="middle" x="504" y="-185.3" font-family="Times,serif" font-size="14.00">merge</text>
</g>
<!-- direct_deposit&#45;&gt;merge -->
<g id="edge26" class="edge">
<title>direct_deposit&#45;&gt;merge</title>
<path fill="none" stroke="black" d="M483.51,-253.82C486.86,-243.41 491.2,-229.87 495.03,-217.94"/>
<polygon fill="black" stroke="black" points="498.31,-219.19 498.03,-208.59 491.64,-217.05 498.31,-219.19"/>
</g>
<!-- table::add_box -->
<g id="node21" class="node">
<title>table::add_box</title>
<ellipse fill="none" stroke="black" cx="353" cy="-106" rx="40.89" ry="18"/>
<text text-anchor="middle" x="353" y="-102.3" font-family="Times,serif" font-size="14.00">add_box</text>
</g>
<!-- table::add&#45;&gt;table::add_box -->
<g id="edge27" class="edge">
<title>table::add&#45;&gt;table::add_box</title>
<path fill="none" stroke="black" d="M364.03,-170.82C362.26,-160.58 359.97,-147.33 357.93,-135.55"/>
<polygon fill="black" stroke="black" points="361.42,-135.18 356.27,-125.92 354.53,-136.37 361.42,-135.18"/>
</g>
<!-- merge&#45;&gt;error::invalid_argument -->
<g id="edge28" class="edge">
<title>merge&#45;&gt;error::invalid_argument</title>
<path fill="none" stroke="black" d="M501.24,-170.82C499.6,-160.58 497.47,-147.33 495.58,-135.55"/>
<polygon fill="black" stroke="black" points="499.08,-135.25 494.04,-125.93 492.17,-136.36 499.08,-135.25"/>
</g>
</g>
</svg>
