<?xml version="1.0" encoding="UTF-8" standalone="no"?>
<!DOCTYPE svg PUBLIC "-//W3C//DTD SVG 1.1//EN"
 "http://www.w3.org/Graphics/SVG/1.1/DTD/svg11.dtd">
<!-- Generated by graphviz version 7.0.0 (20221023.0053)
 -->
<!-- Title: G Pages: 1 -->
<svg width="1474pt" height="620pt"
 viewBox="0.00 0.00 1473.90 620.00" xmlns="http://www.w3.org/2000/svg" xmlns:xlink="http://www.w3.org/1999/xlink">
<g id="graph0" class="graph" transform="scale(1 1) rotate(0) translate(4 616)">
<title>G</title>
<polygon fill="white" stroke="none" points="-4,4 -4,-616 1469.9,-616 1469.9,4 -4,4"/>
<!-- token_transfers -->
<g id="node1" class="node">
<title>token_transfers</title>
<ellipse fill="none" stroke="black" cx="687.9" cy="-594" rx="64.99" ry="18"/>
<text text-anchor="middle" x="687.9" y="-590.3" font-family="Times,serif" font-size="14.00">token_transfers</text>
</g>
<!-- string -->
<g id="node2" class="node">
<title>string</title>
<ellipse fill="none" stroke="black" cx="1327.9" cy="-162" rx="30.59" ry="18"/>
<text text-anchor="middle" x="1327.9" y="-158.3" font-family="Times,serif" font-size="14.00">string</text>
</g>
<!-- token_transfers&#45;&gt;string -->
<g id="edge1" class="edge">
<title>token_transfers&#45;&gt;string</title>
<path fill="none" stroke="black" d="M749.92,-588.23C934.24,-573.22 1465.9,-523.64 1465.9,-451 1465.9,-451 1465.9,-451 1465.9,-305 1465.9,-245.39 1402.58,-201.38 1361.72,-179.19"/>
<polygon fill="black" stroke="black" points="1363.44,-176.14 1352.96,-174.6 1360.19,-182.34 1363.44,-176.14"/>
</g>
<!-- table -->
<g id="node3" class="node">
<title>table</title>
<ellipse fill="none" stroke="black" cx="593.9" cy="-378" rx="27.9" ry="18"/>
<text text-anchor="middle" x="593.9" y="-374.3" font-family="Times,serif" font-size="14.00">table</text>
</g>
<!-- token_transfers&#45;&gt;table -->
<g id="edge2" class="edge">
<title>token_transfers&#45;&gt;table</title>
<path fill="none" stroke="black" d="M674.11,-576.38C665.99,-566.2 655.8,-552.74 647.9,-540 629.04,-509.59 623.54,-501.83 611.9,-468 605.14,-448.38 600.57,-425.41 597.73,-407.72"/>
<polygon fill="black" stroke="black" points="601.21,-407.28 596.26,-397.92 594.28,-408.33 601.21,-407.28"/>
</g>
<!-- signer -->
<g id="node4" class="node">
<title>signer</title>
<ellipse fill="none" stroke="black" cx="829.9" cy="-306" rx="32.49" ry="18"/>
<text text-anchor="middle" x="829.9" y="-302.3" font-family="Times,serif" font-size="14.00">signer</text>
</g>
<!-- token_transfers&#45;&gt;signer -->
<g id="edge3" class="edge">
<title>token_transfers&#45;&gt;signer</title>
<path fill="none" stroke="black" d="M743.29,-584.25C881.71,-561.07 1235.85,-493.09 1294.9,-396 1303.21,-382.33 1305.55,-371.94 1294.9,-360 1291.39,-356.07 987.72,-323.65 873.07,-311.54"/>
<polygon fill="black" stroke="black" points="873.76,-308.1 863.45,-310.53 873.03,-315.06 873.76,-308.1"/>
</g>
<!-- error -->
<g id="node5" class="node">
<title>error</title>
<ellipse fill="none" stroke="black" cx="811.9" cy="-234" rx="27.9" ry="18"/>
<text text-anchor="middle" x="811.9" y="-230.3" font-family="Times,serif" font-size="14.00">error</text>
</g>
<!-- token_transfers&#45;&gt;error -->
<g id="edge4" class="edge">
<title>token_transfers&#45;&gt;error</title>
<path fill="none" stroke="black" d="M752.58,-591.96C861.22,-587.39 1083.68,-565.75 1238.9,-468 1277.46,-443.72 1294.31,-438.04 1311.9,-396 1344.3,-318.54 1237.27,-312.3 1156.9,-288 1049.05,-255.39 915.88,-242.19 851.05,-237.41"/>
<polygon fill="black" stroke="black" points="851.5,-233.93 841.27,-236.72 851,-240.91 851.5,-233.93"/>
</g>
<!-- event -->
<g id="node6" class="node">
<title>event</title>
<ellipse fill="none" stroke="black" cx="29.9" cy="-378" rx="29.8" ry="18"/>
<text text-anchor="middle" x="29.9" y="-374.3" font-family="Times,serif" font-size="14.00">event</text>
</g>
<!-- token_transfers&#45;&gt;event -->
<g id="edge5" class="edge">
<title>token_transfers&#45;&gt;event</title>
<path fill="none" stroke="black" d="M637.63,-582.14C552.04,-563.05 373.05,-520.45 226.9,-468 167.33,-446.62 100.75,-414.79 62.25,-395.55"/>
<polygon fill="black" stroke="black" points="64.02,-392.52 53.52,-391.16 60.88,-398.78 64.02,-392.52"/>
</g>
<!-- account -->
<g id="node7" class="node">
<title>account</title>
<ellipse fill="none" stroke="black" cx="442.9" cy="-450" rx="38.19" ry="18"/>
<text text-anchor="middle" x="442.9" y="-446.3" font-family="Times,serif" font-size="14.00">account</text>
</g>
<!-- token_transfers&#45;&gt;account -->
<g id="edge6" class="edge">
<title>token_transfers&#45;&gt;account</title>
<path fill="none" stroke="black" d="M647.72,-579.41C621.86,-569.93 587.95,-556.11 559.9,-540 526.44,-520.78 491.7,-493.23 468.86,-473.88"/>
<polygon fill="black" stroke="black" points="471.15,-471.23 461.28,-467.38 466.59,-476.55 471.15,-471.23"/>
</g>
<!-- token -->
<g id="node8" class="node">
<title>token</title>
<ellipse fill="none" stroke="black" cx="687.9" cy="-522" rx="30.59" ry="18"/>
<text text-anchor="middle" x="687.9" y="-518.3" font-family="Times,serif" font-size="14.00">token</text>
</g>
<!-- token_transfers&#45;&gt;token -->
<g id="edge7" class="edge">
<title>token_transfers&#45;&gt;token</title>
<path fill="none" stroke="black" d="M687.9,-575.7C687.9,-568.41 687.9,-559.73 687.9,-551.54"/>
<polygon fill="black" stroke="black" points="691.4,-551.62 687.9,-541.62 684.4,-551.62 691.4,-551.62"/>
</g>
<!-- vector -->
<g id="node9" class="node">
<title>vector</title>
<ellipse fill="none" stroke="black" cx="523.9" cy="-18" rx="32.49" ry="18"/>
<text text-anchor="middle" x="523.9" y="-14.3" font-family="Times,serif" font-size="14.00">vector</text>
</g>
<!-- string&#45;&gt;vector -->
<g id="edge8" class="edge">
<title>string&#45;&gt;vector</title>
<path fill="none" stroke="black" d="M1303.43,-150.75C1296.85,-148.27 1289.67,-145.82 1282.9,-144 1015.73,-72.29 684,-34.79 567.1,-23.09"/>
<polygon fill="black" stroke="black" points="567.63,-19.62 557.33,-22.12 566.94,-26.59 567.63,-19.62"/>
</g>
<!-- option -->
<g id="node10" class="node">
<title>option</title>
<ellipse fill="none" stroke="black" cx="523.9" cy="-90" rx="33.29" ry="18"/>
<text text-anchor="middle" x="523.9" y="-86.3" font-family="Times,serif" font-size="14.00">option</text>
</g>
<!-- string&#45;&gt;option -->
<g id="edge9" class="edge">
<title>string&#45;&gt;option</title>
<path fill="none" stroke="black" d="M1304,-150.5C1297.29,-147.96 1289.91,-145.54 1282.9,-144 1145.15,-113.85 709.26,-97.13 568.32,-92.4"/>
<polygon fill="black" stroke="black" points="568.77,-88.92 558.66,-92.08 568.54,-95.91 568.77,-88.92"/>
</g>
<!-- bcs -->
<g id="node11" class="node">
<title>bcs</title>
<ellipse fill="none" stroke="black" cx="465.9" cy="-234" rx="27" ry="18"/>
<text text-anchor="middle" x="465.9" y="-230.3" font-family="Times,serif" font-size="14.00">bcs</text>
</g>
<!-- event&#45;&gt;bcs -->
<g id="edge10" class="edge">
<title>event&#45;&gt;bcs</title>
<path fill="none" stroke="black" d="M25.05,-359.77C20.57,-339.77 17.03,-307.1 34.9,-288 38.26,-284.41 323.26,-251.37 427.91,-239.35"/>
<polygon fill="black" stroke="black" points="428.14,-242.85 437.68,-238.23 427.34,-235.89 428.14,-242.85"/>
</g>
<!-- guid -->
<g id="node12" class="node">
<title>guid</title>
<ellipse fill="none" stroke="black" cx="70.9" cy="-306" rx="27" ry="18"/>
<text text-anchor="middle" x="70.9" y="-302.3" font-family="Times,serif" font-size="14.00">guid</text>
</g>
<!-- event&#45;&gt;guid -->
<g id="edge11" class="edge">
<title>event&#45;&gt;guid</title>
<path fill="none" stroke="black" d="M39.41,-360.76C44.27,-352.46 50.31,-342.15 55.79,-332.79"/>
<polygon fill="black" stroke="black" points="58.64,-334.85 60.67,-324.45 52.6,-331.31 58.64,-334.85"/>
</g>
<!-- account&#45;&gt;table -->
<g id="edge15" class="edge">
<title>account&#45;&gt;table</title>
<path fill="none" stroke="black" d="M469.55,-436.65C495.26,-424.73 534.22,-406.67 561.66,-393.94"/>
<polygon fill="black" stroke="black" points="562.95,-397.2 570.55,-389.82 560.01,-390.85 562.95,-397.2"/>
</g>
<!-- account&#45;&gt;signer -->
<g id="edge16" class="edge">
<title>account&#45;&gt;signer</title>
<path fill="none" stroke="black" d="M463.02,-434.44C477.36,-423.96 497.01,-409.36 513.9,-396 533.45,-380.54 534.39,-370.72 556.9,-360 632.19,-324.15 730.15,-312.55 785.92,-308.8"/>
<polygon fill="black" stroke="black" points="785.88,-312.31 795.65,-308.2 785.45,-305.32 785.88,-312.31"/>
</g>
<!-- account&#45;&gt;error -->
<g id="edge17" class="edge">
<title>account&#45;&gt;error</title>
<path fill="none" stroke="black" d="M456.16,-432.83C464.7,-422.37 476.02,-408.43 485.9,-396 498.51,-380.13 497.96,-372.53 513.9,-360 612.58,-282.41 658.62,-299.33 774.9,-252 776.45,-251.37 778.04,-250.71 779.63,-250.03"/>
<polygon fill="black" stroke="black" points="781.01,-253.24 788.74,-246 778.18,-246.84 781.01,-253.24"/>
</g>
<!-- account&#45;&gt;event -->
<g id="edge25" class="edge">
<title>account&#45;&gt;event</title>
<path fill="none" stroke="black" d="M406.41,-444.24C319.61,-432.84 105.71,-404.32 73.9,-396 70.78,-395.18 67.58,-394.22 64.39,-393.17"/>
<polygon fill="black" stroke="black" points="65.8,-389.95 55.21,-389.87 63.43,-396.54 65.8,-389.95"/>
</g>
<!-- account&#45;&gt;vector -->
<g id="edge12" class="edge">
<title>account&#45;&gt;vector</title>
<path fill="none" stroke="black" d="M406.7,-443.8C336.83,-433.5 188.59,-410.26 169.9,-396 134.82,-369.24 125.9,-351.13 125.9,-307 125.9,-307 125.9,-307 125.9,-161 125.9,-86.21 378.36,-40.48 481.14,-24.96"/>
<polygon fill="black" stroke="black" points="481.46,-28.45 490.84,-23.52 480.43,-21.53 481.46,-28.45"/>
</g>
<!-- account&#45;&gt;option -->
<g id="edge13" class="edge">
<title>account&#45;&gt;option</title>
<path fill="none" stroke="black" d="M406.12,-444.83C347.29,-437.5 235.53,-420.73 204.9,-396 171.01,-368.65 163.9,-350.55 163.9,-307 163.9,-307 163.9,-307 163.9,-233 163.9,-171.14 215.2,-170.91 270.9,-144 339.08,-111.05 427.3,-98.51 479.52,-93.79"/>
<polygon fill="black" stroke="black" points="479.54,-97.3 489.21,-92.98 478.96,-90.33 479.54,-97.3"/>
</g>
<!-- account&#45;&gt;bcs -->
<g id="edge20" class="edge">
<title>account&#45;&gt;bcs</title>
<path fill="none" stroke="black" d="M443.43,-431.57C444.08,-413.6 445.42,-384.79 447.9,-360 451.21,-326.81 456.94,-288.93 461.05,-263.65"/>
<polygon fill="black" stroke="black" points="464.5,-264.26 462.67,-253.83 457.59,-263.12 464.5,-264.26"/>
</g>
<!-- account&#45;&gt;guid -->
<g id="edge23" class="edge">
<title>account&#45;&gt;guid</title>
<path fill="none" stroke="black" d="M406.49,-444.11C322.92,-432.75 123.61,-404.88 111.9,-396 92.52,-381.3 82,-355.27 76.49,-335.14"/>
<polygon fill="black" stroke="black" points="79.92,-334.46 74.15,-325.58 73.12,-336.12 79.92,-334.46"/>
</g>
<!-- type_info -->
<g id="node13" class="node">
<title>type_info</title>
<ellipse fill="none" stroke="black" cx="721.9" cy="-234" rx="44.39" ry="18"/>
<text text-anchor="middle" x="721.9" y="-230.3" font-family="Times,serif" font-size="14.00">type_info</text>
</g>
<!-- account&#45;&gt;type_info -->
<g id="edge14" class="edge">
<title>account&#45;&gt;type_info</title>
<path fill="none" stroke="black" d="M449.25,-431.92C462.76,-398.17 497.8,-323.15 553.9,-288 589.68,-265.58 635.72,-251.93 670.56,-244.11"/>
<polygon fill="black" stroke="black" points="670.93,-247.61 679.97,-242.09 669.46,-240.76 670.93,-247.61"/>
</g>
<!-- system_addresses -->
<g id="node14" class="node">
<title>system_addresses</title>
<ellipse fill="none" stroke="black" cx="788.9" cy="-378" rx="73.39" ry="18"/>
<text text-anchor="middle" x="788.9" y="-374.3" font-family="Times,serif" font-size="14.00">system_addresses</text>
</g>
<!-- account&#45;&gt;system_addresses -->
<g id="edge18" class="edge">
<title>account&#45;&gt;system_addresses</title>
<path fill="none" stroke="black" d="M477.66,-441.97C534.79,-430.41 649.48,-407.21 722.55,-392.42"/>
<polygon fill="black" stroke="black" points="722.87,-395.93 731.98,-390.52 721.48,-389.07 722.87,-395.93"/>
</g>
<!-- hash -->
<g id="node15" class="node">
<title>hash</title>
<ellipse fill="none" stroke="black" cx="277.9" cy="-234" rx="27" ry="18"/>
<text text-anchor="middle" x="277.9" y="-230.3" font-family="Times,serif" font-size="14.00">hash</text>
</g>
<!-- account&#45;&gt;hash -->
<g id="edge19" class="edge">
<title>account&#45;&gt;hash</title>
<path fill="none" stroke="black" d="M407.15,-442.95C347.36,-432.46 232.47,-410.66 220.9,-396 187.98,-354.3 229.05,-292.12 256.68,-258.54"/>
<polygon fill="black" stroke="black" points="259.25,-260.91 263.06,-251.02 253.92,-256.38 259.25,-260.91"/>
</g>
<!-- ed25519 -->
<g id="node16" class="node">
<title>ed25519</title>
<ellipse fill="none" stroke="black" cx="384.9" cy="-306" rx="40.89" ry="18"/>
<text text-anchor="middle" x="384.9" y="-302.3" font-family="Times,serif" font-size="14.00">ed25519</text>
</g>
<!-- account&#45;&gt;ed25519 -->
<g id="edge21" class="edge">
<title>account&#45;&gt;ed25519</title>
<path fill="none" stroke="black" d="M430.92,-432.49C424,-422.36 415.58,-408.89 409.9,-396 401.28,-376.46 394.87,-353.18 390.69,-335.34"/>
<polygon fill="black" stroke="black" points="394.14,-334.7 388.55,-325.7 387.3,-336.23 394.14,-334.7"/>
</g>
<!-- multi_ed25519 -->
<g id="node17" class="node">
<title>multi_ed25519</title>
<ellipse fill="none" stroke="black" cx="293.9" cy="-378" rx="64.19" ry="18"/>
<text text-anchor="middle" x="293.9" y="-374.3" font-family="Times,serif" font-size="14.00">multi_ed25519</text>
</g>
<!-- account&#45;&gt;multi_ed25519 -->
<g id="edge22" class="edge">
<title>account&#45;&gt;multi_ed25519</title>
<path fill="none" stroke="black" d="M416.6,-436.65C394.35,-426.19 362.05,-411.02 336.18,-398.86"/>
<polygon fill="black" stroke="black" points="337.8,-395.76 327.26,-394.67 334.82,-402.09 337.8,-395.76"/>
</g>
<!-- from_bcs -->
<g id="node18" class="node">
<title>from_bcs</title>
<ellipse fill="none" stroke="black" cx="1241.9" cy="-378" rx="44.39" ry="18"/>
<text text-anchor="middle" x="1241.9" y="-374.3" font-family="Times,serif" font-size="14.00">from_bcs</text>
</g>
<!-- account&#45;&gt;from_bcs -->
<g id="edge24" class="edge">
<title>account&#45;&gt;from_bcs</title>
<path fill="none" stroke="black" d="M480.56,-446.73C607.52,-438.99 1019.2,-413.18 1150.9,-396 1164.34,-394.25 1178.81,-391.8 1192.17,-389.31"/>
<polygon fill="black" stroke="black" points="1192.43,-392.83 1201.59,-387.51 1191.11,-385.95 1192.43,-392.83"/>
</g>
<!-- token&#45;&gt;string -->
<g id="edge27" class="edge">
<title>token&#45;&gt;string</title>
<path fill="none" stroke="black" d="M718.88,-520.68C794.76,-519.23 995.43,-511.24 1155.9,-468 1232.76,-447.29 1264.83,-453.48 1319.9,-396 1376.06,-337.38 1367.4,-295.48 1350.9,-216 1349.07,-207.22 1345.72,-198.11 1342.13,-189.98"/>
<polygon fill="black" stroke="black" points="1345.3,-188.5 1337.85,-180.97 1338.98,-191.5 1345.3,-188.5"/>
</g>
<!-- token&#45;&gt;table -->
<g id="edge28" class="edge">
<title>token&#45;&gt;table</title>
<path fill="none" stroke="black" d="M671.42,-506.9C660.38,-496.86 646.06,-482.6 635.9,-468 622.55,-448.84 611.49,-424.78 604.07,-406.51"/>
<polygon fill="black" stroke="black" points="607.4,-405.41 600.49,-397.38 600.89,-407.97 607.4,-405.41"/>
</g>
<!-- token&#45;&gt;signer -->
<g id="edge29" class="edge">
<title>token&#45;&gt;signer</title>
<path fill="none" stroke="black" d="M718.2,-518.71C753.42,-514.47 811.14,-502.39 845.9,-468 880.92,-433.35 886.83,-406.62 870.9,-360 867.25,-349.33 860.49,-339.14 853.49,-330.6"/>
<polygon fill="black" stroke="black" points="856.18,-328.36 846.94,-323.17 850.93,-332.98 856.18,-328.36"/>
</g>
<!-- token&#45;&gt;error -->
<g id="edge30" class="edge">
<title>token&#45;&gt;error</title>
<path fill="none" stroke="black" d="M686.78,-503.72C685.49,-473.31 685.79,-408.83 706.9,-360 725.03,-318.06 761.96,-279.38 786.83,-256.48"/>
<polygon fill="black" stroke="black" points="789.16,-259.08 794.26,-249.79 784.48,-253.87 789.16,-259.08"/>
</g>
<!-- token&#45;&gt;event -->
<g id="edge31" class="edge">
<title>token&#45;&gt;event</title>
<path fill="none" stroke="black" d="M658.55,-516.39C570.36,-502.22 300.31,-456.61 81.9,-396 76.73,-394.57 71.32,-392.94 66.02,-391.28"/>
<polygon fill="black" stroke="black" points="67.44,-388.06 56.85,-388.32 65.29,-394.72 67.44,-388.06"/>
</g>
<!-- token&#45;&gt;account -->
<g id="edge32" class="edge">
<title>token&#45;&gt;account</title>
<path fill="none" stroke="black" d="M660.74,-513.24C618.35,-501.13 536.09,-477.63 485.67,-463.22"/>
<polygon fill="black" stroke="black" points="486.85,-459.92 476.27,-460.53 484.92,-466.65 486.85,-459.92"/>
</g>
<!-- token&#45;&gt;option -->
<g id="edge26" class="edge">
<title>token&#45;&gt;option</title>
<path fill="none" stroke="black" d="M680.39,-504.34C669.32,-478.2 649.9,-425.7 649.9,-379 649.9,-379 649.9,-379 649.9,-233 649.9,-176.73 593.85,-132.35 556.51,-109.03"/>
<polygon fill="black" stroke="black" points="558.67,-106.25 548.3,-104.08 555.06,-112.24 558.67,-106.25"/>
</g>
<!-- timestamp -->
<g id="node19" class="node">
<title>timestamp</title>
<ellipse fill="none" stroke="black" cx="788.9" cy="-450" rx="48.19" ry="18"/>
<text text-anchor="middle" x="788.9" y="-446.3" font-family="Times,serif" font-size="14.00">timestamp</text>
</g>
<!-- token&#45;&gt;timestamp -->
<g id="edge33" class="edge">
<title>token&#45;&gt;timestamp</title>
<path fill="none" stroke="black" d="M706.89,-507.83C721.13,-497.97 740.92,-484.25 757.5,-472.76"/>
<polygon fill="black" stroke="black" points="759.35,-475.74 765.58,-467.16 755.36,-469.98 759.35,-475.74"/>
</g>
<!-- property_map -->
<g id="node20" class="node">
<title>property_map</title>
<ellipse fill="none" stroke="black" cx="1086.9" cy="-450" rx="60.39" ry="18"/>
<text text-anchor="middle" x="1086.9" y="-446.3" font-family="Times,serif" font-size="14.00">property_map</text>
</g>
<!-- token&#45;&gt;property_map -->
<g id="edge34" class="edge">
<title>token&#45;&gt;property_map</title>
<path fill="none" stroke="black" d="M716.91,-515.91C781.25,-504.62 937.09,-477.28 1024.61,-461.93"/>
<polygon fill="black" stroke="black" points="1024.97,-465.42 1034.22,-460.24 1023.76,-458.52 1024.97,-465.42"/>
</g>
<!-- option&#45;&gt;vector -->
<g id="edge35" class="edge">
<title>option&#45;&gt;vector</title>
<path fill="none" stroke="black" d="M523.9,-71.7C523.9,-64.41 523.9,-55.73 523.9,-47.54"/>
<polygon fill="black" stroke="black" points="527.4,-47.62 523.9,-37.62 520.4,-47.62 527.4,-47.62"/>
</g>
<!-- type_info&#45;&gt;string -->
<g id="edge36" class="edge">
<title>type_info&#45;&gt;string</title>
<path fill="none" stroke="black" d="M754.4,-221.36C761.11,-219.31 768.18,-217.38 774.9,-216 962.69,-177.35 1192.28,-166.77 1285.52,-163.97"/>
<polygon fill="black" stroke="black" points="1285.57,-167.47 1295.47,-163.69 1285.37,-160.47 1285.57,-167.47"/>
</g>
<!-- system_addresses&#45;&gt;signer -->
<g id="edge37" class="edge">
<title>system_addresses&#45;&gt;signer</title>
<path fill="none" stroke="black" d="M799.03,-359.7C803.67,-351.78 809.26,-342.23 814.41,-333.44"/>
<polygon fill="black" stroke="black" points="817.36,-335.33 819.4,-324.93 811.32,-331.79 817.36,-335.33"/>
</g>
<!-- system_addresses&#45;&gt;error -->
<g id="edge38" class="edge">
<title>system_addresses&#45;&gt;error</title>
<path fill="none" stroke="black" d="M786.84,-359.73C785.16,-341.64 783.81,-312.51 788.9,-288 790.77,-278.99 794.25,-269.62 797.96,-261.32"/>
<polygon fill="black" stroke="black" points="801.02,-263.03 802.18,-252.5 794.7,-260.01 801.02,-263.03"/>
</g>
<!-- ed25519&#45;&gt;error -->
<g id="edge41" class="edge">
<title>ed25519&#45;&gt;error</title>
<path fill="none" stroke="black" d="M416.33,-294.15C423.97,-291.82 432.16,-289.6 439.9,-288 586.56,-257.75 630.53,-291.78 774.9,-252 776.64,-251.52 778.41,-250.96 780.17,-250.36"/>
<polygon fill="black" stroke="black" points="781.43,-253.62 789.41,-246.66 778.83,-247.12 781.43,-253.62"/>
</g>
<!-- ed25519&#45;&gt;option -->
<g id="edge39" class="edge">
<title>ed25519&#45;&gt;option</title>
<path fill="none" stroke="black" d="M392.34,-288.12C400.65,-269.86 414.9,-240.11 429.9,-216 452.66,-179.4 483.33,-140.14 503.35,-115.58"/>
<polygon fill="black" stroke="black" points="505.86,-118.04 509.51,-108.09 500.45,-113.59 505.86,-118.04"/>
</g>
<!-- ed25519&#45;&gt;bcs -->
<g id="edge43" class="edge">
<title>ed25519&#45;&gt;bcs</title>
<path fill="none" stroke="black" d="M402.87,-289.46C414.2,-279.68 428.97,-266.91 441.37,-256.2"/>
<polygon fill="black" stroke="black" points="443.47,-259.01 448.75,-249.82 438.89,-253.71 443.47,-259.01"/>
</g>
<!-- ed25519&#45;&gt;type_info -->
<g id="edge40" class="edge">
<title>ed25519&#45;&gt;type_info</title>
<path fill="none" stroke="black" d="M417.01,-294.4C424.48,-292.13 432.43,-289.85 439.9,-288 519.29,-268.34 612.84,-252.1 669.73,-242.97"/>
<polygon fill="black" stroke="black" points="670.13,-246.45 679.46,-241.43 669.03,-239.54 670.13,-246.45"/>
</g>
<!-- ed25519&#45;&gt;hash -->
<g id="edge42" class="edge">
<title>ed25519&#45;&gt;hash</title>
<path fill="none" stroke="black" d="M362.73,-290.5C346.3,-279.75 323.8,-265.03 306.09,-253.45"/>
<polygon fill="black" stroke="black" points="308.37,-250.75 298.09,-248.21 304.54,-256.61 308.37,-250.75"/>
</g>
<!-- multi_ed25519&#45;&gt;error -->
<g id="edge45" class="edge">
<title>multi_ed25519&#45;&gt;error</title>
<path fill="none" stroke="black" d="M331.93,-363.1C393.11,-340.88 510.86,-298.79 553.9,-288 650.43,-263.8 679.71,-281.04 774.9,-252 776.63,-251.47 778.38,-250.88 780.14,-250.24"/>
<polygon fill="black" stroke="black" points="781.43,-253.49 789.36,-246.47 778.78,-247.02 781.43,-253.49"/>
</g>
<!-- multi_ed25519&#45;&gt;option -->
<g id="edge44" class="edge">
<title>multi_ed25519&#45;&gt;option</title>
<path fill="none" stroke="black" d="M279.63,-360.23C255.31,-329.5 211.3,-263.03 241.9,-216 295.07,-134.27 415.25,-105.57 480.23,-95.81"/>
<polygon fill="black" stroke="black" points="480.4,-99.32 489.81,-94.46 479.42,-92.38 480.4,-99.32"/>
</g>
<!-- multi_ed25519&#45;&gt;bcs -->
<g id="edge47" class="edge">
<title>multi_ed25519&#45;&gt;bcs</title>
<path fill="none" stroke="black" d="M297.77,-359.67C303.02,-339.89 314.22,-307.73 334.9,-288 360.99,-263.11 400.31,-249.33 429.06,-242.11"/>
<polygon fill="black" stroke="black" points="429.49,-245.6 438.42,-239.91 427.89,-238.79 429.49,-245.6"/>
</g>
<!-- multi_ed25519&#45;&gt;hash -->
<g id="edge46" class="edge">
<title>multi_ed25519&#45;&gt;hash</title>
<path fill="none" stroke="black" d="M291.94,-359.59C289.23,-335.61 284.34,-292.14 281.1,-263.42"/>
<polygon fill="black" stroke="black" points="284.59,-263.16 279.99,-253.61 277.64,-263.94 284.59,-263.16"/>
</g>
<!-- multi_ed25519&#45;&gt;ed25519 -->
<g id="edge48" class="edge">
<title>multi_ed25519&#45;&gt;ed25519</title>
<path fill="none" stroke="black" d="M315,-360.76C327.29,-351.31 342.94,-339.27 356.32,-328.98"/>
<polygon fill="black" stroke="black" points="358.16,-331.98 363.95,-323.11 353.89,-326.43 358.16,-331.98"/>
</g>
<!-- from_bcs&#45;&gt;string -->
<g id="edge49" class="edge">
<title>from_bcs&#45;&gt;string</title>
<path fill="none" stroke="black" d="M1256.98,-360.94C1265.64,-350.97 1276.11,-337.51 1282.9,-324 1304.83,-280.34 1317.37,-224.49 1323.39,-191.35"/>
<polygon fill="black" stroke="black" points="1326.8,-192.18 1325.06,-181.73 1319.91,-190.98 1326.8,-192.18"/>
</g>
<!-- timestamp&#45;&gt;error -->
<g id="edge50" class="edge">
<title>timestamp&#45;&gt;error</title>
<path fill="none" stroke="black" d="M822.12,-436.79C840.02,-428.31 860.52,-415.06 870.9,-396 893.85,-353.84 890.45,-331.84 870.9,-288 864.66,-274.01 852.7,-262.17 841.17,-253.25"/>
<polygon fill="black" stroke="black" points="843.52,-250.63 833.36,-247.63 839.43,-256.31 843.52,-250.63"/>
</g>
<!-- timestamp&#45;&gt;system_addresses -->
<g id="edge51" class="edge">
<title>timestamp&#45;&gt;system_addresses</title>
<path fill="none" stroke="black" d="M788.9,-431.7C788.9,-424.41 788.9,-415.73 788.9,-407.54"/>
<polygon fill="black" stroke="black" points="792.4,-407.62 788.9,-397.62 785.4,-407.62 792.4,-407.62"/>
</g>
<!-- property_map&#45;&gt;string -->
<g id="edge52" class="edge">
<title>property_map&#45;&gt;string</title>
<path fill="none" stroke="black" d="M1140.91,-441.7C1195.16,-433.28 1273.68,-417.73 1294.9,-396 1348.7,-340.88 1341.15,-240.58 1333.44,-191.54"/>
<polygon fill="black" stroke="black" points="1336.9,-191 1331.77,-181.73 1330,-192.17 1336.9,-191"/>
</g>
<!-- property_map&#45;&gt;error -->
<g id="edge54" class="edge">
<title>property_map&#45;&gt;error</title>
<path fill="none" stroke="black" d="M1114.99,-433.73C1128.52,-424.71 1143.41,-411.93 1150.9,-396 1171.71,-351.75 1166.46,-320.47 1129.9,-288 1089.23,-251.89 927.02,-240.06 851.26,-236.46"/>
<polygon fill="black" stroke="black" points="851.54,-232.97 841.39,-236.02 851.22,-239.96 851.54,-232.97"/>
</g>
<!-- property_map&#45;&gt;bcs -->
<g id="edge55" class="edge">
<title>property_map&#45;&gt;bcs</title>
<path fill="none" stroke="black" d="M1057.41,-433.91C1038.91,-423.99 1014.86,-410.24 994.9,-396 935.4,-353.56 937.53,-318.02 870.9,-288 837.8,-273.09 598.59,-248.13 504.12,-238.73"/>
<polygon fill="black" stroke="black" points="504.63,-235.26 494.33,-237.76 503.94,-242.23 504.63,-235.26"/>
</g>
<!-- property_map&#45;&gt;type_info -->
<g id="edge53" class="edge">
<title>property_map&#45;&gt;type_info</title>
<path fill="none" stroke="black" d="M1064.5,-432.99C1051.55,-423.13 1035.4,-409.78 1022.9,-396 983.97,-353.09 998.05,-320.22 949.9,-288 883.9,-243.84 851.7,-272.16 774.9,-252 771.98,-251.23 768.98,-250.4 765.96,-249.53"/>
<polygon fill="black" stroke="black" points="767.13,-246.23 756.55,-246.69 765.11,-252.93 767.13,-246.23"/>
</g>
<!-- property_map&#45;&gt;from_bcs -->
<g id="edge56" class="edge">
<title>property_map&#45;&gt;from_bcs</title>
<path fill="none" stroke="black" d="M1119.01,-434.5C1143.33,-423.51 1176.85,-408.38 1202.74,-396.69"/>
<polygon fill="black" stroke="black" points="1203.91,-400 1211.58,-392.69 1201.03,-393.62 1203.91,-400"/>
</g>
<!-- simple_map -->
<g id="node21" class="node">
<title>simple_map</title>
<ellipse fill="none" stroke="black" cx="1086.9" cy="-378" rx="54.69" ry="18"/>
<text text-anchor="middle" x="1086.9" y="-374.3" font-family="Times,serif" font-size="14.00">simple_map</text>
</g>
<!-- property_map&#45;&gt;simple_map -->
<g id="edge57" class="edge">
<title>property_map&#45;&gt;simple_map</title>
<path fill="none" stroke="black" d="M1086.9,-431.7C1086.9,-424.41 1086.9,-415.73 1086.9,-407.54"/>
<polygon fill="black" stroke="black" points="1090.4,-407.62 1086.9,-397.62 1083.4,-407.62 1090.4,-407.62"/>
</g>
<!-- simple_map&#45;&gt;error -->
<g id="edge59" class="edge">
<title>simple_map&#45;&gt;error</title>
<path fill="none" stroke="black" d="M1099.92,-360.37C1113.45,-340.95 1130.39,-308.84 1112.9,-288 1079.91,-248.7 924.97,-238.53 851.17,-235.91"/>
<polygon fill="black" stroke="black" points="851.67,-232.42 841.57,-235.6 851.45,-239.42 851.67,-232.42"/>
</g>
<!-- simple_map&#45;&gt;option -->
<g id="edge58" class="edge">
<title>simple_map&#45;&gt;option</title>
<path fill="none" stroke="black" d="M1104.98,-360.62C1123.31,-342 1146.74,-311.19 1129.9,-288 1061.17,-193.39 692.71,-120.7 566.41,-98.24"/>
<polygon fill="black" stroke="black" points="567.25,-94.83 556.8,-96.55 566.04,-101.73 567.25,-94.83"/>
</g>
<!-- comparator -->
<g id="node22" class="node">
<title>comparator</title>
<ellipse fill="none" stroke="black" cx="1052.9" cy="-306" rx="51.19" ry="18"/>
<text text-anchor="middle" x="1052.9" y="-302.3" font-family="Times,serif" font-size="14.00">comparator</text>
</g>
<!-- simple_map&#45;&gt;comparator -->
<g id="edge60" class="edge">
<title>simple_map&#45;&gt;comparator</title>
<path fill="none" stroke="black" d="M1078.67,-360.05C1074.87,-352.23 1070.26,-342.75 1066,-333.98"/>
<polygon fill="black" stroke="black" points="1069.23,-332.62 1061.71,-325.15 1062.93,-335.67 1069.23,-332.62"/>
</g>
<!-- comparator&#45;&gt;bcs -->
<g id="edge61" class="edge">
<title>comparator&#45;&gt;bcs</title>
<path fill="none" stroke="black" d="M1007.85,-297.02C989.86,-293.97 968.93,-290.61 949.9,-288 784.44,-265.3 586.09,-246.07 504.17,-238.48"/>
<polygon fill="black" stroke="black" points="504.51,-234.99 494.23,-237.56 503.86,-241.96 504.51,-234.99"/>
</g>
</g>
</svg>
