<?xml version="1.0" encoding="UTF-8" standalone="no"?>
<!DOCTYPE svg PUBLIC "-//W3C//DTD SVG 1.1//EN"
 "http://www.w3.org/Graphics/SVG/1.1/DTD/svg11.dtd">
<!-- Generated by graphviz version 7.0.0 (20221023.0053)
 -->
<!-- Title: G Pages: 1 -->
<svg width="1623pt" height="531pt"
 viewBox="0.00 0.00 1623.00 531.00" xmlns="http://www.w3.org/2000/svg" xmlns:xlink="http://www.w3.org/1999/xlink">
<g id="graph0" class="graph" transform="scale(1 1) rotate(0) translate(4 527)">
<title>G</title>
<polygon fill="white" stroke="none" points="-4,4 -4,-527 1619,-527 1619,4 -4,4"/>
<g id="clust1" class="cluster">
<title>cluster_table</title>
<polygon fill="none" stroke="black" points="8,-163 8,-313 570,-313 570,-163 8,-163"/>
<text text-anchor="middle" x="289" y="-297.8" font-family="Times,serif" font-size="14.00">table</text>
</g>
<g id="clust2" class="cluster">
<title>cluster_signer</title>
<polygon fill="none" stroke="black" points="514,-8 514,-155 664,-155 664,-8 514,-8"/>
<text text-anchor="middle" x="589" y="-139.8" font-family="Times,serif" font-size="14.00">signer</text>
</g>
<g id="clust3" class="cluster">
<title>cluster_error</title>
<polygon fill="none" stroke="black" points="1160,-80 1160,-238 1607,-238 1607,-80 1160,-80"/>
<text text-anchor="middle" x="1383.5" y="-222.8" font-family="Times,serif" font-size="14.00">error</text>
</g>
<g id="clust4" class="cluster">
<title>cluster_event</title>
<polygon fill="none" stroke="black" points="864,-80 864,-238 1152,-238 1152,-80 864,-80"/>
<text text-anchor="middle" x="1008" y="-222.8" font-family="Times,serif" font-size="14.00">event</text>
</g>
<g id="clust5" class="cluster">
<title>cluster_property_map</title>
<polygon fill="none" stroke="black" points="1294,-404 1294,-479 1387,-479 1387,-404 1294,-404"/>
<text text-anchor="middle" x="1340.5" y="-463.8" font-family="Times,serif" font-size="14.00">property_map</text>
</g>
<g id="clust6" class="cluster">
<title>cluster_bcs</title>
<polygon fill="none" stroke="black" points="760,-80 760,-155 856,-155 856,-80 760,-80"/>
<text text-anchor="middle" x="808" y="-139.8" font-family="Times,serif" font-size="14.00">bcs</text>
</g>
<g id="clust7" class="cluster">
<title>cluster_simple_map</title>
<polygon fill="none" stroke="black" points="1295,-321 1295,-396 1379,-396 1379,-321 1295,-321"/>
<text text-anchor="middle" x="1337" y="-380.8" font-family="Times,serif" font-size="14.00">simple_map</text>
</g>
<g id="clust8" class="cluster">
<title>cluster_account</title>
<polygon fill="none" stroke="black" points="686,-163 686,-313 856,-313 856,-163 686,-163"/>
<text text-anchor="middle" x="771" y="-297.8" font-family="Times,serif" font-size="14.00">account</text>
</g>
<g id="clust9" class="cluster">
<title>cluster_guid</title>
<polygon fill="none" stroke="black" points="672,-80 672,-155 752,-155 752,-80 672,-80"/>
<text text-anchor="middle" x="712" y="-139.8" font-family="Times,serif" font-size="14.00">guid</text>
</g>
<!-- mint_token -->
<g id="node1" class="node">
<title>mint_token</title>
<ellipse fill="none" stroke="black" cx="1120" cy="-505" rx="51.19" ry="18"/>
<text text-anchor="middle" x="1120" y="-501.3" font-family="Times,serif" font-size="14.00">mint_token</text>
</g>
<!-- table::contains -->
<g id="node2" class="node">
<title>table::contains</title>
<ellipse fill="none" stroke="black" cx="450" cy="-264" rx="40.09" ry="18"/>
<text text-anchor="middle" x="450" y="-260.3" font-family="Times,serif" font-size="14.00">contains</text>
</g>
<!-- mint_token&#45;&gt;table::contains -->
<g id="edge1" class="edge">
<title>mint_token&#45;&gt;table::contains</title>
<path fill="none" stroke="black" d="M1068.77,-504.4C941.38,-505 617.5,-504.01 576,-479 506.55,-437.15 471.14,-341.3 457.24,-293.37"/>
<polygon fill="black" stroke="black" points="460.61,-292.44 454.56,-283.74 453.87,-294.31 460.61,-292.44"/>
</g>
<!-- table::borrow_mut -->
<g id="node3" class="node">
<title>table::borrow_mut</title>
<ellipse fill="none" stroke="black" cx="265" cy="-264" rx="54.69" ry="18"/>
<text text-anchor="middle" x="265" y="-260.3" font-family="Times,serif" font-size="14.00">borrow_mut</text>
</g>
<!-- mint_token&#45;&gt;table::borrow_mut -->
<g id="edge2" class="edge">
<title>mint_token&#45;&gt;table::borrow_mut</title>
<path fill="none" stroke="black" d="M1068.51,-503.91C929.68,-503.38 554.64,-500.01 503,-479 404.29,-438.84 319.9,-338.74 283.78,-291.06"/>
<polygon fill="black" stroke="black" points="286.7,-289.12 277.92,-283.2 281.09,-293.31 286.7,-289.12"/>
</g>
<!-- signer::address_of -->
<g id="node4" class="node">
<title>signer::address_of</title>
<ellipse fill="none" stroke="black" cx="607" cy="-106" rx="48.99" ry="18"/>
<text text-anchor="middle" x="607" y="-102.3" font-family="Times,serif" font-size="14.00">address_of</text>
</g>
<!-- mint_token&#45;&gt;signer::address_of -->
<g id="edge3" class="edge">
<title>mint_token&#45;&gt;signer::address_of</title>
<path fill="none" stroke="black" d="M1069.17,-502.03C992.55,-498.71 851.19,-491.16 802,-479 694.48,-452.42 590,-458.76 590,-348 590,-348 590,-348 590,-263 590,-218.27 596.99,-166.74 602.01,-135.53"/>
<polygon fill="black" stroke="black" points="605.45,-136.18 603.63,-125.74 598.55,-135.03 605.45,-136.18"/>
</g>
<!-- error::invalid_argument -->
<g id="node5" class="node">
<title>error::invalid_argument</title>
<ellipse fill="none" stroke="black" cx="1353" cy="-189" rx="73.39" ry="18"/>
<text text-anchor="middle" x="1353" y="-185.3" font-family="Times,serif" font-size="14.00">invalid_argument</text>
</g>
<!-- mint_token&#45;&gt;error::invalid_argument -->
<g id="edge4" class="edge">
<title>mint_token&#45;&gt;error::invalid_argument</title>
<path fill="none" stroke="black" d="M1142.58,-488.57C1145.99,-485.64 1149.27,-482.41 1152,-479 1223.5,-389.55 1185.62,-331.33 1262,-246 1269.92,-237.15 1292.68,-223.14 1313.46,-211.35"/>
<polygon fill="black" stroke="black" points="1315.09,-214.45 1322.11,-206.51 1311.67,-208.34 1315.09,-214.45"/>
</g>
<!-- error::not_found -->
<g id="node6" class="node">
<title>error::not_found</title>
<ellipse fill="none" stroke="black" cx="1215" cy="-189" rx="46.59" ry="18"/>
<text text-anchor="middle" x="1215" y="-185.3" font-family="Times,serif" font-size="14.00">not_found</text>
</g>
<!-- mint_token&#45;&gt;error::not_found -->
<g id="edge5" class="edge">
<title>mint_token&#45;&gt;error::not_found</title>
<path fill="none" stroke="black" d="M1125.24,-486.67C1140.88,-434.99 1187.29,-281.59 1206.51,-218.05"/>
<polygon fill="black" stroke="black" points="1209.79,-219.31 1209.33,-208.72 1203.09,-217.28 1209.79,-219.31"/>
</g>
<!-- error::permission_denied -->
<g id="node7" class="node">
<title>error::permission_denied</title>
<ellipse fill="none" stroke="black" cx="1522" cy="-189" rx="77.19" ry="18"/>
<text text-anchor="middle" x="1522" y="-185.3" font-family="Times,serif" font-size="14.00">permission_denied</text>
</g>
<!-- mint_token&#45;&gt;error::permission_denied -->
<g id="edge6" class="edge">
<title>mint_token&#45;&gt;error::permission_denied</title>
<path fill="none" stroke="black" d="M1159.83,-493.46C1169.02,-489.84 1178.34,-485.11 1186,-479 1251.92,-426.43 1229.31,-378.48 1291,-321 1298.92,-313.62 1419.72,-246.47 1483.39,-211.29"/>
<polygon fill="black" stroke="black" points="1484.7,-214.56 1491.76,-206.66 1481.32,-208.43 1484.7,-214.56"/>
</g>
<!-- event::emit_event -->
<g id="node8" class="node">
<title>event::emit_event</title>
<ellipse fill="none" stroke="black" cx="1094" cy="-189" rx="50.09" ry="18"/>
<text text-anchor="middle" x="1094" y="-185.3" font-family="Times,serif" font-size="14.00">emit_event</text>
</g>
<!-- mint_token&#45;&gt;event::emit_event -->
<g id="edge7" class="edge">
<title>mint_token&#45;&gt;event::emit_event</title>
<path fill="none" stroke="black" d="M1112.51,-486.8C1098.61,-453.84 1069.32,-379.21 1059,-313 1054.42,-283.58 1050.79,-274.62 1059,-246 1062.06,-235.32 1067.83,-224.69 1073.8,-215.62"/>
<polygon fill="black" stroke="black" points="1076.49,-217.88 1079.39,-207.69 1070.77,-213.85 1076.49,-217.88"/>
</g>
<!-- property_map::empty -->
<g id="node9" class="node">
<title>property_map::empty</title>
<ellipse fill="none" stroke="black" cx="1337" cy="-430" rx="33.29" ry="18"/>
<text text-anchor="middle" x="1337" y="-426.3" font-family="Times,serif" font-size="14.00">empty</text>
</g>
<!-- mint_token&#45;&gt;property_map::empty -->
<g id="edge8" class="edge">
<title>mint_token&#45;&gt;property_map::empty</title>
<path fill="none" stroke="black" d="M1169.71,-500.22C1212.17,-496.35 1269.53,-489.42 1290,-479 1300.8,-473.5 1310.57,-464.56 1318.38,-455.87"/>
<polygon fill="black" stroke="black" points="1321.04,-458.14 1324.79,-448.23 1315.68,-453.65 1321.04,-458.14"/>
</g>
<!-- create_token_id -->
<g id="node10" class="node">
<title>create_token_id</title>
<ellipse fill="none" stroke="black" cx="1462" cy="-430" rx="66.89" ry="18"/>
<text text-anchor="middle" x="1462" y="-426.3" font-family="Times,serif" font-size="14.00">create_token_id</text>
</g>
<!-- mint_token&#45;&gt;create_token_id -->
<g id="edge9" class="edge">
<title>mint_token&#45;&gt;create_token_id</title>
<path fill="none" stroke="black" d="M1171.1,-502.31C1238.12,-499.58 1351.79,-493.01 1391,-479 1406.52,-473.45 1421.9,-463.72 1434.36,-454.46"/>
<polygon fill="black" stroke="black" points="1436.32,-457.37 1442.07,-448.48 1432.03,-451.84 1436.32,-457.37"/>
</g>
<!-- deposit_token -->
<g id="node11" class="node">
<title>deposit_token</title>
<ellipse fill="none" stroke="black" cx="871" cy="-430" rx="59.59" ry="18"/>
<text text-anchor="middle" x="871" y="-426.3" font-family="Times,serif" font-size="14.00">deposit_token</text>
</g>
<!-- mint_token&#45;&gt;deposit_token -->
<g id="edge10" class="edge">
<title>mint_token&#45;&gt;deposit_token</title>
<path fill="none" stroke="black" d="M1079.65,-493.65C1063,-489.28 1043.53,-484.04 1026,-479 990.92,-468.91 951.64,-456.73 921.4,-447.17"/>
<polygon fill="black" stroke="black" points="922.72,-443.92 912.13,-444.23 920.61,-450.59 922.72,-443.92"/>
</g>
<!-- table::contains_box -->
<g id="node12" class="node">
<title>table::contains_box</title>
<ellipse fill="none" stroke="black" cx="404" cy="-189" rx="57.69" ry="18"/>
<text text-anchor="middle" x="404" y="-185.3" font-family="Times,serif" font-size="14.00">contains_box</text>
</g>
<!-- table::contains&#45;&gt;table::contains_box -->
<g id="edge11" class="edge">
<title>table::contains&#45;&gt;table::contains_box</title>
<path fill="none" stroke="black" d="M439.56,-246.44C434,-237.6 427.01,-226.52 420.71,-216.52"/>
<polygon fill="black" stroke="black" points="423.82,-214.88 415.52,-208.29 417.89,-218.61 423.82,-214.88"/>
</g>
<!-- table::borrow_box_mut -->
<g id="node13" class="node">
<title>table::borrow_box_mut</title>
<ellipse fill="none" stroke="black" cx="88" cy="-189" rx="72.29" ry="18"/>
<text text-anchor="middle" x="88" y="-185.3" font-family="Times,serif" font-size="14.00">borrow_box_mut</text>
</g>
<!-- table::borrow_mut&#45;&gt;table::borrow_box_mut -->
<g id="edge12" class="edge">
<title>table::borrow_mut&#45;&gt;table::borrow_box_mut</title>
<path fill="none" stroke="black" d="M219.21,-253.84C203.02,-249.89 184.9,-244.63 169,-238 152.45,-231.1 135.21,-221.3 120.91,-212.36"/>
<polygon fill="black" stroke="black" points="123.11,-209.61 112.8,-207.16 119.34,-215.5 123.11,-209.61"/>
</g>
<!-- signer::borrow_address -->
<g id="node14" class="node">
<title>signer::borrow_address</title>
<ellipse fill="none" stroke="black" cx="589" cy="-34" rx="66.89" ry="18"/>
<text text-anchor="middle" x="589" y="-30.3" font-family="Times,serif" font-size="14.00">borrow_address</text>
</g>
<!-- signer::address_of&#45;&gt;signer::borrow_address -->
<g id="edge13" class="edge">
<title>signer::address_of&#45;&gt;signer::borrow_address</title>
<path fill="none" stroke="black" d="M602.55,-87.7C600.65,-80.32 598.39,-71.52 596.26,-63.25"/>
<polygon fill="black" stroke="black" points="599.66,-62.38 593.78,-53.57 592.88,-64.13 599.66,-62.38"/>
</g>
<!-- error::canonical -->
<g id="node15" class="node">
<title>error::canonical</title>
<ellipse fill="none" stroke="black" cx="1353" cy="-106" rx="44.39" ry="18"/>
<text text-anchor="middle" x="1353" y="-102.3" font-family="Times,serif" font-size="14.00">canonical</text>
</g>
<!-- error::invalid_argument&#45;&gt;error::canonical -->
<g id="edge14" class="edge">
<title>error::invalid_argument&#45;&gt;error::canonical</title>
<path fill="none" stroke="black" d="M1353,-170.82C1353,-160.69 1353,-147.6 1353,-135.92"/>
<polygon fill="black" stroke="black" points="1356.5,-135.95 1353,-125.95 1349.5,-135.95 1356.5,-135.95"/>
</g>
<!-- error::not_found&#45;&gt;error::canonical -->
<g id="edge15" class="edge">
<title>error::not_found&#45;&gt;error::canonical</title>
<path fill="none" stroke="black" d="M1239.99,-173.33C1262.11,-160.35 1294.58,-141.29 1319.05,-126.93"/>
<polygon fill="black" stroke="black" points="1320.5,-130.13 1327.35,-122.05 1316.96,-124.1 1320.5,-130.13"/>
</g>
<!-- error::permission_denied&#45;&gt;error::canonical -->
<g id="edge16" class="edge">
<title>error::permission_denied&#45;&gt;error::canonical</title>
<path fill="none" stroke="black" d="M1489.42,-172.38C1461.4,-158.95 1420.94,-139.56 1391.36,-125.39"/>
<polygon fill="black" stroke="black" points="1392.9,-122.24 1382.37,-121.08 1389.87,-128.55 1392.9,-122.24"/>
</g>
<!-- bcs::to_bytes -->
<g id="node16" class="node">
<title>bcs::to_bytes</title>
<ellipse fill="none" stroke="black" cx="808" cy="-106" rx="40.09" ry="18"/>
<text text-anchor="middle" x="808" y="-102.3" font-family="Times,serif" font-size="14.00">to_bytes</text>
</g>
<!-- event::emit_event&#45;&gt;bcs::to_bytes -->
<g id="edge17" class="edge">
<title>event::emit_event&#45;&gt;bcs::to_bytes</title>
<path fill="none" stroke="black" d="M1065.87,-173.68C1056.32,-169.47 1045.41,-165.36 1035,-163 997.04,-154.38 895.92,-170 860,-155 847.97,-149.98 836.98,-140.87 828.24,-131.93"/>
<polygon fill="black" stroke="black" points="830.93,-129.69 821.6,-124.67 825.76,-134.41 830.93,-129.69"/>
</g>
<!-- event::write_to_event_store -->
<g id="node17" class="node">
<title>event::write_to_event_store</title>
<ellipse fill="none" stroke="black" cx="1059" cy="-106" rx="85.29" ry="18"/>
<text text-anchor="middle" x="1059" y="-102.3" font-family="Times,serif" font-size="14.00">write_to_event_store</text>
</g>
<!-- event::emit_event&#45;&gt;event::write_to_event_store -->
<g id="edge18" class="edge">
<title>event::emit_event&#45;&gt;event::write_to_event_store</title>
<path fill="none" stroke="black" d="M1086.58,-170.82C1082.03,-160.3 1076.11,-146.59 1070.91,-134.57"/>
<polygon fill="black" stroke="black" points="1074.19,-133.33 1067.01,-125.54 1067.77,-136.11 1074.19,-133.33"/>
</g>
<!-- simple_map::create -->
<g id="node18" class="node">
<title>simple_map::create</title>
<ellipse fill="none" stroke="black" cx="1337" cy="-347" rx="31.7" ry="18"/>
<text text-anchor="middle" x="1337" y="-343.3" font-family="Times,serif" font-size="14.00">create</text>
</g>
<!-- property_map::empty&#45;&gt;simple_map::create -->
<g id="edge19" class="edge">
<title>property_map::empty&#45;&gt;simple_map::create</title>
<path fill="none" stroke="black" d="M1337,-411.82C1337,-401.69 1337,-388.6 1337,-376.92"/>
<polygon fill="black" stroke="black" points="1340.5,-376.95 1337,-366.95 1333.5,-376.95 1340.5,-376.95"/>
</g>
<!-- deposit_token&#45;&gt;signer::address_of -->
<g id="edge20" class="edge">
<title>deposit_token&#45;&gt;signer::address_of</title>
<path fill="none" stroke="black" d="M862.41,-412C848.06,-384.33 819.01,-331.59 801,-321 778.15,-307.57 703.19,-328.92 682,-313 681.06,-312.3 637.18,-190.77 616.99,-134.73"/>
<polygon fill="black" stroke="black" points="620.37,-133.78 613.68,-125.56 613.78,-136.16 620.37,-133.78"/>
</g>
<!-- direct_deposit -->
<g id="node19" class="node">
<title>direct_deposit</title>
<ellipse fill="none" stroke="black" cx="923" cy="-347" rx="60.39" ry="18"/>
<text text-anchor="middle" x="923" y="-343.3" font-family="Times,serif" font-size="14.00">direct_deposit</text>
</g>
<!-- deposit_token&#45;&gt;direct_deposit -->
<g id="edge21" class="edge">
<title>deposit_token&#45;&gt;direct_deposit</title>
<path fill="none" stroke="black" d="M882.03,-411.82C888.92,-401.08 897.95,-387.03 905.77,-374.84"/>
<polygon fill="black" stroke="black" points="908.71,-376.73 911.17,-366.43 902.82,-372.95 908.71,-376.73"/>
</g>
<!-- initialize_token_store -->
<g id="node20" class="node">
<title>initialize_token_store</title>
<ellipse fill="none" stroke="black" cx="705" cy="-347" rx="87.18" ry="18"/>
<text text-anchor="middle" x="705" y="-343.3" font-family="Times,serif" font-size="14.00">initialize_token_store</text>
</g>
<!-- deposit_token&#45;&gt;initialize_token_store -->
<g id="edge22" class="edge">
<title>deposit_token&#45;&gt;initialize_token_store</title>
<path fill="none" stroke="black" d="M840.55,-414.14C814.63,-401.49 777.08,-383.17 748.07,-369.02"/>
<polygon fill="black" stroke="black" points="749.69,-365.91 739.17,-364.67 746.62,-372.21 749.69,-365.91"/>
</g>
<!-- direct_deposit&#45;&gt;table::contains -->
<g id="edge23" class="edge">
<title>direct_deposit&#45;&gt;table::contains</title>
<path fill="none" stroke="black" d="M877.54,-334.71C854.72,-329.54 826.56,-323.93 801,-321 767.65,-317.17 529.91,-326.1 499,-313 487.49,-308.12 477.18,-299.17 469.02,-290.31"/>
<polygon fill="black" stroke="black" points="471.75,-288.11 462.59,-282.78 466.42,-292.66 471.75,-288.11"/>
</g>
<!-- direct_deposit&#45;&gt;table::borrow_mut -->
<g id="edge24" class="edge">
<title>direct_deposit&#45;&gt;table::borrow_mut</title>
<path fill="none" stroke="black" d="M877.84,-334.67C854.97,-329.46 826.68,-323.82 801,-321 774.93,-318.13 353.81,-321.5 329,-313 314.38,-307.99 300.38,-298.27 289.22,-288.88"/>
<polygon fill="black" stroke="black" points="291.86,-286.54 282.06,-282.52 287.21,-291.77 291.86,-286.54"/>
</g>
<!-- direct_deposit&#45;&gt;error::invalid_argument -->
<g id="edge26" class="edge">
<title>direct_deposit&#45;&gt;error::invalid_argument</title>
<path fill="none" stroke="black" d="M983.32,-345.6C1028.96,-343.28 1092.22,-335.68 1143,-313 1185.66,-293.95 1181.53,-265.47 1224,-246 1243.26,-237.17 1251.09,-245.25 1271,-238 1288.25,-231.72 1306.01,-221.83 1320.56,-212.65"/>
<polygon fill="black" stroke="black" points="1322.34,-215.67 1328.81,-207.29 1318.52,-209.8 1322.34,-215.67"/>
</g>
<!-- direct_deposit&#45;&gt;error::not_found -->
<g id="edge27" class="edge">
<title>direct_deposit&#45;&gt;error::not_found</title>
<path fill="none" stroke="black" d="M948.21,-330.34C956.53,-325 965.77,-318.89 974,-313 1013.12,-285.01 1014.24,-263.61 1059,-246 1099.25,-230.16 1115.87,-254.15 1156,-238 1169.26,-232.66 1181.86,-223.25 1191.99,-214.17"/>
<polygon fill="black" stroke="black" points="1194.25,-216.84 1199.1,-207.42 1189.44,-211.76 1194.25,-216.84"/>
</g>
<!-- direct_deposit&#45;&gt;event::emit_event -->
<g id="edge28" class="edge">
<title>direct_deposit&#45;&gt;event::emit_event</title>
<path fill="none" stroke="black" d="M928.61,-328.64C936.99,-305.72 955.07,-265.92 985,-246 1003.73,-233.53 1014.46,-247.19 1035,-238 1047.86,-232.24 1060.26,-222.94 1070.34,-214.05"/>
<polygon fill="black" stroke="black" points="1072.48,-216.84 1077.44,-207.48 1067.73,-211.7 1072.48,-216.84"/>
</g>
<!-- table::add -->
<g id="node21" class="node">
<title>table::add</title>
<ellipse fill="none" stroke="black" cx="535" cy="-264" rx="27" ry="18"/>
<text text-anchor="middle" x="535" y="-260.3" font-family="Times,serif" font-size="14.00">add</text>
</g>
<!-- direct_deposit&#45;&gt;table::add -->
<g id="edge25" class="edge">
<title>direct_deposit&#45;&gt;table::add</title>
<path fill="none" stroke="black" d="M876.91,-335.02C854.18,-330 826.28,-324.42 801,-321 748.47,-313.89 734.04,-323.08 682,-313 641.92,-305.23 597.58,-289.76 568.19,-278.47"/>
<polygon fill="black" stroke="black" points="569.7,-275.3 559.11,-274.92 567.15,-281.82 569.7,-275.3"/>
</g>
<!-- merge -->
<g id="node22" class="node">
<title>merge</title>
<ellipse fill="none" stroke="black" cx="1101" cy="-264" rx="33.29" ry="18"/>
<text text-anchor="middle" x="1101" y="-260.3" font-family="Times,serif" font-size="14.00">merge</text>
</g>
<!-- direct_deposit&#45;&gt;merge -->
<g id="edge29" class="edge">
<title>direct_deposit&#45;&gt;merge</title>
<path fill="none" stroke="black" d="M962.49,-332.94C978.4,-327.32 996.78,-320.35 1013,-313 1032.3,-304.26 1053.14,-292.98 1069.7,-283.55"/>
<polygon fill="black" stroke="black" points="1071.17,-286.74 1078.09,-278.71 1067.68,-280.67 1071.17,-286.74"/>
</g>
<!-- initialize_token_store&#45;&gt;signer::address_of -->
<g id="edge31" class="edge">
<title>initialize_token_store&#45;&gt;signer::address_of</title>
<path fill="none" stroke="black" d="M670.56,-330.16C663.52,-325.52 656.81,-319.82 652,-313 613.77,-258.83 607.11,-178.19 606.49,-135.66"/>
<polygon fill="black" stroke="black" points="609.99,-135.74 606.46,-125.75 602.99,-135.76 609.99,-135.74"/>
</g>
<!-- table::new -->
<g id="node23" class="node">
<title>table::new</title>
<ellipse fill="none" stroke="black" cx="365" cy="-264" rx="27" ry="18"/>
<text text-anchor="middle" x="365" y="-260.3" font-family="Times,serif" font-size="14.00">new</text>
</g>
<!-- initialize_token_store&#45;&gt;table::new -->
<g id="edge30" class="edge">
<title>initialize_token_store&#45;&gt;table::new</title>
<path fill="none" stroke="black" d="M618.55,-344.21C542,-341.26 436.98,-333.49 401,-313 392.02,-307.89 384.6,-299.53 378.87,-291.21"/>
<polygon fill="black" stroke="black" points="381.98,-289.59 373.73,-282.94 376.04,-293.29 381.98,-289.59"/>
</g>
<!-- account::new_event_handle -->
<g id="node24" class="node">
<title>account::new_event_handle</title>
<ellipse fill="none" stroke="black" cx="771" cy="-264" rx="76.89" ry="18"/>
<text text-anchor="middle" x="771" y="-260.3" font-family="Times,serif" font-size="14.00">new_event_handle</text>
</g>
<!-- initialize_token_store&#45;&gt;account::new_event_handle -->
<g id="edge32" class="edge">
<title>initialize_token_store&#45;&gt;account::new_event_handle</title>
<path fill="none" stroke="black" d="M719,-328.82C728.01,-317.76 739.89,-303.18 750.02,-290.75"/>
<polygon fill="black" stroke="black" points="752.46,-293.29 756.07,-283.33 747.04,-288.87 752.46,-293.29"/>
</g>
<!-- table::add_box -->
<g id="node25" class="node">
<title>table::add_box</title>
<ellipse fill="none" stroke="black" cx="521" cy="-189" rx="40.89" ry="18"/>
<text text-anchor="middle" x="521" y="-185.3" font-family="Times,serif" font-size="14.00">add_box</text>
</g>
<!-- table::add&#45;&gt;table::add_box -->
<g id="edge33" class="edge">
<title>table::add&#45;&gt;table::add_box</title>
<path fill="none" stroke="black" d="M531.68,-245.7C530.12,-237.58 528.23,-227.68 526.46,-218.5"/>
<polygon fill="black" stroke="black" points="529.95,-218.08 524.63,-208.92 523.07,-219.4 529.95,-218.08"/>
</g>
<!-- merge&#45;&gt;error::invalid_argument -->
<g id="edge34" class="edge">
<title>merge&#45;&gt;error::invalid_argument</title>
<path fill="none" stroke="black" d="M1126.48,-252.31C1133.35,-249.83 1140.87,-247.49 1148,-246 1201.62,-234.79 1218.62,-254.05 1271,-238 1289.11,-232.45 1307.48,-222.22 1322.22,-212.63"/>
<polygon fill="black" stroke="black" points="1323.76,-215.81 1330.1,-207.31 1319.85,-210.01 1323.76,-215.81"/>
</g>
<!-- table::new_table_handle -->
<g id="node26" class="node">
<title>table::new_table_handle</title>
<ellipse fill="none" stroke="black" cx="253" cy="-189" rx="74.99" ry="18"/>
<text text-anchor="middle" x="253" y="-185.3" font-family="Times,serif" font-size="14.00">new_table_handle</text>
</g>
<!-- table::new&#45;&gt;table::new_table_handle -->
<g id="edge35" class="edge">
<title>table::new&#45;&gt;table::new_table_handle</title>
<path fill="none" stroke="black" d="M346.25,-250.78C330.27,-240.36 306.88,-225.12 287.53,-212.5"/>
<polygon fill="black" stroke="black" points="289.67,-209.72 279.38,-207.2 285.85,-215.59 289.67,-209.72"/>
</g>
<!-- event::new_event_handle -->
<g id="node27" class="node">
<title>event::new_event_handle</title>
<ellipse fill="none" stroke="black" cx="949" cy="-189" rx="76.89" ry="18"/>
<text text-anchor="middle" x="949" y="-185.3" font-family="Times,serif" font-size="14.00">new_event_handle</text>
</g>
<!-- account::new_event_handle&#45;&gt;event::new_event_handle -->
<g id="edge36" class="edge">
<title>account::new_event_handle&#45;&gt;event::new_event_handle</title>
<path fill="none" stroke="black" d="M822.95,-250.49C835.27,-246.95 848.25,-242.75 860,-238 877.89,-230.77 896.83,-220.9 912.61,-211.98"/>
<polygon fill="black" stroke="black" points="914.25,-215.08 921.17,-207.06 910.76,-209.01 914.25,-215.08"/>
</g>
<!-- account::create_guid -->
<g id="node28" class="node">
<title>account::create_guid</title>
<ellipse fill="none" stroke="black" cx="746" cy="-189" rx="51.99" ry="18"/>
<text text-anchor="middle" x="746" y="-185.3" font-family="Times,serif" font-size="14.00">create_guid</text>
</g>
<!-- account::new_event_handle&#45;&gt;account::create_guid -->
<g id="edge37" class="edge">
<title>account::new_event_handle&#45;&gt;account::create_guid</title>
<path fill="none" stroke="black" d="M765.08,-245.7C762.24,-237.43 758.78,-227.31 755.58,-217.99"/>
<polygon fill="black" stroke="black" points="758.92,-216.93 752.37,-208.61 752.3,-219.2 758.92,-216.93"/>
</g>
<!-- account::create_guid&#45;&gt;signer::address_of -->
<g id="edge38" class="edge">
<title>account::create_guid&#45;&gt;signer::address_of</title>
<path fill="none" stroke="black" d="M710.87,-175.45C697.1,-169.95 681.42,-162.93 668,-155 655.97,-147.9 643.69,-138.68 633.32,-130.22"/>
<polygon fill="black" stroke="black" points="635.84,-127.76 625.92,-124.03 631.35,-133.13 635.84,-127.76"/>
</g>
<!-- guid::create -->
<g id="node29" class="node">
<title>guid::create</title>
<ellipse fill="none" stroke="black" cx="712" cy="-106" rx="31.7" ry="18"/>
<text text-anchor="middle" x="712" y="-102.3" font-family="Times,serif" font-size="14.00">create</text>
</g>
<!-- account::create_guid&#45;&gt;guid::create -->
<g id="edge39" class="edge">
<title>account::create_guid&#45;&gt;guid::create</title>
<path fill="none" stroke="black" d="M738.79,-170.82C734.34,-160.23 728.54,-146.4 723.47,-134.33"/>
<polygon fill="black" stroke="black" points="726.77,-133.14 719.67,-125.27 720.31,-135.85 726.77,-133.14"/>
</g>
</g>
</svg>
